<?xml version="1.0" encoding="UTF-8"?>
<svg xmlns="http://www.w3.org/2000/svg" viewBox="0 0 222.3 377.96">
  <defs>
    <style>
      .cls-1 {
        fill: #6ea964;
      }

      .cls-2 {
        fill: #6faa65;
      }

      .cls-3 {
        fill: #54824d;
      }
    </style>
  </defs>
  <g id="_лой_1" data-name="Слой 1"/>
  <g id="_лой_2" data-name="Слой 2">
    <g id="_лой_1-2" data-name="Слой 1">
      <g>
        <g>
          <path class="cls-3" d="M219.04,40.31c-.73-3.35-.87-7.46-2.39-10.37-1-1.92-.69-3.77,.29-5.16-6.59-6.66-15.19-13.29-24.11-16.2-5.4-1.76-11.4-1.69-16.96-2.86-5.48-1.15-11.18-2.42-16.78-1.68-2,.26-3.37-.55-4.1-1.8-1.39,.23-2.77,.37-4,.27-.27-.11-.53-.24-.76-.39-.38,0-.71,0-1.07,0-.28-.11-.55-.24-.8-.4-5.33,0-7.32-.33-12.65-.33-.74,.56-1.91-.27-2.75-.02-5.34,1.58-10.12,3.83-14.54,6.59-1.97,.93-3.89,1.94-5.75,3.04,.15,2.28-1.04,4.67-3.58,5.25-.31,1.04-1.06,1.98-2.39,2.61-4.87,2.3-6.56,7.61-10.21,11.37-1.58,1.62-3.67,2.74-5.11,4.49-1.58,1.92-2.63,4.09-4.46,5.86-8.74,8.52-17.87,16.19-24.95,26.28-1.35,1.92-3.37,2.46-5.21,2.11-1.09,2.06-2.13,4.17-3.74,5.66-8.82,8.18-16.53,17.16-24.21,26.34-4.05,4.84-8.02,9.51-12.02,14.39-5.93,7.23-11.43,13.64-13.99,22.8-.63,2.23-.99,4.92-1.58,7.16-.19,.71,.63,.98,.26,1.64,.07,3.7-.26,4.32-.26,7.29,1.92,.93,.45,4.77,.66,6.24,.83,5.87,2.97,10.35,5.91,15.37,4.36,7.44,9.58,12.92,16.5,16.22,3.21,1.68,6.79,2.89,10.85,3.55,10.65,1.75,18.46-2.01,26.36-9.2,1.59-1.45,3.6-2.89,5.17-4.38,1.04-.99,2.27-2.74,3.59-3.24,4.01-1.52,7.29-3.46,10.2-5.91-1.27-1.39-1.71-3.4-.32-5.47,1.77-2.63,4.04-4.85,5.78-7.49,1.66-2.51,2.95-5.24,4.62-7.76,3.73-5.61,7.41-11.44,10.88-17.21,3.32-5.51,11.96-.48,8.63,5.05-.46,.77-.94,1.54-1.41,2.32,.27,1.32,.41,2.58,.38,3.62-.22,7.81-.97,15.5-1.84,23.26-1.07,9.57-2.58,19.19-3.35,28.77-.97,12.09-.82,24.06-.99,36.2-.1,7.47,.23,15.05,.46,22.53,.31,10.16-1.06,20.31-1.91,30.42-1.38,16.56-3.76,32.96-2.92,49.63,.43,8.52,3.24,16.28,9.62,22.37,6.06,5.77,11.84,10.78,18.76,14.06,4.37,2.23,9.17,3.77,14.79,4.35,8.23-.21,23.3-2.67,31.2-4.6,6.62-1.61,11.26-4.65,15.03-9.34-1.09-1.36-1.37-3.24,0-5.15,1.61-2.25,1.72-4.77,2.47-7.35,.64-2.17,1.67-4.06,2.81-6,1.78-3.01,1.05-5.63,1.39-8.96,.27-2.67,1.66-5.09,1.84-7.75,.04-.62,.17-1.18,.38-1.67-1.72-.61-3.07-2.11-3-4.5,.18-7.1,2.05-13.87,3.11-20.85,1-6.62,.79-13.34,1.09-20.01,.32-7.16,1.93-14.14,1.33-21.33-.56-6.59,.59-12.71,.65-19.27,.01-1.26,.41-2.27,1.03-3.04-.39-.91-.43-2.02,.07-3.28,1.56-3.96,1.7-8.48,2.42-12.66,.73-4.19,1.12-8.24,1.05-12.49-.16-9.09-.97-18.15-1.02-27.25-.01-2.18,1.13-3.62,2.64-4.33-.02-.2-.03-.41-.04-.61-1.77-.61-3.2-2.11-3.26-4.52-.15-6.62-1.42-13.13-1.45-19.76-.01-3.03-.05-6.06,.05-9.09,.06-1.7,.7-4.38-.16-5.94-1.08-1.98-.72-3.89,.33-5.28-.2-.51-.33-1.07-.36-1.71-.18-3.97,.19-7.99,1.23-11.84,.58-2.16,1.59-4.13,1.53-6.42-.05-1.87-.73-3.73-1.14-5.53-1.73-7.69,.94-13.44,3.03-20.72,1.09-3.82,2.68-7.45,3.92-11.22,1.27-3.86,1.95-7.84,3.37-11.66,1.43-3.85,3.65-7.6,4.56-11.61,.8-3.5,.82-7.08,1.6-10.59-.14-.29-.25-.6-.32-.92Z"/>
          <path class="cls-2" d="M182.58,49.29c-.76,2.16-1.32,4.4-2.32,6.42-1.39,2.81-2.68,2.95-5.68,1.73-2.58-1.05-3.9-3.31-4.86-5.44-2.09-4.64-3.64-9.54-5.32-14.36-.84-2.4-.09-4.61,1.37-6.55,2.31-3.08,6.26-3.84,9.15-1.34,1.81,1.57,3.51,3.71,4.27,5.93,1.48,4.33,2.26,8.89,3.39,13.61Z"/>
          <path class="cls-2" d="M165.1,308.53c0-3.49-.08-6.98,.02-10.47,.11-3.91,2.94-7.51,5.85-7.66,3.02-.15,6.6,3.96,6.02,7.87-.93,6.32-1.22,12.86-4.31,18.67-.91,1.71-2.18,3.38-3.67,4.6-1.97,1.6-3.83,.56-3.9-2.04-.1-3.65-.02-7.31-.02-10.97h0Z"/>
          <path class="cls-2" d="M172.11,176.3c0-1.33-.01-2.67,0-4,0-.67-.03-1.35,.11-1.99,.63-3.02,3.74-6.04,6.03-5.91,2.17,.13,5.38,2.96,5.66,5.72,.64,6.34,.18,12.6-2.97,18.36-.31,.57-.77,1.09-1.26,1.54-2.09,1.93-4.63,1.62-5.58-1.09-1.03-2.92-1.41-6.07-1.95-9.14-.2-1.13-.03-2.33-.03-3.49h-.02Z"/>
          <path class="cls-2" d="M124.74,24.16c4.88,.03,6.64,2.88,4.01,6.47-2.81,3.83-6.26,7.2-9.43,10.77-.11,.12-.25,.22-.38,.31-2.67,1.84-6.47,2.03-8.33,.43-1.66-1.43-2.23-5.12-1.02-7.86,.52-1.18,1.21-2.53,2.22-3.2,3.55-2.36,7.25-4.51,10.96-6.63,.66-.38,1.61-.24,1.97-.28Z"/>
          <path class="cls-2" d="M184.31,75.14c-.36,2.14-.81,5.23-1.48,8.27-.13,.61-1.06,1.24-1.75,1.44-.39,.12-1.25-.49-1.53-.98-2.64-4.66-4.36-9.64-4.42-15.03-.03-2.92,1.49-4.46,4.04-4.66,2.46-.19,3.99,.78,4.6,3.54,.45,2.08,.34,4.28,.54,7.42Z"/>
          <path class="cls-1" d="M182.1,228.75c-.02,.14,.1,1.09-.29,1.72-.58,.94-1.45,2.15-2.35,2.3-.81,.14-2.21-.79-2.67-1.63-.74-1.34-1.39-3.04-1.22-4.48,.2-1.73,2.61-2.79,4.31-2.41,2.09,.47,2.31,2.07,2.23,4.5Z"/>
        </g>
        <g>
          <path d="M105.81,136.71c-1.57,1.81-2.91,3.01-3.83,4.48-3.18,5.07-6.4,10.14-9.26,15.39-4.28,7.86-9.34,14.98-16.98,19.94-.84,.54-1.62,1.36-2.54,1.56-4.91,1.11-7.6,4.96-10.91,8.21-8.84,8.67-19.78,12.43-31.62,9.22-10.45-2.83-19.28-9.26-24.35-19.4-8.5-17-8.82-33.99,1.48-50.4,3.61-5.75,8.01-11.02,12.27-16.34,3.33-4.15,6.98-8.05,10.52-12.03,6.97-7.83,13.98-15.63,20.96-23.45,3.99-4.47,7.9-9.03,11.94-13.45,11.24-12.29,22.46-24.61,33.84-36.78,6.87-7.35,14.79-13.44,23.69-18.18,7.17-3.81,14.67-5.96,22.99-5.4,10.45,.7,20.97,.5,31.42,1.22,12.86,.88,24.74,4.81,35.24,12.61,7.48,5.55,11.42,12.71,11.61,22.08,.16,8.1-1.2,15.88-3.7,23.55-2.74,8.38-5.72,16.71-7.78,25.26-1.58,6.58-1.99,13.46-2.72,20.22-1.19,10.91-1.94,21.88-3.4,32.75-1.32,9.82-1.8,19.55,.56,29.22,2.72,11.17,2.4,22.44,1.56,33.76-.3,3.98-.85,7.99-.65,11.95,.56,11.09-1.41,21.88-3.31,32.7-.49,2.77-.71,5.62-.72,8.43-.06,16.66,.23,33.32-.1,49.97-.28,13.99-1.69,27.94-5.16,41.52-1.3,5.09-3.57,10.06-6.16,14.65-4.12,7.28-10.63,11.93-18.79,13.82-6.63,1.54-13.35,2.82-20.1,3.72-12.25,1.63-23.48-1.28-33.49-8.59-2.42-1.77-4.76-3.64-7.18-5.42-8.71-6.43-12.47-15.4-12.94-25.87-.63-13.99,.44-27.92,1.7-41.87,1.34-14.74,2.78-29.49,2.23-44.35-.41-10.98-.89-21.97-.73-32.95,.2-13.65,2.12-27.16,4.12-40.67,1.53-10.34,1.86-20.86,2.6-31.31,.22-3.17-.66-6.19-2.3-9.78Zm42.67,231.66c7.83,.53,15.26-1.48,22.63-3.51,5.99-1.65,10.84-5.36,13.82-10.82,2.14-3.91,4.21-8.12,4.99-12.44,1.82-10.13,3.51-20.38,4.04-30.64,.69-13.29,.18-26.65,.26-39.97,.06-10.14-1.16-20.41,1.36-30.36,2.19-8.67,2.79-17.36,2.59-26.22-.12-5.16-.21-10.37,.4-15.47,1.19-10.01,1.26-19.92-.91-29.8-2.42-11.02-2.38-22.07-.8-33.22,1.35-9.55,2.73-19.14,3.11-28.76,.51-12.73,1.89-25.19,6.32-37.22,1.84-5,3.44-10.08,5.11-15.13,2.05-6.21,3.41-12.53,2.75-19.13-.68-6.83-3.52-12.19-9.41-16.2-11.19-7.61-23.65-10.27-36.87-10.66-7.15-.21-14.35-.19-21.43-1.11-6.44-.83-12.21,.53-17.94,2.98-10.59,4.54-19.59,11.33-27.31,19.79-22.79,24.97-45.83,49.72-67.56,75.65-2.03,2.42-4.28,4.67-6.28,7.12-3.78,4.64-7.68,9.22-11.13,14.1-9.86,13.96-10.45,28.59-3.04,43.88,4.42,9.12,16.86,17.26,26.83,15.94,6.8-.9,13.38-2.68,19.16-6.63,2.88-1.97,5.6-3.92,7.3-7.27,1.07-2.11,3.16-3.96,5.21-5.25,6.01-3.78,9.89-9.24,13.39-15.2,3.45-5.88,7.13-11.64,10.92-17.31,1.46-2.19,3.28-4.25,5.3-5.94,4.15-3.48,8.9-2.86,12.26,1.4,2.34,2.97,3.58,6.5,3.45,10.23-.35,9.81-.31,19.69-1.62,29.38-1.78,13.17-5.17,26.11-5.93,39.45-.42,7.48-1.14,14.97-1.02,22.45,.24,15.15,1.31,30.28-.28,45.43-1.04,9.92-1.83,19.88-2.38,29.85-.5,8.96-.89,17.96-.64,26.93,.28,10.23,4.14,18.8,13.67,23.95,1.02,.55,1.92,1.31,2.9,1.96,8.13,5.37,16.86,8.69,26.76,7.77Z"/>
          <path d="M185.95,61.43c-.87-2.55-1.86-4.96-2.5-7.47-1.1-4.33-2.02-8.71-2.93-13.08-.26-1.28-.29-2.63-.28-3.95,0-2.01,.98-3.57,2.81-4.32,1.98-.8,3.98-.55,5.51,1.07,.89,.95,1.84,2.06,2.17,3.26,1.9,6.82,2.26,13.71,.02,20.53-.61,1.86-1.49,3.78-4.8,3.96Z"/>
          <path d="M184.53,199.42c-.46-7.89-.94-15.5-1.33-23.12-.08-1.65-.08-3.37,.3-4.95,.41-1.69,1.67-2.9,3.59-2.91,1.9-.01,3.5,1.11,3.63,2.81,.69,9.12,1.16,18.27-3.81,26.59-.25,.41-.64,.76-1.03,1.06-.24,.19-.6,.24-1.35,.51Z"/>
          <path d="M184.42,297.51c3.02-.13,3.28,2.67,3.45,4.95,.21,2.98,.35,6.03-.03,8.98-.75,5.74-1.82,11.44-2.88,17.14-.36,1.93-1.23,3.67-3.18,4.64-.36-.63-.66-.9-.63-1.13,1.55-9.92,1.02-19.92,1.17-29.9,.04-2.34-.06-2.46,2.11-4.67Z"/>
          <path d="M101.45,48.26c-1.08,4.1-2.99,7.82-5.69,11.12-1.49,1.83-3.78,2.18-5.3,1.17-1.64-1.08-2.05-3.72-.6-5.77,.93-1.32,2.18-2.53,3.53-3.41,2.29-1.49,4.77-2.69,7.18-4.01l.88,.89Z"/>
        </g>
      </g>
    </g>
  </g>
</svg>