<?xml version="1.0" encoding="UTF-8"?>
<svg xmlns="http://www.w3.org/2000/svg" viewBox="0 0 279.48 380.41">
  <defs>
    <style>
      .cls-1 {
        fill: #f9f9fd;
      }

      .cls-2 {
        fill: #d3d3d6;
      }

      .cls-3 {
        fill: #fefefe;
      }
    </style>
  </defs>
  <g id="_лой_1" data-name="Слой 1"/>
  <g id="_лой_2" data-name="Слой 2">
    <g id="_лой_1-2" data-name="Слой 1">
      <g>
        <g>
          <path class="cls-2" d="M274.51,228.35c-.31-.37-.69-.75-.79-1.22-1.79-8.63-6.85-14.57-14.41-18.56-3.09-1.63-5.31-4.16-6.82-7.37-3.24-6.9-8.22-11.94-14.51-15.64-.49,.16-1.03,.24-1.63,.24-1.48,0-2.62-.53-3.42-1.35-.8,.82-1.93,1.35-3.41,1.35-2.24,0-3.7-1.21-4.38-2.79-8.06,.19-18.06-.26-24.42-4.97-1.99-1.47-3.5-4.49-1.79-6.84,2.6-3.59,5.99-5.86,9.73-8.15,4.02-2.46,7.7-5.32,11.31-8.34,3.47-2.9,7.5-5.25,10.78-8.35,3.74-3.52,5.37-8.63,7.85-13.01,.72-1.28,1.73-1.99,2.81-2.28,.55-.96,1.42-1.72,2.61-2.08,.07-.38,.19-.74,.37-1.09,.2-.62,.55-1.16,1.03-1.61,.45-.49,.99-.83,1.61-1.03,.24-.13,.49-.22,.75-.29,.21-.09,.42-.16,.64-.23,.44-.06,.89-.12,1.33-.18h.02c2.27-5.19,4-10.65,4.98-16.49,.9-5.34,1.31-10.72,1.92-16.09,1.67-14.58,1.91-29.03-2.81-43.23-4.5-13.54-11.9-24.13-25.58-29.37-10.74-4.12-21.69-7.07-33.09-8.38-9.25-1.06-18.52-2-27.16-6.03-2.33-1.09-4.97-1.09-7.51-1.49-5.67-.89-11.52,.72-17.07-1.38h-2.89c-.32,.37-.64,.37-.96,0h-7.71c-.32,.37-.64,.37-.96,0h-4.82c-5.78,1.94-11.92,1.76-17.8,3.45-7.71,2.22-15.71,3.09-23.75,3.74-13.85,1.12-26.58,5.21-37.46,14.86-13.28,11.78-22.72,26.18-29.95,42.27-2.63,5.86-3.61,12.12-3.77,18.64-.13,5.62,1.21,10.88,2.61,16.13,.86,.58,1.53,1.5,1.83,2.83,.83,3.61,3.14,6.84,5.81,9.36,.21,.2,.39,.4,.55,.61,.9,.16,1.8,.62,2.6,1.52,7.87,8.79,24.96,11.66,35.98,8.48,5.89-1.7,11.33-5.07,15.5-9.56,5.09-5.47,6.72-12.68,9.46-19.42,2.37-5.85,5.29-11.67,11.08-14.74,5.33-2.83,11.45-3.54,16.79-6.4,5.1-2.73,10.15-6.65,15.93-7.79,2.03-.4,3.62-.27,4.96,.24,1.48-.76,3.31-.74,4.9,.04,4.33,2.1,8.34,5.86,10.47,10.2,.81,1.67,.81,3.57-.05,5.07,1.81,1.71,3.56,3.48,5.07,5.49,.86,1.14,1.63,2.33,2.34,3.54,1.41,.15,2.82,.77,4.04,1.94,3.85,3.68,5,9.87,5.57,14.89,.73,6.45-.45,12.84-4.14,18.26-3.58,5.26-8.17,10.55-13.21,14.43-.24,.19-.49,.36-.74,.53,.01,.03,.02,.07,.03,.1,.73,2.66-.91,5.35-3.49,6.15-2.78,.87-5.45,2.06-8.15,3.15-.89,.36-1.83,.32-2.71,.02-.27,.18-.53,.37-.81,.54-5.89,3.5-13.62,4.41-18.09,10.07-3.05,3.86-4.2,9.22-5.74,14.11,.37,1.74-.05,3.64-1.52,4.83,0,.09,0,.19,0,.31,.01,.42-.2,1.17-.25,1.55-.21,1.69-.25,3.4-.3,5.1-.08,2.95-.03,5.91-.01,8.86,0,.78-.14,1.47-.4,2.06,.02,.19,.03,.38,.04,.56,2.02,.71,3.04,2.65,3.07,4.62,3.15,1.45,5.31,4.34,7.38,7.44,3.69,5.5,7.75,8.39,14.35,9.93,.1,.02,.19,.06,.29,.09,.74-.46,1.69-.68,2.85-.53,12.95,1.59,25.31,9.87,35.38,17.79,5.4,4.25,9.81,7.92,11.1,14.95,1.24,6.76,2.36,14.28,1.61,21.13-.2,1.84-1.2,3.14-2.48,3.92-2.88,11.26-11.58,20.5-21.63,25.99-9.28,5.08-24.35,9.4-33.77,2.43-2.13-1.57-3.7-3.79-5.9-5.26-2.59-1.74-5.82-2.15-8.57-3.6-2.95-1.55-4.37-4.01-6.75-6.11-2.68-2.36-6.61-1.78-9.99-1.93-6.45-.29-13.34,.23-17.73-5.34-2.24-2.84-2.38-6.53-4.47-9.32-1.87-2.5-3.79-4.06-4.43-7.34-.06-.31-.09-.6-.1-.89-.94-.31-1.83-.91-2.55-1.86-2.76-3.66-4.2-7.95-6.14-12-.67-.33-1.33-.66-1.95-.99-.62-.33-1.22-.62-1.81-.91-4.03,1.12-8.33,.55-11.96-1.91-.12-.08-.21-.18-.32-.26-3.46,.2-6.95,.62-10.37,1.13-1.37,.32-2.74,.58-4.1,.73-4.04,1.08-7.36,3.34-11.32,4.95-.93,.38-1.78,.46-2.53,.32-7.19,7.71-11.88,17.81-12.8,28.82-.1,1.16-.08,2.3-.97,3.18v16.72c.41,.51,.82,1.02,.86,1.71,.67,11.91,7.19,20.73,14.7,29.02,3.38,3.74,7.62,6.53,11.01,10.27,14.4,15.85,33.19,23.11,53.15,27.72,10.9,2.52,21.93,4.55,33.03,6.02h17.66c.74-.09,1.48-.18,2.22-.26,9.96-4.85,20.86-6.35,31.86-6.43,1.09,0,1.99,.29,2.71,.76,.05-.02,.11-.04,.16-.05,1.08-.3,2.08-.17,3.06,.18l-.2-.09c.23,.09,.46,.17,.7,.23,.4,.02,.8,.03,1.19,.03,1.46,0,2.72,.63,3.61,1.61,.36-.04,.72-.07,1.08-.11,.73-1.45,2.14-2.53,4.24-2.56,6.07-.07,12.22,1.29,18.26,.7,10.46-3.87,19.91-10.15,28.47-18.63,7.51-7.44,12.87-16.68,20.43-24.1,7.6-7.46,12.85-16.7,16.73-26.68,5.76-14.81,5.95-30.34,5.14-45.92-.31-5.92,.18-11.67,1.7-17.35v-8.85c-.09,0-.17-.11-.26-.33-.09-.22,0-.44,.26-.66v-1.97Z"/>
          <path class="cls-3" d="M131.88,2.15l-.49,.76-.47-.76h.96Z"/>
          <path class="cls-3" d="M140.55,2.15l-.47,.77-.49-.77h.96Z"/>
          <path class="cls-3" d="M274.51,231.3l-.75-.5c.25-.16,.5-.32,.75-.48v.98Z"/>
          <path class="cls-1" d="M218.61,219.5c-.01-3.36,1.22-5.4,3.99-6.46,2.86-1.09,5.59-.45,7.32,1.92,3.19,4.37,6.01,8.95,7.13,14.53,.65,3.22,1.19,5.98-1.36,8.46-1,.98-1.51,1.52-2.88-.11-3.51-4.21-7.48-8.03-11.31-11.96-1.74-1.79-3.08-3.71-2.9-6.38Z"/>
          <path class="cls-1" d="M215.73,134.84c0,.11-.1-.42,.06-.86,2.4-6.64,4.7-13.33,7.32-19.88,1.27-3.17,4.9-4.63,7.42-3.57,2.79,1.16,4.6,5.26,3.56,8.43-2.76,8.37-7.82,14.7-15.98,18.11-2.12,.89-2.47,.54-2.39-2.22Z"/>
          <path class="cls-1" d="M60.56,287.07c0,.98,.06,1.97-.01,2.94-.22,3.21-1.59,3.79-4.33,2.32-3.88-2.08-5.93-5.75-8.21-9.21-1.39-2.11-2.49-4.46-3.41-6.83-.84-2.16-.7-4.43,.51-6.55,1.63-2.86,4.41-3.89,7.23-2.16,1.69,1.04,3.3,2.56,4.36,4.24,2.51,3.98,3.87,10.12,3.87,15.24Z"/>
          <path class="cls-1" d="M216.7,52.55c-.03,4.23-1.38,5.01-5.65,3.82-4.01-1.11-7.1-3.53-9.76-6.56-2.62-2.99-2.35-7.92,.34-9.97,3.43-2.62,9.22-1.62,11.29,1.95,3.48,6.02,3.82,6.99,3.79,10.77Z"/>
          <path class="cls-1" d="M229.66,72.52c-.59,2.59-.91,5.51-1.94,8.13-.96,2.45-2.62,2.57-4.34,.56-3.38-3.96-5.35-8.74-6.6-13.75-.79-3.17,1.39-6.25,4.38-7.13,2.67-.79,6.11,1.13,7.04,4.27,.72,2.43,.95,5.01,1.46,7.91Z"/>
          <path class="cls-1" d="M217.62,335.83c-1.02-.37-2.05-.49-2.63-1.08-.3-.3-.04-1.7,.41-2.16,4.01-4.12,6.19-9.39,8.89-14.34,1.78-3.25,2.86-3.83,6.13-3.36,2.23,.32,3.91,2.03,3.52,4.35-.36,2.17-1.03,4.56-2.34,6.23-2.88,3.68-6.15,7.1-10.44,9.18-1.11,.54-2.36,.8-3.54,1.19Z"/>
          <path class="cls-1" d="M78.87,38.28c-.55-2.58,1.5-4,3.17-5.35,3.96-3.19,11.63-2.55,14.44,1.41,1.05,1.49,1.02,2.83-.46,3.73-3.21,1.95-6.43,3.97-9.86,5.46-3.86,1.67-7.31-.9-7.3-5.25Z"/>
          <path class="cls-1" d="M65.67,44.46c1.11,0,2.26-.19,3.33,.04,2.66,.56,3.71,3.12,2.1,5.36-1.58,2.2-3.26,4.36-5.17,6.25-2.45,2.4-4.48,2.53-6.75,.93-2.3-1.62-3.1-4.91-1.9-7.78,1.48-3.52,3.73-4.82,8.4-4.8Z"/>
          <path class="cls-1" d="M248.49,253.89c.3,2.43-.36,4.8-2.29,6.81-1.18,1.22-2.22,1.23-3.14-.1-1.36-1.97-2.91-3.89-3.81-6.07-1.71-4.16,1.2-7.99,5.43-7.51,2.05,.23,3.54,1.61,3.79,3.64,.12,.96,.02,1.95,.02,3.23Z"/>
        </g>
        <g>
          <path d="M112.84,207.81c-2.68-4.11-5.07-7.13-6.76-10.5-2.82-5.62-2.4-11.59-.8-17.5,3.93-14.5,12.77-24.5,27.07-29.49,2.81-.98,5.58-2.1,8.32-3.28,3.88-1.67,7.32-4.09,9.69-7.59,4.65-6.87,9.12-13.86,13.56-20.87,3.13-4.94,3.29-10.28,1.84-15.84-.67-2.57-1.82-4.6-4.22-5.82-3.88-1.98-6.33-5.28-8.22-9.07-1.11-2.23-2.14-4.49-3.24-6.73-1.92-3.92-4.6-7.23-7.72-10.3-3.88-3.82-8.06-4.31-12.65-1.79-2.9,1.59-5.78,3.29-8.42,5.27-5.12,3.84-10.6,6.8-16.97,7.91-2.39,.42-4.33,1.55-5.85,3.46-1.97,2.47-4.26,4.73-5.87,7.41-1.24,2.05-1.9,4.55-2.36,6.94-2.73,14.17-12.77,24.85-26.79,27.24-12.8,2.19-25.12,.44-36.34-6.73-5.28-3.37-8.89-7.82-10.34-14.03-.9-3.87-2.24-7.63-3.32-11.46-2.81-9.98-2.11-19.86,2.02-29.23,7.81-17.71,18.64-33.25,33.96-45.43,8.2-6.51,17.62-9.82,27.77-11.31,8.03-1.18,16.14-1.84,24.16-3.05,4.74-.71,9.41-1.94,14.06-3.14,10.06-2.59,20.14-3.8,30.52-2.09,4.89,.8,9.93,.59,14.87,1.17,3.26,.38,6.69,.81,9.62,2.15,8.49,3.88,17.54,4.8,26.58,5.76,12.95,1.37,25.36,4.56,37.35,9.69,9.22,3.95,15.73,10.56,19.62,19.55,5.42,12.49,8.35,25.51,6.77,39.29-.66,5.76-.73,11.59-1.31,17.36-1.37,13.52-4.42,26.51-12.55,37.8-1.45,2.02-2.9,4.06-4.18,6.19-2.37,3.92-5.43,7.09-9.42,9.38-3.22,1.84-5.92,4.24-7.65,7.63-1.81,3.56-4.77,5.8-8.32,7.54-4.17,2.04-8.23,4.31-12.21,6.68-1.8,1.07-3.31,2.64-4.85,3.89,.63,2.23,2.27,2.47,3.65,2.63,3.95,.45,7.93,.58,11.88,1,11.25,1.21,21.67,4.68,30.78,11.58,4.06,3.08,7.16,6.93,9.05,11.67,1.56,3.92,4.22,6.48,8.03,8.35,11.84,5.81,18.08,19.39,15.08,32.13-.57,2.42-1.26,4.84-1.55,7.3-.32,2.76-.57,5.6-.31,8.35,1.6,16.8-.1,33.15-6.58,48.82-3.85,9.3-9.61,17.38-16.48,24.74-4.63,4.97-9.02,10.18-13.25,15.5-9.31,11.71-20.76,20.65-34.67,25.96-11.92,4.55-24.37,6.21-37.14,3.78-4.1-.78-8.13-.68-12.31,.22-13.02,2.81-26.26,4.16-39.56,3.21-5.74-.41-11.39-2.12-17.08-3.23-6.34-1.23-12.68-2.43-19.02-3.66-1.63-.32-3.29-.55-4.85-1.08-13.66-4.68-27.32-9.4-39.1-18.14-.13-.1-.28-.18-.4-.3-8.11-7.85-16.76-15.21-24.19-23.65-11.81-13.42-14.43-29.45-10.64-46.69,2.52-11.49,7.64-21.59,16.4-29.57,7.24-6.6,15.84-10.27,25.69-10.46,9.33-.18,16.07,4.09,20.58,12.31,4.78,8.73,9.85,17.3,14.83,25.92,.74,1.29,1.58,2.57,2.59,3.65,1.9,2.01,4.13,3.08,7.12,2.51,2.91-.55,5.91-.81,8.87-.81,5.42,0,9.83,2.7,13.96,5.87,6.91,5.3,14.44,9.39,22.79,11.97,9.73,3,19.05,1.92,27.88-2.86,2.56-1.39,5.08-3.35,6.84-5.65,9.17-11.95,14.53-25.23,13.35-40.65-.62-8.1-6.7-15.47-14.54-16.76-5.94-.98-11-3.52-15.62-7.19-1.04-.83-2.15-1.59-3.07-2.54-5.17-5.37-11.66-7.27-18.88-7.55-4.2-.17-8.18-1.26-11.69-3.74-3.7-2.62-6.55-5.7-5.88-10Zm82.18-26.07c-2.34,1.45-4.41,2.85-6.71,.99-2.47-2-1.93-4.74-1.52-7.37,.13-.8,.57-1.55,.9-2.31,1.57-3.58,3.87-6.67,7.17-8.74,5.33-3.35,10.73-6.59,16.27-9.58,2.38-1.29,4.58-2.49,6.06-4.9,2.68-4.36,6.53-7.45,11.09-9.73,1.17-.59,2.47-1.2,3.31-2.15,5.94-6.74,11.68-13.61,14.36-22.47,2.4-7.96,4.38-15.92,4.85-24.32,.8-14.32,1.26-28.45-3.55-42.35-3.28-9.49-8.75-16.66-17.91-20.86-10.03-4.6-20.61-7.24-31.49-8.76-8.19-1.14-16.57-1.43-24.35-4.57-6.99-2.82-14.07-4.93-21.7-4.69-.98,.03-1.96-.31-2.95-.4-4.79-.4-9.62-1.37-14.35-1.01-6.24,.47-12.5,1.64-18.59,3.13-10.66,2.61-21.36,4.64-32.32,5.46-8.33,.62-16.56,2.3-23.69,6.85-19.08,12.19-31.33,29.78-38.96,50.81-2.12,5.83-1.86,11.72,0,17.59,1,3.16,2.16,6.31,2.74,9.55,1.72,9.46,8.32,14,16.62,16.63,5.7,1.8,11.52,2.12,17.64,1.53,9.62-.93,16.5-5.44,21.66-13.21,1.63-2.46,2.9-4.99,3.7-7.99,1.81-6.86,4.03-13.66,8.38-19.52,2.28-3.08,4.89-5.27,8.91-5.65,5.43-.52,10.09-2.86,14.4-6.24,3.64-2.85,7.52-5.5,11.59-7.7,8.82-4.78,15.91-3.65,23.13,3.27,4.84,4.64,8.89,9.83,11.36,16.18,1.65,4.24,4.04,7.86,8.11,10.4,2,1.25,3.85,3.38,4.79,5.54,4.5,10.35,5.03,20.54-2.26,30.11-4.53,5.94-8.91,11.99-13.4,17.96-2.92,3.88-6.26,7.39-10.51,9.78-4.03,2.27-8.14,4.48-12.41,6.26-11.23,4.67-18.27,12.85-21.54,24.48-2.37,8.4,.87,15.26,5.69,21.73,.29,.39,.7,.76,1.14,.93,4.47,1.73,8.83,4.12,13.47,4.95,8.78,1.57,16.49,4.81,22.87,11.08,.35,.35,.76,.64,1.13,.98,3.65,3.32,7.87,5.23,12.76,6.24,10.73,2.21,17.43,9.2,20.71,19.4,2.47,7.69,1.1,15.5-.59,23.13-2.22,10.03-6.98,18.97-12.67,27.42-2.44,3.63-5.66,6.45-9.36,8.81-11.66,7.45-24.22,8.51-37.32,5.32-10-2.43-18.85-7.33-26.83-13.73-4.21-3.37-8.66-4.6-13.91-3.38-6.45,1.5-11.8-.73-16.1-5.47-2-2.2-3.73-4.68-5.31-7.21-4.74-7.61-9.35-15.3-13.99-22.97-3.64-6.01-8.67-8.57-15.44-7.45-5.66,.93-10.98,2.98-15.15,7.02-11.15,10.82-15.97,24.33-15.26,39.63,.53,11.41,5.63,21.05,13.7,29.08,3.3,3.28,6.95,6.23,10.04,9.68,7.39,8.26,16.47,13.83,26.75,17.59,9.01,3.29,17.65,7.67,27.27,9.2,5.22,.83,10.36,2.19,15.57,3.07,6.53,1.1,13.08,2.68,19.64,2.76,10.94,.14,21.87-.91,32.56-3.57,4.59-1.14,9.14-1.35,13.78-.24,2.56,.61,5.23,1.24,7.83,1.17,9.16-.24,18.19-1.55,26.73-5.09,11.95-4.95,21.39-13.16,29.51-23.07,4.42-5.39,9.01-10.64,13.51-15.96,4.07-4.81,8.33-9.45,11.24-15.16,8.09-15.85,10.93-32.58,8.95-50.23-.31-2.76-.14-5.65,.25-8.41,.63-4.42,1.84-8.77,2.44-13.19,1.08-7.97-3.21-15.87-10.62-19.07-5.64-2.44-9.72-6.11-12.24-11.73-2.25-5.01-6-8.81-10.82-11.34-7.1-3.73-14.61-6.22-22.67-7-6.5-.63-12.86-1.82-18.05-6.9Z"/>
          <path d="M231.34,55.41c-.85-.51-1.49-.73-1.9-1.16-2.81-3.02-5.59-6.06-8.34-9.14-.87-.98-1.87-1.98-2.32-3.16-.72-1.89-.76-3.9,.86-5.53,1.54-1.55,3.72-1.8,5.94-.7,6.03,2.97,9.19,13.05,5.75,19.69Z"/>
          <path d="M57.77,289.19c-2.38-1.91-4.16-3.06-5.6-4.55-2.29-2.37-4.37-4.94-6.47-7.48-.62-.75-1.16-1.63-1.52-2.53-.92-2.32-.32-4.84,1.27-5.8,1.89-1.13,4.42-.46,6.11,1.63,2.31,2.86,5.88,12.98,6.21,18.73Z"/>
          <path d="M252.67,261.06c-1.18-4.44-2.23-8.19-3.14-11.98-.22-.93-.15-1.99,.04-2.94,.44-2.2,2.08-3.59,4.08-3.64,2.08-.06,3.75,.98,4.16,2.85,1.1,4.93,.73,9.79-2.09,14.17-.36,.56-1.35,.71-3.05,1.54Z"/>
          <path d="M246.71,236.29c-3-4.12-5.78-7.74-8.33-11.51-1.3-1.93-.83-3.99,.75-5.3,1.42-1.18,3.3-1.06,4.94,.31,3.44,2.87,5.04,11.51,2.64,16.5Z"/>
          <path d="M191.67,352.09c-3.46,6.71-10.16,9.57-15.08,7.18-2.93-1.43-3.52-4.5-1.11-6.29,.73-.54,1.81-.83,2.74-.84,4.25-.09,8.5-.04,13.45-.04Z"/>
          <path d="M236.83,83.17c-.92-.65-1.5-.84-1.66-1.21-1.94-4.44-2.97-9.09-2.81-13.95,.07-2.22,1.48-3.65,3.24-3.68,2-.03,3.67,1.47,3.75,3.82,.19,4.99-.79,9.82-2.53,15.01Z"/>
          <path d="M59.02,39.7c-1.13,3.92-2.03,7.53-3.26,11.02-.51,1.47-2.09,2.47-3.63,1.84-1.23-.5-2.86-1.71-3.02-2.8-.28-1.83-.04-4.09,.87-5.67,1.82-3.17,4.93-4.52,9.04-4.4Z"/>
          <path d="M225.12,65.53c-2.22-2.55-4.19-4.77-6.09-7.04-.63-.75-1.49-1.62-1.52-2.47-.05-1.19,.21-2.89,1-3.48,.81-.6,2.64-.57,3.65-.06,3.1,1.58,4.86,9.27,2.97,13.05Z"/>
          <path d="M80.69,33.48c-2.46,1.89-4.18,3.4-6.08,4.62-2.48,1.59-4.9,1.04-5.87-1.08-.93-2.04,.31-4.24,3.01-5.27,3.1-1.18,5.89-.72,8.94,1.73Z"/>
        </g>
      </g>
    </g>
  </g>
</svg>