<?xml version="1.0" encoding="UTF-8"?>
<svg xmlns="http://www.w3.org/2000/svg" viewBox="0 0 270.67 375.35">
  <defs>
    <style>
      .cls-1 {
        fill: #f79eb5;
      }

      .cls-2 {
        fill: #efc4ce;
      }

      .cls-3 {
        fill: #d25171;
      }
    </style>
  </defs>
  <g id="_лой_1" data-name="Слой 1"/>
  <g id="_лой_2" data-name="Слой 2">
    <g id="_лой_1-2" data-name="Слой 1">
      <g>
        <g>
          <path class="cls-3" d="M5.92,195.83v-.99c1.96-16.03,10.6-29.07,17.85-42.74,3.48-6.56,6.03-13.54,7.62-20.8,2.93-13.32,7.94-25.79,13.75-37.97,2.5-5.25,3.91-10.72,4.62-16.55,2.5-20.42,11.32-37.63,25.19-52.64,4.63-5.01,9.15-9.4,14.54-13.66,5.26-4.17,9.81-7.18,16.55-7.8,2.32-.21,5.05-.37,7.27-1.23,3.84,0,5.89,.79,9.72,.79,9.4,.56,8.82,6.71,13.33,14.54,4.89,8.5,5.82,12.87,2.61,22.34-2.12,6.24-3.58,11.72-6.13,17.78-3.51,8.33-8.17,16.53-10.07,25.49-1.14,5.36-3.58,9.36-6.31,14.01-5.17,8.83-7.67,19.89-11.65,29.26-.58,1.37-2.11,7.08-1.75,8.5,1.82,7.23-.61,12.65-1.66,19.62-2.01,13.25,16.15,31.29,27.85,29.34,6.36-1.05,16.95-6.63,22.34-10.34,3.07-2.11,5.9-5.66,8.23-8.67,4.59-5.94,8.83-10.2,12.88-16.55,3.48-5.45,6.55-15.64,7.71-22.07,.5-2.76,2.56-6.95,4.03-9.2,5.04-7.74,7.89-11,12.26-19.01,3.33-6.08,4.23-10.16,10.69-12.61,13.36-5.08,21.91-6.8,35.65-2.72,12.12,3.61,19.78,7.78,22.66,19.83,.45,1.9,.28,3.92,1.12,5.73v8.93c-.84,2.35-.86,4.8-.98,7.27-.26,5.21-.73,10.42-3,15.19-4.55,9.52-6.31,19.74-6.93,30.19-.39,6.64-1.33,13.15-2.88,19.57-1.95,8.12-2.89,16.22-1.16,24.52,2.08,10.01-.6,19.72-2.13,29.45-2.35,14.88-3.71,29.82-3.53,44.87,.21,17.61-2.75,34.87-5.07,52.2-.35,2.64-1.31,5.14-2.65,7.41-3.89,6.64-7.3,13.56-11.48,20.03-2.2,3.4-5,5.15-8.92,5.34-8.95,.44-17.87,.22-26.79-.61-7.81-.73-8.74-7.96-12.13-14-8.84-15.77-8.08-32.48-4.73-50.36,.91-4.88,1.37-10.07,2.01-14.98,.73-5.56-3.06-13.43-5.87-18.39-4.73-8.36-5.69-15.45-6.22-25.31-.33-6.23-11.25-10.55-17.43-9.64-4.87,.72-10.78,4.49-14.8,7.27-8.05,5.56-15.17,7.28-24.79,8.58-14.41,1.96-27.31,7.1-40.07-2.14-5.22-3.78-11.97-8.64-18.22-7.36-16.62,3.42-27.8-1.2-38.56-12.64-2.24-2.38-3.24-5.42-3.09-8.94,.2-4.83-.77-9.61-1.02-14.44-.27-4.56,.57-9.15-.48-13.68Z"/>
          <path class="cls-2" d="M6.74,209.79c-.28,.01-.55-.01-.83-.07v-13.89c.32,.65,.92,1.29,.92,1.94,.04,4-.05,8.01-.1,12.02Z"/>
          <path class="cls-1" d="M236.09,122.43c6.76-1.12,9.8,4.36,9.55,9.9-.27,6.1-1.13,12.12-2.96,17.95-.39,1.25-1.02,2.43-1.63,3.58-1,1.88-2.14,4.36-4.35,4.05-2.44-.35-2.25-3.25-2.48-5.26-.72-6.04-1.19-12.1-1.89-18.14-.55-4.71,.43-8.81,3.83-12.14l-.07,.06Z"/>
          <path class="cls-1" d="M233.34,230.44c-.04,.58,.06,1.61-.19,2.54-2.36,9.03-4.48,18.14-8.65,26.53-.79,1.6-1.77,3.12-2.77,4.59-.29,.43-1.07,.89-1.44,.76-.48-.17-1.11-.93-1.09-1.41,.18-4.25,.35-8.52,.8-12.75,.77-7.15,1.75-14.28,2.63-21.41,.04-.33,0-.66,.06-.98,.53-3.32,3.12-5.78,5.74-5.48,2.89,.33,4.8,2.75,4.91,6.21,.01,.33,0,.66,0,1.4Z"/>
          <path class="cls-1" d="M114.01,207.82c-5.43-.54-10.91-2.86-15.25-7.67-2.15-2.38-2.47-6.46-.85-8.64,1.85-2.49,4.93-3.1,8.15-1.44,1.56,.81,2.96,1.95,4.51,2.79,4.09,2.2,8.2,4.34,12.33,6.45,2.04,1.04,2.42,1.81,1.33,3.82-2.06,3.8-5.59,4.54-10.23,4.69Z"/>
          <path class="cls-1" d="M116.95,45.22c-1.69,3.27-4.21,3.28-5.91,.04-2.65-5.05-5.06-10.24-7.37-15.46-1.31-2.96-.36-6.19,1.91-7.89,2.43-1.82,6.06-1.84,8.33,.48,1.53,1.57,2.72,3.64,3.59,5.7,.81,1.92,1.03,4.11,1.41,6.2,.18,.96,.13,1.97,.19,2.95"/>
          <path class="cls-1" d="M236.15,122.37c-2.23,.45-3.94-.37-5.49-2.07-2.29-2.52-4.52-5.05-5.4-8.5-.62-2.43,.12-4.52,1.82-6.19,1.55-1.53,3.71-1.61,5.34-.74,1.56,.83,3,2.45,3.85,4.08,2.31,4.44,2.61,9.04-.18,13.49l.07-.06Z"/>
          <path class="cls-1" d="M217.85,293.82c0-2.96-.09-5.93,.03-8.89,.12-2.92,1.68-4.7,3.85-4.71,2.18,0,3.74,1.77,3.9,4.67,.34,6.15-.12,12.16-3.15,17.68-.39,.72-.64,1.61-1.21,2.1-.64,.55-1.57,.95-2.39,.98-.29,0-.88-1.25-.9-1.95-.1-3.29-.04-6.59-.04-9.88h-.08Z"/>
          <path class="cls-1" d="M115.32,56.07c-.69,4.99-2.38,10.59-6.01,15.39-.41,.54-1.31,.67-1.99,.99-.22-.58-.67-1.16-.64-1.73,.3-5.58,.55-11.16,1.09-16.72,.17-1.74,1.01-3.51,3.09-3.98,3.08-.7,4.52,.92,4.45,6.05Z"/>
        </g>
        <g>
          <path d="M120.24,.23c11.99,2.33,17.97,10.4,22.92,20.3,2.78,5.56,2.73,11.4,.74,17.02-3.33,9.4-7.19,18.61-10.71,27.94-1.99,5.28-3.64,10.69-5.63,15.97-2.16,5.74-4.38,11.47-6.87,17.07-4.78,10.79-9.81,21.48-14.58,32.27-.51,1.15-.04,2.76,.06,4.16,.2,2.74,.85,5.51,.6,8.2-.32,3.46-1.49,6.83-2.02,10.28-1.96,12.96,5.53,24.01,17.87,26.43,1.61,.32,3.38,.57,4.95,.24,10.95-2.3,21.15-6.21,28.42-15.29,4.37-5.45,8.41-11.17,12.54-16.81,5.61-7.65,9.13-16.14,10.68-25.55,.47-2.85,1.98-5.56,3.26-8.22,2.08-4.33,5.01-8.35,6.44-12.86,4-12.61,12.76-19.75,25.16-22.36,11.1-2.34,22.35-3.37,33.55,.28,7.01,2.28,11.76,6.65,15.93,12.74,9.91,14.49,8.31,29.49,2.26,44.28-4.87,11.9-7.74,23.88-8.54,36.68-.5,8.08-2.73,16.05-4.33,24.05-1.06,5.29-1.31,10.45,0,15.8,2.07,8.44,.88,16.93-.78,25.27-3.46,17.39-4.35,34.95-4.81,52.63-.33,12.44-2.14,24.84-3.32,37.26-.16,1.65-.59,3.29-.67,4.94-.32,7.32-2.42,14.02-6.33,20.24-3.35,5.34-6.47,10.83-9.6,16.31-1.74,3.05-4.49,4.29-7.74,4.82-2.11,.34-4.23,.69-6.34,1.03h-4c-3.27-.36-6.53-.93-9.81-1.05-9.17-.34-15.84-4.73-20.31-12.48-7.61-13.2-11.04-27.4-9.37-42.65,1.01-9.26,2.28-18.48,3.3-27.74,.54-4.84-1.03-9.15-3.69-13.19-5.05-7.68-7.5-16.23-8.36-25.34-.28-3.01-.52-6.94-2.41-8.67-3.36-3.07-8.33-3.66-12.76-2.19-4.22,1.4-8.48,3.23-12.11,5.75-14.75,10.28-31.02,14.19-48.76,12.61-6.61-.59-12.81-2.77-18.13-6.59-7.3-5.24-15.09-6.51-23.69-4.83-9.15,1.79-17.56-.13-25.05-5.7-3.47-2.58-6.89-5.26-10.13-8.11-4.04-3.55-6.8-7.73-5.84-13.56,.2-1.23-.34-2.61-.64-3.89-3.05-12.82-1.88-25.13,4.36-36.84,3.91-7.35,7.64-14.8,11.76-22.03,4.9-8.59,8.96-17.49,11.05-27.18,2.44-11.31,6.6-22,11.84-32.26,3.6-7.04,5.96-14.25,7-22.2,2.45-18.74,9.56-35.63,22.4-49.81,3.8-4.2,7.65-8.36,11.63-12.39C90.04,6.52,100.3,1.79,112.06,.15c.79-.11,1.09-.15,2.16-.15,2,0,4.02,.23,6.02,.23Zm8.11,189.38c-18.12,.18-30.13-9.4-33.38-24.32-1.53-7.01-.65-13.91,1.08-20.76,.64-2.55,1.27-4.86-.27-7.63-.96-1.72-.75-4.71,.03-6.69,5.46-13.93,10-28.28,18.01-41.1,1.31-2.1,2.22-4.48,3.07-6.81,3.72-10.15,7.35-20.32,11.01-30.49,1.64-4.54,3.12-9.14,4.94-13.61,3.13-7.66,1.75-14.45-2.81-21.19-4.97-7.34-10.42-9.91-19.13-8.06-9.02,1.91-16.69,6.08-23.47,12.44-17.1,16.02-27.03,35.69-30.64,58.64-1.16,7.35-3.59,14.12-6.98,20.7-5.11,9.93-9.58,20.16-12.06,31.12-2.26,9.99-6.32,19.21-11.06,28.26-5.32,10.17-9.96,20.69-14.88,31.07-4.52,9.53-3.03,19.36-1.2,29.13,.25,1.34,1.98,2.55,3.24,3.54,3.79,2.99,7.97,5.55,11.47,8.83,5.27,4.94,11.11,6.91,18.26,5.8,10.08-1.57,19.37,.16,28.01,6.17,3.84,2.67,8.67,4.8,13.27,5.34,9.11,1.07,18.4,.56,27.05-3.01,5.97-2.47,11.8-5.37,17.39-8.6,8.46-4.9,16.92-8.41,26.99-5.32,10.05,3.09,12.89,6.64,13.33,17.1,.35,8.43,2.17,16.56,7.18,23.56,3.56,4.97,5.39,10.34,4.77,16.4-1.11,10.76-2.49,21.49-3.57,32.25-1.34,13.42,2,25.75,9.18,37.08,2.12,3.35,4.99,6.09,9.05,6.5,7.25,.73,14.54,1.04,21.82,1.49,2.66,.17,4.29-1.17,5.43-3.54,1.93-4.03,4.2-7.9,6.07-11.95,1.45-3.14,3.16-6.36,3.65-9.71,2.68-18.11,5.65-36.2,5.09-54.64-.52-17.23,1.56-34.23,4.72-51.14,1.31-7,3.23-14.01,1.84-21.27-1.3-6.8-1.04-13.53,.22-20.34,1.85-9.97,3.99-19.96,4.78-30.04,.76-9.65,3.26-18.6,6.86-27.44,1.63-3.99,3.05-8.14,3.93-12.35,1.85-8.9,2.77-17.83-2.95-25.93-.48-.67-.8-1.46-1.16-2.21-2.58-5.37-7-8.29-12.67-9.59-7.58-1.74-15.16-1.75-22.8-.33-11.29,2.1-18.84,8.28-22.74,19.27-1.65,4.65-4.55,8.84-6.81,13.28-1.04,2.05-2.03,4.15-2.81,6.32-1.58,4.36-2.61,8.96-4.54,13.15-5.97,12.99-14.33,24.54-24.1,34.77-9.2,9.63-21.05,14.97-31.69,15.88Z"/>
          <path d="M120.16,44.49c-3.28-5.61-4.81-11.64-5.85-17.8-.36-2.11,.38-3.99,2.59-4.84,2.19-.85,3.89,.04,5.2,1.78,3.27,4.36,3.06,16.14-.35,20.38-.17,.21-.6,.2-1.58,.48Z"/>
          <path d="M229.34,255.91c.41-4.41,.81-8.81,1.24-13.22,.27-2.8,.51-5.61,.89-8.4,.51-3.7,2.31-5.43,4.91-4.92,2.45,.48,3.54,2.55,2.66,5.97-1.87,7.32-3.86,14.63-8.59,20.74l-1.11-.18Z"/>
          <path d="M121.77,200.79c-6.42,3.63-15.71,.15-17.64-7.13-.38-1.41,.26-3.91,1.31-4.67,1.08-.78,3.24-.11,4.87,.27,.79,.19,1.4,1.23,2.08,1.94,3.06,3.14,6.13,6.27,9.38,9.58Z"/>
          <path d="M248.94,122.22c-2.67-4.96-5.12-9.54-7.6-14.1-.47-.87-1.44-1.67-1.47-2.53-.05-1.35,.07-3.36,.9-3.93,1.08-.73,3.27-.92,4.41-.3,5.4,2.91,7.74,16,3.93,20.82-.07,.09-.31,.06-.18,.04Z"/>
          <path d="M225.72,318.13c-.1-1.07-.33-2.15-.28-3.22,.3-6.44,.65-12.88,1-19.32,.06-1.16-.2-2.53,.33-3.41,.68-1.12,2.02-2.51,3.09-2.52,.87,0,2.49,1.83,2.51,2.88,.19,8.99-1.26,17.68-5.47,25.7l-1.17-.12Z"/>
          <path d="M247.74,151.03c-.47-5.21-.97-10.43-1.41-15.64-.18-2.12,.08-4.18,2.82-4.26,2.29-.06,3.28,1.64,3.16,3.62-.26,4.41-.65,8.82-1.3,13.19-.19,1.26-1.45,2.35-2.21,3.52l-1.06-.43Z"/>
          <path d="M112.5,69.03c-.39-6.01,.84-11.81,3.17-17.39,.76-1.81,2.46-2.97,4.43-2.07,2.25,1.03,1.48,2.98,.71,4.67-2.29,5.04-4.62,10.07-6.93,15.1l-1.39-.31Z"/>
          <path d="M236.47,107.2c-4.55-1.88-7.83-2.95-10.78-4.61-1.1-.62-2.21-2.8-1.92-3.9,.32-1.2,2.17-2.62,3.5-2.8,3.02-.41,5.61,1.08,6.95,3.84,.96,1.97,1.3,4.24,2.24,7.47Z"/>
        </g>
      </g>
    </g>
  </g>
</svg>