<?xml version="1.0" encoding="UTF-8"?>
<svg xmlns="http://www.w3.org/2000/svg" viewBox="0 0 263.1 360.9">
  <defs>
    <style>
      .cls-1 {
        fill: #ed8bf5;
      }

      .cls-2 {
        fill: #ee8ff6;
      }

      .cls-3 {
        fill: #f3bef8;
      }

      .cls-4 {
        fill: #da1ce9;
      }
    </style>
  </defs>
  <g id="_лой_1" data-name="Слой 1"/>
  <g id="_лой_2" data-name="Слой 2">
    <g id="_лой_1-2" data-name="Слой 1">
      <g>
        <g>
          <path class="cls-4" d="M104.12,356.8h-.95c-2.79-1.44-5.88-1.04-8.83-1.41-12.32-1.55-19.12-11.12-19.46-23.81-.26-9.76-.33-19.65-1.23-29.43-1.18-12.99,4.78-22.4,10.34-33.99,7.14-14.91,14.1-29.69,20.85-44.79,6.76-15.12,15.83-30.21,22.77-45.25,7.03-15.23,13.87-33.02,13.14-50.1-.18-4.11-.29-7.88,.18-11.91,.26-2.26,1.91-6.48,1.93-8.76,.14-19.22-13.92-33.52-32.06-29.26-7.16,1.68-17.1,3.47-24.35,3.85-3.57,.19-12.07,7.07-12.44,10.51-.42,3.94,1.09,10.85,1.75,14.72,2.16,12.65-3.04,21.71-14.54,26.45-6.14,2.54-8.78,6.61-15.59,7.53-11.37,1.53-20.17,5.4-28.32-2.4-2.63-2.52-4.08-6.02-3.51-9.76,.59-3.89-.04-7.5-1.36-11-4.94-13.13-6.39-26.78-6.39-40.73,0-4.02-.11-8.08-.9-12.05v-9.79c1.36-3.21,.98-6.69,1.28-10.03,1.03-11.53,6.74-20.04,15.6-26.63,7.21-5.35,15.21-9.26,23.14-13.28,3.61-1.83,7.84-.85,11.36-2.9h11.42c8.18,1.1,16.02,6.23,23.91,8.41,8.42,2.33,16.94-.07,25.12-2.76,17.96-5.89,36.18-4.99,54.53-3.79,12.02,.79,24.02-.58,36.03-.98,.8-.03,1.52-.41,2.19-.88h7.61c2.22,.78,4.44,.78,6.66,0h5.71c3.13,1.26,6.48,.92,9.72,1.46,9.87,1.63,13.96,5.41,16.3,15.35,.15,.62,.16,1.29,.62,1.79v3.91c-.74,2.94-.74,5.87,0,8.81v5.87c-.91,7.48-4.62,13.62-8.46,19.83-4.73,7.65-7.1,16.45-8.89,25.17-4.36,21.17-12.06,41.05-20.18,60.9-7,17.11-11.82,35.1-18.52,52.35-8.8,22.69-18.25,45.12-27.19,67.76-3.23,8.18-7.85,16.53-9.5,25.16-3.04,15.95-9.6,30.81-15.53,45.72-4.92,12.38-11.86,17.75-24.12,19.06-2.65,.28-5.33,.75-8.04,.6-3.94,.24-7.92-.53-11.83,.49Z"/>
          <path class="cls-3" d="M116.52,355.88c-.03,.3-.04,.61-.03,.91h-12.37c.75-.33,1.5-.92,2.26-.94,3.38-.08,6.76,0,10.14,.03Z"/>
          <path class="cls-1" d="M256.37,33.89c-1.25-3-1.25-5.76,0-8.81v8.81Z"/>
          <path class="cls-1" d="M224.02,2.58c-2.57,1.24-4.02,1.24-6.66,0h6.66Z"/>
          <path class="cls-1" d="M214.91,48.96c-.69-.31-1.69-.51-2.35-1.11-3.57-3.23-6.64-6.9-8.64-11.39-1.27-2.85-.18-6.75,2.27-8.54,3.24-2.36,5.77-2.38,8.63-.07,3.64,2.94,5.6,11.24,3.78,16.08-.28,.75-.62,1.5-1.03,2.18-.92,1.5-.91,2.52,1.01,3.14,2.83,.92,3.76,3.08,3.59,6.04-.31,5.41-2.04,10.4-4.13,15.26-.8,1.85-2.24,1.88-3.17,.13-2.88-5.39-4.42-11.07-2.37-17.16,.54-1.62,1.6-3.05,2.41-4.56Z"/>
          <path class="cls-2" d="M170.68,179.4c-.29-5.64,1.25-11.08,2.85-16.48,1.06-3.57,2.9-4.84,6.15-4.83,3.4,.01,4.97,1.35,5.32,4.78,.14,1.43,.31,3.11-.24,4.33-2.43,5.43-5.06,10.77-7.76,16.06-.56,1.1-1.62,2.04-2.65,2.75-1.99,1.39-3.53,.46-3.66-2.11-.07-1.46-.01-2.93-.01-4.51Z"/>
          <path class="cls-1" d="M37.04,52.5c-4.23,0-7.06-3.72-5.65-7.87,2.69-7.94,8.35-12.62,16.19-14.58,1.75-.44,2.63,.62,2.26,2.53-.21,1.09-.54,2.19-1.01,3.2-2.11,4.51-4.23,9.01-6.47,13.45-1.16,2.29-2.98,3.27-5.31,3.27Z"/>
          <path class="cls-2" d="M139.36,297.94c-.24,.67-.67,2.4-1.46,3.94-2.6,5.06-6.07,9.46-10.56,12.83-1.43,1.07-3.39,1.6-5.18,1.89-1.7,.27-2.31-.91-1.57-2.43,2.46-5.06,4.89-10.13,7.4-15.16,.79-1.58,1.69-3.13,2.72-4.55,1.57-2.16,4.44-3.02,6.74-2.14,2.12,.81,1.93,2.72,1.91,5.62Z"/>
          <path class="cls-1" d="M158.27,217.86c.47-2.36,.72-4.45,1.32-6.42,.93-3.04,3.97-4.39,6.75-3.19,2.3,.99,3.56,4.03,1.91,6.54-2.08,3.15-4.91,5.77-7.49,8.55-.12,.13-1.25-.29-1.35-.63-.5-1.67-.82-3.4-1.15-4.85Z"/>
          <path class="cls-2" d="M154.76,19.85c2.6,.53,5.24,.94,7.8,1.62,1.48,.39,1.61,1.81,.29,2.73-3.35,2.35-6.35,5.49-10.98,4.86-2.76-.38-4.25-2.1-4.02-4.92,.18-2.08,1.49-3.64,3.52-3.92,1.09-.15,2.21-.03,3.32-.03l.06-.35Z"/>
          <path class="cls-1" d="M63.57,32.93c3.43,0,4,.84,2.79,3.2-.88,1.72-1.98,3.31-2.9,5-.95,1.76-2.42,2.58-4.28,2.33-2.11-.29-3.44-1.85-3.64-3.86-.25-2.61,.48-4.63,2.4-5.32,2.05-.74,4.26-1.04,5.63-1.36Z"/>
        </g>
        <g>
          <path d="M262.78,29.95c-.07,.57-.2,1.14-.21,1.44-.17,8.73-4.04,15.95-9.02,22.82-4.97,6.86-7.27,14.92-9.51,22.95-1.79,6.41-3.5,12.85-4.96,19.34-2.35,10.44-5.45,20.61-10.11,30.24-7.26,15.04-12.19,30.95-17.99,46.55-6.26,16.84-12.72,33.62-19.39,50.31-5.68,14.22-12.26,28.09-17.49,42.47-3.79,10.43-6.29,21.36-8.87,32.19-3.65,15.31-9.95,29.64-15.61,44.21-1.62,4.17-4.66,7.34-8.48,9.56-17.55,10.19-35.87,11.71-54.65,3.95-9.72-4.02-14.55-11.69-14.63-22.35-.08-10.32-.4-20.65-.64-30.97-.24-10.17,1.78-19.86,6.07-29.07,8.77-18.87,17.51-37.75,26.39-56.58,1.91-4.06,4.17-7.97,6.52-11.79,8.4-13.65,15.31-28.04,21.45-42.83,3.17-7.63,4.98-15.63,5.01-23.82,.03-9.88,1.41-19.57,2.62-29.32,.89-7.17-1.13-13.9-4.6-20.11-.9-1.61-2.73-2.89-4.4-3.86-7.04-4.11-14.64-4.4-22.25-2.19-7.61,2.21-15.27,3.19-23.17,2.85-4.19-.18-5.9,1.06-6.4,5.34-.46,3.91-.61,8.06,.19,11.87,1.4,6.69,.95,12.87-2.37,18.85-1.53,2.76-2.86,5.65-4.46,8.37-2.34,3.99-5.61,6.92-10.04,8.59-2.79,1.05-5.48,2.42-8.12,3.83-12.38,6.62-24.41,5.59-35.92-1.96-5.23-3.43-9.24-7.76-6.83-14.99,.41-1.24-.26-2.92-.66-4.34-2.14-7.69-4.74-15.26-6.45-23.04C.67,84.11-.17,69.45,.03,54.79c.1-7.35,2.01-14.49,4.98-21.28,3.17-7.22,7.88-13.16,14.82-17.04,7.55-4.21,15.09-8.49,22.9-12.19,10.75-5.1,22.12-6.03,32.86-.67,17.32,8.64,34.64,6.83,51.95,1.15,11.73-3.85,23.44-4.26,35.49-2.78,13.26,1.63,26.53,2.25,39.82-.03,4.75-.82,9.59-1.02,14.39-1.58,1.27-.15,2.54-.06,3.79-.35,2.67,0,5.28,0,7.95,0,1.25,.29,2.52,.08,3.77,.36,5.77,1.29,11.65,2.18,17.27,3.96,7.1,2.24,9.6,8.01,12.1,14.93,.42,1.16,.59,2.16,.89,3.24,.31,2.71-.23,4.78-.23,7.45ZM18.12,128.28c2.76,1.8,5.06,3.46,7.52,4.86,6.09,3.47,12.5,4.68,19.13,1.71,5.16-2.31,10.23-4.83,15.24-7.45,1.25-.66,2.32-1.94,3.09-3.17,1.86-2.95,3.58-6,5.19-9.1,1.51-2.89,1.58-5.91,1.17-9.2-.62-4.91-.95-9.96-.54-14.88,.84-10.24,6.08-14.65,16.39-14.62,5.99,.02,11.99,.35,17.78-1.79,6.54-2.41,13.43-2.88,20.22-2.1,8.71,1,16.78,4.05,20.79,12.66,4.5,9.68,6.3,19.83,4.23,30.63-1.28,6.66-1.99,13.53-2.05,20.31-.11,11.69-2.29,22.84-7.11,33.44-3.72,8.18-7.49,16.36-11.69,24.3-4.67,8.82-10.34,17.13-14.69,26.1-9.23,19.01-17.92,38.29-26.77,57.49-3.75,8.14-5.56,16.69-5.13,25.71,.29,6.15,.32,12.32,.4,18.49,.05,3.83-.05,7.66-.04,11.5,0,6.5,2.88,11.15,8.98,13.65,1.69,.69,3.35,1.53,5.11,1.98,13.74,3.49,27.06,2.94,39.62-4.34,3.27-1.9,5.8-4.52,7.06-8.13,4.69-13.51,9.5-26.99,13.91-40.59,3.48-10.75,6.15-21.77,9.73-32.48,3.43-10.25,7.54-20.27,11.41-30.37,1.79-4.66,3.26-9.52,5.66-13.85,5.95-10.72,9.3-22.4,13.39-33.83,6.17-17.23,11.95-34.65,19.23-51.41,5.99-13.79,11.48-27.56,14.93-42.24,4-17.03,8.94-33.82,18.94-48.59,4.81-7.11,4.55-15.14,3.56-23.17-.41-3.38-2.34-6.05-5.61-7.06-4.1-1.27-8.33-2.3-12.57-2.97-11.08-1.76-21.92,.97-32.74,2.54-13.84,2.01-27.59,2.09-41.29-.21-10.95-1.84-21.32-1.39-31.83,2.7-12.38,4.82-25.47,7.01-38.73,4.73-6.31-1.08-12.46-3.5-18.46-5.88-6.96-2.76-13.77-3.43-20.92-1-10,3.39-19.24,8.32-28.19,13.8-1.93,1.18-3.83,2.93-4.89,4.88-2.45,4.49-4.88,9.11-6.43,13.96-3.43,10.71-1.83,21.8-1.58,32.75,.39,17.12,5.7,33.4,8.58,50.28Z"/>
          <path d="M178.3,188.37c0-2.1-.41-4.31,.08-6.29,1.51-6.12,3.18-12.21,5.2-18.18,.7-2.07,2.33-4.13,4.09-5.45,1.21-.9,3.51-.97,5.1-.55,1.96,.52,2.4,2.57,2.28,4.53-.05,.82-.1,1.69-.39,2.45-2.9,7.65-6.2,15.09-11.55,21.39-.98,1.16-2.43,1.92-3.66,2.86l-1.15-.77Z"/>
          <path d="M121.9,328.68c1.29-2.08,2.57-4.16,3.87-6.24,3.89-6.21,7.45-12.57,9.45-19.69,.22-.8,.52-1.59,.92-2.31,1.06-1.89,2.61-3.1,4.89-2.52,2.26,.57,3.18,2.28,3.13,4.5-.03,1.32-.02,2.72-.43,3.94-3.1,9.08-8.26,16.65-16.62,21.68-1.37,.83-3.12,1.04-4.69,1.54l-.52-.89Z"/>
          <path d="M39.09,23.23c-.78,1.17-1.48,2.22-2.19,3.26-3.06,4.53-6.1,9.08-9.2,13.58-.93,1.36-1.83,2.85-3.09,3.85-2.89,2.27-6.6,.64-6.88-2.98-.11-1.42,.06-3.12,.76-4.3,3.06-5.18,6.67-9.93,12.26-12.7,3.27-1.62,3.8-1.65,8.34-.7Z"/>
          <path d="M229.71,41.54c-1.47-4.55-4.71-7.41-7.64-10.51-.68-.72-1.46-1.34-2.18-2.02-2.74-2.59-3.22-4.21-1.9-6.39,1.3-2.15,4.76-2.92,7.57-1.68,4.92,2.17,9.63,11.56,8.45,16.8-.5,2.2-.67,2.36-4.29,3.8Z"/>
          <path d="M223.1,71.75c.54-5.48,.92-10.36,1.54-15.21,.26-2.01,1.63-3.22,3.82-3.09,2.4,.14,3.41,1.59,3.68,3.86,.65,5.46-2.34,10.62-9.04,14.44Z"/>
          <path d="M164.94,229.18c-.16-6.27,1.13-11.21,2.58-16.07,.79-2.63,2.94-3.6,5.01-2.84,2.09,.76,2.85,2.67,1.68,5.41-2.02,4.74-4.53,9.21-9.27,13.5Z"/>
          <path d="M56.81,23.41c-1.73,2.68-2.65,4.62-4.06,6.11-.87,.92-2.66,1.79-3.69,1.49-1.07-.31-2.47-2.12-2.38-3.16,.12-1.36,1.3-3.31,2.49-3.74,2-.73,4.37-.46,7.65-.69Z"/>
          <path d="M217.4,45.82c-2.78-3.01-3.55-6.41-6.79-7.91-1.33-.61-.59-3.34,.85-4.15,1.71-.96,4.17-.35,5.06,1.56,1.41,3,1.9,6.18,.88,10.5Z"/>
        </g>
      </g>
    </g>
  </g>
</svg>