<?xml version="1.0" encoding="UTF-8"?>
<svg xmlns="http://www.w3.org/2000/svg" viewBox="0 0 302.76 371.5">
  <defs>
    <style>
      .cls-1 {
        fill: #e88720;
      }

      .cls-2 {
        fill: #f4a757;
      }

      .cls-3 {
        fill: #f3a655;
      }

      .cls-4 {
        fill: #f8dfc4;
      }

      .cls-5 {
        fill: #f7dcbe;
      }
    </style>
  </defs>
  <g id="_лой_1" data-name="Слой 1"/>
  <g id="_лой_2" data-name="Слой 2">
    <g id="_лой_1-2" data-name="Слой 1">
      <g>
        <g>
          <path class="cls-1" d="M298.93,310.74v15.57c-1.5,2.63-1.07,5.57-1.28,8.39-1.03,13.51-7.16,23.62-19.53,29.41-5.6,2.62-11.73,2.38-17.74,2.59h-19.43c-10.5-.64-21.06-.94-31.35-3.47-10.34-2.53-20.81-2.11-31.2-1.15-9.35,.87-18.74,1.29-27.96,.33-12.36-1.29-24.35,.38-36.51,1.68-19.57,2.09-39.26,3.41-58.89,1.33-27.55-2.93-40.05-28.65-29.21-54.2,3.95-9.32,9.58-18.4,15.65-26.68,4.27-5.81,8.61-4.46,15.11-7.01,13.95-5.46,22.12-13.42,30.81-25.14,1.64-2.21,6.47-9.21,7.88-11.56,9.26-15.42,21.63-26.35,37.58-34.42,8.83-4.47,15.91-9.72,23.65-15.78,3.68-2.88,8.04-7.3,11.56-10.39,6.84-6.01,9.76-14.95,3.68-21.65-10.71-11.78-19.14-24.19-20.36-40.53-.3-4.02-2.21-8.44-3.55-12.28-2.12-6.09-6.2-15.4-12.61-14.72-9.48,1.01-22.61,4.3-24.18,14.19-.53,3.37-4.04,13.36-5.78,16.29-4.92,8.27-5.9,18.61-5.78,27.59,.06,4.43,.4,7.59-2.63,10.77-8.01,8.44-11.16,13.31-22.19,17.87-10.61,4.39-18.64,9.02-30.1,7.49-7.28-.97-13.52-1.37-18.35-6.42-4.67-4.89-8.73-10.4-13.34-15.35-7.63-8.17-7.93-18.24-8.26-28.41-.12-3.89-.02-7.78-.02-11.67,0-3.46,0-6.92,0-10.38,.22-19.4,7.75-35.93,19.47-50.9,6.05-7.73,13.32-13.96,21.51-19.22,2.85-1.83,5.6-3.81,8.19-5.99,5.48-4.62,11.39-8.67,18.27-10.58,12.99-3.6,24.41-10.71,36.66-15.95,10.81-4.63,22.02-6.22,33.56-6.67,4.6,0,9.19,0,13.78,0,11.55-.15,22.43,3,33.15,6.9,.91,.33,1.89,.68,2.56,1.35,5.84,5.83,13.64,7.8,20.93,10.7,5.26,2.09,9.72,5.15,13.21,9.49,3.98,4.93,8.42,9.39,12.95,13.76,4.46,4.3,5.64,9.64,7.3,15.55,3.5,12.46,2.3,23.39-3.15,35.62-3.56,7.98-1.31,18.73-3.42,26.83-3.38,12.99-4.31,25.6-4.49,38.92-.1,7.39-.25,15.94-1.47,23.28-2.17,13.03-10.5,20.36-19.08,29.39-5.81,6.11-11.69,13.17-16.65,19.97-4.81,6.58-10.25,8.87-16.82,13.66-8.35,6.1-17.13,16.89-24.18,24.53-.93,1-10.01,11.25-9.11,12.87,.72,1.31,12.42,.81,13.66,.76,7.5-.3,19.86-.34,27.22-3.12,7.24-2.73,13.9-6.8,21.48-8.41,8.64-1.83,15.94-5.16,24.95-4.55,12.17,.82,23.48,.19,34.62,5.96,11.5,5.95,19.77,8.23,24.53,21.4,1.69,4.68,3.52,7.36,4.73,12.15Z"/>
          <path class="cls-5" d="M261.27,366.3c-.03,.29-.04,.59-.04,.88h-21.27c-.01-.29-.03-.57-.05-.86,7.12,0,14.23-.02,21.35-.02Z"/>
          <path class="cls-5" d="M141.32,4.11c.05-.29,.06-.58,.04-.87h15.47c.02,.27,.04,.54,.06,.8l-15.57,.07Z"/>
          <path class="cls-4" d="M4.1,112.23c.28-.04,.56-.06,.84-.05l.05,11.75c-.3-.01-.59-.02-.89-.03v-11.68Z"/>
          <path class="cls-2" d="M222.59,81.78c.23,2.28-.19,4.76-2.13,6.78-1.53,1.6-2.44,1.62-3.87-.06-2.52-2.96-4.93-6.01-4.69-10.24,.1-1.7-1.15-2.16-2.31-2.68-6.53-2.9-11.18-7.89-14.95-13.78-1.76-2.74-1.49-6.63,.05-8.65,1.85-2.42,4.33-2.78,6.9-1.97,2.6,.82,5.09,2.12,6.71,4.48,3.17,4.62,6.56,9.16,7.37,14.97,.15,1.08,.09,2.09,1.52,2.65,5.25,2.07,5.39,2.4,5.38,8.49Z"/>
          <path class="cls-2" d="M241.88,287.36c3.19-.41,5.68,1.76,7.79,3.75,3.84,3.61,7.27,7.72,7.99,13.34,.1,.76,.31,1.56,.18,2.29-.46,2.7-1.79,3.62-4.34,2.87-1.36-.4-2.7-1.07-3.9-1.84-4.59-2.94-8.88-6.26-12.69-10.21-1.97-2.03-2.2-4.26-1.46-6.66,.72-2.33,3.22-3.6,6.44-3.55Z"/>
          <path class="cls-2" d="M214.46,151.33c.39-3.11,.48-5.86,1.13-8.46,.91-3.65,3.8-5.74,6.4-5.1,3.13,.77,5.78,4.49,5.17,7.73-.99,5.24-3.12,10.09-5.76,14.7-.44,.77-1.34,1.35-2.14,1.82-2.4,1.38-2.92,1.21-3.48-1.56-.62-3.12-.93-6.3-1.33-9.12Z"/>
          <path class="cls-2" d="M70.04,61.48c.8,.21,1.91,.37,2.91,.79,1.84,.77,2.22,1.83,1.04,3.33-3.05,3.89-6.2,7.7-9.35,11.51-1.45,1.76-3.18,2.6-5.48,1.54-2.34-1.08-3.96-2.47-3.9-5.41,.06-3.1,1.02-5.29,3.64-7.3,3.31-2.54,6.7-4.19,11.15-4.46Z"/>
          <path class="cls-3" d="M203.01,186.14c5.04,.08,7.14,3.44,5.27,7.28-.48,.99-1.1,2.14-1.98,2.66-4.29,2.52-8.65,4.93-13.06,7.22-1.58,.82-2.49,.14-2.55-1.57-.19-4.92,5.41-13.6,9.84-15.14,1.04-.36,2.18-.41,2.48-.46Z"/>
          <path class="cls-2" d="M272.3,314.27c-.51,2.46-.83,4.85-1.54,7.12-.7,2.21-2.16,2.51-3.48,.73-2.61-3.52-4.5-7.44-5.05-11.84-.36-2.88,.88-4.75,3.06-5.3,2.35-.59,4.42,.22,5.49,2.77,.84,2.01,1.03,4.3,1.52,6.52Z"/>
          <path class="cls-3" d="M64.01,315.45c-.56,2.13-1.24,5.08-2.18,7.93-.13,.41-1.79,.81-2.3,.5-2.43-1.5-3.78-8.27-2.37-10.96,1.04-1.97,2.62-2.67,4.74-2.09,1.98,.54,2.18,2.09,2.11,4.61Z"/>
          <path class="cls-3" d="M91.88,49.82c1.67,.13,2.38,0,2.9,.28,.39,.2,.86,1.17,.72,1.35-1.73,2.26-3.4,4.61-5.43,6.58-1.38,1.34-4.26,.85-5.2-.41-1.18-1.59-.67-4.95,1.26-5.91,2.07-1.02,4.42-1.48,5.75-1.89Z"/>
        </g>
        <g>
          <path d="M151.1,282.74c9.98-.37,18.88-.62,27.77-1.09,2.29-.12,4.57-.83,6.8-1.44,12.32-3.34,24.6-6.85,36.95-10.07,5.96-1.56,12.04-2.06,18.26-1.13,7.04,1.05,14.21,1.28,21.22,2.49,12.56,2.17,22.31,9.72,30.25,18.92,7.93,9.19,10.9,20.82,10.35,33-.48,10.54-3.29,20.63-7.24,30.39-.73,1.81-1.78,3.6-3.07,5.03-6.43,7.18-15.1,11.78-25.47,12.34-16.87,.91-33.55,.02-49.91-4.27-13.24-3.47-26.57-3.18-40.05-2.29-8.92,.59-17.94,.86-26.85,.29-13.02-.84-25.82,.09-38.7,1.86-12.48,1.71-25.06,3.1-37.64,3.57-8.04,.31-16.24-.79-24.2-2.17-10.18-1.76-18.41-7.46-24.96-15.35-10.48-12.64-9.25-26.39-2.94-40.24,2.81-6.18,6.3-12.06,9.64-17.99,4.87-8.65,11.56-15.42,20.97-19.03,12.53-4.79,22.07-13.39,30.17-23.7,4.51-5.74,8.51-11.88,12.7-17.86,6.87-9.79,15.08-18.03,25.78-23.7,10.15-5.38,19.58-11.86,28.19-19.53,3.34-2.97,7.26-5.28,10.66-8.19,3.64-3.11,7.26-6.34,10.39-9.94,3.38-3.89,3.35-6,.34-10.28-2.58-3.66-5.5-7.09-8.44-10.47-8.55-9.83-13.51-21.13-14.78-34.15-.46-4.76-1.58-9.5-2.92-14.11-2.33-8.04-4.87-9.4-13.22-7.95-.82,.14-1.64,.28-2.46,.39-9.41,1.27-15.21,6.06-17.35,15.78-1.34,6.07-4.4,11.75-6.53,17.67-.7,1.95-1.23,4.06-1.29,6.12-.16,6.12,.05,12.26-.09,18.38-.1,4.22-2.18,7.58-5.29,10.35-3.73,3.31-7.33,6.75-11.16,9.94-12.69,10.59-27.68,13.87-43.74,13.14-8.44-.38-15.05-4.86-20.58-10.94-4.02-4.42-7.81-9.06-11.76-13.55-7.01-7.95-10.4-17.22-10.48-27.8-.04-5.14-.36-10.29-.44-15.43-.26-17.15,5.39-32.65,13.79-47.21,7.24-12.55,17.52-22.14,29.28-30.75,13.16-9.64,26.93-17.27,42.46-22.27,8.12-2.61,15.45-7.62,23.41-10.87C122.71,3.03,136.97-.89,152.04,.17c6.24,.44,12.49,1.54,18.58,3.01,5.94,1.43,11.71,3.64,17.49,5.68,1.84,.65,3.86,1.51,5.16,2.87,3.24,3.42,7.37,4.96,11.58,6.51,2.49,.91,4.92,2.01,7.43,2.88,6.31,2.19,11.33,5.96,15.43,11.28,2.62,3.39,5.77,6.43,9,9.25,6.12,5.34,10.03,11.86,11.65,19.8,.5,2.44,1.07,4.86,1.64,7.29,1.58,6.77,1.97,13.6-.74,20.1-4.38,10.5-4.65,21.64-5.76,32.67-.12,1.16-.13,2.37-.51,3.44-3.33,9.41-3.4,19.13-3.47,28.98-.07,9.44-1.03,18.91-2.28,28.28-1.28,9.59-5.64,17.94-12.05,25.27-9.5,10.87-18.59,22.11-28.28,32.81-4.53,5-10.05,9.11-15.15,13.6-8.59,7.57-17.24,15.06-25.75,22.71-1.78,1.6-3.06,3.76-4.93,6.13ZM9.24,125.93c0,3.49,.03,6.98,0,10.47-.05,5.46,.98,10.82,4.3,15.08,5.2,6.65,10.85,12.97,16.63,19.13,5.18,5.52,11.75,7.9,19.39,7.09,4.12-.44,8.33-.38,12.37-1.16,10.47-2.02,19.66-5.97,26.79-14.78,6.04-7.47,5.57-16.45,8.18-24.7,.17-.55-.09-1.31-.33-1.89-1.56-3.74-1.29-7.52,.03-11.17,2.76-7.64,5.58-15.27,8.63-22.8,1.85-4.57,5.03-8.26,9.43-10.61,7.28-3.9,14.94-6.37,23.37-5.68,6.89,.57,12.15,3.73,14.54,10.31,1.68,4.64,3.07,9.54,3.55,14.43,1.49,15.07,6.95,28.19,17.09,39.52,2.94,3.28,5.27,7.27,7.21,11.25,2.58,5.28,2.3,10.78-1.49,15.49-2.79,3.47-5.89,6.77-9.24,9.7-4.37,3.81-9.25,7.04-13.71,10.77-10.35,8.65-21.27,16.43-32.92,23.25-3.96,2.32-7.93,5.09-10.93,8.5-5.56,6.34-10.67,13.13-15.5,20.06-10.64,15.26-23.12,28.22-40.73,35.45-5.99,2.46-10.6,6.85-14.19,12.17-4.17,6.19-8.46,12.35-12.05,18.87-5.5,9.99-6.3,22.19,.87,30.43,5.11,5.88,11.11,10.76,18.91,12.21,7.46,1.39,15.11,2.78,22.63,2.57,11.25-.32,22.44-2.22,33.69-3.1,11.4-.9,22.84-1.96,34.26-1.88,14.77,.1,29.51,.97,44.29-.37,9.76-.88,19.54-.64,29.21,1.64,16.69,3.95,33.53,6.86,50.78,5,4.04-.44,8.36-1.17,11.86-3.05,4.21-2.26,9.6-3.92,11.03-9.4,2.14-8.17,4.23-16.38,5.64-24.69,.61-3.62-.05-7.66-.94-11.31-4.18-17.03-16.31-26.74-31.99-31.8-11.79-3.81-24.32-3.46-36.46-.78-11.65,2.57-23.01,6.7-34.74,8.65-13.18,2.19-26.62,2.87-39.97,3.83-4.89,.35-7.17-2.5-7.29-7.44-.13-5.25,2.47-9.42,5.94-12.75,9.69-9.3,19.74-18.23,29.58-27.38,5.09-4.73,10.35-9.32,14.98-14.48,8.65-9.63,16.66-19.83,25.38-29.4,7.42-8.14,11.11-17.58,11.88-28.34,.79-11.08,1.45-22.18,2.19-33.26,.09-1.32,.31-2.64,.54-3.95,1.67-9.47,3.62-18.85,3.29-28.62-.2-6.05,.74-12.22,1.82-18.22,1.18-6.54,2.83-12.95,2.27-19.7-.7-8.43-3.08-15.88-10.23-21.25-2.76-2.07-5.48-4.5-7.42-7.31-4.16-6.04-9.74-9.82-16.51-12.16-2.66-.92-5.24-2.11-7.93-2.95-3.89-1.22-7.31-2.91-9.87-6.32-1.01-1.34-2.87-2.21-4.51-2.88-4.91-2-9.8-4.19-14.9-5.58-5.39-1.47-10.99-2.76-16.54-2.99-18.63-.77-35.42,5.97-51.94,13.59-6.01,2.77-11.91,5.81-18.08,8.17-9.83,3.76-19.25,8.12-27.36,15-1.89,1.6-4,2.98-6.09,4.32-15.76,10.16-26.79,24.04-33.23,41.67-4.21,11.52-7.39,23.13-5.48,35.56Z"/>
          <path d="M188.63,220.02c.35-.81,.56-1.73,1.08-2.41,4.45-5.73,8.94-11.43,13.46-17.11,.61-.76,1.37-1.72,2.21-1.89,1.29-.27,2.99-.36,3.95,.29,.68,.47,1.04,2.74,.52,3.45-5.56,7.54-12.48,13.56-20.38,18.41l-.85-.73Z"/>
          <path d="M270.28,302.72c-5.61-3.03-11.27-5.98-16.81-9.13-1.77-1-2.28-2.83-1.3-4.76,1.08-2.12,2.98-2.72,5.05-1.92,7,2.71,11.7,7.62,14.01,14.67l-.95,1.15Z"/>
          <path d="M228.67,77.88c-1.32-1.22-2.32-1.81-2.84-2.69-2.6-4.37-4.29-9.1-3.45-14.22,.23-1.43,1.81-3.17,3.2-3.76,2.05-.88,4.01,.37,4.78,2.46,2.22,6.06,1.29,11.86-1.68,18.2Z"/>
          <path d="M58.67,55.23c-3.09,3.41-5.68,6.57-8.6,9.4-2.27,2.2-5.41,2.23-7.16,.58-1.89-1.77-1.74-5.22,.33-7.62,3.4-3.95,10.47-5.35,15.43-2.37Z"/>
          <path d="M215.61,190.63c.33-5.9,.5-11.62,1.05-17.31,.21-2.1,1.84-3.54,4.2-3.48,2.13,.05,3.25,1.29,3.72,3.33,1.47,6.3-2.57,14.5-8.98,17.46Z"/>
          <path d="M220.2,56.67c-4.06-3.18-8.28-6.19-12.06-9.67-.79-.72-.54-3.63,.28-4.79,1.32-1.88,3.86-1.56,5.22,.02,2.34,2.71,4.29,5.77,6.17,8.83,.81,1.31,1.04,2.97,1.53,4.48l-1.14,1.14Z"/>
          <path d="M47.71,329.13c-5.31-2.16-7.64-7.47-5.37-12.26,1.2-2.54,3.83-3.71,6.11-2.68,2.76,1.25,2.67,3.35,1.86,5.83-.94,2.88-1.68,5.83-2.6,9.1Z"/>
          <path d="M84.02,39.67c-4.31,2.48-8.54,5.11-12.98,7.31-.79,.39-3.1-.67-3.53-1.6-.42-.92,.27-3.26,1.14-3.71,4.63-2.42,9.5-4.17,14.81-3.24l.57,1.24Z"/>
          <path d="M282.91,317.41c-4.04-2.46-5.1-5.54-5.51-8.74-.14-1.07,.91-2.94,1.9-3.39,1.85-.85,3.35,.59,3.53,2.37,.29,2.89,.08,5.82,.08,9.76Z"/>
        </g>
      </g>
    </g>
  </g>
</svg>