<?xml version="1.0" encoding="UTF-8"?>
<svg xmlns="http://www.w3.org/2000/svg" viewBox="0 0 281.3 377.53">
  <defs>
    <style>
      .cls-1 {
        fill: #b394f6;
      }

      .cls-2 {
        fill: #d7c9f3;
      }

      .cls-3 {
        fill: #b698f7;
      }

      .cls-4 {
        fill: #6832d5;
      }
    </style>
  </defs>
  <g id="_лой_1" data-name="Слой 1"/>
  <g id="_лой_2" data-name="Слой 2">
    <g id="_лой_1-2" data-name="Слой 1">
      <g>
        <g>
          <path class="cls-4" d="M1.6,295.99v-2.92c.84-1.09,2.55-2.57,2.58-3.88,.52-17.97,15.38-20.73,26.28-24.26,6.01-1.95,10.88-2.6,17.17-3.15,8.31-.72,9.59,.58,15.42,6.31,8.66,8.52,18.31,16.54,26.45,25.58,4.69,5.2,16.77,9.81,23.3,8.06,5.23-1.41,10.33-2.45,15.42-.7,12.11,4.16,26-.04,35.56-7.01,7.06-5.15,15.76-15.81,19.62-23.65,5.99-12.18,4.43-30.32-2.28-41.53-4.23-7.08-12.28-17.02-16.99-23.81-3.88-5.59-13.77-11.01-20.5-12.26-7.8-1.45-14.44-2.04-22.07-4.15-5.95-1.65-13.16-1.79-19.09,0-5.11,1.54-9.33,.9-14.54,2.05-9.53,2.1-17.11,3.84-26.28,.18-2.27-.91-6.84-.99-9.28-1.05-5.75-.14-7.9,.41-11.21-4.03-6.5-8.71-12.33-16.63-10.69-28.2,.73-5.15,.58-10.74-.18-15.94-2.32-16.05-.94-29.9,7.71-44.08,7.59-12.45,15.94-24.7,18.39-39.48,.84-5.08,1.51-10.04,4.55-14.36,2.22-3.15,3.12-6.67,4.38-10.16,3.03-8.4,5.98-16.89,12.72-22.41,8.9-7.29,19.66-6.88,30.2-6.74,8.22,.11,16.31,1.29,24.19,3.99,3.85,1.32,8.04,1.01,12.02,.16,13.44-2.84,26.96-3.27,40.5-1.25,5.74,.86,11.27,.02,16.87-.69,13.56-1.72,27.11-2.6,40.79-1.33,8.08,.75,13.48,5.99,19.37,10.56,10.45,8.1,14.67,18.96,14.28,31.95-.12,3.89,.2,7.81-.1,11.69-1.15,15.22-11.21,19.76-24.31,25.55-4.87,2.15-10.83,2.61-15.85,4.38-10.49,3.69-13.56-1.49-23.3-5.26-5.43-2.1-15.52-5.42-21.02-7.36-8.97-3.15-21.28-.67-29.96,2.98-7.45,3.13-15.97,1.01-23.82-.7-5.74-1.25-10.65,5.34-13.66,10.28-2.62,4.29-4.84,11.01-6.83,15.64-4.18,9.73,3.38,21.87,12.79,26.45,8.97,4.37,19.26,9,29.26,9.11,16,.18,32.65-.54,48.66-.53,15.19,.01,28.73,9.38,30.65,24.56,1.13,8.88,3.71,16.19,9.5,22.21,2.7,2.81,7.05,4.97,9.45,8.02,6.19,7.86,10.28,16.37,9.34,26.85-.85,9.49,2.12,18.66,3.18,28,2.19,19.17,.82,37.48-10.51,54.13-6.37,9.36-11.46,19.53-19.11,28.08-7.12,7.95-15.73,13.49-25.43,17.36-15.32,6.11-30.19,13.3-45.7,19.01-13.42,4.94-27.13,5.14-41.01,5-8.35-.09-16.42-1.72-24.34-4.3-3.89-1.26-7.94-1.35-12-1.33-12.61,.06-25.24-.24-37.7-2.07-12.2-1.79-23.92-5.57-34.58-12.13-11.27-6.94-17.6-16.69-17.25-30.26,.08-3.09-.29-6.15-.51-9.22-.28-5.96,.58-11.95-.49-17.89Z"/>
          <path class="cls-2" d="M3.4,313.85l-.48-.02-.48,.02v-18.52c.33,.79,.92,1.57,.93,2.36,.08,5.38,.04,10.77,.03,16.16Z"/>
          <path class="cls-3" d="M240.72,288.38c-.39,1.83-1.03,3.53-1.99,4.7-6.26,7.63-12.69,15.14-21.26,20.34-1.63,.99-3.47,1.68-5.27,2.34-.46,.17-1.41-.13-1.67-.52-.21-.33,.11-1.23,.45-1.67,6.07-7.76,12.15-15.52,18.31-23.21,1.41-1.76,2.95-3.55,4.79-4.77,1.16-.77,3.16-1,4.46-.55,.98,.34,1.77,2.04,2.18,3.35Z"/>
          <path class="cls-3" d="M93.45,103.97c.62-4.14,1.17-7.51,2.27-11.03,1.01-3.25,3.64-4.64,6.75-4.25,2.66,.33,4.48,1.97,4.78,4.67,.18,1.59,.35,3.38-.19,4.82-1.8,4.83-3.8,9.6-6,14.26-.52,1.1-2.19,2.42-3.17,2.31-1.05-.12-2.36-1.67-2.78-2.87-.89-2.55-1.48-5.22-1.65-7.91Z"/>
          <path class="cls-3" d="M245.08,48.73c-2.27,.4-4.11-.37-5.59-2.08-2.53-2.91-5.19-5.73-7.54-8.78-2.03-2.64-2.02-5.97-.43-8.13,2.64-3.58,8.18-3.69,10.7,.22,3.29,5.12,5.1,10.76,3.3,16.99-.18,.62-.34,1.24-.51,1.86l.08-.07Z"/>
          <path class="cls-3" d="M50.97,279.46c1.48,.55,3.15,.84,4.41,1.71,5.32,3.64,8.29,8.95,9.9,15.06,.53,2.02-.9,3.36-2.66,2.5-5.5-2.68-11.2-5.11-15.56-9.63-2.27-2.35-2.39-4.43-.67-6.97,1.07-1.59,2.49-3.17,4.58-2.67Z"/>
          <path class="cls-3" d="M238.15,220.82c-.35,2.06-.56,4.16-1.12,6.17-.21,.76-1.16,1.77-1.85,1.83-.66,.06-1.64-.82-2.08-1.54-1.09-1.78-2.03-3.67-2.9-5.58-1.68-3.66-3.36-7.33-4.88-11.07-1.16-2.85,.18-6.33,2.62-7.46,2.27-1.05,5.55,.15,6.64,3.18"/>
          <path class="cls-3" d="M216.13,181.23c-.48,2.45-.75,4.37-1.24,6.22-.47,1.79-1.77,2.13-3.24,.83-1.08-.96-2.11-2.04-2.88-3.25-2.07-3.27-4.11-6.57-5.92-9.98-.72-1.36-1.27-3.12-1.09-4.59,.25-2.1,1.43-4.04,3.74-4.6,2.1-.51,4.23-.41,5.76,1.44,.81,.98,1.75,2.02,2.1,3.19,1.09,3.69,1.93,7.45,2.76,10.75Z"/>
          <path class="cls-3" d="M89.6,38.31c.33-6.4,5.83-12.21,10.89-12.7,1.91-.19,3.26,.98,2.78,2.89-.98,3.89-1.94,7.86-3.59,11.47-1.88,4.12-5.84,4.86-8.5,1.9-1.06-1.19-1.37-3.06-1.58-3.57Z"/>
          <path class="cls-1" d="M245,48.8c.96,.02,1.94-.06,2.88,.07,2.48,.34,3.99,2.31,3.86,5.23-.13,2.85-1.41,5.28-3.38,7.29-1.15,1.17-2.31,.97-3.1-.51-1.68-3.15-1.64-6.49-.84-9.87,.18-.77,.43-1.52,.65-2.28l-.08,.07Z"/>
        </g>
        <g>
          <path d="M215.87,138.48c11.69,1.52,24.95,13.83,25.65,26.55,.44,8.05,4.08,14.35,9.8,20.06,5.27,5.27,9.7,11.41,14.18,17.4,3.69,4.93,5.48,10.61,4.89,16.9-1.08,11.45,2.22,22.46,3.44,33.68,1.8,16.65,1.38,32.95-8.19,47.74-5.06,7.83-9.68,15.94-14.69,23.81-7.27,11.42-17.06,19.91-29.7,25.02-18.36,7.42-36.58,15.23-55.06,22.32-14.4,5.53-29.38,7.19-44.67,3.83-.49-.11-1.03-.1-1.47-.3-16.5-7.7-34.31-5.75-51.63-6.54-16.84-.77-32.62-4.73-47.34-12.6-10.49-5.61-17.45-14.15-19.15-26.45-1.72-12.42-2.91-24.82-.75-37.29,2.97-17.12,15.43-29.34,32.55-32.12,3.61-.58,7.21-1.21,10.83-1.77,8.81-1.37,15.97,1.88,22.17,7.9,9.07,8.81,18.38,17.39,27.2,26.45,5.24,5.38,10.81,7.33,17.98,4.89,6.19-2.11,12.5-1.94,18.67,.11,7.6,2.52,14.72,1.3,21.8-1.94,12.47-5.71,21.66-14.88,27.84-26.93,7.48-14.59,4.46-28.44-4-41.59-3.42-5.32-7.19-10.42-10.56-15.77-5.27-8.36-12.44-13.45-22.35-15.24-8.33-1.5-16.42-4.32-24.72-6-3.8-.77-7.97-.8-11.8-.14-9.17,1.56-18.18,4.12-27.38,5.52-7.12,1.08-14.25,.08-21-2.96-1.75-.79-3.86-1.08-5.8-1.08-6.39,0-11.42-2.77-14.86-7.83-5.97-8.79-10.93-18.07-8.42-29.33,1.66-7.43-1.24-14.5-1.46-21.79-.39-12.95,1.82-25.09,8.58-36.38,4.44-7.41,8.6-15.05,12.17-22.91,2.52-5.55,4.04-11.59,5.65-17.5,1.66-6.12,3.05-12.27,7.12-17.42,.87-1.1,1.37-2.65,1.64-4.07C67.32,12.36,87.64-2.59,110.24,.38c5.89,.77,11.76,2.27,17.43,4.11,6.84,2.22,13.56,3.01,20.62,1.43,13.33-2.99,26.73-2.69,40.25-1.17,5.7,.64,11.6-.08,17.36-.63,9.93-.95,19.79-2.64,29.73-3.32,20.81-1.43,45.01,19.04,45.64,42.83,.29,10.99-1.43,20.81-8.41,29.45-4.99,6.17-11.56,9.92-18.91,12.52-2.67,.94-5.45,1.66-7.95,2.93-7.44,3.76-15.13,3.91-22.85,1.58-6.19-1.87-12.26-4.24-18.26-6.69-8.21-3.36-16.38-6.95-25.51-5.74-4.57,.61-9.27,1.49-13.48,3.28-7.1,3.01-14.1,3.64-21.44,1.57-.64-.18-1.29-.34-1.95-.45-5.54-.93-9.38,.69-12.19,5.6-3.23,5.63-6.39,11.31-9.22,17.14-3.79,7.84-.46,18.11,7.04,22.63,8.58,5.17,18.06,8.03,27.88,8.82,13.6,1.1,27.28,1.2,40.92,1.74m-2.18,10.42c-5.2-.43-11.66-1.05-18.14-1.5-6.48-.44-12.98-.66-19.47-1.06-10.85-.68-20.59-4.76-30.31-9.34-11.91-5.61-18.14-24.57-14.2-35.57,1.9-5.31,3.84-10.7,6.55-15.62,6.77-12.29,16.35-16.09,29.83-12.03,4.4,1.33,8.36,1.06,12.63-.42,5-1.74,10.13-3.34,15.34-4.21,10.74-1.8,20.78,1.41,30.59,5.35,5.56,2.23,11,4.77,16.62,6.81,6.62,2.4,13.24,2.86,19.78-.78,3.77-2.1,7.9-3.53,11.78-5.44,8.58-4.23,14.14-10.88,16.04-20.41,1.14-5.73,.1-11.25-1.33-16.77-4.38-16.97-17.7-27.73-35.21-27.57-7.78,.07-15.58,1.23-23.3,2.4-8.61,1.31-17.25,2.61-25.84,1.06-13.18-2.37-26.13-1.43-39.21,.78-4.97,.84-10.28,.39-15.35-.24-7.09-.88-14.03-3-21.13-3.66-12.58-1.16-23.95,2.24-32.35,12.13-5.63,6.62-9.45,14.36-11.23,23.05-1.13,5.53-2.66,11-4.35,16.39-4.38,13.93-11.61,26.49-19.11,38.9-7.41,12.25-9.4,25.43-6.41,39.39,1.13,5.26,1.87,10.53,.37,15.82-1.51,5.35-.56,10.16,2.61,14.68,1.04,1.49,1.69,3.24,2.6,4.84,3.44,6.09,8.45,9.38,15.65,8.22,6.28-1.02,12.48-1.16,18.8-.08,6.57,1.12,12.9-.72,19.15-2.53,10.31-2.98,20.53-3.58,30.96-.23,6.79,2.18,13.81,3.69,20.8,5.18,8.96,1.91,16.89,5.71,22.23,13.25,6.73,9.49,13.73,18.96,19.02,29.26,6.73,13.1,7.48,27.32,1.66,41.14-6.8,16.13-18.37,27.92-34.26,35.49-9.77,4.66-19.62,6.03-29.97,2.12-3.79-1.43-7.74-1.94-11.74-.55-11.84,4.1-21.58,.95-29.45-8.59-.64-.77-1.33-1.49-2.05-2.19-7.5-7.32-14.95-14.69-22.53-21.93-5.4-5.16-11.66-7.56-19.21-5.37-2.07,.6-4.27,.71-6.37,1.2-13.16,3.05-21.53,11.09-23.98,24.41-2.25,12.24-1.53,24.58,1.11,36.72,1.53,7.06,5.94,12.35,12.24,15.66,11.76,6.18,24.37,9.95,37.58,11.21,11.44,1.09,22.96,1.33,34.41,2.3,5.27,.45,10.75,.98,15.64,2.8,18,6.72,35.75,5.47,53.17-1.28,17.68-6.85,35.02-14.57,52.57-21.77,9.58-3.93,17.14-10.28,22.85-18.74,5.21-7.72,9.88-15.81,14.9-23.67,9.18-14.36,9.48-30.2,7.71-46.33-1.05-9.59-3.13-19.11-2.16-28.81,.76-7.67-1.64-14.07-6.67-19.69-5-5.59-9.92-11.25-14.95-16.81-3.45-3.82-5.56-8.24-6.48-13.28-.36-1.96-.72-3.93-1.21-5.87-2.38-9.42-11.23-17.3-20.94-18.14-4.96-.43-9.98-.08-16.27-.08Z"/>
          <path d="M249.15,234.7c-1.74-4.73-3.33-9.2-5.03-13.62-2.03-5.28-4.16-10.52-6.25-15.77-.89-2.24-.91-4.35,1.44-5.64,2.22-1.22,4.23-.39,5.83,1.34,.78,.84,1.51,1.83,1.92,2.89,3.13,8.13,5.41,16.43,5.15,25.26-.07,2.26-.68,4.13-3.06,5.55Z"/>
          <path d="M243.65,290.35c3.23,2.75,2.63,5.8,1.25,8.09-6.3,10.49-14.17,19.54-25.41,25.07-.51,.25-1.24,.03-2.28,.03,4.86-5.69,9.25-11.18,14-16.33,4.73-5.13,6.89-12.24,12.44-16.87Z"/>
          <path d="M256.34,36.49c-2.56,1.58-3.96,.08-4.99-2-1.69-3.4-4.15-5.93-7.73-7.3-2.25-.86-3.22-2.75-2.42-4.73,.65-1.61,2.16-3.33,3.72-4,2.75-1.17,5.11,.4,6.95,2.51,3.96,4.52,5.27,9.79,4.28,15.68l.18-.17Z"/>
          <path d="M223.99,181.28c-5.54-4.25-9.27-9.62-12.16-15.59-.99-2.05-1.33-4.36,.86-5.81,2.08-1.38,4.39-.86,5.63,1.29,3.55,6.19,5.93,12.78,5.68,20.11Z"/>
          <path d="M256.16,36.67c5.37-.28,6.97,.5,7.94,3.84,1.37,4.72-.35,9.55-4.27,11.99-4.88-4.06-5.96-9.04-3.49-16l-.18,.17Z"/>
          <path d="M69.85,300.23c-3.53-3.41-7.15-6.73-10.56-10.26-1.39-1.44-1.5-3.36,.06-4.93,1.72-1.73,3.76-1.57,5.35-.03,4.08,3.93,5.94,8.91,6.57,14.34-.48,.29-.95,.59-1.43,.88Z"/>
          <path d="M96.63,24.1c-1.52,3.21-2.73,6.09-4.23,8.81-1.52,2.74-4.14,3.64-6.16,2.25-2.33-1.61-2.31-3.79-1.21-6.17,1.97-4.26,6.34-6.34,11.6-4.89Z"/>
          <path d="M108.86,97.52c0,4.46,.09,8.54-.04,12.61-.06,1.98-1.06,3.51-3.33,3.6-2.4,.09-3.61-1.35-4.17-3.47-1.24-4.67,2.12-10.63,7.54-12.74Z"/>
          <path d="M242.98,250.74c-.49-.6-1.22-1.13-1.42-1.81-1.3-4.42-2.38-8.91-3.73-13.32-.7-2.27-.52-4.09,1.92-4.74,2.23-.59,3.33,1.04,3.83,2.95,1.45,5.52,.89,11.06,.46,16.6l-1.06,.32Z"/>
        </g>
      </g>
    </g>
  </g>
</svg>