<?xml version="1.0" encoding="UTF-8"?>
<svg xmlns="http://www.w3.org/2000/svg" viewBox="0 0 239.56 370.16">
  <defs>
    <style>
      .cls-1 {
        fill: #eb8e97;
      }

      .cls-2 {
        fill: #ae444e;
      }

      .cls-3 {
        fill: #e88b94;
      }
    </style>
  </defs>
  <g id="_лой_1" data-name="Слой 1"/>
  <g id="_лой_2" data-name="Слой 2">
    <g id="_лой_1-2" data-name="Слой 1">
      <g>
        <g>
          <path class="cls-2" d="M236.48,70.68c-.85-9.69-6.42-17.81-8.94-26.95-.6-2.17-2.29-3.88-3.94-5.44-3.63-3.46-6.85-7.28-9.92-11.23-3.66-4.71-8.46-7.38-14.37-8.04-2.44-.27-4.73-.91-6.91-2.06-11.98-6.33-24.13-12.2-37.8-13.96h-8.75c-.5,.48-1.16,.59-1.79,.63-13.81,.83-24.46,7.78-33.57,17.52-4.95,5.29-10.75,9.31-17.08,12.66-7.13,3.77-13.31,8.73-18.01,15.26-7.13,9.9-15.31,18.81-24.04,27.29-5.61,5.44-10.22,11.65-13.61,18.77-5.74,12.09-8.83,25-12.04,37.88-2.52,10.11-6.19,19.7-11.38,28.8-4.8,8.43-9.64,16.99-10.68,26.91-1.27,12.1-.93,24.21,.09,36.32,1.38,16.29,2.56,32.57,.78,48.91-.32,2.91-.23,5.82,.25,8.71,2.56,15.37,9.93,28.69,18.47,41.31,6.9,10.19,17.83,16.35,26.82,24.46,10.04,9.05,21.41,15,35.22,15.43,3.45,0,6.91,.02,10.37-.02,2.03-.68,4.32,.02,6.22-.86,9.48-4.43,19.1-3.16,29.14-2.21,13.05,1.24,25.23-3.67,36.49-9.98,12.31-6.91,24.21-14.61,32.42-26.49,7.05-10.21,10.12-21.92,11.62-34.13,.89-7.19,.87-14.64,4.5-21.23,3.55-6.44,1.13-11.9,.13-18.93-.62-4.33-1.6-9.06-2.63-13.31-1.29-5.37,1.7-11.46,4.21-16.46,1.23-2.46,2.28-5.01,3.27-7.57,3.8-9.78,.54-16.95-5.2-25.46-13.51-20.01-30.74-26.25-54.32-28.12-10.23-.81-18.05,2.11-27.59,6.04-4.18,1.73-9.23,2.49-13.91,2.36-6.35-.17-10.82,.17-16.88,2.36-3.11,1.13-13.03,3.1-13.39-.26-.72-6.77-1.77-20.71,0-27.33,4.09-15.25,10.29-34.71,20.79-46.51,3.24-3.64,7.05-6.9,12.01-8.09,4.97-1.19,11.26-2.81,15.32-5.89,2.8-2.13,10.92-5.36,14.45-5.38,10.28-.05,21.24,10.02,25.23,18.3,6.18,12.85,10.91,15.51,24.79,17.08,15.57,1.75,24.43,2.31,31.37-12.22,2.15-4.49,1.92-9.44,3.48-14v-12.63c-.59-.63-.67-1.48-.74-2.25ZM104.28,259.44c2.33-4.12,3.78-8.65,6.12-12.78,2.16-3.81,4.52-7.54,7.34-10.9,3.08-3.67,6.82-6.6,11.58-7.64,4.38-.95,8.88-.22,13.29-.13,.11,0,.22,.01,.32,.02,4.74-1.92,9.83-2.07,13.3,2.85,1.2,1.71,2.13,3.63,2.81,5.67,1.48,.88,2.67,2.11,3.33,4.09,1.32,3.92,.84,9.19,.74,13.22-.15,6.28-.93,12.66-2.75,18.69-2.42,8-7.16,11.62-14.18,15.59-7.13,4.03-13.47,9.84-21.79,11.24-11.15,1.87-27.48,.55-36.15-7.55-4.81-4.5-5.43-11.27-2.02-16.88,4.38-7.21,13.9-8.13,18.05-15.48Z"/>
          <path class="cls-1" d="M154.37,310.39c-1.36-.5-2.47-.9-3.58-1.31,.54-1.09,.9-2.31,1.64-3.24,5.39-6.74,10.8-13.46,16.34-20.08,1.31-1.57,2.97-2.96,4.71-4.03,2.64-1.6,5.6-1.14,7.53,.76,1.95,1.92,2.22,4.06,.81,7.05-.55,1.15-1.07,2.39-1.92,3.3-5.58,6.01-11.35,11.86-18.74,15.66-2.05,1.05-4.52,1.29-6.78,1.89Z"/>
          <path class="cls-1" d="M79.71,229.64c-.23-2.47,.81-4.54,2.6-6.32,2.97-2.95,5.85-6.01,8.93-8.83,2.65-2.42,5.71-3.93,9.53-3.73,2.02,.11,2.52,.94,2.35,2.66-.09,.95,.04,2.02-.36,2.82-3.3,6.75-7.07,13.22-12.47,18.55-1.61,1.58-3.65,2.3-5.98,1.63-3.6-1.04-4.61-2.49-4.6-6.79Z"/>
          <path class="cls-1" d="M210.31,68.9c-.65,1.38-1.03,3.88-2.42,4.73-1.85,1.13-3.87-.58-5.47-2-3.68-3.26-5.8-7.57-7.71-11.94-1.05-2.41,.74-5.62,3.48-7.16,2.01-1.12,5.05-.21,6.97,2.06,3.34,3.95,3.91,8.87,5.14,14.3Z"/>
          <path class="cls-1" d="M180.83,195.92c0,1.29,.14,2.61-.03,3.88-.29,2.11-1.87,2.79-3.28,1.34-2.69-2.76-5.09-5.8-7.82-8.51-1.77-1.75-1.63-3.77-1.49-5.84,.2-2.93,3.16-4.73,5.87-3.56,4.25,1.85,6.08,5.46,6.78,9.79,.15,.95,.02,1.94,.02,2.91h-.04Z"/>
          <path class="cls-1" d="M143.02,26.29c4.85-.48,8.54,1.84,11.62,5.43,.38,.44,.5,1.1,.73,1.66-.55,.23-1.18,.75-1.65,.64-3.34-.8-6.43,.09-9.66,.83-2.34,.54-5.15,1.09-7.18-1.42-2.3-2.84-1.02-6.51,2.62-7.12,1.1-.18,2.26-.03,3.52-.03Z"/>
          <path class="cls-3" d="M76.89,249.03c-.02,2.99-1.04,5.17-2.81,5.43-1.98,.29-4.13,.77-5.83-1.12-1.78-1.97-2.22-3.72-1.35-5.97,1.13-2.92,2.77-5.35,5.76-6.66,1.68-.74,2.89-.37,3.19,1.27,.46,2.48,.75,4.99,1.04,7.06Z"/>
          <path class="cls-3" d="M84.58,73.78c-.1-2.25,.61-4.05,2.73-5.14,.84-.43,1.55-1.24,2.43-1.45,1.63-.41,4.21-1.3,4.84-.59,1.44,1.6-1.37,2.65-1.71,4.28-.25,1.18-.96,2.27-1.43,3.41-.12,.29-.05,.65-.18,.93-.73,1.69-2.58,2.79-4.23,2.55-1.84-.26-2.46-1.28-2.44-3.99Z"/>
          <path class="cls-3" d="M188.07,227.82c-.51,1.95-.86,3.97-1.6,5.83-.64,1.62-1.79,1.57-2.61-.11-1.03-2.11-1.98-4.28-2.7-6.51-.79-2.45,1.33-4.75,3.9-4.51,1.46,.13,2.38,.87,2.55,2.33,.11,.94,.02,1.91,.02,2.87l.43,.1Z"/>
          <path class="cls-3" d="M207.49,83.48c.49-2.08,.31-3.95,2.53-4.67,1.86-.6,4.03,.16,5.12,1.73,1.08,1.56,.93,3.09-.49,4.77-1.64,1.94-3.66,2.96-4.9,1.95-1.07-.88-1.53-2.49-2.26-3.78Z"/>
        </g>
        <g>
          <path d="M239.51,77.48c-.34,10.54-2.98,20.36-9.24,29.04-4.7,6.52-10.88,10.09-19.05,10.09-6.39,0-12.61-.86-18.64-3.02-7.68-2.75-13.08-8.02-16.1-15.44-2.79-6.84-7.66-11.73-13.67-15.44-6.64-4.11-13.74-4.05-20.19,.4-4.61,3.18-9.27,5.85-14.8,6.85-4.18,.75-7.12,3.56-9.98,6.34-11.22,10.92-18.31,24.34-23.93,38.8-3.74,9.62-3.05,19.29-1.95,29.06,.54,4.77,1.26,5.19,5.86,3.76,7.08-2.22,14.23-2.93,21.64-3.03,4.14-.06,8.38-1.87,12.36-3.44,10.02-3.96,20.32-6.43,31.11-6.39,2.97,.01,6.04,.25,8.88,1.05,16.91,4.77,32.61,11.6,44.02,25.87,9.27,11.59,11.35,23.95,4.13,37.15-4.04,7.38-4.37,14.68-2.45,22.67,1.47,6.11,2.23,12.44,2.73,18.71,.21,2.68-.39,5.85-1.73,8.15-4.42,7.65-5.3,16.05-6.15,24.51-1.03,10.19-3.13,20.16-8.02,29.2-2.74,5.07-5.82,10.34-10,14.17-14.65,13.41-30.93,24.23-50.83,28.43-7.63,1.61-15.19,2.09-22.67-.54-4.01-1.41-7.55-.89-11.48,.9-20.38,9.25-39.04,4.6-56.25-8.1-7.23-5.33-13.91-11.41-20.76-17.25-8.06-6.87-15.16-14.41-18.59-24.85-1.12-3.4-3.84-6.24-5.34-9.55-4.69-10.31-6.41-20.93-5.66-32.49,1.16-17.77,.25-35.61-1.93-53.37-2.3-18.77-.33-36.88,9.88-53.47,7.67-12.47,12.41-26.11,15.42-40.41,.92-4.39,2.23-8.71,3.45-13.03,4.58-16.22,12.63-30.24,25-41.95,6.61-6.26,12.47-13.41,18.06-20.63,5.82-7.51,12.44-13.9,20.88-18.26,6.9-3.56,12.84-8.25,18.18-13.87,8.99-9.45,19.8-15.54,32.88-17.52,7.29-1.1,14.38-.59,21.12,2.1,8.8,3.51,17.35,7.63,26.07,11.34,2.87,1.22,5.86,2.54,8.91,2.91,5.64,.68,10.06,3.1,13.7,7.35,3.9,4.55,8.07,8.87,11.84,13.51,1.75,2.15,3.09,4.72,4.17,7.29,1.99,4.74,3.61,9.63,5.45,14.43,2.22,5.8,4,11.67,3.64,18Zm-162.57-15c-6.97,7.12-13.44,13.82-20.01,20.43-6.22,6.26-10.8,13.56-13.65,21.85-2.54,7.39-5.09,14.82-6.92,22.41-3.65,15.16-9.06,29.54-16.58,43.22-2.78,5.05-4.91,10.58-6.5,16.13-3.09,10.74-2.27,21.78-1.44,32.76,.41,5.48,1.33,10.97,1.12,16.43-.38,9.81-1.65,19.57-2.13,29.38-.37,7.46-1.1,15.12,.09,22.4,2.54,15.62,9.62,28.68,23.31,37.97,8.36,5.67,15.68,12.89,23.42,19.46,5.82,4.94,12.56,8.17,19.74,10.42,9.16,2.87,18.54,3.21,27.4-.69,6.41-2.82,12.43-3.04,18.86-.79,5.17,1.81,10.49,1.73,15.76,.35,8.21-2.15,16.5-4.24,23.79-8.81,6.34-3.97,12.5-8.23,18.66-12.48,6.79-4.68,11.84-10.94,14.39-18.7,2.47-7.55,4.41-15.34,5.82-23.16,1.57-8.7,2.68-17.4,6.94-25.39,1.02-1.91,1.19-4.54,.99-6.77-.44-4.96-.91-10-2.19-14.8-2.55-9.61-2.06-18.73,2.4-27.68,5.16-10.36,2.93-19.56-4.33-28.16-7.46-8.84-17.24-13.75-27.58-18.29-10.83-4.75-21.62-4.97-32.69-2.11-4.81,1.25-9.35,3.54-14.16,4.79-4.45,1.16-9.11,2.25-13.64,2.13-4.39-.11-8.6-.06-12.79,1.23-2.38,.73-4.8,1.41-7.24,1.9-7.1,1.42-12.42-1.49-14.13-8.48-2.11-8.59-3.4-17.52-1.82-26.23,3.8-20.82,13.51-38.86,27.78-54.42,2.34-2.55,5.22-4.66,8.08-6.65,1.88-1.31,4.08-2.53,6.29-2.9,5.74-.96,10.61-3.59,15.55-6.44,8.29-4.79,17.33-5.39,25.94-1.48,8.84,4.01,16.1,10.44,19.44,19.86,3.16,8.89,9.35,12.92,18.23,13.88,1.66,.18,3.3,.5,4.95,.67,5.53,.59,10.16-.95,13.57-5.62,8-10.98,10.52-22.79,5.55-35.76-1.84-4.82-3.54-9.7-5.69-14.38-1.21-2.65-3-5.11-4.87-7.39-2.64-3.21-5.83-5.97-8.33-9.27-2.7-3.56-5.96-5.46-10.36-6.18-3.23-.53-6.41-1.73-9.42-3.06-7.6-3.35-15.06-7.03-22.66-10.4-14.46-6.43-28.05-4.08-39.58,6.06-10.8,9.49-21.72,18.55-34.35,25.5-4,2.2-6.89,5.83-9.42,10.2,3.49-1.15,5.94-4.04,10.42-2.5-2.31,3.99-4.4,7.69-6.59,11.33-1.23,2.05-2.75,3.97-5.48,3.64-2.88-.35-3.46-2.74-3.92-5.41Z"/>
          <path d="M140.15,219.69c1.99,.16,4,.19,5.97,.49,10.11,1.53,15.66,6.62,18.15,16.63,1.49,5.97,2.9,11.96,4.35,17.94,4,16.57-2.8,32.22-17.91,40.01-7.97,4.11-16.25,7.69-24.57,11.05-11.19,4.52-22.2,3.05-32.84-2.15-5.95-2.91-9.87-7.77-12.63-13.63-.47-1-.53-2.25-.55-3.39-.11-7.92,2.37-14.83,8.75-19.77,5.97-4.61,10.14-10.36,13.16-17.23,4.29-9.76,10.63-18,19.4-24.29,5.64-4.04,11.75-6.15,18.71-5.66Zm-27.38,78.53c1.81-.19,3.75-.02,5.42-.62,10.63-3.83,21.06-8.07,30.42-14.62,8.25-5.78,10.35-14.06,9.29-23.24-.83-7.23-2.8-14.33-4.25-21.49-.65-3.23-2.62-5.24-5.63-6.43-6.93-2.73-13.57-2.65-19.97,1.59-6.82,4.52-11.97,10.55-15.77,17.69-4.52,8.5-10.02,16.01-18.33,21.26-3.8,2.41-5.85,6.32-6.87,10.64-.25,1.07-.07,2.79,.63,3.47,7,6.71,14.81,11.83,25.06,11.76Z"/>
          <path d="M191.6,201.81c-1.49-1.37-2.48-2.16-3.32-3.08-3.35-3.67-6.7-7.33-9.95-11.08-2.5-2.89-2.59-5.58-.46-7.45,2.07-1.81,4.88-1.31,7.43,1.33,5.48,5.67,7.79,12.55,6.3,20.28Z"/>
          <path d="M177.29,307.98c2.58-5.82,4.62-10.82,7.02-15.65,1.19-2.39,3.62-2.93,6.03-1.89,2.18,.94,2.43,2.99,2.06,5.09-.75,4.26-9.05,11.71-15.11,12.45Z"/>
          <path d="M195.8,223.93c-3.66-1.49-10.93-12.13-10.43-15.42,.19-1.23,1.3-2.99,2.33-3.27,1.34-.37,3.53,0,4.43,.95,1.41,1.48,2.29,3.61,2.98,5.61,1.36,3.92,1.56,7.96,.69,12.14Z"/>
          <path d="M215.54,60.74c-.09,1.43,.02,2.8-.32,4.05-.3,1.14-1.09,2.14-1.67,3.2-.88-.64-2.12-1.08-2.58-1.94-1.71-3.18-3.42-6.41-4.65-9.8-1.29-3.56-.04-6.26,2.62-6.93,2.63-.66,4.86,1.08,5.93,4.64,.19,.63,.36,1.28,.41,1.93,.13,1.64,.18,3.29,.26,4.84Z"/>
          <path d="M160.77,22.44c-4.22-.36-8.47-.51-12.64-1.16-2.92-.46-4.19-2.56-3.67-4.89,.5-2.26,2.56-3.65,5.37-3.26,5.1,.71,8.6,3.78,11.24,7.95l-.3,1.37Z"/>
          <path d="M105.51,220.42c-1,3.96-3.5,6.04-6.19,7.81-1.75,1.15-3.64,.5-4.67-1.28-1-1.74-.6-3.56,.98-4.88,2.76-2.32,5.98-2.27,9.88-1.65Z"/>
          <path d="M215.66,81.77c-.38-2.06-.92-4.12-1.11-6.22-.24-2.66,1.22-4.43,3.42-4.53,2.22-.1,3.58,1.48,3.68,4.29,.15,4.11-1.83,6.3-5.99,6.47Z"/>
        </g>
      </g>
    </g>
  </g>
</svg>