<?xml version="1.0" encoding="UTF-8"?>
<svg xmlns="http://www.w3.org/2000/svg" viewBox="0 0 234.53 376.16">
  <defs>
    <style>
      .cls-1 {
        fill: #47e1fe;
      }

      .cls-2 {
        fill: #d3f3fd;
      }

      .cls-3 {
        fill: #08c0f9;
      }

      .cls-4 {
        fill: #b8ecfc;
      }

      .cls-5 {
        fill: #49e2fe;
      }
    </style>
  </defs>
  <g id="_лой_1" data-name="Слой 1"/>
  <g id="_лой_2" data-name="Слой 2">
    <g id="_лой_1-2" data-name="Слой 1">
      <g>
        <g>
          <path class="cls-3" d="M231.26,276.13c-1.15-11.67-9.11-19.31-16.93-27.64-3.05-3.25-2.32-8.5-1.6-12.64,1.47-8.52-1.54-15.47-7.39-21.78-2.9-3.13-4.19-5.39-7.65-7.92-2.01-1.47-5.3-4.79-5.2-7.59,.38-11.11-7.32-17.8-15.28-24.44-6.81-5.68-14.64-13.88-24.12-13.66,6.09-4.56,9.73-10.62,15.15-16.29,4.93-5.15,9.11-8.83,8.97-15.77-.13-6.59,.74-16.16,5.05-21.28,5.56-6.61,11.14-13.76,15.24-21.26,5.26-9.63,7.29-17.73,5.52-28.2-2.3-13.59-9.96-23.31-20.5-32-13.15-10.85-24.34-22.92-42.67-21.93-5.27,0-10.54,0-15.82,0-17.9,.46-34.14,5.91-52.14,4.85-.82-.05-2.39,.58-3.18,.79-22.89,6.08-34.83,19.65-44.39,40.71-4.03,8.89-1.08,17.22-1.31,26.56-.21,8.26,2.35,16.32,6.83,23.12,5.88,8.93,7.96,18.13,8.18,28.64,.25,12.47,5.37,17.18,15.05,24.18,2.16,1.56,.66,8.27-.19,11.32-.77,2.73-2.86,3.36-5.41,2.88-3.26-.61-4.96,2.36-7.64,4.19-18.72,12.84-25.31,29.12-27.85,51.69-.75,6.66-.77,13.96-3.5,20.31-2.46,5.7-6.7,11.03-7.2,17.11-.24,4.12,.53,8.29-.49,12.39v4.95c.58,.69,.5,1.53,.49,2.34-.27,12.01,3.15,24.57,3.88,36.54,.37,6,.8,10.99,3.33,16.81,7.04,16.15,16.53,22.32,32.67,27.07,9.31,2.74,18.21,.48,27.82,.26,4.25-.1,11.18,4.21,14.44,6.83,6.52,5.25,11,7,19.23,7.09,.95,.01,4.94-.72,5.78,0,1.63,0,2.83,.26,4.47,.26,11.63-1.29,21.33-2.27,33-2.43,17.52-.24,31.58-3.23,46.6-11.76,15.33-8.7,22.7-21.87,29.44-37.58,3.88-9.04,9-18.81,10.25-28.61v-14.85c-.7-.98-.8-2.16-.91-3.27ZM98.57,58.51c5.45-2.86,13.37-4.5,19.44-3.2,6.97,1.49,11.17,7.35,13.05,13.93,2.04,7.15,1.74,15.78,1.78,23.19,.04,6.87-2.45,13.47-7.61,18.14-4.86,4.4-10.84,5.08-17.1,4.06-1.85-.3-3.67-.7-5.39-1.32-1.69,.16-3.39,.3-5.1,.39-2.99,.15-6.08,.68-8.95-.44-6.82-2.66-5.51-11.32-6.2-17.16-1.52-12.94,3.68-31.07,16.08-37.59Zm50.72,233.57c-2.69,5.99-6.77,12.35-12.71,15.52-5.03,2.68-11.38,4.29-16.97,4.05-5.78-.25-10.43-1.2-16.2-.61-4.32,.44-9.45,.06-13.03-2.86-2.24-1.83-3.3-4.25-3.84-6.88-4.57-2.74-6.19-9.26-6.96-14.12-.74-4.64-1.59-11.76,2.03-15.55,0-5.47,2.48-10.65,5.46-15.13,3.32-4.99,6.61-9.65,9.54-14.92,2.65-4.77,6.93-11.7,12.69-13.68,.59-1.82,2.99-2.45,5.43-2.54,14.93-.57,24.68,14.2,29.13,26.47,2.54,6.99,7.09,13.46,8.33,20.85,1.12,6.68-.14,13.27-2.89,19.4Z"/>
          <path class="cls-2" d="M123.31,4.12c.01-.29,.02-.59,.02-.88h17.65c0,.33,0,.66,0,.98l-17.68-.1Z"/>
          <path class="cls-4" d="M.77,259.61c.3,0,.6,0,.9-.03,.03,3.51,.11,7.02,.04,10.52-.02,.8-.61,1.59-.94,2.38v-12.87Z"/>
          <path class="cls-5" d="M190.03,280.27c.03-3.62,2.64-7.31,5.63-7.57,2.45-.21,4.71,.93,6.21,3.07,.65,.93,1.21,1.97,1.57,3.05,2.45,7.12,2.53,14.28,.21,21.45-.2,.62-.53,1.2-.85,1.77-1.66,2.95-4.44,3.1-5.89,.05-1.88-3.95-3.51-8.06-4.84-12.24-1.03-3.22-1.44-6.65-2.04-9.58Z"/>
          <path class="cls-5" d="M167.46,200.79c0,.49,.05,.99,0,1.48-.35,3.09-1.28,4-4.39,3.88-1.41-.05-3.07-.19-4.17-.95-3.73-2.58-7.38-5.31-10.83-8.26-2.37-2.02-2.97-6.25-1.68-8.49,1.37-2.39,5.84-4.68,8.42-3.88,3.21,1.01,6.35,2.21,8.24,5.52,1.94,3.4,4.32,6.55,4.43,10.7Z"/>
          <path class="cls-5" d="M68.5,238.86c-.02,3.44,.23,6.91-.14,10.32-.3,2.69-1.01,5.47-2.19,7.87-1.61,3.28-5.59,4.34-8.77,2.91-3.61-1.62-5.32-4.98-3.87-8.71,1.4-3.6,3.38-6.98,5.1-10.45,1.09-1.78,2.06-3.65,3.6-5.09,1.42-1.33,3.14-1.61,4.87-.76,1.61,.79,2.45,2.05,1.4,3.9Z"/>
          <path class="cls-5" d="M157.72,46.82c-.4,.63-.7,1.72-1.2,1.82-2.66,.52-5.14,0-7.26-1.88-1.94-1.72-4.13-3.19-5.87-5.09-1.38-1.51-2.7-3.36-3.24-5.29-.93-3.33,.62-6.15,3.54-7.77,3.78-2.09,6.3-1.86,9.19,1,1.36,1.35,2.54,2.88,3.8,4.32,2.76,4.1,3.47,8.37,1.04,12.9Z"/>
          <path class="cls-1" d="M70.41,131.74c-.41,3.77-.68,6.86-1.16,9.91-.07,.44-1.45,1.16-1.78,.97-1.65-.96-3.53-1.9-4.64-3.37-2.86-3.79-4.91-8.05-5.93-12.77-.7-3.25,.24-5.88,2.73-7.9,2.56-2.07,6.07-1.25,7.88,1.57,2.41,3.77,1.86,8.19,2.9,11.58Z"/>
          <path class="cls-5" d="M172.36,218.99c5.64-.96,8.72,2.41,11.15,6.79,1.77,3.18,3,6.55,2.57,10.29-.13,1.11-.44,2.21-.82,3.27-.59,1.65-1.76,1.84-3.07,.89-1.7-1.25-3.5-2.43-4.92-3.97-2.74-2.99-5.24-6.2-7.85-9.32-2.1-4.94-1.68-6.09,2.92-7.94Z"/>
          <path class="cls-5" d="M174.67,60.89c-.43,1.87-.6,3.85-1.34,5.59-1.05,2.48-2.6,2.79-4.46,.97-1.49-1.46-2.83-3.13-3.93-4.9-1.69-2.73-3.29-5.54-4.58-8.47-1.06-2.41,.14-5.39,2.23-6.73,1.73-1.1,4.98-.72,6.74,.81,3.86,3.34,5.16,7.71,5.34,12.74Z"/>
          <path class="cls-1" d="M185.11,322.8c.12-.35,.37-1.46,.84-2.47,1.71-3.67,3.12-7.55,5.34-10.88,2.25-3.39,4.96-3.06,7.52,.1,1.05,1.29,1.36,2.68,.67,4.09-2.66,5.39-6.22,9.89-12.24,11.72-1.8,.55-2.21,.2-2.13-2.56Z"/>
        </g>
        <g>
          <path d="M.05,282.72c0-6.16,.12-12.33-.04-18.49-.13-5.26,.8-10.26,2.85-15.08,3.09-7.25,4.8-14.64,5.01-22.7,.52-20.15,7.89-37.59,22.79-51.57,5.43-5.09,11.52-9.16,18.63-11.27,3.04-.9,3.35-2.46,2.5-4.64-.7-1.79-1.99-3.39-3.22-4.91-3.45-4.26-7.04-8.41-10.5-12.66-5.88-7.22-7.32-15.59-5.68-24.49,.69-3.75-.17-6.82-1.99-9.96-2.59-4.46-5.13-8.96-7.46-13.56-2.68-5.3-3.66-10.99-3.5-16.94,.1-3.65-.14-7.32-.35-10.98-.58-10.18,2.07-19.52,7.68-27.92,8.27-12.38,18.34-22.77,32.36-28.82,8.7-3.75,17.72-3.96,26.95-3.8,5.43,.1,11.02-.23,16.28-1.47C117.32-.05,132.32-.95,147.5,1.03c7.04,.92,13.64,3.49,19.44,7.45,7.69,5.24,15.45,10.57,22.28,16.83,12.74,11.68,17.61,26.73,16.04,43.84-.25,2.77-.97,5.69-2.25,8.13-4.61,8.8-8,18.31-15.06,25.72-4.84,5.08-6.73,11.38-6.54,18.34,.04,1.5-.06,3-.08,4.5-.08,7.56-2.54,13.98-8.6,18.85-3.63,2.92-7.12,6.03-10.6,9.13-.96,.85-1.96,1.87-2.41,3.02-1,2.54-.28,3.56,2.46,4.07,.65,.12,1.36,.02,1.98,.22,8.13,2.69,14.48,8.12,20.6,13.77,6.4,5.92,10.02,13.26,9.59,22.19-.15,3.02,1.22,4.91,3.55,6.65,3.46,2.59,6.97,5.22,9.94,8.32,5.7,5.97,8.39,13.15,6.81,21.5-.99,5.21,.21,9.14,3.93,13.47,10.6,12.33,17.12,26.54,15.78,43.39-.17,2.15-.45,4.32-1.03,6.39-4.63,16.76-10.34,33.02-20.88,47.2-6.31,8.5-14.02,14.97-23.78,19.22-15.29,6.66-31.15,10.54-47.85,11.13-9.49,.34-18.96,1.05-28.44,1.67-10.69,.7-20.5-1.51-29.04-8.32-4.6-3.68-9.71-5.02-15.79-4.67-7.26,.41-14.66-.07-21.89-.98-13.07-1.64-23.85-8.1-32.83-17.54-5.93-6.24-9.09-13.78-9.76-22.44m105.84,46.19c12.95-.98,25.89-2.09,38.85-2.92,12.65-.81,24.46-4.52,36-9.51,9.97-4.31,17.42-11.25,23.6-20.1,8.68-12.43,13.03-26.49,16.76-40.87,1.9-7.32,1.16-14.51-1.38-21.59-2.77-7.75-6.28-15.18-11.77-21.3-4.74-5.28-5.74-11.13-4.47-17.62,1.19-6.08-.58-11.27-4.48-15.7-2.4-2.72-5.12-5.36-8.18-7.25-5.28-3.25-8.18-7.53-8.42-13.77-.25-6.84-3.3-12.55-8.11-17.21-3.82-3.69-7.9-7.14-12.09-10.41-3.17-2.48-6.78-3.99-11.04-4-4.14-.01-6.31-2.64-6.21-6.81,.09-3.74,1.78-6.68,4.78-8.9,1.18-.87,2.44-1.7,3.39-2.78,3.07-3.5,5.75-7.37,9.06-10.6,4.12-4.02,6.05-8.73,5.85-14.32-.44-11.76,4.14-21.34,12.33-29.49,1.63-1.62,3.25-3.45,4.22-5.5,2.55-5.42,4.86-10.95,6.99-16.55,.87-2.28,1.58-4.89,1.38-7.26-1.05-12.07-4.34-23.44-13.99-31.56-6.6-5.55-13.74-10.51-20.97-15.23-4.87-3.19-10.39-5.16-16.3-5.9-13.39-1.69-26.59-.56-39.7,2.27-6.39,1.38-12.73,2.04-19.31,1.15-13.46-1.83-25.49,1.92-35.63,10.89-10.8,9.56-19.75,20.45-21.25,35.56-.59,5.94-.51,11.95-.64,17.94-.03,1.14,.15,2.38,.61,3.42,2.62,5.91,4.86,12.06,8.18,17.55,3.75,6.2,5.31,12.44,3.98,19.51-.98,5.2,.24,9.91,3.42,14.11,3.41,4.51,6.78,9.07,10.32,13.48,6.43,8.01,5.49,17.93-2.49,24.42-4.65,3.78-9.46,7.37-14.05,11.22-13.48,11.32-19.41,26.47-20.6,43.44-.62,8.82-1.89,17.13-6.3,24.85-2.11,3.69-2.89,7.68-2.88,11.97,.02,19.15-.17,38.29,2.65,57.34,1.02,6.9,3.33,12.96,8.16,17.79,6.43,6.43,13.95,11.4,22.87,13.71,8.23,2.13,16.61,3.89,25.16,3.15,7.82-.68,14.49,1.71,20.38,6.47,6.28,5.08,13.22,7.59,21.34,6.92Z"/>
          <path d="M74.87,276.52c-.01-11.22,3.57-21.19,10.06-30.27,2.11-2.95,3.88-6.21,5.35-9.53,4.76-10.75,12.92-17.09,24.35-19.34,5.7-1.12,10.48,.63,14.51,4.75,4.65,4.76,9.41,9.41,13.99,14.24,1.82,1.92,3.68,3.98,4.8,6.33,4.86,10.1,8.71,20.59,9.08,31.94,.11,3.42-.75,6.91-1.42,10.31-.35,1.77-1.33,3.4-1.93,5.13-6.11,17.63-19.48,25.22-37.14,27.06-7.2,.75-14.26,1.09-21.04-2.19-4.43-2.14-8.26-4.9-11.1-9.01-6.12-8.87-9.57-18.56-9.51-29.41Zm8.42,1.8c0,5.3,2.21,16.35,4.64,21.31,.67,1.37,1.98,2.67,3.31,3.45,14.08,8.11,28.4,8.13,42.84,.95,1.02-.51,2.09-1.15,2.82-2.01,7.63-8.93,12.24-18.85,10.4-31.02-1.28-8.51-5.02-16.14-8.24-23.96-.55-1.33-1.64-2.51-2.68-3.56-4.67-4.73-9.43-9.36-14.13-14.07-2.38-2.38-4.99-2.87-8.19-1.74-6.61,2.32-11.41,6.51-14.7,12.7-2.25,4.24-4.76,8.35-7.44,12.33-5.24,7.78-8.27,16.22-8.63,25.6Z"/>
          <path d="M137.78,85.23c-.96,6-2.21,13.19-3.24,20.41-1.18,8.25-9.95,15.83-20.8,14.55-3.46-.41-6.94-.77-10.42-.92-6.87-.3-12.9-2.98-18.62-6.47-4.13-2.52-6.38-6.4-6.39-11.22-.01-4.31,.36-8.63,.79-12.92,.56-5.62,1.3-11.22,2.04-16.82,.17-1.31,.57-2.6,.99-3.86,3.17-9.57,17.31-19.82,26.37-19.16,15.49,1.13,25.27,9.09,27.64,22.7,.71,4.09,.99,8.25,1.63,13.72Zm-9.3-.85c-.53-4.61-.76-8.28-1.42-11.87-.84-4.56-3.12-8.4-6.87-11.25-10.33-7.86-26.23-1.97-29.74,11.23-1.44,5.44-2.2,11.08-3.05,16.67-.6,3.93-1.14,7.92-1.16,11.88-.02,4.3,4.56,9,8.34,9.18,6.13,.29,12.26,.6,18.39,.86,6.97,.29,11.18-2.61,12.65-9.41,1.3-5.99,2.01-12.1,2.85-17.3Z"/>
          <path d="M214.22,292.11c-.56,4.48-.73,8.24-4.5,10.32-.54,.3-1.35,.6-1.82,.4-.38-.16-.77-1.22-.59-1.64,1.43-3.28-.28-6.16-1.02-9.15-.88-3.55-1.88-7.06-2.75-10.61-.94-3.83-.18-5.89,2.35-6.69,2.55-.81,5.25,.82,6.1,4.42,1.07,4.51,1.6,9.15,2.23,12.94Z"/>
          <path d="M64.25,243.23c.27-1.11,.78-2.21,1.41-3.16,1.35-2.06,3.41-2.7,5.66-1.92,2.4,.83,3.42,2.99,2.69,5.21-2.24,6.82-5.58,13.1-10.42,18.47-.37,.41-1.26,.72-1.72,.55-.38-.13-.58-1.03-.68-1.62-.11-.64-.03-1.32-.03-1.98"/>
          <path d="M65.44,139.28c-.79-.32-2.95-.54-4-1.74-2.91-3.32-5.45-6.99-7.93-10.67-.57-.84-.74-2.43-.34-3.36,.66-1.54,1.64-3.33,3.01-4.08,1.9-1.05,3.95-.12,5.12,1.79,.95,1.54,1.63,3.25,2.36,4.91,1.52,3.48,2.98,6.99,4.49,10.47,.92,2.12,.61,2.62-2.71,2.67Z"/>
          <path d="M172.18,195.28c-.02,.35,.08,1.21-.12,2-.42,1.63-1.4,2.17-2.91,1.13-3.26-2.25-6.54-4.48-9.77-6.78-2.39-1.71-3.13-4.68-1.86-7.03,1.23-2.28,4.09-3.17,6.98-2.17,4.34,1.5,7.65,6.84,7.68,12.85Z"/>
          <path d="M183.1,50.68c0,.83,.16,1.69-.03,2.47-.4,1.61-1.57,2.4-2.82,1.03-3.21-3.52-6.47-7.05-9.18-10.94-1.6-2.29-.4-5.13,1.82-6.42,2.17-1.26,5.14-.89,6.47,1.72"/>
          <path d="M191.19,226.24c-.1,.55-.38,1.97-1.12,2.37-.68,.36-2.02-.36-3.01-.77-2.12-.87-4.16-1.93-6.3-2.76-3.46-1.36-5.02-4.33-3.8-7.45,1.27-3.24,4.96-4.58,8.29-2.86,4.37,2.25,5.58,6.42,5.93,11.48Z"/>
          <path d="M164.36,34.22c-.06,.85-.05,1.69-.2,2.5-.33,1.86-1.38,2.23-2.68,.91-2.56-2.57-5.05-5.22-7.46-7.93-1.99-2.23-1.95-4.93-.1-6.68,1.85-1.75,5.25-1.6,7.17,.52,2.73,3.02,3.07,6.85,3.27,10.67Z"/>
          <path d="M45.44,74.95c0,.66,.24,1.46-.05,1.95-.66,1.15-1.48,2.89-2.42,3.02-1.08,.15-3.01-.9-3.46-1.91-2.01-4.54-2.14-9.3-.34-13.97,.3-.79,1.22-1.83,1.88-1.85,.69-.02,1.85,.93,2.06,1.66"/>
        </g>
      </g>
    </g>
  </g>
</svg>