<?xml version="1.0" encoding="UTF-8"?>
<svg xmlns="http://www.w3.org/2000/svg" viewBox="0 0 239.3 370.13">
  <defs>
    <style>
      .cls-1 {
        fill: #fedcb6;
      }

      .cls-2 {
        fill: #feddb7;
      }

      .cls-3 {
        fill: #eed28c;
      }
    </style>
  </defs>
  <g id="_лой_1" data-name="Слой 1"/>
  <g id="_лой_2" data-name="Слой 2">
    <g id="_лой_1-2" data-name="Слой 1">
      <g>
        <g>
          <path class="cls-3" d="M237.2,145.43c-1.34-6.51-.8-13.06-1.55-19.57-.99-8.53-.25-17.25-.24-25.89,0-1.15,.1-2.3,.18-3.45,.24-3.6,1.14-7.29,.62-10.77-1.46-9.72-4.62-18.93-9.93-27.32-1.12-1.78-2.05-3.72-2.81-5.68-2.85-7.41-7.87-13.23-13.63-18.4-4.87-4.37-10.1-8.35-15.16-12.52-4.05-3.34-7.83-7.08-12.15-10.01-10.07-6.82-21.27-10.59-33.51-10.48-6.38,.06-12.6,1.48-18.32,4.47-3.91,2.05-7.77,3.03-12.13,1.45-6.94-2.52-14.05-2.76-21.21-1.01-2.51,.61-5,1.32-7.5,1.99-7.58,2.02-14.72,5.04-21.5,9.06-5.37,3.19-10.03,7.35-15.19,10.75-10.47,6.91-16.74,16.59-21.14,28.08-3.49,9.12-4.48,18.64-5.63,28.11-.74,6.13-2.06,11.81-4.94,17.24-1.19,2.25-1.92,4.66-2.18,7.22,3.86,8.02,4.8,16.62,6.8,25.2,.63,2.68-.78,4.7-2.72,5.65-.07,3.14-.71,6.27-2.19,9.35-.92,1.92-1.98,3.77-2.88,5.7-4.51,9.74-1.95,18.93,3.48,28.05,4.48,7.52,11.22,13.16,18.66,18,7.44,4.84,14.56,6.68,22.79,9.85,7.51,2.9,13.08,3.7,20.69,2.89,8.35-.89,15.4-2.83,23.12-6.44,4.94-2.31,10.06-4.48,15.64-4.07,4.58,.33,11.02,1.63,15.37-.39,1.58-.73,4.28-1.88,6.04-2.1,2.77-.34,4.13,2.23,4.58,5.12,.6,3.9,.74,8.01,1.2,12.09,.55,6.26-.48,12.82-2.63,18.53-2.4,6.4-5.74,12.56-9.2,18.53-4.49,7.74-10.14,15.46-16.55,21.68-3.13,3.03-7.93,4.21-12.14,5.12-4.23,.91-8.09,2.33-11.33,5.35-5.16,4.81-11.84,5.08-17.61,3.11-8.08-2.76-13.97-8.84-17.4-17.04-3.04-7.25-8.28-12.34-15.66-15.39-6.88-2.84-13.99-2.98-21.23-2.98-4.92,0-8.78,1.83-12.36,5-8.48,7.5-11.83,17.52-13.32,28.15-1.32,9.43,1.5,18.6,5.74,27.22,1.28,2.59,1.13,5.43,2.11,8.17,1.26,3.52,3.38,6.53,6.25,9.26,4.31,4.09,8.41,8.95,11.96,13.75,3.2,4.33,6.3,6.07,12,6.33,2.35,.11,5.86,1.33,7.97,2.43,7.82,4.06,15.24,7.24,23.47,10.42,8.7,3.37,16.74,5.26,26.15,3.68,11.66-1.96,20.75-7.1,28.75-15.39,6.47-6.93,14.4-12.1,22.55-16.09,7.18-3.52,12.42-9.38,17.28-15.77,5.57-7.32,11.21-14.64,18.09-20.88,2.82-2.56,5.37-5.43,8.1-8.09,6.1-5.96,10.23-13.25,13.46-20.98,4.59-10.94,7.44-22.46,10.08-34,1.96-8.61,5.02-16.81,8.96-24.67,2.78-5.55,5.73-11.02,8.68-16.49,3.94-7.32,5.63-15.33,6.16-23.43,.6-9.21,.84-18.58-1.03-27.66Zm-87.49-49.36c-1.41,2.15-2.74,3.96-4.69,5.66-1.86,1.62-4.21,2.92-5.54,5.05-1.15,1.85-1.54,4.11-2.75,5.96-1.28,1.94-3.05,3.31-4.84,4.73-2.28,1.81-4.31,3.21-5.31,6.03-.9,2.54-1.12,5.19-2.31,7.66-4.08,8.45-13.16,9.4-21.42,10.48-4.36,.57-8.75,1.65-12.95-.29-4.08-1.88-6.09-5.85-7.03-10.07-.7-3.19-.95-6.26-2.16-9.35-1.02-2.62-2.3-5.1-2.9-7.87-.95-4.44-1.62-9.92-.33-14.33,1.55-5.32,4.99-9.69,9.42-12.5-.49-2.32,.47-4.84,3.47-5.47,2.78-.58,4.98-2.56,7.48-3.83,2.84-1.45,5.97-2.72,9.05-3.57,5.76-1.59,11.94-3.22,17.9-3.78,9.65-.91,24.49,3.11,28.69,12.96,2.08,4.88-1.18,8.6-3.75,12.52Z"/>
          <path class="cls-1" d="M84.55,56.1c.5,0,.99-.03,1.49,0,2.01,.15,2.66,1.36,1.44,2.9-3.04,3.83-6.18,7.58-9.27,11.36-2.88,3.53-5.67,7.14-8.68,10.57-1.38,1.58-3.04,3.02-4.82,4.11-2.66,1.64-5.9,1.39-7.63-.7-1.53-1.85-2.36-4.15-.99-6.6,.94-1.68,1.62-3.59,2.88-4.97,5.55-6.03,11.47-11.69,19.06-15.15,2.01-.92,4.23-1.38,6.35-2.06l.17,.52Z"/>
          <path class="cls-2" d="M141.18,157.84c-4.34-.01-5.22-.92-4.31-4.08,.62-2.15,1.6-4.26,2.76-6.18,2.26-3.75,4.72-7.38,7.19-11,.74-1.08,1.68-2.07,2.69-2.91,2.54-2.11,6.59-2.45,8.62-.84,2.52,1.99,3.41,5.67,2.15,8.88-.12,.3-.3,.59-.51,.84-4.66,5.51-9.08,11.31-15.79,14.56-1.13,.55-2.48,.64-2.79,.72Z"/>
          <path class="cls-1" d="M27.03,303.42c.41-1.01,.81-2.42,1.54-3.64,.89-1.49,2.11-1.67,3.75-.73,5.92,3.4,8.54,9.11,10.73,15.09,.61,1.67-1.41,5.58-2.84,6.22-2.65,1.17-6.06,.28-8.01-2.07-2.23-2.68-3.46-5.78-4-9.21-.27-1.74-.71-3.46-1.17-5.66Z"/>
          <path class="cls-1" d="M70.01,181.25c.17,2.22-.16,3.57-2.21,4.69-2.01,1.1-3.54,.7-4.98-.28-3.41-2.32-5.46-5.6-5.71-9.81-.11-1.82-.11-3.66,.03-5.47,.07-.85,.47-2.29,.93-2.38,1-.19,2.45-.04,3.16,.6,2.08,1.86,4.16,3.84,5.72,6.13,1.39,2.03,4.31,3.56,3.05,6.52Z"/>
          <path class="cls-1" d="M96.14,347.32c-4.19,.51-8-1.08-11.02-4.45-.63-.71-.62-1.99-.91-3.01,.9-.02,1.94-.36,2.67-.02,2.6,1.25,4.58-1.08,6.98-1,1.77,.06,3.54-.41,5.32-.49,1.97-.09,3.27,1.39,3.59,2.88,.34,1.63-.19,3.51-.65,5.2-.12,.45-1.36,.75-2.12,.84-1.14,.14-2.31,.04-3.86,.04Z"/>
          <path class="cls-1" d="M163.59,118.24c-.42-2.3,.62-3.89,2.48-4.99,1.37-.81,5.07-.45,6.01,.73,1.36,1.7,3.15,3.13,2.11,6.02-1.19,3.31-3.11,5.64-6.18,7.15-1.68,.83-3.03,.4-3.32-1.2-.46-2.55-.75-5.13-1.11-7.7Z"/>
          <path class="cls-1" d="M155.7,299.6c.45,1.98-.49,3.42-2.72,4.22-.88,.32-1.63,1.51-2.43,1.5-1.58-.02-3.06,2.38-4.48,.56-1.27-1.62,.7-2.96,1.22-4.42,.47-1.34,1.25-2.57,1.84-3.88,1.26-2.79,2.23-3.51,4.32-3.1,2.5,.49,2.26,2.44,2.26,4.26,0,.17,0,.33,0,.85Z"/>
          <path class="cls-1" d="M49.78,140.24c.48-1.86,.8-3.79,1.49-5.57,.43-1.12,2.19-1.11,2.73,0,1.13,2.32,2.2,4.69,3,7.14,.54,1.63-1.47,3.8-3.39,4.06-2.15,.28-3.27-.68-3.46-3.05-.07-.82-.01-1.65-.01-2.48l-.36-.09Z"/>
          <path class="cls-1" d="M29.22,289.62c-.03,3.13-.77,3.91-3.66,3.84-2.34-.05-4.45-1.9-4.29-3.75,.2-2.2,2.85-5.27,4.52-5.22,1.96,.06,3.45,2.29,3.42,5.13Z"/>
        </g>
        <g>
          <path d="M148.53,215.8c-.36-3.64-.68-7.28-1.08-10.91-.3-2.7-1.74-3.88-4.47-2.96-7.99,2.7-16.2,3.29-24.6,3.39-3.63,.04-7.32,2.05-10.85,3.47-10,4.01-20.33,6.4-31.13,6.31-2.97-.03-6.04-.29-8.88-1.1-16.72-4.78-32.28-11.54-43.63-25.62-9.45-11.73-11.49-24.19-4.16-37.57,3.84-7.02,4.28-14.05,2.5-21.71-1.46-6.29-2.32-12.75-2.9-19.19-.24-2.68,.31-5.86,1.63-8.18,4.53-7.96,5.41-16.68,6.32-25.47,1.03-9.84,3.44-19.3,7.71-28.29,3.5-7.37,8.31-13.62,14.81-18.56,3.71-2.82,7.43-5.64,11.18-8.41,12.03-8.87,25.56-14.19,40.21-16.73,6.18-1.07,12.28-.34,18.24,1.62,3.08,1.01,6,1.23,9.16-.31,20.94-10.21,40.17-5.7,58.03,7.5,7.09,5.24,13.65,11.19,20.36,16.93,8.04,6.87,14.57,14.64,18.86,24.7,3.17,7.43,7.66,14.33,9.71,22.31,1.5,5.87,1.59,11.74,1.35,17.8-.46,11.3-.4,22.65,.03,33.96,.49,12.96,2.03,25.89,2.34,38.85,.27,10.95-2.17,21.59-7.79,31.14-9.21,15.66-15.63,32.3-19.22,50.12-1.08,5.36-3.07,10.54-4.78,15.76-3.96,12.09-10.34,22.69-19.59,31.49-8.47,8.05-16.34,16.63-23.04,26.24-4.88,7-11.55,11.97-18.98,15.91-6.71,3.55-12.56,8.06-17.78,13.56-8.97,9.45-19.71,15.66-32.8,17.69-7.45,1.16-14.7,.67-21.61-2.1-8.79-3.52-17.34-7.65-26.06-11.37-2.87-1.22-5.88-2.46-8.93-2.85-5.44-.7-9.77-2.98-13.32-7.07-4.03-4.65-8.29-9.11-12.16-13.89-1.74-2.15-3.04-4.75-4.12-7.32-1.92-4.59-3.33-9.39-5.29-13.96-5.67-13.26-4.72-26.39,.85-39.29,6.56-15.18,16.8-20.35,33.35-17.57,12.2,2.05,21.31,7.86,26.11,19.79,2.87,7.13,8.63,12.04,15.45,14.93,5.58,2.36,11.88,2.38,17.14-1.57,4.62-3.47,9.6-5.75,15.18-7.25,2.91-.78,5.83-2.57,8.08-4.63,14.58-13.35,23.21-30.21,28.15-49.13,.46-1.75,.48-3.63,.52-5.46,.04-1.66-.17-3.32-.27-4.99l.15-.02Zm14.12,91.5l-.63-1c4.17-3.57,8.34-7.14,12.51-10.71,13.78-11.79,22.28-26.73,26.53-44.24,.55-2.26,1.37-4.47,1.85-6.74,3.55-16.59,9.63-32.19,18.09-46.88,4.15-7.2,6.52-15.08,7-23.26,.47-7.95-.06-15.97-.33-23.95-.2-5.82-1.18-11.64-.94-17.43,.55-12.97,1.55-25.92,2.54-38.86,.87-11.36-1.93-21.92-7.49-31.6-2.86-4.97-6.56-9.73-10.78-13.59-7.35-6.73-15.48-12.59-23.12-19.01-6.8-5.71-13.8-10.98-22.24-14.09-10.39-3.83-20.89-4.68-31.19-.28-5.89,2.51-11.52,3.03-17.45,.94-6.56-2.32-13.03-1.65-19.65-.01-15.05,3.73-27.93,11.4-39.99,20.86-6.2,4.86-11.31,10.59-13.78,17.99-2.57,7.69-4.56,15.65-6.02,23.63-1.59,8.69-2.67,17.41-6.92,25.4-1.02,1.91-1.18,4.53-1.02,6.77,.33,4.47,.66,9.05,1.88,13.33,3.08,10.79,2.18,20.94-2.79,31.03-3.96,8.04-2.55,15.99,2.62,23.11,5.46,7.53,12.29,13.58,20.89,17.39,4.57,2.02,9.08,4.31,13.84,5.7,4.56,1.32,9.4,2.1,14.15,2.28,8.62,.33,16.77-2.11,24.71-5.36,5.55-2.27,11.16-4.13,17.42-3.58,3.72,.33,7.57-.26,11.31-.78,2.62-.37,5.13-1.41,7.73-1.99,7.55-1.68,13.06,1.33,14.73,8.86,1.95,8.77,3.33,17.83,1.55,26.74-4.08,20.39-13.58,38.16-27.65,53.44-2.23,2.43-4.93,4.5-7.67,6.37-2.03,1.39-4.36,2.71-6.72,3.13-5.72,1.02-10.58,3.66-15.54,6.48-8.48,4.82-17.66,5.39-26.41,1.22-8.6-4.09-15.68-10.42-18.98-19.67-3.08-8.62-9.01-12.83-17.76-13.79-2.15-.24-4.29-.62-6.45-.76-4.98-.34-9.14,1.22-12.22,5.36-8.11,10.9-10.83,22.67-5.94,35.7,1.93,5.14,3.82,10.31,6,15.34,.97,2.23,2.44,4.33,4.02,6.2,3.12,3.68,6.63,7.02,9.68,10.75,2.36,2.89,5.25,4.27,8.79,5.18,4.3,1.1,8.48,2.75,12.59,4.47,8.59,3.58,17.04,7.51,25.68,10.96,2.71,1.08,5.84,1.42,8.79,1.5,12.13,.36,21.97-5.01,30.24-13.27,7.26-7.26,15.06-13.58,24.28-18.15,2.22-1.1,4.4-2.48,6.24-4.13,3.01-2.7,5.72-5.72,8.56-8.61-3.61,.04-6.06,3.23-10.52,1.36,2.84-4.59,5.23-9.13,8.29-13.15,2.22-2.91,5.51-2.1,7.14,1.25,.32,.66,.4,1.44,.58,2.17Z"/>
          <path d="M70.05,109.23c-.03-17.27,6.76-27.52,19.11-33.96,7.8-4.07,15.95-7.53,24.11-10.85,11.36-4.63,22.49-3.14,33.28,2.21,5.97,2.96,10.42,7.75,12.33,13.8,2.14,6.81-.1,13.51-4.5,19.19-1.41,1.82-3.19,3.41-5.01,4.84-4.84,3.78-8.36,8.47-10.82,14.09-4.48,10.21-10.68,19.1-19.81,25.84-10.31,7.62-21.27,7.59-32.65,3.24-3.84-1.47-7.18-4.06-8.53-7.99-3.73-10.85-6.47-21.96-7.51-30.41Zm56.75-37.44c-2.29,.37-4.77,.3-6.83,1.19-8.54,3.71-17.16,7.32-25.36,11.69-10.21,5.43-14.44,14.52-12.93,25.89,.94,7.08,2.77,14.04,4.17,21.05,.68,3.42,2.7,5.6,5.92,6.82,6.97,2.64,13.62,2.49,20-1.81,6.81-4.58,11.91-10.65,15.71-17.8,4.45-8.37,9.9-15.74,18.06-20.92,3.81-2.42,5.92-6.29,6.96-10.62,.26-1.1,.13-2.86-.57-3.53-7-6.74-14.8-11.92-25.12-11.96Z"/>
          <path d="M48.68,168.74c1.1,1.14,2.23,2.26,3.29,3.43,3.24,3.58,6.55,7.11,9.66,10.81,2.12,2.52,2.08,4.97,.3,6.74-1.76,1.75-4.68,1.89-6.73-.31-5.24-5.6-9.12-11.85-7.71-19.98l1.19-.69Z"/>
          <path d="M61.24,62.4c-.32,1.51-.42,3.11-1,4.51-1.5,3.66-3.05,7.32-4.88,10.82-1.23,2.37-3.57,2.98-6,1.98-2.46-1.01-2.92-3.4-2.02-5.45,2.61-5.93,7.35-9.69,12.77-12.62l1.12,.75Z"/>
          <path d="M44.52,146.11c4.14,3.98,7.26,8.56,9.51,13.66,.83,1.87,.57,4.07-1.66,5.14-2.52,1.21-4.64,.3-5.92-1.99-2.9-5.18-3.87-10.7-1.93-16.81Z"/>
          <path d="M23.85,310.62c.33-3.12,.33-5.16,.82-7.06,.42-1.62,2.17-2.18,2.96-.67,2.27,4.38,4.38,8.89,5.99,13.54,.67,1.92-.75,3.92-3.12,4.37-2.23,.42-4.19-.46-4.89-2.54-.95-2.79-1.35-5.76-1.77-7.64Z"/>
          <path d="M78.91,347.67c4.21,.38,8.43,.66,12.62,1.18,2.46,.31,3.91,1.97,3.61,4.48-.33,2.78-2.33,3.95-4.96,3.68-5.32-.55-8.96-3.61-11.62-7.99l.35-1.35Z"/>
          <path d="M134.17,149.82c.88-4.09,3.44-6.4,6.49-7.92,.98-.49,3.79,.47,4.08,1.33,.47,1.38,.08,3.76-.91,4.79-2.53,2.63-5.96,2.18-9.66,1.8Z"/>
          <path d="M23.94,288.21c.42,2.51,.94,4.59,1.07,6.7,.16,2.63-1.45,4.32-3.7,4.18-2.53-.15-3.22-1.9-3.36-4.05-.25-4.05,1.61-6.26,5.99-6.82Z"/>
        </g>
      </g>
    </g>
  </g>
</svg>