<?xml version="1.0" encoding="UTF-8"?>
<svg xmlns="http://www.w3.org/2000/svg" xmlns:xlink="http://www.w3.org/1999/xlink" viewBox="0 0 1337.37 381.85">
  <defs>
    <style>
      .cls-1 {
        fill: #ee91f6;
      }

      .cls-2 {
        fill: #14100f;
      }

      .cls-3 {
        fill: #91d1d7;
      }

      .cls-4 {
        fill: #100e0b;
      }

      .cls-5 {
        fill: #fafafe;
      }

      .cls-6 {
        fill: #13110e;
      }

      .cls-7 {
        fill: #171012;
      }

      .cls-8 {
        fill: #da1be9;
      }

      .cls-9 {
        fill: #151010;
      }

      .cls-10 {
        fill: #ee8ff6;
      }

      .cls-11 {
        fill: #0f0d0a;
      }

      .cls-12 {
        fill: #14130f;
      }

      .cls-13 {
        fill: #d3d3d6;
      }

      .cls-14 {
        filter: url(#outer-glow-1);
      }

      .cls-15 {
        fill: #191015;
      }

      .cls-16 {
        fill: #abe3e5;
      }

      .cls-17 {
        fill: #12100d;
      }

      .cls-18 {
        fill: #14150f;
      }

      .cls-19 {
        fill: #13120e;
      }

      .cls-20 {
        fill: #13100e;
      }

      .cls-21 {
        fill: #70f167;
      }

      .cls-22 {
        fill: #b9f1b5;
      }

      .cls-23 {
        fill: #baf2b6;
      }

      .cls-24 {
        fill: #0e0c09;
      }

      .cls-25 {
        fill: #aae2e4;
      }
    </style>
    <filter id="outer-glow-1" filterUnits="userSpaceOnUse">
      <feOffset dx="0" dy="0"/>
      <feGaussianBlur result="blur" stdDeviation="17.01"/>
      <feFlood flood-color="#7ead79" flood-opacity=".85"/>
      <feComposite in2="blur" operator="in"/>
      <feComposite in="SourceGraphic"/>
    </filter>
  </defs>
  <g id="_лой_1" data-name="Слой 1"/>
  <g id="_лой_2" data-name="Слой 2">
    <g id="_лой_1-2" data-name="Слой 1">
      <g class="cls-14">
        <g>
          <path class="cls-17" d="M1337.37,53.14c-11.05,19.43-29.74,25.76-50.1,27.59-16.21,1.46-32.62,.8-48.94,.95-6.83,.07-13.66-.35-20.49-.19-2.75,.07-5.58,.84-8.2,1.77-6.24,2.23-9.9,6.81-10.18,13.44-.42,9.81-.49,19.64-.55,29.46-.01,1.78,.54,3.64,1.18,5.34,3.89,10.31,3.93,20.84,1.91,31.49-2.11,11.11-4.16,22.23-6.46,33.29-1.38,6.66-1.37,13.18,.41,19.76,1.61,5.94,2.99,11.94,4.39,17.93,2.21,9.46,.9,18.94-.37,28.33-1.88,14-1.63,27.83,1.01,41.74,3.25,17.11,1.52,33.73-5.75,49.78-5.51,12.15-14.87,18.76-27.65,21.26-11.64,2.28-22.94,.82-33.85-3.3-12.96-4.9-19.78-15.37-23.21-28.14-1.46-5.41-2.13-11.15-2.27-16.76-.32-12.65-.78-25.36,.15-37.95,.75-10.23,3.19-20.36,5.31-30.44,3.61-17.16,5.67-34.47,6.33-51.99,.37-9.92-1.25-19.58-2.91-29.26-2.94-17.09-2.58-34.14,.64-51.17,.9-4.74,1.83-9.51,2.16-14.31,.26-3.94-.03-7.99-.67-11.9-.67-4.08-3.06-7.33-6.67-9.54-3.97-2.43-7.9-4.93-11.96-7.19-.98-.55-2.51-.67-3.6-.35-4.76,1.38-9.58,2.7-14.16,4.58-13.79,5.66-28.2,7.55-42.94,7.75-8.01,.11-15.99,.14-23.86-1.72-12.76-3.01-23.34-9.77-31.65-19.66-6.08-7.24-8.91-16.13-7.57-25.59,1.46-10.3,8.1-17.29,16.95-22.12,3.91-2.13,8.13-3.72,12.3-5.33,9.28-3.58,18.59-7.11,27.95-10.49,8.84-3.19,18.08-4.71,27.41-4.85,19.15-.28,38.32-.42,57.46-.03,13.64,.28,27.25,2.03,40.88,2.18,11.79,.13,23.59-1.09,35.39-1.65,13.97-.66,27.95-1.25,41.92-1.88,5.82-.26,11.64-.54,17.47-.8,13.22-.58,26.41-.07,39.06,4.02,18.45,5.96,32,17.97,40.7,35.32,1.22,2.44,2.03,5.08,3.03,7.63v3Zm-218.64,253.05c.9,10.43,1.12,20.97,2.91,31.24,1.64,9.38,6.02,17.78,15.67,21.73,9.47,3.88,19.28,4.9,29.35,2.65,8.01-1.79,13.93-6.09,16.87-14,.58-1.56,1.29-3.06,1.89-4.61,5.21-13.35,4.46-27.06,2.52-40.87-1.44-10.23-2.37-20.48-.87-30.83,.95-6.58,1.43-13.22,2.13-19.84,.96-9.11-.7-17.91-3.34-26.56-3.31-10.85-4.42-21.71-1.6-32.92,2.47-9.82,4.28-19.8,6.57-29.67,2.33-10.02,3.31-19.99-.03-29.99-.36-1.09-.51-2.29-.51-3.44,.02-10.33-.28-20.68,.26-30.98,.71-13.61,7.29-21.72,20.03-25.4,3.47-1,7.19-1.57,10.8-1.57,7.48,0,14.97,.72,22.45,.72,8.82,0,17.64-.41,26.46-.74,6.65-.24,13.3-.54,19.93-.98,11.97-.81,22.56-5.46,32.27-12.21,6.12-4.25,6.74-6.76,3.09-13.41-7.61-13.87-19.86-22.29-34.42-27.19-13.76-4.63-28.18-4.26-42.53-3.81-9.48,.3-18.97,.18-28.46,.25-3.32,.02-6.64-.12-9.94,.11-10.62,.74-21.23,2.29-31.85,2.29-15.13,0-30.25-1.06-45.38-1.75-5.15-.23-10.29-.96-15.43-1.02-18.49-.21-36.98-.26-55.47-.28-3.65,0-7.41-.06-10.92,.76-7.58,1.77-15.13,3.79-22.51,6.26-10.23,3.43-20.49,6.88-30.36,11.2-14.79,6.48-19.18,21.54-10.06,34.75,7.48,10.84,18.35,17.5,31.21,19.86,15.89,2.91,31.86,.95,47.63-1.67,7.67-1.28,15.14-3.7,22.72-5.53,2.87-.7,5.97-.76,8.65-1.87,7.83-3.25,15.13-2.12,21.76,2.58,9.86,6.99,13.4,17.12,12.53,28.79-.45,6.11-1.54,12.21-2.8,18.21-3.27,15.47-3.7,31.01-1.71,46.66,1.11,8.73,2.76,17.44,3.09,26.2,.77,20.56-2.22,40.81-6.49,60.88-3.22,15.14-6.66,30.26-6.11,45.99Z"/>
          <path class="cls-17" d="M850.3,0c4.71,0,9.43,0,14.14,.01,14.61,.95,28.39,4.88,41.79,10.75,10.69,4.68,19.28,11.83,26.53,20.67,10.43,12.73,16.26,27.37,16.96,43.92,.24,5.65,.9,11.32,.61,16.94-.54,10.17-5.21,18.85-11.38,26.65-4.74,5.99-14.5,7.81-21.43,4.47-5.4-2.59-9.61-6.56-12.74-11.63-1.75-2.82-3.65-5.64-4.82-8.71-3.04-7.97-9.46-12.81-16.11-17.04-6.43-4.09-14-5.16-21.66-4.38-5.47,.55-10.98,.97-16.37,1.98-7.69,1.45-14.89,.23-21.91-2.85-6.76-2.96-13.66-4.93-21.2-4.96-18.87-.08-36.77,9.25-43.48,28.71-4.68,13.57-5.88,27.17-2.97,41.2,1.25,6.04,4.33,10.98,8.66,15.38,11.69,.1,23.1-1.43,33.92-6.5,11.73-5.5,23.72-10.47,35.39-16.08,9.36-4.5,19.03-4.3,28.84-3.06,19.43,2.46,37.1,10.18,52.74,21.32,23.54,16.78,36.53,39.48,34.21,69.59-.8,10.41,.07,20.94,.2,31.42,.16,12.32,.53,24.65,.46,36.97-.06,9.48-.52,18.97-1.08,28.44-.4,6.71-3.39,12.42-7.83,17.43-4.47,5.05-9.61,9.25-15.67,12.19-10.3,5-20.67,9.84-31.03,14.73-8.54,4.03-17.43,6.44-26.99,6.01-8.85-.4-17.58,.77-26.37,1.8-20.61,2.42-41.12,2.21-61.51-2.84-5.82-1.44-12.37-1.41-18.33-.46-15.47,2.49-30.11,.32-44.5-5.42-8.79-3.51-17.67-6.81-26.64-9.82-17.93-6.02-28.58-18.67-34.01-36.32-3.51-11.41-2.8-22.73,1.06-33.84,3.58-10.32,11.11-17.2,20.65-22.02,11.78-5.96,24.19-8.21,37.31-5.99,5.08,.86,10.25,1.32,15.24,2.56,11.56,2.88,19.53,10.26,24.79,20.78,1.71,3.42,3.49,6.8,5.27,10.18,5.54,10.46,15.09,13.94,26.06,14.64,4.81,.31,9.66,.07,14.5,.04,7.66-.04,14.81,1.83,21.46,5.62,3.18,1.81,6.33,3.67,9.55,5.41,5.17,2.78,10.62,3.57,16.42,2.39,10.15-2.07,19.57-5.32,26.14-14.08,3.66-4.88,6.28-10.09,7.16-16.23,.82-5.76,2.56-11.18,5.54-16.39,3.27-5.73,6.36-11.92,7.69-18.3,1.87-8.92-.35-17.67-6.5-24.73-2.98-3.41-7.56-4-11.98-4.06-5.33-.07-10.66-.03-15.99-.07-6.18-.05-11.53-2.14-15.26-7.16-3.67-4.94-8.53-6.45-14.38-6.43-17.41,.04-34.51,2.06-51.27,6.97-21.47,6.28-42.74,5.43-63.59-2.73-10.16-3.98-19.37-9.71-27.07-17.47-9.73-9.81-13.14-22.49-15.12-35.65-3.45-22.87-.12-45.12,6.44-67.04,2.95-9.86,5.9-19.71,8.8-29.58,.37-1.26,.76-2.64,.63-3.91-1.66-15.66,5-27.71,16.25-37.81,14.72-13.22,31.66-19.18,51.46-15.78,5.91,1.01,11.81,2.04,17.7,3.17,9.88,1.89,19.66,.24,29.27-1.49,9.45-1.7,18.68-4.6,28-6.99,5.79-1.48,11.57-3,17.35-4.49Zm-169.38,148.03c.54,5.96,.82,11.96,1.67,17.87,1.74,12.13,5.71,23.24,15.54,31.45,15.3,12.75,33.07,18.74,52.78,19.61,9.47,.42,18.4-2.09,27.44-4.38,10.29-2.6,20.69-4.9,31.16-6.63,7.19-1.19,14.57-1.27,21.87-1.68,8.36-.48,15.88,1.29,21.34,8.38,1.81,2.36,4.36,3.52,7.38,3.62,6.65,.2,13.31,.32,19.95,.72,7.11,.43,13.79,2.88,17.68,8.89,8.07,12.48,10.94,25.73,4.28,40.16-4.22,9.15-7.82,18.57-8.82,28.9-.68,7.05-4.11,13.31-9.47,18.27-9.08,8.41-19.87,13.25-32.03,14.96-4.07,.57-8.27,.69-12.38,.45-6.56-.38-11.89-4.09-17.25-7.41-7.47-4.62-15.45-6.82-24.23-6.29-3.65,.22-7.34,.29-10.99,.08-14.29-.82-26.22-5.86-33.42-19.14-1.66-3.07-3.29-6.18-5.19-9.1-1.99-3.05-4.08-6.09-6.49-8.8-5.3-5.94-12.63-7.66-20.05-9.18-13.97-2.86-27.47-1.95-40.32,4.71-7.01,3.63-12.79,8.52-15.8,16-9.79,24.3,3.87,49.62,23.76,57.52,13.75,5.46,27.73,10.31,41.63,15.38,8.33,3.04,16.82,3.21,25.58,2.04,8.55-1.15,17.24-2.22,25.79,.18,8.56,2.41,17.25,3.5,26.13,3.35,8.49-.14,17.03,.29,25.48-.37,12.41-.96,24.7-3.88,37.25-1.72,.8,.14,1.66,0,2.49-.11,7.15-.92,13.99-2.93,20.48-6.04,9.59-4.59,19.21-9.14,28.65-14.04,8.63-4.48,16.19-10.28,18.32-20.51,1.11-5.35,1.75-10.86,1.96-16.32,.37-9.65,.38-19.33,.29-28.99-.06-6.31-.64-12.62-.88-18.94-.33-8.64-.62-17.28-.82-25.93-.19-8.13,.58-16.37-.52-24.36-2.63-19.19-12.78-34.34-28.55-45.05-10.54-7.16-21.94-13.25-34.31-17.08-16.14-4.99-31.82-7.04-47.78,1.88-11.41,6.38-23.89,10.87-35.97,16.03-7.28,3.12-14.93,4.81-22.89,3.79-2.88-.37-6.24-.93-8.36-2.65-5.83-4.73-10.83-10.33-12.9-17.89-3.77-13.69-2.89-27.35,.61-40.91,2.3-8.91,5.58-17.44,11.73-24.52,13.08-15.06,30.3-18.45,48.98-16.52,5.67,.58,11.1,3.3,16.68,4.85,3.49,.97,7.11,2.35,10.61,2.2,6.95-.3,13.86-1.63,20.8-2.37,17.24-1.84,32.04,2.03,41.44,18.12,2.6,4.45,5.12,8.95,7.49,13.52,2.51,4.83,5.83,8.91,10.36,11.93,4.2,2.79,9.76,2.3,13.13-1.49,4.59-5.15,8.02-11,9.29-17.93,1.6-8.69-.22-17.18-1.05-25.79-1.48-15.39-8.89-27.67-18.8-38.82-4.81-5.41-10.54-9.6-17.07-12.81-12.23-6.02-25.15-9.33-38.63-11.09-9.18-1.2-17.88-.16-26.5,2.89-3.91,1.38-7.92,2.5-11.88,3.74-14.23,4.48-28.79,7.29-43.71,6.56-8.59-.42-17.18-1.96-25.63-3.67-8.36-1.69-16.65-1.44-24.78,.23-12.02,2.47-21.62,9.43-29.22,18.84-6.94,8.59-10.42,18.4-8.15,29.7,.35,1.73,.15,3.68-.25,5.43-1.58,6.79-3.24,13.57-5.07,20.29-5,18.34-9.28,36.78-9.85,55.97Z"/>
          <path class="cls-21" d="M1118.73,306.19c-.55-15.73,2.89-30.85,6.11-45.99,4.27-20.07,7.26-40.32,6.49-60.88-.33-8.76-1.98-17.48-3.09-26.2-1.99-15.65-1.55-31.18,1.71-46.66,1.27-6,2.35-12.1,2.8-18.21,.87-11.67-2.68-21.8-12.53-28.79-6.63-4.7-13.92-5.84-21.76-2.58-2.68,1.11-5.78,1.18-8.65,1.87-7.58,1.83-15.05,4.26-22.72,5.53-15.77,2.63-31.74,4.59-47.63,1.67-12.86-2.36-23.73-9.02-31.21-19.86-9.11-13.22-4.73-28.27,10.06-34.75,9.87-4.32,20.13-7.77,30.36-11.2,7.38-2.47,14.93-4.49,22.51-6.26,3.51-.82,7.27-.76,10.92-.76,18.49,.02,36.98,.07,55.47,.28,5.15,.06,10.28,.78,15.43,1.02,15.12,.69,30.25,1.75,45.38,1.75,10.62,0,21.23-1.55,31.85-2.29,3.3-.23,6.63-.09,9.94-.11,9.49-.07,18.98,.05,28.46-.25,14.35-.46,28.77-.82,42.53,3.81,14.56,4.9,26.81,13.32,34.42,27.19,3.65,6.65,3.02,9.16-3.09,13.41-9.71,6.75-20.3,11.4-32.27,12.21-6.64,.45-13.29,.74-19.93,.98-8.82,.32-17.64,.73-26.46,.74-7.48,0-14.97-.73-22.45-.72-3.61,0-7.33,.57-10.8,1.57-12.73,3.67-19.32,11.79-20.03,25.4-.53,10.3-.23,20.65-.26,30.98,0,1.15,.15,2.36,.51,3.44,3.33,10,2.36,19.96,.03,29.99-2.29,9.87-4.1,19.85-6.57,29.67-2.82,11.21-1.71,22.06,1.6,32.92,2.63,8.65,4.3,17.45,3.34,26.56-.7,6.62-1.18,13.26-2.13,19.84-1.5,10.35-.57,20.6,.87,30.83,1.95,13.81,2.69,27.51-2.52,40.87-.6,1.55-1.31,3.05-1.89,4.61-2.94,7.91-8.86,12.21-16.87,14-10.07,2.25-19.88,1.23-29.35-2.65-9.65-3.95-14.04-12.35-15.67-21.73-1.79-10.27-2.01-20.82-2.91-31.24Zm49.86-87.14c2.34,4.42,2.49,9.94,6.79,14.31,1.56-4.91,.18-8.95-.37-12.87-1.22-8.73-4.77-17.33-.77-26.21,.05-.11-.1-.3-.18-.53-1.77-1.28-3.65-.95-4.73,.71-1.32,2-2.5,4.31-2.92,6.63-.53,2.9-.23,5.94-.29,8.92-.41-3.19-.82-6.37-1.22-9.52-5.18-.39-8.51,2.29-8.46,7.3,.07,6.65,1.54,13.1,4.32,19.17,.79,1.72,1.84,3.31,2.85,5.1,3.91-4.01,4.54-5.73,4.98-13.01Zm102.36-177.87c-.58,4.2,2.7,9.16,7.53,10.83,0-2.28,.09-4.41-.02-6.53-.16-3.16-1.47-5.41-4.98-5.67,3.17-1.81,2.24-4.53,1.18-6.89-2.72-6.04-7.43-10.14-13.6-12.4-2.9-1.06-5.94-.78-8.55,1.12-3.43,2.49-3.07,7.82,.66,9.87,4.62,2.54,9.29,5.01,13.93,7.52,1.29,.7,2.57,1.43,3.86,2.15Zm-106.7,299.92c-.06,1.79,.99,2.08,2.51,2.06,4-.04,9.3-4.69,10.73-9.54,1.14-3.85,.34-4.99-4-5.7,3.93-4.56,5.18-12.83,2.3-17.56-1.24-2.04-2.8-4.26-5.75-4.23-3.13,.03-5.59,1.44-6.71,4.29-3.01,7.69-5.94,15.45-6.02,23.87-.06,6.08,.84,6.87,6.92,6.82Zm4.03-214.92c-.46-1.36-.66-2.92-1.46-4.05-1.09-1.52-2.41-3.28-4.04-3.94-4.1-1.67-8.17,1.35-8.32,6.29-.11,3.76,.18,7.63,1,11.29,1.28,5.75,2.79,11.51,4.93,16.99,1.35,3.46,4.11,6.25,8.94,6.15,0-1.62,.04-2.92,0-4.21-.28-8.59-.58-17.17-.87-25.76,.98,3.64,1.71,7.38,3.03,10.91,1.33,3.58,2.18,7.53,5.99,10.95,.6-2.9,1.58-5.13,1.39-7.25-.7-8.23-1.72-16.43-2.75-24.63-.22-1.75-1.4-2.96-3.43-2.95-1.95,.01-3.16,.94-3.45,2.85-.38,2.44-.65,4.9-.96,7.36Zm.92-91.68l.05-.42c1.82,0,3.66,.14,5.47-.03,4.93-.45,9.92-.98,14.16-3.79,1.47-.97,2.75-2.75,3.23-4.41,.18-.64-1.98-2.23-3.3-2.97-5.34-3-11.39-3.19-17.25-3.57-4.39-.28-8.94,.12-13.25,1.02-5.51,1.16-6.63,8.07-2.61,10.7,1.22,.8,2.42,1.88,3.77,2.15,3.2,.65,6.49,.9,9.75,1.31Zm-134.17-9.06c-.77-.34-1.5-.73-2.27-.98-.62-.2-1.32-.35-1.96-.29-7.43,.67-14.38,2.62-20.03,7.82-.72,.66-1.63,1.5-1.76,2.36-.25,1.67-.45,3.65,.25,5.02,.32,.62,2.95,.39,4.39,.02,3.5-.91,7-1.93,10.35-3.27,3.04-1.22,6.06-2.67,8.77-4.49,1.73-1.16,3.11-3.09,2.25-6.17Zm229.8,36.45c2.65-6.04-.01-14.2-5.37-17.06-.57-.3-1.21-.56-1.84-.67-4.66-.82-8.41,3.17-7.41,7.84,1.17,5.47,7.81,10.05,14.62,9.89Zm30.41-19.52c2.98-1.82,2.36-4.28,1.97-6.17-1.24-6.03-4.59-10.93-9.33-14.79-1.06-.86-2.71-1.2-4.13-1.37-1.84-.22-3.76,.03-4.42,2.26-.57,1.91-.03,3.47,1.51,4.87,2.43,2.22,4.73,4.6,6.99,7,2.47,2.63,4.84,5.35,7.41,8.21Zm-205.8-21.71l-.5-1.15c-1.27-.33-2.54-.97-3.8-.95-5.75,.1-11.54,.07-17.24,.71-3.3,.37-5.23,3.93-4.47,6.63,.7,2.47,3.39,3.31,7.03,2.1,4.86-1.61,9.73-3.21,14.54-4.96,1.56-.57,2.96-1.58,4.44-2.39Zm84.39,268.38c.36-.01,.72-.02,1.08-.04,2.3-6.84,1.47-13.96,1.48-20.98,0-.96-1.29-1.93-1.99-2.9-.98,.9-2.2,1.65-2.86,2.74-.44,.73-.18,1.94-.1,2.92,.28,3.28,.54,6.56,.96,9.82,.37,2.83,.94,5.62,1.43,8.43Z"/>
          <path class="cls-8" d="M680.92,148.03c.57-19.18,4.84-37.63,9.85-55.97,1.84-6.72,3.49-13.5,5.07-20.29,.41-1.74,.6-3.7,.25-5.43-2.27-11.3,1.21-21.11,8.15-29.7,7.61-9.41,17.2-16.37,29.22-18.84,8.13-1.67,16.42-1.93,24.78-.23,8.45,1.71,17.04,3.25,25.63,3.67,14.92,.73,29.48-2.08,43.71-6.56,3.96-1.25,7.97-2.36,11.88-3.74,8.62-3.04,17.31-4.09,26.5-2.89,13.49,1.76,26.4,5.07,38.63,11.09,6.53,3.21,12.26,7.4,17.07,12.81,9.91,11.15,17.32,23.43,18.8,38.82,.83,8.61,2.64,17.1,1.05,25.79-1.27,6.93-4.7,12.78-9.29,17.93-3.37,3.79-8.93,4.28-13.13,1.49-4.53-3.01-7.85-7.1-10.36-11.93-2.37-4.57-4.89-9.07-7.49-13.52-9.4-16.09-24.2-19.96-41.44-18.12-6.94,.74-13.85,2.07-20.8,2.37-3.5,.15-7.12-1.23-10.61-2.2-5.59-1.55-11.02-4.26-16.68-4.85-18.69-1.93-35.91,1.47-48.98,16.52-6.15,7.08-9.43,15.61-11.73,24.52-3.5,13.56-4.38,27.21-.61,40.91,2.08,7.56,7.08,13.16,12.9,17.89,2.12,1.72,5.48,2.28,8.36,2.65,7.95,1.02,15.6-.68,22.89-3.79,12.07-5.17,24.55-9.65,35.97-16.03,15.96-8.92,31.64-6.88,47.78-1.88,12.37,3.83,23.76,9.92,34.31,17.08,15.78,10.71,25.92,25.87,28.55,45.05,1.1,7.99,.33,16.24,.52,24.36,.2,8.64,.49,17.29,.82,25.93,.24,6.31,.82,12.62,.88,18.94,.1,9.66,.08,19.34-.29,28.99-.21,5.46-.84,10.97-1.96,16.32-2.13,10.23-9.69,16.03-18.32,20.51-9.44,4.9-19.05,9.45-28.65,14.04-6.49,3.1-13.33,5.12-20.48,6.04-.82,.11-1.69,.25-2.49,.11-12.55-2.16-24.84,.76-37.25,1.72-8.45,.65-16.98,.23-25.48,.37-8.88,.15-17.57-.94-26.13-3.35-8.55-2.41-17.24-1.33-25.79-.18-8.75,1.17-17.25,1-25.58-2.04-13.9-5.07-27.89-9.92-41.63-15.38-19.89-7.9-33.55-33.22-23.76-57.52,3.01-7.48,8.8-12.37,15.8-16,12.85-6.66,26.35-7.58,40.32-4.71,7.41,1.52,14.75,3.23,20.05,9.18,2.42,2.71,4.51,5.75,6.49,8.8,1.9,2.92,3.53,6.03,5.19,9.1,7.19,13.28,19.13,18.32,33.42,19.14,3.65,.21,7.34,.14,10.99-.08,8.78-.53,16.76,1.66,24.23,6.29,5.36,3.32,10.69,7.03,17.25,7.41,4.11,.24,8.31,.12,12.38-.45,12.16-1.71,22.95-6.55,32.03-14.96,5.36-4.96,8.78-11.22,9.47-18.27,1-10.33,4.6-19.75,8.82-28.9,6.66-14.43,3.79-27.68-4.28-40.16-3.89-6.01-10.56-8.46-17.68-8.89-6.64-.4-13.3-.51-19.95-.72-3.02-.09-5.57-1.26-7.38-3.62-5.46-7.09-12.98-8.86-21.34-8.38-7.3,.42-14.69,.5-21.87,1.68-10.47,1.73-20.87,4.03-31.16,6.63-9.05,2.28-17.98,4.79-27.44,4.38-19.71-.87-37.48-6.86-52.78-19.61-9.84-8.2-13.8-19.32-15.54-31.45-.85-5.92-1.13-11.91-1.67-17.87Zm56.87,154.17c-1.75-3.48-2.97-7.18-5.2-10.09-4.17-5.42-9.41-9.85-15.51-13.04-4.61-2.41-9.39-3.17-14.19-.22-4.57,2.81-4.94,8.44-.5,11.28,4.04,2.59,8.25,4.92,12.48,7.2,4.07,2.19,8.12,4.53,12.43,6.11,3.03,1.11,6.6,2.56,10.49-1.23Zm182.57-6.81c.11-7.59-3.32-12-8.43-12.29-5.06-.28-9.13,3.5-9.52,9.35-.53,7.93-.76,15.87-1.07,23.81-.11,2.68-.3,5.7,2.97,6.64,2.89,.83,4.99-1.17,6.89-3.11,.35-.35,.65-.75,.95-1.15,5.41-7.33,6.18-16.21,8.23-23.25Zm-6.32-83.96c.14-1.57,.34-2.54,.3-3.5-.29-8.73-12.49-20.98-18.77-23.55-2.85-1.16-6.75,.26-7.98,2.43-1.38,2.43-.91,5.88,1.2,8.2,.66,.73,1.45,1.36,2.23,1.97,2.59,2.04,5.13,4.15,7.83,6.03,4.56,3.17,8.97,6.67,15.18,8.41Zm-195.52-40.87c2.16-9.45,2.18-17.88,1.67-26.28-.22-3.57-3.05-5.33-6.7-5.21-3.11,.11-5.4,1.37-5.92,4.95-1.19,8.12-.98,16.23,5,22.81,1.33,1.47,3.47,2.21,5.96,3.72ZM909.37,39.29c-.03-.27-.03-.78-.16-1.25-1.52-5.78-14.41-14.52-20.42-13.77-3.44,.43-6.9,3.96-4.13,7.37,4.84,5.95,10.4,11.13,18.12,13.17,3.47,.92,6.7-1.75,6.59-5.51Zm-224.46,293.34c-1.81-4.21-3.43-7.25-4.43-10.49-2-6.49-3.59-13.1-5.49-19.62-.97-3.31-2.84-4.71-5.19-4.34-2.25,.35-3.82,2.49-4.05,5.59-.05,.65,.02,1.33,.12,1.98,1.64,10.72,6.98,19.21,15.58,25.7,.6,.45,1.48,.52,3.46,1.17Zm19.15-152.71c-1.48-4.83-2.99-9.5-4.31-14.24-.67-2.39-.91-4.9-1.47-7.33-.77-3.34-2.85-5.28-5.25-5.08-2.6,.22-4.9,2.99-4.5,6.24,.88,7.29,3.47,13.87,9.33,18.72,1.79,1.48,3.77,2.73,6.21,1.68Zm217.07,22.92c-.32-2.76-.39-4.66-.79-6.5-1.27-5.93-4.72-10.49-9.34-14.22-1.86-1.5-4-1.73-5.9-.09-1.64,1.41-1.32,4.16,.56,6.2,.56,.61,1.28,1.06,1.85,1.66,3.53,3.71,7.02,7.46,10.58,11.14,.57,.59,1.45,.89,3.03,1.81ZM717.06,39.56c-3.52-.3-4.27-.26-5.94,1.36-3.51,3.41-5.26,7.58-4.98,12.53,.15,2.59,1.61,4.07,4.03,4.25,2.5,.18,3.2-1.58,3.62-3.81,.9-4.69,2.1-9.33,3.26-14.33Zm52.16-3.45c-5.19-2.76-8.17-3.82-11.06-2.88-1.46,.48-3.12,1.99-3.59,3.39-.38,1.16,.44,3.39,1.47,4.22,3.86,3.11,11.52,.21,13.18-4.74Zm-35.58,5.8c-5.27,.73-8.8,2.45-11.35,5.95-1.13,1.55-1.03,3.36,.59,4.38,.86,.54,2.96,.6,3.44,.02,2.44-3.01,4.52-6.3,7.33-10.35Zm190.53,46.93c2.66-3.35,2.47-6.3,2.19-9.21-.19-1.96-1.07-3.81-3.38-3.31-2.18,.47-2.6,2.27-1.83,4.32,.92,2.44,1.81,4.89,3.02,8.2Z"/>
          <path class="cls-23" d="M1169.21,34.51c-3.25-.41-6.54-.66-9.75-1.31-1.35-.27-2.55-1.36-3.77-2.15-4.02-2.63-2.9-9.54,2.61-10.7,4.31-.9,8.87-1.31,13.25-1.02,5.86,.38,11.91,.56,17.25,3.57,1.33,.74,3.49,2.34,3.3,2.97-.48,1.66-1.77,3.44-3.23,4.41-4.23,2.81-9.23,3.34-14.16,3.79-1.81,.17-3.64,.03-5.47,.03l-.05,.42Z"/>
          <path class="cls-23" d="M1168.47,128.95c.29,8.59,.59,17.17,.87,25.76,.04,1.3,0,2.59,0,4.21-4.83,.1-7.59-2.7-8.94-6.15-2.14-5.47-3.64-11.24-4.93-16.99-.82-3.66-1.11-7.53-1-11.29,.15-4.94,4.22-7.96,8.32-6.29,1.63,.66,2.95,2.42,4.04,3.94,.8,1.12,1,2.68,1.46,4.05,.06,.92,.12,1.84,.18,2.76Z"/>
          <path class="cls-23" d="M1164.25,341.1c-6.08,.06-6.98-.74-6.92-6.82,.08-8.42,3.01-16.18,6.02-23.87,1.12-2.85,3.58-4.27,6.71-4.29,2.95-.02,4.51,2.19,5.75,4.23,2.88,4.73,1.63,13-2.3,17.56-1.35,1.3-2.99,2.41-3.99,3.94-1.94,2.96-3.52,6.15-5.25,9.24Z"/>
          <path class="cls-23" d="M1270.96,41.18c-1.29-.72-2.56-1.45-3.86-2.15-4.64-2.51-9.3-4.98-13.93-7.52-3.73-2.05-4.09-7.38-.66-9.87,2.61-1.9,5.65-2.18,8.55-1.12,6.16,2.26,10.88,6.36,13.6,12.4,1.06,2.36,1.99,5.08-1.18,6.89-.84,.46-1.68,.91-2.53,1.37Z"/>
          <path class="cls-22" d="M1168.6,219.05c-.44,7.28-1.07,9-4.98,13.01-1.01-1.79-2.06-3.38-2.85-5.1-2.78-6.08-4.25-12.53-4.32-19.17-.06-5.01,3.28-7.68,8.46-7.3,.4,3.14,.81,6.33,1.22,9.52,.82,3.01,1.65,6.03,2.47,9.04Z"/>
          <path class="cls-6" d="M1035.05,25.46c.86,3.08-.52,5.01-2.25,6.17-2.71,1.82-5.73,3.28-8.77,4.49-3.35,1.34-6.85,2.37-10.35,3.27-1.44,.37-4.07,.6-4.39-.02-.71-1.37-.5-3.35-.25-5.02,.13-.86,1.04-1.7,1.76-2.36,5.65-5.2,12.6-7.15,20.03-7.82,.64-.06,1.33,.1,1.96,.29,.78,.25,1.5,.64,2.27,.98Z"/>
          <path class="cls-19" d="M1168.47,128.95c-.06-.92-.12-1.84-.18-2.76,.32-2.45,.58-4.91,.96-7.36,.3-1.92,1.5-2.84,3.45-2.85,2.02-.01,3.21,1.19,3.43,2.95,1.04,8.2,2.05,16.4,2.75,24.63,.18,2.12-.8,4.35-1.39,7.25-3.81-3.41-4.66-7.37-5.99-10.95-1.31-3.52-2.04-7.26-3.03-10.91Z"/>
          <path class="cls-19" d="M1168.6,219.05c-.82-3.01-1.65-6.03-2.47-9.04,.06-2.98-.24-6.03,.29-8.92,.43-2.32,1.61-4.62,2.92-6.63,1.09-1.65,2.96-1.99,4.73-.71,.09,.23,.23,.43,.18,.53-4,8.88-.45,17.48,.77,26.21,.55,3.92,1.94,7.96,.37,12.87-4.3-4.37-4.45-9.89-6.79-14.31Z"/>
          <path class="cls-23" d="M1264.85,61.91c-6.81,.16-13.45-4.42-14.62-9.89-1-4.67,2.76-8.66,7.41-7.84,.63,.11,1.27,.36,1.84,.67,5.36,2.86,8.02,11.01,5.37,17.06Z"/>
          <path class="cls-19" d="M1295.26,42.39c-2.57-2.86-4.94-5.58-7.41-8.21-2.26-2.4-4.56-4.77-6.99-7-1.54-1.41-2.08-2.96-1.51-4.87,.66-2.22,2.58-2.47,4.42-2.26,1.42,.17,3.07,.51,4.13,1.37,4.74,3.86,8.09,8.76,9.33,14.79,.39,1.89,1,4.35-1.97,6.17Z"/>
          <path class="cls-23" d="M1089.46,20.68c-1.47,.81-2.88,1.82-4.44,2.39-4.81,1.75-9.68,3.34-14.54,4.96-3.64,1.21-6.33,.37-7.03-2.1-.76-2.7,1.17-6.26,4.47-6.63,5.7-.64,11.49-.62,17.24-.71,1.26-.02,2.53,.62,3.8,.95l.5,1.15Z"/>
          <path class="cls-12" d="M1164.25,341.1c1.73-3.09,3.31-6.29,5.25-9.24,1-1.53,2.64-2.64,3.99-3.94,4.34,.71,5.14,1.85,4,5.7-1.44,4.85-6.74,9.5-10.73,9.54-1.53,.02-2.57-.27-2.51-2.06Z"/>
          <path class="cls-19" d="M1173.85,289.06c-.48-2.81-1.06-5.61-1.43-8.43-.42-3.26-.68-6.54-.96-9.82-.08-.98-.35-2.19,.1-2.92,.66-1.09,1.26-2.11,2.86-2.74,1.47,.65,2.53,2.06,2.13,3.19,0,7.02,.68,13.84-1.62,20.68-.36,.01-.72,.02-1.08,.04Z"/>
          <path class="cls-18" d="M1270.96,41.18c.84-.46,1.68-.91,2.53-1.37,3.51,.26,4.82,2.51,4.98,5.67,.11,2.12,.02,4.25,.02,6.53-4.83-1.67-8.11-6.63-7.53-10.83Z"/>
          <path class="cls-1" d="M737.79,302.2c-3.89,3.79-7.46,2.34-10.49,1.23-4.31-1.58-8.36-3.92-12.43-6.11-4.23-2.28-8.44-4.61-12.48-7.2-4.44-2.84-4.07-8.47,.5-11.28,4.8-2.95,9.58-2.19,14.19,.22,6.1,3.19,11.35,7.62,15.51,13.04,2.24,2.91,3.46,6.61,5.2,10.09Z"/>
          <path class="cls-1" d="M920.36,295.39c-2.05,7.04-2.81,15.92-8.23,23.25-.3,.4-.6,.8-.95,1.15-1.9,1.94-3.99,3.94-6.89,3.11-3.26-.93-3.07-3.96-2.97-6.64,.31-7.94,.55-15.89,1.07-23.81,.39-5.85,4.46-9.64,9.52-9.35,5.11,.29,8.54,4.7,8.43,12.29Z"/>
          <path class="cls-1" d="M914.05,211.42c-6.22-1.74-10.62-5.24-15.18-8.41-2.7-1.88-5.24-4-7.83-6.03-.78-.61-1.56-1.24-2.23-1.97-2.11-2.32-2.58-5.77-1.2-8.2,1.23-2.16,5.13-3.59,7.98-2.43,6.29,2.56,18.48,14.81,18.77,23.55,.03,.96-.16,1.92-.3,3.5Z"/>
          <path class="cls-1" d="M718.53,170.56c-2.49-1.51-4.62-2.26-5.96-3.72-5.98-6.58-6.18-14.69-5-22.81,.52-3.58,2.81-4.84,5.92-4.95,3.65-.13,6.48,1.64,6.7,5.21,.52,8.4,.5,16.83-1.67,26.28Z"/>
          <path class="cls-1" d="M909.37,39.29c.1,3.76-3.12,6.43-6.59,5.51-7.72-2.04-13.28-7.22-18.12-13.17-2.77-3.41,.69-6.94,4.13-7.37,6.02-.75,18.9,7.99,20.42,13.77,.12,.47,.13,.98,.16,1.25Z"/>
          <path class="cls-20" d="M684.91,332.63c-1.98-.65-2.86-.72-3.46-1.17-8.6-6.49-13.94-14.99-15.58-25.7-.1-.65-.16-1.32-.12-1.98,.23-3.1,1.79-5.24,4.05-5.59,2.35-.37,4.22,1.02,5.19,4.34,1.9,6.52,3.49,13.13,5.49,19.62,1,3.23,2.62,6.28,4.43,10.49Z"/>
          <path class="cls-2" d="M704.06,179.92c-2.44,1.05-4.42-.2-6.21-1.68-5.86-4.85-8.44-11.43-9.33-18.72-.39-3.24,1.9-6.02,4.5-6.24,2.4-.2,4.48,1.74,5.25,5.08,.56,2.43,.8,4.94,1.47,7.33,1.32,4.73,2.84,9.41,4.31,14.24Z"/>
          <path class="cls-2" d="M921.13,202.84c-1.57-.92-2.45-1.22-3.03-1.81-3.56-3.68-7.05-7.43-10.58-11.14-.57-.6-1.29-1.05-1.85-1.66-1.88-2.04-2.2-4.78-.56-6.2,1.9-1.64,4.04-1.41,5.9,.09,4.62,3.73,8.07,8.3,9.34,14.22,.39,1.84,.46,3.74,.79,6.5Z"/>
          <path class="cls-9" d="M717.06,39.56c-1.16,5-2.36,9.64-3.26,14.33-.43,2.23-1.13,3.99-3.62,3.81-2.42-.18-3.88-1.66-4.03-4.25-.28-4.96,1.47-9.13,4.98-12.53,1.66-1.62,2.42-1.66,5.94-1.36Z"/>
          <path class="cls-10" d="M769.22,36.11c-1.66,4.95-9.32,7.84-13.18,4.74-1.03-.83-1.85-3.06-1.47-4.22,.46-1.41,2.12-2.92,3.59-3.39,2.89-.94,5.87,.12,11.06,2.88Z"/>
          <path class="cls-15" d="M733.64,41.9c-2.8,4.05-4.89,7.34-7.33,10.35-.47,.59-2.57,.53-3.44-.02-1.62-1.01-1.72-2.83-.59-4.38,2.55-3.5,6.08-5.22,11.35-5.95Z"/>
          <path class="cls-7" d="M924.17,88.83c-1.22-3.3-2.1-5.76-3.02-8.2-.77-2.05-.35-3.85,1.83-4.32,2.31-.5,3.19,1.35,3.38,3.31,.28,2.91,.47,5.86-2.19,9.21Z"/>
        </g>
        <g>
          <path class="cls-24" d="M283.08,244.71c1.32-11.46-.82-22.52-3.12-33.63-1.61-7.81-2.74-15.74-3.86-23.64-2.19-15.45,1.51-29.76,9.22-43.07,5.05-8.72,12.5-14.55,22.45-16.99,10.03-2.47,18.26-7.7,24.61-15.98,6.18-8.06,12.62-15.92,18.97-23.85,7.88-9.83,17.66-17.25,29.37-21.75,10.54-4.05,21.24-7.78,32.07-10.92,12.05-3.49,24.43-2.61,36.7-.87,12.57,1.78,24.48,6.07,36.47,10.03,9.31,3.08,18.66,6.02,28.05,8.84,4.31,1.29,6.21,.28,6.96-3.84,3.56-19.63,15.63-33.93,29.62-46.81,7.6-7,16.31-12.79,26.75-14.87,4.19-.83,8.59-1.02,12.86-.84,4.3,.19,7.78,2.5,10.68,5.78,6.39,7.21,8.03,15.97,8.05,25.1,.03,13.91-2.25,27.49-7,40.61-2.21,6.1-4.19,12.27-6.42,18.36-3.21,8.79-2.42,17.22,1.36,25.69,2.22,4.98,4.31,10.17,5.38,15.48,1.79,8.8,.45,17.5-2.57,25.99-3.4,9.54-7.22,19.02-9.58,28.83-4.27,17.79-5.15,35.86-1.88,54.02,1.37,7.61,5.33,13.92,9.6,20.09,1.89,2.73,3.99,5.34,6.11,7.9,10.24,12.36,16.1,26.73,18.88,42.36,.93,5.21,1.04,10.61,1.12,15.93,.15,9.83-5.3,16.57-13.64,20.36-11.84,5.38-24.43,7.44-37.5,5.2-14.47-2.47-26.25-10.15-37.3-19.15-6.58-5.36-12.86-11.09-19.28-16.65-1.13-.98-2.34-1.87-3.48-2.85-5.04-4.36-10.44-2.63-13.37,1.63-1.41,2.05-3.12,3.9-4.65,5.87-4.95,6.39-11.63,9.31-19.54,9.37-4.13,.03-8.29-.3-12.4-.81-2.11-.26-3.38,.24-4.64,1.91-5.62,7.44-12.89,12.92-21.1,17.23-5.3,2.78-10.51,5.74-15.88,8.38-11.41,5.61-23.44,8.49-36.23,7.48-18.58-1.46-36.7-4.99-53.01-14.42-8.33-4.81-16.46-10.24-23.76-16.48-17.44-14.9-27.13-33.83-27.03-57.19,.01-3.17,0-6.33,0-9.5m10.25,11.88c-.02,17.18,6.7,31.61,19.18,42.93,10.23,9.27,21.66,17.13,34.48,22.7,14.94,6.5,30.71,8.69,46.77,8.56,5.53-.04,11.39-1.19,16.49-3.3,8.57-3.55,16.7-8.18,24.93-12.53,5.8-3.07,11.11-7.03,14.89-12.35,4.59-6.47,9.96-8.69,17.93-7.37,9.65,1.6,18.66-.33,24.48-9.52,.18-.28,.46-.49,.67-.74,7.42-8.7,19.92-8.73,27.09-3.22,3.16,2.43,6.28,4.93,9.31,7.52,6.2,5.31,12.14,10.93,18.51,16.01,7.47,5.96,15.78,10.39,25.23,12.59,10.69,2.49,21.14,1.82,31.45-1.69,7.67-2.61,10.94-7.63,10.2-15.56-.37-3.98-.58-7.99-1.34-11.9-2.65-13.62-7.96-26.03-17.18-36.6-1.75-2.01-3.31-4.18-5.03-6.22-8.82-10.46-13.14-22.81-13.99-36.19-1.58-24.86,1.01-49.13,11.42-72.22,6.12-13.57,8.24-27.43-.27-41.09-.86-1.39-1.27-3.07-1.83-4.63-3.03-8.41-3.52-16.86-.58-25.42,2.8-8.18,5.44-16.41,8.24-24.59,4.02-11.75,6.38-23.79,5.65-36.24-.2-3.39-1.16-6.93-2.58-10.02-2.53-5.5-7.09-7.59-13.07-7-5.38,.54-10.4,1.99-14.98,4.99-18.16,11.89-30.34,28.13-35.92,49.19-2.36,8.91-7.82,13.15-17,12.66-3.62-.19-7.31-.8-10.79-1.83-13.86-4.1-27.71-8.28-41.46-12.73-11.08-3.59-22.38-4.99-33.95-4.61-12.17,.4-23.41,4.64-34.74,8.5-15.6,5.32-28.21,14.65-38.17,27.79-4.82,6.36-10.05,12.43-15.27,18.48-6.95,8.07-15.9,13.12-26.04,15.9-5.69,1.56-10.6,4.3-14.32,8.62-4.32,5.02-8.14,10.51-11.8,16.05-1.18,1.79-1.63,4.37-1.6,6.58,.06,4.98,.37,10,1.05,14.93,1.73,12.35,3.53,24.69,5.67,36.96,1.39,7.95,1.75,15.79,.68,23.82-1.38,10.37-2.23,20.81-3.31,31.22"/>
          <path class="cls-13" d="M293.86,242.16c1.07-8.03,.7-15.87-.68-23.82-2.14-12.28-3.95-24.62-5.67-36.96-.69-4.93-.99-9.95-1.05-14.93-.03-2.21,.42-4.79,1.6-6.58,3.66-5.54,7.48-11.03,11.8-16.05,3.72-4.32,8.62-7.06,14.32-8.62,10.14-2.78,19.09-7.84,26.04-15.9,5.22-6.05,10.45-12.12,15.27-18.48,9.96-13.14,22.57-22.48,38.17-27.79,11.33-3.86,22.57-8.1,34.74-8.5,11.57-.38,22.87,1.03,33.95,4.61,13.75,4.46,27.6,8.64,41.46,12.73,3.48,1.03,7.16,1.63,10.79,1.83,9.19,.49,14.64-3.75,17-12.66,5.58-21.06,17.76-37.3,35.92-49.19,4.58-3,9.6-4.45,14.98-4.99,5.98-.6,10.54,1.5,13.07,7,1.42,3.1,2.38,6.63,2.58,10.02,.73,12.45-1.63,24.49-5.65,36.24-2.8,8.18-5.44,16.41-8.24,24.59-2.93,8.56-2.45,17.02,.58,25.42,.56,1.56,.97,3.25,1.83,4.63,8.51,13.66,6.39,27.52,.27,41.09-10.41,23.09-13,47.36-11.42,72.22,.85,13.38,5.17,25.73,13.99,36.19,1.72,2.04,3.28,4.21,5.03,6.22,9.22,10.57,14.54,22.98,17.18,36.6,.76,3.91,.97,7.92,1.34,11.9,.73,7.94-2.53,12.95-10.2,15.56-10.31,3.51-20.76,4.18-31.45,1.69-9.46-2.2-17.76-6.64-25.23-12.59-6.37-5.08-12.32-10.7-18.51-16.01-3.03-2.6-6.15-5.09-9.31-7.52-7.17-5.51-19.67-5.48-27.09,3.22-.22,.25-.5,.46-.67,.74-5.82,9.19-14.83,11.12-24.48,9.52-7.97-1.32-13.34,.9-17.93,7.37-3.78,5.32-9.1,9.29-14.89,12.35-8.22,4.35-16.36,8.98-24.93,12.53-5.1,2.11-10.96,3.26-16.49,3.3-16.07,.13-31.83-2.07-46.77-8.56-12.82-5.58-24.25-13.43-34.48-22.7-12.48-11.31-19.21-25.75-19.18-42.93,0-3.83-1.01-7.24-1.01-11.07m76.96-43.27c0,.83,.08,1.68-.01,2.5-1.18,10.13,7.45,21.36,18.54,23.26,5.8,.99,10.64,3.55,15.09,7.22,7.13,5.87,15.01,10.32,23.8,13.35,16.36,5.63,31.19,2.82,44.63-7.63,9.48-7.38,14.6-17.21,14.19-29.39-.21-6.14-.89-12.29-1.75-18.37-1.96-13.87-3.66-27.73-1.38-41.73,.88-5.41,1.97-10.8,2.5-16.25,.47-4.78,.9-9.71,.25-14.42-1.27-9.22-7.47-14.51-15.95-17.37-13.27-4.47-25.56-1.44-37.34,5.07-9.89,5.47-16.41,14.11-21.13,23.99-5.8,12.14-14.24,22-24.14,30.84-2.6,2.32-5.27,4.64-7.52,7.29-7.73,9.12-9.73,20.11-9.79,31.65Zm53.28-147.97c-1,0-2.01-.12-2.99,.02-10.91,1.52-20.43,6.35-29.31,12.56-2.43,1.7-4.85,3.57-6.79,5.78-5,5.72-3.28,13.85,3.75,16.01,3.94,1.21,7.05-.67,9.99-2.88,9.51-7.14,18.97-14.35,28.51-21.44,1.28-.96,2.92-1.45,4.42-2.1,.97-.42,2.88-.86,2.85-1.09-.17-1.36-.49-2.93-1.33-3.94-2.34-2.79-5.7-3.05-9.09-2.91Zm131.92,96.6c-.28-1.7-.88-4.28-1.06-6.89-.15-2.13-.34-4.07-2.81-4.57-2.5-.51-4.78-.44-6.85,1.69-3.05,3.12-4.54,6.9-5.45,10.96-1.43,6.41-2.86,12.84-3.87,19.33-.73,4.72-.98,9.54-1.07,14.32-.06,3.11,.66,6.22,.85,9.34,.16,2.61,.04,5.23,2.38,7.08,1.91-1.7,3.85-3.37,5.7-5.14,.45-.43,.64-1.15,.87-1.78,2-5.59,4.27-11.11,5.9-16.81,2.49-8.7,4.81-17.47,5.41-27.54Zm-222.69,12.94c3.74-.01,7.48-2.71,8.35-6.62,2.52-11.32,7.02-21.96,11-32.79,.45-1.24,.88-2.51,1.09-3.8,.44-2.75-.61-4.01-3.24-3.29-3,.82-6.27,1.71-8.63,3.57-9.82,7.75-16.42,17.87-18.79,30.16-1.17,6.09,3.55,12.19,10.22,12.76Zm236.51-124.32c0,2-.13,4.01,.04,5.99,.12,1.46,.57,2.9,.99,4.32,1.04,3.5,4.18,5.5,7.03,4.19,1.42-.65,2.84-1.94,3.58-3.31,1.39-2.59,2.58-5.36,3.34-8.2,1.31-4.91,1.99-10,3.4-14.87,.99-3.43,.52-6.55-.58-9.69-1.34-3.81-2.95-4.79-7.11-4.74-4.06,.05-6.44,1.62-7.61,6.39m-16.72,247.92c-1.78,1.49-3.4,2.39-4.37,3.75-1.58,2.22-1.06,4.74-.06,7.13,4,9.6,10.26,17.35,18.99,23.03,.67,.44,1.75,.25,2.64,.35-.17-.89-.2-1.84-.55-2.66-3.46-8.22-6.97-16.42-10.47-24.62-.45-1.06-.69-2.35-1.44-3.13-1.29-1.35-2.9-2.38-4.75-3.84Zm-17.45-219.18c-.21,4.51,1.38,7.22,4.13,7.95,3.27,.87,5.85-.59,7.43-4.28,.39-.91,.7-1.87,.91-2.84,1.43-6.65,2.79-13.32,4.26-19.96,.39-1.77-.55-2.2-1.83-1.96-1.26,.23-2.64,.67-3.6,1.46-6.43,5.33-9.98,12.31-11.3,19.63Zm26.28,119.02c.14,.02-.3,.23-.16,.25,0,1.49-.11,3,.05,4.48,.08,.7,.69,1.33,1.06,2,.63-.36,1.35-.62,1.86-1.11,.46-.43,.79-1.08,1-1.69,2.67-7.82,5.37-15.62,7.88-23.49,.48-1.52,.57-3.42,.09-4.9-.45-1.37-1.76-3.17-2.96-3.41-1.49-.3-3.5,.48-4.85,1.42-.89,.61-1.26,2.29-1.44,3.55-1.1,7.69-1.5,15.21-2.52,22.92Zm-240.63-44.11c-1.21,0-2.55-.23-3.78,.04-6.91,1.53-16.39,14.99-15.62,22.07,.26,2.35,1.44,4.17,3.8,4.75,2.59,.64,4.02-1,4.98-3.14,3.52-7.83,7.02-15.68,10.62-23.72Zm-9.48,51.43c-6.8,3.67-11.32,14.8-8.99,21.58,.88,2.56,3.36,4.27,5.68,3.92,2.24-.34,3.77-2.11,3.86-5.08,.07-2.3-.47-4.62-.52-6.93-.09-4.44-.03-8.89-.03-13.49Z"/>
          <path class="cls-24" d="M367.37,230.6c.06-11.54,2.06-22.53,9.79-31.65,2.25-2.65,4.91-4.96,7.52-7.29,9.9-8.84,18.34-18.71,24.14-30.84,4.72-9.88,11.24-18.52,21.13-23.99,11.78-6.51,24.07-9.54,37.34-5.07,8.48,2.86,14.68,8.15,15.95,17.37,.65,4.71,.21,9.64-.25,14.42-.53,5.45-1.62,10.84-2.5,16.25-2.28,14-.59,27.86,1.38,41.73,.86,6.09,1.55,12.23,1.75,18.37,.41,12.19-4.7,22.01-14.19,29.39-13.44,10.45-28.28,13.26-44.63,7.63-8.79-3.03-16.68-7.48-23.8-13.35-4.45-3.66-9.29-6.23-15.09-7.22-11.09-1.9-19.72-13.13-18.54-23.26,.1-.82,.01-1.66,.01-2.5Zm6.54-2.37c.42,1.68,.34,4.6,1.74,6.26,4.51,5.36,9.64,10.21,16.45,12.63,6.67,2.37,12.57,5.99,18.11,10.33,5.99,4.69,12.88,7.5,20.16,9.52,12.22,3.4,23.13,.57,32.71-7.25,7.11-5.8,10.65-13.57,9.96-22.85-.46-6.13-1.14-12.28-2.2-18.33-2.84-16.22-3.46-32.36,.22-48.57,1.21-5.32,1.74-10.83,2.08-16.29,.4-6.37-2.76-10.68-8.71-13.12-4.14-1.7-8.35-2.12-12.72-1.49-14.51,2.09-25.42,9.61-32.35,22.42-8.19,15.17-18.92,28.05-32.4,38.79-8.62,6.86-11.78,16.56-13.05,27.93Z"/>
          <path class="cls-5" d="M420.65,82.63c3.39-.14,6.75,.12,9.09,2.91,.85,1.01,1.16,2.58,1.33,3.94,.03,.24-1.87,.67-2.85,1.09-1.5,.65-3.13,1.14-4.42,2.1-9.54,7.1-19,14.3-28.51,21.44-2.95,2.21-6.05,4.09-9.99,2.88-7.03-2.16-8.74-10.29-3.75-16.01,1.94-2.22,4.36-4.08,6.79-5.78,8.88-6.21,18.4-11.04,29.31-12.56,.98-.14,2-.02,2.99-.02Z"/>
          <path class="cls-5" d="M552.58,179.23c-.6,10.07-2.92,18.84-5.41,27.54-1.63,5.7-3.9,11.21-5.9,16.81-.22,.62-.42,1.35-.87,1.78-1.85,1.77-3.79,3.43-5.7,5.14-2.34-1.85-2.22-4.47-2.38-7.08-.19-3.12-.91-6.23-.85-9.34,.09-4.78,.34-9.6,1.07-14.32,1.01-6.49,2.43-12.91,3.87-19.33,.91-4.06,2.4-7.84,5.45-10.96,2.07-2.12,4.35-2.2,6.85-1.69,2.47,.51,2.66,2.44,2.81,4.57,.19,2.61,.79,5.19,1.06,6.89Z"/>
          <path class="cls-5" d="M329.88,192.17c-6.67-.57-11.39-6.67-10.22-12.76,2.37-12.29,8.96-22.41,18.79-30.16,2.36-1.86,5.63-2.76,8.63-3.57,2.62-.72,3.68,.55,3.24,3.29-.21,1.29-.63,2.57-1.09,3.8-3.97,10.83-8.47,21.47-11,32.79-.87,3.9-4.62,6.6-8.35,6.62Z"/>
          <path class="cls-5" d="M569.47,47.91c1.17-4.77,3.55-6.34,7.61-6.39,4.16-.05,5.77,.93,7.11,4.74,1.11,3.14,1.57,6.26,.58,9.69-1.41,4.88-2.09,9.96-3.4,14.87-.76,2.83-1.94,5.61-3.34,8.2-.74,1.37-2.16,2.66-3.58,3.31-2.85,1.31-5.99-.69-7.03-4.19-.42-1.42-.86-2.86-.99-4.32-.17-1.98-.04-3.99-.04-5.99"/>
          <path class="cls-11" d="M552.75,295.84c2.39,1.1,3.46,2.49,4.75,3.84,.75,.79,.98,2.07,1.44,3.13,3.5,8.2,7.01,16.4,10.47,24.62,.34,.82,.37,1.77,.55,2.66-.89-.1-1.97,.09-2.64-.35-8.73-5.68-14.99-13.43-18.99-23.03-1-2.39-1.52-4.91,.06-7.13,.97-1.36,2.13-2.64,4.37-3.75Z"/>
          <path class="cls-11" d="M535.3,76.66c1.32-7.33,4.87-14.31,11.3-19.63,.96-.79,2.34-1.23,3.6-1.46,1.28-.24,2.22,.19,1.83,1.96-1.47,6.64-2.83,13.31-4.26,19.96-.21,.97-.52,1.93-.91,2.84-1.58,3.68-4.16,5.15-7.43,4.28-2.75-.73-4.34-3.45-4.13-7.95Z"/>
          <path class="cls-11" d="M564.1,172.76c.18-1.26,.56-2.93,1.44-3.55,1.35-.93,3.36-1.72,4.85-1.42,1.21,.24,2.51,2.04,2.96,3.41,.48,1.48,.39,3.39-.09,4.9-2.51,7.87-5.21,15.68-7.88,23.49-.21,.61-.54,1.26-1,1.69-.51,.49-1.23,.75-1.86,1.11-.37-.66-.99-1.3-1.06-2-.17-1.48-.05-2.98-.05-4.48"/>
          <path class="cls-4" d="M320.95,151.56c-3.6,8.05-7.1,15.89-10.62,23.72-.96,2.14-2.39,3.78-4.98,3.14-2.35-.58-3.54-2.4-3.8-4.75-.77-7.09,8.71-20.55,15.62-22.07,1.23-.27,2.57-.04,3.78-.04Z"/>
          <path class="cls-4" d="M311.47,202.99c0,4.6-.07,9.05,.03,13.49,.05,2.31,.59,4.63,.52,6.93-.09,2.96-1.62,4.74-3.86,5.08-2.32,.35-4.8-1.37-5.68-3.92-2.32-6.78,2.19-17.91,8.99-21.58Z"/>
        </g>
        <g>
          <path class="cls-3" d="M292.93,41.1c-1.41-3.58-1.91-5.65-1.27-8.93-.69-.41-1.3-1.05-1.77-1.96-3.32-6.51-8.75-10.33-14.76-14.23-.71-.46-1.4-.97-2.1-1.51-4.92,.04-9.84,.16-14.76,.48-3.05,.19-4.65-1.96-4.8-4.31-.15,.01-.3,.04-.46,.04-4.5,0-9-.08-13.5,.19-4,.25-8.38,.09-12.31,.74-.8,.13-1.53,.08-2.2-.09-.57,.91-1.53,1.63-2.93,1.93-6.96,1.49-14.12,2.08-21.02,3.81-3.11,.78-6.14,1.79-9.26,2.52-2.49,.59-5.32,.73-7.54,2.04-.41,2.13-1.96,4.14-4.64,4.49-5.09,.66-9.87,3.05-15.03,3.58-5.24,.53-10.59,.24-15.85,.23-.59,0-1.12-.09-1.6-.25-.94,.44-2.09,.51-3.41,0-7.37-2.84-16.13-1.59-23.83-2.25-5.39-.46-12.55-2.95-16.98-6.14-1.2-.86-1.85-1.98-2.08-3.15-1.4,.33-2.93-.05-4.19-1.57-4.42-5.34-12.83-6.71-19.26-8.22-3.5-.82-6.93-1.62-10.38-2.64-3.85-1.14-7.71-1.13-11.69-1.47-.21-.02-.41-.06-.6-.1-.5,1.94-2.05,3.55-4.65,3.51-2.25-.03-4.48-.29-6.72-.37-2.79-.11-4.01,.38-6.45,1.6-1.26,.63-3.6,1.12-4.6,2.06-.88,.83-.87,1.97-1.3,3.17-1.31,3.64-3.86,6.68-5.31,10.28-.71,1.75-1.56,3-2.61,4.07,.12,.48,.18,1.01,.15,1.59-.23,4.13-1.57,8.13-3.23,11.9-1.5,3.43-4.3,6.33-5.17,9.99-.08,.34-.19,.65-.31,.94,.28,.61,.43,1.32,.43,2.13-.03,4.73-.45,9.38-1.06,14.07-.36,2.8-.59,5.21-2.13,7.18,.03,.24,.05,.49,.04,.75-.14,8.11,1.18,16.59-1.69,24.26-.09,.24-.2,.47-.31,.68,1.02,1.09,1.61,2.61,1.3,4.44-.66,3.81-2.39,7.32-3.21,11.11-.77,3.58-1.93,6.88-2.9,10.37-.08,.27-.17,.52-.28,.76,1.02,.8,1.72,2.05,1.71,3.76-.04,4.48-.4,8.96-.45,13.44-.03,2.97,.07,5.62-1.99,7.63,.38,.89,.5,1.94,.22,3.12-.77,3.26-1.56,6.53-2.16,9.83,1.23,.78,2.12,2.11,2.14,4.01,.03,3.29-.03,6.51-.24,9.79-.17,2.58,.5,4.88,.81,7.42,.73,6.03,.37,12.22,.88,18.27,.03,.35,.02,.67,0,.98,.16,.53,.24,1.11,.2,1.78-.23,4.23-1.8,8.14-2.07,12.36-.24,3.69-.58,7.34-.87,10.99,.3,.58,.51,1.25,.57,2.01,.36,4.18,.68,8.62,.72,12.81,.05,4.93-.46,9.38,.54,14.31,.12,.62,.13,1.19,.06,1.73,.47,.73,.74,1.64,.71,2.75-.13,4.03,.56,6.88,1.52,10.75,.91,3.69,.6,6.97,.21,10.62,.07,.2,.14,.4,.19,.61,1.98,7.86,.45,16.24,1.43,24.19,.12,.97-.01,1.79-.33,2.46,.83,.8,1.34,1.97,1.24,3.52-.3,4.83-1.44,8.95-.86,13.89,.49,4.26-.93,8.08-.45,12.26,.19,1.7-.38,2.94-1.33,3.73,.04,.15,.07,.3,.1,.46,.72,4.26,1.49,8.45,2.27,12.7,.37,2.03,.42,4.11,.79,6.14,.18,.97,1.41,3.26,.22,2.41l-.34,.04c.52,.27,1.01,.62,1.43,1.05,.42,.04,.86,.14,1.33,.31,7.63,2.85,14.56,5.45,22.75,6.35,7.67,.84,15.56,.38,23.3,.27,.58-.75,1.46-1.34,2.67-1.62,4.48-1.04,10.23-2.99,14.25-5.31,2.27-1.31,3.59-3.23,5.17-5.24,.55-.7,3.47-3.57,3.45-3.35,.13-2.23,1.44-3.69,3.07-4.36-.07-.87,.09-1.8,.57-2.76,2.78-5.44,1.9-11.72,1.73-17.6-.19-6.26,.77-12.4,1.65-18.58,.3-2.12,1.57-3.22,3.1-3.53,.03-1.73-.06-3.47,.13-5.19,.25-2.3,.69-4.33,.22-6.63-1-4.88-1.36-7.66,.17-12.44,.62-1.93,2-2.97,3.54-3.32v-.03c1.75-6.2,.54-12.77,1.53-19,.92-5.83,2.68-12.57,9.4-13.59,.12-.02,.24-.02,.36-.03,.76-1.34,2.13-2.33,4.12-2.38,8.68-.22,17.22-2.98,25.93-3.23,3.66-.11,8.33,.07,11.33,2.14,.79-1.14,2.1-1.91,3.93-1.87,6.62,.16,13.1,1.44,19.74,1.47,5.99,.03,13.63,1.11,19.19-1.51,1.54-.73,3.02-.65,4.26-.1,.4-1.46,1.39-2.79,3.11-3.49,7.96-3.26,19.11-6.18,21.47-15.82,.5-2.03,1.84-3.11,3.38-3.45,.07-.31,.16-.62,.3-.95,1.7-4.06,1.64-10.23,2.11-14.62,.57-5.38,.22-10.79,1.18-16.12v-.02c-1.13-.51-2.02-1.55-2.3-3.23-.25-1.46-2.03-3.06-2.93-4.15-1.39-1.66-2.8-3.29-4.19-4.95-2.68-3.2-5.21-6.21-9.36-7.38-2.04-.57-3.11-2-3.43-3.59-3.61-1.64-7.37-2.9-11.22-3.6-6.43-1.17-13.15-.54-19.64,1.21-10.47,2.82-20.99,5.34-31.99,4.59-1.43-.1-2.9,.39-4.35,.6-5.17,.77-10.32,1.66-15.51,2.29-7.01,.85-13.74-.67-20.28-3.06-3.01-1.1-5.65-3.06-6.81-6.11-1.26-3.32-2-6.85-2.87-10.31,0-.02,0-.05,0-.07-1.6-.99-2.51-2.8-1.53-5.12,2.11-5.01,2.65-10.41,4.27-15.57,1.43-4.55,3.53-8.59,6.15-12.56,2.04-3.08,5.78-2.72,7.9-.83,.59-.84,1.22-1.66,1.86-2.47-1.69-2.17-1.84-5.59,1.23-7.37,6.02-3.47,10.7-5.85,17.74-6.31,5.77-.38,10.97-2.17,16.76-2.35,.08-2.44,1.68-4.87,4.82-4.96,5.25-.15,10.2-1.44,15.29-2.62,4.92-1.14,9.59-1.27,14.6-1.59,2.63-.17,4.18,1.4,4.65,3.34,.9,.02,1.81,.07,2.71,.14,.67-1.6,2.14-2.84,4.4-2.83,4.33,.02,8.67,.18,13-.06,4.02-.22,7.86-1.02,11.88-.55,3.76,.44,7.29,1.89,11.06,2.21,4.12,.35,8.34,.25,12.47,.37,1.81,.05,3.09,.89,3.88,2.05,.37-1.47,1.46-2.71,3.46-3.12,4.89-.98,9.81-1.91,14.64-3.18,1.42-.37,3.53-.72,5.47-1.28,.03-1.09,.54-2.19,1.73-3.12,2.05-1.6,4.52-2.87,6.46-4.57,2.26-1.98,2.97-5.02,4.57-7.5,1.71-2.64,4.14-5,5.46-7.87,1.34-2.92,.97-5.85,.57-8.91-.37-2.75,1.29-4.29,3.37-4.65,1.5-5.37,.99-9.66-1.09-14.91Zm-95.14,165.43c2.18-1.53,4.83-.87,6.17,1.49,1.22,2.15,1.31,4.13,.17,6.48-.95,1.96-.74,4.73-3.49,5.21-1.29,.23-4.46-4.47-4.71-6.46-.08-.65-.01-1.32-.01-2.28-.35-1.67,.2-3.27,1.88-4.44Zm-31.6-9.12c1.47-2.25,3.26-4.33,6.6-3.84,1.53,.49,3.45,.55,4.53,1.53,4.84,4.4,9.9,8.58,12.02,15.32,.75,2.4-.12,3.76-.98,5.4-.47,.9-1.28,1.07-2.51,.58-3.94-1.6-7.58-3.72-10.99-6.19-2.39-1.73-4.61-3.71-6.78-5.73-2.04-1.9-3.03-5.33-1.89-7.09Zm-95.36,111.56c-1.31,3.53-4.12,5.42-6.9,2.16-3.91-4.58-6.78-10.06-7.92-16.06-.89-4.68,2.93-7.58,7.4-5.92,1.96,.73,3.81,1.77,4.64,4.11,1.36,3.83,3.29,7.49,2.85,11.84,0,1.23,.37,2.7-.07,3.87Zm-1.45-274.99c-4.42-2.31-5.61-6.23-3.49-10.19,1.39-2.6,3.49-3.32,6.43-3.48,2.39,.92,4.98,1.51,7.12,2.84,4.99,3.09,10.2,6.1,12.54,12,.41,1.04,.84,2.14,.91,3.23,.27,4.22-.56,4.49-4.76,3.64-6.86-1.39-12.71-4.89-18.75-8.04Zm23.32,55.07c-2.39,5.82-3.96,12.08-7.9,17.17-1.21,1.56-2.64,2.99-4.16,4.26-1.22,1.02-2.63,.31-2.7-1.28-.1-2.15-.02-4.32-.02-6.48-.32-6.11,1.01-11.95,2.93-17.68,1.57-4.67,4.71-6.5,9.04-5.1,.81,.26,1.46,1.22,2.02,1.98,1.63,2.2,1.64,5.06,.79,7.13ZM248.9,54.28c-.18,1.55-1.47,2.16-2.78,1.2-1.58-1.15-3.05-2.44-4.56-3.67-2.28-1.86-4.62-3.66-6.81-5.63-2.18-1.96-2.52-4.63-1.08-6.53,1.37-1.8,5.4-2.69,7.13-1.24,4.47,3.74,8.42,7.89,8.1,14.24,0,.64,.05,1.14,0,1.63Zm4.95-9.57c-.93,.08-2.09-.68-2.9-1.36-1.51-1.28-2.79-2.83-4.26-4.16-1.45-1.3-3.01-2.48-4.55-3.67-2.51-1.94-3.62-4.58-2.7-6.66,2.2-4.96,5.13-5.26,8.78-2.01,4.24,3.76,6.9,8.61,6.7,14.58,0,.17,.03,.34,0,.5-.19,1.02,.61,2.65-1.06,2.79Z"/>
          <path class="cls-16" d="M72.32,20.31c2.39,.92,4.98,1.51,7.12,2.84,4.99,3.09,10.2,6.1,12.54,12,.41,1.04,.84,2.14,.91,3.23,.27,4.22-.56,4.49-4.76,3.64-6.86-1.39-12.71-4.89-18.75-8.04-4.42-2.31-5.61-6.23-3.49-10.19,1.39-2.6,3.49-3.32,6.43-3.48Z"/>
          <path class="cls-16" d="M172.78,193.58c1.53,.49,3.45,.55,4.53,1.53,4.84,4.4,9.9,8.58,12.02,15.32,.75,2.4-.12,3.76-.98,5.4-.47,.9-1.28,1.07-2.51,.58-3.94-1.6-7.58-3.72-10.99-6.19-2.39-1.73-4.61-3.71-6.78-5.73-2.04-1.9-3.03-5.33-1.89-7.09,1.47-2.25,3.26-4.33,6.6-3.84Z"/>
          <path class="cls-16" d="M77.92,102.73c-.32-6.11,1.01-11.95,2.93-17.68,1.57-4.67,4.71-6.5,9.04-5.1,.81,.26,1.46,1.22,2.02,1.98,1.63,2.2,1.64,5.06,.79,7.13-2.39,5.82-3.96,12.08-7.9,17.17-1.21,1.56-2.64,2.99-4.16,4.26-1.22,1.02-2.63,.31-2.7-1.28-.1-2.15-.02-4.32-.03-6.48Z"/>
          <path class="cls-16" d="M70.9,305.1c0,1.23,.37,2.7-.07,3.87-1.31,3.53-4.12,5.42-6.9,2.16-3.91-4.58-6.78-10.06-7.92-16.06-.89-4.68,2.93-7.58,7.4-5.92,1.96,.73,3.81,1.77,4.64,4.11,1.36,3.83,3.29,7.49,2.85,11.84Z"/>
          <path class="cls-25" d="M254.92,41.43c0,.17,.03,.34,0,.5-.19,1.02,.61,2.65-1.06,2.79-.93,.08-2.09-.68-2.9-1.36-1.51-1.28-2.79-2.83-4.26-4.16-1.45-1.3-3.01-2.48-4.55-3.67-2.51-1.94-3.62-4.58-2.7-6.66,2.2-4.96,5.13-5.26,8.78-2.01,4.24,3.76,6.9,8.61,6.7,14.58Z"/>
          <path class="cls-16" d="M248.91,52.65c0,.64,.05,1.14,0,1.63-.18,1.55-1.47,2.16-2.78,1.2-1.58-1.15-3.05-2.44-4.56-3.67-2.28-1.86-4.62-3.66-6.81-5.63-2.18-1.96-2.52-4.63-1.08-6.53,1.37-1.8,5.4-2.69,7.13-1.24,4.47,3.74,8.42,7.89,8.1,14.24Z"/>
          <path class="cls-25" d="M195.91,210.97c-.35-1.67,.2-3.27,1.88-4.44,2.18-1.53,4.83-.87,6.17,1.49,1.22,2.15,1.31,4.13,.17,6.48-.95,1.96-.74,4.73-3.49,5.21-1.29,.23-4.46-4.47-4.71-6.46-.08-.65-.01-1.32-.01-2.28Z"/>
          <path d="M98.34,308.2c1.67,17.79-.98,31.5-6.13,44.9-5.95,15.48-16.8,24.67-33.27,27.36-12.82,2.09-25.51,1.97-38.11-1.37-10.11-2.68-14.53-8.04-14.99-18.43-.34-7.62-.61-15.26-.57-22.89,.04-8.96,.2-17.94,.77-26.89,.59-9.24-1.28-18.18-2.39-27.23-2.48-20.3-4.04-40.6-2.92-61.13,.99-18.07,1.22-36.21-.3-54.31-1.25-14.86,.4-29.54,2.99-44.14,2.29-12.97,3.28-26.03,3.61-39.17,.39-15.55,3.01-30.71,8.05-45.44,2.61-7.63,6.61-14.48,11.18-21.06,1.41-2.03,2.51-4.27,3.88-6.33,3.47-5.21,8.58-7.63,14.64-8.3,4.11-.46,8.23-.99,12.36-1.18,3.47-.16,6.98-.17,10.42,.24,11.51,1.38,22.69,4.17,32.26,10.98,9.04,6.44,18.87,9.37,29.9,9.39,7.3,0,14.63,.47,21.75,2.52,8.04,2.31,15.82,1.07,23.37-2.18,15.95-6.86,32.57-11.65,49.57-14.93,10.1-1.95,20.39-3.07,30.65-3.91,13.95-1.14,24.54,5.66,33.6,15.47,.22,.24,.39,.54,.6,.79,13.41,15.68,11.33,32.45,3.07,49.37-8.76,17.95-23.92,27.52-43.09,31.4-14.1,2.85-28.17,1.66-42.2-.51-10.21-1.58-20.35-3.26-30.76-1.62-8.46,1.33-16.62,3.53-24.26,7.3-6.03,2.98-12.24,4.33-18.84,3.45-6.79-.9-12.31,1.53-16.32,6.64-3.87,4.93-7.28,10.29-10.34,15.78-3.56,6.37-6.47,13.11-9.75,19.63-1.19,2.36-1.63,4.64-.55,7.13,.33,.76,.63,1.58,.67,2.39,.37,7.12,4.88,10.24,11.06,12.44,8.88,3.16,17.67,2.28,26.59,.72,3.76-.66,7.6-1.54,11.37-1.4,10.65,.39,20.88-1.76,30.97-4.6,19.82-5.58,35.47,2.37,49.59,14.98,5.28,4.72,7.52,11.21,7.72,18.36,.22,7.91-1.09,15.54-3.8,22.96-2.42,6.61-6.52,12.04-12.28,15.97-20.42,13.92-42.48,19.24-66.77,12.1-.96-.28-1.94-.51-2.87-.86-7.17-2.72-14.15-2.58-21.37,.3-5.06,2.01-10.5,3.12-15.82,4.47-5.51,1.4-7.63,4.05-8.19,9.74-.72,7.26-1.85,14.47-2.68,21.72-.87,7.57-1.61,15.15-2.06,19.37ZM12.38,341.68c-.34,6.55,.3,12.48,4.56,18.25,3.14,4.26,6.46,6.8,11.37,7.92,8.22,1.88,16.5,1.96,24.81,.95,12.14-1.47,22.04-6.19,26.7-18.52,3.91-10.32,6.88-20.76,6.45-32-.25-6.46-.01-12.97,.53-19.41,1-11.74,4.54-23.08,5.51-34.9,.76-9.24,6.72-14.76,14.86-16.67,6.78-1.59,13.5-3.45,20.14-5.53,4.85-1.52,9.7-2.48,14.72-1.64,3.92,.66,7.87,1.44,11.64,2.68,15.92,5.23,31.29,3.05,46.13-3.63,7.63-3.44,14.45-8.18,18.31-16.19,2.7-5.59,2.89-11.49,3.12-17.49,.24-6.22-2.17-11.12-7.12-14.56-10.12-7.04-20.75-11.42-33.67-7.96-8.14,2.18-16.66,3.44-25.08,3.96-8.63,.54-17.24,.8-25.83,2.15-11.11,1.74-21.5-.75-31.09-6.57-4.77-2.89-8.07-6.84-8.97-12.54-.26-1.62-.92-3.17-1.32-4.77-1.67-6.62-3.7-13.24,.99-19.57,.55-.75,.62-1.88,.83-2.85,1.9-9.04,5.34-17.53,10.23-25.29,8.35-13.25,19.55-21.53,36.36-19.67,3.49,.38,7.19-.75,10.73-1.48,2.09-.43,4.06-1.46,6.1-2.17,17.49-6.1,35.27-7.68,53.55-4.07,6.99,1.38,14.16,2.3,21.27,2.42,6.26,.11,12.6-.88,18.82-1.9,14.9-2.46,27.04-9.41,34.1-23.21,6.35-12.43,9.17-25.23-.56-37.43-5.91-7.41-13.53-12.22-23.41-12.35-11.37-.14-22.56,1.68-33.67,3.78-15.4,2.91-30.25,7.76-44.76,13.68-9.34,3.81-19,5.01-28.85,2.63-6.53-1.58-13.1-2.16-19.77-2.21-2.83-.02-5.65-.32-8.48-.4-9.09-.27-17.33-3.11-24.66-8.42-9.33-6.76-19.88-10.62-30.87-13.59-4.87-1.32-9.79-1.91-14.82-1.28-.95,.12-2.14,.03-2.82-.03-4.5-.4-3.55-.41-4.62,1.46-3.12,5.49-6.01,11.11-9.36,16.45-9.89,15.77-14.23,33.16-15.35,51.49-.96,15.58-1.62,31.17-4.8,46.55-2.63,12.74-3.64,25.67-2.78,38.67,1.44,21.78,.31,43.5-.79,65.26-.65,12.92-.35,25.92,.1,38.86,.46,13.1,2.02,26.16,2.38,39.26,.25,9.1-.7,18.24-1.12,27.36"/>
          <path d="M79.37,302.44c-.53,4.33-.94,8.78-1.68,13.18-.26,1.56-1.26,3.02-2.09,4.43-.24,.4-1.09,.58-1.66,.58-.25,0-.64-.71-.71-1.14-1.1-7.03-2.19-14.05-3.18-21.09-.21-1.46-.12-2.99,0-4.47,.16-2.04,1.24-3.42,3.34-3.74,2.28-.35,4.15,.58,4.66,2.76,.71,3.04,.89,6.2,1.32,9.49Z"/>
          <path d="M183.13,193.48c4.73,1.32,9.83,3.5,13.03,8.65,.42,.67,.63,1.53,.73,2.33,.3,2.37-.39,3.21-2.7,2.72-4.53-.97-9.02-2.17-13.49-3.38-3.91-1.05-5.2-2.73-4.69-5.77,.45-2.71,3.05-4.61,7.12-4.55Z"/>
          <path d="M269.82,37.86c-.14,.53-.62,1.03-1.08,1.8-.72-.49-1.47-.95-2.15-1.49-3.77-2.96-7.56-5.89-11.25-8.95-1.37-1.13-2.83-2.4-3.62-3.93-1.51-2.93,.44-5.75,3.75-5.75,.97,0,2.14,.1,2.87,.62,5.34,3.84,9.73,8.46,11.46,15.05,.16,.62,.34,1.34,.02,2.65Z"/>
          <path d="M85.68,107.49c1.66-5.53,3.33-11.54,5.34-17.43,.55-1.62,1.94-3.08,3.23-4.31,1.6-1.52,3.7-1.71,5.45-.28,1.72,1.4,1.25,3.21,.23,4.94-3.54,5.98-7.04,11.97-10.56,17.95-.17,.28-.37,.59-.48,.86-.31,.75-1.32,.74-1.98,1.1-.99-.58-1.23-1.17-1.23-2.82Z"/>
          <path d="M259.62,61.15c-3.18-3.45-5.82-6.09-8.16-8.96-1.13-1.39-.85-3.16,.53-4.5,1.38-1.33,4.04-1.41,5.4,.17,1.03,1.19,1.94,2.81,2.13,4.33,.34,2.7,.1,5.47,.1,8.96Z"/>
        </g>
      </g>
    </g>
  </g>
</svg>