<?xml version="1.0" encoding="UTF-8"?>
<svg xmlns="http://www.w3.org/2000/svg" viewBox="0 0 2278.33 388.82">
  <defs>
    <style>
      .cls-1 {
        fill: #110c0b;
      }

      .cls-2 {
        fill: #100c0a;
      }

      .cls-3 {
        fill: #6fab66;
      }

      .cls-4 {
        fill: #f4a757;
      }

      .cls-5 {
        fill: #100e0b;
      }

      .cls-6 {
        fill: #fafafe;
      }

      .cls-7 {
        fill: #70ab66;
      }

      .cls-8 {
        fill: #abbcdb;
      }

      .cls-9 {
        fill: #e87fa8;
      }

      .cls-10 {
        fill: #110d0b;
      }

      .cls-11 {
        fill: #100f0b;
      }

      .cls-12 {
        fill: #12100e;
      }

      .cls-13 {
        fill: #0f0d0a;
      }

      .cls-14 {
        fill: #14100e;
      }

      .cls-15 {
        fill: #14110e;
      }

      .cls-16 {
        fill: #d3d3d6;
      }

      .cls-17 {
        fill: #100d0a;
      }

      .cls-18 {
        fill: #abbcdc;
      }

      .cls-19 {
        fill: #54814d;
      }

      .cls-20 {
        fill: #e880a9;
      }

      .cls-21 {
        fill: #110c0a;
      }

      .cls-22 {
        fill: #ae265c;
      }

      .cls-23 {
        fill: #12100d;
      }

      .cls-24 {
        fill: #100e0c;
      }

      .cls-25 {
        fill: #e8871f;
      }

      .cls-26 {
        fill: #e77fa8;
      }

      .cls-27 {
        fill: #0f0c09;
      }

      .cls-28 {
        fill: #13100d;
      }

      .cls-29 {
        fill: #f4a857;
      }

      .cls-30 {
        fill: #16110f;
      }

      .cls-31 {
        fill: #13100e;
      }

      .cls-32 {
        fill: #ae444e;
      }

      .cls-33 {
        fill: #110f0c;
      }

      .cls-34 {
        fill: #aabbdb;
      }

      .cls-35 {
        fill: #0f0e0a;
      }

      .cls-36 {
        fill: #e980a9;
      }

      .cls-37 {
        fill: #eb8f98;
      }

      .cls-38 {
        fill: #0e0d09;
      }

      .cls-39 {
        fill: #0e0c09;
      }

      .cls-40 {
        fill: #8f9aae;
      }

      .cls-41 {
        fill: #0f0c0a;
      }

      .cls-42 {
        fill: #8e9ab3;
      }

      .cls-43 {
        fill: #ec8f98;
      }
    </style>
  </defs>
  <g id="_лой_1" data-name="Слой 1"/>
  <g id="_лой_2" data-name="Слой 2">
    <g id="_лой_1-2" data-name="Слой 1">
      <g>
        <g>
          <path class="cls-39" d="M1169.69,1.15l13.22,.1c11.35,1.84,19.67,8.57,26.92,16.86,3.58,4.09,4.52,9.21,4.27,14.51-.5,10.65-1.18,21.29-1.6,31.94-.23,5.82-.45,11.67-.06,17.47,.47,6.94,3.91,12.96,7.46,19.84,.51-1.99,.91-3.18,1.12-4.41,1.27-7.38,2.25-14.81,3.79-22.13,1.91-9.07,5.96-17.3,11.3-24.82,15.18-21.37,35.08-36.25,60.54-43.19,3.97-1.08,8.19-1.45,12.32-1.66,15.81-.8,32.69,16.41,30.07,32.83-.75,4.71,.39,9.17,1.39,13.78,1.63,7.45,2.73,15.05,3.51,22.64,.83,8.05,2.8,15.7,6.15,23.02,.19,.42,.59,.74,1.24,1.52,1.32-3.26,2.32-6.31,3.74-9.16,6.5-13.11,12.91-26.27,19.74-39.21,6.71-12.7,17.12-22,29.03-29.7,5.41-3.5,11.32-5.42,17.91-5.4,2.37,0,4.78-1.12,7.12-1.89,4.88-1.6,9.63-3.72,14.61-4.9,11.52-2.73,22.44,.38,33.14,4.37,3.11,1.16,6.06,2.73,9.13,4.02,6.65,2.81,11.86,7.22,15.71,13.37,3.61,5.78,7.93,11.16,11.03,17.19,2.31,4.48,3.8,9.62,4.57,14.63,2.59,16.85,.5,33.56-2.51,50.17-2.56,14.09-5.38,28.12-7.88,42.22-3.1,17.56-3.36,35.05,1,52.55,3.91,15.71,3.53,31.74,1.89,47.72-2.15,20.89-4.33,41.76-3.69,62.8,.26,8.49,1.03,16.97,1.16,25.46,.08,5.46-.36,10.96-1,16.39-.57,4.83-3.35,8.56-7.09,11.66-6.93,5.74-14.97,8.65-23.81,9.23-7.88,.52-15.63-.58-23.05-3.43-16.89-6.48-25.09-19.55-27.31-36.83-1.22-9.52,.35-18.96,2.1-28.31,4.77-25.54,5.44-51.32,4.73-77.18-.7-25.53,.13-50.97,3.65-76.29,1.04-7.48-.19-14.52-3.56-21.32-1.91-3.85-3.18-8.02-4.73-12.05-1.7-4.44-2.97-5.16-7.57-3.77-7.34,2.21-12.93,6.52-16.43,13.55-3.85,7.73-6.09,15.92-6.53,24.43-1.07,20.72-5.05,40.96-9.43,61.14-3.04,14.01-3.62,28.07-1.55,42.21,2.21,15.12,1.75,30.22,.34,45.36-.97,10.45-2.13,20.9-2.47,31.38-.44,13.17-6.91,22.06-18.36,27.41-12.12,5.67-24.96,6.61-38.06,4.03-8.82-1.74-14.36-7.09-15.79-15.86-1.53-9.34-2.7-18.78-3.25-28.23-.58-9.8-.16-19.65-.31-29.47-.14-8.99-.54-17.98-.64-26.98-.07-6.16,.18-12.32,.3-18.48,.17-9.16,.42-18.32,.51-27.48,.07-6.83-1.51-13.36-5.59-18.84-8.19-11.01-12.79-23.6-17.21-36.37-1.67-4.83-3.61-9.74-6.36-14-5.39-8.35-11.38-9.29-19.29-3.26-9.09,6.92-13.55,16.7-15.31,27.7-.73,4.57-.71,9.31-.59,13.96,.25,9.59-1.85,18.61-6.78,26.75-6,9.91-7.78,20.63-8.16,31.99-.36,10.63-1.07,21.34-2.83,31.81-2.45,14.6-3.17,29.06-1.18,43.74,1.36,10.08-.32,19.88-4.16,29.34-3.64,8.96-10.11,14.29-19.64,15.71-8.1,1.21-15.95,3.21-23.57,6.27-4.82,1.94-9.88,3.04-15.12,2.66-2.47-.18-5.24-.16-7.31-1.28-9.62-5.22-19.24-10.33-23.85-21.46-8.2-19.77-10.92-39.91-6.48-61.02,2.5-11.89,4.24-23.93,6.37-35.9,2.06-11.58,1.71-23.2,.95-34.87-1.42-21.97-1.69-43.95,1.11-65.86,1.79-14,.68-27.81-1.31-41.76-2.69-18.77-4.51-37.69-5.87-56.61-.99-13.76,1.45-27.25,7.47-39.84,1.18-2.46,5.56-10.21,12.67-15.73,14.51-11.26,33.68-7.43,37.24-6.66l-13.22-.1Zm337.17,80.77l-.94-.09c0-3.67,.32-7.37-.08-10.99-.51-4.58-.6-9.62-2.66-13.52-4.25-8.03-9.51-15.55-14.69-23.05-3.37-4.88-9.14-6.55-14.23-8.88-12.57-5.75-25.42-7.43-38.44-1.27-5.21,2.46-10.59,3.54-16.41,3.3-2.5-.1-5.37,.72-7.54,2.02-9.8,5.85-18.78,12.9-24.76,22.74-6.81,11.2-12.85,22.87-19.18,34.36-2.89,5.24-5.87,10.44-8.44,15.83-2.69,5.65-5.05,7.39-10.74,5.68-2.54-.76-4.86-2.79-6.82-4.71-1.62-1.58-2.76-3.75-3.79-5.82-4.46-9.05-6.86-18.59-7.04-28.73-.08-4.79-.37-9.66-1.34-14.33-1.11-5.4-2.35-10.77-1.74-16.25,.78-7.01-2.13-12.12-7.04-16.71-4.77-4.46-10.4-6.33-16.49-4.8-7.36,1.84-14.7,4.16-21.63,7.22-14.28,6.3-25.66,16.5-35.38,28.55-7.39,9.16-12.78,19.43-15.33,30.98-2.12,9.6-4.99,18.88-9.56,27.61-1.97,3.77-5.22,4.6-8.46,1.84-1.76-1.5-3.48-3.2-4.72-5.13-7.33-11.43-10.26-23.98-9.32-37.51,.72-10.27,1.27-20.55,1.88-30.82,.11-1.83-.05-3.71,.34-5.47,1.13-4.98-.91-8.79-4.36-11.95-2.44-2.23-5.09-4.33-7.94-6-2.68-1.57-5.68-3.31-8.65-3.52-5.73-.41-11.44-1.67-17.33-.43-7.15,1.51-13.26,4.37-17.3,10.62-9.29,14.4-10.67,30.49-9.37,46.97,.84,10.56,2.35,21.07,3.65,31.59,1.05,8.55,1.93,17.13,3.44,25.6,1.92,10.77,1.29,21.49,.34,32.24-.88,9.9-2.39,19.78-2.63,29.7-.42,17.49,.01,34.99-.12,52.49-.04,5.13-.36,10.32-1.25,15.37-2.57,14.5-5.72,28.89-8.19,43.41-1.43,8.44-2.63,16.9-1.84,25.63,.97,10.71,3.82,20.87,7.56,30.78,1.36,3.61,4.04,6.82,6.53,9.88,2.6,3.2,6.42,3.92,10.41,3.69,3.97-.24,7.96-.37,11.92-.78,2.6-.27,5.18-.89,7.73-1.47,6.6-1.5,13.13-3.46,19.8-4.52,11.74-1.87,13.92-4.58,17.27-13.78,3.36-9.21,2.59-18.83,1.58-28.17-.99-9.22-.79-18.29,.68-27.29,2.54-15.57,5.11-31.09,4.68-46.94-.07-2.64,.33-5.29,.56-7.94,.72-8.46,4.15-15.97,8.1-23.33,3.67-6.84,5.46-14.12,5.6-21.96,.12-6.6,.34-13.39,1.92-19.74,3.03-12.12,8.53-23.21,19.18-30.56,8.91-6.16,17.54-7.42,25.01-1.96,3.54,2.59,6.65,6.09,9.15,9.73,5.32,7.74,7.41,16.96,10.57,25.67,2.56,7.05,5.67,13.79,10.14,19.87,5.76,7.84,9.09,16.58,8.88,26.42-.23,10.97-.87,21.94-.88,32.91,0,13.8,.49,27.6,.68,41.41,.03,2.47-.64,4.95-.59,7.42,.18,8.64,.39,17.29,.88,25.92,.44,7.78,1.35,15.54,3.98,22.93,.67,1.9,2.04,4.14,3.71,4.95,2.75,1.33,5.97,1.98,9.06,2.28,3.8,.37,7.66,.02,11.49,.09,5.08,.1,9.99-.87,14.45-3.15,6.27-3.21,11.34-7.71,12-15.36,.8-9.26,1.36-18.54,2.09-27.8,.55-6.94,1.42-13.86,1.78-20.81,.27-5.14,.18-10.33-.18-15.46-.7-9.92-2.05-19.8-2.51-29.73-.64-13.88,2.58-27.32,5.5-40.77,3.42-15.7,6.24-31.52,7.27-47.57,.6-9.39,2.5-18.37,6.23-26.97,4.6-10.61,11.99-18.49,23.34-21.49,12.05-3.19,17.09,.28,20.77,10.15,.23,.62,.5,1.23,.74,1.85,1.63,4.16,3.28,8.32,4.87,12.5,.82,2.16,1.68,4.33,2.26,6.57,2.36,9.09,1.06,18.24-.37,27.22-1.93,12.15-3.13,24.36-3.47,36.61-.79,28.76,1.46,57.6-2.12,86.29-1.35,10.85-2.84,21.68-4.41,32.5-.91,6.32-1.06,12.59,.6,18.77,1.88,7.01,4.73,13.66,10.82,18.04,11.24,8.07,24.08,10.28,36.97,6.18,11.49-3.66,14.48-7.22,13.89-18.73-.56-10.94-1.55-21.88-1.67-32.83-.12-10.96,.36-21.95,1.03-32.9,.49-7.92,2.03-15.78,2.52-23.7,.66-10.61,.96-21.26,1.02-31.9,.02-4.6-.72-9.25-1.55-13.79-2.07-11.42-4.53-22.82-4.14-34.49,.28-8.28,.88-16.59,2.03-24.79,2.04-14.41,4.76-28.73,6.9-43.13,1.51-10.15,2.54-20.37,3.78-30.56Z"/>
          <path class="cls-39" d="M1078.85,98.47c-.56,7.28-.87,13.1-1.49,18.89-1.28,12.04-7.16,21.65-16.15,29.49-9.29,8.1-18.66,16.1-27.93,24.22-3.13,2.74-6.18,5.59-9.01,8.63-4.17,4.47-7.18,9.62-7.58,15.91-.37,5.84-3.55,9.81-8.12,13.06-5.29,3.77-10.52,7.63-15.59,11.69-2.71,2.17-5.3,4.61-7.48,7.31-4.24,5.25-4.47,9.99-.58,15.59,4.09,5.87,8.63,11.42,12.96,17.12,10.96,14.47,22.03,28.85,32.82,43.45,6.94,9.4,12.48,19.64,16.78,30.54,3.03,7.68,3.68,15.47,1.58,23.48-1.9,7.24-6.29,12.07-13.07,15.36-26.96,13.05-69.17,5.71-92.42-19.46-5.19-5.62-8.8-12.05-11.58-19.06-1.71-4.32-3.25-8.73-5.17-12.96-1.64-3.62-3.39-7.27-5.69-10.49-4.2-5.87-7.61-12.1-10.25-18.78-2.49-6.28-6-11.87-10.91-16.54-3.58-3.4-5.94-7.57-7.7-12.12-.9-2.33-1.67-4.71-2.69-6.98-.81-1.81-1.61-3.77-2.94-5.18-6.18-6.58-13.72-11.23-22.54-12.98-5.7-1.13-10.26,2.03-13.61,6.66-5.31,7.34-6.04,15.58-4.98,24.3,1.13,9.24,2.34,18.52,2.6,27.81,.18,6.6-1.47,13.24-1.73,19.88-.33,8.31,.06,16.64-.1,24.96-.1,4.97-.41,9.97-1.1,14.89-.75,5.31-4.09,9.01-8.81,11.4-2.22,1.12-4.55,2.03-6.84,3.01-5.35,2.29-10.82,4.33-16.03,6.89-7.47,3.68-14.7,3.35-22.08-.12-1.56-.73-3.47-1.16-5.18-1.07-8.18,.42-14.62-2.65-19.37-9.23-7.25-10.06-10.4-21.54-10.71-33.73-.17-6.63,.58-13.3,1.24-19.92,.34-3.43,.14-6.63-1.3-9.74-5.12-11.07-5.59-22.69-4.86-34.68,1.03-16.94,3.04-33.84,1.95-50.88-.66-10.36,.56-20.59,3.65-30.59,2.91-9.44,3.91-19.13,4.04-29.05,.39-29.65,1.11-59.3,2.03-88.94,.33-10.71,2.93-21.08,7.56-30.83,6.37-13.42,17.27-22.3,30.11-28.8,7.04-3.56,14.67-3.31,21.38,1.4,5.01,3.52,10.14,3.98,16.07,3.28,5.02-.6,10.53-.64,15.29,.82,17.71,5.43,34.82,2.77,52.05-2.07,11.19-3.14,22.51-5.86,33.86-8.36,4.84-1.07,9.91-1.54,14.87-1.54,15.48,0,30.98,.07,46.45,.67,9.51,.37,18.31,3.96,25.86,9.62,12.24,9.18,24.51,18.31,35.23,29.44,7.99,8.29,12.8,17.77,14.38,28.95,1.26,8.88,2.01,17.84,2.84,25.38Zm-314.07,227.44c-.81,10.05,1.47,19.56,5.26,28.71,3.7,8.94,9.55,15.22,20.29,14.52,1.15-.07,2.38-.07,3.48,.25,5.23,1.48,10.31,.43,15.14-1.33,7.17-2.61,14.16-5.73,21.24-8.59,3.23-1.3,5.11-3.66,5.64-7.04,.42-2.63,.88-5.28,.91-7.92,.16-13.97-.02-27.91,1.99-41.83,1.69-11.64-.76-23.21-2.29-34.74-1.5-11.29,1.13-21.5,8.03-30.49,6.05-7.87,17.08-11.13,26.42-7.7,4.33,1.59,8.33,4.08,12.53,6.07,9.57,4.55,14.94,12.36,17.57,22.36,1.17,4.43,3.26,8.31,6.72,11.45,5.28,4.8,8.65,10.81,11.42,17.35,2.71,6.41,6.07,12.54,9.13,18.8,2.98,6.11,6,12.2,8.86,18.37,2.38,5.12,4.05,10.62,6.91,15.44,7.34,12.36,18.57,20.51,31.7,25.47,11.15,4.21,22.78,6.49,35.09,5.41,7.65-.67,14.6-2.8,21.59-5.41,4.73-1.77,7.42-5.31,8.76-10.12,1.57-5.65,.3-11.02-1.98-15.99-3.25-7.08-6.51-14.32-10.96-20.64-12.07-17.13-24.75-33.83-37.22-50.68-4.85-6.55-10.15-12.79-14.57-19.61-5.51-8.48-5.26-17.36,.61-25.7,2.18-3.1,4.71-6.09,7.6-8.52,5.72-4.81,11.76-9.25,17.75-13.74,2.64-1.98,4.29-4.28,5.06-7.63,1-4.32,2.09-8.9,4.43-12.55,3.09-4.83,7.08-9.25,11.31-13.18,7.92-7.35,16.18-14.35,24.5-21.25,6.48-5.37,11.72-11.81,16.75-18.44,1.17-1.54,2.13-3.52,2.38-5.41,.84-6.41,1.94-12.89,1.82-19.32-.22-11.63-1.75-23.18-4.89-34.45-1.54-5.55-4.33-10.23-8.27-14.55-9.74-10.71-21.67-18.64-33.12-27.21-7.68-5.74-16.42-9.03-25.84-9.57-14.45-.83-28.94-.91-43.42-1.2-3.14-.06-6.37,0-9.43,.61-7.48,1.49-14.92,3.23-22.32,5.08-11.89,2.98-23.29,7.73-35.73,8.71-11.04,.87-21.92,1.3-32.53-2.49-4.63-1.66-9.44-2.66-14.21-1.6-8,1.76-15.14,.58-21.67-4.43-5.01-3.84-10.16-3.41-15.3-.16-13.34,8.43-22.59,19.65-26.11,35.53-2.62,11.81-2.89,23.76-3.48,35.67-.87,17.62-.97,35.29-1.22,52.93-.24,17-1.08,33.83-6.55,50.2-1.65,4.93-2.33,10.53-1.96,15.72,1.19,17.01,0,33.94-.83,50.89-.21,4.32-.44,8.66-1.09,12.92-1.31,8.61-.07,16.79,2.79,24.97,1.4,4,1.98,8.4,2.16,12.66,.19,4.45-.54,8.95-.87,13.42Z"/>
          <path class="cls-22" d="M1506.86,81.93c-1.24,10.19-2.27,20.41-3.78,30.56-2.14,14.4-4.87,28.72-6.9,43.13-1.16,8.2-1.75,16.51-2.03,24.79-.4,11.67,2.07,23.07,4.14,34.49,.82,4.55,1.57,9.2,1.55,13.79-.05,10.63-.35,21.28-1.02,31.9-.49,7.92-2.04,15.78-2.52,23.7-.67,10.95-1.15,21.94-1.03,32.9,.12,10.95,1.11,21.88,1.67,32.83,.59,11.51-2.4,15.07-13.89,18.73-12.88,4.1-25.72,1.9-36.97-6.18-6.1-4.38-8.94-11.03-10.82-18.04-1.66-6.17-1.51-12.45-.6-18.77,1.56-10.82,3.05-21.65,4.41-32.5,3.58-28.69,1.33-57.53,2.12-86.29,.34-12.26,1.54-24.46,3.47-36.61,1.42-8.98,2.72-18.13,.37-27.22-.58-2.23-1.43-4.4-2.26-6.57-1.59-4.18-3.24-8.33-4.87-12.5-.24-.62-.51-1.23-.74-1.85-3.69-9.87-8.72-13.33-20.77-10.15-11.36,3-18.74,10.88-23.34,21.49-3.74,8.6-5.63,17.58-6.23,26.97-1.03,16.05-3.85,31.87-7.27,47.57-2.93,13.45-6.15,26.9-5.5,40.77,.46,9.93,1.81,19.81,2.51,29.73,.36,5.13,.44,10.32,.18,15.46-.36,6.95-1.23,13.87-1.78,20.81-.74,9.26-1.3,18.54-2.09,27.8-.66,7.65-5.73,12.15-12,15.36-4.46,2.28-9.37,3.25-14.45,3.15-3.83-.07-7.69,.27-11.49-.09-3.09-.3-6.31-.94-9.06-2.28-1.67-.81-3.04-3.06-3.71-4.95-2.63-7.39-3.54-15.15-3.98-22.93-.49-8.63-.7-17.28-.88-25.92-.05-2.47,.62-4.95,.59-7.42-.18-13.8-.68-27.61-.68-41.41,0-10.97,.64-21.94,.88-32.91,.21-9.84-3.12-18.58-8.88-26.42-4.47-6.09-7.57-12.82-10.14-19.87-3.17-8.71-5.25-17.92-10.57-25.67-2.5-3.64-5.61-7.14-9.15-9.73-7.48-5.46-16.1-4.2-25.01,1.96-10.65,7.36-16.15,18.44-19.18,30.56-1.59,6.35-1.81,13.14-1.92,19.74-.14,7.84-1.93,15.12-5.6,21.96-3.95,7.36-7.38,14.87-8.1,23.33-.22,2.64-.63,5.3-.56,7.94,.42,15.85-2.15,31.38-4.68,46.94-1.47,9-1.67,18.06-.68,27.29,1,9.34,1.78,18.95-1.58,28.17-3.36,9.2-5.54,11.91-17.27,13.78-6.67,1.06-13.2,3.02-19.8,4.52-2.56,.58-5.13,1.2-7.73,1.47-3.96,.41-7.94,.55-11.92,.78-3.99,.24-7.8-.49-10.41-3.69-2.49-3.06-5.17-6.27-6.53-9.88-3.74-9.92-6.59-20.07-7.56-30.78-.79-8.74,.41-17.2,1.84-25.63,2.47-14.51,5.62-28.91,8.19-43.41,.89-5.04,1.21-10.24,1.25-15.37,.13-17.5-.3-35,.12-52.49,.24-9.92,1.75-19.8,2.63-29.7,.96-10.75,1.58-21.47-.34-32.24-1.51-8.47-2.38-17.05-3.44-25.6-1.3-10.52-2.81-21.03-3.65-31.59-1.3-16.48,.08-32.57,9.37-46.97,4.04-6.25,10.16-9.11,17.3-10.62,5.89-1.24,11.6,.02,17.33,.43,2.96,.21,5.96,1.95,8.65,3.52,2.85,1.67,5.5,3.76,7.94,6,3.45,3.16,5.49,6.96,4.36,11.95-.4,1.76-.23,3.64-.34,5.47-.62,10.27-1.16,20.55-1.88,30.82-.95,13.53,1.99,26.08,9.32,37.51,1.24,1.93,2.96,3.63,4.72,5.13,3.24,2.76,6.49,1.93,8.46-1.84,4.57-8.73,7.44-18.01,9.56-27.61,2.55-11.54,7.94-21.82,15.33-30.98,9.72-12.05,21.1-22.25,35.38-28.55,6.93-3.06,14.27-5.38,21.63-7.22,6.09-1.52,11.72,.34,16.49,4.8,4.91,4.59,7.82,9.7,7.04,16.71-.61,5.49,.63,10.85,1.74,16.25,.97,4.67,1.25,9.54,1.34,14.33,.18,10.14,2.58,19.69,7.04,28.73,1.02,2.07,2.17,4.24,3.79,5.82,1.97,1.92,4.29,3.95,6.82,4.71,5.69,1.71,8.05-.03,10.74-5.68,2.57-5.39,5.56-10.59,8.44-15.83,6.33-11.49,12.36-23.16,19.18-34.36,5.99-9.84,14.96-16.89,24.76-22.74,2.17-1.3,5.04-2.12,7.54-2.02,5.82,.24,11.2-.84,16.41-3.3,13.02-6.15,25.86-4.47,38.44,1.27,5.09,2.33,10.86,4,14.23,8.88,5.18,7.5,10.44,15.02,14.69,23.05,2.06,3.9,2.15,8.94,2.66,13.52m-142.74,221.44c.25-1.44,.62-2.87,.71-4.33,.19-2.81-1.47-5.43-3.49-5.77-2.62-.44-4.38,.67-5.62,3.69-.37,.89-.73,1.9-.68,2.83,.18,3.26,.65,6.5,.81,9.76,.13,2.63,1.58,4.19,3.93,5.57,1.02-1.67,2.02-3.31,3.02-4.95,.45,6.64,.61,13.32,2.78,20.74,.68-1.14,1.11-1.54,1.16-1.98,.82-7.2,1.78-14.38,2.3-21.6,.27-3.77-.39-4.04-4.92-3.95Zm-51.11-204.11c-4.97,.08-7.21,1.81-6.97,5.38,.37,5.57,8.57,12.36,15.19,12.08-1.39-4.27-2.74-8.4-4.09-12.53l3.89,.85c-.63-4.38-.83-8.21-2.22-11.86-.71-1.86-2.59-2.48-4.07-1.74-1.21,.6-2.31,2.23-2.61,3.6-.28,1.29,.55,2.81,.88,4.24Zm171.02,186.91c1.73-2.09,1.18-4.09-1.33-4.82-4.14-1.2-7.56,.72-8.63,5.16-1.13,4.69-.29,9.46,.23,14.12,.38,3.4,2.15,3.92,5.63,2.61,.49,3.28,.99,6.57,1.63,10.83,1.11-1.54,1.78-2.11,1.98-2.81,1.87-6.65,3.85-13.28,5.41-20.01,.91-3.93-.17-4.78-4.91-5.08Zm-9.97-180.88c-.26-.19-.59-.32-.78-.57-2.65-3.53-4.49-4.28-7.3-2.95-2.72,1.29-3.83,3.98-2.35,7.62,1.66,4.09,3.81,8.01,6,11.86,.61,1.08,2.12,1.64,3.31,2.5,2.66-5.06,1.84-9.91,2.15-14.61,.91,1.68,1.81,3.36,2.71,5.04,2.51,.34,3.32-1.61,3.76-3.25,1.43-5.2,1.29-10.45-.91-15.44-1.34-3.03-4.29-4.18-6.91-3.04-1.77,.77-2.35,3.08-1.52,6.2,.59,2.22,1.22,4.42,1.83,6.63Zm-110.09,108.97c.53,1.92,1.06,3.85,1.92,6.95,4.62-8.65,7.74-16.61,8.18-25.48,0-.16-.02-.33-.03-.5-.21-1.96-1.34-2.83-3.26-3.1-2.09-.3-3.43,.69-4.65,2.13-.41-.86-.59-2.02-1.26-2.52-3.3-2.45-8.19-.48-9.84,4-1.65,4.48-1.5,9.07-.14,13.61,1.67,5.56,3.41,6.46,9.08,4.91Zm-61.94-155.09c1.66,3.56,3.35,7.11,4.97,10.69,1.59,3.51,3.11,7.04,4.76,10.8,2.52-1.79,3.12-3.75,3.26-5.97,.45-7.2-.03-14.28-2.81-21.02-.67-1.64-1.64-3.25-2.81-4.57-2.04-2.29-4.63-2.83-7.65-1.92-3.18,.96-3.91,3.27-3.92,6.14-3.34-2.45-6.1-2.81-8.61-1.12-2.41,1.62-3.52,5.44-2.36,8.84,2.23,6.5,5.37,12.47,10.5,17.25,1.87,1.75,3.76,2.64,6.29,1.54,2.07-3.41,1.65-6.99,.8-10.59-.79-3.36-1.61-6.71-2.42-10.06Zm158.93-11.87c-6.11,.06-10.84,4.39-9.73,9.65,1.32,6.31,3.75,12.43,7.94,17.4,3.59,4.25,8.55,3.36,9.91-2.31,.76-3.15,.66-6.51,.95-9.77,3.2,6,6.26,12.06,8.32,18.79,1.25-1.46,2.38-2.84,2.54-4.33,1.03-9.47-.54-18.54-5.51-26.73-3.39-5.59-9.03-6.43-14.43-2.7Zm-282.37,27.03c2.9-9.88,.65-18.34-5.15-25.93-2.45-3.21-5.82-3.71-8.58-1.49-2.61,2.1-2.27,4.68,.34,8.21,3.91,5.28,7.49,10.79,11.22,16.2,.7,1.02,1.44,2,2.16,3.01Zm16.99,201.16c.99-.71,1.56-.91,1.74-1.29,3.58-7.53,4.24-15.57,3.5-23.7-.29-3.23-3.99-4.13-6.55-2.03-1.65,1.35-2.34,3.02-2.36,5.21-.07,7.32,1.63,14.3,3.67,21.81Zm-6.25-191.36c-1.19-2.65-4.37-3.79-6.94-3.07-3.59,1.01-4.43,2.13-4.5,6.01-.09,4.88,2.8,9.4,7.25,11.34,3.35,1.46,5.48,.32,5.89-3.23,.11-.98,.02-1.99,.02-2.98m-5.7-33.05c.69-2.13,1.64-3.54,1.46-4.78-.73-5.03-1.42-10.19-4.79-14.3-1.21-1.47-2.91-2.75-4.65-3.5-2.19-.94-4.16,.02-5.49,2.06-1.39,2.11-.55,3.7,1.1,5.19,1.33,1.2,2.71,2.39,3.8,3.79,2.72,3.49,5.28,7.09,8.58,11.55Zm13.91,270.46l-1.08,.03c-.87,2.88-1.83,5.74-2.59,8.66-1.41,5.41-3.25,10.8-2.59,16.5,.14,1.21,1.16,2.81,2.21,3.32,1.71,.82,3.16-.28,3.91-2.03,.32-.75,.8-1.52,.84-2.3,.38-6.58,.79-13.17,.92-19.76,.03-1.46-1.05-2.94-1.62-4.4Zm283.43,13.82c-1.59,1.48-2.51,1.99-2.91,2.77-2.57,5.1-3.16,10.71-3.59,16.27-.23,3.03,2.31,5.56,4.63,5.54,1.93-.01,3.91-2.6,4.12-5.42,.06-.82,.14-1.67,.03-2.48-.68-5.19-1.41-10.37-2.28-16.68Zm-274.09-94.66c-.88,1.5-1.53,2.25-1.78,3.12-1.62,5.67-3.23,11.35-4.67,17.07-.3,1.21-.34,2.95,.32,3.82,.86,1.15,2.47,2.13,3.89,2.36,1.66,.27,2.63-1.17,2.71-2.87,.3-6.59,.6-13.18,.77-19.77,.03-.99-.64-2.01-1.23-3.73Zm263.6,106.64c3.43-8.54,2.63-12.73-2.6-14.83-4.56,3.94-3.67,9.72,2.6,14.83Zm-282.98-2.36c.53-2.22,1.49-4.5,1.45-6.77-.02-1.32-1.37-3.12-2.6-3.75-.89-.46-3.11,.25-3.79,1.15-.82,1.1-1.11,3.04-.8,4.44,.56,2.56,2.44,4.21,5.74,4.93Zm-2.42-275.44c1.89-3.81,1.74-7.13,.14-10.29-.47-.92-2.02-1.85-3.04-1.81-1.86,.06-2.03,1.79-2.02,3.36,.02,3.43,2.03,5.76,4.92,8.75Z"/>
          <path class="cls-40" d="M764.77,325.91c.33-4.48,1.06-8.97,.87-13.42-.18-4.25-.76-8.66-2.16-12.66-2.86-8.18-4.1-16.36-2.79-24.97,.65-4.26,.88-8.6,1.09-12.92,.82-16.95,2.02-33.88,.83-50.89-.36-5.19,.32-10.79,1.96-15.72,5.47-16.37,6.31-33.21,6.55-50.2,.25-17.65,.34-35.31,1.22-52.93,.59-11.91,.86-23.86,3.48-35.67,3.52-15.88,12.77-27.1,26.11-35.53,5.14-3.25,10.29-3.68,15.3,.16,6.53,5.01,13.67,6.2,21.67,4.43,4.77-1.05,9.58-.05,14.21,1.6,10.61,3.8,21.49,3.36,32.53,2.49,12.45-.98,23.84-5.73,35.73-8.71,7.4-1.85,14.84-3.59,22.32-5.08,3.06-.61,6.29-.67,9.43-.61,14.48,.29,28.97,.37,43.42,1.2,9.41,.54,18.16,3.82,25.84,9.57,11.45,8.57,23.38,16.51,33.12,27.21,3.94,4.32,6.72,9,8.27,14.55,3.14,11.27,4.67,22.81,4.89,34.45,.12,6.43-.97,12.9-1.82,19.32-.25,1.89-1.21,3.87-2.38,5.41-5.03,6.63-10.26,13.07-16.75,18.44-8.33,6.9-16.58,13.89-24.5,21.25-4.23,3.92-8.21,8.34-11.31,13.18-2.33,3.65-3.43,8.23-4.43,12.55-.77,3.35-2.42,5.66-5.06,7.63-5.99,4.49-12.03,8.93-17.75,13.74-2.89,2.43-5.42,5.42-7.6,8.52-5.87,8.35-6.12,17.22-.61,25.7,4.43,6.82,9.73,13.06,14.57,19.61,12.47,16.85,25.15,33.55,37.22,50.68,4.45,6.33,7.71,13.57,10.96,20.64,2.28,4.97,3.55,10.35,1.98,15.99-1.34,4.82-4.03,8.35-8.76,10.12-6.99,2.61-13.94,4.75-21.59,5.41-12.31,1.07-23.94-1.2-35.09-5.41-13.14-4.96-24.37-13.11-31.7-25.47-2.86-4.82-4.54-10.32-6.91-15.44-2.86-6.16-5.89-12.26-8.86-18.37-3.05-6.26-6.41-12.39-9.13-18.8-2.77-6.54-6.14-12.56-11.42-17.35-3.46-3.14-5.55-7.02-6.72-11.45-2.63-10-8-17.81-17.57-22.36-4.19-1.99-8.19-4.48-12.53-6.07-9.34-3.43-20.38-.17-26.42,7.7-6.91,8.99-9.53,19.2-8.03,30.49,1.53,11.53,3.98,23.1,2.29,34.74-2.02,13.92-1.83,27.86-1.99,41.83-.03,2.64-.5,5.3-.91,7.92-.53,3.38-2.41,5.73-5.64,7.04-7.08,2.86-14.07,5.98-21.24,8.59-4.83,1.76-9.91,2.81-15.14,1.33-1.1-.31-2.33-.32-3.48-.25-10.74,.7-16.59-5.58-20.29-14.52-3.79-9.15-6.07-18.66-5.26-28.71Zm51.37-60.75c2.05,4.27,2.24,9.4,6.02,13.64,.75-1.76,1.59-2.88,1.68-4.07,.49-6.25,1-12.52,1.06-18.78,.04-3.8-1.84-6.13-4.2-6.58-2.44-.47-3.88,.85-5.56,5.08-.06-.66-.14-1.32-.19-1.98-.19-2.86-1.91-5.91-4.04-6.08-1.83-.14-4.17,.1-5.51,1.15-2.43,1.9-1.9,4.77-.56,7.24,1.73,3.19,3.53,6.35,5.54,9.36,2.12,3.16,2.25,3.07,5.75,1.03Zm149.73,.07c-.32-.7-.65-1.4-.97-2.1-1.38-3.12-2.5-6.4-4.21-9.32-1.61-2.75-4.64-3.02-7.51-2.51-2.78,.49-3.69,3.15-3.69,5.24,0,2.29,.98,4.79,2.17,6.84,3.47,5.98,7.26,11.78,12.47,16.45,1.52,1.37,3.33,2.42,5.95,4.29,.28-2.56,.8-4.11,.53-5.5-.68-3.51-1.72-6.96-2.62-10.43,1.64,1.83,3.31,3.63,4.9,5.49,1.72,2.01,3.34,4.1,5.07,6.1,1.49,1.73,1.66,4.62,4.44,5.34,.24-.53,.51-.84,.48-1.11-1.09-8.49-5.5-15.39-10.63-21.92-1.19-1.51-2.78-2.49-4.78-1.63-2.23,.96-1.5,3.03-1.59,4.78Zm-119.87-201.04c2.16,.38,4.32,.77,6,1.07,3.4-4.84,.81-8.78-.08-12.82,5.56,1.35,11.04,4.41,17.25,.96-.51-.77-.74-1.43-1.2-1.77-3.69-2.77-7.39-5.53-11.16-8.2-1.47-1.04-3.04-2.05-4.7-2.72-4.07-1.64-6.83,.16-7.12,4.47-.04,.66,.05,1.32,.08,1.98-.37-.98-.8-1.95-1.08-2.95-.21-.77,.05-1.86-.4-2.35-4.69-5.14-12.26-7.37-16.62-.65-.49,1.32-1.05,2.62-1.46,3.96-1.54,5.02-.78,7.41,3.38,10.51,5.19,3.87,10.75,7.01,17.12,8.51Zm169.15-25.74c-2.05-2.93-4.97-4.57-8.41-4.03-6.54,1.03-9.11,7.14-5.18,12.66,3.33,4.67,7.27,8.92,11.08,13.24,2.95,3.34,6.26,6.28,10.49,7.79,2.1-1.11,2.75-2.67,2.94-4.9,.53-6.13-1.79-11.25-5.03-16.14,5.14,3.61,10.27,7.22,15.44,10.86,.18-.46,.36-.76,.41-1.08,1.38-8.53-9.42-19.27-15.76-19.78-1.94-.16-3.98,.89-5.98,1.38Zm-103,133.76c8.64-1.54,17.3-2.95,25.91-4.64,8.64-1.7,15.31-6.44,19.49-14.22,4.24-7.9,8.32-15.89,12.1-24.02,2.52-5.43,2.91-11.31,.82-17-1.76-4.78-1.01-9.08,1.28-13.35,1.49-2.78,3.18-5.47,4.5-8.33,2.11-4.59,.21-8.69-4.61-9.43-11.75-1.79-23.49-2.36-34.95,1.83-3.74,1.37-7.47,2.75-11.24,4.05-7.32,2.53-14.89,3.09-22.58,3.16-7.65,.07-14.29,2.69-19.33,8.75-6.15,7.38-9.3,16-10.51,25.39-.39,3,.11,5.88,1.79,8.6,.81,1.31,.94,3.11,1.17,4.72,.88,6.25,1.35,12.65,5.06,18.05,7.45,10.83,17.71,16.27,31.11,16.44Zm64.09-93.1c-.97-2.35-1.31-4.04-2.24-5.28-3.69-4.91-8.9-7.08-14.87-7.61-3.11-.28-5.42,1.3-7.21,3.59-2.43,3.1-.1,9.04,3.82,9.22,6.57,.3,13.16,.08,20.5,.08Zm55.96,16.17c1.02-.41,1.53-.49,1.86-.78,.62-.54,1.27-1.12,1.66-1.82,3.62-6.36,4.1-13.38,4.12-20.47,0-1.09-.52-2.25-1.05-3.26-.88-1.68-2.15-2.75-4.29-2.81-4.35-.12-7.24,3.65-6.34,8.46,.33,1.76,.46,3.55,.81,5.31,1.02,5.05,2.11,10.09,3.22,15.37Zm-10.09,32.97c.32-1.91-1.55-3.54-3.56-4.63-2.01-1.09-4.01-.46-5.84,1.23-4.01,3.71-5.07,8.78-6.58,13.61-.53,1.71,.99,2.93,2.69,2.65,2.06-.34,4.29-.83,5.98-1.96,3.58-2.37,7.03-5.07,7.3-10.91Zm-39.46,162.93c-4.15,.01-5.53,2.48-3.75,5.64,3.88,6.9,8.05,13.64,12.19,20.39,.3,.49,1.35,.73,2.03,.69,.3-.02,.82-1.05,.76-1.56-.16-1.46-.84-2.89-.83-4.33,.03-6.81-3.53-12.26-6.74-17.78-.89-1.52-2.85-2.41-3.65-3.05Zm-167.71,24.56c.62-2.33,1.13-3.81,1.38-5.34,.61-3.69,1.24-7.39,1.58-11.1,.21-2.31-1.37-3.63-3.52-4.05-1.83-.36-4.21,1.23-4.29,3.21-.24,5.88,.32,11.63,4.85,17.28Zm202.63-168.24c4.57-3.26,8.87-6.18,12.97-9.38,.81-.63,1.39-2.53,1.04-3.43-.45-1.15-1.82-2.32-3.04-2.71-2.7-.86-5.03,.54-6.32,2.74-1.98,3.37-3.51,7.02-5.13,10.59-.2,.43,.23,1.14,.48,2.19Zm27.78-68.54c.64-3.44,1.33-5.85,1.46-8.28,.14-2.61,.04-5.32-.5-7.87-.68-3.17-2.39-4.21-4.85-3.68-2.24,.49-3.3,2.57-2.34,5.64,1.23,3.93,2.79,7.76,4.29,11.61,.26,.68,.9,1.22,1.94,2.57Zm-222.89,237.64c3.57-3.85,4.24-8.01,4.38-12.3,.07-2.21-1.07-3.81-3.4-4.12-2.5-.33-3.69,1.4-4.1,3.41-.9,4.5-.25,8.74,3.12,13Zm172.08-14.64c-.97,6.01,3.49,15.03,8.19,16.95,.8-5.98-1.57-10.97-4.46-15.72-.51-.83-2.4-.83-3.73-1.23Zm-4.88-113.36c4.16-2.48,7.61-4.5,11.02-6.58,1.65-1.01,2.87-2.34,1.86-4.46-.75-1.58-3.37-2.33-5.24-1.1-4.05,2.67-6.61,6.43-7.65,12.15Z"/>
          <path class="cls-36" d="M1469.01,51.2c-.29,3.26-.19,6.62-.95,9.77-1.36,5.66-6.32,6.56-9.91,2.31-4.2-4.97-6.62-11.09-7.94-17.4-1.1-5.26,3.62-9.59,9.73-9.65-.27,2.18-.28,4.23,2.04,5.48,3.82,2.06,5.8,5.51,7.03,9.5Z"/>
          <path class="cls-9" d="M1301.01,48.09c.81,3.35,1.63,6.7,2.42,10.06,.85,3.6,1.27,7.18-.8,10.59-2.53,1.1-4.42,.21-6.29-1.54-5.13-4.78-8.27-10.74-10.5-17.25-1.17-3.4-.05-7.22,2.36-8.84,2.51-1.69,5.27-1.33,8.61,1.12,1.4,1.95,2.8,3.9,4.2,5.85Z"/>
          <path class="cls-27" d="M1469.01,51.2c-1.23-3.99-3.21-7.44-7.03-9.5-2.32-1.25-2.3-3.3-2.04-5.48,5.4-3.73,11.03-2.89,14.43,2.7,4.97,8.19,6.54,17.26,5.51,26.73-.16,1.49-1.3,2.88-2.54,4.33-2.06-6.73-5.13-12.79-8.32-18.79Z"/>
          <path class="cls-27" d="M1301.01,48.09c-1.4-1.95-2.8-3.9-4.2-5.85,.01-2.87,.74-5.18,3.92-6.14,3.02-.91,5.61-.37,7.65,1.92,1.17,1.32,2.13,2.93,2.81,4.57,2.78,6.74,3.26,13.82,2.81,21.02-.14,2.23-.75,4.19-3.26,5.97-1.65-3.75-3.17-7.29-4.76-10.8-1.62-3.58-3.31-7.13-4.97-10.69Z"/>
          <path class="cls-36" d="M1177.57,63.25c-.72-1-1.46-1.99-2.16-3.01-3.73-5.41-7.31-10.92-11.22-16.2-2.61-3.53-2.95-6.11-.34-8.21,2.75-2.22,6.12-1.72,8.58,1.49,5.8,7.59,8.04,16.05,5.15,25.93Z"/>
          <path class="cls-9" d="M1362.94,203.18c-5.67,1.55-7.41,.65-9.08-4.91-1.36-4.53-1.52-9.12,.14-13.61,1.65-4.48,6.54-6.44,9.84-4,.67,.5,.85,1.66,1.26,2.52-.72,6.66-1.44,13.33-2.16,19.99Z"/>
          <path class="cls-36" d="M1194.56,264.41c-2.04-7.5-3.74-14.49-3.67-21.81,.02-2.19,.71-3.85,2.36-5.21,2.57-2.1,6.26-1.19,6.55,2.03,.74,8.12,.08,16.16-3.5,23.7-.18,.38-.75,.57-1.74,1.29Z"/>
          <path class="cls-36" d="M1190.03,81.11c0,.99,.1,2-.02,2.98-.41,3.55-2.54,4.69-5.89,3.23-4.46-1.94-7.34-6.46-7.25-11.34,.07-3.88,.91-5,4.5-6.01,2.57-.72,5.75,.42,6.94,3.07"/>
          <path class="cls-9" d="M1474.06,98.06c-.3,4.7,.51,9.55-2.15,14.61-1.19-.86-2.69-1.43-3.31-2.5-2.19-3.85-4.34-7.76-6-11.86-1.48-3.64-.38-6.33,2.35-7.62,2.81-1.33,4.65-.58,7.3,2.95,.18,.24,.51,.38,.78,.57,.34,1.29,.69,2.57,1.03,3.86Z"/>
          <path class="cls-17" d="M1362.94,203.18c.72-6.66,1.44-13.33,2.16-19.99,1.21-1.44,2.56-2.43,4.65-2.13,1.92,.28,3.06,1.14,3.26,3.1,.02,.17,.04,.33,.03,.5-.44,8.87-3.56,16.83-8.18,25.48-.86-3.11-1.39-5.03-1.92-6.95Z"/>
          <path class="cls-26" d="M1478.9,292.16c-3.48,1.32-5.25,.8-5.63-2.61-.52-4.66-1.37-9.44-.23-14.12,1.07-4.44,4.49-6.36,8.63-5.16,2.51,.73,3.06,2.73,1.33,4.82-2.67,1.55-2.7,4.28-3.01,6.85-.41,3.4-.73,6.81-1.1,10.22Z"/>
          <path class="cls-2" d="M1184.33,48.06c-3.29-4.46-5.86-8.06-8.58-11.55-1.09-1.4-2.47-2.59-3.8-3.79-1.65-1.49-2.48-3.08-1.1-5.19,1.34-2.03,3.3-3,5.49-2.06,1.74,.75,3.45,2.03,4.65,3.5,3.37,4.11,4.06,9.27,4.79,14.3,.18,1.24-.77,2.65-1.46,4.78Z"/>
          <path class="cls-41" d="M1198.25,318.52c.57,1.47,1.64,2.95,1.62,4.4-.12,6.59-.54,13.18-.92,19.76-.05,.78-.52,1.55-.84,2.3-.75,1.75-2.2,2.85-3.91,2.03-1.05-.51-2.08-2.1-2.21-3.32-.65-5.7,1.18-11.09,2.59-16.5,.76-2.91,1.72-5.77,2.59-8.66l1.08-.03Z"/>
          <path class="cls-41" d="M1474.06,98.06c-.34-1.29-.69-2.57-1.03-3.86-.61-2.21-1.24-4.42-1.83-6.63-.83-3.12-.26-5.42,1.52-6.2,2.62-1.14,5.58,0,6.91,3.04,2.21,4.99,2.34,10.24,.91,15.44-.45,1.63-1.26,3.59-3.76,3.25-.9-1.67-1.81-3.35-2.71-5.04Z"/>
          <path class="cls-9" d="M1316.11,93.09c1.35,4.13,2.7,8.26,4.09,12.53-6.63,.29-14.82-6.5-15.19-12.08-.24-3.57,2.01-5.3,6.97-5.38,1.37,1.64,2.75,3.28,4.12,4.92Z"/>
          <path class="cls-9" d="M1361.77,299.08c-1,1.64-2,3.27-3.02,4.95-2.35-1.38-3.8-2.94-3.93-5.57-.16-3.26-.63-6.5-.81-9.76-.05-.93,.31-1.94,.68-2.83,1.24-3.02,3-4.13,5.62-3.69,2.02,.34,3.68,2.96,3.49,5.77-.1,1.45-.47,2.88-.71,4.33-.44,2.27-.88,4.53-1.32,6.8Z"/>
          <path class="cls-17" d="M1478.9,292.16c.36-3.41,.69-6.82,1.1-10.22,.31-2.57,.34-5.3,3.01-6.85,4.73,.3,5.81,1.15,4.91,5.08-1.56,6.73-3.54,13.36-5.41,20.01-.2,.7-.87,1.27-1.98,2.81-.64-4.26-1.13-7.54-1.63-10.83Z"/>
          <path class="cls-2" d="M1481.68,332.34c.87,6.31,1.6,11.49,2.28,16.68,.11,.81,.03,1.66-.03,2.48-.21,2.82-2.2,5.41-4.12,5.42-2.32,.01-4.86-2.52-4.63-5.54,.43-5.56,1.02-11.17,3.59-16.27,.39-.78,1.32-1.29,2.91-2.77Z"/>
          <path class="cls-1" d="M1207.59,237.68c.59,1.73,1.26,2.74,1.23,3.73-.17,6.59-.48,13.18-.77,19.77-.08,1.7-1.05,3.14-2.71,2.87-1.42-.23-3.02-1.21-3.89-2.36-.66-.88-.62-2.61-.32-3.82,1.44-5.72,3.04-11.4,4.67-17.07,.25-.87,.9-1.61,1.78-3.12Z"/>
          <path class="cls-41" d="M1361.77,299.08c.44-2.27,.88-4.53,1.32-6.8,4.53-.08,5.19,.18,4.92,3.95-.52,7.22-1.48,14.41-2.3,21.6-.05,.44-.48,.84-1.16,1.98-2.17-7.42-2.33-14.1-2.78-20.74Z"/>
          <path class="cls-20" d="M1471.19,344.32c-6.27-5.11-7.16-10.89-2.6-14.83,5.23,2.1,6.03,6.29,2.6,14.83Z"/>
          <path class="cls-10" d="M1316.11,93.09c-1.37-1.64-2.75-3.28-4.12-4.92-.34-1.42-1.17-2.95-.88-4.24,.3-1.36,1.4-3,2.61-3.6,1.48-.73,3.36-.12,4.07,1.74,1.39,3.64,1.6,7.48,2.22,11.86l-3.89-.85Z"/>
          <path class="cls-9" d="M1188.2,341.96c-3.29-.72-5.17-2.38-5.74-4.93-.31-1.4-.02-3.34,.8-4.44,.68-.9,2.9-1.61,3.79-1.15,1.24,.63,2.58,2.43,2.6,3.75,.03,2.27-.93,4.55-1.45,6.77Z"/>
          <path class="cls-21" d="M1185.78,66.52c-2.89-2.99-4.9-5.32-4.92-8.75-.01-1.57,.16-3.3,2.02-3.36,1.02-.03,2.57,.89,3.04,1.81,1.6,3.17,1.75,6.48-.14,10.29Z"/>
          <path class="cls-39" d="M912.16,172.22c-13.4-.17-23.66-5.6-31.11-16.44-3.71-5.4-4.18-11.8-5.06-18.05-.23-1.61-.35-3.4-1.17-4.72-1.69-2.72-2.18-5.6-1.79-8.6,1.21-9.39,4.36-18.01,10.51-25.39,5.04-6.05,11.68-8.67,19.33-8.75,7.69-.07,15.26-.63,22.58-3.16,3.76-1.3,7.5-2.68,11.24-4.05,11.46-4.19,23.2-3.63,34.95-1.83,4.82,.74,6.72,4.83,4.61,9.43-1.31,2.86-3,5.55-4.5,8.33-2.29,4.26-3.04,8.57-1.28,13.35,2.09,5.69,1.7,11.58-.82,17-3.77,8.13-7.86,16.12-12.1,24.02-4.18,7.78-10.85,12.52-19.49,14.22-8.61,1.7-17.27,3.11-25.91,4.64Zm-31.66-52.17c2.2,5.19,4.14,9.03,5.46,13.06,1.34,4.09,2.1,8.37,3.04,12.59,.79,3.56,2.77,6.3,5.42,8.74,5.54,5.07,12.2,6.82,19.39,6.03,6.59-.72,13.09-2.31,19.66-3.31,7.07-1.08,12.46-4.66,15.94-10.78,3.53-6.2,6.64-12.64,9.98-18.95,2.52-4.78,3.22-9.68,1.4-14.9-2.03-5.83-1.16-11.47,1.47-16.93,.93-1.92,1.83-3.85,2.79-5.86-.72-.25-1.17-.46-1.64-.55-9.8-1.99-19.18-.31-28.3,3.33-8.89,3.55-18,5.85-27.64,5.68-1.99-.04-3.98,.28-5.97,.36-5.99,.21-10.56,3.07-13.62,7.99-2.96,4.75-5.39,9.83-7.37,13.5Z"/>
          <path class="cls-18" d="M1021.04,47.08c3.24,4.89,5.56,10.01,5.03,16.14-.19,2.23-.85,3.79-2.94,4.9-4.23-1.51-7.54-4.45-10.49-7.79-3.81-4.32-7.75-8.57-11.08-13.24-3.93-5.51-1.35-11.63,5.18-12.66,3.44-.54,6.36,1.1,8.41,4.03-.93,3.37,.15,5.72,3.47,7.03,.88,.35,1.62,1.05,2.42,1.59Z"/>
          <path class="cls-18" d="M851.92,52.44c.89,4.04,3.48,7.99,.08,12.82-1.68-.3-3.84-.68-6-1.07-4.42-3.86-8.53-8.17-13.34-11.45-4.37-2.98-6.27-6.47-5.69-11.54,4.37-6.71,11.94-4.48,16.62,.65,.45,.49,.18,1.58,.4,2.35,.28,1.01,.71,1.97,1.08,2.95l6.85,5.28Z"/>
          <path class="cls-18" d="M967.98,268.19c.9,3.47,1.94,6.92,2.62,10.43,.27,1.39-.25,2.94-.53,5.5-2.62-1.87-4.42-2.92-5.95-4.29-5.2-4.67-8.99-10.47-12.47-16.45-1.19-2.04-2.18-4.55-2.17-6.84,0-2.1,.91-4.76,3.69-5.24,2.87-.51,5.9-.23,7.51,2.51,1.72,2.92,2.83,6.2,4.21,9.32,.31,.71,.64,1.4,.97,2.1,.7,.98,1.41,1.97,2.11,2.95Z"/>
          <path class="cls-34" d="M976.25,79.13c-7.34,0-13.93,.22-20.5-.08-3.92-.18-6.25-6.12-3.82-9.22,1.79-2.29,4.11-3.87,7.21-3.59,5.97,.53,11.18,2.7,14.87,7.61,.93,1.25,1.28,2.94,2.24,5.28Z"/>
          <path class="cls-18" d="M1032.2,95.29c-1.11-5.28-2.2-10.31-3.22-15.37-.35-1.75-.48-3.55-.81-5.31-.9-4.81,1.99-8.58,6.34-8.46,2.14,.06,3.41,1.12,4.29,2.81,.52,1,1.05,2.17,1.05,3.26-.02,7.08-.49,14.11-4.12,20.47-.4,.7-1.05,1.28-1.66,1.82-.33,.29-.84,.37-1.86,.78Z"/>
          <path class="cls-13" d="M1021.04,47.08c-.8-.54-1.54-1.24-2.42-1.59-3.33-1.31-4.4-3.66-3.47-7.03,2-.49,4.04-1.54,5.98-1.38,6.34,.51,17.14,11.25,15.76,19.78-.05,.32-.23,.61-.41,1.08-5.17-3.63-10.31-7.25-15.44-10.86Z"/>
          <path class="cls-5" d="M815.14,254.44c1.68-4.23,3.12-5.54,5.56-5.08,2.36,.45,4.24,2.78,4.2,6.58-.06,6.27-.58,12.53-1.06,18.78-.09,1.18-.93,2.31-1.68,4.07-3.78-4.24-3.97-9.37-6.02-13.64-.33-3.57-.67-7.15-1-10.72Z"/>
          <path class="cls-5" d="M851.92,52.44l-6.85-5.28c-.24-.62-.25-1.34-.08-1.98,.29-4.32,3.04-6.11,7.12-4.47,1.66,.67,3.23,1.67,4.7,2.72,3.77,2.67,7.47,5.43,11.16,8.2,.55,.27,1.29,1.03,1.2,1.77-6.21,3.45-11.87,1.58-17.25-.96Z"/>
          <path class="cls-18" d="M1022.11,128.26c-.27,5.84-3.72,8.54-7.3,10.91-1.7,1.12-3.92,1.61-5.98,1.96-1.7,.28-3.22-.94-2.69-2.65,1.51-4.83,2.56-9.91,6.58-13.61,1.83-1.69,3.83-2.32,5.84-1.23,2,1.09,3.87,2.72,3.56,4.63Z"/>
          <path class="cls-18" d="M982.66,291.19c.79,.64,2.76,1.53,3.65,3.05,3.21,5.52,6.78,10.97,6.74,17.78,0,1.44,.67,2.87,.83,4.33,.06,.52-.46,1.55-.76,1.56-.68,.04-1.72-.2-2.03-.69-4.14-6.75-8.31-13.49-12.19-20.39-1.78-3.15-.4-5.62,3.75-5.64Z"/>
          <path class="cls-8" d="M815.14,254.44c.33,3.57,.67,7.15,1,10.72-3.51,2.05-3.63,2.13-5.75-1.03-2.02-3.01-3.82-6.17-5.54-9.36-1.34-2.47-1.87-5.34,.56-7.24,1.34-1.05,3.68-1.29,5.51-1.15,2.13,.17,3.85,3.22,4.04,6.08,.04,.66,.12,1.32,.19,1.98Z"/>
          <path class="cls-5" d="M967.98,268.19c-.7-.98-1.41-1.97-2.11-2.95,.09-1.74-.64-3.82,1.59-4.78,2-.86,3.59,.12,4.78,1.63,5.13,6.53,9.54,13.43,10.63,21.92,.27,.24-.24,.59-.48,1.11-2.73,0-2.95-3.62-4.44-5.34-1.72-2-3.35-4.09-5.07-6.1-1.6-1.86-3.27-3.66-4.9-5.49Z"/>
          <path class="cls-8" d="M814.95,315.75c-4.53-5.64-5.09-11.4-4.85-17.28,.08-1.98,2.46-3.57,4.29-3.21,2.15,.42,3.73,1.74,3.52,4.05-.34,3.72-.97,7.42-1.58,11.1-.25,1.53-.77,3.01-1.38,5.34Z"/>
          <path class="cls-33" d="M1017.57,147.51c-.6-.89-.8-1.92-.61-2.36,1.62-3.58,3.27-7.05,5.26-10.43,1.29-2.2,3.62-3.59,6.32-2.74,1.22,.39,2.59,1.56,3.04,2.71,.35,.91-.23,2.8-1.04,3.43-4.09,3.19-8.4,6.12-12.97,9.38Z"/>
          <path class="cls-5" d="M1045.35,78.97c-1.04-1.36-1.67-1.89-1.94-2.57-1.5-3.85-3.07-7.68-4.29-11.61-.96-3.08,.1-5.16,2.34-5.64,2.45-.53,4.17,.51,4.85,3.68,.54,2.55,.64,5.25,.5,7.87-.13,2.43-.82,4.83-1.46,8.28Z"/>
          <path class="cls-42" d="M826.97,41.21c-.58,5.07,1.32,8.56,5.69,11.54,4.81,3.28,8.92,7.59,13.34,11.45-6.37-1.5-11.93-4.64-17.12-8.51-4.15-3.1-4.91-5.5-3.38-10.51,.41-1.34,.97-2.64,1.46-3.96Z"/>
          <path class="cls-12" d="M822.46,316.61c-3.36-4.26-4.02-8.51-3.12-13,.4-2.01,1.59-3.74,4.1-3.41,2.33,.3,3.48,1.91,3.4,4.12-.14,4.28-.81,8.45-4.38,12.3Z"/>
          <path class="cls-24" d="M994.55,301.97c1.33,.41,3.23,.4,3.73,1.23,2.88,4.74,5.26,9.74,4.46,15.72-4.7-1.92-9.16-10.93-8.19-16.95Z"/>
          <path class="cls-33" d="M989.67,188.61c1.04-5.72,3.6-9.48,7.65-12.15,1.86-1.23,4.49-.47,5.24,1.1,1.01,2.12-.21,3.45-1.86,4.46-3.41,2.08-6.85,4.1-11.02,6.58Z"/>
        </g>
        <g>
          <path class="cls-25" d="M692.57,163.64c-1.87-3.05-3.41-6.3-4.98-9.53-2.44,.74-5.59-.04-6.84-3.04-5.21-12.46-7-25.74-5.34-39.14,1.24-10,2.9-20.03,2.36-30-4.82-12.79-11.11-24.74-23.93-31.41-10.02-5.22-20.41-9.77-30.8-14.25-4.35-1.87-7.72-4.28-9.88-8.57-4.3-8.54-11.74-12.92-20.8-14.83-6.35-1.34-12.7-2.87-19.13-3.54-9.57-.99-19.22-1.8-28.82-1.73-7.95,.06-15.87,1.62-23.82,2.33-18.58,1.65-36.14,5.92-50.59,18.75-1.69,1.5-3.86,2.85-6.03,3.38-9.61,2.34-16.84,7.95-23.63,14.94-7.82,8.05-13.46,17.02-15.02,28.11-2.42,17.17-8.24,32.89-18.74,46.74-3.42,4.51-7.17,8.76-10.7,13.19-7.92,9.94-15.69,19.85-16.34,33.47-.31,6.58-1.71,13.11-2.73,19.64-.97,6.23-2.4,12.22-3.42,18.88,1.68,.66,3.07,2.12,3.27,4.38,.73,8.27,.83,16.69,1.29,25.05,.17,.24,.34,.51,.48,.81,6.03,12.62,9.64,25.58,8.74,39.66-.06,.89-.35,1.7-.8,2.4,.52,2.39,1,4.78,1.39,7.19,1.1,6.84,3.09,13.04,6.02,18.72,1.87-.39,3.95,.13,5.32,2.1,5.27,7.55,12.26,13.77,17.7,21.25,5.69,7.83,13.77,12.4,22.1,17.08,7.53,4.23,15.35,8.15,23.43,11.23,6.5,2.48,13.43,3.92,18.17,9.44,5.52,6.42,9.18,13.42,18.04,15.67,7.45,1.89,15.45,.76,23.06,1.23,6.97,.43,14.64,1.57,21.48-.3,6.71-1.83,12.56-6.12,19.26-8.11,5.87-1.75,11.95-1.95,18.02-2.12,.46-1.89,2-3.52,4.66-3.72,9.06-.68,17.58-5.22,26.8-3.82,4.42,.67,8.67,2.42,13.14,2.77,4.51,.36,9.16-.27,13.55-1.28,4.09-.94,7.99-2.37,11.97-3.66,3.7-1.2,7.77-1.99,11.04-4.21,5.93-4.03,7.95-11.8,13.51-16.37,.02-.02,.05-.03,.07-.05-.18-2.34,.09-4.73,.61-7.12-.29-1.62,.08-3.4,1.27-4.69,1.34-4.23,3.05-8.41,3.98-12.29,.15-.63,.33-1.25,.51-1.87,.15-2.18,.26-4.36,.5-6.52,.28-2.57,1.95-4.11,3.85-4.62,.52-1.21,1.02-2.43,1.5-3.67,2.13-5.58,3.49-11.36,4.34-17.27,1.74-12.08,6.72-23.15,9.94-34.84,3.46-12.55,4.14-25.8,4.19-38.76,0-1.81,.8-3.11,1.94-3.91-2.17-14.98-6.73-29.44-15.17-43.16Zm-198.09,75.72c-.91,4.01-3.56,4.92-6.12,1.78-5.38-6.59-8.31-14.4-8.8-22.83-.21-3.66,2.02-6.77,6.16-7.24,4.16-.47,6.68,2.12,7.58,5.74,1.19,4.79,1.72,9.74,2.48,14.27-.46,3.07-.71,5.71-1.29,8.28Zm1.17-69.41c-2.56,3.03-6.74,4.33-10.95,2.19-4.09-2.07-5.22-5.74-5.41-11.7,1.06-2.14,2.13-6.26,4.68-9.02,5.85-6.33,12.31-12.33,20.97-14.52,2.83-.72,6.81-.27,9.03,1.34,1.23,.89,.94,5.98-.43,7.99-5.55,8.19-11.5,16.16-17.89,23.71Zm88.23,56.01c-.4,1.28-.99,2.35-1.72,3.26-.6,2.94-2.12,5.62-4.24,8.07-9.17,10.63-20.01,18.22-34.71,17.68-3.77-.14-7.92-1.46-11.11-3.48-4.91-3.1-10.91-4.73-14.3-10.08-1.18-.73-2.33-1.64-3.45-2.77-4.61-4.67-7.32-10.59-6.92-17.14,.54-8.88,2.73-17.64,1.11-26.54-.33-1.84,.25-3.37,1.28-4.46-1.71-.62-3.06-2.12-3.03-4.49,.08-7.39,4.32-16.17,8.99-21.81,4.76-5.75,11.75-7.94,18.75-9.62,13.27-3.17,30.52-4.85,40.44,6.6,3.78,4.37-1.57,10.56-5.76,8.17,0,.07,.01,.13,.01,.19,.15,5.24,.76,10.32,1.81,15.29,1.36,.1,2.64,.87,3.4,2.59,3.12,6.96,4.05,14.3,6.12,21.56,1.52,5.34,5.1,11.26,3.32,16.98Zm43.2-134.64c-9.21-7.21-18.17-14.28-27.2-21.28-3.69-2.86-4.74-6.69-2.9-10.6,1.83-3.88,6.1-4.2,9.65-3.23,3.4,.92,6.78,2.7,9.61,4.84,6.72,5.09,11.96,11.45,14.53,19.7,1.26,4.06,.64,7.49-3.69,10.57Zm41.97,145.6c-2.18,4.21-5.92,7.66-9.22,11.22-.58,.62-2.59,.56-3.54,.05-2.83-1.51-4.06-8.51-2.62-13.41,1.14-3.89,5.01-6.85,8.83-6.76,4.41,.11,8.57,5.01,6.56,8.9Zm1.41-40.34c-5.41,1.51-8.58-3.63-10.31-7.7-4.34-10.19-8.17-20.64-11.49-31.2-1.79-5.69,1.64-12.18,5.83-13.53,5.26-1.69,10.66,.62,12.91,7.28,3.64,10.76,6.19,21.89,9.2,32.87-1.66,4.86-.7,10.77-6.14,12.28Z"/>
          <path class="cls-29" d="M676.59,184.3c-1.66,4.86-.7,10.77-6.14,12.28-5.41,1.51-8.58-3.63-10.31-7.7-4.34-10.19-8.17-20.64-11.49-31.2-1.79-5.69,1.64-12.18,5.83-13.53,5.26-1.69,10.66,.62,12.91,7.28,3.64,10.76,6.19,21.89,9.2,32.87Z"/>
          <path class="cls-29" d="M479.29,160.45c1.06-2.14,2.13-6.26,4.68-9.02,5.85-6.33,12.31-12.33,20.97-14.52,2.83-.72,6.81-.27,9.03,1.34,1.23,.89,.94,5.98-.43,7.99-5.55,8.19-11.5,16.16-17.89,23.71-2.56,3.03-6.74,4.33-10.95,2.19-4.09-2.07-5.22-5.74-5.41-11.7Z"/>
          <path class="cls-29" d="M627.08,91.33c-9.21-7.21-18.17-14.28-27.2-21.28-3.69-2.86-4.74-6.69-2.9-10.6,1.83-3.88,6.1-4.2,9.65-3.23,3.4,.92,6.78,2.7,9.61,4.84,6.72,5.09,11.96,11.45,14.53,19.7,1.26,4.06,.64,7.49-3.69,10.57Z"/>
          <path class="cls-4" d="M495.77,231.09c-.46,3.07-.71,5.71-1.29,8.28-.91,4.01-3.56,4.92-6.12,1.78-5.38-6.59-8.31-14.4-8.8-22.83-.21-3.66,2.02-6.77,6.16-7.24,4.16-.47,6.68,2.12,7.58,5.74,1.19,4.79,1.72,9.74,2.48,14.27Z"/>
          <path class="cls-4" d="M662.49,228.03c4.41,.11,8.57,5.01,6.56,8.9-2.18,4.21-5.92,7.66-9.22,11.22-.58,.62-2.59,.56-3.54,.05-2.83-1.51-4.06-8.51-2.62-13.41,1.14-3.89,5.01-6.85,8.83-6.76Z"/>
          <path d="M373.05,214.05c.29-11.06,2.1-21.32,4.67-31.51,1.04-4.13,1.49-8.48,1.62-12.74,.22-7.29,1.38-14.26,5.55-20.37,3.83-5.62,7.88-11.09,11.95-16.55,4.37-5.86,9.08-11.47,13.25-17.46,7.63-10.95,12.25-23.14,14.04-36.38,1.83-13.48,7.54-24.71,17.58-34.27,6.34-6.04,12.93-10.68,21.33-13.05,2.62-.74,5.2-2.32,7.31-4.1,12.4-10.48,26.88-15.63,42.83-17.3,10.92-1.15,21.8-2.76,32.74-3.52,5.92-.41,11.99,.15,17.91,.92,9.39,1.23,18.74,2.85,28.05,4.61,9.28,1.76,16.79,6.32,21.16,15.03,2.06,4.11,5.36,6.41,9.54,8.21,10.52,4.56,20.97,9.33,31.22,14.47,3.63,1.82,7.08,4.52,9.79,7.55,9.19,10.26,14.94,22.23,17.01,35.95,.82,5.4,.08,10.57-.84,15.82-.6,3.43-1.06,6.88-1.49,10.34-1.08,8.69,.74,16.85,4.67,24.59,3.61,7.11,6.92,14.4,11.01,21.22,8.65,14.46,12.52,30.25,14.4,46.74,1.65,14.47,1.17,28.9-1.21,43.19-1.11,6.66-3.22,13.21-5.5,19.6-6.69,18.74-15.16,36.87-19.11,56.54-1.29,6.42-4.03,12.26-7.07,18.02-5.76,10.88-14.6,17.75-26.35,21.39-13.07,4.05-26.12,4.64-39.39,1.29-3.22-.81-6.55-1.16-9.8-1.84-6.1-1.27-11.85-.07-17.61,1.96-12.07,4.25-24.08,8.76-36.38,12.23-7.94,2.24-16.31,3.34-24.57,4.01-11.15,.9-21.84-1.84-31.97-6.46-5.53-2.52-10.09-6.35-13.7-11.32-1.23-1.69-2.86-3.31-4.68-4.3-6.12-3.33-12.17-7.03-18.69-9.36-12.61-4.5-23.06-11.59-31.41-22.05-3.09-3.87-6.99-7.1-10.5-10.64-3.39-3.43-6.81-6.83-10.09-10.36-7.03-7.55-10.71-16.59-12.31-26.73-1.37-8.67-3.12-17.3-5.15-25.84-1.34-5.63-3.53-11.07-5.24-16.62-3.16-10.25-3.88-20.86-4.58-30.92Zm325.13,10.01c-.29-4.27-.48-10.43-1.18-16.52-1.43-12.44-4.06-24.51-10.6-35.52-4.24-7.13-8.02-14.57-11.57-22.07-5.29-11.15-8.13-22.76-6.03-35.29,.84-5.04,1.35-10.3,.88-15.36-1.13-12.21-5.93-23.13-13.84-32.52-2.09-2.49-4.73-4.85-7.61-6.28-10.12-5.04-20.33-9.96-30.76-14.31-6.44-2.69-11.59-6.34-14.88-12.54-3.02-5.69-8.02-8.9-14.18-10.05-11.45-2.13-22.94-4.06-34.44-5.85-2.93-.45-6-.29-8.98-.02-9.44,.84-18.86,2.01-28.31,2.79-14.45,1.18-27.77,5.22-39.21,14.44-4.21,3.39-8.85,5.87-14.21,6.94-2.7,.54-4.89,1.86-6.61,4.12-3.82,5.03-7.81,9.94-11.7,14.92-3.55,4.53-5.75,9.65-6.9,15.3-1.56,7.64-2.79,15.41-5.19,22.79-5.36,16.5-14.29,31.05-26.14,43.75-7.35,7.88-13.63,16.3-15.83,27.19-.65,3.24-1.86,6.37-2.89,9.53-7.07,21.69-7.02,43.4-.36,65.19,2.62,8.57,5.21,17.16,7.36,25.85,1.71,6.92,2.53,14.06,4.19,20.99,.71,2.98,2.22,5.91,3.94,8.48,4,5.96,8.96,11.09,14.47,15.75,4.17,3.53,8.53,7.12,11.71,11.47,7.02,9.61,15.97,16.32,26.99,20.55,8.16,3.13,15.25,8.06,22.17,13.31,2.75,2.09,5.77,4.01,8.95,5.34,9.93,4.12,20.32,6.21,31.11,6.47,19.11,.45,37.34-3.84,55.28-9.82,3.63-1.21,7.21-2.63,10.91-3.52,8.81-2.11,17.57-1.1,26.15,1.35,12.43,3.55,24.65,2.99,36.8-1.21,5.82-2.01,11.09-5.03,14.52-10.09,4.47-6.58,8.48-13.46,10.04-21.53,1.95-10.13,5.3-19.83,9.28-29.39,4.21-10.11,7.87-20.46,11.3-30.86,4.47-13.58,4.67-27.77,5.36-43.76Z"/>
          <path d="M562.44,147.17c9.5,1.29,16.94,9.21,17.84,18.77,.3,3.14,.59,6.3,.59,9.45-.01,6.63,1.59,12.77,4.78,18.6,4.18,7.64,6.76,15.79,8.05,24.46,1.45,9.79-.24,18.53-6.95,25.99-11.71,13.03-25.73,21.72-43.85,21.32-11.99-.26-21.38-5.5-26.75-16.75-.48-1.01-1.42-1.79-2.09-2.73-2.4-3.38-4.97-6.66-7.12-10.19-3.78-6.21-4.74-12.94-3.5-20.14,.52-3.04,.35-6.27,.05-9.37-.68-7.26-2.23-14.49-2.35-21.75-.34-19.68,13.05-35.03,32.46-37.96,1.48-.22,2.96-.56,4.45-.62,2.83-.1,5.66-.03,8.49-.03m-7.45,10.03c-15.91,.26-28.77,13.1-28.7,29.01,.03,5.78,1.04,11.54,1.34,17.33,.25,4.78,.73,9.68-.04,14.34-.83,4.99-.65,9.55,1.55,14.02,1.9,3.86,3.86,7.7,5.96,11.46,.6,1.08,1.65,2.06,2.72,2.69,3.7,2.2,7.41,4.42,11.29,6.26,2.49,1.18,5.25,2.26,7.95,2.45,15.53,1.07,26.92-6.6,36.63-17.7,4.05-4.63,4.87-9.95,4.08-15.82-1.1-8.12-3.13-15.91-6.99-23.21-3.22-6.1-4.96-12.62-5.05-19.57-.04-2.81-.42-5.62-.69-8.43-.66-6.91-3.84-10.65-10.68-11.81-4.57-.78-9.23-.98-13.85-1.44"/>
          <path d="M521.3,38.66c-.84,.55-1.71,1.06-2.51,1.65-7.78,5.69-15.75,11.07-25,14.15-2.01,.67-4.19,1-6.31,1.1-2.38,.11-4.12-1.16-4.9-3.48-.78-2.34,.07-4.31,1.87-5.74,1.13-.91,2.52-1.68,3.91-2.05,10.08-2.65,20.19-5.2,30.31-7.69,.6-.15,1.4,.51,2.11,.79l.51,1.27Z"/>
          <path d="M463.01,80.06c0,1.79,.3,3.15-.05,4.33-2.44,8.26-5,16.49-7.56,24.72-.34,1.1-.78,2.21-1.42,3.16-1.3,1.94-3.14,2.94-5.56,2.42-2.33-.5-4.04-2.38-4.14-4.97-.06-1.44,.19-3.01,.72-4.35,3.53-8.89,8.55-16.87,15.28-23.72,.61-.62,1.56-.92,2.73-1.58Z"/>
          <path d="M687.95,242.03c-1.26,4.51-2.11,9.18-3.88,13.48-2.78,6.71-6.19,13.15-9.34,19.7-.21,.44-.51,.85-.8,1.26-2.34,3.29-5.15,4.46-7.48,3.11-2.18-1.26-2.42-4.38-.13-8,6.11-9.66,12.37-19.22,18.61-28.79,.39-.6,1.14-.98,1.72-1.46,.43,.23,.87,.46,1.3,.69Z"/>
          <path d="M498.83,58.1c-.35,1.25-.45,2.04-.78,2.72-2.9,5.93-5.82,11.84-8.78,17.74-.51,1.01-1.07,2.33-1.97,2.75-1.38,.65-3.12,1.03-4.61,.81-1.8-.27-2.71-1.93-2.62-3.72,.07-1.61,.22-3.36,.9-4.78,3.27-6.77,8.53-11.67,15.13-15.18,.62-.33,1.49-.2,2.73-.34Z"/>
          <path d="M461.41,337.33c-1.63,0-2.82,.26-3.86-.04-6.63-1.9-11.87-5.77-15.68-11.51-.63-.96-1.14-2.05-1.45-3.15-.69-2.4,.24-4.68,2.17-5.51,2.21-.94,3.92,0,5.2,1.74,1.28,1.73,2.28,3.67,3.57,5.39,3.14,4.2,6.39,8.32,10.05,13.07Z"/>
          <path d="M643.35,337.89c-1.39,1.26-2.59,2.96-4.22,3.7-5.42,2.46-10.97,4.63-16.53,6.77-1.19,.46-2.62,.41-3.94,.42-1.8,.02-3.31-.58-3.68-2.61-.34-1.84,.33-3.36,1.96-4.19,1.31-.67,2.77-1.17,4.21-1.42,5.88-1.03,11.78-1.92,17.67-2.91,1.24-.21,2.45-.58,3.68-.88l.85,1.11Z"/>
          <path d="M405.69,228.8c-1.25-1.61-2.13-2.33-2.46-3.24-2.34-6.43-2.88-13.15-3.03-19.91-.02-1.08,.35-2.48,1.07-3.18,.96-.94,2.5-1.94,3.7-1.83,1.19,.11,2.45,1.4,3.3,2.46,.54,.67,.63,1.91,.51,2.84-.93,7.28-1.95,14.54-3.09,22.86Z"/>
          <path d="M421.14,279.35c-1.35-.43-2.2-.47-2.75-.91-5.06-4-8.47-9.19-10.76-15.16-.18-.46-.32-.94-.39-1.43-.41-2.75,.75-4.82,3.05-5.49,2.06-.6,3.95,.39,5.16,2.77,.37,.73,.62,1.53,.84,2.32,1.55,5.67,3.08,11.34,4.85,17.89Z"/>
        </g>
        <g>
          <path class="cls-39" d="M1560.1,250.71c1.36-11.85-.85-23.28-3.2-34.77-1.66-8.08-2.82-16.27-3.97-24.44-2.25-15.98,1.55-30.76,9.48-44.53,5.19-9.02,12.85-15.04,23.09-17.57,10.32-2.55,18.78-7.96,25.3-16.52,6.35-8.34,12.98-16.46,19.51-24.65,8.1-10.16,18.15-17.84,30.2-22.49,10.84-4.18,21.83-8.05,32.98-11.29,12.39-3.61,25.12-2.69,37.73-.9,12.92,1.84,25.17,6.27,37.5,10.37,9.57,3.18,19.19,6.22,28.84,9.13,4.43,1.34,6.39,.29,7.15-3.97,3.66-20.29,16.07-35.08,30.45-48.39,7.82-7.23,16.77-13.23,27.51-15.37,4.3-.86,8.83-1.06,13.22-.86,4.42,.19,8,2.59,10.98,5.97,6.57,7.45,8.26,16.51,8.27,25.95,.03,14.38-2.31,28.42-7.19,41.99-2.27,6.3-4.31,12.69-6.6,18.98-3.3,9.08-2.48,17.8,1.4,26.56,2.28,5.15,4.43,10.51,5.54,16,1.84,9.1,.47,18.09-2.65,26.87-3.5,9.86-7.42,19.66-9.85,29.81-4.39,18.39-5.29,37.08-1.93,55.85,1.41,7.87,5.48,14.39,9.87,20.77,1.95,2.83,4.1,5.52,6.29,8.17,10.53,12.78,16.55,27.63,19.41,43.79,.95,5.39,1.06,10.97,1.15,16.47,.16,10.17-5.45,17.13-14.02,21.05-12.17,5.56-25.11,7.69-38.56,5.38-14.87-2.56-26.99-10.49-38.35-19.8-6.77-5.54-13.22-11.47-19.82-17.21-1.17-1.01-2.41-1.93-3.58-2.95-5.19-4.51-10.73-2.71-13.75,1.69-1.45,2.12-3.21,4.03-4.78,6.07-5.09,6.61-11.95,9.62-20.09,9.68-4.25,.03-8.52-.31-12.74-.84-2.17-.27-3.47,.24-4.77,1.97-5.78,7.7-13.25,13.36-21.7,17.81-5.45,2.87-10.81,5.94-16.33,8.66-11.73,5.8-24.1,8.78-37.25,7.74-19.1-1.51-37.73-5.16-54.5-14.9-8.56-4.97-16.92-10.59-24.43-17.04-17.93-15.4-27.89-34.97-27.79-59.13,.01-3.27,0-6.54,0-9.82m10.54,12.29c-.03,17.76,6.89,32.68,19.72,44.38,10.52,9.59,22.27,17.71,35.45,23.47,15.36,6.72,31.57,8.99,48.09,8.85,5.69-.05,11.71-1.23,16.95-3.42,8.81-3.67,17.17-8.45,25.63-12.95,5.96-3.17,11.43-7.27,15.31-12.77,4.72-6.69,10.24-8.99,18.44-7.62,9.92,1.65,19.19-.35,25.17-9.84,.18-.29,.47-.5,.69-.76,7.63-9,20.48-9.02,27.85-3.33,3.25,2.51,6.46,5.09,9.58,7.78,6.37,5.49,12.48,11.3,19.04,16.56,7.68,6.16,16.22,10.75,25.94,13.02,11,2.57,21.73,1.89,32.34-1.75,7.89-2.7,11.24-7.88,10.49-16.09-.38-4.11-.6-8.26-1.38-12.3-2.72-14.08-8.19-26.91-17.67-37.84-1.8-2.07-3.4-4.32-5.17-6.43-9.07-10.81-13.51-23.58-14.39-37.41-1.62-25.7,1.03-50.79,11.74-74.66,6.29-14.03,8.47-28.36-.28-42.48-.89-1.43-1.3-3.17-1.88-4.79-3.12-8.69-3.61-17.43-.6-26.28,2.88-8.46,5.6-16.97,8.47-25.42,4.14-12.15,6.56-24.6,5.81-37.47-.21-3.51-1.19-7.16-2.65-10.36-2.6-5.69-7.29-7.85-13.44-7.23-5.53,.55-10.69,2.05-15.4,5.16-18.68,12.29-31.19,29.08-36.93,50.85-2.43,9.21-8.04,13.59-17.48,13.09-3.72-.2-7.51-.83-11.09-1.89-14.26-4.24-28.49-8.56-42.63-13.16-11.39-3.71-23.01-5.16-34.9-4.77-12.51,.41-24.07,4.8-35.72,8.79-16.04,5.5-29,15.15-39.24,28.73-4.96,6.58-10.33,12.85-15.7,19.11-7.15,8.34-16.35,13.57-26.77,16.44-5.85,1.62-10.9,4.45-14.72,8.91-4.44,5.19-8.37,10.87-12.13,16.59-1.21,1.85-1.68,4.52-1.65,6.8,.07,5.15,.38,10.34,1.08,15.44,1.77,12.76,3.63,25.52,5.83,38.22,1.43,8.22,1.8,16.33,.7,24.63-1.42,10.72-2.29,21.51-3.4,32.27"/>
          <path class="cls-16" d="M1571.18,248.07c1.1-8.3,.72-16.41-.7-24.63-2.2-12.69-4.06-25.45-5.83-38.22-.71-5.1-1.02-10.29-1.08-15.44-.03-2.28,.43-4.95,1.65-6.8,3.76-5.72,7.69-11.4,12.13-16.59,3.82-4.47,8.87-7.3,14.72-8.91,10.42-2.88,19.63-8.1,26.77-16.44,5.36-6.26,10.74-12.53,15.7-19.11,10.24-13.58,23.2-23.24,39.24-28.73,11.65-3.99,23.21-8.37,35.72-8.79,11.9-.39,23.51,1.06,34.9,4.77,14.14,4.61,28.38,8.93,42.63,13.16,3.57,1.06,7.36,1.69,11.09,1.89,9.45,.5,15.05-3.88,17.48-13.09,5.74-21.77,18.25-38.56,36.93-50.85,4.71-3.1,9.87-4.6,15.4-5.16,6.15-.62,10.84,1.55,13.44,7.23,1.46,3.2,2.45,6.85,2.65,10.36,.75,12.87-1.67,25.31-5.81,37.47-2.88,8.46-5.59,16.97-8.47,25.42-3.02,8.85-2.52,17.59,.6,26.28,.58,1.62,1,3.36,1.88,4.79,8.75,14.12,6.57,28.45,.28,42.48-10.7,23.87-13.36,48.96-11.74,74.66,.87,13.83,5.32,26.6,14.39,37.41,1.77,2.11,3.37,4.35,5.17,6.43,9.48,10.92,14.94,23.76,17.67,37.84,.78,4.04,1,8.19,1.38,12.3,.75,8.21-2.6,13.39-10.49,16.09-10.6,3.63-21.34,4.32-32.34,1.75-9.72-2.28-18.26-6.86-25.94-13.02-6.55-5.26-12.67-11.07-19.04-16.56-3.11-2.68-6.32-5.26-9.58-7.78-7.37-5.69-20.22-5.67-27.85,3.33-.22,.26-.51,.48-.69,.76-5.98,9.5-15.25,11.49-25.17,9.84-8.2-1.36-13.72,.93-18.44,7.62-3.88,5.5-9.35,9.6-15.31,12.77-8.45,4.5-16.82,9.29-25.63,12.95-5.24,2.18-11.27,3.37-16.95,3.42-16.52,.13-32.73-2.14-48.09-8.85-13.18-5.76-24.93-13.88-35.45-23.47-12.83-11.7-19.75-26.62-19.72-44.38,0-3.96-1.04-7.48-1.04-11.44m79.12-44.73c0,.86,.09,1.73-.01,2.58-1.22,10.48,7.66,22.09,19.06,24.05,5.96,1.03,10.94,3.67,15.52,7.46,7.33,6.06,15.43,10.67,24.47,13.8,16.82,5.82,32.07,2.92,45.89-7.89,9.75-7.63,15.01-17.79,14.59-30.39-.21-6.35-.92-12.7-1.8-19-2.02-14.34-3.76-28.67-1.42-43.14,.91-5.59,2.03-11.17,2.57-16.8,.48-4.94,.93-10.04,.26-14.91-1.3-9.53-7.68-15-16.4-17.96-13.64-4.62-26.28-1.49-38.4,5.24-10.17,5.65-16.87,14.59-21.73,24.8-5.97,12.55-14.64,22.75-24.82,31.89-2.68,2.4-5.42,4.79-7.73,7.53-7.95,9.43-10,20.8-10.07,32.72Zm54.78-152.98c-1.03,0-2.07-.12-3.08,.02-11.22,1.57-21,6.56-30.14,12.98-2.5,1.76-4.99,3.69-6.98,5.98-5.14,5.91-3.38,14.32,3.85,16.55,4.05,1.25,7.24-.69,10.27-2.98,9.78-7.38,19.5-14.83,29.31-22.17,1.32-.99,3-1.5,4.54-2.17,1-.44,2.96-.89,2.93-1.13-.18-1.41-.5-3.03-1.37-4.07-2.41-2.89-5.86-3.16-9.34-3.01Zm135.64,99.87c-.28-1.76-.9-4.43-1.09-7.12-.16-2.21-.35-4.2-2.89-4.73-2.57-.53-4.91-.45-7.05,1.74-3.13,3.22-4.67,7.14-5.6,11.33-1.47,6.63-2.94,13.27-3.97,19.98-.75,4.88-1.01,9.86-1.1,14.81-.06,3.21,.68,6.43,.88,9.66,.16,2.7,.04,5.41,2.44,7.32,1.96-1.76,3.96-3.49,5.87-5.31,.46-.44,.66-1.19,.89-1.84,2.06-5.78,4.39-11.48,6.07-17.38,2.56-8.99,4.95-18.06,5.56-28.47Zm-228.96,13.37c3.84-.01,7.69-2.8,8.59-6.84,2.6-11.71,7.22-22.71,11.31-33.9,.47-1.28,.91-2.59,1.12-3.93,.45-2.84-.63-4.14-3.33-3.4-3.08,.84-6.44,1.77-8.87,3.69-10.1,8.01-16.88,18.47-19.31,31.18-1.21,6.3,3.65,12.61,10.51,13.2Zm243.17-128.53c0,2.06-.13,4.14,.04,6.19,.13,1.51,.58,3,1.01,4.47,1.07,3.62,4.3,5.69,7.23,4.33,1.46-.68,2.92-2.01,3.68-3.43,1.43-2.67,2.65-5.54,3.43-8.48,1.35-5.08,2.05-10.33,3.5-15.38,1.02-3.54,.54-6.77-.6-10.02-1.38-3.94-3.03-4.95-7.31-4.9-4.17,.05-6.62,1.67-7.82,6.6m-17.19,256.32c-1.83,1.54-3.49,2.47-4.49,3.87-1.63,2.3-1.09,4.9-.06,7.37,4.11,9.92,10.55,17.93,19.52,23.81,.69,.45,1.8,.25,2.72,.36-.18-.92-.21-1.9-.56-2.75-3.56-8.5-7.16-16.98-10.76-25.46-.47-1.1-.71-2.43-1.48-3.24-1.32-1.39-2.98-2.46-4.88-3.97Zm-17.94-226.6c-.22,4.66,1.42,7.46,4.25,8.22,3.36,.9,6.02-.61,7.64-4.42,.4-.94,.72-1.94,.94-2.94,1.47-6.88,2.87-13.77,4.38-20.64,.4-1.83-.57-2.27-1.88-2.03-1.29,.24-2.72,.69-3.7,1.51-6.61,5.51-10.26,12.72-11.62,20.3Zm27.02,123.05c.14,.02-.31,.24-.17,.26,0,1.55-.12,3.1,.05,4.63,.08,.72,.71,1.38,1.09,2.06,.65-.37,1.39-.64,1.91-1.15,.47-.45,.81-1.11,1.02-1.75,2.74-8.08,5.52-16.15,8.1-24.29,.5-1.57,.59-3.54,.09-5.07-.46-1.42-1.81-3.28-3.05-3.53-1.54-.31-3.59,.5-4.99,1.47-.91,.63-1.3,2.36-1.48,3.67-1.13,7.95-1.54,15.73-2.59,23.69Zm-247.41-45.6c-1.24,0-2.62-.24-3.89,.04-7.1,1.58-16.85,15.49-16.06,22.82,.26,2.43,1.49,4.31,3.9,4.91,2.66,.66,4.14-1.03,5.12-3.25,3.61-8.1,7.22-16.21,10.92-24.52Zm-9.75,53.17c-6.99,3.79-11.63,15.3-9.25,22.31,.9,2.64,3.45,4.42,5.84,4.05,2.3-.35,3.88-2.18,3.97-5.25,.07-2.38-.49-4.77-.54-7.16-.09-4.59-.03-9.19-.03-13.95Z"/>
          <path class="cls-39" d="M1646.76,236.12c.07-11.93,2.11-23.29,10.07-32.72,2.31-2.74,5.05-5.13,7.73-7.53,10.18-9.14,18.85-19.34,24.82-31.89,4.86-10.21,11.56-19.15,21.73-24.8,12.11-6.73,24.75-9.87,38.4-5.24,8.72,2.96,15.09,8.42,16.4,17.96,.67,4.87,.22,9.97-.26,14.91-.55,5.63-1.67,11.21-2.57,16.8-2.35,14.48-.6,28.8,1.42,43.14,.89,6.29,1.59,12.65,1.8,19,.43,12.6-4.84,22.76-14.59,30.39-13.81,10.81-29.07,13.71-45.89,7.89-9.04-3.13-17.15-7.74-24.47-13.8-4.58-3.79-9.56-6.44-15.52-7.46-11.4-1.96-20.28-13.57-19.06-24.05,.1-.85,.01-1.72,.01-2.58Zm6.72-2.45c.44,1.74,.35,4.75,1.79,6.48,4.64,5.54,9.91,10.56,16.91,13.06,6.86,2.45,12.93,6.19,18.62,10.68,6.15,4.85,13.24,7.75,20.73,9.85,12.56,3.51,23.78,.59,33.63-7.5,7.31-5.99,10.95-14.03,10.24-23.62-.47-6.34-1.17-12.69-2.26-18.95-2.92-16.77-3.56-33.45,.22-50.21,1.24-5.5,1.79-11.2,2.14-16.84,.41-6.59-2.84-11.04-8.95-13.56-4.26-1.75-8.59-2.19-13.08-1.54-14.92,2.17-26.14,9.94-33.26,23.18-8.43,15.68-19.45,29-33.32,40.1-8.86,7.09-12.11,17.12-13.42,28.87Z"/>
          <path class="cls-6" d="M1701.55,83.15c3.48-.15,6.94,.12,9.34,3.01,.87,1.04,1.19,2.66,1.37,4.07,.03,.24-1.92,.69-2.93,1.13-1.54,.67-3.22,1.18-4.54,2.17-9.81,7.34-19.53,14.79-29.31,22.17-3.03,2.29-6.22,4.23-10.27,2.98-7.23-2.23-8.99-10.63-3.85-16.55,1.99-2.29,4.48-4.22,6.98-5.98,9.13-6.42,18.92-11.42,30.14-12.98,1.01-.14,2.05-.02,3.08-.02Z"/>
          <path class="cls-6" d="M1837.18,183.02c-.62,10.41-3,19.48-5.56,28.47-1.68,5.89-4.01,11.59-6.07,17.38-.23,.64-.43,1.39-.89,1.84-1.9,1.82-3.9,3.55-5.87,5.31-2.4-1.91-2.28-4.62-2.44-7.32-.19-3.23-.94-6.45-.88-9.66,.09-4.95,.35-9.93,1.1-14.81,1.04-6.71,2.5-13.35,3.97-19.98,.93-4.2,2.47-8.11,5.6-11.33,2.13-2.19,4.47-2.27,7.05-1.74,2.54,.52,2.73,2.52,2.89,4.73,.19,2.7,.81,5.37,1.09,7.12Z"/>
          <path class="cls-6" d="M1608.22,196.39c-6.86-.59-11.71-6.9-10.51-13.2,2.43-12.71,9.22-23.17,19.31-31.18,2.43-1.93,5.79-2.85,8.87-3.69,2.7-.74,3.78,.56,3.33,3.4-.21,1.34-.65,2.65-1.12,3.93-4.09,11.19-8.71,22.19-11.31,33.9-.89,4.04-4.75,6.83-8.59,6.84Z"/>
          <path class="cls-6" d="M1854.55,47.25c1.2-4.93,3.65-6.55,7.82-6.6,4.28-.05,5.93,.96,7.31,4.9,1.14,3.24,1.62,6.47,.6,10.02-1.45,5.04-2.15,10.3-3.5,15.38-.78,2.93-2,5.8-3.43,8.48-.76,1.42-2.22,2.75-3.68,3.43-2.93,1.36-6.16-.71-7.23-4.33-.43-1.46-.89-2.96-1.01-4.47-.17-2.05-.04-4.13-.04-6.19"/>
          <path class="cls-13" d="M1837.36,303.57c2.46,1.14,3.56,2.58,4.88,3.97,.77,.81,1.01,2.14,1.48,3.24,3.6,8.48,7.2,16.96,10.76,25.46,.35,.85,.38,1.83,.56,2.75-.92-.1-2.03,.09-2.72-.36-8.97-5.87-15.41-13.88-19.52-23.81-1.02-2.47-1.56-5.08,.06-7.37,1-1.41,2.19-2.73,4.49-3.87Z"/>
          <path class="cls-13" d="M1819.42,76.97c1.36-7.57,5.01-14.79,11.62-20.3,.98-.82,2.41-1.27,3.7-1.51,1.31-.24,2.29,.2,1.88,2.03-1.52,6.87-2.91,13.76-4.38,20.64-.21,1-.54,2-.94,2.94-1.62,3.81-4.28,5.32-7.64,4.42-2.83-.76-4.47-3.57-4.25-8.22Z"/>
          <path class="cls-13" d="M1849.03,176.32c.18-1.3,.57-3.03,1.48-3.67,1.39-.97,3.45-1.78,4.99-1.47,1.24,.25,2.58,2.11,3.05,3.53,.5,1.53,.4,3.5-.09,5.07-2.58,8.14-5.36,16.21-8.1,24.29-.21,.63-.55,1.3-1.02,1.75-.52,.5-1.27,.77-1.91,1.15-.38-.69-1.01-1.34-1.09-2.06-.17-1.53-.05-3.09-.05-4.63"/>
          <path class="cls-5" d="M1599.04,154.41c-3.7,8.32-7.3,16.42-10.92,24.52-.99,2.22-2.46,3.91-5.12,3.25-2.42-.6-3.64-2.48-3.9-4.91-.8-7.33,8.96-21.24,16.06-22.82,1.27-.28,2.65-.04,3.89-.04Z"/>
          <path class="cls-5" d="M1589.29,207.58c0,4.76-.07,9.36,.03,13.95,.05,2.39,.6,4.78,.54,7.16-.09,3.07-1.67,4.9-3.97,5.25-2.39,.36-4.94-1.41-5.84-4.05-2.39-7.01,2.26-18.52,9.25-22.31Z"/>
        </g>
        <g>
          <path class="cls-39" d="M2000.75,2.51c.87,.15,1.05,0,1.57,.17,22.88,7.32,36.42,22.94,41,46.37,2.3,11.79,3.01,23.75,2.94,35.76-.07,12.16-.2,24.27-2.55,36.29-1.37,6.99-.25,13.92,1.84,20.7,2.54,8.26,5.24,16.49,7.42,24.85,2.92,11.2,1.78,22.39-.44,33.63-3.13,15.82-6.83,31.54-8.2,47.68-.75,8.81-.39,17.25,3.81,25.25,1.15,2.2,2.18,4.53,2.77,6.93,.71,2.89,2.38,3.42,5.06,3.42,9.62,.01,18.67-2.64,27.76-5.36,7.61-2.28,15.35-4.17,23.1-5.96,2.72-.63,5.62-.66,8.43-.6,5.81,.12,11.62,.56,17.44,.7,4.35,.11,8.47,1.36,11.51,4.18,6.63,6.12,14.68,7.32,23.07,7.87,13.49,.88,26.96,.54,40.43-.46,13.4-1,26.55,.07,39.36,4.63,17.34,6.18,26.92,18.76,30.65,36.27,1.17,5.46,.6,10.93-1.2,16.25-3.12,9.23-8.18,17.1-16.1,22.92-11.47,8.43-23.85,14.51-38.53,14.44-.66,0-1.32,.18-1.97,.27-8.67,0-17.34-.01-26.02-.02-1.31-.26-2.61-.71-3.92-.74-8.21-.2-15.54-2.94-22.62-6.96-6.62-3.75-13.82-4.29-21.27-2.44-9.51,2.36-19.02,4.75-28.63,6.62-9.15,1.78-18.21,1.23-26.77-3.12-2.66-1.35-5.56-2.2-8.29-3.43-12.23-5.51-24.77-5.88-37.52-2.31-11.19,3.14-22.34,6.44-33.51,9.67-4.22,1.22-8.46,1.5-12.83,.79-2.08-.34-4.29,.08-6.36-.31-3.07-.58-6.42-.96-9.01-2.5-7.7-4.57-15.28-9.42-22.54-14.66-4.77-3.44-8.06-8.49-10.41-13.85-10.41-23.82-14.93-48.51-10.32-74.43,.49-2.76,1.25-5.52,2.25-8.14,3.5-9.19,4.22-18.76,4.23-28.45,.01-9.01-1.06-17.89-2.51-26.79-2.16-13.26-.49-26.27,4.68-38.63,6.8-16.23,7.43-32.85,4.46-49.94-3.22-18.53-5.46-37.19-5.38-56.05,.05-12,2.87-23.25,8.2-34.1,6.88-13.99,18.44-21.34,32.81-25.38,1.48-.42,2.8-.86,4.64-1.08,2.67,0,4.78,.04,7.45,.04Zm36.05,83.51c.31-9.49-1.34-19.1-2.74-28.79-2.34-16.18-9.41-28.93-23.06-38.34-8.31-5.73-16.6-6.96-25.7-3.14-5.94,2.49-12.2,4.59-16.1,10.35-9.25,13.66-11.9,29.01-11.06,45.07,.52,9.91,1.76,19.78,2.82,29.65,.97,9.04,1.83,18.12,3.27,27.09,1.34,8.36,.99,16.64-.97,24.69-2.08,8.5-5.25,16.73-7.88,25.1-3.34,10.6-4.04,21.3-1.89,32.31,1.27,6.47,1.77,13.11,2.21,19.7,.23,3.44-.66,6.93-.63,10.4,.07,8.9-1.45,17.53-4.43,25.83-3.24,9.03-3.94,18.42-4.59,27.82-.58,8.35,1.29,16.52,3.1,24.55,2.73,12.14,7.5,23.58,17.09,31.97,5.07,4.44,11.19,7.68,16.88,11.39,2.08,1.36,4.28,2.53,6.43,3.78,2.46-2.28,4.94,.21,7.35-.03,6.08-.6,12.23-1.08,18.15-2.46,11.42-2.66,22.63-6.29,34.08-8.75,5.9-1.27,12.21-1.51,18.25-1.08,9.32,.66,18.01,4.18,26.51,7.96,6.02,2.68,12.26,4.56,18.82,3.32,7.46-1.41,14.79-3.49,22.19-5.21,5.3-1.23,10.58-3.06,15.95-3.39,9.21-.56,17.6,2.81,25.3,7.68,3.45,2.18,7.12,3.53,11.08,4.09,3.6,.51,7.3,.51,10.86,1.19,10.68,2.06,21.16,.01,31.58-1.66,7.87-1.26,14.22-6.14,20.73-10.45,6.04-3.99,10.36-9.41,12.92-16.06,1.63-4.25,3.09-8.55,1.98-13.49-2.7-12.08-9.72-20.47-20.51-26.04-9.15-4.72-18.96-7-29.16-7.26-6.12-.16-12.26,.55-18.39,.72-12.96,.36-25.87-.3-38.77-1.75-6.3-.71-11.9-2.53-16.82-6.63-3.95-3.29-8.53-4.73-13.84-4.55-11.99,.4-23.56,3.16-35.2,5.63-10.98,2.33-21.66,6.04-33,6.72-4.32,.26-8.25-.41-11.67-2.97-9.64-7.21-14.51-16.96-15.08-28.94-.59-12.36,1.56-24.49,3.36-36.6,1.45-9.78,4.17-19.37,6.27-29.06,1.73-8.02,2.53-16.1,.47-24.16-1.96-7.69-3.87-15.41-6.36-22.93-3.62-10.95-4.83-22.04-2.5-33.3,2.03-9.81,2.71-19.68,2.68-29.99Z"/>
          <path class="cls-19" d="M2036.79,86.02c.03,10.31-.65,20.17-2.68,29.99-2.33,11.26-1.11,22.35,2.5,33.3,2.49,7.52,4.4,15.24,6.36,22.93,2.06,8.06,1.26,16.15-.47,24.16-2.1,9.69-4.81,19.28-6.27,29.06-1.8,12.11-3.95,24.24-3.36,36.6,.57,11.98,5.44,21.73,15.08,28.94,3.42,2.56,7.36,3.23,11.67,2.97,11.34-.68,22.02-4.39,33-6.72,11.64-2.47,23.21-5.23,35.2-5.63,5.31-.18,9.89,1.26,13.84,4.55,4.92,4.09,10.51,5.92,16.82,6.63,12.9,1.45,25.81,2.1,38.77,1.75,6.14-.17,12.27-.88,18.39-.72,10.2,.27,20.01,2.54,29.16,7.26,10.79,5.57,17.81,13.97,20.51,26.04,1.11,4.95-.35,9.24-1.98,13.49-2.56,6.65-6.88,12.07-12.92,16.06-6.51,4.31-12.87,9.19-20.73,10.45-10.42,1.67-20.9,3.71-31.58,1.66-3.56-.69-7.26-.68-10.86-1.19-3.96-.57-7.63-1.91-11.08-4.09-7.7-4.87-16.09-8.24-25.3-7.68-5.37,.33-10.65,2.15-15.95,3.39-7.4,1.72-14.73,3.8-22.19,5.21-6.56,1.24-12.8-.65-18.82-3.32-8.5-3.77-17.18-7.29-26.51-7.96-6.04-.43-12.35-.18-18.25,1.08-11.46,2.46-22.66,6.09-34.08,8.75-5.92,1.38-12.08,1.86-18.15,2.46-2.41,.24-4.88-2.26-7.35,.03-2.15-1.25-4.35-2.42-6.43-3.78-5.69-3.71-11.81-6.95-16.88-11.39-9.59-8.39-14.36-19.83-17.09-31.97-1.81-8.04-3.68-16.2-3.1-24.55,.65-9.4,1.35-18.79,4.59-27.82,2.98-8.31,4.5-16.94,4.43-25.83-.03-3.47,.86-6.96,.63-10.4-.44-6.59-.94-13.24-2.21-19.7-2.15-11-1.45-21.71,1.89-32.31,2.63-8.37,5.8-16.6,7.88-25.1,1.97-8.05,2.31-16.33,.97-24.69-1.44-8.97-2.3-18.05-3.27-27.09-1.05-9.87-2.3-19.75-2.82-29.65-.84-16.06,1.81-31.4,11.06-45.07,3.9-5.76,10.15-7.86,16.1-10.35,9.1-3.82,17.39-2.58,25.7,3.14,13.64,9.41,20.71,22.16,23.06,38.34,1.4,9.7,3.05,19.3,2.74,28.79Zm-12.4-30.12c-.89-4.84-1.31-9.83-2.79-14.48-1.55-4.87-4.26-9.34-8.79-12.27-4.18-2.71-10.02-2.09-13.15,1.2-2.89,3.03-2.17,6.4-.96,9.73,1.34,3.72,2.76,7.43,4.47,10.99,3.36,7,6.47,14.19,11.75,20.06,2.65,2.95,3.29,2.89,5.52-.49,2.91-4.43,3.6-9.46,3.95-14.74Zm199.42,269.4c5.12-.57,8-2.82,9.73-7.94,1.22-3.63-.59-9.05-4.12-11.43-10.42-7.01-21.33-6.73-32.42-1.8-2.36,1.05-3.81,3.09-4.09,5.75-.4,3.92,2.83,7.45,7.26,7.73,3.15,.19,6.33-.16,9.47,.11,3.31,.28,6.74,.14,8.63,4.22,.75,1.63,3.63,2.27,5.55,3.36Zm-192.58-153.67c-.44-3.75-1.05-7.49-1.28-11.25-.29-4.56-1.74-8.69-4.01-12.57-1.27-2.18-5.58-4.4-7.45-3.94-2.85,.7-5.35,3.66-5.56,6.92-.15,2.48-.32,5.04,.09,7.46,1.85,10.81,3.93,21.58,5.86,32.37,.37,2.09,1.49,3.01,3.37,2.27,1.6-.63,3.41-1.51,4.37-2.82,3.97-5.47,4.43-11.88,4.61-18.42Zm88.52,123.52c-4.34,.72-8.11,1.09-11.75,2.01-3.48,.88-6.94,2.05-10.17,3.59-3.24,1.54-4.86,5.92-3.85,8.89,.78,2.3,4.65,3.62,8.26,2.8,.32-.07,.6-.29,.91-.41,9.06-3.39,18.14-6.74,27.17-10.22,.94-.36,1.59-1.44,2.38-2.19-.8-.74-1.49-1.9-2.42-2.15-3.61-.96-7.3-1.63-10.53-2.32Zm-160.46-5.1c-.51,.38-.94,.53-1.01,.78-2.47,9.04-2.68,18.22-1.23,27.42,.27,1.71,1.18,3.55,2.36,4.81,.84,.9,2.82,1.53,3.92,1.17,1.11-.36,2.12-1.99,2.52-3.27,.42-1.36,.33-3.01,.03-4.44-1.71-8.21-3.52-16.39-5.37-24.57-.15-.68-.8-1.26-1.22-1.89Zm12.44-236.39c.21-2.96,.43-5.91,.63-8.87,.06-.92,.06-1.85,.09-2.77-1.03,.33-2.27,.41-3.05,1.05-.98,.8-1.76,1.98-2.33,3.14-2.54,5.16-2.79,10.8-3.08,16.38-.07,1.35,.68,2.95,1.53,4.07,.7,.92,2.09,1.72,3.21,1.77,.62,.03,1.73-1.51,1.91-2.48m-4.29,119.13l-1.25,.13c-2.71,5.9-3.53,12.16-3.27,18.62,.08,2.1-.4,4.56,2.79,4.84,1.85,.16,3.25-2.22,3.17-5.23,0-.16-.03-.33-.04-.49-.28-4.59-.54-9.18-.85-13.77-.09-1.37-.35-2.73-.54-4.09Zm13.06-134.12c-.23,2.08,.68,4.02,2.86,4.18,1.16,.08,2.67-1.41,3.62-2.53,.67-.8,.74-2.15,.97-3.27,.53-2.57,1.05-5.15,1.47-7.74,.14-.88,0-1.8-.01-2.71-.91,.2-2.04,.12-2.69,.65-3.58,2.89-6.51,6.22-6.22,11.42Zm251.59,308.71l.07,.36c2.42-.45,4.91-.68,7.25-1.4,3.11-.95,4.96-3.44,4.34-5.22-.67-1.91-3.5-2.53-6.62-1.25-2.45,1-4.85,2.16-7.2,3.4-1.33,.7-2.51,1.68-3.76,2.54,1.47,.52,2.93,1.08,4.42,1.54,.46,.14,.99,.02,1.49,.02Z"/>
          <path class="cls-7" d="M2024.4,55.9c-.35,5.28-1.04,10.31-3.95,14.74-2.22,3.38-2.86,3.44-5.52,.49-5.28-5.87-8.39-13.06-11.75-20.06-1.71-3.56-3.13-7.27-4.47-10.99-1.2-3.33-1.92-6.7,.96-9.73,3.14-3.29,8.98-3.9,13.15-1.2,4.52,2.93,7.23,7.39,8.79,12.27,1.48,4.65,1.9,9.64,2.79,14.48Z"/>
          <path class="cls-7" d="M2223.82,325.29c-1.91-1.09-4.79-1.73-5.55-3.36-1.89-4.09-5.32-3.94-8.63-4.22-3.14-.27-6.32,.09-9.47-.11-4.43-.27-7.66-3.81-7.26-7.73,.27-2.66,1.72-4.7,4.09-5.75,11.08-4.92,22-5.21,32.42,1.8,3.53,2.38,5.34,7.79,4.12,11.43-1.73,5.12-4.6,7.37-9.73,7.94Z"/>
          <path class="cls-3" d="M2031.24,171.63c-.19,6.54-.64,12.95-4.61,18.42-.96,1.32-2.77,2.19-4.37,2.82-1.88,.75-3-.17-3.37-2.27-1.92-10.8-4.01-21.56-5.86-32.37-.41-2.42-.24-4.98-.09-7.46,.2-3.26,2.71-6.22,5.56-6.92,1.88-.46,6.18,1.76,7.45,3.94,2.27,3.89,3.72,8.01,4.01,12.57,.24,3.76,.84,7.5,1.28,11.25Z"/>
          <path class="cls-3" d="M2119.77,295.14c3.23,.69,6.92,1.36,10.53,2.32,.93,.25,1.62,1.41,2.42,2.15-.79,.75-1.44,1.83-2.38,2.19-9.03,3.47-18.11,6.83-27.17,10.22-.31,.12-.59,.33-.91,.41-3.62,.82-7.48-.5-8.26-2.8-1.01-2.97,.61-7.34,3.85-8.89,3.23-1.54,6.7-2.71,10.17-3.59,3.63-.92,7.41-1.3,11.75-2.01Z"/>
          <path class="cls-13" d="M1959.31,290.05c.42,.64,1.07,1.21,1.22,1.89,1.85,8.18,3.66,16.36,5.37,24.57,.3,1.43,.39,3.08-.03,4.44-.4,1.28-1.41,2.91-2.52,3.27-1.11,.36-3.08-.27-3.92-1.17-1.18-1.26-2.09-3.1-2.36-4.81-1.45-9.2-1.24-18.37,1.23-27.42,.07-.25,.5-.4,1.01-.78Z"/>
          <path class="cls-38" d="M1970.65,65.94c-.17,.96-1.28,2.5-1.91,2.48-1.12-.05-2.51-.84-3.21-1.77-.85-1.12-1.6-2.72-1.53-4.07,.29-5.58,.54-11.22,3.08-16.38,.57-1.16,1.35-2.33,2.33-3.14,.78-.64,2.02-.72,3.05-1.05-.03,.92-.03,1.85-.09,2.77-.2,2.96-.42,5.91-.63,8.87"/>
          <path class="cls-13" d="M1966.36,185.07c.18,1.36,.44,2.72,.54,4.09,.32,4.59,.57,9.18,.85,13.77,.01,.16,.03,.33,.04,.49,.09,3.01-1.32,5.39-3.17,5.23-3.19-.27-2.71-2.74-2.79-4.84-.25-6.46,.56-12.72,3.27-18.62l1.25-.13Z"/>
          <path class="cls-11" d="M1979.42,50.95c-.29-5.2,2.64-8.53,6.22-11.42,.65-.52,1.78-.45,2.69-.65,.01,.9,.16,1.83,.01,2.71-.42,2.59-.94,5.17-1.47,7.74-.23,1.12-.3,2.47-.97,3.27-.95,1.12-2.45,2.61-3.62,2.53-2.17-.16-3.08-2.1-2.86-4.18Z"/>
          <path class="cls-35" d="M2231.01,359.65c-.5,0-1.04,.12-1.49-.02-1.49-.46-2.95-1.02-4.42-1.54,1.25-.86,2.43-1.84,3.76-2.54,2.35-1.23,4.75-2.39,7.2-3.4,3.12-1.28,5.95-.66,6.62,1.25,.62,1.78-1.23,4.27-4.34,5.22-2.34,.72-4.83,.95-7.25,1.4l-.07-.36Z"/>
        </g>
        <g>
          <path class="cls-23" d="M318,337.89c.16,.81-.1,2.44-.41,2.84-3.75,18.86-15.86,30.08-33.4,36.14-3.22,1.11-6.83,1.54-10.26,1.53-7.31-.01-14.63-.39-21.93-.9-2.24-.16-4.59-.87-6.58-1.91-15.45-8.14-23.19-21.54-24.76-38.43-2-21.55-2.12-43.15,1.24-64.61,2.59-16.55,2.39-33.08,.44-49.66-1.81-15.33-3.71-30.66-5.26-46.01-.83-8.26-1-16.58-1.46-24.88-.35-6.21-2.4-11.62-7.08-15.95-2.64-2.43-5.61-3.51-9.13-2.93-2.12,.35-4.21,.95-6.32,1.39-7.97,1.66-13.71,5.84-17.4,13.39-2.45,5.01-6.25,9.35-9.35,14.05-1.46,2.2-2.75,4.52-4.04,6.83-3.07,5.49-5.84,11.17-9.2,16.47-5.25,8.3-12.55,14.19-22.28,16.46-11.97,2.79-19.21,10.34-21.83,22-2.36,10.5-4.29,21.14-5.68,31.82-1.92,14.82-3.46,29.7-4.59,44.59-.93,12.25-1.07,24.56-1.5,36.84-.39,11.16-4.01,21.47-8.34,31.56-1.96,4.56-5.84,7.18-10.44,8.64-11.65,3.69-23.52,4.29-35.44,1.69-5-1.09-9.98-2.57-14.73-4.46-3.71-1.48-7.84-3.02-8.6-7.98-.08-.53-.84-.99-1.34-1.42-6.91-5.88-9.39-13.78-10.54-22.41-1.76-13.29-1.01-26.51,.62-39.74,1.26-10.22,2.25-20.46,3.44-30.69,1.95-16.68-.16-33.18-2.29-49.64-2.07-15.96-5.51-31.76-6.98-47.76-1.98-21.65-3.57-43.38-1.79-65.19,1.69-20.7,4.36-41.26,8.33-61.63,1.1-5.67,2.96-11.21,4.83-16.69,2.08-6.07,5.76-11.16,10.56-15.47,6.6-5.93,14.03-7.15,22.23-4.11,1.86,.69,3.84,1.42,5.32,2.66,6.74,5.64,13.73,11.07,19.87,17.32,6.94,7.07,7.75,16.6,8.31,25.99,.53,9-.58,17.89-1.48,26.83-.64,6.41-.47,12.91-.37,19.37,.03,2.2,.95,4.38,1.74,7.73,2.25-3.98,3.91-6.83,5.5-9.72,4.58-8.33,9.46-16.38,17.2-22.33,4.84-3.72,10-6.55,16.05-7.54,4.06-.66,7.61-2.28,10.7-4.96,8.79-7.61,17.95-14.85,26.31-22.91,14.97-14.42,32.34-24.33,52.45-29.29,12.62-3.11,25.47-5.07,38.51-2.78,3.73,.66,7.35,1.99,11,3.07,5.72,1.69,11.37,3.59,17.14,5.09,6.68,1.74,12.31,5.06,16.52,10.48,10.34,13.28,17.98,27.88,20.8,44.64,.63,3.74,.55,7.62,.5,11.43-.2,17.28-.31,34.56-.84,51.82-.64,20.92-1.59,41.83-2.57,62.73-.86,18.3-.27,36.56,1.47,54.76,1.46,15.18,3.62,30.29,5.32,45.45,.67,5.94,.89,11.92,1.42,17.88,.09,1,.19,2.7,.14,3.8,.92,5.69,.26,9.02,.26,14.67Zm-16.65-231.7l.7-.04c-.44-6.93-.88-13.87-1.34-20.8-1.17-17.8-8.53-33.09-19.28-46.95-3.04-3.92-6.98-6.39-12-7.36-3.87-.74-7.62-2.14-11.4-3.31-1.58-.49-3.11-1.12-4.65-1.74-6.36-2.59-12.91-3.79-19.79-3.01-7.39,.84-14.95,.9-22.14,2.57-18.44,4.28-34.38,13.35-48.15,26.44-7.8,7.42-16.1,14.32-24.35,21.25-5.21,4.38-10.83,8.05-17.86,9.21-7.17,1.18-12.88,5.14-17.14,10.93-3.63,4.92-7.01,10.02-10.29,15.18-2.59,4.07-4.95,8.27-9.36,10.72-5.02,2.79-9.64,1.84-12.13-3.31-1.98-4.09-3.8-8.67-4.03-13.11-.42-8.07,.34-16.2,.71-24.3,.26-5.78,.83-11.55,.98-17.33,.07-2.61-.7-5.23-.84-7.86-.3-5.64-2.05-10.83-5.58-15.1-4.98-6.03-10.68-11.47-17.49-15.41-5.49-3.17-11.11-2.84-14.86,1.88-2.24,2.82-4.46,5.79-5.96,9.03-3.57,7.7-4.68,16.12-6.02,24.4-1.29,7.98-2.26,16.01-3.23,24.03-1.01,8.35-2.4,16.7-2.66,25.09-.55,17.56-.56,35.14,1.71,52.64,.98,7.53,1.36,15.14,2.35,22.67,2.1,16.02,4.91,31.96,6.5,48.03,1.27,12.87-.04,25.79-2.11,38.59-1.65,10.25-3.52,20.51-4.36,30.84-.94,11.55-1.11,23.18-1.02,34.77,.04,5.2,1.31,10.45,2.43,15.58,1.42,6.49,6.77,10,11.53,13.82,.91,.73,2.49,.72,3.78,.89,6.88,.87,13.8,1.5,20.65,2.56,6.52,1,12.8,.44,19.15-1.22,3.25-.85,5.59-2.58,6.54-5.47,2.11-6.4,4.28-12.86,5.45-19.46,1.06-5.98,.82-12.19,1.15-18.3,.68-12.4,1.33-24.79,2.07-37.19,.21-3.46,.64-6.91,1.08-10.35,1.23-9.65,2.49-19.29,3.78-28.93,1.25-9.3,2.19-18.64,4.92-27.71,4.05-13.42,11.84-23.13,25.59-27.39,6.81-2.11,13.06-5.25,17.05-11.33,3.44-5.24,6.18-10.94,9.28-16.41,2.03-3.58,4.02-7.2,6.3-10.61,3.48-5.22,7.47-10.11,10.75-15.45,3.91-6.37,9.07-10.95,16.21-13.12,3.93-1.19,7.96-2.06,11.94-3.08,10.16-2.6,17.63,1.63,23.94,9.19,5.17,6.19,6.89,13.4,6.96,21.21,.04,4.32-.27,8.67,.17,12.96,1.08,10.66,2.64,21.28,3.72,31.94,1.16,11.51,2.14,23.03,2.94,34.57,.99,14.27-.01,28.5-2.07,42.62-1.58,10.82-2.85,21.63-2.66,32.57,.14,8.11,.6,16.22,.8,24.34,.2,8.44,2.63,16.28,6.36,23.73,.94,1.87,2.42,3.62,4.04,4.95,2.81,2.31,5.97,4.18,8.88,6.36,2.11,1.58,4.38,2.22,6.98,2.04,4.13-.29,8.42-1.33,12.35-.57,5.96,1.17,11.2-.38,16.36-2.53,10.42-4.36,18.43-11.41,21.27-22.7,1.73-6.88,1.99-14.07,1.48-21.21-.24-3.3-.55-6.59-.74-9.89-.39-6.61-.66-13.23-1.13-19.83-.24-3.45-.03-7.21-1.35-10.26-2.89-6.7-2.58-13.59-2.61-20.53-.03-5.82,.18-11.64-.11-17.45-.35-6.92-1.35-13.81-1.62-20.73-.18-4.6,.56-9.24,.67-13.86,.41-16.58,.75-33.17,1.06-49.75,.13-6.65,.04-13.3,.2-19.94,.1-4.29,.76-8.58,.67-12.86-.15-6.62-.72-13.22-1.12-19.83Z"/>
          <path class="cls-32" d="M302.47,126.03c.09,4.28-.56,8.57-.67,12.86-.16,6.64-.07,13.29-.2,19.94-.31,16.58-.66,33.17-1.06,49.75-.11,4.62-.85,9.26-.67,13.86,.27,6.92,1.27,13.81,1.62,20.73,.29,5.8,.08,11.63,.11,17.45,.03,6.94-.28,13.83,2.61,20.53,1.32,3.05,1.11,6.8,1.35,10.26,.46,6.6,.73,13.22,1.13,19.83,.2,3.3,.51,6.59,.74,9.89,.51,7.14,.25,14.33-1.48,21.21-2.84,11.29-10.85,18.33-21.27,22.7-5.15,2.16-10.39,3.7-16.36,2.53-3.93-.77-8.22,.28-12.35,.57-2.6,.18-4.87-.46-6.98-2.04-2.91-2.18-6.07-4.05-8.88-6.36-1.62-1.33-3.1-3.08-4.04-4.95-3.74-7.45-6.16-15.29-6.36-23.73-.19-8.11-.66-16.22-.8-24.34-.19-10.94,1.08-21.75,2.66-32.57,2.06-14.12,3.07-28.34,2.07-42.62-.8-11.54-1.78-23.07-2.94-34.57-1.08-10.66-2.64-21.28-3.72-31.94-.43-4.28-.13-8.63-.17-12.96-.07-7.81-1.79-15.02-6.96-21.21-6.31-7.55-13.78-11.79-23.94-9.19-3.98,1.02-8.01,1.89-11.94,3.08-7.15,2.17-12.31,6.75-16.21,13.12-3.27,5.34-7.26,10.23-10.75,15.45-2.28,3.42-4.26,7.04-6.3,10.61-3.11,5.46-5.84,11.16-9.28,16.41-3.99,6.08-10.24,9.22-17.05,11.33-13.75,4.26-21.54,13.96-25.59,27.39-2.74,9.07-3.68,18.41-4.92,27.71-1.29,9.64-2.55,19.28-3.78,28.93-.44,3.44-.87,6.89-1.08,10.35-.74,12.39-1.39,24.79-2.07,37.19-.34,6.11-.1,12.32-1.15,18.3-1.17,6.61-3.34,13.07-5.45,19.46-.95,2.89-3.29,4.63-6.54,5.47-6.35,1.65-12.63,2.22-19.15,1.22-6.85-1.05-13.77-1.69-20.65-2.56-1.29-.16-2.87-.15-3.78-.89-4.75-3.83-10.1-7.34-11.53-13.82-1.13-5.13-2.39-10.38-2.43-15.58-.09-11.59,.08-23.22,1.02-34.77,.84-10.33,2.71-20.59,4.36-30.84,2.06-12.81,3.38-25.73,2.11-38.59-1.59-16.07-4.4-32.01-6.5-48.03-.99-7.53-1.37-15.14-2.35-22.67-2.27-17.5-2.26-35.08-1.71-52.64,.26-8.38,1.65-16.74,2.66-25.09,.97-8.02,1.94-16.06,3.23-24.03,1.34-8.29,2.45-16.7,6.02-24.4,1.5-3.24,3.72-6.21,5.96-9.03,3.75-4.72,9.37-5.05,14.86-1.88,6.81,3.93,12.5,9.38,17.49,15.41,3.54,4.28,5.29,9.47,5.58,15.1,.14,2.63,.91,5.25,.84,7.86-.15,5.78-.71,11.55-.98,17.33-.37,8.1-1.13,16.23-.71,24.3,.23,4.45,2.05,9.02,4.03,13.11,2.49,5.16,7.11,6.1,12.13,3.31,4.41-2.45,6.77-6.65,9.36-10.72,3.28-5.16,6.66-10.26,10.29-15.18,4.27-5.79,9.98-9.75,17.14-10.93,7.03-1.16,12.64-4.83,17.86-9.21,8.25-6.93,16.55-13.83,24.35-21.25,13.77-13.09,29.71-22.16,48.15-26.44,7.19-1.67,14.75-1.73,22.14-2.57,6.88-.78,13.43,.43,19.79,3.01,1.53,.62,3.07,1.25,4.65,1.74,3.78,1.17,7.53,2.56,11.4,3.31,5.02,.97,8.96,3.43,12,7.36,10.75,13.87,18.1,29.15,19.28,46.95,.46,6.93,.89,13.87,1.34,20.8m-16.49,100.14c1.31-2.7,2.71-4.48,3.04-6.45,.92-5.48,1.83-11.03,1.95-16.57,.14-6.41-.34-12.85-.97-19.24-.33-3.36-.87-6.86-3.59-9.48-3.81-3.69-10.03-2.42-11.4,2.67-.7,2.6-.75,5.51-.45,8.21,.63,5.52,1.7,10.99,2.57,16.49,1.13,7.15,2.98,14.1,6.01,20.7,.46,1,1.36,1.8,2.83,3.68Zm-3.93,126.3c0-1.49,.12-2.99-.03-4.47-.21-2.12-.38-4.29-1.01-6.3-.63-2.01-1.52-4.05-2.77-5.73-2.67-3.58-9.93-4.81-12.14,2-.55,1.69-.95,3.51-.98,5.28-.09,5.46-.2,10.94,.15,16.39,.24,3.73,1.1,7.44,1.94,11.09,.6,2.64,2.61,3.51,5.26,3.47,2.96-.05,4.43-1.95,5.7-4.12,3.18-5.44,3.47-11.54,3.88-17.61ZM199.46,51.07c.36-.08,1.42-.1,2.25-.56,5.47-3.03,11.55-3.52,17.54-4.62,4.33-.8,8.61-2.26,12.64-4.03,1.86-.82,4.99-1.56,4.73-4.41-.25-2.83-3.04-3.63-5.42-4.37-9.07-2.84-18.24-2.54-27.34-.42-5.11,1.19-8.78,4.47-10.56,9.55-1.57,4.49,1.2,8.9,6.16,8.87ZM39.37,90.76c1.59-2.47,2.94-3.98,3.59-5.74,1.08-2.89,1.93-5.92,2.49-8.96,1.02-5.46,1.97-10.96,2.53-16.48,.35-3.47-1.92-6.13-4.67-6.52-2.87-.4-5.33,1.29-6.33,4.97-.72,2.66-.53,5.56-1.2,8.24-1.58,6.28-.73,12.42,.73,18.52,.43,1.8,1.61,3.41,2.86,5.97Zm131.4-20.55c-.89-.56-1.39-1.13-1.69-1.04-8.25,2.42-16.05,5.83-22.91,11.08-2.65,2.03-3.08,4.78-1.55,6.92,1.52,2.13,4.96,2.75,7.55,.92,7.01-4.96,13.7-10.29,18.6-17.89ZM39.18,357.2c-.77-8.28-3.46-15.48-6.65-22.48-.4-.87-2.74-1.56-3.86-1.23-1.35,.39-2.81,1.76-3.39,3.07-.53,1.2-.36,3.08,.2,4.33,1.9,4.2,3.91,8.37,6.29,12.31,1.35,2.24,3.57,3.88,7.4,4Zm6.63-20.97c-4.71-.02-7.05,3.21-5.06,7.24,1.8,3.65,4.24,7,6.53,10.39,.51,.75,1.52,1.38,2.42,1.6,1.34,.33,3.19,.8,4.07,.16,.88-.64,1.42-2.73,1.08-3.88-1.29-4.37-3.01-8.61-4.56-12.91-.82-2.29-2.6-2.78-4.47-2.6ZM26.71,90.64l.92-.07c.46-1.34,1.13-2.65,1.35-4.03,1.1-7.15,2.08-14.32,3.09-21.49,.35-2.44,.85-4.88,.93-7.34,.03-.88-.95-2.53-1.5-2.55-1.32-.03-3.13,.31-3.87,1.22-.97,1.17-1.42,3.02-1.52,4.61-.46,7.09-.89,14.18-.94,21.28-.02,2.79,1,5.58,1.55,8.37Zm262.61,251.64c2.32-.83,3.98-2.27,4.42-4.73,.72-4.02,1.43-8.05,1.84-12.1,.28-2.78,.05-5.61,.08-8.41,.02-2.22-.82-4.09-3.04-4.49-2.38-.43-3.54,1.33-4,3.45-.34,1.59-.75,3.22-.72,4.83,.04,2.45,.51,4.88,.67,7.33,.3,4.62,.5,9.26,.75,14.12Zm-9.98-286.65c.45-2.75-1.21-4.58-3.63-4.55-2.36,.03-5.08,2.78-4.75,5.43,.56,4.36,2.71,8.08,5.94,11.08,.96,.88,2.41,.07,2.42-1.27,.04-3.56,.01-7.12,.01-10.68ZM26.17,152.76c0-.5,0-.99,0-1.49,.01-2.05,.01-4.17-2.72-4.45-2.63-.27-3.17,1.68-3.76,3.69-1.44,4.87,.47,9.37,1.44,13.97,.1,.49,.96,1.27,1.18,1.19,.65-.25,1.5-.78,1.65-1.36"/>
          <path class="cls-43" d="M285.56,206.29c-1.47-1.87-2.37-2.68-2.83-3.68-3.02-6.6-4.88-13.54-6.01-20.7-.87-5.5-1.94-10.97-2.57-16.49-.31-2.7-.25-5.61,.45-8.21,1.37-5.08,7.59-6.36,11.4-2.67,2.71,2.62,3.26,6.12,3.59,9.48,.63,6.39,1.11,12.83,.97,19.24-.12,5.54-1.03,11.09-1.95,16.57-.33,1.96-1.73,3.75-3.04,6.45Z"/>
          <path class="cls-43" d="M281.63,332.6c-.4,6.06-.69,12.17-3.88,17.61-1.27,2.17-2.75,4.07-5.7,4.12-2.65,.04-4.66-.83-5.26-3.47-.84-3.66-1.7-7.37-1.94-11.09-.35-5.44-.24-10.93-.15-16.39,.03-1.77,.44-3.58,.98-5.28,2.2-6.81,9.47-5.57,12.14-2,1.25,1.68,2.15,3.72,2.77,5.73,.63,2.01,.8,4.18,1.01,6.3,.15,1.48,.03,2.98,.03,4.47Z"/>
          <path class="cls-43" d="M199.46,51.07c-4.96,.03-7.74-4.38-6.16-8.87,1.78-5.08,5.45-8.36,10.56-9.55,9.1-2.12,18.28-2.41,27.34,.42,2.38,.75,5.17,1.54,5.42,4.37,.25,2.85-2.87,3.59-4.73,4.41-4.03,1.77-8.31,3.23-12.64,4.03-5.99,1.1-12.07,1.59-17.54,4.62-.82,.46-1.89,.47-2.25,.56Z"/>
          <path class="cls-43" d="M39.37,90.76c-1.25-2.55-2.43-4.17-2.86-5.97-1.46-6.1-2.31-12.24-.73-18.52,.67-2.68,.48-5.58,1.2-8.24,.99-3.68,3.46-5.37,6.33-4.97,2.76,.38,5.02,3.05,4.67,6.52-.55,5.52-1.51,11.02-2.53,16.48-.57,3.04-1.41,6.06-2.49,8.96-.66,1.76-2.01,3.27-3.59,5.74Z"/>
          <path class="cls-43" d="M170.77,70.21c-4.89,7.6-11.59,12.93-18.6,17.89-2.59,1.84-6.03,1.22-7.55-.92-1.53-2.14-1.09-4.89,1.55-6.92,6.85-5.26,14.66-8.66,22.91-11.08,.31-.09,.81,.48,1.69,1.04Z"/>
          <path class="cls-14" d="M39.18,357.2c-3.83-.12-6.05-1.76-7.4-4-2.38-3.94-4.39-8.11-6.29-12.31-.57-1.26-.74-3.13-.2-4.33,.58-1.31,2.04-2.68,3.39-3.07,1.12-.33,3.46,.36,3.86,1.23,3.19,7,5.88,14.2,6.65,22.48Z"/>
          <path class="cls-37" d="M45.81,336.23c1.87-.18,3.65,.31,4.47,2.6,1.54,4.3,3.26,8.54,4.56,12.91,.34,1.15-.2,3.24-1.08,3.88-.88,.63-2.73,.16-4.07-.16-.89-.22-1.91-.85-2.42-1.6-2.29-3.39-4.73-6.74-6.53-10.39-1.99-4.03,.35-7.26,5.06-7.24Z"/>
          <path class="cls-28" d="M26.71,90.64c-.55-2.79-1.57-5.58-1.55-8.37,.05-7.1,.48-14.19,.94-21.28,.1-1.59,.56-3.43,1.52-4.61,.75-.9,2.55-1.25,3.87-1.22,.55,.01,1.53,1.67,1.5,2.55-.08,2.45-.58,4.89-.93,7.34-1.02,7.16-2,14.33-3.09,21.49-.21,1.38-.89,2.69-1.35,4.03l-.92,.07Z"/>
          <path class="cls-31" d="M289.33,342.28c-.25-4.87-.45-9.5-.75-14.12-.16-2.45-.62-4.89-.67-7.33-.03-1.61,.37-3.24,.72-4.83,.46-2.12,1.62-3.88,4-3.45,2.21,.4,3.06,2.27,3.04,4.49-.03,2.81,.21,5.64-.08,8.41-.42,4.06-1.12,8.09-1.84,12.1-.44,2.46-2.1,3.9-4.42,4.73Z"/>
          <path class="cls-15" d="M279.34,55.63c0,3.56,.03,7.12-.01,10.68-.02,1.34-1.47,2.15-2.42,1.27-3.24-2.99-5.38-6.71-5.94-11.08-.34-2.64,2.38-5.4,4.75-5.43,2.43-.03,4.08,1.8,3.63,4.55Z"/>
          <path class="cls-30" d="M23.95,164.31c-.14,.58-1,1.11-1.65,1.36-.22,.09-1.08-.7-1.18-1.19-.96-4.6-2.88-9.09-1.44-13.97,.59-2.01,1.13-3.96,3.76-3.69,2.74,.28,2.73,2.4,2.72,4.45,0,.5,0,.99,0,1.49"/>
        </g>
      </g>
    </g>
  </g>
</svg>