<?xml version="1.0" encoding="UTF-8"?>
<svg xmlns="http://www.w3.org/2000/svg" xmlns:xlink="http://www.w3.org/1999/xlink" viewBox="0 0 991.85 385.12">
  <defs>
    <style>
      .cls-1 {
        fill: #f4a757;
      }

      .cls-2 {
        fill: #91d1d7;
      }

      .cls-3 {
        filter: url(#outer-glow-3);
      }

      .cls-4 {
        filter: url(#outer-glow-1);
      }

      .cls-5 {
        fill: #abe3e5;
      }

      .cls-6 {
        fill: #e8871f;
      }

      .cls-7 {
        fill: #f4a857;
      }

      .cls-8 {
        filter: url(#outer-glow-2);
      }

      .cls-9 {
        fill: #aae2e4;
      }
    </style>
    <filter id="outer-glow-1" filterUnits="userSpaceOnUse">
      <feOffset dx="0" dy="0"/>
      <feGaussianBlur result="blur" stdDeviation="17.01"/>
      <feFlood flood-color="#7ead79" flood-opacity=".85"/>
      <feComposite in2="blur" operator="in"/>
      <feComposite in="SourceGraphic"/>
    </filter>
    <filter id="outer-glow-2" filterUnits="userSpaceOnUse">
      <feOffset dx="0" dy="0"/>
      <feGaussianBlur result="blur-2" stdDeviation="17.01"/>
      <feFlood flood-color="#7ead79" flood-opacity=".85"/>
      <feComposite in2="blur-2" operator="in"/>
      <feComposite in="SourceGraphic"/>
    </filter>
    <filter id="outer-glow-3" filterUnits="userSpaceOnUse">
      <feOffset dx="0" dy="0"/>
      <feGaussianBlur result="blur-3" stdDeviation="17.01"/>
      <feFlood flood-color="#7ead79" flood-opacity=".85"/>
      <feComposite in2="blur-3" operator="in"/>
      <feComposite in="SourceGraphic"/>
    </filter>
  </defs>
  <g id="_лой_1" data-name="Слой 1"/>
  <g id="_лой_2" data-name="Слой 2">
    <g id="_лой_1-2" data-name="Слой 1">
      <g class="cls-4">
        <path class="cls-2" d="M665.17,40.26c-1.41-3.58-1.91-5.65-1.27-8.93-.69-.41-1.3-1.05-1.77-1.96-3.32-6.51-8.75-10.33-14.76-14.23-.71-.46-1.4-.97-2.1-1.51-4.92,.04-9.84,.16-14.76,.48-3.05,.19-4.65-1.96-4.8-4.31-.15,.01-.3,.04-.46,.04-4.5,0-9-.08-13.5,.19-4,.25-8.38,.09-12.31,.74-.8,.13-1.53,.08-2.2-.09-.57,.91-1.53,1.63-2.93,1.93-6.96,1.49-14.12,2.08-21.02,3.81-3.11,.78-6.14,1.79-9.26,2.52-2.49,.59-5.32,.73-7.54,2.04-.41,2.13-1.96,4.14-4.64,4.49-5.09,.66-9.87,3.05-15.03,3.58-5.24,.53-10.59,.24-15.85,.23-.59,0-1.12-.09-1.6-.25-.94,.44-2.09,.51-3.41,0-7.37-2.84-16.13-1.59-23.83-2.25-5.39-.46-12.55-2.95-16.98-6.14-1.2-.86-1.85-1.98-2.08-3.15-1.4,.33-2.93-.05-4.19-1.57-4.42-5.34-12.83-6.71-19.26-8.22-3.5-.82-6.93-1.62-10.38-2.64-3.85-1.14-7.71-1.13-11.69-1.47-.21-.02-.41-.06-.6-.1-.5,1.94-2.05,3.55-4.65,3.51-2.25-.03-4.48-.29-6.72-.37-2.79-.11-4.01,.38-6.45,1.6-1.26,.63-3.6,1.12-4.6,2.06-.88,.83-.87,1.97-1.3,3.17-1.31,3.64-3.86,6.68-5.31,10.28-.71,1.75-1.56,3-2.61,4.07,.12,.48,.18,1.01,.15,1.59-.23,4.13-1.57,8.13-3.23,11.9-1.5,3.43-4.3,6.33-5.17,9.99-.08,.34-.19,.65-.31,.94,.28,.61,.43,1.32,.43,2.13-.03,4.73-.45,9.38-1.06,14.07-.36,2.8-.59,5.21-2.13,7.18,.03,.24,.05,.49,.04,.75-.14,8.11,1.18,16.59-1.69,24.26-.09,.24-.2,.47-.31,.68,1.02,1.09,1.61,2.61,1.3,4.44-.66,3.81-2.39,7.32-3.21,11.11-.77,3.58-1.93,6.88-2.9,10.37-.08,.27-.17,.52-.28,.76,1.02,.8,1.72,2.05,1.71,3.76-.04,4.48-.4,8.96-.45,13.44-.03,2.97,.07,5.62-1.99,7.63,.38,.89,.5,1.94,.22,3.12-.77,3.26-1.56,6.53-2.16,9.83,1.23,.78,2.12,2.11,2.14,4.01,.03,3.29-.03,6.51-.24,9.79-.17,2.58,.5,4.88,.81,7.42,.73,6.03,.37,12.22,.88,18.27,.03,.35,.02,.67,0,.98,.16,.53,.24,1.11,.2,1.78-.23,4.23-1.8,8.14-2.07,12.36-.24,3.69-.58,7.34-.87,10.99,.3,.58,.51,1.25,.57,2.01,.36,4.18,.68,8.62,.72,12.81,.05,4.93-.46,9.38,.54,14.31,.12,.62,.13,1.19,.06,1.73,.47,.73,.74,1.64,.71,2.75-.13,4.03,.56,6.88,1.52,10.75,.91,3.69,.6,6.97,.21,10.62,.07,.2,.14,.4,.19,.61,1.98,7.86,.45,16.24,1.43,24.19,.12,.97-.01,1.79-.33,2.46,.83,.8,1.34,1.97,1.24,3.52-.3,4.83-1.44,8.95-.86,13.89,.49,4.26-.93,8.08-.45,12.26,.19,1.7-.38,2.94-1.33,3.73,.04,.15,.07,.3,.1,.46,.72,4.26,1.49,8.45,2.27,12.7,.37,2.03,.42,4.11,.79,6.14,.18,.97,1.41,3.26,.22,2.41l-.34,.04c.52,.27,1.01,.62,1.43,1.05,.42,.04,.86,.14,1.33,.31,7.63,2.85,14.56,5.45,22.75,6.35,7.67,.84,15.56,.38,23.3,.27,.58-.75,1.46-1.34,2.67-1.62,4.48-1.04,10.23-2.99,14.25-5.31,2.27-1.31,3.59-3.23,5.17-5.24,.55-.7,3.47-3.57,3.45-3.35,.13-2.23,1.44-3.69,3.07-4.36-.07-.87,.09-1.8,.57-2.76,2.78-5.44,1.9-11.72,1.73-17.6-.19-6.26,.77-12.4,1.65-18.58,.3-2.12,1.57-3.22,3.1-3.53,.03-1.73-.06-3.47,.13-5.19,.25-2.3,.69-4.33,.22-6.63-1-4.88-1.36-7.66,.17-12.44,.62-1.93,2-2.97,3.54-3.32v-.03c1.75-6.2,.54-12.77,1.53-19,.92-5.83,2.68-12.57,9.4-13.59,.12-.02,.24-.02,.36-.03,.76-1.34,2.13-2.33,4.12-2.38,8.68-.22,17.22-2.98,25.93-3.23,3.66-.11,8.33,.07,11.33,2.14,.79-1.14,2.1-1.91,3.93-1.87,6.62,.16,13.1,1.44,19.74,1.47,5.99,.03,13.63,1.11,19.19-1.51,1.54-.73,3.02-.65,4.26-.1,.4-1.46,1.39-2.79,3.11-3.49,7.96-3.26,19.11-6.18,21.47-15.82,.5-2.03,1.84-3.11,3.38-3.45,.07-.31,.16-.62,.3-.95,1.7-4.06,1.64-10.23,2.11-14.62,.57-5.38,.22-10.79,1.18-16.12v-.02c-1.13-.51-2.02-1.55-2.3-3.23-.25-1.46-2.03-3.06-2.93-4.15-1.39-1.66-2.8-3.29-4.19-4.95-2.68-3.2-5.21-6.21-9.36-7.38-2.04-.57-3.11-2-3.43-3.59-3.61-1.64-7.37-2.9-11.22-3.6-6.43-1.17-13.15-.54-19.64,1.21-10.47,2.82-20.99,5.34-31.99,4.59-1.43-.1-2.9,.39-4.35,.6-5.17,.77-10.32,1.66-15.51,2.29-7.01,.85-13.74-.67-20.28-3.06-3.01-1.1-5.65-3.06-6.81-6.11-1.26-3.32-2-6.85-2.87-10.31,0-.02,0-.05,0-.07-1.6-.99-2.51-2.8-1.53-5.12,2.11-5.01,2.65-10.41,4.27-15.57,1.43-4.55,3.53-8.59,6.15-12.56,2.04-3.08,5.78-2.72,7.9-.83,.59-.84,1.22-1.66,1.86-2.47-1.69-2.17-1.84-5.59,1.23-7.37,6.02-3.47,10.7-5.85,17.74-6.31,5.77-.38,10.97-2.17,16.76-2.35,.08-2.44,1.68-4.87,4.82-4.96,5.25-.15,10.2-1.44,15.29-2.62,4.92-1.14,9.59-1.27,14.6-1.59,2.63-.17,4.18,1.4,4.65,3.34,.9,.02,1.81,.07,2.71,.14,.67-1.6,2.14-2.84,4.4-2.83,4.33,.02,8.67,.18,13-.06,4.02-.22,7.86-1.02,11.88-.55,3.76,.44,7.29,1.89,11.06,2.21,4.12,.35,8.34,.25,12.47,.37,1.81,.05,3.09,.89,3.88,2.05,.37-1.47,1.46-2.71,3.46-3.12,4.89-.98,9.81-1.91,14.64-3.18,1.42-.37,3.53-.72,5.47-1.28,.03-1.09,.54-2.19,1.73-3.12,2.05-1.6,4.52-2.87,6.46-4.57,2.26-1.98,2.97-5.02,4.57-7.5,1.71-2.64,4.14-5,5.46-7.87,1.34-2.92,.97-5.85,.57-8.91-.37-2.75,1.29-4.29,3.37-4.65,1.5-5.37,.99-9.66-1.09-14.91Zm-95.14,165.43c2.18-1.53,4.83-.87,6.17,1.49,1.22,2.15,1.31,4.13,.17,6.48-.95,1.96-.74,4.73-3.49,5.21-1.29,.23-4.46-4.47-4.71-6.46-.08-.65-.01-1.32-.01-2.28-.35-1.67,.2-3.27,1.88-4.44Zm-31.6-9.12c1.47-2.25,3.26-4.33,6.6-3.84,1.53,.49,3.45,.55,4.53,1.53,4.84,4.4,9.9,8.58,12.02,15.32,.75,2.4-.12,3.76-.98,5.4-.47,.9-1.28,1.07-2.51,.58-3.94-1.6-7.58-3.72-10.99-6.19-2.39-1.73-4.61-3.71-6.78-5.73-2.04-1.9-3.03-5.33-1.89-7.09Zm-95.36,111.56c-1.31,3.53-4.12,5.42-6.9,2.16-3.91-4.58-6.78-10.06-7.92-16.06-.89-4.68,2.93-7.58,7.4-5.92,1.96,.73,3.81,1.77,4.64,4.11,1.36,3.83,3.29,7.49,2.85,11.84,0,1.23,.37,2.7-.07,3.87Zm-1.45-274.99c-4.42-2.31-5.61-6.23-3.49-10.19,1.39-2.6,3.49-3.32,6.43-3.48,2.39,.92,4.98,1.51,7.12,2.84,4.99,3.09,10.2,6.1,12.54,12,.41,1.04,.84,2.14,.91,3.23,.27,4.22-.56,4.49-4.76,3.64-6.86-1.39-12.71-4.89-18.75-8.04Zm23.32,55.07c-2.39,5.82-3.96,12.08-7.9,17.17-1.21,1.56-2.64,2.99-4.16,4.26-1.22,1.02-2.63,.31-2.7-1.28-.1-2.15-.02-4.32-.02-6.48-.32-6.11,1.01-11.95,2.93-17.68,1.57-4.67,4.71-6.5,9.04-5.1,.81,.26,1.46,1.22,2.02,1.98,1.63,2.2,1.64,5.06,.79,7.13Zm156.19-34.78c-.18,1.55-1.47,2.16-2.78,1.2-1.58-1.15-3.05-2.44-4.56-3.67-2.28-1.86-4.62-3.66-6.81-5.63-2.18-1.96-2.52-4.63-1.08-6.53,1.37-1.8,5.4-2.69,7.13-1.24,4.47,3.74,8.42,7.89,8.1,14.24,0,.64,.05,1.14,0,1.63Zm4.95-9.57c-.93,.08-2.09-.68-2.9-1.36-1.51-1.28-2.79-2.83-4.26-4.16-1.45-1.3-3.01-2.48-4.55-3.67-2.51-1.94-3.62-4.58-2.7-6.66,2.2-4.96,5.13-5.26,8.78-2.01,4.24,3.76,6.9,8.61,6.7,14.58,0,.17,.03,.34,0,.5-.19,1.02,.61,2.65-1.06,2.79Z"/>
        <path class="cls-5" d="M444.56,19.47c2.39,.92,4.98,1.51,7.12,2.84,4.99,3.09,10.2,6.1,12.54,12,.41,1.04,.84,2.14,.91,3.23,.27,4.22-.56,4.49-4.76,3.64-6.86-1.39-12.71-4.89-18.75-8.04-4.42-2.31-5.61-6.23-3.49-10.19,1.39-2.6,3.49-3.32,6.43-3.48Z"/>
        <path class="cls-5" d="M545.02,192.74c1.53,.49,3.45,.55,4.53,1.53,4.84,4.4,9.9,8.58,12.02,15.32,.75,2.4-.12,3.76-.98,5.4-.47,.9-1.28,1.07-2.51,.58-3.94-1.6-7.58-3.72-10.99-6.19-2.39-1.73-4.61-3.71-6.78-5.73-2.04-1.9-3.03-5.33-1.89-7.09,1.47-2.25,3.26-4.33,6.6-3.84Z"/>
        <path class="cls-5" d="M450.16,101.89c-.32-6.11,1.01-11.95,2.93-17.68,1.57-4.67,4.71-6.5,9.04-5.1,.81,.26,1.46,1.22,2.02,1.98,1.63,2.2,1.64,5.06,.79,7.13-2.39,5.82-3.96,12.08-7.9,17.17-1.21,1.56-2.64,2.99-4.16,4.26-1.22,1.02-2.63,.31-2.7-1.28-.1-2.15-.02-4.32-.03-6.48Z"/>
        <path class="cls-5" d="M443.14,304.26c0,1.23,.37,2.7-.07,3.87-1.31,3.53-4.12,5.42-6.9,2.16-3.91-4.58-6.78-10.06-7.92-16.06-.89-4.68,2.93-7.58,7.4-5.92,1.96,.73,3.81,1.77,4.64,4.11,1.36,3.83,3.29,7.49,2.85,11.84Z"/>
        <path class="cls-9" d="M627.16,40.59c0,.17,.03,.34,0,.5-.19,1.02,.61,2.65-1.06,2.79-.93,.08-2.09-.68-2.9-1.36-1.51-1.28-2.79-2.83-4.26-4.16-1.45-1.3-3.01-2.48-4.55-3.67-2.51-1.94-3.62-4.58-2.7-6.66,2.2-4.96,5.13-5.26,8.78-2.01,4.24,3.76,6.9,8.61,6.7,14.58Z"/>
        <path class="cls-5" d="M621.15,51.81c0,.64,.05,1.14,0,1.63-.18,1.55-1.47,2.16-2.78,1.2-1.58-1.15-3.05-2.44-4.56-3.67-2.28-1.86-4.62-3.66-6.81-5.63-2.18-1.96-2.52-4.63-1.08-6.53,1.37-1.8,5.4-2.69,7.13-1.24,4.47,3.74,8.42,7.89,8.1,14.24Z"/>
        <path class="cls-9" d="M568.16,210.13c-.35-1.67,.2-3.27,1.88-4.44,2.18-1.53,4.83-.87,6.17,1.49,1.22,2.15,1.31,4.13,.17,6.48-.95,1.96-.74,4.73-3.49,5.21-1.29,.23-4.46-4.47-4.71-6.46-.08-.65-.01-1.32-.01-2.28Z"/>
        <path d="M470.58,307.36c1.67,17.79-.98,31.5-6.13,44.9-5.95,15.48-16.8,24.67-33.27,27.36-12.82,2.09-25.51,1.97-38.11-1.37-10.11-2.68-14.53-8.04-14.99-18.43-.34-7.62-.61-15.26-.57-22.89,.04-8.96,.2-17.94,.77-26.89,.59-9.24-1.28-18.18-2.39-27.23-2.48-20.3-4.04-40.6-2.92-61.13,.99-18.07,1.22-36.21-.3-54.31-1.25-14.86,.4-29.54,2.99-44.14,2.29-12.97,3.28-26.03,3.61-39.17,.39-15.55,3.01-30.71,8.05-45.44,2.61-7.63,6.61-14.48,11.18-21.06,1.41-2.03,2.51-4.27,3.88-6.33,3.47-5.21,8.58-7.63,14.64-8.3,4.11-.46,8.23-.99,12.36-1.18,3.47-.16,6.98-.17,10.42,.24,11.51,1.38,22.69,4.17,32.26,10.98,9.04,6.44,18.87,9.37,29.9,9.39,7.3,0,14.63,.47,21.75,2.52,8.04,2.31,15.82,1.07,23.37-2.18,15.95-6.86,32.57-11.65,49.57-14.93,10.1-1.95,20.39-3.07,30.65-3.91,13.95-1.14,24.54,5.66,33.6,15.47,.22,.24,.39,.54,.6,.79,13.41,15.68,11.33,32.45,3.07,49.37-8.76,17.95-23.92,27.52-43.09,31.4-14.1,2.85-28.17,1.66-42.2-.51-10.21-1.58-20.35-3.26-30.76-1.62-8.46,1.33-16.62,3.53-24.26,7.3-6.03,2.98-12.24,4.33-18.84,3.45-6.79-.9-12.31,1.53-16.32,6.64-3.87,4.93-7.28,10.29-10.34,15.78-3.56,6.37-6.47,13.11-9.75,19.63-1.19,2.36-1.63,4.64-.55,7.13,.33,.76,.63,1.58,.67,2.39,.37,7.12,4.88,10.24,11.06,12.44,8.88,3.16,17.67,2.28,26.59,.72,3.76-.66,7.6-1.54,11.37-1.4,10.65,.39,20.88-1.76,30.97-4.6,19.82-5.58,35.47,2.37,49.59,14.98,5.28,4.72,7.52,11.21,7.72,18.36,.22,7.91-1.09,15.54-3.8,22.96-2.42,6.61-6.52,12.04-12.28,15.97-20.42,13.92-42.48,19.24-66.77,12.1-.96-.28-1.94-.51-2.87-.86-7.17-2.72-14.15-2.58-21.37,.3-5.06,2.01-10.5,3.12-15.82,4.47-5.51,1.4-7.63,4.05-8.19,9.74-.72,7.26-1.85,14.47-2.68,21.72-.87,7.57-1.61,15.15-2.06,19.37Zm-85.95,33.48c-.34,6.55,.3,12.48,4.56,18.25,3.14,4.26,6.46,6.8,11.37,7.92,8.22,1.88,16.5,1.96,24.81,.95,12.14-1.47,22.04-6.19,26.7-18.52,3.91-10.32,6.88-20.76,6.45-32-.25-6.46-.01-12.97,.53-19.41,1-11.74,4.54-23.08,5.51-34.9,.76-9.24,6.72-14.76,14.86-16.67,6.78-1.59,13.5-3.45,20.14-5.53,4.85-1.52,9.7-2.48,14.72-1.64,3.92,.66,7.87,1.44,11.64,2.68,15.92,5.23,31.29,3.05,46.13-3.63,7.63-3.44,14.45-8.18,18.31-16.19,2.7-5.59,2.89-11.49,3.12-17.49,.24-6.22-2.17-11.12-7.12-14.56-10.12-7.04-20.75-11.42-33.67-7.96-8.14,2.18-16.66,3.44-25.08,3.96-8.63,.54-17.24,.8-25.83,2.15-11.11,1.74-21.5-.75-31.09-6.57-4.77-2.89-8.07-6.84-8.97-12.54-.26-1.62-.92-3.17-1.32-4.77-1.67-6.62-3.7-13.24,.99-19.57,.55-.75,.62-1.88,.83-2.85,1.9-9.04,5.34-17.53,10.23-25.29,8.35-13.25,19.55-21.53,36.36-19.67,3.49,.38,7.19-.75,10.73-1.48,2.09-.43,4.06-1.46,6.1-2.17,17.49-6.1,35.27-7.68,53.55-4.07,6.99,1.38,14.16,2.3,21.27,2.42,6.26,.11,12.6-.88,18.82-1.9,14.9-2.46,27.04-9.41,34.1-23.21,6.35-12.43,9.17-25.23-.56-37.43-5.91-7.41-13.53-12.22-23.41-12.35-11.37-.14-22.56,1.68-33.67,3.78-15.4,2.91-30.25,7.76-44.76,13.68-9.34,3.81-19,5.01-28.85,2.63-6.53-1.58-13.1-2.16-19.77-2.21-2.83-.02-5.65-.32-8.48-.4-9.09-.27-17.33-3.11-24.66-8.42-9.33-6.76-19.88-10.62-30.87-13.59-4.87-1.32-9.79-1.91-14.82-1.28-.95,.12-2.14,.03-2.82-.03-4.5-.4-3.55-.41-4.62,1.46-3.12,5.49-6.01,11.11-9.36,16.45-9.89,15.77-14.23,33.16-15.35,51.49-.96,15.58-1.62,31.17-4.8,46.55-2.63,12.74-3.64,25.67-2.78,38.67,1.44,21.78,.31,43.5-.79,65.26-.65,12.92-.35,25.92,.1,38.86,.46,13.1,2.02,26.16,2.38,39.26,.25,9.1-.7,18.24-1.12,27.36"/>
        <path d="M451.61,301.6c-.53,4.33-.94,8.78-1.68,13.18-.26,1.56-1.26,3.02-2.09,4.43-.24,.4-1.09,.58-1.66,.58-.25,0-.64-.71-.71-1.14-1.1-7.03-2.19-14.05-3.18-21.09-.21-1.46-.12-2.99,0-4.47,.16-2.04,1.24-3.42,3.34-3.74,2.28-.35,4.15,.58,4.66,2.76,.71,3.04,.89,6.2,1.32,9.49Z"/>
        <path d="M555.37,192.64c4.73,1.32,9.83,3.5,13.03,8.65,.42,.67,.63,1.53,.73,2.33,.3,2.37-.39,3.21-2.7,2.72-4.53-.97-9.02-2.17-13.49-3.38-3.91-1.05-5.2-2.73-4.69-5.77,.45-2.71,3.05-4.61,7.12-4.55Z"/>
        <path d="M642.06,37.02c-.14,.53-.62,1.03-1.08,1.8-.72-.49-1.47-.95-2.15-1.49-3.77-2.96-7.56-5.89-11.25-8.95-1.37-1.13-2.83-2.4-3.62-3.93-1.51-2.93,.44-5.75,3.75-5.75,.97,0,2.14,.1,2.87,.62,5.34,3.84,9.73,8.46,11.46,15.05,.16,.62,.34,1.34,.02,2.65Z"/>
        <path d="M457.93,106.65c1.66-5.53,3.33-11.54,5.34-17.43,.55-1.62,1.94-3.08,3.23-4.31,1.6-1.52,3.7-1.71,5.45-.28,1.72,1.4,1.25,3.21,.23,4.94-3.54,5.98-7.04,11.97-10.56,17.95-.17,.28-.37,.59-.48,.86-.31,.75-1.32,.74-1.98,1.1-.99-.58-1.23-1.17-1.23-2.82Z"/>
        <path d="M631.86,60.31c-3.18-3.45-5.82-6.09-8.16-8.96-1.13-1.39-.85-3.16,.53-4.5,1.38-1.33,4.04-1.41,5.4,.17,1.03,1.19,1.94,2.81,2.13,4.33,.34,2.7,.1,5.47,.1,8.96Z"/>
      </g>
      <g class="cls-8">
        <path class="cls-6" d="M319.52,159.94c-1.87-3.05-3.41-6.3-4.98-9.53-2.44,.74-5.59-.04-6.84-3.04-5.21-12.46-7-25.74-5.34-39.14,1.24-10,2.9-20.03,2.36-30-4.82-12.79-11.11-24.74-23.93-31.41-10.02-5.22-20.41-9.77-30.8-14.25-4.35-1.87-7.72-4.28-9.88-8.57-4.3-8.54-11.74-12.92-20.8-14.83-6.35-1.34-12.7-2.87-19.13-3.54-9.57-.99-19.22-1.8-28.82-1.73-7.95,.06-15.87,1.62-23.82,2.33-18.58,1.65-36.14,5.92-50.59,18.75-1.69,1.5-3.86,2.85-6.03,3.38-9.61,2.34-16.84,7.95-23.63,14.94-7.82,8.05-13.46,17.02-15.02,28.11-2.42,17.17-8.24,32.89-18.74,46.74-3.42,4.51-7.17,8.76-10.7,13.19-7.92,9.94-15.69,19.85-16.34,33.47-.31,6.58-1.71,13.11-2.73,19.64-.97,6.23-2.4,12.22-3.42,18.88,1.68,.66,3.07,2.12,3.27,4.38,.73,8.27,.83,16.69,1.29,25.05,.17,.24,.34,.51,.48,.81,6.03,12.62,9.64,25.58,8.74,39.66-.06,.89-.35,1.7-.8,2.4,.52,2.39,1,4.78,1.39,7.19,1.1,6.84,3.09,13.04,6.02,18.72,1.87-.39,3.95,.13,5.32,2.1,5.27,7.55,12.26,13.77,17.7,21.25,5.69,7.83,13.77,12.4,22.1,17.08,7.53,4.23,15.35,8.15,23.43,11.23,6.5,2.48,13.43,3.92,18.17,9.44,5.52,6.42,9.18,13.42,18.04,15.67,7.45,1.89,15.45,.76,23.06,1.23,6.97,.43,14.64,1.57,21.48-.3,6.71-1.83,12.56-6.12,19.26-8.11,5.87-1.75,11.95-1.95,18.02-2.12,.46-1.89,2-3.52,4.66-3.72,9.06-.68,17.58-5.22,26.8-3.82,4.42,.67,8.67,2.42,13.14,2.77,4.51,.36,9.16-.27,13.55-1.28,4.09-.94,7.99-2.37,11.97-3.66,3.7-1.2,7.77-1.99,11.04-4.21,5.93-4.03,7.95-11.8,13.51-16.37,.02-.02,.05-.03,.07-.05-.18-2.34,.09-4.73,.61-7.12-.29-1.62,.08-3.4,1.27-4.69,1.34-4.23,3.05-8.41,3.98-12.29,.15-.63,.33-1.25,.51-1.87,.15-2.18,.26-4.36,.5-6.52,.28-2.57,1.95-4.11,3.85-4.62,.52-1.21,1.02-2.43,1.5-3.67,2.13-5.58,3.49-11.36,4.34-17.27,1.74-12.08,6.72-23.15,9.94-34.84,3.46-12.55,4.14-25.8,4.19-38.76,0-1.81,.8-3.11,1.94-3.91-2.17-14.98-6.73-29.44-15.17-43.16ZM121.43,235.67c-.91,4.01-3.56,4.92-6.12,1.78-5.38-6.59-8.31-14.4-8.8-22.83-.21-3.66,2.02-6.77,6.16-7.24,4.16-.47,6.68,2.12,7.58,5.74,1.19,4.79,1.72,9.74,2.48,14.27-.46,3.07-.71,5.71-1.29,8.28Zm1.17-69.41c-2.56,3.03-6.74,4.33-10.95,2.19-4.09-2.07-5.22-5.74-5.41-11.7,1.06-2.14,2.13-6.26,4.68-9.02,5.85-6.33,12.31-12.33,20.97-14.52,2.83-.72,6.81-.27,9.03,1.34,1.23,.89,.94,5.98-.43,7.99-5.55,8.19-11.5,16.16-17.89,23.71Zm88.23,56.01c-.4,1.28-.99,2.35-1.72,3.26-.6,2.94-2.12,5.62-4.24,8.07-9.17,10.63-20.01,18.22-34.71,17.68-3.77-.14-7.92-1.46-11.11-3.48-4.91-3.1-10.91-4.73-14.3-10.08-1.18-.73-2.33-1.64-3.45-2.77-4.61-4.67-7.32-10.59-6.92-17.14,.54-8.88,2.73-17.64,1.11-26.54-.33-1.84,.25-3.37,1.28-4.46-1.71-.62-3.06-2.12-3.03-4.49,.08-7.39,4.32-16.17,8.99-21.81,4.76-5.75,11.75-7.94,18.75-9.62,13.27-3.17,30.52-4.85,40.44,6.6,3.78,4.37-1.57,10.56-5.76,8.17,0,.07,.01,.13,.01,.19,.15,5.24,.76,10.32,1.81,15.29,1.36,.1,2.64,.87,3.4,2.59,3.12,6.96,4.05,14.3,6.12,21.56,1.52,5.34,5.1,11.26,3.32,16.98Zm43.2-134.64c-9.21-7.21-18.17-14.28-27.2-21.28-3.69-2.86-4.74-6.69-2.9-10.6,1.83-3.88,6.1-4.2,9.65-3.23,3.4,.92,6.78,2.7,9.61,4.84,6.72,5.09,11.96,11.45,14.53,19.7,1.26,4.06,.64,7.49-3.69,10.57Zm41.97,145.6c-2.18,4.21-5.92,7.66-9.22,11.22-.58,.62-2.59,.56-3.54,.05-2.83-1.51-4.06-8.51-2.62-13.41,1.14-3.89,5.01-6.85,8.83-6.76,4.41,.11,8.57,5.01,6.56,8.9Zm1.41-40.34c-5.41,1.51-8.58-3.63-10.31-7.7-4.34-10.19-8.17-20.64-11.49-31.2-1.79-5.69,1.64-12.18,5.83-13.53,5.26-1.69,10.66,.62,12.91,7.28,3.64,10.76,6.19,21.89,9.2,32.87-1.66,4.86-.7,10.77-6.14,12.28Z"/>
        <path class="cls-7" d="M303.54,180.6c-1.66,4.86-.7,10.77-6.14,12.28-5.41,1.51-8.58-3.63-10.31-7.7-4.34-10.19-8.17-20.64-11.49-31.2-1.79-5.69,1.64-12.18,5.83-13.53,5.26-1.69,10.66,.62,12.91,7.28,3.64,10.76,6.19,21.89,9.2,32.87Z"/>
        <path class="cls-7" d="M106.24,156.75c1.06-2.14,2.13-6.26,4.68-9.02,5.85-6.33,12.31-12.33,20.97-14.52,2.83-.72,6.81-.27,9.03,1.34,1.23,.89,.94,5.98-.43,7.99-5.55,8.19-11.5,16.16-17.89,23.71-2.56,3.03-6.74,4.33-10.95,2.19-4.09-2.07-5.22-5.74-5.41-11.7Z"/>
        <path class="cls-7" d="M254.03,87.62c-9.21-7.21-18.17-14.28-27.2-21.28-3.69-2.86-4.74-6.69-2.9-10.6,1.83-3.88,6.1-4.2,9.65-3.23,3.4,.92,6.78,2.7,9.61,4.84,6.72,5.09,11.96,11.45,14.53,19.7,1.26,4.06,.64,7.49-3.69,10.57Z"/>
        <path class="cls-1" d="M122.72,227.39c-.46,3.07-.71,5.71-1.29,8.28-.91,4.01-3.56,4.92-6.12,1.78-5.38-6.59-8.31-14.4-8.8-22.83-.21-3.66,2.02-6.77,6.16-7.24,4.16-.47,6.68,2.12,7.58,5.74,1.19,4.79,1.72,9.74,2.48,14.27Z"/>
        <path class="cls-1" d="M289.44,224.33c4.41,.11,8.57,5.01,6.56,8.9-2.18,4.21-5.92,7.66-9.22,11.22-.58,.62-2.59,.56-3.54,.05-2.83-1.51-4.06-8.51-2.62-13.41,1.14-3.89,5.01-6.85,8.83-6.76Z"/>
        <path d="M0,210.35c.29-11.06,2.1-21.32,4.67-31.51,1.04-4.13,1.49-8.48,1.62-12.74,.22-7.29,1.38-14.26,5.55-20.37,3.83-5.62,7.88-11.09,11.95-16.55,4.37-5.86,9.08-11.47,13.25-17.46,7.63-10.95,12.25-23.14,14.04-36.38,1.83-13.48,7.54-24.71,17.58-34.27,6.34-6.04,12.93-10.68,21.33-13.05,2.62-.74,5.2-2.32,7.31-4.1,12.4-10.48,26.88-15.63,42.83-17.3,10.92-1.15,21.8-2.76,32.74-3.52,5.92-.41,11.99,.15,17.91,.92,9.39,1.23,18.74,2.85,28.05,4.61,9.28,1.76,16.79,6.32,21.16,15.03,2.06,4.11,5.36,6.41,9.54,8.21,10.52,4.56,20.97,9.33,31.22,14.47,3.63,1.82,7.08,4.52,9.79,7.55,9.19,10.26,14.94,22.23,17.01,35.95,.82,5.4,.08,10.57-.84,15.82-.6,3.43-1.06,6.88-1.49,10.34-1.08,8.69,.74,16.85,4.67,24.59,3.61,7.11,6.92,14.4,11.01,21.22,8.65,14.46,12.52,30.25,14.4,46.74,1.65,14.47,1.17,28.9-1.21,43.19-1.11,6.66-3.22,13.21-5.5,19.6-6.69,18.74-15.16,36.87-19.11,56.54-1.29,6.42-4.03,12.26-7.07,18.02-5.76,10.88-14.6,17.75-26.35,21.39-13.07,4.05-26.12,4.64-39.39,1.29-3.22-.81-6.55-1.16-9.8-1.84-6.1-1.27-11.85-.07-17.61,1.96-12.07,4.25-24.08,8.76-36.38,12.23-7.94,2.24-16.31,3.34-24.57,4.01-11.15,.9-21.84-1.84-31.97-6.46-5.53-2.52-10.09-6.35-13.7-11.32-1.23-1.69-2.86-3.31-4.68-4.3-6.12-3.33-12.17-7.03-18.69-9.36-12.61-4.5-23.06-11.59-31.41-22.05-3.09-3.87-6.99-7.1-10.5-10.64-3.39-3.43-6.81-6.83-10.09-10.36-7.03-7.55-10.71-16.59-12.31-26.73-1.37-8.67-3.12-17.3-5.15-25.84-1.34-5.63-3.53-11.07-5.24-16.62-3.16-10.25-3.88-20.86-4.58-30.92Zm325.13,10.01c-.29-4.27-.48-10.43-1.18-16.52-1.43-12.44-4.06-24.51-10.6-35.52-4.24-7.13-8.02-14.57-11.57-22.07-5.29-11.15-8.13-22.76-6.03-35.29,.84-5.04,1.35-10.3,.88-15.36-1.13-12.21-5.93-23.13-13.84-32.52-2.09-2.49-4.73-4.85-7.61-6.28-10.12-5.04-20.33-9.96-30.76-14.31-6.44-2.69-11.59-6.34-14.88-12.54-3.02-5.69-8.02-8.9-14.18-10.05-11.45-2.13-22.94-4.06-34.44-5.85-2.93-.45-6-.29-8.98-.02-9.44,.84-18.86,2.01-28.31,2.79-14.45,1.18-27.77,5.22-39.21,14.44-4.21,3.39-8.85,5.87-14.21,6.94-2.7,.54-4.89,1.86-6.61,4.12-3.82,5.03-7.81,9.94-11.7,14.92-3.55,4.53-5.75,9.65-6.9,15.3-1.56,7.64-2.79,15.41-5.19,22.79-5.36,16.5-14.29,31.05-26.14,43.75-7.35,7.88-13.63,16.3-15.83,27.19-.65,3.24-1.86,6.37-2.89,9.53-7.07,21.69-7.02,43.4-.36,65.19,2.62,8.57,5.21,17.16,7.36,25.85,1.71,6.92,2.53,14.06,4.19,20.99,.71,2.98,2.22,5.91,3.94,8.48,4,5.96,8.96,11.09,14.47,15.75,4.17,3.53,8.53,7.12,11.71,11.47,7.02,9.61,15.97,16.32,26.99,20.55,8.16,3.13,15.25,8.06,22.17,13.31,2.75,2.09,5.77,4.01,8.95,5.34,9.93,4.12,20.32,6.21,31.11,6.47,19.11,.45,37.34-3.84,55.28-9.82,3.63-1.21,7.21-2.63,10.91-3.52,8.81-2.11,17.57-1.1,26.15,1.35,12.43,3.55,24.65,2.99,36.8-1.21,5.82-2.01,11.09-5.03,14.52-10.09,4.47-6.58,8.48-13.46,10.04-21.53,1.95-10.13,5.3-19.83,9.28-29.39,4.21-10.11,7.87-20.46,11.3-30.86,4.47-13.58,4.67-27.77,5.36-43.76Z"/>
        <path d="M189.39,143.46c9.5,1.29,16.94,9.21,17.84,18.77,.3,3.14,.59,6.3,.59,9.45-.01,6.63,1.59,12.77,4.78,18.6,4.18,7.64,6.76,15.79,8.05,24.46,1.45,9.79-.24,18.53-6.95,25.99-11.71,13.03-25.73,21.72-43.85,21.32-11.99-.26-21.38-5.5-26.75-16.75-.48-1.01-1.42-1.79-2.09-2.73-2.4-3.38-4.97-6.66-7.12-10.19-3.78-6.21-4.74-12.94-3.5-20.14,.52-3.04,.35-6.27,.05-9.37-.68-7.26-2.23-14.49-2.35-21.75-.34-19.68,13.05-35.03,32.46-37.96,1.48-.22,2.96-.56,4.45-.62,2.83-.1,5.66-.03,8.49-.03m-7.45,10.03c-15.91,.26-28.77,13.1-28.7,29.01,.03,5.78,1.04,11.54,1.34,17.33,.25,4.78,.73,9.68-.04,14.34-.83,4.99-.65,9.55,1.55,14.02,1.9,3.86,3.86,7.7,5.96,11.46,.6,1.08,1.65,2.06,2.72,2.69,3.7,2.2,7.41,4.42,11.29,6.26,2.49,1.18,5.25,2.26,7.95,2.45,15.53,1.07,26.92-6.6,36.63-17.7,4.05-4.63,4.87-9.95,4.08-15.82-1.1-8.12-3.13-15.91-6.99-23.21-3.22-6.1-4.96-12.62-5.05-19.57-.04-2.81-.42-5.62-.69-8.43-.66-6.91-3.84-10.65-10.68-11.81-4.57-.78-9.23-.98-13.85-1.44"/>
        <path d="M148.26,34.96c-.84,.55-1.71,1.06-2.51,1.65-7.78,5.69-15.75,11.07-25,14.15-2.01,.67-4.19,1-6.31,1.1-2.38,.11-4.12-1.16-4.9-3.48-.78-2.34,.07-4.31,1.87-5.74,1.13-.91,2.52-1.68,3.91-2.05,10.08-2.65,20.19-5.2,30.31-7.69,.6-.15,1.4,.51,2.11,.79l.51,1.27Z"/>
        <path d="M89.96,76.35c0,1.79,.3,3.15-.05,4.33-2.44,8.26-5,16.49-7.56,24.72-.34,1.1-.78,2.21-1.42,3.16-1.3,1.94-3.14,2.94-5.56,2.42-2.33-.5-4.04-2.38-4.14-4.97-.06-1.44,.19-3.01,.72-4.35,3.53-8.89,8.55-16.87,15.28-23.72,.61-.62,1.56-.92,2.73-1.58Z"/>
        <path d="M314.91,238.33c-1.26,4.51-2.11,9.18-3.88,13.48-2.78,6.71-6.19,13.15-9.34,19.7-.21,.44-.51,.85-.8,1.26-2.34,3.29-5.15,4.46-7.48,3.11-2.18-1.26-2.42-4.38-.13-8,6.11-9.66,12.37-19.22,18.61-28.79,.39-.6,1.14-.98,1.72-1.46,.43,.23,.87,.46,1.3,.69Z"/>
        <path d="M125.78,54.4c-.35,1.25-.45,2.04-.78,2.72-2.9,5.93-5.82,11.84-8.78,17.74-.51,1.01-1.07,2.33-1.97,2.75-1.38,.65-3.12,1.03-4.61,.81-1.8-.27-2.71-1.93-2.62-3.72,.07-1.61,.22-3.36,.9-4.78,3.27-6.77,8.53-11.67,15.13-15.18,.62-.33,1.49-.2,2.73-.34Z"/>
        <path d="M88.36,333.63c-1.63,0-2.82,.26-3.86-.04-6.63-1.9-11.87-5.77-15.68-11.51-.63-.96-1.14-2.05-1.45-3.15-.69-2.4,.24-4.68,2.17-5.51,2.21-.94,3.92,0,5.2,1.74,1.28,1.73,2.28,3.67,3.57,5.39,3.14,4.2,6.39,8.32,10.05,13.07Z"/>
        <path d="M270.31,334.18c-1.39,1.26-2.59,2.96-4.22,3.7-5.42,2.46-10.97,4.63-16.53,6.77-1.19,.46-2.62,.41-3.94,.42-1.8,.02-3.31-.58-3.68-2.61-.34-1.84,.33-3.36,1.96-4.19,1.31-.67,2.77-1.17,4.21-1.42,5.88-1.03,11.78-1.92,17.67-2.91,1.24-.21,2.45-.58,3.68-.88l.85,1.11Z"/>
        <path d="M32.65,225.1c-1.25-1.61-2.13-2.33-2.46-3.24-2.34-6.43-2.88-13.15-3.03-19.91-.02-1.08,.35-2.48,1.07-3.18,.96-.94,2.5-1.94,3.7-1.83,1.19,.11,2.45,1.4,3.3,2.46,.54,.67,.63,1.91,.51,2.84-.93,7.28-1.95,14.54-3.09,22.86Z"/>
        <path d="M48.09,275.65c-1.35-.43-2.2-.47-2.75-.91-5.06-4-8.47-9.19-10.76-15.16-.18-.46-.32-.94-.39-1.43-.41-2.75,.75-4.82,3.05-5.49,2.06-.6,3.95,.39,5.16,2.77,.37,.73,.62,1.53,.84,2.32,1.55,5.67,3.08,11.34,4.85,17.89Z"/>
      </g>
      <g class="cls-3">
        <path class="cls-2" d="M985.84,38.61c-1.41-3.58-1.91-5.65-1.27-8.93-.69-.41-1.3-1.05-1.77-1.96-3.32-6.51-8.75-10.33-14.76-14.23-.71-.46-1.4-.97-2.1-1.51-4.92,.04-9.84,.16-14.76,.48-3.05,.19-4.65-1.96-4.8-4.31-.15,.01-.3,.04-.46,.04-4.5,0-9-.08-13.5,.19-4,.25-8.38,.09-12.31,.74-.8,.13-1.53,.08-2.2-.09-.57,.91-1.53,1.63-2.93,1.93-6.96,1.49-14.12,2.08-21.02,3.81-3.11,.78-6.14,1.79-9.26,2.52-2.49,.59-5.32,.73-7.54,2.04-.41,2.13-1.96,4.14-4.64,4.49-5.09,.66-9.87,3.05-15.03,3.58-5.24,.53-10.59,.24-15.85,.23-.59,0-1.12-.09-1.6-.25-.94,.44-2.09,.51-3.41,0-7.37-2.84-16.13-1.59-23.83-2.25-5.39-.46-12.55-2.95-16.98-6.14-1.2-.86-1.85-1.98-2.08-3.15-1.4,.33-2.93-.05-4.19-1.57-4.42-5.34-12.83-6.71-19.26-8.22-3.5-.82-6.93-1.62-10.38-2.64-3.85-1.14-7.71-1.13-11.69-1.47-.21-.02-.41-.06-.6-.1-.5,1.94-2.05,3.55-4.65,3.51-2.25-.03-4.48-.29-6.72-.37-2.79-.11-4.01,.38-6.45,1.6-1.26,.63-3.6,1.12-4.6,2.06-.88,.83-.87,1.97-1.3,3.17-1.31,3.64-3.86,6.68-5.31,10.28-.71,1.75-1.56,3-2.61,4.07,.12,.48,.18,1.01,.15,1.59-.23,4.13-1.57,8.13-3.23,11.9-1.5,3.43-4.3,6.33-5.17,9.99-.08,.34-.19,.65-.31,.94,.28,.61,.43,1.32,.43,2.13-.03,4.73-.45,9.38-1.06,14.07-.36,2.8-.59,5.21-2.13,7.18,.03,.24,.05,.49,.04,.75-.14,8.11,1.18,16.59-1.69,24.26-.09,.24-.2,.47-.31,.68,1.02,1.09,1.61,2.61,1.3,4.44-.66,3.81-2.39,7.32-3.21,11.11-.77,3.58-1.93,6.88-2.9,10.37-.08,.27-.17,.52-.28,.76,1.02,.8,1.72,2.05,1.71,3.76-.04,4.48-.4,8.96-.45,13.44-.03,2.97,.07,5.62-1.99,7.63,.38,.89,.5,1.94,.22,3.12-.77,3.26-1.56,6.53-2.16,9.83,1.23,.78,2.12,2.11,2.14,4.01,.03,3.29-.03,6.51-.24,9.79-.17,2.58,.5,4.88,.81,7.42,.73,6.03,.37,12.22,.88,18.27,.03,.35,.02,.67,0,.98,.16,.53,.24,1.11,.2,1.78-.23,4.23-1.8,8.14-2.07,12.36-.24,3.69-.58,7.34-.87,10.99,.3,.58,.51,1.25,.57,2.01,.36,4.18,.68,8.62,.72,12.81,.05,4.93-.46,9.38,.54,14.31,.12,.62,.13,1.19,.06,1.73,.47,.73,.74,1.64,.71,2.75-.13,4.03,.56,6.88,1.52,10.75,.91,3.69,.6,6.97,.21,10.62,.07,.2,.14,.4,.19,.61,1.98,7.86,.45,16.24,1.43,24.19,.12,.97-.01,1.79-.33,2.46,.83,.8,1.34,1.97,1.24,3.52-.3,4.83-1.44,8.95-.86,13.89,.49,4.26-.93,8.08-.45,12.26,.19,1.7-.38,2.94-1.33,3.73,.04,.15,.07,.3,.1,.46,.72,4.26,1.49,8.45,2.27,12.7,.37,2.03,.42,4.11,.79,6.14,.18,.97,1.41,3.26,.22,2.41l-.34,.04c.52,.27,1.01,.62,1.43,1.05,.42,.04,.86,.14,1.33,.31,7.63,2.85,14.56,5.45,22.75,6.35,7.67,.84,15.56,.38,23.3,.27,.58-.75,1.46-1.34,2.67-1.62,4.48-1.04,10.23-2.99,14.25-5.31,2.27-1.31,3.59-3.23,5.17-5.24,.55-.7,3.47-3.57,3.45-3.35,.13-2.23,1.44-3.69,3.07-4.36-.07-.87,.09-1.8,.57-2.76,2.78-5.44,1.9-11.72,1.73-17.6-.19-6.26,.77-12.4,1.65-18.58,.3-2.12,1.57-3.22,3.1-3.53,.03-1.73-.06-3.47,.13-5.19,.25-2.3,.69-4.33,.22-6.63-1-4.88-1.36-7.66,.17-12.44,.62-1.93,2-2.97,3.54-3.32v-.03c1.75-6.2,.54-12.77,1.53-19,.92-5.83,2.68-12.57,9.4-13.59,.12-.02,.24-.02,.36-.03,.76-1.34,2.13-2.33,4.12-2.38,8.68-.22,17.22-2.98,25.93-3.23,3.66-.11,8.33,.07,11.33,2.14,.79-1.14,2.1-1.91,3.93-1.87,6.62,.16,13.1,1.44,19.74,1.47,5.99,.03,13.63,1.11,19.19-1.51,1.54-.73,3.02-.65,4.26-.1,.4-1.46,1.39-2.79,3.11-3.49,7.96-3.26,19.11-6.18,21.47-15.82,.5-2.03,1.84-3.11,3.38-3.45,.07-.31,.16-.62,.3-.95,1.7-4.06,1.64-10.23,2.11-14.62,.57-5.38,.22-10.79,1.18-16.12v-.02c-1.13-.51-2.02-1.55-2.3-3.23-.25-1.46-2.03-3.06-2.93-4.15-1.39-1.66-2.8-3.29-4.19-4.95-2.68-3.2-5.21-6.21-9.36-7.38-2.04-.57-3.11-2-3.43-3.59-3.61-1.64-7.37-2.9-11.22-3.6-6.43-1.17-13.15-.54-19.64,1.21-10.47,2.82-20.99,5.34-31.99,4.59-1.43-.1-2.9,.39-4.35,.6-5.17,.77-10.32,1.66-15.51,2.29-7.01,.85-13.74-.67-20.28-3.06-3.01-1.1-5.65-3.06-6.81-6.11-1.26-3.32-2-6.85-2.87-10.31,0-.02,0-.05,0-.07-1.6-.99-2.51-2.8-1.53-5.12,2.11-5.01,2.65-10.41,4.27-15.57,1.43-4.55,3.53-8.59,6.15-12.56,2.04-3.08,5.78-2.72,7.9-.83,.59-.84,1.22-1.66,1.86-2.47-1.69-2.17-1.84-5.59,1.23-7.37,6.02-3.47,10.7-5.85,17.74-6.31,5.77-.38,10.97-2.17,16.76-2.35,.08-2.44,1.68-4.87,4.82-4.96,5.25-.15,10.2-1.44,15.29-2.62,4.92-1.14,9.59-1.27,14.6-1.59,2.63-.17,4.18,1.4,4.65,3.34,.9,.02,1.81,.07,2.71,.14,.67-1.6,2.14-2.84,4.4-2.83,4.33,.02,8.67,.18,13-.06,4.02-.22,7.86-1.02,11.88-.55,3.76,.44,7.29,1.89,11.06,2.21,4.12,.35,8.34,.25,12.47,.37,1.81,.05,3.09,.89,3.88,2.05,.37-1.47,1.46-2.71,3.46-3.12,4.89-.98,9.81-1.91,14.64-3.18,1.42-.37,3.53-.72,5.47-1.28,.03-1.09,.54-2.19,1.73-3.12,2.05-1.6,4.52-2.87,6.46-4.57,2.26-1.98,2.97-5.02,4.57-7.5,1.71-2.64,4.14-5,5.46-7.87,1.34-2.92,.97-5.85,.57-8.91-.37-2.75,1.29-4.29,3.37-4.65,1.5-5.37,.99-9.66-1.09-14.91Zm-95.14,165.43c2.18-1.53,4.83-.87,6.17,1.49,1.22,2.15,1.31,4.13,.17,6.48-.95,1.96-.74,4.73-3.49,5.21-1.29,.23-4.46-4.47-4.71-6.46-.08-.65-.01-1.32-.01-2.28-.35-1.67,.2-3.27,1.88-4.44Zm-31.6-9.12c1.47-2.25,3.26-4.33,6.6-3.84,1.53,.49,3.45,.55,4.53,1.53,4.84,4.4,9.9,8.58,12.02,15.32,.75,2.4-.12,3.76-.98,5.4-.47,.9-1.28,1.07-2.51,.58-3.94-1.6-7.58-3.72-10.99-6.19-2.39-1.73-4.61-3.71-6.78-5.73-2.04-1.9-3.03-5.33-1.89-7.09Zm-95.36,111.56c-1.31,3.53-4.12,5.42-6.9,2.16-3.91-4.58-6.78-10.06-7.92-16.06-.89-4.68,2.93-7.58,7.4-5.92,1.96,.73,3.81,1.77,4.64,4.11,1.36,3.83,3.29,7.49,2.85,11.84,0,1.23,.37,2.7-.07,3.87Zm-1.45-274.99c-4.42-2.31-5.61-6.23-3.49-10.19,1.39-2.6,3.49-3.32,6.43-3.48,2.39,.92,4.98,1.51,7.12,2.84,4.99,3.09,10.2,6.1,12.54,12,.41,1.04,.84,2.14,.91,3.23,.27,4.22-.56,4.49-4.76,3.64-6.86-1.39-12.71-4.89-18.75-8.04Zm23.32,55.07c-2.39,5.82-3.96,12.08-7.9,17.17-1.21,1.56-2.64,2.99-4.16,4.26-1.22,1.02-2.63,.31-2.7-1.28-.1-2.15-.02-4.32-.02-6.48-.32-6.11,1.01-11.95,2.93-17.68,1.57-4.67,4.71-6.5,9.04-5.1,.81,.26,1.46,1.22,2.02,1.98,1.63,2.2,1.64,5.06,.79,7.13Zm156.19-34.78c-.18,1.55-1.47,2.16-2.78,1.2-1.58-1.15-3.05-2.44-4.56-3.67-2.28-1.86-4.62-3.66-6.81-5.63-2.18-1.96-2.52-4.63-1.08-6.53,1.37-1.8,5.4-2.69,7.13-1.24,4.47,3.74,8.42,7.89,8.1,14.24,0,.64,.05,1.14,0,1.63Zm4.95-9.57c-.93,.08-2.09-.68-2.9-1.36-1.51-1.28-2.79-2.83-4.26-4.16-1.45-1.3-3.01-2.48-4.55-3.67-2.51-1.94-3.62-4.58-2.7-6.66,2.2-4.96,5.13-5.26,8.78-2.01,4.24,3.76,6.9,8.61,6.7,14.58,0,.17,.03,.34,0,.5-.19,1.02,.61,2.65-1.06,2.79Z"/>
        <path class="cls-5" d="M765.23,17.82c2.39,.92,4.98,1.51,7.12,2.84,4.99,3.09,10.2,6.1,12.54,12,.41,1.04,.84,2.14,.91,3.23,.27,4.22-.56,4.49-4.76,3.64-6.86-1.39-12.71-4.89-18.75-8.04-4.42-2.31-5.61-6.23-3.49-10.19,1.39-2.6,3.49-3.32,6.43-3.48Z"/>
        <path class="cls-5" d="M865.69,191.09c1.53,.49,3.45,.55,4.53,1.53,4.84,4.4,9.9,8.58,12.02,15.32,.75,2.4-.12,3.76-.98,5.4-.47,.9-1.28,1.07-2.51,.58-3.94-1.6-7.58-3.72-10.99-6.19-2.39-1.73-4.61-3.71-6.78-5.73-2.04-1.9-3.03-5.33-1.89-7.09,1.47-2.25,3.26-4.33,6.6-3.84Z"/>
        <path class="cls-5" d="M770.83,100.24c-.32-6.11,1.01-11.95,2.93-17.68,1.57-4.67,4.71-6.5,9.04-5.1,.81,.26,1.46,1.22,2.02,1.98,1.63,2.2,1.64,5.06,.79,7.13-2.39,5.82-3.96,12.08-7.9,17.17-1.21,1.56-2.64,2.99-4.16,4.26-1.22,1.02-2.63,.31-2.7-1.28-.1-2.15-.02-4.32-.03-6.48Z"/>
        <path class="cls-5" d="M763.81,302.61c0,1.23,.37,2.7-.07,3.87-1.31,3.53-4.12,5.42-6.9,2.16-3.91-4.58-6.78-10.06-7.92-16.06-.89-4.68,2.93-7.58,7.4-5.92,1.96,.73,3.81,1.77,4.64,4.11,1.36,3.83,3.29,7.49,2.85,11.84Z"/>
        <path class="cls-9" d="M947.83,38.94c0,.17,.03,.34,0,.5-.19,1.02,.61,2.65-1.06,2.79-.93,.08-2.09-.68-2.9-1.36-1.51-1.28-2.79-2.83-4.26-4.16-1.45-1.3-3.01-2.48-4.55-3.67-2.51-1.94-3.62-4.58-2.7-6.66,2.2-4.96,5.13-5.26,8.78-2.01,4.24,3.76,6.9,8.61,6.7,14.58Z"/>
        <path class="cls-5" d="M941.82,50.16c0,.64,.05,1.14,0,1.63-.18,1.55-1.47,2.16-2.78,1.2-1.58-1.15-3.05-2.44-4.56-3.67-2.28-1.86-4.62-3.66-6.81-5.63-2.18-1.96-2.52-4.63-1.08-6.53,1.37-1.8,5.4-2.69,7.13-1.24,4.47,3.74,8.42,7.89,8.1,14.24Z"/>
        <path class="cls-9" d="M888.83,208.49c-.35-1.67,.2-3.27,1.88-4.44,2.18-1.53,4.83-.87,6.17,1.49,1.22,2.15,1.31,4.13,.17,6.48-.95,1.96-.74,4.73-3.49,5.21-1.29,.23-4.46-4.47-4.71-6.46-.08-.65-.01-1.32-.01-2.28Z"/>
        <path d="M791.25,305.71c1.67,17.79-.98,31.5-6.13,44.9-5.95,15.48-16.8,24.67-33.27,27.36-12.82,2.09-25.51,1.97-38.11-1.37-10.11-2.68-14.53-8.04-14.99-18.43-.34-7.62-.61-15.26-.57-22.89,.04-8.96,.2-17.94,.77-26.89,.59-9.24-1.28-18.18-2.39-27.23-2.48-20.3-4.04-40.6-2.92-61.13,.99-18.07,1.22-36.21-.3-54.31-1.25-14.86,.4-29.54,2.99-44.14,2.29-12.97,3.28-26.03,3.61-39.17,.39-15.55,3.01-30.71,8.05-45.44,2.61-7.63,6.61-14.48,11.18-21.06,1.41-2.03,2.51-4.27,3.88-6.33,3.47-5.21,8.58-7.63,14.64-8.3,4.11-.46,8.23-.99,12.36-1.18,3.47-.16,6.98-.17,10.42,.24,11.51,1.38,22.69,4.17,32.26,10.98,9.04,6.44,18.87,9.37,29.9,9.39,7.3,0,14.63,.47,21.75,2.52,8.04,2.31,15.82,1.07,23.37-2.18,15.95-6.86,32.57-11.65,49.57-14.93,10.1-1.95,20.39-3.07,30.65-3.91,13.95-1.14,24.54,5.66,33.6,15.47,.22,.24,.39,.54,.6,.79,13.41,15.68,11.33,32.45,3.07,49.37-8.76,17.95-23.92,27.52-43.09,31.4-14.1,2.85-28.17,1.66-42.2-.51-10.21-1.58-20.35-3.26-30.76-1.62-8.46,1.33-16.62,3.53-24.26,7.3-6.03,2.98-12.24,4.33-18.84,3.45-6.79-.9-12.31,1.53-16.32,6.64-3.87,4.93-7.28,10.29-10.34,15.78-3.56,6.37-6.47,13.11-9.75,19.63-1.19,2.36-1.63,4.64-.55,7.13,.33,.76,.63,1.58,.67,2.39,.37,7.12,4.88,10.24,11.06,12.44,8.88,3.16,17.67,2.28,26.59,.72,3.76-.66,7.6-1.54,11.37-1.4,10.65,.39,20.88-1.76,30.97-4.6,19.82-5.58,35.47,2.37,49.59,14.98,5.28,4.72,7.52,11.21,7.72,18.36,.22,7.91-1.09,15.54-3.8,22.96-2.42,6.61-6.52,12.04-12.28,15.97-20.42,13.92-42.48,19.24-66.77,12.1-.96-.28-1.94-.51-2.87-.86-7.17-2.72-14.15-2.58-21.37,.3-5.06,2.01-10.5,3.12-15.82,4.47-5.51,1.4-7.63,4.05-8.19,9.74-.72,7.26-1.85,14.47-2.68,21.72-.87,7.57-1.61,15.15-2.06,19.37Zm-85.95,33.48c-.34,6.55,.3,12.48,4.56,18.25,3.14,4.26,6.46,6.8,11.37,7.92,8.22,1.88,16.5,1.96,24.81,.95,12.14-1.47,22.04-6.19,26.7-18.52,3.91-10.32,6.88-20.76,6.45-32-.25-6.46-.01-12.97,.53-19.41,1-11.74,4.54-23.08,5.51-34.9,.76-9.24,6.72-14.76,14.86-16.67,6.78-1.59,13.5-3.45,20.14-5.53,4.85-1.52,9.7-2.48,14.72-1.64,3.92,.66,7.87,1.44,11.64,2.68,15.92,5.23,31.29,3.05,46.13-3.63,7.63-3.44,14.45-8.18,18.31-16.19,2.7-5.59,2.89-11.49,3.12-17.49,.24-6.22-2.17-11.12-7.12-14.56-10.12-7.04-20.75-11.42-33.67-7.96-8.14,2.18-16.66,3.44-25.08,3.96-8.63,.54-17.24,.8-25.83,2.15-11.11,1.74-21.5-.75-31.09-6.57-4.77-2.89-8.07-6.84-8.97-12.54-.26-1.62-.92-3.17-1.32-4.77-1.67-6.62-3.7-13.24,.99-19.57,.55-.75,.62-1.88,.83-2.85,1.9-9.04,5.34-17.53,10.23-25.29,8.35-13.25,19.55-21.53,36.36-19.67,3.49,.38,7.19-.75,10.73-1.48,2.09-.43,4.06-1.46,6.1-2.17,17.49-6.1,35.27-7.68,53.55-4.07,6.99,1.38,14.16,2.3,21.27,2.42,6.26,.11,12.6-.88,18.82-1.9,14.9-2.46,27.04-9.41,34.1-23.21,6.35-12.43,9.17-25.23-.56-37.43-5.91-7.41-13.53-12.22-23.41-12.35-11.37-.14-22.56,1.68-33.67,3.78-15.4,2.91-30.25,7.76-44.76,13.68-9.34,3.81-19,5.01-28.85,2.63-6.53-1.58-13.1-2.16-19.77-2.21-2.83-.02-5.65-.32-8.48-.4-9.09-.27-17.33-3.11-24.66-8.42-9.33-6.76-19.88-10.62-30.87-13.59-4.87-1.32-9.79-1.91-14.82-1.28-.95,.12-2.14,.03-2.82-.03-4.5-.4-3.55-.41-4.62,1.46-3.12,5.49-6.01,11.11-9.36,16.45-9.89,15.77-14.23,33.16-15.35,51.49-.96,15.58-1.62,31.17-4.8,46.55-2.63,12.74-3.64,25.67-2.78,38.67,1.44,21.78,.31,43.5-.79,65.26-.65,12.92-.35,25.92,.1,38.86,.46,13.1,2.02,26.16,2.38,39.26,.25,9.1-.7,18.24-1.12,27.36"/>
        <path d="M772.28,299.96c-.53,4.33-.94,8.78-1.68,13.18-.26,1.56-1.26,3.02-2.09,4.43-.24,.4-1.09,.58-1.66,.58-.25,0-.64-.71-.71-1.14-1.1-7.03-2.19-14.05-3.18-21.09-.21-1.46-.12-2.99,0-4.47,.16-2.04,1.24-3.42,3.34-3.74,2.28-.35,4.15,.58,4.66,2.76,.71,3.04,.89,6.2,1.32,9.49Z"/>
        <path d="M876.05,190.99c4.73,1.32,9.83,3.5,13.03,8.65,.42,.67,.63,1.53,.73,2.33,.3,2.37-.39,3.21-2.7,2.72-4.53-.97-9.02-2.17-13.49-3.38-3.91-1.05-5.2-2.73-4.69-5.77,.45-2.71,3.05-4.61,7.12-4.55Z"/>
        <path d="M962.73,35.37c-.14,.53-.62,1.03-1.08,1.8-.72-.49-1.47-.95-2.15-1.49-3.77-2.96-7.56-5.89-11.25-8.95-1.37-1.13-2.83-2.4-3.62-3.93-1.51-2.93,.44-5.75,3.75-5.75,.97,0,2.14,.1,2.87,.62,5.34,3.84,9.73,8.46,11.46,15.05,.16,.62,.34,1.34,.02,2.65Z"/>
        <path d="M778.6,105c1.66-5.53,3.33-11.54,5.34-17.43,.55-1.62,1.94-3.08,3.23-4.31,1.6-1.52,3.7-1.71,5.45-.28,1.72,1.4,1.25,3.21,.23,4.94-3.54,5.98-7.04,11.97-10.56,17.95-.17,.28-.37,.59-.48,.86-.31,.75-1.32,.74-1.98,1.1-.99-.58-1.23-1.17-1.23-2.82Z"/>
        <path d="M952.53,58.66c-3.18-3.45-5.82-6.09-8.16-8.96-1.13-1.39-.85-3.16,.53-4.5,1.38-1.33,4.04-1.41,5.4,.17,1.03,1.19,1.94,2.81,2.13,4.33,.34,2.7,.1,5.47,.1,8.96Z"/>
      </g>
    </g>
  </g>
</svg>