<?xml version="1.0" encoding="UTF-8"?>
<svg xmlns="http://www.w3.org/2000/svg" xmlns:xlink="http://www.w3.org/1999/xlink" viewBox="0 0 737.18 382.16">
  <defs>
    <style>
      .cls-1 {
        fill: #f4a757;
      }

      .cls-2 {
        fill: #14100e;
      }

      .cls-3 {
        fill: #14110e;
      }

      .cls-4 {
        filter: url(#outer-glow-1);
      }

      .cls-5 {
        fill: #12100d;
      }

      .cls-6 {
        fill: #e8871f;
      }

      .cls-7 {
        fill: #13100d;
      }

      .cls-8 {
        fill: #f4a857;
      }

      .cls-9 {
        fill: #16110f;
      }

      .cls-10 {
        fill: #13100e;
      }

      .cls-11 {
        fill: #ae444e;
      }

      .cls-12 {
        fill: #eb8f98;
      }

      .cls-13 {
        fill: #ec8f98;
      }
    </style>
    <filter id="outer-glow-1" filterUnits="userSpaceOnUse">
      <feOffset dx="0" dy="0"/>
      <feGaussianBlur result="blur" stdDeviation="14.17"/>
      <feFlood flood-color="#7ead79" flood-opacity=".85"/>
      <feComposite in2="blur" operator="in"/>
      <feComposite in="SourceGraphic"/>
    </filter>
  </defs>
  <g id="_лой_1" data-name="Слой 1"/>
  <g id="_лой_2" data-name="Слой 2">
    <g id="_лой_1-2" data-name="Слой 1">
      <g class="cls-4">
        <g>
          <path class="cls-6" d="M319.52,156.98c-1.87-3.05-3.41-6.3-4.98-9.53-2.44,.74-5.59-.04-6.84-3.04-5.21-12.46-7-25.74-5.34-39.14,1.24-10,2.9-20.03,2.36-30-4.82-12.79-11.11-24.74-23.93-31.41-10.02-5.22-20.41-9.77-30.8-14.25-4.35-1.87-7.72-4.28-9.88-8.57-4.3-8.54-11.74-12.92-20.8-14.83-6.35-1.34-12.7-2.87-19.13-3.54-9.57-.99-19.22-1.8-28.82-1.73-7.95,.06-15.87,1.62-23.82,2.33-18.58,1.65-36.14,5.92-50.59,18.75-1.69,1.5-3.86,2.85-6.03,3.38-9.61,2.34-16.84,7.95-23.63,14.94-7.82,8.05-13.46,17.02-15.02,28.11-2.42,17.17-8.24,32.89-18.74,46.74-3.42,4.51-7.17,8.76-10.7,13.19-7.92,9.94-15.69,19.85-16.34,33.47-.31,6.58-1.71,13.11-2.73,19.64-.97,6.23-2.4,12.22-3.42,18.88,1.68,.66,3.07,2.12,3.27,4.38,.73,8.27,.83,16.69,1.29,25.05,.17,.24,.34,.51,.48,.81,6.03,12.62,9.64,25.58,8.74,39.66-.06,.89-.35,1.7-.8,2.4,.52,2.39,1,4.78,1.39,7.19,1.1,6.84,3.09,13.04,6.02,18.72,1.87-.39,3.95,.13,5.32,2.1,5.27,7.55,12.26,13.77,17.7,21.25,5.69,7.83,13.77,12.4,22.1,17.08,7.53,4.23,15.35,8.15,23.43,11.23,6.5,2.48,13.43,3.92,18.17,9.44,5.52,6.42,9.18,13.42,18.04,15.67,7.45,1.89,15.45,.76,23.06,1.23,6.97,.43,14.64,1.57,21.48-.3,6.71-1.83,12.56-6.12,19.26-8.11,5.87-1.75,11.95-1.95,18.02-2.12,.46-1.89,2-3.52,4.66-3.72,9.06-.68,17.58-5.22,26.8-3.82,4.42,.67,8.67,2.42,13.14,2.77,4.51,.36,9.16-.27,13.55-1.28,4.09-.94,7.99-2.37,11.97-3.66,3.7-1.2,7.77-1.99,11.04-4.21,5.93-4.03,7.95-11.8,13.51-16.37,.02-.02,.05-.03,.07-.05-.18-2.34,.09-4.73,.61-7.12-.29-1.62,.08-3.4,1.27-4.69,1.34-4.23,3.05-8.41,3.98-12.29,.15-.63,.33-1.25,.51-1.87,.15-2.18,.26-4.36,.5-6.52,.28-2.57,1.95-4.11,3.85-4.62,.52-1.21,1.02-2.43,1.5-3.67,2.13-5.58,3.49-11.36,4.34-17.27,1.74-12.08,6.72-23.15,9.94-34.84,3.46-12.55,4.14-25.8,4.19-38.76,0-1.81,.8-3.11,1.94-3.91-2.17-14.98-6.73-29.44-15.17-43.16ZM121.43,232.71c-.91,4.01-3.56,4.92-6.12,1.78-5.38-6.59-8.31-14.4-8.8-22.83-.21-3.66,2.02-6.77,6.16-7.24,4.16-.47,6.68,2.12,7.58,5.74,1.19,4.79,1.72,9.74,2.48,14.27-.46,3.07-.71,5.71-1.29,8.28Zm1.17-69.41c-2.56,3.03-6.74,4.33-10.95,2.19-4.09-2.07-5.22-5.74-5.41-11.7,1.06-2.14,2.13-6.26,4.68-9.02,5.85-6.33,12.31-12.33,20.97-14.52,2.83-.72,6.81-.27,9.03,1.34,1.23,.89,.94,5.98-.43,7.99-5.55,8.19-11.5,16.16-17.89,23.71Zm88.23,56.01c-.4,1.28-.99,2.35-1.72,3.26-.6,2.94-2.12,5.62-4.24,8.07-9.17,10.63-20.01,18.22-34.71,17.68-3.77-.14-7.92-1.46-11.11-3.48-4.91-3.1-10.91-4.73-14.3-10.08-1.18-.73-2.33-1.64-3.45-2.77-4.61-4.67-7.32-10.59-6.92-17.14,.54-8.88,2.73-17.64,1.11-26.54-.33-1.84,.25-3.37,1.28-4.46-1.71-.62-3.06-2.12-3.03-4.49,.08-7.39,4.32-16.17,8.99-21.81,4.76-5.75,11.75-7.94,18.75-9.62,13.27-3.17,30.52-4.85,40.44,6.6,3.78,4.37-1.57,10.56-5.76,8.17,0,.07,.01,.13,.01,.19,.15,5.24,.76,10.32,1.81,15.29,1.36,.1,2.64,.87,3.4,2.59,3.12,6.96,4.05,14.3,6.12,21.56,1.52,5.34,5.1,11.26,3.32,16.98Zm43.2-134.64c-9.21-7.21-18.17-14.28-27.2-21.28-3.69-2.86-4.74-6.69-2.9-10.6,1.83-3.88,6.1-4.2,9.65-3.23,3.4,.92,6.78,2.7,9.61,4.84,6.72,5.09,11.96,11.45,14.53,19.7,1.26,4.06,.64,7.49-3.69,10.57Zm41.97,145.6c-2.18,4.21-5.92,7.66-9.22,11.22-.58,.62-2.59,.56-3.54,.05-2.83-1.51-4.06-8.51-2.62-13.41,1.14-3.89,5.01-6.85,8.83-6.76,4.41,.11,8.57,5.01,6.56,8.9Zm1.41-40.34c-5.41,1.51-8.58-3.63-10.31-7.7-4.34-10.19-8.17-20.64-11.49-31.2-1.79-5.69,1.64-12.18,5.83-13.53,5.26-1.69,10.66,.62,12.91,7.28,3.64,10.76,6.19,21.89,9.2,32.87-1.66,4.86-.7,10.77-6.14,12.28Z"/>
          <path class="cls-8" d="M303.54,177.64c-1.66,4.86-.7,10.77-6.14,12.28-5.41,1.51-8.58-3.63-10.31-7.7-4.34-10.19-8.17-20.64-11.49-31.2-1.79-5.69,1.64-12.18,5.83-13.53,5.26-1.69,10.66,.62,12.91,7.28,3.64,10.76,6.19,21.89,9.2,32.87Z"/>
          <path class="cls-8" d="M106.24,153.79c1.06-2.14,2.13-6.26,4.68-9.02,5.85-6.33,12.31-12.33,20.97-14.52,2.83-.72,6.81-.27,9.03,1.34,1.23,.89,.94,5.98-.43,7.99-5.55,8.19-11.5,16.16-17.89,23.71-2.56,3.03-6.74,4.33-10.95,2.19-4.09-2.07-5.22-5.74-5.41-11.7Z"/>
          <path class="cls-8" d="M254.03,84.66c-9.21-7.21-18.17-14.28-27.2-21.28-3.69-2.86-4.74-6.69-2.9-10.6,1.83-3.88,6.1-4.2,9.65-3.23,3.4,.92,6.78,2.7,9.61,4.84,6.72,5.09,11.96,11.45,14.53,19.7,1.26,4.06,.64,7.49-3.69,10.57Z"/>
          <path class="cls-1" d="M122.72,224.43c-.46,3.07-.71,5.71-1.29,8.28-.91,4.01-3.56,4.92-6.12,1.78-5.38-6.59-8.31-14.4-8.8-22.83-.21-3.66,2.02-6.77,6.16-7.24,4.16-.47,6.68,2.12,7.58,5.74,1.19,4.79,1.72,9.74,2.48,14.27Z"/>
          <path class="cls-1" d="M289.44,221.37c4.41,.11,8.57,5.01,6.56,8.9-2.18,4.21-5.92,7.66-9.22,11.22-.58,.62-2.59,.56-3.54,.05-2.83-1.51-4.06-8.51-2.62-13.41,1.14-3.89,5.01-6.85,8.83-6.76Z"/>
          <path d="M0,207.39c.29-11.06,2.1-21.32,4.67-31.51,1.04-4.13,1.49-8.48,1.62-12.74,.22-7.29,1.38-14.26,5.55-20.37,3.83-5.62,7.88-11.09,11.95-16.55,4.37-5.86,9.08-11.47,13.25-17.46,7.63-10.95,12.25-23.14,14.04-36.38,1.83-13.48,7.54-24.71,17.58-34.27,6.34-6.04,12.93-10.68,21.33-13.05,2.62-.74,5.2-2.32,7.31-4.1,12.4-10.48,26.88-15.63,42.83-17.3,10.92-1.15,21.8-2.76,32.74-3.52,5.92-.41,11.99,.15,17.91,.92,9.39,1.23,18.74,2.85,28.05,4.61,9.28,1.76,16.79,6.32,21.16,15.03,2.06,4.11,5.36,6.41,9.54,8.21,10.52,4.56,20.97,9.33,31.22,14.47,3.63,1.82,7.08,4.52,9.79,7.55,9.19,10.26,14.94,22.23,17.01,35.95,.82,5.4,.08,10.57-.84,15.82-.6,3.43-1.06,6.88-1.49,10.34-1.08,8.69,.74,16.85,4.67,24.59,3.61,7.11,6.92,14.4,11.01,21.22,8.65,14.46,12.52,30.25,14.4,46.74,1.65,14.47,1.17,28.9-1.21,43.19-1.11,6.66-3.22,13.21-5.5,19.6-6.69,18.74-15.16,36.87-19.11,56.54-1.29,6.42-4.03,12.26-7.07,18.02-5.76,10.88-14.6,17.75-26.35,21.39-13.07,4.05-26.12,4.64-39.39,1.29-3.22-.81-6.55-1.16-9.8-1.84-6.1-1.27-11.85-.07-17.61,1.96-12.07,4.25-24.08,8.76-36.38,12.23-7.94,2.24-16.31,3.34-24.57,4.01-11.15,.9-21.84-1.84-31.97-6.46-5.53-2.52-10.09-6.35-13.7-11.32-1.23-1.69-2.86-3.31-4.68-4.3-6.12-3.33-12.17-7.03-18.69-9.36-12.61-4.5-23.06-11.59-31.41-22.05-3.09-3.87-6.99-7.1-10.5-10.64-3.39-3.43-6.81-6.83-10.09-10.36-7.03-7.55-10.71-16.59-12.31-26.73-1.37-8.67-3.12-17.3-5.15-25.84-1.34-5.63-3.53-11.07-5.24-16.62-3.16-10.25-3.88-20.86-4.58-30.92Zm325.13,10.01c-.29-4.27-.48-10.43-1.18-16.52-1.43-12.44-4.06-24.51-10.6-35.52-4.24-7.13-8.02-14.57-11.57-22.07-5.29-11.15-8.13-22.76-6.03-35.29,.84-5.04,1.35-10.3,.88-15.36-1.13-12.21-5.93-23.13-13.84-32.52-2.09-2.49-4.73-4.85-7.61-6.28-10.12-5.04-20.33-9.96-30.76-14.31-6.44-2.69-11.59-6.34-14.88-12.54-3.02-5.69-8.02-8.9-14.18-10.05-11.45-2.13-22.94-4.06-34.44-5.85-2.93-.45-6-.29-8.98-.02-9.44,.84-18.86,2.01-28.31,2.79-14.45,1.18-27.77,5.22-39.21,14.44-4.21,3.39-8.85,5.87-14.21,6.94-2.7,.54-4.89,1.86-6.61,4.12-3.82,5.03-7.81,9.94-11.7,14.92-3.55,4.53-5.75,9.65-6.9,15.3-1.56,7.64-2.79,15.41-5.19,22.79-5.36,16.5-14.29,31.05-26.14,43.75-7.35,7.88-13.63,16.3-15.83,27.19-.65,3.24-1.86,6.37-2.89,9.53-7.07,21.69-7.02,43.4-.36,65.19,2.62,8.57,5.21,17.16,7.36,25.85,1.71,6.92,2.53,14.06,4.19,20.99,.71,2.98,2.22,5.91,3.94,8.48,4,5.96,8.96,11.09,14.47,15.75,4.17,3.53,8.53,7.12,11.71,11.47,7.02,9.61,15.97,16.32,26.99,20.55,8.16,3.13,15.25,8.06,22.17,13.31,2.75,2.09,5.77,4.01,8.95,5.34,9.93,4.12,20.32,6.21,31.11,6.47,19.11,.45,37.34-3.84,55.28-9.82,3.63-1.21,7.21-2.63,10.91-3.52,8.81-2.11,17.57-1.1,26.15,1.35,12.43,3.55,24.65,2.99,36.8-1.21,5.82-2.01,11.09-5.03,14.52-10.09,4.47-6.58,8.48-13.46,10.04-21.53,1.95-10.13,5.3-19.83,9.28-29.39,4.21-10.11,7.87-20.46,11.3-30.86,4.47-13.58,4.67-27.77,5.36-43.76Z"/>
          <path d="M189.39,140.5c9.5,1.29,16.94,9.21,17.84,18.77,.3,3.14,.59,6.3,.59,9.45-.01,6.63,1.59,12.77,4.78,18.6,4.18,7.64,6.76,15.79,8.05,24.46,1.45,9.79-.24,18.53-6.95,25.99-11.71,13.03-25.73,21.72-43.85,21.32-11.99-.26-21.38-5.5-26.75-16.75-.48-1.01-1.42-1.79-2.09-2.73-2.4-3.38-4.97-6.66-7.12-10.19-3.78-6.21-4.74-12.94-3.5-20.14,.52-3.04,.35-6.27,.05-9.37-.68-7.26-2.23-14.49-2.35-21.75-.34-19.68,13.05-35.03,32.46-37.96,1.48-.22,2.96-.56,4.45-.62,2.83-.1,5.66-.03,8.49-.03m-7.45,10.03c-15.91,.26-28.77,13.1-28.7,29.01,.03,5.78,1.04,11.54,1.34,17.33,.25,4.78,.73,9.68-.04,14.34-.83,4.99-.65,9.55,1.55,14.02,1.9,3.86,3.86,7.7,5.96,11.46,.6,1.08,1.65,2.06,2.72,2.69,3.7,2.2,7.41,4.42,11.29,6.26,2.49,1.18,5.25,2.26,7.95,2.45,15.53,1.07,26.92-6.6,36.63-17.7,4.05-4.63,4.87-9.95,4.08-15.82-1.1-8.12-3.13-15.91-6.99-23.21-3.22-6.1-4.96-12.62-5.05-19.57-.04-2.81-.42-5.62-.69-8.43-.66-6.91-3.84-10.65-10.68-11.81-4.57-.78-9.23-.98-13.85-1.44"/>
          <path d="M148.26,32c-.84,.55-1.71,1.06-2.51,1.65-7.78,5.69-15.75,11.07-25,14.15-2.01,.67-4.19,1-6.31,1.1-2.38,.11-4.12-1.16-4.9-3.48-.78-2.34,.07-4.31,1.87-5.74,1.13-.91,2.52-1.68,3.91-2.05,10.08-2.65,20.19-5.2,30.31-7.69,.6-.15,1.4,.51,2.11,.79l.51,1.27Z"/>
          <path d="M89.96,73.4c0,1.79,.3,3.15-.05,4.33-2.44,8.26-5,16.49-7.56,24.72-.34,1.1-.78,2.21-1.42,3.16-1.3,1.94-3.14,2.94-5.56,2.42-2.33-.5-4.04-2.38-4.14-4.97-.06-1.44,.19-3.01,.72-4.35,3.53-8.89,8.55-16.87,15.28-23.72,.61-.62,1.56-.92,2.73-1.58Z"/>
          <path d="M314.91,235.37c-1.26,4.51-2.11,9.18-3.88,13.48-2.78,6.71-6.19,13.15-9.34,19.7-.21,.44-.51,.85-.8,1.26-2.34,3.29-5.15,4.46-7.48,3.11-2.18-1.26-2.42-4.38-.13-8,6.11-9.66,12.37-19.22,18.61-28.79,.39-.6,1.14-.98,1.72-1.46,.43,.23,.87,.46,1.3,.69Z"/>
          <path d="M125.78,51.44c-.35,1.25-.45,2.04-.78,2.72-2.9,5.93-5.82,11.84-8.78,17.74-.51,1.01-1.07,2.33-1.97,2.75-1.38,.65-3.12,1.03-4.61,.81-1.8-.27-2.71-1.93-2.62-3.72,.07-1.61,.22-3.36,.9-4.78,3.27-6.77,8.53-11.67,15.13-15.18,.62-.33,1.49-.2,2.73-.34Z"/>
          <path d="M88.36,330.67c-1.63,0-2.82,.26-3.86-.04-6.63-1.9-11.87-5.77-15.68-11.51-.63-.96-1.14-2.05-1.45-3.15-.69-2.4,.24-4.68,2.17-5.51,2.21-.94,3.92,0,5.2,1.74,1.28,1.73,2.28,3.67,3.57,5.39,3.14,4.2,6.39,8.32,10.05,13.07Z"/>
          <path d="M270.31,331.23c-1.39,1.26-2.59,2.96-4.22,3.7-5.42,2.46-10.97,4.63-16.53,6.77-1.19,.46-2.62,.41-3.94,.42-1.8,.02-3.31-.58-3.68-2.61-.34-1.84,.33-3.36,1.96-4.19,1.31-.67,2.77-1.17,4.21-1.42,5.88-1.03,11.78-1.92,17.67-2.91,1.24-.21,2.45-.58,3.68-.88l.85,1.11Z"/>
          <path d="M32.65,222.14c-1.25-1.61-2.13-2.33-2.46-3.24-2.34-6.43-2.88-13.15-3.03-19.91-.02-1.08,.35-2.48,1.07-3.18,.96-.94,2.5-1.94,3.7-1.83,1.19,.11,2.45,1.4,3.3,2.46,.54,.67,.63,1.91,.51,2.84-.93,7.28-1.95,14.54-3.09,22.86Z"/>
          <path d="M48.09,272.69c-1.35-.43-2.2-.47-2.75-.91-5.06-4-8.47-9.19-10.76-15.16-.18-.46-.32-.94-.39-1.43-.41-2.75,.75-4.82,3.05-5.49,2.06-.6,3.95,.39,5.16,2.77,.37,.73,.62,1.53,.84,2.32,1.55,5.67,3.08,11.34,4.85,17.89Z"/>
        </g>
        <g>
          <path class="cls-5" d="M736.95,330.76c.16,.81-.1,2.44-.41,2.84-3.75,18.86-15.86,30.08-33.4,36.14-3.22,1.11-6.83,1.54-10.26,1.53-7.31-.01-14.63-.39-21.93-.9-2.24-.16-4.59-.87-6.58-1.91-15.45-8.14-23.19-21.54-24.76-38.43-2-21.55-2.12-43.15,1.24-64.61,2.59-16.55,2.39-33.08,.44-49.66-1.81-15.33-3.71-30.66-5.26-46.01-.83-8.26-1-16.58-1.46-24.88-.35-6.21-2.4-11.62-7.08-15.95-2.64-2.43-5.61-3.51-9.13-2.93-2.12,.35-4.21,.95-6.32,1.39-7.97,1.66-13.71,5.84-17.4,13.39-2.45,5.01-6.25,9.35-9.35,14.05-1.46,2.2-2.75,4.52-4.04,6.83-3.07,5.49-5.84,11.17-9.2,16.47-5.25,8.3-12.55,14.19-22.28,16.46-11.97,2.79-19.21,10.34-21.83,22-2.36,10.5-4.29,21.14-5.68,31.82-1.92,14.82-3.46,29.7-4.59,44.59-.93,12.25-1.07,24.56-1.5,36.84-.39,11.16-4.01,21.47-8.34,31.56-1.96,4.56-5.84,7.18-10.44,8.64-11.65,3.69-23.52,4.29-35.44,1.69-5-1.09-9.98-2.57-14.73-4.46-3.71-1.48-7.84-3.02-8.6-7.98-.08-.53-.84-.99-1.34-1.42-6.91-5.88-9.39-13.78-10.54-22.41-1.76-13.29-1.01-26.51,.62-39.74,1.26-10.22,2.25-20.46,3.44-30.69,1.95-16.68-.16-33.18-2.29-49.64-2.07-15.96-5.51-31.76-6.98-47.76-1.98-21.65-3.57-43.38-1.79-65.19,1.69-20.7,4.36-41.26,8.33-61.63,1.1-5.67,2.96-11.21,4.83-16.69,2.08-6.07,5.76-11.16,10.56-15.47,6.6-5.93,14.03-7.15,22.23-4.11,1.86,.69,3.84,1.42,5.32,2.66,6.74,5.64,13.73,11.07,19.87,17.32,6.94,7.07,7.75,16.6,8.31,25.99,.53,9-.58,17.89-1.48,26.83-.64,6.41-.47,12.91-.37,19.37,.03,2.2,.95,4.38,1.74,7.73,2.25-3.98,3.91-6.83,5.5-9.72,4.58-8.33,9.46-16.38,17.2-22.33,4.84-3.72,10-6.55,16.05-7.54,4.06-.66,7.61-2.28,10.7-4.96,8.79-7.61,17.95-14.85,26.31-22.91,14.97-14.42,32.34-24.33,52.45-29.29,12.62-3.11,25.47-5.07,38.51-2.78,3.73,.66,7.35,1.99,11,3.07,5.72,1.69,11.37,3.59,17.14,5.09,6.68,1.74,12.31,5.06,16.52,10.48,10.34,13.28,17.98,27.88,20.8,44.64,.63,3.74,.55,7.62,.5,11.43-.2,17.28-.31,34.56-.84,51.82-.64,20.92-1.59,41.83-2.57,62.73-.86,18.3-.27,36.56,1.47,54.76,1.46,15.18,3.62,30.29,5.32,45.45,.67,5.94,.89,11.92,1.42,17.88,.09,1,.19,2.7,.14,3.8,.92,5.69,.26,9.02,.26,14.67Zm-16.65-231.7l.7-.04c-.44-6.93-.88-13.87-1.34-20.8-1.17-17.8-8.53-33.09-19.28-46.95-3.04-3.92-6.98-6.39-12-7.36-3.87-.74-7.62-2.14-11.4-3.31-1.58-.49-3.11-1.12-4.65-1.74-6.36-2.59-12.91-3.79-19.79-3.01-7.39,.84-14.95,.9-22.14,2.57-18.44,4.28-34.38,13.35-48.15,26.44-7.8,7.42-16.1,14.32-24.35,21.25-5.21,4.38-10.83,8.05-17.86,9.21-7.17,1.18-12.88,5.14-17.14,10.93-3.63,4.92-7.01,10.02-10.29,15.18-2.59,4.07-4.95,8.27-9.36,10.72-5.02,2.79-9.64,1.84-12.13-3.31-1.98-4.09-3.8-8.67-4.03-13.11-.42-8.07,.34-16.2,.71-24.3,.26-5.78,.83-11.55,.98-17.33,.07-2.61-.7-5.23-.84-7.86-.3-5.64-2.05-10.83-5.58-15.1-4.98-6.03-10.68-11.47-17.49-15.41-5.49-3.17-11.11-2.84-14.86,1.88-2.24,2.82-4.46,5.79-5.96,9.03-3.57,7.7-4.68,16.12-6.02,24.4-1.29,7.98-2.26,16.01-3.23,24.03-1.01,8.35-2.4,16.7-2.66,25.09-.55,17.56-.56,35.14,1.71,52.64,.98,7.53,1.36,15.14,2.35,22.67,2.1,16.02,4.91,31.96,6.5,48.03,1.27,12.87-.04,25.79-2.11,38.59-1.65,10.25-3.52,20.51-4.36,30.84-.94,11.55-1.11,23.18-1.02,34.77,.04,5.2,1.31,10.45,2.43,15.58,1.42,6.49,6.77,10,11.53,13.82,.91,.73,2.49,.72,3.78,.89,6.88,.87,13.8,1.5,20.65,2.56,6.52,1,12.8,.44,19.15-1.22,3.25-.85,5.59-2.58,6.54-5.47,2.11-6.4,4.28-12.86,5.45-19.46,1.06-5.98,.82-12.19,1.15-18.3,.68-12.4,1.33-24.79,2.07-37.19,.21-3.46,.64-6.91,1.08-10.35,1.23-9.65,2.49-19.29,3.78-28.93,1.25-9.3,2.19-18.64,4.92-27.71,4.05-13.42,11.84-23.13,25.59-27.39,6.81-2.11,13.06-5.25,17.05-11.33,3.44-5.24,6.18-10.94,9.28-16.41,2.03-3.58,4.02-7.2,6.3-10.61,3.48-5.22,7.47-10.11,10.75-15.45,3.91-6.37,9.07-10.95,16.21-13.12,3.93-1.19,7.96-2.06,11.94-3.08,10.16-2.6,17.63,1.63,23.94,9.19,5.17,6.19,6.89,13.4,6.96,21.21,.04,4.32-.27,8.67,.17,12.96,1.08,10.66,2.64,21.28,3.72,31.94,1.16,11.51,2.14,23.03,2.94,34.57,.99,14.27-.01,28.5-2.07,42.62-1.58,10.82-2.85,21.63-2.66,32.57,.14,8.11,.6,16.22,.8,24.34,.2,8.44,2.63,16.28,6.36,23.73,.94,1.87,2.42,3.62,4.04,4.95,2.81,2.31,5.97,4.18,8.88,6.36,2.11,1.58,4.38,2.22,6.98,2.04,4.13-.29,8.42-1.33,12.35-.57,5.96,1.17,11.2-.38,16.36-2.53,10.42-4.36,18.43-11.41,21.27-22.7,1.73-6.88,1.99-14.07,1.48-21.21-.24-3.3-.55-6.59-.74-9.89-.39-6.61-.66-13.23-1.13-19.83-.24-3.45-.03-7.21-1.35-10.26-2.89-6.7-2.58-13.59-2.61-20.53-.03-5.82,.18-11.64-.11-17.45-.35-6.92-1.35-13.81-1.62-20.73-.18-4.6,.56-9.24,.67-13.86,.41-16.58,.75-33.17,1.06-49.75,.13-6.65,.04-13.3,.2-19.94,.1-4.29,.76-8.58,.67-12.86-.15-6.62-.72-13.22-1.12-19.83Z"/>
          <path class="cls-11" d="M721.42,118.89c.09,4.28-.56,8.57-.67,12.86-.16,6.64-.07,13.29-.2,19.94-.31,16.58-.66,33.17-1.06,49.75-.11,4.62-.85,9.26-.67,13.86,.27,6.92,1.27,13.81,1.62,20.73,.29,5.8,.08,11.63,.11,17.45,.03,6.94-.28,13.83,2.61,20.53,1.32,3.05,1.11,6.8,1.35,10.26,.46,6.6,.73,13.22,1.13,19.83,.2,3.3,.51,6.59,.74,9.89,.51,7.14,.25,14.33-1.48,21.21-2.84,11.29-10.85,18.33-21.27,22.7-5.15,2.16-10.39,3.7-16.36,2.53-3.93-.77-8.22,.28-12.35,.57-2.6,.18-4.87-.46-6.98-2.04-2.91-2.18-6.07-4.05-8.88-6.36-1.62-1.33-3.1-3.08-4.04-4.95-3.74-7.45-6.16-15.29-6.36-23.73-.19-8.11-.66-16.22-.8-24.34-.19-10.94,1.08-21.75,2.66-32.57,2.06-14.12,3.07-28.34,2.07-42.62-.8-11.54-1.78-23.07-2.94-34.57-1.08-10.66-2.64-21.28-3.72-31.94-.43-4.28-.13-8.63-.17-12.96-.07-7.81-1.79-15.02-6.96-21.21-6.31-7.55-13.78-11.79-23.94-9.19-3.98,1.02-8.01,1.89-11.94,3.08-7.15,2.17-12.31,6.75-16.21,13.12-3.27,5.34-7.26,10.23-10.75,15.45-2.28,3.42-4.26,7.04-6.3,10.61-3.11,5.46-5.84,11.16-9.28,16.41-3.99,6.08-10.24,9.22-17.05,11.33-13.75,4.26-21.54,13.96-25.59,27.39-2.74,9.07-3.68,18.41-4.92,27.71-1.29,9.64-2.55,19.28-3.78,28.93-.44,3.44-.87,6.89-1.08,10.35-.74,12.39-1.39,24.79-2.07,37.19-.34,6.11-.1,12.32-1.15,18.3-1.17,6.61-3.34,13.07-5.45,19.46-.95,2.89-3.29,4.63-6.54,5.47-6.35,1.65-12.63,2.22-19.15,1.22-6.85-1.05-13.77-1.69-20.65-2.56-1.29-.16-2.87-.15-3.78-.89-4.75-3.83-10.1-7.34-11.53-13.82-1.13-5.13-2.39-10.38-2.43-15.58-.09-11.59,.08-23.22,1.02-34.77,.84-10.33,2.71-20.59,4.36-30.84,2.06-12.81,3.38-25.73,2.11-38.59-1.59-16.07-4.4-32.01-6.5-48.03-.99-7.53-1.37-15.14-2.35-22.67-2.27-17.5-2.26-35.08-1.71-52.64,.26-8.38,1.65-16.74,2.66-25.09,.97-8.02,1.94-16.06,3.23-24.03,1.34-8.29,2.45-16.7,6.02-24.4,1.5-3.24,3.72-6.21,5.96-9.03,3.75-4.72,9.37-5.05,14.86-1.88,6.81,3.93,12.5,9.38,17.49,15.41,3.54,4.28,5.29,9.47,5.58,15.1,.14,2.63,.91,5.25,.84,7.86-.15,5.78-.71,11.55-.98,17.33-.37,8.1-1.13,16.23-.71,24.3,.23,4.45,2.05,9.02,4.03,13.11,2.49,5.16,7.11,6.1,12.13,3.31,4.41-2.45,6.77-6.65,9.36-10.72,3.28-5.16,6.66-10.26,10.29-15.18,4.27-5.79,9.98-9.75,17.14-10.93,7.03-1.16,12.64-4.83,17.86-9.21,8.25-6.93,16.55-13.83,24.35-21.25,13.77-13.09,29.71-22.16,48.15-26.44,7.19-1.67,14.75-1.73,22.14-2.57,6.88-.78,13.43,.43,19.79,3.01,1.53,.62,3.07,1.25,4.65,1.74,3.78,1.17,7.53,2.56,11.4,3.31,5.02,.97,8.96,3.43,12,7.36,10.75,13.87,18.1,29.15,19.28,46.95,.46,6.93,.89,13.87,1.34,20.8m-16.49,100.14c1.31-2.7,2.71-4.48,3.04-6.45,.92-5.48,1.83-11.03,1.95-16.57,.14-6.41-.34-12.85-.97-19.24-.33-3.36-.87-6.86-3.59-9.48-3.81-3.69-10.03-2.42-11.4,2.67-.7,2.6-.75,5.51-.45,8.21,.63,5.52,1.7,10.99,2.57,16.49,1.13,7.15,2.98,14.1,6.01,20.7,.46,1,1.36,1.8,2.83,3.68Zm-3.93,126.3c0-1.49,.12-2.99-.03-4.47-.21-2.12-.38-4.29-1.01-6.3-.63-2.01-1.52-4.05-2.77-5.73-2.67-3.58-9.93-4.81-12.14,2-.55,1.69-.95,3.51-.98,5.28-.09,5.46-.2,10.94,.15,16.39,.24,3.73,1.1,7.44,1.94,11.09,.6,2.64,2.61,3.51,5.26,3.47,2.96-.05,4.43-1.95,5.7-4.12,3.18-5.44,3.47-11.54,3.88-17.61ZM618.42,43.93c.36-.08,1.42-.1,2.25-.56,5.47-3.03,11.55-3.52,17.54-4.62,4.33-.8,8.61-2.26,12.64-4.03,1.86-.82,4.99-1.56,4.73-4.41-.25-2.83-3.04-3.63-5.42-4.37-9.07-2.84-18.24-2.54-27.34-.42-5.11,1.19-8.78,4.47-10.56,9.55-1.57,4.49,1.2,8.9,6.16,8.87Zm-160.09,39.69c1.59-2.47,2.94-3.98,3.59-5.74,1.08-2.89,1.93-5.92,2.49-8.96,1.02-5.46,1.97-10.96,2.53-16.48,.35-3.47-1.92-6.13-4.67-6.52-2.87-.4-5.33,1.29-6.33,4.97-.72,2.66-.53,5.56-1.2,8.24-1.58,6.28-.73,12.42,.73,18.52,.43,1.8,1.61,3.41,2.86,5.97Zm131.4-20.55c-.89-.56-1.39-1.13-1.69-1.04-8.25,2.42-16.05,5.83-22.91,11.08-2.65,2.03-3.08,4.78-1.55,6.92,1.52,2.13,4.96,2.75,7.55,.92,7.01-4.96,13.7-10.29,18.6-17.89Zm-131.58,286.99c-.77-8.28-3.46-15.48-6.65-22.48-.4-.87-2.74-1.56-3.86-1.23-1.35,.39-2.81,1.76-3.39,3.07-.53,1.2-.36,3.08,.2,4.33,1.9,4.2,3.91,8.37,6.29,12.31,1.35,2.24,3.57,3.88,7.4,4Zm6.63-20.97c-4.71-.02-7.05,3.21-5.06,7.24,1.8,3.65,4.24,7,6.53,10.39,.51,.75,1.52,1.38,2.42,1.6,1.34,.33,3.19,.8,4.07,.16,.88-.64,1.42-2.73,1.08-3.88-1.29-4.37-3.01-8.61-4.56-12.91-.82-2.29-2.6-2.78-4.47-2.6Zm-19.1-245.59l.92-.07c.46-1.34,1.13-2.65,1.35-4.03,1.1-7.15,2.08-14.32,3.09-21.49,.35-2.44,.85-4.88,.93-7.34,.03-.88-.95-2.53-1.5-2.55-1.32-.03-3.13,.31-3.87,1.22-.97,1.17-1.42,3.02-1.52,4.61-.46,7.09-.89,14.18-.94,21.28-.02,2.79,1,5.58,1.55,8.37Zm262.61,251.64c2.32-.83,3.98-2.27,4.42-4.73,.72-4.02,1.43-8.05,1.84-12.1,.28-2.78,.05-5.61,.08-8.41,.02-2.22-.82-4.09-3.04-4.49-2.38-.43-3.54,1.33-4,3.45-.34,1.59-.75,3.22-.72,4.83,.04,2.45,.51,4.88,.67,7.33,.3,4.62,.5,9.26,.75,14.12Zm-9.98-286.65c.45-2.75-1.21-4.58-3.63-4.55-2.36,.03-5.08,2.78-4.75,5.43,.56,4.36,2.71,8.08,5.94,11.08,.96,.88,2.41,.07,2.42-1.27,.04-3.56,.01-7.12,.01-10.68Zm-253.17,97.13c0-.5,0-.99,0-1.49,.01-2.05,.01-4.17-2.72-4.45-2.63-.27-3.17,1.68-3.76,3.69-1.44,4.87,.47,9.37,1.44,13.97,.1,.49,.96,1.27,1.18,1.19,.65-.25,1.5-.78,1.65-1.36"/>
          <path class="cls-13" d="M704.52,199.16c-1.47-1.87-2.37-2.68-2.83-3.68-3.02-6.6-4.88-13.54-6.01-20.7-.87-5.5-1.94-10.97-2.57-16.49-.31-2.7-.25-5.61,.45-8.21,1.37-5.08,7.59-6.36,11.4-2.67,2.71,2.62,3.26,6.12,3.59,9.48,.63,6.39,1.11,12.83,.97,19.24-.12,5.54-1.03,11.09-1.95,16.57-.33,1.96-1.73,3.75-3.04,6.45Z"/>
          <path class="cls-13" d="M700.59,325.46c-.4,6.06-.69,12.17-3.88,17.61-1.27,2.17-2.75,4.07-5.7,4.12-2.65,.04-4.66-.83-5.26-3.47-.84-3.66-1.7-7.37-1.94-11.09-.35-5.44-.24-10.93-.15-16.39,.03-1.77,.44-3.58,.98-5.28,2.2-6.81,9.47-5.57,12.14-2,1.25,1.68,2.15,3.72,2.77,5.73,.63,2.01,.8,4.18,1.01,6.3,.15,1.48,.03,2.98,.03,4.47Z"/>
          <path class="cls-13" d="M618.42,43.93c-4.96,.03-7.74-4.38-6.16-8.87,1.78-5.08,5.45-8.36,10.56-9.55,9.1-2.12,18.28-2.41,27.34,.42,2.38,.75,5.17,1.54,5.42,4.37,.25,2.85-2.87,3.59-4.73,4.41-4.03,1.77-8.31,3.23-12.64,4.03-5.99,1.1-12.07,1.59-17.54,4.62-.82,.46-1.89,.47-2.25,.56Z"/>
          <path class="cls-13" d="M458.32,83.62c-1.25-2.55-2.43-4.17-2.86-5.97-1.46-6.1-2.31-12.24-.73-18.52,.67-2.68,.48-5.58,1.2-8.24,.99-3.68,3.46-5.37,6.33-4.97,2.76,.38,5.02,3.05,4.67,6.52-.55,5.52-1.51,11.02-2.53,16.48-.57,3.04-1.41,6.06-2.49,8.96-.66,1.76-2.01,3.27-3.59,5.74Z"/>
          <path class="cls-13" d="M589.72,63.08c-4.89,7.6-11.59,12.93-18.6,17.89-2.59,1.84-6.03,1.22-7.55-.92-1.53-2.14-1.09-4.89,1.55-6.92,6.85-5.26,14.66-8.66,22.91-11.08,.31-.09,.81,.48,1.69,1.04Z"/>
          <path class="cls-2" d="M458.14,350.07c-3.83-.12-6.05-1.76-7.4-4-2.38-3.94-4.39-8.11-6.29-12.31-.57-1.26-.74-3.13-.2-4.33,.58-1.31,2.04-2.68,3.39-3.07,1.12-.33,3.46,.36,3.86,1.23,3.19,7,5.88,14.2,6.65,22.48Z"/>
          <path class="cls-12" d="M464.76,329.09c1.87-.18,3.65,.31,4.47,2.6,1.54,4.3,3.26,8.54,4.56,12.91,.34,1.15-.2,3.24-1.08,3.88-.88,.63-2.73,.16-4.07-.16-.89-.22-1.91-.85-2.42-1.6-2.29-3.39-4.73-6.74-6.53-10.39-1.99-4.03,.35-7.26,5.06-7.24Z"/>
          <path class="cls-7" d="M445.66,83.51c-.55-2.79-1.57-5.58-1.55-8.37,.05-7.1,.48-14.19,.94-21.28,.1-1.59,.56-3.43,1.52-4.61,.75-.9,2.55-1.25,3.87-1.22,.55,.01,1.53,1.67,1.5,2.55-.08,2.45-.58,4.89-.93,7.34-1.02,7.16-2,14.33-3.09,21.49-.21,1.38-.89,2.69-1.35,4.03l-.92,.07Z"/>
          <path class="cls-10" d="M708.28,335.15c-.25-4.87-.45-9.5-.75-14.12-.16-2.45-.62-4.89-.67-7.33-.03-1.61,.37-3.24,.72-4.83,.46-2.12,1.62-3.88,4-3.45,2.21,.4,3.06,2.27,3.04,4.49-.03,2.81,.21,5.64-.08,8.41-.42,4.06-1.12,8.09-1.84,12.1-.44,2.46-2.1,3.9-4.42,4.73Z"/>
          <path class="cls-3" d="M698.29,48.49c0,3.56,.03,7.12-.01,10.68-.02,1.34-1.47,2.15-2.42,1.27-3.24-2.99-5.38-6.71-5.94-11.08-.34-2.64,2.38-5.4,4.75-5.43,2.43-.03,4.08,1.8,3.63,4.55Z"/>
          <path class="cls-9" d="M442.9,157.17c-.14,.58-1,1.11-1.65,1.36-.22,.09-1.08-.7-1.18-1.19-.96-4.6-2.88-9.09-1.44-13.97,.59-2.01,1.13-3.96,3.76-3.69,2.74,.28,2.73,2.4,2.72,4.45,0,.5,0,.99,0,1.49"/>
        </g>
      </g>
    </g>
  </g>
</svg>