<?xml version="1.0" encoding="UTF-8"?>
<svg xmlns="http://www.w3.org/2000/svg" viewBox="0 0 2676.63 433.43">
  <defs>
    <style>
      .cls-1 {
        fill: #ee91f6;
      }

      .cls-2 {
        fill: #fee877;
      }

      .cls-3 {
        fill: #14100f;
      }

      .cls-4 {
        fill: #13110e;
      }

      .cls-5 {
        fill: #171012;
      }

      .cls-6 {
        fill: #da1be9;
      }

      .cls-7 {
        fill: #151010;
      }

      .cls-8 {
        fill: #ee8ff6;
      }

      .cls-9 {
        fill: #13110d;
      }

      .cls-10 {
        fill: #12100e;
      }

      .cls-11 {
        fill: #171410;
      }

      .cls-12 {
        fill: #14100e;
      }

      .cls-13 {
        fill: #14110e;
      }

      .cls-14 {
        fill: #14130f;
      }

      .cls-15 {
        fill: #b89af8;
      }

      .cls-16 {
        fill: #eed28b;
      }

      .cls-17 {
        fill: #191015;
      }

      .cls-18 {
        fill: #14120e;
      }

      .cls-19 {
        fill: #12100d;
      }

      .cls-20 {
        fill: #6831d5;
      }

      .cls-21 {
        fill: #141111;
      }

      .cls-22 {
        fill: #13110f;
      }

      .cls-23 {
        fill: #14150f;
      }

      .cls-24 {
        fill: #13120e;
      }

      .cls-25 {
        fill: #13100d;
      }

      .cls-26 {
        fill: #f9e3ac;
      }

      .cls-27 {
        fill: #16110f;
      }

      .cls-28 {
        fill: #13100e;
      }

      .cls-29 {
        fill: #ae444e;
      }

      .cls-30 {
        fill: #16130f;
      }

      .cls-31 {
        fill: #15130f;
      }

      .cls-32 {
        fill: #17140e;
      }

      .cls-33 {
        fill: #70f167;
      }

      .cls-34 {
        fill: #b9f1b5;
      }

      .cls-35 {
        fill: #eb8f98;
      }

      .cls-36 {
        fill: #b798f7;
      }

      .cls-37 {
        fill: #baf2b6;
      }

      .cls-38 {
        fill: #19160f;
      }

      .cls-39 {
        fill: #13100f;
      }

      .cls-40 {
        fill: #f8e3ac;
      }

      .cls-41 {
        fill: #efd54f;
      }

      .cls-42 {
        fill: #ec8f98;
      }
    </style>
  </defs>
  <g id="_лой_1" data-name="Слой 1"/>
  <g id="_лой_2" data-name="Слой 2">
    <g id="_лой_1-2" data-name="Слой 1">
      <g>
        <g>
          <path class="cls-19" d="M1591.82,131.24c-.62,8.89-1.38,17.77-1.8,26.67-.19,3.94,.24,7.91,.52,11.86,.39,5.6,.86,11.19,1.38,16.78,.9,9.77,1.87,19.54,2.78,29.32,.14,1.51,.16,3.02,.15,4.53-.11,9.81,1.78,19.4,3.2,29.05,.7,4.71,1.23,9.44,1.91,14.15,.16,1.1,.18,2.41,.5,3.48,.09,3.82,.55,7.4,.71,11.21,.14,3.3,.44,6.59,.66,9.89,.06,3.56,.12,7.11,.19,10.67-.01,13.33-.02,26.66-.03,39.98-.05,1.88-.11,3.76-.16,5.64-.2,1.6-.56,3.2-.59,4.81-.16,8.52-.24,17.04-.35,25.57,0,.39,0,.45-.06,.69-1.76,9.39-5.49,18.08-9.69,26.63-1.91,3.89-3.56,7.9-5.15,11.93-3.58,9.08-9.57,15.58-19.13,18.55-.95,.06-1.9,.11-2.85,.18-1.39,.1-3.2,1.06-5.87,.31-3.59,.28-.93,.22-4.6,.22-1.12,.07-1.92-.04-2.17-.07-6.58-.91-12.54-3.53-18.43-6.39-4-2.2-8.32-3.98-11.92-6.7-6.36-4.8-9.41-11.87-11-19.46-1.09-5.19-2.41-10.34-1.94-15.84,.3-3.52-1.06-7.15-1.05-10.72,0-4.75,.75-9.49,.91-14.24,.23-6.8,.47-13.61,.19-20.39-.13-3.3-1.54-6.52-2.15-9.82-1.23-6.6-3.23-13.08-3.13-19.89,.02-7.99,.03-15.99,.05-23.98,.7-6.31,1.33-12.63,2.11-18.93,.57-4.59,1.35-9.16,2.03-13.73l.82-18.34,.18-6.63c.17-.62,.48-1.24,.49-1.86,.16-10.51,.29-21.01,.42-31.52,0-2.57-.15-5.16,.03-7.72,.21-2.97,.7-5.92,1.07-8.88,.25-2.28,.67-4.56,.7-6.85,.09-7.48-.04-14.97,.07-22.45,.12-8.24,2.69-15.78,7.87-22.13,7.5-9.21,16.72-16.09,28.46-19.12,3.35-.86,6.67-1.85,10-2.77,4.14-.32,8.28-.64,12.42-.97,10.51,.2,17.1,9.87,20.2,20.24,.7,2.34,1.36,4.7,2.03,7.05Zm-76.79,236c.3,4.56,.27,10.43,1.15,16.16,1.09,7.03,2.45,14.1,4.58,20.87,2.88,9.18,10.31,14.13,19.84,14.49,2.31,.09,4.61,.53,6.92,.81,3.63,.44,7.25,1.12,10.89,1.29,9.71,.46,13.46-1.96,17.4-10.9,3.42-7.75,6.78-15.53,10.15-23.31,2.53-5.85,4.05-11.88,4.04-18.35,0-7.65,.47-15.31,.66-22.96,.65-26.49,.64-52.97-.94-79.43-.24-3.97-.91-7.92-1.51-11.86-2.16-14.31-4.18-28.61-4.48-43.12-.1-4.97-1.02-9.91-1.45-14.88-.86-9.94-2.06-19.87-2.31-29.83-.22-8.63,.59-17.29,1.11-25.93,.36-5.96-.65-11.59-3.24-16.95-2.94-6.1-8.3-9.37-15.01-8.3-10.58,1.68-20.74,4.53-29.11,11.92-7.42,6.55-11.68,14.47-11.63,24.39,.07,14-.55,27.92-1.8,41.88-1.31,14.58-1.63,29.25-2.13,43.89-.49,14.49-2,28.82-4.73,43.08-1.31,6.83-2.14,13.87-2.08,20.8,.06,7.1,1.2,14.23,2.37,21.27,1.29,7.73,2.59,15.41,2.2,23.28-.34,6.81-.57,13.63-.91,21.71Z"/>
          <path class="cls-19" d="M2179.64,426.74c-4.35,.36-8.69,.83-13.05,1.04-3.44,.16-6.9-.01-10.35-.04-.95-.24-1.89-.63-2.85-.71-9.99-.83-19.68-2.96-28.98-6.68-13.08-5.23-26.17-10.45-39.14-15.95-4.56-1.93-8.85-4.54-13.13-7.07-7.21-4.25-12.5-10.35-16.27-17.77-1.43-2.81-2.69-5.7-3.95-8.59-3.25-7.45-6.29-14.98-11.6-21.35-1.55-1.86-2.53-4.29-3.4-6.6-1.16-3.08-1.95-6.29-2.9-9.45-1.39-5.5-2.34-8.68-4.96-12.73l-9.13-17.8c-.63-2.26-1.62-4.49-1.84-6.79-.56-5.86-1.51-11.81-.96-17.6,.94-10,2.88-19.84,7.51-29.06,4.24-8.44,8.58-16.89,10.75-26.23,1.18-5.12,2.5-10.17,2.62-15.48,.08-3.23,.67-6.44,1.04-9.66,.3-6.8,.61-13.6,.91-20.4,.44-9.07,3.21-17.55,6.85-25.75,5.68-12.77,13.26-24.38,22.13-35.17,5.11-4.99,10.23-9.97,15.34-14.96,6.31-6.22,13.54-11.33,21.53-14.91,7.5-3.36,15.66-5.34,23.99-5.12,14.71,.38,28.17-4.13,41.46-9.66,3.5-1.46,7.29-2.2,10.9-3.4,3-1,5.98-2.1,8.9-3.31,10.74-4.46,21.8-7.88,33.21-10.13,8.32-1.64,16.66-2.38,25.14-.75,5.64,1.09,11.4,1.56,17.11,2.3,3.28,1.86,6.65,3.59,9.84,5.61,5.17,3.28,8.47,8.37,11.8,13.28,4.87,7.2,11.59,11.64,19.65,14.35,3.56,1.92,7.13,3.83,10.68,5.75,3.07,1.67,6.15,3.33,9.19,5.05,1,.56,1.9,1.3,2.85,1.96,.83,.78,1.63,1.61,2.5,2.35,6.52,5.46,10.85,12.31,13.06,20.51,.55,2.04,1.18,4.06,1.78,6.09l-.03-.05c0,6.32,.01,12.65,.02,18.97-.62,2.86-1.22,5.73-1.88,8.58-1.37,5.9-2.72,11.81-4.2,17.68-.46,1.85-1.31,3.6-1.98,5.39-4.32,6.36-7.59,13.36-15.15,17.27-4.28,2.22-8.14,5.39-12.85,6.98l.06-.04c-4.97,.26-9.95,.84-14.83-.78-5.19-1.72-10.55-3.04-15.57-5.16-4.4-1.86-8.75-4.15-12.54-7.02-7.47-5.65-11.16-13.41-10.87-22.91,.04-1.32,0-2.65-.02-3.97,.33-3.1,.66-6.2,.99-9.29-7.23-5.46-14.42-9.99-23.23-11.54-8.99-1.58-17.87-3.8-26.87-5.36-8.02-1.39-16.1-2.51-24.2-3.27-5.57-.52-10.88,1.27-15.83,3.79-3.1,1.58-6.19,3.32-8.92,5.46-17.71,13.81-31.89,30.58-41.98,50.73-4.93,9.85-7.05,20.38-7.84,31.24-.36,4.98-.61,9.97-.8,14.96-.27,6.94,1.17,13.59,4.02,19.88,6.3,13.91,8.48,28.68,8.62,43.73,.09,9.41,2.54,17.68,8.55,24.9,2.34,2.81,4.54,5.75,6.93,8.52,7.9,9.16,18.58,13.81,29.6,17.72,2.04,.72,4.62,.28,6.88-.07,1.94-.3,3.9-1,5.64-1.93,10.32-5.53,21.53-6.36,32.91-6.66,7.72-.2,15.15-1.6,21.81-6.01,4.95-3.28,8.24-7.7,10.11-13.21,1.77-5.24,2.62-10.65,2.36-16.2-.18-3.73-.95-4.71-4.64-5.18-2.14-.27-4.32-.22-6.49-.21-6.49,.04-12.99,.2-19.48,.18-7.35-.03-13.61-2.83-18.8-7.97-2-1.98-3.81-4.18-5.59-6.37-9.11-11.27-9.05-23.47-3.37-36.09,2.56-5.69,6.58-10.34,11.24-14.49,4.21-3.76,8.72-4.15,13.9-2.23,4.96,1.83,10.02,3.6,15.18,4.63,4.7,.94,9.6,.88,14.42,1.2,2.15,.14,4.31,.15,6.47,.22,1.95,.25,3.9,.69,5.85,.71,7.32,.11,14.65,.3,21.96,.03,5.96-.22,11.89-1.12,17.84-1.56,3.14-.23,6.4-.61,9.44-.03,5.37,1.01,10.74,2.33,15.87,4.18,9.75,3.51,16.76,10,19.74,20.24,.55,1.89,.99,3.81,1.48,5.72,0,3.44,.01,6.88,.02,10.31-.45,3.27-.78,6.56-1.37,9.81-1.53,8.33-3.28,16.62-4.75,24.95-2.05,11.6-5.85,22.47-12.57,32.23-3.67,5.33-7.12,10.83-11,16-6.08,8.12-12.43,16.03-18.68,24.02-5.15,6.57-11.68,11.27-19.49,14.22-3.26,1.23-6.45,2.66-9.75,3.76-5.66,1.87-11.38,3.56-17.08,5.31-3.32,1.02-6.76,1.74-9.97,3.03-8.28,3.34-16.79,5.13-25.73,5.01-7.98-.11-15.97-.08-23.96,.04-2.62,.04-5.24,.54-7.85,.83Zm22.66-14.05v.32c3.18,0,6.35-.08,9.51,.02,7.76,.24,15.19-1.11,22.38-4.12,2.57-1.08,5.4-1.55,8.13-2.25,5.13-1.32,10.31-2.44,15.38-3.97,3.65-1.1,7.18-2.62,10.68-4.13,6.16-2.65,11.99-5.8,16.2-11.29,6.99-9.11,13.93-18.27,21.07-27.26,5.95-7.49,10.15-15.99,14.48-24.41,1.27-2.47,2.03-5.28,2.61-8.02,1.73-8.12,3.48-16.24,4.81-24.43,1.03-6.39,1.83-12.86,2.03-19.32,.24-7.52-2.21-14.27-8.97-18.42-7.22-4.43-15.09-6.64-23.74-5.83-6.78,.63-13.62,1.12-20.41,.98-12.31-.26-24.6-1.12-36.91-1.57-10.02-.37-19.96-.92-29.1-5.72-1.5-.79-3.16-1.13-4.66,.22-6.78,6.12-10.32,13.76-10.59,22.86-.04,1.44,.43,3.01,1.07,4.33,2.33,4.83,5.17,9.4,9.47,12.69,2.16,1.66,4.86,3.18,7.48,3.54,4.56,.62,9.25,.3,13.88,.37,5.81,.08,11.68-.38,17.4,.35,9.46,1.2,13.81,6.51,13.42,15.95-.32,7.83-1.77,15.52-4.77,22.82-2.13,5.16-5.29,9.58-9.61,13.18-8.26,6.89-17.88,10.04-28.48,10.48-11.64,.48-23.14,1.19-34.05,6.22-6.69,3.08-13.97,2.61-20.99,.25-16.99-5.71-30.58-15.73-40.22-31.07-5.11-8.13-7.96-16.75-7.97-26.34,0-14.97-2.41-29.41-8.84-43.1-3-6.38-4.45-13.23-4.17-20.34,.3-7.65,.62-15.3,1.03-22.94,.46-8.52,2.06-16.77,5.36-24.72,5.94-14.32,14.71-26.8,24.57-38.59,8.04-9.62,16.76-18.56,27.38-25.39,9.56-6.15,19.85-10.2,31.51-9.07,6.45,.62,12.93,1.27,19.29,2.48,8.63,1.64,17.18,3.78,25.74,5.79,9.32,2.19,18.3,5.1,24.95,12.62,.5,.56,1.44,1.18,2.09,1.1,4.73-.6,5.99,2.85,7.18,6.15,1.88,5.23,2.26,10.7,2.19,16.23-.1,7.17,2.76,12.85,8.69,17.01,6.76,4.75,14.27,7.84,22.16,9.99,4.11,1.12,8.24,.68,12.04-1.62,1.85-1.12,3.69-2.51,5.73-2.99,4.57-1.08,6.91-4.39,8.9-8.06,9.11-16.82,12-34.8,9.01-53.58-1.17-7.35-4.86-13.72-11.05-18.4-7.48-5.66-15.61-10.17-24.21-13.8-8.81-3.71-16.34-8.86-21.55-17.08-1.24-1.96-2.8-3.73-4.27-5.54-3.45-4.26-7.68-7.54-13.12-8.57-7.65-1.45-15.36-3.04-23.1-3.51-8.5-.51-16.9,1.4-24.96,4.12-15.1,5.11-30.09,10.55-45.15,15.78-11.49,3.99-23.06,7.25-35.48,7.15-11.37-.09-21.98,3.25-31.46,9.75-22.68,15.54-38.54,36.41-48.45,61.94-4.03,10.38-5.31,21.26-5.59,32.27-.19,7.32-.24,14.6-1.65,21.86-2.18,11.19-5.95,21.76-11.07,31.9-5.72,11.33-8.94,23.23-8.37,36.02,.52,11.55,3.48,22.24,10.35,31.77,2.48,3.45,4.31,7.39,6.27,11.19,2.13,4.13,3.66,8.61,6.17,12.48,5.11,7.88,8.63,16.45,12.2,25.06,1.96,4.74,4.21,9.44,6.94,13.77,5.32,8.45,14.04,12.61,22.79,16.29,10.24,4.31,20.83,7.81,31.13,12,15.24,6.19,31,8.48,47.37,7.47,10.63-.66,21.3-.87,31.95-1.29Z"/>
          <path class="cls-41" d="M1515.04,367.24c.33-8.08,.57-14.9,.91-21.71,.39-7.88-.91-15.55-2.2-23.28-1.17-7.04-2.31-14.17-2.37-21.27-.06-6.93,.78-13.97,2.08-20.8,2.73-14.25,4.24-28.59,4.73-43.08,.49-14.64,.82-29.31,2.13-43.89,1.25-13.96,1.87-27.88,1.8-41.88-.05-9.92,4.21-17.85,11.63-24.39,8.38-7.39,18.53-10.23,29.11-11.92,6.71-1.07,12.07,2.2,15.01,8.3,2.59,5.36,3.6,10.99,3.24,16.95-.53,8.64-1.33,17.3-1.11,25.93,.25,9.96,1.45,19.89,2.31,29.83,.43,4.96,1.35,9.91,1.45,14.88,.3,14.51,2.32,28.82,4.48,43.12,.59,3.94,1.27,7.89,1.51,11.86,1.58,26.46,1.6,52.95,.94,79.43-.19,7.65-.67,15.31-.66,22.96,0,6.47-1.51,12.5-4.04,18.35-3.36,7.78-6.73,15.55-10.15,23.31-3.94,8.95-7.69,11.36-17.4,10.9-3.64-.17-7.26-.85-10.89-1.29-2.3-.28-4.6-.72-6.92-.81-9.53-.36-16.96-5.31-19.84-14.49-2.13-6.77-3.49-13.84-4.58-20.87-.89-5.73-.86-11.6-1.15-16.16Zm35.23,32.22c3.23,1.01,5.85,.08,7.7-2.28,1.6-2.04,3.02-4.36,3.91-6.78,2.36-6.45,4.65-12.94,6.49-19.55,2.06-7.42,3.69-14.96,3.57-22.76-.1-6.65,.1-13.32-.08-19.97-.08-2.93-.55-5.89-1.25-8.74-.32-1.3-1.43-2.67-2.56-3.45-3.4-2.34-7.64-.18-8.86,4.57-.69,2.68-.97,5.48-1.21,8.25-.73,8.52-1.11,17.08-2.11,25.56-.82,6.96-2.24,13.86-3.57,20.75-1.53,7.93-3.26,15.82-2.03,24.38Zm11.04-244.91c-.59-2.2-1.02-5.53-2.35-8.44-2.47-5.4-7.98-6.06-12.05-1.71-2.81,3-3.22,6.72-2.83,10.59,.21,2.11,.65,4.2,.87,6.31,.66,6.26,2.18,12.28,5.13,17.85,1.97,3.71,6.28,3.8,7.38-.25,.3-1.1,1.25-2.06,1.39-3.15,.86-6.68,1.57-13.37,2.45-21.19Zm13.42,229.46c1.16-2.82,2.59-5.13,3.03-7.62,.99-5.53,1.83-11.13,2.11-16.73,.63-12.76,.99-25.54,1.2-38.32,.06-3.44-.58-6.94-1.28-10.33-.45-2.21-1.25-4.56-4.14-4.93-2.45,1.13-2.53,3.33-2.57,5.5-.12,6.31-.18,12.62-.3,18.94-.33,17.36,.47,34.71,.37,52.07,0,.21,.45,.43,1.56,1.42Zm-3.09-126.33c.49,.01,.99,.02,1.48,.03,.63-1.63,1.55-3.21,1.83-4.89,2.28-13.55,1.36-27.09-.38-40.61-.18-1.43-.66-3.04-1.56-4.11-.84-1.01-2.59-2.15-3.61-1.9-1.31,.32-2.69,1.8-3.31,3.12-.59,1.24-.34,2.93-.3,4.42,.3,12.46,2.42,24.69,4.69,36.91,.43,2.34,.78,4.69,1.17,7.04Zm-14.84-39.67c-5.45,2.73-6.1,4.04-4.93,9.9,.13,.64-.06,1.36,.11,1.98,1.7,6.46,3.23,12.97,5.27,19.32,.75,2.35,1.63,5.1,4.9,6.56,.29-1.39,.67-2.58,.78-3.8,.14-1.65-.28-3.42,.16-4.96,2.15-7.57,.41-15.05-.41-22.52-.35-3.22-2.21-5.83-5.87-6.47Zm8.75-47.88c3.11-.35,3.39-2.69,3.88-4.35,2.03-6.88,3.02-13.94,2.51-21.14-.09-1.29-.49-2.64-1.09-3.78-1.1-2.08-2.99-3.21-5.37-2.72-2.24,.46-4.06,1.79-4.39,4.2-.24,1.79-.24,3.68,.09,5.45,1.34,7.3,2.83,14.57,4.37,22.33Z"/>
          <path class="cls-16" d="M2202.3,412.69c-10.65,.41-21.31,.63-31.95,1.29-16.37,1.01-32.13-1.28-47.37-7.47-10.3-4.18-20.88-7.68-31.13-12-8.75-3.68-17.47-7.84-22.79-16.29-2.73-4.33-4.97-9.03-6.94-13.77-3.56-8.61-7.09-17.18-12.2-25.06-2.51-3.87-4.04-8.35-6.17-12.48-1.96-3.8-3.79-7.74-6.27-11.19-6.87-9.53-9.83-20.23-10.35-31.77-.58-12.79,2.65-24.69,8.37-36.02,5.12-10.14,8.89-20.71,11.07-31.9,1.42-7.26,1.46-14.54,1.65-21.86,.29-11.01,1.56-21.89,5.59-32.27,9.91-25.52,25.77-46.4,48.45-61.94,9.48-6.49,20.09-9.84,31.46-9.75,12.42,.1,23.99-3.17,35.48-7.15,15.06-5.22,30.05-10.67,45.15-15.78,8.06-2.73,16.46-4.64,24.96-4.12,7.75,.47,15.45,2.05,23.1,3.51,5.43,1.03,9.67,4.31,13.12,8.57,1.47,1.81,3.02,3.58,4.27,5.54,5.21,8.21,12.75,13.36,21.55,17.08,8.6,3.63,16.73,8.14,24.21,13.8,6.19,4.68,9.88,11.05,11.05,18.4,2.98,18.78,.1,36.76-9.01,53.58-1.99,3.68-4.33,6.98-8.9,8.06-2.03,.48-3.88,1.87-5.73,2.99-3.8,2.3-7.92,2.74-12.04,1.62-7.89-2.15-15.4-5.25-22.16-9.99-5.93-4.16-8.79-9.83-8.69-17.01,.08-5.53-.31-11-2.19-16.23-1.19-3.3-2.45-6.75-7.18-6.15-.65,.08-1.59-.53-2.09-1.1-6.65-7.52-15.63-10.43-24.95-12.62-8.56-2.01-17.1-4.15-25.74-5.79-6.36-1.21-12.84-1.86-19.29-2.48-11.66-1.13-21.95,2.92-31.51,9.07-10.61,6.83-19.34,15.77-27.38,25.39-9.85,11.79-18.63,24.27-24.57,38.59-3.29,7.94-4.9,16.2-5.36,24.72-.41,7.64-.73,15.29-1.03,22.94-.28,7.11,1.17,13.96,4.17,20.34,6.43,13.69,8.83,28.13,8.84,43.1,0,9.59,2.86,18.21,7.97,26.34,9.64,15.34,23.23,25.36,40.22,31.07,7.02,2.36,14.31,2.83,20.99-.25,10.92-5.03,22.41-5.74,34.05-6.22,10.6-.43,20.23-3.59,28.48-10.48,4.32-3.6,7.48-8.02,9.61-13.18,3.01-7.31,4.45-15,4.77-22.82,.39-9.44-3.96-14.75-13.42-15.95-5.72-.73-11.6-.26-17.4-.35-4.63-.06-9.32,.26-13.88-.37-2.62-.36-5.32-1.88-7.48-3.54-4.29-3.29-7.14-7.86-9.47-12.69-.63-1.32-1.11-2.89-1.07-4.33,.27-9.1,3.81-16.75,10.59-22.86,1.5-1.35,3.15-1.01,4.66-.22,9.14,4.8,19.08,5.35,29.1,5.72,12.31,.46,24.6,1.31,36.91,1.57,6.8,.14,13.63-.35,20.41-.98,8.66-.8,16.52,1.4,23.74,5.83,6.76,4.14,9.21,10.89,8.97,18.42-.21,6.46-1,12.93-2.03,19.32-1.33,8.19-3.07,16.32-4.81,24.43-.59,2.74-1.34,5.55-2.61,8.02-4.33,8.42-8.53,16.92-14.48,24.41-7.14,8.99-14.08,18.15-21.07,27.26-4.21,5.49-10.05,8.63-16.2,11.29-3.5,1.51-7.04,3.03-10.68,4.13-5.07,1.53-10.25,2.65-15.38,3.97-2.72,.7-5.56,1.17-8.13,2.25-7.19,3.01-14.61,4.36-22.38,4.12-3.16-.1-6.33-.02-9.5-.02v-.32Zm106.66-281.93c1,.74,2.01,1.49,3.3,2.45,.66-1.34,1.39-2.28,1.59-3.32,1.11-5.81-3.71-16.69-8.91-19.32-1.69-.86-4.33-1.02-6.08-.33-2.42,.96-1.77,3.51-1.14,5.62-1.38-.11-2.92-.67-4.11-.24-5.56,2-6.35,7.76-1.78,11.6,2.78,2.34,5.45,4.81,8.18,7.2,1.36,1.2,2.75,2.36,4.13,3.54-.5,1.34-1.59,2.78-1.39,4.01,.67,4.15,2.69,7.75,5.69,10.74,.25,.25,.95,.04,1.44,.04,.34,1.75,.72,3.5,1.03,5.26,.5,2.88,.77,5.82,1.49,8.64,.37,1.46,1.56,3.89,2.28,3.85,1.77-.09,3.54-1.25,5.18-2.2,.62-.36,.89-1.33,1.29-2.04,2.53-4.52,3.59-9.46,3.7-14.55,.05-2.57-.23-5.29-1.05-7.71-1.41-4.19-6.3-6.18-9.91-3.98-1.64,1-2.57,3.19-3.82,4.84-.72-2.49-1.01-5.19-3.29-6.94,1.55-.57,2.22-1.67,2.14-3.32-.06-1.28,0-2.56,.02-3.83Zm-216.36,4.94c3.1-5.1,6.2-10.2,9.49-15.61-3.5-.64-5.95,.81-8.24,2.36-7.49,5.05-12.97,11.87-16.85,19.97-.56,1.17-.91,2.52-1.01,3.82-.17,2.35,.83,4.23,3.04,5.25,1.87,.86,3.95,.09,5.55-2.17,1.23-1.74,2.24-3.63,3.35-5.45,0,.99-.04,1.99,0,2.98,.17,4,2.73,6.23,6.72,6.01,2.92-.15,4.84-1.88,6.59-3.9,1.28-1.48,2.62-2.97,3.63-4.63,2.35-3.88,5.93-6.92,7.27-11.57,.61-2.13,.24-3.37-.98-4.77-5.86,.39-9.92,1.94-13.99,5.05-1.39,1.06-3.05,1.79-4.58,2.66Zm208.29,177.56c2.81-1.41,4.85-2.74,5.14-5.55,.36-3.58,1.21-7.27,.7-10.74-.79-5.34-2.83-10.41-6.14-14.84-2.82-3.78-7-5.37-11.53-4.28-5.21,1.25-7.26,7.49-3.91,11.74,1.83,2.32,3.6,4.68,5.22,7.15,3.49,5.34,6.85,10.75,10.52,16.53Zm-249.95-24.43c0,2.74-.2,4.76,.04,6.73,.46,3.71,.71,7.49,2.77,10.84,1.32,2.14,3.26,2.52,5.49,2.45,2.41-.07,2.8-2.13,3.46-3.72,.42-1.01,.29-2.29,.22-3.43-.29-4.59-.65-9.18-.98-13.77-.34-4.76-.59-9.52-1.04-14.26-.26-2.78-2.83-3.83-5.04-2.1-.87,.68-1.46,1.75-2.05,2.72-2.85,4.73-3.13,9.97-2.87,14.54Zm184.34-191.95c-2.56-5.32-5.25-8.26-9.24-9.97-2.85-1.22-5.79-2.37-8.8-3.02-3.18-.68-6.51-1.05-9.74-.93-2.52,.1-4.54,1.69-5.69,4.2-1.21,2.62-.5,5.64,2.11,6.56,8.51,3,17.14,5.62,26.32,5.05,1.61-.1,3.16-1.16,5.05-1.89Zm42.86,258.38c1.18,2.13,2.72,1.65,4.56,.69,6.96-3.64,11.34-9.51,13.93-16.67,1.85-5.12-2.05-9.3-6.9-8.41-2.65,.49-4.06,2.33-4.9,4.91-2.11,6.51-4.44,12.96-6.69,19.47Zm-27.28-273c.19-1.29,.48-1.94,.32-2.45-1.66-5.38-9.66-9.52-14.99-7.82-2.19,.7-3.52,2.42-3.32,4.37,.24,2.48,2.07,2.78,3.99,2.72,4.68-.14,9.22,.38,14,3.19Zm41.47,274.55c5.14-3.24,11.78-10.09,13.68-13.9,.5-1.01,.85-2.14,1.02-3.25,.24-1.61-.3-3.22-1.97-3.5-1.1-.18-2.51,.46-3.51,1.13-.73,.49-1.08,1.62-1.52,2.5-2.05,4.12-4.11,8.24-6.08,12.39-.59,1.23-.92,2.58-1.62,4.63Zm-244.67-71.9c-5.85,3.13-8.54,13.57-5.11,18.27,.2,.27,.42,.51,.67,.74,1.93,1.76,4.47,1.15,4.91-1.42,.3-1.73-.17-3.58-.29-5.38-.22-3.11-.47-6.23-.62-9.35-.04-.84,.25-1.7,.44-2.87Zm264.13,5.26c.91-.62,1.32-.74,1.42-.99,1.87-4.45-1.44-13.09-5.7-14.95-1.98-.86-4.27-.26-5.18,1.53-.92,1.8-.8,3.73,1,4.83,3.72,2.27,6.56,5.28,8.46,9.57Z"/>
          <path class="cls-2" d="M1550.27,399.46c-1.23-8.57,.5-16.46,2.03-24.38,1.33-6.89,2.75-13.79,3.57-20.75,1-8.49,1.37-17.04,2.11-25.56,.24-2.77,.52-5.57,1.21-8.25,1.22-4.76,5.46-6.91,8.86-4.57,1.13,.78,2.24,2.15,2.56,3.45,.71,2.84,1.17,5.81,1.25,8.74,.18,6.65-.02,13.31,.08,19.97,.11,7.8-1.51,15.34-3.57,22.76-1.84,6.61-4.13,13.11-6.49,19.55-.89,2.42-2.31,4.75-3.91,6.78-1.85,2.35-4.46,3.28-7.7,2.28Z"/>
          <path class="cls-2" d="M1561.3,154.55c-.89,7.81-1.6,14.51-2.45,21.19-.14,1.09-1.09,2.06-1.39,3.15-1.11,4.05-5.42,3.96-7.38,.25-2.95-5.57-4.48-11.59-5.13-17.85-.22-2.11-.66-4.2-.87-6.31-.39-3.87,.03-7.59,2.83-10.59,4.07-4.34,9.58-3.68,12.05,1.71,1.33,2.91,1.76,6.24,2.35,8.44Z"/>
          <path class="cls-19" d="M1574.72,384c-1.11-1-1.56-1.21-1.56-1.42,.1-17.36-.7-34.71-.37-52.07,.12-6.31,.18-12.62,.3-18.94,.04-2.17,.11-4.37,2.57-5.5,2.88,.37,3.69,2.72,4.14,4.93,.69,3.39,1.34,6.89,1.28,10.33-.22,12.78-.58,25.55-1.2,38.32-.28,5.6-1.12,11.2-2.11,16.73-.44,2.49-1.87,4.8-3.03,7.62Z"/>
          <path class="cls-9" d="M1571.63,257.68c-.39-2.35-.73-4.7-1.17-7.04-2.27-12.21-4.38-24.45-4.69-36.91-.04-1.49-.29-3.18,.3-4.42,.63-1.32,2-2.79,3.31-3.12,1.02-.25,2.77,.89,3.61,1.9,.89,1.07,1.37,2.68,1.56,4.11,1.74,13.52,2.66,27.06,.38,40.61-.28,1.69-1.2,3.27-1.83,4.89-.49-.01-.99-.02-1.48-.03Z"/>
          <path class="cls-2" d="M1556.8,218.01c3.66,.64,5.52,3.25,5.87,6.47,.82,7.47,2.57,14.95,.41,22.52-.44,1.54-.02,3.31-.16,4.96-.1,1.22-.48,2.41-.78,3.8-3.28-1.46-4.15-4.21-4.9-6.56-2.04-6.35-3.57-12.86-5.27-19.32-.16-.63,.02-1.34-.11-1.98-1.17-5.86-.52-7.17,4.93-9.9Z"/>
          <path class="cls-18" d="M1565.55,170.12c-1.53-7.76-3.03-15.03-4.37-22.33-.32-1.77-.33-3.67-.09-5.45,.33-2.42,2.14-3.75,4.39-4.2,2.38-.48,4.26,.64,5.37,2.72,.6,1.14,1,2.49,1.09,3.78,.51,7.19-.49,14.25-2.51,21.14-.49,1.66-.77,4-3.88,4.35Z"/>
          <path class="cls-26" d="M2300.9,313.25c-3.67-5.78-7.03-11.2-10.52-16.53-1.61-2.47-3.39-4.83-5.22-7.15-3.35-4.25-1.31-10.49,3.91-11.74,4.53-1.08,8.71,.5,11.53,4.28,3.31,4.43,5.35,9.51,6.14,14.84,.51,3.47-.34,7.16-.7,10.74-.28,2.8-2.32,4.14-5.14,5.55Z"/>
          <path class="cls-26" d="M2050.95,288.82c-.26-4.58,.02-9.81,2.87-14.54,.59-.97,1.18-2.05,2.05-2.72,2.21-1.73,4.78-.68,5.04,2.1,.45,4.74,.7,9.51,1.04,14.26,.33,4.59,.69,9.18,.98,13.77,.07,1.15,.19,2.43-.22,3.43-.66,1.59-1.05,3.64-3.46,3.72-2.23,.07-4.18-.31-5.49-2.45-2.06-3.34-2.31-7.13-2.77-10.84-.24-1.96-.04-3.98-.04-6.73Z"/>
          <path class="cls-26" d="M2235.29,96.88c-1.88,.73-3.44,1.79-5.05,1.89-9.18,.57-17.81-2.05-26.32-5.05-2.61-.92-3.31-3.94-2.11-6.56,1.15-2.5,3.17-4.1,5.69-4.2,3.24-.12,6.57,.25,9.74,.93,3.01,.64,5.96,1.79,8.8,3.02,3.99,1.71,6.69,4.66,9.24,9.97Z"/>
          <path class="cls-26" d="M2310.11,144.86c1.25-1.65,2.17-3.83,3.82-4.84,3.61-2.2,8.49-.21,9.91,3.98,.82,2.42,1.1,5.14,1.05,7.71-.11,5.09-1.16,10.03-3.7,14.55-.4,.71-.67,1.68-1.29,2.04-1.64,.95-3.41,2.11-5.18,2.2-.72,.04-1.91-2.39-2.28-3.85-.72-2.82-.99-5.76-1.49-8.64-.3-1.76-.68-3.5-1.03-5.26,.07-2.63,.13-5.26,.2-7.89Z"/>
          <path class="cls-26" d="M2092.62,135.7c1.54-.88,3.19-1.6,4.58-2.66,4.07-3.11,8.13-4.66,13.99-5.05,1.22,1.4,1.59,2.64,.98,4.77-1.34,4.64-4.92,7.68-7.27,11.57-1.01,1.67-2.35,3.15-3.63,4.63-1.75,2.02-3.68,3.75-6.59,3.9-4,.21-6.56-2.01-6.72-6.01-.04-.99,0-1.99,0-2.98,1.56-2.72,3.11-5.44,4.67-8.16Z"/>
          <path class="cls-4" d="M2092.62,135.7c-1.56,2.72-3.11,5.44-4.67,8.16-1.11,1.82-2.13,3.71-3.35,5.45-1.6,2.26-3.67,3.03-5.55,2.17-2.21-1.02-3.21-2.9-3.04-5.25,.09-1.29,.44-2.65,1.01-3.82,3.89-8.1,9.36-14.92,16.85-19.97,2.29-1.54,4.74-3,8.24-2.36-3.29,5.42-6.39,10.51-9.49,15.61Z"/>
          <path class="cls-26" d="M2278.14,355.26c2.25-6.52,4.58-12.96,6.69-19.47,.84-2.58,2.25-4.42,4.9-4.91,4.85-.89,8.75,3.28,6.9,8.41-2.59,7.16-6.96,13.03-13.93,16.67-1.84,.96-3.38,1.43-4.56-.69Z"/>
          <path class="cls-40" d="M2304.17,137.97c-1.38-1.18-2.77-2.35-4.13-3.54-2.73-2.4-5.4-4.86-8.18-7.2-4.57-3.85-3.78-9.6,1.78-11.6,1.19-.43,2.73,.13,4.11,.24,3.74,4.97,7.48,9.93,11.23,14.9-.01,1.28-.08,2.56-.02,3.83,.08,1.65-.59,2.76-2.14,3.32-.88,.02-1.76,.03-2.64,.05Z"/>
          <path class="cls-13" d="M2308.98,130.76c-3.74-4.97-7.48-9.93-11.23-14.9-.64-2.11-1.29-4.66,1.14-5.62,1.74-.69,4.38-.53,6.08,.33,5.2,2.63,10.02,13.51,8.91,19.32-.2,1.05-.94,1.99-1.59,3.32-1.29-.96-2.3-1.71-3.3-2.45Z"/>
          <path class="cls-18" d="M2250.87,82.26c-4.78-2.81-9.32-3.32-14-3.19-1.91,.06-3.74-.24-3.99-2.72-.19-1.94,1.13-3.67,3.32-4.37,5.33-1.7,13.33,2.44,14.99,7.82,.16,.51-.14,1.16-.32,2.45Z"/>
          <path class="cls-31" d="M2292.34,356.81c.71-2.05,1.04-3.4,1.62-4.63,1.98-4.16,4.03-8.27,6.08-12.39,.44-.88,.78-2,1.52-2.5,1-.67,2.41-1.31,3.51-1.13,1.67,.27,2.21,1.89,1.97,3.5-.17,1.11-.52,2.25-1.02,3.25-1.9,3.81-8.54,10.66-13.68,13.9Z"/>
          <path class="cls-30" d="M2047.67,284.92c-.19,1.17-.48,2.02-.44,2.87,.15,3.12,.4,6.23,.62,9.35,.12,1.8,.59,3.65,.29,5.38-.44,2.57-2.98,3.18-4.91,1.42-.24-.22-.47-.47-.67-.74-3.43-4.7-.73-15.14,5.11-18.27Z"/>
          <path class="cls-11" d="M2311.79,290.18c-1.89-4.3-4.74-7.3-8.46-9.57-1.8-1.1-1.92-3.02-1-4.83,.91-1.79,3.2-2.4,5.18-1.53,4.26,1.86,7.57,10.49,5.7,14.95-.1,.25-.51,.37-1.42,.99Z"/>
          <path class="cls-31" d="M2304.17,137.97c.88-.02,1.76-.03,2.64-.05,2.29,1.75,2.57,4.45,3.29,6.94-.07,2.63-.13,5.26-.2,7.89-.49,0-1.2,.21-1.44-.04-3-2.98-5.03-6.58-5.69-10.74-.2-1.23,.89-2.67,1.39-4.01Z"/>
        </g>
        <g>
          <path class="cls-19" d="M195.84,53.78c4.71,0,9.43,0,14.14,.01,14.61,.95,28.39,4.88,41.79,10.75,10.69,4.68,19.28,11.83,26.53,20.67,10.43,12.73,16.26,27.37,16.96,43.92,.24,5.65,.9,11.32,.61,16.94-.54,10.17-5.21,18.85-11.38,26.65-4.74,5.99-14.5,7.81-21.43,4.47-5.4-2.59-9.61-6.56-12.74-11.63-1.75-2.82-3.65-5.64-4.82-8.71-3.04-7.97-9.46-12.81-16.11-17.04-6.43-4.09-14-5.16-21.66-4.38-5.47,.55-10.98,.97-16.37,1.98-7.69,1.45-14.89,.23-21.91-2.85-6.76-2.96-13.66-4.93-21.2-4.96-18.87-.08-36.77,9.25-43.48,28.71-4.68,13.57-5.88,27.17-2.97,41.2,1.25,6.04,4.33,10.98,8.66,15.38,11.69,.1,23.1-1.43,33.92-6.5,11.73-5.5,23.72-10.47,35.39-16.08,9.36-4.5,19.03-4.3,28.84-3.06,19.43,2.46,37.1,10.18,52.74,21.32,23.54,16.78,36.53,39.48,34.21,69.59-.8,10.41,.07,20.94,.2,31.42,.16,12.32,.53,24.65,.46,36.97-.06,9.48-.52,18.97-1.08,28.44-.4,6.71-3.39,12.42-7.83,17.43-4.47,5.05-9.61,9.25-15.67,12.19-10.3,5-20.67,9.84-31.03,14.73-8.54,4.03-17.43,6.44-26.99,6.01-8.85-.4-17.58,.77-26.37,1.8-20.61,2.42-41.12,2.21-61.51-2.84-5.82-1.44-12.37-1.41-18.33-.46-15.47,2.49-30.11,.32-44.5-5.42-8.79-3.51-17.67-6.81-26.64-9.82-17.93-6.02-28.58-18.67-34.01-36.32-3.51-11.41-2.8-22.73,1.06-33.84,3.58-10.32,11.11-17.2,20.65-22.02,11.78-5.96,24.19-8.21,37.31-5.99,5.08,.86,10.25,1.32,15.24,2.56,11.56,2.88,19.53,10.26,24.79,20.78,1.71,3.42,3.49,6.8,5.27,10.18,5.54,10.46,15.09,13.94,26.06,14.64,4.81,.31,9.66,.07,14.5,.04,7.66-.04,14.81,1.83,21.46,5.62,3.18,1.81,6.33,3.67,9.55,5.41,5.17,2.78,10.62,3.57,16.42,2.39,10.15-2.07,19.57-5.32,26.14-14.08,3.66-4.88,6.28-10.09,7.16-16.23,.82-5.76,2.56-11.18,5.54-16.39,3.27-5.73,6.36-11.92,7.69-18.3,1.87-8.92-.35-17.67-6.5-24.73-2.98-3.41-7.56-4-11.98-4.06-5.33-.07-10.66-.03-15.99-.07-6.18-.05-11.53-2.14-15.26-7.16-3.67-4.94-8.53-6.45-14.38-6.43-17.41,.04-34.51,2.06-51.27,6.97-21.47,6.28-42.74,5.43-63.59-2.73-10.16-3.98-19.37-9.71-27.07-17.47-9.73-9.81-13.14-22.49-15.12-35.65-3.45-22.87-.12-45.12,6.44-67.04,2.95-9.86,5.9-19.71,8.8-29.58,.37-1.26,.76-2.64,.63-3.91-1.66-15.66,5-27.71,16.25-37.81,14.72-13.22,31.66-19.18,51.46-15.78,5.91,1.01,11.81,2.04,17.7,3.17,9.88,1.89,19.66,.24,29.27-1.49,9.45-1.7,18.68-4.6,28-6.99,5.79-1.48,11.57-3,17.35-4.49ZM26.47,201.81c.54,5.96,.82,11.96,1.67,17.87,1.74,12.13,5.71,23.24,15.54,31.45,15.3,12.75,33.07,18.74,52.78,19.61,9.47,.42,18.4-2.09,27.44-4.38,10.29-2.6,20.69-4.9,31.16-6.63,7.19-1.19,14.57-1.27,21.87-1.68,8.36-.48,15.88,1.29,21.34,8.38,1.81,2.36,4.36,3.52,7.38,3.62,6.65,.2,13.31,.32,19.95,.72,7.11,.43,13.79,2.88,17.68,8.89,8.07,12.48,10.94,25.73,4.28,40.16-4.22,9.15-7.82,18.57-8.82,28.9-.68,7.05-4.11,13.31-9.47,18.27-9.08,8.41-19.87,13.25-32.03,14.96-4.07,.57-8.27,.69-12.38,.45-6.56-.38-11.89-4.09-17.25-7.41-7.47-4.62-15.45-6.82-24.23-6.29-3.65,.22-7.34,.29-10.99,.08-14.29-.82-26.22-5.86-33.42-19.14-1.66-3.07-3.29-6.18-5.19-9.1-1.99-3.05-4.08-6.09-6.49-8.8-5.3-5.94-12.63-7.66-20.05-9.18-13.97-2.86-27.47-1.95-40.32,4.71-7.01,3.63-12.79,8.52-15.8,16-9.79,24.3,3.87,49.62,23.76,57.52,13.75,5.46,27.73,10.31,41.63,15.38,8.33,3.04,16.82,3.21,25.58,2.04,8.55-1.15,17.24-2.22,25.79,.18,8.56,2.41,17.25,3.5,26.13,3.35,8.49-.14,17.03,.29,25.48-.37,12.41-.96,24.7-3.88,37.25-1.72,.8,.14,1.66,0,2.49-.11,7.15-.92,13.99-2.93,20.48-6.04,9.59-4.59,19.21-9.14,28.65-14.04,8.63-4.48,16.19-10.28,18.32-20.51,1.11-5.35,1.75-10.86,1.96-16.32,.37-9.65,.38-19.33,.29-28.99-.06-6.31-.64-12.62-.88-18.94-.33-8.64-.62-17.28-.82-25.93-.19-8.13,.58-16.37-.52-24.36-2.63-19.19-12.78-34.34-28.55-45.05-10.54-7.16-21.94-13.25-34.31-17.08-16.14-4.99-31.82-7.04-47.78,1.88-11.41,6.38-23.89,10.87-35.97,16.03-7.28,3.12-14.93,4.81-22.89,3.79-2.88-.37-6.24-.93-8.36-2.65-5.83-4.73-10.83-10.33-12.9-17.89-3.77-13.69-2.89-27.35,.61-40.91,2.3-8.91,5.58-17.44,11.73-24.52,13.08-15.06,30.3-18.45,48.98-16.52,5.67,.58,11.1,3.3,16.68,4.85,3.49,.97,7.11,2.35,10.61,2.2,6.95-.3,13.86-1.63,20.8-2.37,17.24-1.84,32.04,2.03,41.44,18.12,2.6,4.45,5.12,8.95,7.49,13.52,2.51,4.83,5.83,8.91,10.36,11.93,4.2,2.79,9.76,2.3,13.13-1.49,4.59-5.15,8.02-11,9.29-17.93,1.6-8.69-.22-17.18-1.05-25.79-1.48-15.39-8.89-27.67-18.8-38.82-4.81-5.41-10.54-9.6-17.07-12.81-12.23-6.02-25.15-9.33-38.63-11.09-9.18-1.2-17.88-.16-26.5,2.89-3.91,1.38-7.92,2.5-11.88,3.74-14.23,4.48-28.79,7.29-43.71,6.56-8.59-.42-17.18-1.96-25.63-3.67-8.36-1.69-16.65-1.44-24.78,.23-12.02,2.47-21.62,9.43-29.22,18.84-6.94,8.59-10.42,18.4-8.15,29.7,.35,1.73,.15,3.68-.25,5.43-1.58,6.79-3.24,13.57-5.07,20.29-5,18.34-9.28,36.78-9.85,55.97Z"/>
          <path class="cls-6" d="M26.47,201.81c.57-19.18,4.84-37.63,9.85-55.97,1.84-6.72,3.49-13.5,5.07-20.29,.41-1.74,.6-3.7,.25-5.43-2.27-11.3,1.21-21.11,8.15-29.7,7.61-9.41,17.2-16.37,29.22-18.84,8.13-1.67,16.42-1.93,24.78-.23,8.45,1.71,17.04,3.25,25.63,3.67,14.92,.73,29.48-2.08,43.71-6.56,3.96-1.25,7.97-2.36,11.88-3.74,8.62-3.04,17.31-4.09,26.5-2.89,13.49,1.76,26.4,5.07,38.63,11.09,6.53,3.21,12.26,7.4,17.07,12.81,9.91,11.15,17.32,23.43,18.8,38.82,.83,8.61,2.64,17.1,1.05,25.79-1.27,6.93-4.7,12.78-9.29,17.93-3.37,3.79-8.93,4.28-13.13,1.49-4.53-3.01-7.85-7.1-10.36-11.93-2.37-4.57-4.89-9.07-7.49-13.52-9.4-16.09-24.2-19.96-41.44-18.12-6.94,.74-13.85,2.07-20.8,2.37-3.5,.15-7.12-1.23-10.61-2.2-5.59-1.55-11.02-4.26-16.68-4.85-18.69-1.93-35.91,1.47-48.98,16.52-6.15,7.08-9.43,15.61-11.73,24.52-3.5,13.56-4.38,27.21-.61,40.91,2.08,7.56,7.08,13.16,12.9,17.89,2.12,1.72,5.48,2.28,8.36,2.65,7.95,1.02,15.6-.68,22.89-3.79,12.07-5.17,24.55-9.65,35.97-16.03,15.96-8.92,31.64-6.88,47.78-1.88,12.37,3.83,23.76,9.92,34.31,17.08,15.78,10.71,25.92,25.87,28.55,45.05,1.1,7.99,.33,16.24,.52,24.36,.2,8.64,.49,17.29,.82,25.93,.24,6.31,.82,12.62,.88,18.94,.1,9.66,.08,19.34-.29,28.99-.21,5.46-.84,10.97-1.96,16.32-2.13,10.23-9.69,16.03-18.32,20.51-9.44,4.9-19.05,9.45-28.65,14.04-6.49,3.1-13.33,5.12-20.48,6.04-.82,.11-1.69,.25-2.49,.11-12.55-2.16-24.84,.76-37.25,1.72-8.45,.65-16.98,.23-25.48,.37-8.88,.15-17.57-.94-26.13-3.35-8.55-2.41-17.24-1.33-25.79-.18-8.75,1.17-17.25,1-25.58-2.04-13.9-5.07-27.89-9.92-41.63-15.38-19.89-7.9-33.55-33.22-23.76-57.52,3.01-7.48,8.8-12.37,15.8-16,12.85-6.66,26.35-7.58,40.32-4.71,7.41,1.52,14.75,3.23,20.05,9.18,2.42,2.71,4.51,5.75,6.49,8.8,1.9,2.92,3.53,6.03,5.19,9.1,7.19,13.28,19.13,18.32,33.42,19.14,3.65,.21,7.34,.14,10.99-.08,8.78-.53,16.76,1.66,24.23,6.29,5.36,3.32,10.69,7.03,17.25,7.41,4.11,.24,8.31,.12,12.38-.45,12.16-1.71,22.95-6.55,32.03-14.96,5.36-4.96,8.78-11.22,9.47-18.27,1-10.33,4.6-19.75,8.82-28.9,6.66-14.43,3.79-27.68-4.28-40.16-3.89-6.01-10.56-8.46-17.68-8.89-6.64-.4-13.3-.51-19.95-.72-3.02-.09-5.57-1.26-7.38-3.62-5.46-7.09-12.98-8.86-21.34-8.38-7.3,.42-14.69,.5-21.87,1.68-10.47,1.73-20.87,4.03-31.16,6.63-9.05,2.28-17.98,4.79-27.44,4.38-19.71-.87-37.48-6.86-52.78-19.61-9.84-8.2-13.8-19.32-15.54-31.45-.85-5.92-1.13-11.91-1.67-17.87Zm56.87,154.17c-1.75-3.48-2.97-7.18-5.2-10.09-4.17-5.42-9.41-9.85-15.51-13.04-4.61-2.41-9.39-3.17-14.19-.22-4.57,2.81-4.94,8.44-.5,11.28,4.04,2.59,8.25,4.92,12.48,7.2,4.07,2.19,8.12,4.53,12.43,6.11,3.03,1.11,6.6,2.56,10.49-1.23Zm182.57-6.81c.11-7.59-3.32-12-8.43-12.29-5.06-.28-9.13,3.5-9.52,9.35-.53,7.93-.76,15.87-1.07,23.81-.11,2.68-.3,5.7,2.97,6.64,2.89,.83,4.99-1.17,6.89-3.11,.35-.35,.65-.75,.95-1.15,5.41-7.33,6.18-16.21,8.23-23.25Zm-6.32-83.96c.14-1.57,.34-2.54,.3-3.5-.29-8.73-12.49-20.98-18.77-23.55-2.85-1.16-6.75,.26-7.98,2.43-1.38,2.43-.91,5.88,1.2,8.2,.66,.73,1.45,1.36,2.23,1.97,2.59,2.04,5.13,4.15,7.83,6.03,4.56,3.17,8.97,6.67,15.18,8.41Zm-195.52-40.87c2.16-9.45,2.18-17.88,1.67-26.28-.22-3.57-3.05-5.33-6.7-5.21-3.11,.11-5.4,1.37-5.92,4.95-1.19,8.12-.98,16.23,5,22.81,1.33,1.47,3.47,2.21,5.96,3.72ZM254.92,93.07c-.03-.27-.03-.78-.16-1.25-1.52-5.78-14.41-14.52-20.42-13.77-3.44,.43-6.9,3.96-4.13,7.37,4.84,5.95,10.4,11.13,18.12,13.17,3.47,.92,6.7-1.75,6.59-5.51ZM30.46,386.41c-1.81-4.21-3.43-7.25-4.43-10.49-2-6.49-3.59-13.1-5.49-19.62-.97-3.31-2.84-4.71-5.19-4.34-2.25,.35-3.82,2.49-4.05,5.59-.05,.65,.02,1.33,.12,1.98,1.64,10.72,6.98,19.21,15.58,25.7,.6,.45,1.48,.52,3.46,1.17Zm19.15-152.71c-1.48-4.83-2.99-9.5-4.31-14.24-.67-2.39-.91-4.9-1.47-7.33-.77-3.34-2.85-5.28-5.25-5.08-2.6,.22-4.9,2.99-4.5,6.24,.88,7.29,3.47,13.87,9.33,18.72,1.79,1.48,3.77,2.73,6.21,1.68Zm217.07,22.92c-.32-2.76-.39-4.66-.79-6.5-1.27-5.93-4.72-10.49-9.34-14.22-1.86-1.5-4-1.73-5.9-.09-1.64,1.41-1.32,4.16,.56,6.2,.56,.61,1.28,1.06,1.85,1.66,3.53,3.71,7.02,7.46,10.58,11.14,.57,.59,1.45,.89,3.03,1.81ZM62.6,93.33c-3.52-.3-4.27-.26-5.94,1.36-3.51,3.41-5.26,7.58-4.98,12.53,.15,2.59,1.61,4.07,4.03,4.25,2.5,.18,3.2-1.58,3.62-3.81,.9-4.69,2.1-9.33,3.26-14.33Zm52.16-3.45c-5.19-2.76-8.17-3.82-11.06-2.88-1.46,.48-3.12,1.99-3.59,3.39-.38,1.16,.44,3.39,1.47,4.22,3.86,3.11,11.52,.21,13.18-4.74Zm-35.58,5.8c-5.27,.73-8.8,2.45-11.35,5.95-1.13,1.55-1.03,3.36,.59,4.38,.86,.54,2.96,.6,3.44,.02,2.44-3.01,4.52-6.3,7.33-10.35Zm190.53,46.93c2.66-3.35,2.47-6.3,2.19-9.21-.19-1.96-1.07-3.81-3.38-3.31-2.18,.47-2.6,2.27-1.83,4.32,.92,2.44,1.81,4.89,3.02,8.2Z"/>
          <path class="cls-1" d="M83.34,355.97c-3.89,3.79-7.46,2.34-10.49,1.23-4.31-1.58-8.36-3.92-12.43-6.11-4.23-2.28-8.44-4.61-12.48-7.2-4.44-2.84-4.07-8.47,.5-11.28,4.8-2.95,9.58-2.19,14.19,.22,6.1,3.19,11.35,7.62,15.51,13.04,2.24,2.91,3.46,6.61,5.2,10.09Z"/>
          <path class="cls-1" d="M265.91,349.16c-2.05,7.04-2.81,15.92-8.23,23.25-.3,.4-.6,.8-.95,1.15-1.9,1.94-3.99,3.94-6.89,3.11-3.26-.93-3.07-3.96-2.97-6.64,.31-7.94,.55-15.89,1.07-23.81,.39-5.85,4.46-9.64,9.52-9.35,5.11,.29,8.54,4.7,8.43,12.29Z"/>
          <path class="cls-1" d="M259.59,265.2c-6.22-1.74-10.62-5.24-15.18-8.41-2.7-1.88-5.24-4-7.83-6.03-.78-.61-1.56-1.24-2.23-1.97-2.11-2.32-2.58-5.77-1.2-8.2,1.23-2.16,5.13-3.59,7.98-2.43,6.29,2.56,18.48,14.81,18.77,23.55,.03,.96-.16,1.92-.3,3.5Z"/>
          <path class="cls-1" d="M64.07,224.33c-2.49-1.51-4.62-2.26-5.96-3.72-5.98-6.58-6.18-14.69-5-22.81,.52-3.58,2.81-4.84,5.92-4.95,3.65-.13,6.48,1.64,6.7,5.21,.52,8.4,.5,16.83-1.67,26.28Z"/>
          <path class="cls-1" d="M254.92,93.07c.1,3.76-3.12,6.43-6.59,5.51-7.72-2.04-13.28-7.22-18.12-13.17-2.77-3.41,.69-6.94,4.13-7.37,6.02-.75,18.9,7.99,20.42,13.77,.12,.47,.13,.98,.16,1.25Z"/>
          <path class="cls-28" d="M30.46,386.41c-1.98-.65-2.86-.72-3.46-1.17-8.6-6.49-13.94-14.99-15.58-25.7-.1-.65-.16-1.32-.12-1.98,.23-3.1,1.79-5.24,4.05-5.59,2.35-.37,4.22,1.02,5.19,4.34,1.9,6.52,3.49,13.13,5.49,19.62,1,3.23,2.62,6.28,4.43,10.49Z"/>
          <path class="cls-3" d="M49.61,233.7c-2.44,1.05-4.42-.2-6.21-1.68-5.86-4.85-8.44-11.43-9.33-18.72-.39-3.24,1.9-6.02,4.5-6.24,2.4-.2,4.48,1.74,5.25,5.08,.56,2.43,.8,4.94,1.47,7.33,1.32,4.73,2.84,9.41,4.31,14.24Z"/>
          <path class="cls-3" d="M266.68,256.62c-1.57-.92-2.45-1.22-3.03-1.81-3.56-3.68-7.05-7.43-10.58-11.14-.57-.6-1.29-1.05-1.85-1.66-1.88-2.04-2.2-4.78-.56-6.2,1.9-1.64,4.04-1.41,5.9,.09,4.62,3.73,8.07,8.3,9.34,14.22,.39,1.84,.46,3.74,.79,6.5Z"/>
          <path class="cls-7" d="M62.6,93.33c-1.16,5-2.36,9.64-3.26,14.33-.43,2.23-1.13,3.99-3.62,3.81-2.42-.18-3.88-1.66-4.03-4.25-.28-4.96,1.47-9.13,4.98-12.53,1.66-1.62,2.42-1.66,5.94-1.36Z"/>
          <path class="cls-8" d="M114.77,89.88c-1.66,4.95-9.32,7.84-13.18,4.74-1.03-.83-1.85-3.06-1.47-4.22,.46-1.41,2.12-2.92,3.59-3.39,2.89-.94,5.87,.12,11.06,2.88Z"/>
          <path class="cls-17" d="M79.18,95.68c-2.8,4.05-4.89,7.34-7.33,10.35-.47,.59-2.57,.53-3.44-.02-1.62-1.01-1.72-2.83-.59-4.38,2.55-3.5,6.08-5.22,11.35-5.95Z"/>
          <path class="cls-5" d="M269.72,142.61c-1.22-3.3-2.1-5.76-3.02-8.2-.77-2.05-.35-3.85,1.83-4.32,2.31-.5,3.19,1.35,3.38,3.31,.28,2.91,.47,5.86-2.19,9.21Z"/>
        </g>
        <g>
          <path class="cls-19" d="M2576.23,52.72c4.71,0,9.43,0,14.14,.01,14.61,.95,28.39,4.88,41.79,10.75,10.69,4.68,19.28,11.83,26.53,20.67,10.43,12.73,16.26,27.37,16.96,43.92,.24,5.65,.9,11.32,.61,16.94-.54,10.17-5.21,18.85-11.38,26.65-4.74,5.99-14.5,7.81-21.43,4.47-5.4-2.59-9.61-6.56-12.74-11.63-1.75-2.82-3.65-5.64-4.82-8.71-3.04-7.97-9.46-12.81-16.11-17.04-6.43-4.09-14-5.16-21.66-4.38-5.47,.55-10.98,.97-16.37,1.98-7.69,1.45-14.89,.23-21.91-2.85-6.76-2.96-13.66-4.93-21.2-4.96-18.87-.08-36.77,9.25-43.48,28.71-4.68,13.57-5.88,27.17-2.97,41.2,1.25,6.04,4.33,10.98,8.66,15.38,11.69,.1,23.1-1.43,33.92-6.5,11.73-5.5,23.72-10.47,35.39-16.08,9.36-4.5,19.03-4.3,28.84-3.06,19.43,2.46,37.1,10.18,52.74,21.32,23.54,16.78,36.53,39.48,34.21,69.59-.8,10.41,.07,20.94,.2,31.42,.16,12.32,.53,24.65,.46,36.97-.06,9.48-.52,18.97-1.08,28.44-.4,6.71-3.39,12.42-7.83,17.43-4.47,5.05-9.61,9.25-15.67,12.19-10.3,5-20.67,9.84-31.03,14.73-8.54,4.03-17.43,6.44-26.99,6.01-8.85-.4-17.58,.77-26.37,1.8-20.61,2.42-41.12,2.21-61.51-2.84-5.82-1.44-12.37-1.41-18.33-.46-15.47,2.49-30.11,.32-44.5-5.42-8.79-3.51-17.67-6.81-26.64-9.82-17.93-6.02-28.58-18.67-34.01-36.32-3.51-11.41-2.8-22.73,1.06-33.84,3.58-10.32,11.11-17.2,20.65-22.02,11.78-5.96,24.19-8.21,37.31-5.99,5.08,.86,10.25,1.32,15.24,2.56,11.56,2.88,19.53,10.26,24.79,20.78,1.71,3.42,3.49,6.8,5.27,10.18,5.54,10.46,15.09,13.94,26.06,14.64,4.81,.31,9.66,.07,14.5,.04,7.66-.04,14.81,1.83,21.46,5.62,3.18,1.81,6.33,3.67,9.55,5.41,5.17,2.78,10.62,3.57,16.42,2.39,10.15-2.07,19.57-5.32,26.14-14.08,3.66-4.88,6.28-10.09,7.16-16.23,.82-5.76,2.56-11.18,5.54-16.39,3.27-5.73,6.36-11.92,7.69-18.3,1.87-8.92-.35-17.67-6.5-24.73-2.98-3.41-7.56-4-11.98-4.06-5.33-.07-10.66-.03-15.99-.07-6.18-.05-11.53-2.14-15.26-7.16-3.67-4.94-8.53-6.45-14.38-6.43-17.41,.04-34.51,2.06-51.27,6.97-21.47,6.28-42.74,5.43-63.59-2.73-10.16-3.98-19.37-9.71-27.07-17.47-9.73-9.81-13.14-22.49-15.12-35.65-3.45-22.87-.12-45.12,6.44-67.04,2.95-9.86,5.9-19.71,8.8-29.58,.37-1.26,.76-2.64,.63-3.91-1.66-15.66,5-27.71,16.25-37.81,14.72-13.22,31.66-19.18,51.46-15.78,5.91,1.01,11.81,2.04,17.7,3.17,9.88,1.89,19.66,.24,29.27-1.49,9.45-1.7,18.68-4.6,28-6.99,5.79-1.48,11.57-3,17.35-4.49Zm-169.38,148.03c.54,5.96,.82,11.96,1.67,17.87,1.74,12.13,5.71,23.24,15.54,31.45,15.3,12.75,33.07,18.74,52.78,19.61,9.47,.42,18.4-2.09,27.44-4.38,10.29-2.6,20.69-4.9,31.16-6.63,7.19-1.19,14.57-1.27,21.87-1.68,8.36-.48,15.88,1.29,21.34,8.38,1.81,2.36,4.36,3.52,7.38,3.62,6.65,.2,13.31,.32,19.95,.72,7.11,.43,13.79,2.88,17.68,8.89,8.07,12.48,10.94,25.73,4.28,40.16-4.22,9.15-7.82,18.57-8.82,28.9-.68,7.05-4.11,13.31-9.47,18.27-9.08,8.41-19.87,13.25-32.03,14.96-4.07,.57-8.27,.69-12.38,.45-6.56-.38-11.89-4.09-17.25-7.41-7.47-4.62-15.45-6.82-24.23-6.29-3.65,.22-7.34,.29-10.99,.08-14.29-.82-26.22-5.86-33.42-19.14-1.66-3.07-3.29-6.18-5.19-9.1-1.99-3.05-4.08-6.09-6.49-8.8-5.3-5.94-12.63-7.66-20.05-9.18-13.97-2.86-27.47-1.95-40.32,4.71-7.01,3.63-12.79,8.52-15.8,16-9.79,24.3,3.87,49.62,23.76,57.52,13.75,5.46,27.73,10.31,41.63,15.38,8.33,3.04,16.82,3.21,25.58,2.04,8.55-1.15,17.24-2.22,25.79,.18,8.56,2.41,17.25,3.5,26.13,3.35,8.49-.14,17.03,.29,25.48-.37,12.41-.96,24.7-3.88,37.25-1.72,.8,.14,1.66,0,2.49-.11,7.15-.92,13.99-2.93,20.48-6.04,9.59-4.59,19.21-9.14,28.65-14.04,8.63-4.48,16.19-10.28,18.32-20.51,1.11-5.35,1.75-10.86,1.96-16.32,.37-9.65,.38-19.33,.29-28.99-.06-6.31-.64-12.62-.88-18.94-.33-8.64-.62-17.28-.82-25.93-.19-8.13,.58-16.37-.52-24.36-2.63-19.19-12.78-34.34-28.55-45.05-10.54-7.16-21.94-13.25-34.31-17.08-16.14-4.99-31.82-7.04-47.78,1.88-11.41,6.38-23.89,10.87-35.97,16.03-7.28,3.12-14.93,4.81-22.89,3.79-2.88-.37-6.24-.93-8.36-2.65-5.83-4.73-10.83-10.33-12.9-17.89-3.77-13.69-2.89-27.35,.61-40.91,2.3-8.91,5.58-17.44,11.73-24.52,13.08-15.06,30.3-18.45,48.98-16.52,5.67,.58,11.1,3.3,16.68,4.85,3.49,.97,7.11,2.35,10.61,2.2,6.95-.3,13.86-1.63,20.8-2.37,17.24-1.84,32.04,2.03,41.44,18.12,2.6,4.45,5.12,8.95,7.49,13.52,2.51,4.83,5.83,8.91,10.36,11.93,4.2,2.79,9.76,2.3,13.13-1.49,4.59-5.15,8.02-11,9.29-17.93,1.6-8.69-.22-17.18-1.05-25.79-1.48-15.39-8.89-27.67-18.8-38.82-4.81-5.41-10.54-9.6-17.07-12.81-12.23-6.02-25.15-9.33-38.63-11.09-9.18-1.2-17.88-.16-26.5,2.89-3.91,1.38-7.92,2.5-11.88,3.74-14.23,4.48-28.79,7.29-43.71,6.56-8.59-.42-17.18-1.96-25.63-3.67-8.36-1.69-16.65-1.44-24.78,.23-12.02,2.47-21.62,9.43-29.22,18.84-6.94,8.59-10.42,18.4-8.15,29.7,.35,1.73,.15,3.68-.25,5.43-1.58,6.79-3.24,13.57-5.07,20.29-5,18.34-9.28,36.78-9.85,55.97Z"/>
          <path class="cls-6" d="M2406.86,200.76c.57-19.18,4.84-37.63,9.85-55.97,1.84-6.72,3.49-13.5,5.07-20.29,.41-1.74,.6-3.7,.25-5.43-2.27-11.3,1.21-21.11,8.15-29.7,7.61-9.41,17.2-16.37,29.22-18.84,8.13-1.67,16.42-1.93,24.78-.23,8.45,1.71,17.04,3.25,25.63,3.67,14.92,.73,29.48-2.08,43.71-6.56,3.96-1.25,7.97-2.36,11.88-3.74,8.62-3.04,17.31-4.09,26.5-2.89,13.49,1.76,26.4,5.07,38.63,11.09,6.53,3.21,12.26,7.4,17.07,12.81,9.91,11.15,17.32,23.43,18.8,38.82,.83,8.61,2.64,17.1,1.05,25.79-1.27,6.93-4.7,12.78-9.29,17.93-3.37,3.79-8.93,4.28-13.13,1.49-4.53-3.01-7.85-7.1-10.36-11.93-2.37-4.57-4.89-9.07-7.49-13.52-9.4-16.09-24.2-19.96-41.44-18.12-6.94,.74-13.85,2.07-20.8,2.37-3.5,.15-7.12-1.23-10.61-2.2-5.59-1.55-11.02-4.26-16.68-4.85-18.69-1.93-35.91,1.47-48.98,16.52-6.15,7.08-9.43,15.61-11.73,24.52-3.5,13.56-4.38,27.21-.61,40.91,2.08,7.56,7.08,13.16,12.9,17.89,2.12,1.72,5.48,2.28,8.36,2.65,7.95,1.02,15.6-.68,22.89-3.79,12.07-5.17,24.55-9.65,35.97-16.03,15.96-8.92,31.64-6.88,47.78-1.88,12.37,3.83,23.76,9.92,34.31,17.08,15.78,10.71,25.92,25.87,28.55,45.05,1.1,7.99,.33,16.24,.52,24.36,.2,8.64,.49,17.29,.82,25.93,.24,6.31,.82,12.62,.88,18.94,.1,9.66,.08,19.34-.29,28.99-.21,5.46-.84,10.97-1.96,16.32-2.13,10.23-9.69,16.03-18.32,20.51-9.44,4.9-19.05,9.45-28.65,14.04-6.49,3.1-13.33,5.12-20.48,6.04-.82,.11-1.69,.25-2.49,.11-12.55-2.16-24.84,.76-37.25,1.72-8.45,.65-16.98,.23-25.48,.37-8.88,.15-17.57-.94-26.13-3.35-8.55-2.41-17.24-1.33-25.79-.18-8.75,1.17-17.25,1-25.58-2.04-13.9-5.07-27.89-9.92-41.63-15.38-19.89-7.9-33.55-33.22-23.76-57.52,3.01-7.48,8.8-12.37,15.8-16,12.85-6.66,26.35-7.58,40.32-4.71,7.41,1.52,14.75,3.23,20.05,9.18,2.42,2.71,4.51,5.75,6.49,8.8,1.9,2.92,3.53,6.03,5.19,9.1,7.19,13.28,19.13,18.32,33.42,19.14,3.65,.21,7.34,.14,10.99-.08,8.78-.53,16.76,1.66,24.23,6.29,5.36,3.32,10.69,7.03,17.25,7.41,4.11,.24,8.31,.12,12.38-.45,12.16-1.71,22.95-6.55,32.03-14.96,5.36-4.96,8.78-11.22,9.47-18.27,1-10.33,4.6-19.75,8.82-28.9,6.66-14.43,3.79-27.68-4.28-40.16-3.89-6.01-10.56-8.46-17.68-8.89-6.64-.4-13.3-.51-19.95-.72-3.02-.09-5.57-1.26-7.38-3.62-5.46-7.09-12.98-8.86-21.34-8.38-7.3,.42-14.69,.5-21.87,1.68-10.47,1.73-20.87,4.03-31.16,6.63-9.05,2.28-17.98,4.79-27.44,4.38-19.71-.87-37.48-6.86-52.78-19.61-9.84-8.2-13.8-19.32-15.54-31.45-.85-5.92-1.13-11.91-1.67-17.87Zm56.87,154.17c-1.75-3.48-2.97-7.18-5.2-10.09-4.17-5.42-9.41-9.85-15.51-13.04-4.61-2.41-9.39-3.17-14.19-.22-4.57,2.81-4.94,8.44-.5,11.28,4.04,2.59,8.25,4.92,12.48,7.2,4.07,2.19,8.12,4.53,12.43,6.11,3.03,1.11,6.6,2.56,10.49-1.23Zm182.57-6.81c.11-7.59-3.32-12-8.43-12.29-5.06-.28-9.13,3.5-9.52,9.35-.53,7.93-.76,15.87-1.07,23.81-.11,2.68-.3,5.7,2.97,6.64,2.89,.83,4.99-1.17,6.89-3.11,.35-.35,.65-.75,.95-1.15,5.41-7.33,6.18-16.21,8.23-23.25Zm-6.32-83.96c.14-1.57,.34-2.54,.3-3.5-.29-8.73-12.49-20.98-18.77-23.55-2.85-1.16-6.75,.26-7.98,2.43-1.38,2.43-.91,5.88,1.2,8.2,.66,.73,1.45,1.36,2.23,1.97,2.59,2.04,5.13,4.15,7.83,6.03,4.56,3.17,8.97,6.67,15.18,8.41Zm-195.52-40.87c2.16-9.45,2.18-17.88,1.67-26.28-.22-3.57-3.05-5.33-6.7-5.21-3.11,.11-5.4,1.37-5.92,4.95-1.19,8.12-.98,16.23,5,22.81,1.33,1.47,3.47,2.21,5.96,3.72Zm190.85-131.27c-.03-.27-.03-.78-.16-1.25-1.52-5.78-14.41-14.52-20.42-13.77-3.44,.43-6.9,3.96-4.13,7.37,4.84,5.95,10.4,11.13,18.12,13.17,3.47,.92,6.7-1.75,6.59-5.51Zm-224.46,293.34c-1.81-4.21-3.43-7.25-4.43-10.49-2-6.49-3.59-13.1-5.49-19.62-.97-3.31-2.84-4.71-5.19-4.34-2.25,.35-3.82,2.49-4.05,5.59-.05,.65,.02,1.33,.12,1.98,1.64,10.72,6.98,19.21,15.58,25.7,.6,.45,1.48,.52,3.46,1.17Zm19.15-152.71c-1.48-4.83-2.99-9.5-4.31-14.24-.67-2.39-.91-4.9-1.47-7.33-.77-3.34-2.85-5.28-5.25-5.08-2.6,.22-4.9,2.99-4.5,6.24,.88,7.29,3.47,13.87,9.33,18.72,1.79,1.48,3.77,2.73,6.21,1.68Zm217.07,22.92c-.32-2.76-.39-4.66-.79-6.5-1.27-5.93-4.72-10.49-9.34-14.22-1.86-1.5-4-1.73-5.9-.09-1.64,1.41-1.32,4.16,.56,6.2,.56,.61,1.28,1.06,1.85,1.66,3.53,3.71,7.02,7.46,10.58,11.14,.57,.59,1.45,.89,3.03,1.81Zm-204.08-163.29c-3.52-.3-4.27-.26-5.94,1.36-3.51,3.41-5.26,7.58-4.98,12.53,.15,2.59,1.61,4.07,4.03,4.25,2.5,.18,3.2-1.58,3.62-3.81,.9-4.69,2.1-9.33,3.26-14.33Zm52.16-3.45c-5.19-2.76-8.17-3.82-11.06-2.88-1.46,.48-3.12,1.99-3.59,3.39-.38,1.16,.44,3.39,1.47,4.22,3.86,3.11,11.52,.21,13.18-4.74Zm-35.58,5.8c-5.27,.73-8.8,2.45-11.35,5.95-1.13,1.55-1.03,3.36,.59,4.38,.86,.54,2.96,.6,3.44,.02,2.44-3.01,4.52-6.3,7.33-10.35Zm190.53,46.93c2.66-3.35,2.47-6.3,2.19-9.21-.19-1.96-1.07-3.81-3.38-3.31-2.18,.47-2.6,2.27-1.83,4.32,.92,2.44,1.81,4.89,3.02,8.2Z"/>
          <path class="cls-1" d="M2463.73,354.92c-3.89,3.79-7.46,2.34-10.49,1.23-4.31-1.58-8.36-3.92-12.43-6.11-4.23-2.28-8.44-4.61-12.48-7.2-4.44-2.84-4.07-8.47,.5-11.28,4.8-2.95,9.58-2.19,14.19,.22,6.1,3.19,11.35,7.62,15.51,13.04,2.24,2.91,3.46,6.61,5.2,10.09Z"/>
          <path class="cls-1" d="M2646.3,348.11c-2.05,7.04-2.81,15.92-8.23,23.25-.3,.4-.6,.8-.95,1.15-1.9,1.94-3.99,3.94-6.89,3.11-3.26-.93-3.07-3.96-2.97-6.64,.31-7.94,.55-15.89,1.07-23.81,.39-5.85,4.46-9.64,9.52-9.35,5.11,.29,8.54,4.7,8.43,12.29Z"/>
          <path class="cls-1" d="M2639.98,264.15c-6.22-1.74-10.62-5.24-15.18-8.41-2.7-1.88-5.24-4-7.83-6.03-.78-.61-1.56-1.24-2.23-1.97-2.11-2.32-2.58-5.77-1.2-8.2,1.23-2.16,5.13-3.59,7.98-2.43,6.29,2.56,18.48,14.81,18.77,23.55,.03,.96-.16,1.92-.3,3.5Z"/>
          <path class="cls-1" d="M2444.47,223.28c-2.49-1.51-4.62-2.26-5.96-3.72-5.98-6.58-6.18-14.69-5-22.81,.52-3.58,2.81-4.84,5.92-4.95,3.65-.13,6.48,1.64,6.7,5.21,.52,8.4,.5,16.83-1.67,26.28Z"/>
          <path class="cls-1" d="M2635.31,92.01c.1,3.76-3.12,6.43-6.59,5.51-7.72-2.04-13.28-7.22-18.12-13.17-2.77-3.41,.69-6.94,4.13-7.37,6.02-.75,18.9,7.99,20.42,13.77,.12,.47,.13,.98,.16,1.25Z"/>
          <path class="cls-28" d="M2410.85,385.36c-1.98-.65-2.86-.72-3.46-1.17-8.6-6.49-13.94-14.99-15.58-25.7-.1-.65-.16-1.32-.12-1.98,.23-3.1,1.79-5.24,4.05-5.59,2.35-.37,4.22,1.02,5.19,4.34,1.9,6.52,3.49,13.13,5.49,19.62,1,3.23,2.62,6.28,4.43,10.49Z"/>
          <path class="cls-3" d="M2430,232.64c-2.44,1.05-4.42-.2-6.21-1.68-5.86-4.85-8.44-11.43-9.33-18.72-.39-3.24,1.9-6.02,4.5-6.24,2.4-.2,4.48,1.74,5.25,5.08,.56,2.43,.8,4.94,1.47,7.33,1.32,4.73,2.84,9.41,4.31,14.24Z"/>
          <path class="cls-3" d="M2647.07,255.57c-1.57-.92-2.45-1.22-3.03-1.81-3.56-3.68-7.05-7.43-10.58-11.14-.57-.6-1.29-1.05-1.85-1.66-1.88-2.04-2.2-4.78-.56-6.2,1.9-1.64,4.04-1.41,5.9,.09,4.62,3.73,8.07,8.3,9.34,14.22,.39,1.84,.46,3.74,.79,6.5Z"/>
          <path class="cls-7" d="M2442.99,92.28c-1.16,5-2.36,9.64-3.26,14.33-.43,2.23-1.13,3.99-3.62,3.81-2.42-.18-3.88-1.66-4.03-4.25-.28-4.96,1.47-9.13,4.98-12.53,1.66-1.62,2.42-1.66,5.94-1.36Z"/>
          <path class="cls-8" d="M2495.16,88.83c-1.66,4.95-9.32,7.84-13.18,4.74-1.03-.83-1.85-3.06-1.47-4.22,.46-1.41,2.12-2.92,3.59-3.39,2.89-.94,5.87,.12,11.06,2.88Z"/>
          <path class="cls-17" d="M2459.58,94.63c-2.8,4.05-4.89,7.34-7.33,10.35-.47,.59-2.57,.53-3.44-.02-1.62-1.01-1.72-2.83-.59-4.38,2.55-3.5,6.08-5.22,11.35-5.95Z"/>
          <path class="cls-5" d="M2650.11,141.56c-1.22-3.3-2.1-5.76-3.02-8.2-.77-2.05-.35-3.85,1.83-4.32,2.31-.5,3.19,1.35,3.38,3.31,.28,2.91,.47,5.86-2.19,9.21Z"/>
        </g>
        <g>
          <path class="cls-19" d="M458.25,242.06c-1.09,.69-1.48,1.02-1.93,1.21-8.25,3.59-10.87,10.87-11.83,18.88-.93,7.72-3.92,13.99-10.36,18.52-1.76,1.24-3.4,2.69-4.97,4.17-3.99,3.77-4.42,6.81-1.69,11.48,.92,1.58,2.24,2.97,2.93,4.63,1.19,2.87,2.43,5.83,2.88,8.86,.38,2.56,1.35,4.4,3.35,5.78,1.36,.94,2.78,1.85,4.3,2.52,13.06,5.74,26.03,11.73,39.29,16.99,5.48,2.17,11.53,3.3,17.42,3.94,10.07,1.09,20.11,2.51,30.34,2.24,12.52-.32,24.79-1.44,37.02-4.45,9.15-2.25,18.68-3.02,28.05-4.37,4.61-.66,9.23-1.19,13.86-1.67,11.54-1.2,22.53,.99,32.97,5.87,5.67,2.65,8.53,7.71,10.35,13.44,3.41,10.73,1.87,21.36-.75,31.96-1.32,5.34-4.02,9.83-8.25,13.35-10.45,8.71-21.6,15.87-35.42,18.3-11.11,1.95-22.05,4.82-33.1,7.14-3.41,.72-6.9,1.1-10.38,1.41-9.95,.89-19.89,2.11-29.86,2.36-12.13,.3-24.3,.01-36.42-.55-7.79-.36-15.59-1.34-23.28-2.65-16.21-2.77-31.47-8.26-45.44-17.08-7.05-4.45-14.3-8.54-22.54-10.34-4.7-1.02-9.47-1.81-14.24-2.4-4.59-.56-8.58-1.91-11.85-5.47-1.75-1.9-4.22-3.16-6.46-4.58-4.62-2.93-8.1-6.93-10.69-11.64-6.35-11.54-9.71-23.89-10.35-37.09-.6-12.3-1.5-24.59-2.7-36.85-1.64-16.85-1.39-33.55,2.24-50.14,3.09-14.12,3.68-28.27,.78-42.56-2.76-13.59,.13-26.38,6.2-38.66,7.32-14.81,17-27.68,29.9-38.12,15.02-12.15,30.29-23.93,46.52-34.43,7.85-5.08,16.1-9.17,25.42-11.02,7.3-1.45,13.63-5.41,19.36-9.92,14.01-11.02,30.02-14.25,47.03-11.44,8.9,1.47,17.49,5.1,26.05,8.24,12.94,4.74,25.66,10.13,39.49,11.88,9.4,1.19,18.77,2.72,28.21,3.44,12.92,.99,25.21,4.42,37.18,8.96,9.25,3.5,16.62,9.78,21.93,18.17,6.41,10.13,10.79,20.98,10.59,33.25-.13,7.64-1.92,14.91-5.85,21.39-3.7,6.09-6.07,12.53-7.22,19.5-2.3,13.91-10.66,23.67-22.59,29.94-9.03,4.75-17.66,9.88-25.85,15.91-6.97,5.13-14.39,9.67-21.19,15-12.86,10.08-27.69,15.63-43.13,20.04-10.89,3.11-22.01,3.78-33.16,2.75-9.09-.84-18.14-2.32-27.11-4.04-7.71-1.48-14.8-4.78-21.56-8.87-7.67-4.64-15.62-8.8-23.51-13.2Zm71.27,107.61c-3.14,0-6.3,.21-9.41-.04-6.77-.56-13.5-1.63-20.28-2-9.58-.52-18.71-2.8-27.39-6.61-10.18-4.47-20.14-9.41-30.19-14.18-3-1.42-6.05-2.78-8.91-4.45-4.01-2.34-7.31-5.62-7.76-10.4-.35-3.71-1.91-6.61-3.81-9.55-1.17-1.81-2.31-3.67-3.19-5.63-2.34-5.22-1.44-10.1,2.18-14.39,2.02-2.39,4.24-4.66,6.63-6.69,4.42-3.75,6.87-8.14,7.16-14.15,.3-6.09,1.53-12.17,4.5-17.69,4.27-7.94,12.23-11.02,20.49-8.01,.76,.28,1.59,.38,2.39,.57,6.47,1.56,12.75,3.53,18.39,7.26,7.35,4.86,14.94,9.29,23.73,11.05,5.35,1.07,10.71,2.4,16.13,2.74,9.77,.62,19.74,1.8,29.35,.56,14.8-1.9,29.29-6.2,42.17-14.03,10.63-6.46,20.63-13.97,30.73-21.27,7.8-5.65,15.49-11.25,24.41-15.27,11.01-4.96,18.08-13.67,20.54-25.87,.98-4.84,2.56-9.58,4.16-14.26,.91-2.65,2.52-5.06,3.66-7.65,2.99-6.78,5.18-13.92,3.79-21.26-1.17-6.12-3.17-12.24-5.83-17.88-4.7-9.96-12.36-16.89-22.94-20.89-16.16-6.1-33.05-8.05-49.96-10.35-9.48-1.29-19.05-2.83-28.17-5.61-13.93-4.24-27.52-9.6-41.21-14.59-9.38-3.42-18.9-3.01-28.46-1.23-6.98,1.3-13.02,4.7-18.82,8.68-7.66,5.27-15.39,10.5-24.71,12.47-7.12,1.51-13.39,4.86-19.43,8.67-14.5,9.14-27.93,19.75-41.53,30.15-14.99,11.46-26.69,25.31-34.21,42.68-3.83,8.83-6.02,17.93-5.26,27.57,.51,6.44,1.05,12.9,2.2,19.24,1.19,6.57-.02,12.9-.9,19.27-1.3,9.34-3.72,18.6-4.13,27.96-.51,11.59,.31,23.26,.98,34.87,.6,10.25,2.02,20.46,2.64,30.71,.54,8.84,2.08,17.39,5.05,25.73,3.13,8.78,7.33,16.69,15.77,21.62,1.84,1.07,3.41,2.62,5.06,4,2.36,1.97,4.87,3,8.12,3.05,4.78,.08,9.59,.67,14.31,1.48,8.67,1.5,16.17,5.85,23.49,10.45,8.63,5.42,17.78,9.55,27.65,12.18,8.66,2.31,17.34,4.3,26.32,4.94,11.74,.83,23.48,2.39,35.22,2.51,11.26,.11,22.54-1.05,33.79-1.97,6.92-.57,13.82-1.54,20.67-2.69,7.98-1.34,15.91-3.02,23.83-4.66,4.85-1,9.76-1.87,14.47-3.37,8.54-2.72,15.5-8.2,22.35-13.76,3.07-2.5,5.02-5.93,5.81-9.67,1.97-9.32,2.11-18.71-.16-28.05-1.05-4.32-3.45-7.44-7.7-9.08-7.01-2.7-14.16-4.9-21.75-4.41-6.44,.41-12.88,1.07-19.26,2-8.67,1.27-17.43,2.36-25.89,4.52-12.15,3.11-24.32,5.2-36.88,4.65Z"/>
          <path class="cls-20" d="M529.52,349.67c12.56,.55,24.73-1.53,36.88-4.65,8.46-2.17,17.22-3.25,25.89-4.52,6.38-.94,12.82-1.59,19.26-2,7.6-.49,14.75,1.71,21.75,4.41,4.24,1.64,6.65,4.76,7.7,9.08,2.27,9.34,2.13,18.73,.16,28.05-.79,3.75-2.74,7.18-5.81,9.67-6.85,5.56-13.81,11.05-22.35,13.76-4.71,1.5-9.62,2.37-14.47,3.37-7.93,1.63-15.85,3.32-23.83,4.66-6.85,1.15-13.75,2.12-20.67,2.69-11.25,.92-22.53,2.09-33.79,1.97-11.75-.12-23.48-1.68-35.22-2.51-8.97-.63-17.66-2.63-26.32-4.94-9.87-2.63-19.02-6.76-27.65-12.18-7.32-4.6-14.82-8.95-23.49-10.45-4.72-.81-9.53-1.41-14.31-1.48-3.25-.05-5.76-1.08-8.12-3.05-1.65-1.38-3.22-2.93-5.06-4-8.43-4.92-12.64-12.84-15.77-21.62-2.97-8.34-4.51-16.89-5.05-25.73-.63-10.25-2.05-20.46-2.64-30.71-.68-11.61-1.49-23.28-.98-34.87,.41-9.36,2.83-18.62,4.13-27.96,.89-6.37,2.1-12.7,.9-19.27-1.15-6.34-1.69-12.81-2.2-19.24-.76-9.64,1.44-18.74,5.26-27.57,7.53-17.37,19.22-31.22,34.21-42.68,13.6-10.4,27.03-21.01,41.53-30.15,6.04-3.81,12.31-7.16,19.43-8.67,9.31-1.97,17.05-7.2,24.71-12.47,5.8-3.99,11.84-7.38,18.82-8.68,9.56-1.78,19.08-2.19,28.46,1.23,13.69,4.99,27.28,10.35,41.21,14.59,9.12,2.78,18.69,4.32,28.17,5.61,16.91,2.3,33.8,4.25,49.96,10.35,10.58,3.99,18.24,10.92,22.94,20.89,2.66,5.64,4.66,11.76,5.83,17.88,1.4,7.34-.8,14.49-3.79,21.26-1.14,2.59-2.75,4.99-3.66,7.65-1.61,4.68-3.19,9.42-4.16,14.26-2.46,12.2-9.54,20.91-20.54,25.87-8.92,4.02-16.6,9.62-24.41,15.27-10.09,7.31-20.1,14.81-30.73,21.27-12.88,7.83-27.37,12.13-42.17,14.03-9.61,1.23-19.58,.06-29.35-.56-5.41-.35-10.78-1.67-16.13-2.74-8.79-1.76-16.38-6.2-23.73-11.05-5.64-3.73-11.92-5.7-18.39-7.26-.8-.19-1.63-.29-2.39-.57-8.27-3.01-16.22,.07-20.49,8.01-2.97,5.52-4.21,11.59-4.5,17.69-.29,6.01-2.74,10.4-7.16,14.15-2.39,2.02-4.61,4.3-6.63,6.69-3.62,4.29-4.52,9.17-2.18,14.39,.88,1.96,2.01,3.82,3.19,5.63,1.91,2.94,3.47,5.84,3.81,9.55,.45,4.78,3.75,8.05,7.76,10.4,2.86,1.67,5.91,3.03,8.91,4.45,10.04,4.77,20.01,9.71,30.19,14.18,8.69,3.81,17.82,6.09,27.39,6.61,6.78,.37,13.51,1.44,20.28,2,3.12,.26,6.28,.04,9.41,.04Zm-39.2-251.98c1.83,3.53,4.49,4.84,9,3.59,7.9-2.19,15.75-4.61,23.53-7.22,2.7-.9,5.12-2.64,8.76-4.59-2.53-1.42-3.89-2.61-5.46-3-7.64-1.9-15.26-1.64-22.79,.75-.79-.13-1.59-.27-2.38-.4-4.46-.73-8.92-1.09-13.25,.61-3.16,1.25-4.49,4.35-3.25,7.29,1.1,2.6,3.45,2.82,5.82,2.96Zm-60.89,23.6c-.58,.31-1.13,.79-1.75,.91-6.09,1.16-10.93,4.5-15.27,8.7-1.06,1.03-2.16,2.12-2.89,3.38-1.31,2.26-.96,4.99,.53,6.4,1.53,1.44,4.76,1.3,6.86-.36,1.16-.92,2.23-1.94,3.34-2.92,3.24,5.21,7.05,6.7,11.93,3.54,5.09-3.3,9.67-7.4,14.29-11.36,1.17-1.01,1.82-2.75,2.43-4.27,1.32-3.3,.51-5.44-2.69-6.89-1.31-.59-2.83-.84-4.28-.94-4.63-.33-8.53,1.86-12.49,3.82Zm84.72,8.57c-4.05,.75-8.17,1.22-12.13,2.29-13.32,3.61-23.32,11.96-30.61,23.31-7,10.91-11.79,22.66-8.99,36.17,.22,1.06-.08,2.23-.08,3.34-.02,5.76,.71,11.56,5.07,15.59,3.09,2.86,7.02,5.37,11.02,6.57,7.74,2.32,15.77,3.72,23.72,5.27,8.75,1.71,17.57,.74,26.34,0,7.65-.65,15.33-1.9,21.67-6.49,7.25-5.25,14.25-10.9,20.95-16.85,5.56-4.94,11.65-8.76,18.47-11.57,3.37-1.39,6.69-2.93,9.91-4.64,2.58-1.37,4.68-3.55,4.83-6.53,.18-3.62,0-7.32-.59-10.89-1.59-9.73-8.47-14.99-16.72-18.91-4.25-2.02-8.72-3.14-13.47-2.88-5.47,.3-10.93,.86-16.4,.82-2.72-.02-5.59-.78-8.12-1.85-4.57-1.95-9-4.27-13.37-6.67-6.69-3.67-13.76-5.67-21.5-6.07Zm101.21,225.85c-.08-3.07-2.15-4-4.12-4.73-1.98-.73-4.12-1.37-6.21-1.46-10.12-.44-20.11,.4-29.72,3.86-1.34,.48-2.57,1.39-3.73,2.25-2.09,1.55-3,3.78-1.93,6.13,1.06,2.33,2.97,4.11,5.89,3.69,4.22-.6,8.46-1.12,12.62-2.03,9.12-1.99,18.41-3.43,27.2-7.71Zm44.73-221.55c-.42-2.6-.52-4.44-1.03-6.15-1.18-3.97-5.77-7.14-8.97-6.39-4.05,.94-7.6,5.69-6.53,9.73,1.21,4.58,2.86,9.12,4.99,13.34,2.12,4.22,7.41,4.01,9.25-.4,1.42-3.4,1.69-7.28,2.3-10.13Zm-279.36,48.76c-3.88,.23-5.21,1.02-7.31,4.37-3.93,6.27-5.82,13.31-7,20.48-.4,2.46,.07,5.37,1.06,7.67,1.38,3.21,5.29,2.93,6.9-.24,.51-1.01,.82-2.15,1.05-3.27,1.03-5.01,2.04-10.02,2.96-15.04,.84-4.62,1.56-9.26,2.34-13.97Zm123.07,178.6c-.82-1.56-1.18-3.19-2.2-4.04-4.42-3.68-9.54-5.93-15.37-6.01-3.95-.05-6.44,2.18-6.95,5.71-.59,4.08,1.41,7.24,5.41,8.22,6.79,1.67,12.89-.12,19.1-3.89Zm-116.19,6.86c.3-.2,.59-.4,.89-.59-.28-1.57-.37-3.2-.86-4.7-1.18-3.59-2.45-7.16-3.88-10.66-1.43-3.51-3.03-6.96-4.7-10.37-1.06-2.17-2.96-3.18-5.36-2.51-2.35,.66-3.62,2.42-3.37,4.84,.2,1.92,.41,4.11,1.42,5.63,3.01,4.51,6.27,8.88,9.73,13.06,1.7,2.05,4.07,3.55,6.13,5.3Zm264.37-193.87c-4.24,4.69-7.95,8.46-11.22,12.58-1.63,2.05-1.36,4.66,.31,6.92,1.28,1.73,2.9,2.83,5.08,2.39,2.7-.54,3.56-2.84,4.1-5.12,1.07-4.49,1.99-9.02,2.85-13.55,.12-.64-.46-1.41-1.12-3.21Zm-36.05,199.95c3.63,.16,7.33-2.12,7.36-4.53,.04-3.05-3.88-6.37-7.68-6.51-3.32-.12-6.2,2.19-6.26,5-.07,3.29,2.75,5.87,6.58,6.04Zm-196.44-.6c-.36-.69-.53-1.15-.81-1.53-2.51-3.46-5-6.94-7.59-10.34-1.24-1.63-2.77-3-5.03-1.76-1.91,1.04-2.54,3.2-1.76,5.57,.1,.31,.11,.68,.29,.94,3.15,4.62,7.76,7.01,13.02,8.28,.49,.12,1.21-.72,1.9-1.16Zm-34.94-170.27s-.33-.23-.6-.18c-.46,.09-1.08,.22-1.31,.56-2.96,4.32-4.83,9.02-4.11,14.36,.39,2.88,2.41,5.02,4.15,4.87,2.06-.17,2.88-1.79,2.77-5.49-.03-.99-.11-1.98-.17-2.97-.23-3.54-.46-7.08-.72-11.16Z"/>
          <path class="cls-19" d="M514.15,129.87c7.74,.4,14.81,2.4,21.5,6.07,4.37,2.39,8.8,4.71,13.37,6.67,2.52,1.08,5.4,1.83,8.12,1.85,5.46,.04,10.93-.52,16.4-.82,4.75-.26,9.22,.86,13.47,2.88,8.25,3.92,15.13,9.18,16.72,18.91,.58,3.57,.77,7.28,.59,10.89-.15,2.99-2.25,5.17-4.83,6.53-3.22,1.71-6.54,3.25-9.91,4.64-6.82,2.82-12.91,6.63-18.47,11.57-6.7,5.95-13.7,11.6-20.95,16.85-6.34,4.59-14.02,5.84-21.67,6.49-8.77,.74-17.58,1.72-26.34,0-7.95-1.55-15.98-2.95-23.72-5.27-4-1.2-7.93-3.71-11.02-6.57-4.36-4.03-5.09-9.83-5.07-15.59,0-1.12,.3-2.28,.08-3.34-2.8-13.5,1.98-25.26,8.99-36.17,7.29-11.36,17.29-19.7,30.61-23.31,3.96-1.07,8.08-1.55,12.13-2.29Zm.45,83.99c3.33-.15,6.66-.22,9.98-.47,9.8-.72,19.02-3.07,26.74-9.63,3.55-3.02,7.22-5.89,10.78-8.91,7.52-6.39,15.44-12.1,24.79-15.58,2.49-.93,4.89-2.07,7.33-3.14,1.85-.81,3.03-2.2,2.77-4.27-.84-6.61-2.63-12.57-9.05-16.27-5.2-3-10.42-5.07-16.52-4.12-1.97,.31-3.97,.4-5.95,.65-7.78,.98-15.24,.03-22.29-3.58-3.84-1.97-7.7-3.9-11.57-5.82-12.27-6.09-24.43-5.59-36.27,1.01-13.42,7.48-21.3,19.24-24.92,33.93-.82,3.32-1.11,6.95-.76,10.35,.46,4.42,1.72,8.77,2.84,13.1,.24,.94,1.21,1.9,2.1,2.44,12.3,7.41,25.73,10.53,40.01,10.31Z"/>
          <path class="cls-15" d="M615.36,355.72c-8.8,4.28-18.09,5.71-27.2,7.71-4.16,.91-8.4,1.44-12.62,2.03-2.92,.41-4.83-1.36-5.89-3.69-1.07-2.35-.16-4.58,1.93-6.13,1.16-.86,2.39-1.77,3.73-2.25,9.61-3.46,19.6-4.31,29.72-3.86,2.09,.09,4.22,.73,6.21,1.46,1.97,.73,4.04,1.66,4.12,4.73Z"/>
          <path class="cls-15" d="M429.43,121.29c3.96-1.96,7.86-4.15,12.49-3.82,1.45,.1,2.97,.35,4.28,.94,3.2,1.45,4.02,3.59,2.69,6.89-.61,1.52-1.26,3.26-2.43,4.27-4.62,3.96-9.21,8.06-14.29,11.36-4.87,3.16-8.69,1.67-11.93-3.54,2.84-2.97,5.73-5.89,8.5-8.92,1.71-1.87,3.69-3.65,3.73-6.83l-3.04-.36Z"/>
          <path class="cls-15" d="M660.09,134.16c-.61,2.86-.88,6.74-2.3,10.13-1.84,4.41-7.13,4.62-9.25,.4-2.12-4.22-3.78-8.77-4.99-13.34-1.07-4.04,2.48-8.79,6.53-9.73,3.2-.75,7.79,2.42,8.97,6.39,.51,1.71,.61,3.55,1.03,6.15Z"/>
          <path class="cls-15" d="M503.38,87.23c7.53-2.38,15.15-2.65,22.79-.75,1.56,.39,2.93,1.58,5.46,3-3.64,1.94-6.06,3.68-8.76,4.59-7.78,2.61-15.63,5.02-23.53,7.22-4.51,1.25-7.18-.06-9-3.59,4.51-1.42,9.08-2.7,13.51-4.35,1.69-.63,4.32-2.07,4.34-3.2,.06-2.61-2.97-2.21-4.8-2.92Z"/>
          <path class="cls-10" d="M380.72,182.93c-.78,4.71-1.5,9.35-2.34,13.97-.92,5.03-1.93,10.04-2.96,15.04-.23,1.12-.54,2.26-1.05,3.27-1.61,3.17-5.52,3.45-6.9,.24-.99-2.31-1.46-5.21-1.06-7.67,1.18-7.18,3.07-14.21,7-20.48,2.1-3.35,3.43-4.14,7.31-4.37Z"/>
          <path class="cls-15" d="M503.79,361.53c-6.22,3.77-12.32,5.55-19.1,3.89-4-.98-6-4.14-5.41-8.22,.51-3.53,3-5.77,6.95-5.71,5.83,.08,10.95,2.33,15.37,6.01,1.02,.85,1.38,2.48,2.2,4.04Z"/>
          <path class="cls-28" d="M387.6,368.39c-2.07-1.75-4.43-3.25-6.13-5.3-3.46-4.18-6.72-8.55-9.73-13.06-1.02-1.53-1.22-3.71-1.42-5.63-.25-2.42,1.02-4.19,3.37-4.84,2.4-.67,4.29,.34,5.36,2.51,1.67,3.41,3.27,6.86,4.7,10.37,1.43,3.5,2.7,7.07,3.88,10.66,.49,1.5,.59,3.13,.86,4.7-.3,.2-.59,.4-.89,.59Z"/>
          <path class="cls-39" d="M429.43,121.29c.95,.11,1.91,.23,3.04,.36-.04,3.18-2.03,4.97-3.73,6.83-2.77,3.03-5.66,5.95-8.5,8.92-1.11,.98-2.18,2-3.34,2.92-2.1,1.66-5.33,1.8-6.86,.36-1.49-1.41-1.84-4.14-.53-6.4,.73-1.26,1.82-2.35,2.89-3.38,4.34-4.2,9.18-7.54,15.27-8.7,.62-.12,1.17-.6,1.75-.91Z"/>
          <path class="cls-22" d="M503.38,87.23c1.84,.71,4.86,.31,4.8,2.92-.03,1.12-2.65,2.57-4.34,3.2-4.43,1.65-9,2.92-13.51,4.35-2.37-.14-4.72-.36-5.82-2.96-1.24-2.94,.09-6.04,3.25-7.29,4.32-1.71,8.79-1.34,13.25-.61,.79,.13,1.59,.26,2.38,.4Z"/>
          <path class="cls-39" d="M651.97,174.52c.65,1.8,2.01,3.46,1.45,3.58-.86,4.54-2.11,8.7-3.18,13.19-.54,2.28-1.41,4.58-4.1,5.12-2.18,.44-3.8-.66-5.08-2.39-1.67-2.26-1.94-4.87-.31-6.92,3.28-4.12,6.99-7.89,11.22-12.58Z"/>
          <path class="cls-36" d="M615.91,374.46c-3.83-.17-6.64-2.75-6.58-6.04,.06-2.81,2.94-5.12,6.26-5,3.8,.13,7.72,3.45,7.68,6.51-.03,2.41-3.73,4.69-7.36,4.53Z"/>
          <path class="cls-39" d="M419.48,373.87c-.68,.44-1.4,1.27-1.9,1.16-5.26-1.27-9.87-3.66-13.02-8.28-.18-.26-.19-.63-.29-.94-.78-2.37-.15-4.53,1.76-5.57,2.27-1.24,3.79,.13,5.03,1.76,2.59,3.4,5.08,6.88,7.59,10.34,.28,.38,.45,.84,.81,1.53Z"/>
          <path class="cls-21" d="M384.54,203.6c.26,4.08,.49,7.62,.72,11.16,.06,.99,.14,1.98,.17,2.97,.11,3.7-.71,5.32-2.77,5.49-1.74,.15-3.76-1.99-4.15-4.87-.71-5.34,1.15-10.04,4.11-14.36,.23-.34,.85-.47,1.31-.56,.27-.05,.6,.18,.6,.18Z"/>
        </g>
        <g>
          <path class="cls-19" d="M1078.62,104.32c-11.05,19.43-29.74,25.76-50.1,27.59-16.21,1.46-32.62,.8-48.94,.95-6.83,.07-13.66-.35-20.49-.19-2.75,.07-5.58,.84-8.2,1.77-6.24,2.23-9.9,6.81-10.18,13.44-.42,9.81-.49,19.64-.55,29.46-.01,1.78,.54,3.64,1.18,5.34,3.89,10.31,3.93,20.84,1.91,31.49-2.11,11.11-4.16,22.23-6.46,33.29-1.38,6.66-1.37,13.18,.41,19.76,1.61,5.94,2.99,11.94,4.39,17.93,2.21,9.46,.9,18.94-.37,28.33-1.88,14-1.63,27.83,1.01,41.74,3.25,17.11,1.52,33.73-5.75,49.78-5.51,12.15-14.87,18.76-27.65,21.26-11.64,2.28-22.94,.82-33.85-3.3-12.96-4.9-19.78-15.37-23.21-28.14-1.46-5.41-2.13-11.15-2.27-16.76-.32-12.65-.78-25.36,.15-37.95,.75-10.23,3.19-20.36,5.31-30.44,3.61-17.16,5.67-34.47,6.33-51.99,.37-9.92-1.25-19.58-2.91-29.26-2.94-17.09-2.58-34.14,.64-51.17,.9-4.74,1.83-9.51,2.16-14.31,.26-3.94-.03-7.99-.67-11.9-.67-4.08-3.06-7.33-6.67-9.54-3.97-2.43-7.9-4.93-11.96-7.19-.98-.55-2.51-.67-3.6-.35-4.76,1.38-9.58,2.7-14.16,4.58-13.79,5.66-28.2,7.55-42.94,7.75-8.01,.11-15.99,.14-23.86-1.72-12.76-3.01-23.34-9.77-31.65-19.66-6.08-7.24-8.91-16.13-7.57-25.59,1.46-10.3,8.1-17.29,16.95-22.12,3.91-2.13,8.13-3.72,12.3-5.33,9.28-3.58,18.59-7.11,27.95-10.49,8.84-3.19,18.08-4.71,27.41-4.85,19.15-.28,38.32-.42,57.46-.03,13.64,.28,27.25,2.03,40.88,2.18,11.79,.13,23.59-1.09,35.39-1.65,13.97-.66,27.95-1.25,41.92-1.88,5.82-.26,11.64-.54,17.47-.8,13.22-.58,26.41-.07,39.06,4.02,18.45,5.96,32,17.97,40.7,35.32,1.22,2.44,2.03,5.08,3.03,7.63v3Zm-218.64,253.05c.9,10.43,1.12,20.97,2.91,31.24,1.64,9.38,6.02,17.78,15.67,21.73,9.47,3.88,19.28,4.9,29.35,2.65,8.01-1.79,13.93-6.09,16.87-14,.58-1.56,1.29-3.06,1.89-4.61,5.21-13.35,4.46-27.06,2.52-40.87-1.44-10.23-2.37-20.48-.87-30.83,.95-6.58,1.43-13.22,2.13-19.84,.96-9.11-.7-17.91-3.34-26.56-3.31-10.85-4.42-21.71-1.6-32.92,2.47-9.82,4.28-19.8,6.57-29.67,2.33-10.02,3.31-19.99-.03-29.99-.36-1.09-.51-2.29-.51-3.44,.02-10.33-.28-20.68,.26-30.98,.71-13.61,7.29-21.72,20.03-25.4,3.47-1,7.19-1.57,10.8-1.57,7.48,0,14.97,.72,22.45,.72,8.82,0,17.64-.41,26.46-.74,6.65-.24,13.3-.54,19.93-.98,11.97-.81,22.56-5.46,32.27-12.21,6.12-4.25,6.74-6.76,3.09-13.41-7.61-13.87-19.86-22.29-34.42-27.19-13.76-4.63-28.18-4.26-42.53-3.81-9.48,.3-18.97,.18-28.46,.25-3.32,.02-6.64-.12-9.94,.11-10.62,.74-21.23,2.29-31.85,2.29-15.13,0-30.25-1.06-45.38-1.75-5.15-.23-10.29-.96-15.43-1.02-18.49-.21-36.98-.26-55.47-.28-3.65,0-7.41-.06-10.92,.76-7.58,1.77-15.13,3.79-22.51,6.26-10.23,3.43-20.49,6.88-30.36,11.2-14.79,6.48-19.18,21.54-10.06,34.75,7.48,10.84,18.35,17.5,31.21,19.86,15.89,2.91,31.86,.95,47.63-1.67,7.67-1.28,15.14-3.7,22.72-5.53,2.87-.7,5.97-.76,8.65-1.87,7.83-3.25,15.13-2.12,21.76,2.58,9.86,6.99,13.4,17.12,12.53,28.79-.45,6.11-1.54,12.21-2.8,18.21-3.27,15.47-3.7,31.01-1.71,46.66,1.11,8.73,2.76,17.44,3.09,26.2,.77,20.56-2.22,40.81-6.49,60.88-3.22,15.14-6.66,30.26-6.11,45.99Z"/>
          <path class="cls-33" d="M859.98,357.37c-.55-15.73,2.89-30.85,6.11-45.99,4.27-20.07,7.26-40.32,6.49-60.88-.33-8.76-1.98-17.48-3.09-26.2-1.99-15.65-1.55-31.18,1.71-46.66,1.27-6,2.35-12.1,2.8-18.21,.87-11.67-2.68-21.8-12.53-28.79-6.63-4.7-13.92-5.84-21.76-2.58-2.68,1.11-5.78,1.18-8.65,1.87-7.58,1.83-15.05,4.26-22.72,5.53-15.77,2.63-31.74,4.59-47.63,1.67-12.86-2.36-23.73-9.02-31.21-19.86-9.11-13.22-4.73-28.27,10.06-34.75,9.87-4.32,20.13-7.77,30.36-11.2,7.38-2.47,14.93-4.49,22.51-6.26,3.51-.82,7.27-.76,10.92-.76,18.49,.02,36.98,.07,55.47,.28,5.15,.06,10.28,.78,15.43,1.02,15.12,.69,30.25,1.75,45.38,1.75,10.62,0,21.23-1.55,31.85-2.29,3.3-.23,6.63-.09,9.94-.11,9.49-.07,18.98,.05,28.46-.25,14.35-.46,28.77-.82,42.53,3.81,14.56,4.9,26.81,13.32,34.42,27.19,3.65,6.65,3.02,9.16-3.09,13.41-9.71,6.75-20.3,11.4-32.27,12.21-6.64,.45-13.29,.74-19.93,.98-8.82,.32-17.64,.73-26.46,.74-7.48,0-14.97-.73-22.45-.72-3.61,0-7.33,.57-10.8,1.57-12.73,3.67-19.32,11.79-20.03,25.4-.53,10.3-.23,20.65-.26,30.98,0,1.15,.15,2.36,.51,3.44,3.33,10,2.36,19.96,.03,29.99-2.29,9.87-4.1,19.85-6.57,29.67-2.82,11.21-1.71,22.06,1.6,32.92,2.63,8.65,4.3,17.45,3.34,26.56-.7,6.62-1.18,13.26-2.13,19.84-1.5,10.35-.57,20.6,.87,30.83,1.95,13.81,2.69,27.51-2.52,40.87-.6,1.55-1.31,3.05-1.89,4.61-2.94,7.91-8.86,12.21-16.87,14-10.07,2.25-19.88,1.23-29.35-2.65-9.65-3.95-14.04-12.35-15.67-21.73-1.79-10.27-2.01-20.82-2.91-31.24Zm49.86-87.14c2.34,4.42,2.49,9.94,6.79,14.31,1.56-4.91,.18-8.95-.37-12.87-1.22-8.73-4.77-17.33-.77-26.21,.05-.11-.1-.3-.18-.53-1.77-1.28-3.65-.95-4.73,.71-1.32,2-2.5,4.31-2.92,6.63-.53,2.9-.23,5.94-.29,8.92-.41-3.19-.82-6.37-1.22-9.52-5.18-.39-8.51,2.29-8.46,7.3,.07,6.65,1.54,13.1,4.32,19.17,.79,1.72,1.84,3.31,2.85,5.1,3.91-4.01,4.54-5.73,4.98-13.01Zm102.36-177.87c-.58,4.2,2.7,9.16,7.53,10.83,0-2.28,.09-4.41-.02-6.53-.16-3.16-1.47-5.41-4.98-5.67,3.17-1.81,2.24-4.53,1.18-6.89-2.72-6.04-7.43-10.14-13.6-12.4-2.9-1.06-5.94-.78-8.55,1.12-3.43,2.49-3.07,7.82,.66,9.87,4.62,2.54,9.29,5.01,13.93,7.52,1.29,.7,2.57,1.43,3.86,2.15Zm-106.7,299.92c-.06,1.79,.99,2.08,2.51,2.06,4-.04,9.3-4.69,10.73-9.54,1.14-3.85,.34-4.99-4-5.7,3.93-4.56,5.18-12.83,2.3-17.56-1.24-2.04-2.8-4.26-5.75-4.23-3.13,.03-5.59,1.44-6.71,4.29-3.01,7.69-5.94,15.45-6.02,23.87-.06,6.08,.84,6.87,6.92,6.82Zm4.03-214.92c-.46-1.36-.66-2.92-1.46-4.05-1.09-1.52-2.41-3.28-4.04-3.94-4.1-1.67-8.17,1.35-8.32,6.29-.11,3.76,.18,7.63,1,11.29,1.28,5.75,2.79,11.51,4.93,16.99,1.35,3.46,4.11,6.25,8.94,6.15,0-1.62,.04-2.92,0-4.21-.28-8.59-.58-17.17-.87-25.76,.98,3.64,1.71,7.38,3.03,10.91,1.33,3.58,2.18,7.53,5.99,10.95,.6-2.9,1.58-5.13,1.39-7.25-.7-8.23-1.72-16.43-2.75-24.63-.22-1.75-1.4-2.96-3.43-2.95-1.95,.01-3.16,.94-3.45,2.85-.38,2.44-.65,4.9-.96,7.36Zm.92-91.68l.05-.42c1.82,0,3.66,.14,5.47-.03,4.93-.45,9.92-.98,14.16-3.79,1.47-.97,2.75-2.75,3.23-4.41,.18-.64-1.98-2.23-3.3-2.97-5.34-3-11.39-3.19-17.25-3.57-4.39-.28-8.94,.12-13.25,1.02-5.51,1.16-6.63,8.07-2.61,10.7,1.22,.8,2.42,1.88,3.77,2.15,3.2,.65,6.49,.9,9.75,1.31Zm-134.17-9.06c-.77-.34-1.5-.73-2.27-.98-.62-.2-1.32-.35-1.96-.29-7.43,.67-14.38,2.62-20.03,7.82-.72,.66-1.63,1.5-1.76,2.36-.25,1.67-.45,3.65,.25,5.02,.32,.62,2.95,.39,4.39,.02,3.5-.91,7-1.93,10.35-3.27,3.04-1.22,6.06-2.67,8.77-4.49,1.73-1.16,3.11-3.09,2.25-6.17Zm229.8,36.45c2.65-6.04-.01-14.2-5.37-17.06-.57-.3-1.21-.56-1.84-.67-4.66-.82-8.41,3.17-7.41,7.84,1.17,5.47,7.81,10.05,14.62,9.89Zm30.41-19.52c2.98-1.82,2.36-4.28,1.97-6.17-1.24-6.03-4.59-10.93-9.33-14.79-1.06-.86-2.71-1.2-4.13-1.37-1.84-.22-3.76,.03-4.42,2.26-.57,1.91-.03,3.47,1.51,4.87,2.43,2.22,4.73,4.6,6.99,7,2.47,2.63,4.84,5.35,7.41,8.21Zm-205.8-21.71l-.5-1.15c-1.27-.33-2.54-.97-3.8-.95-5.75,.1-11.54,.07-17.24,.71-3.3,.37-5.23,3.93-4.47,6.63,.7,2.47,3.39,3.31,7.03,2.1,4.86-1.61,9.73-3.21,14.54-4.96,1.56-.57,2.96-1.58,4.44-2.39Zm84.39,268.38c.36-.01,.72-.02,1.08-.04,2.3-6.84,1.47-13.96,1.48-20.98,0-.96-1.29-1.93-1.99-2.9-.98,.9-2.2,1.65-2.86,2.74-.44,.73-.18,1.94-.1,2.92,.28,3.28,.54,6.56,.96,9.82,.37,2.83,.94,5.62,1.43,8.43Z"/>
          <path class="cls-37" d="M910.46,85.7c-3.25-.41-6.54-.66-9.75-1.31-1.35-.27-2.55-1.36-3.77-2.15-4.02-2.63-2.9-9.54,2.61-10.7,4.31-.9,8.87-1.31,13.25-1.02,5.86,.38,11.91,.56,17.25,3.57,1.33,.74,3.49,2.34,3.3,2.97-.48,1.66-1.77,3.44-3.23,4.41-4.23,2.81-9.23,3.34-14.16,3.79-1.81,.17-3.64,.03-5.47,.03l-.05,.42Z"/>
          <path class="cls-37" d="M909.72,180.13c.29,8.59,.59,17.17,.87,25.76,.04,1.3,0,2.59,0,4.21-4.83,.1-7.59-2.7-8.94-6.15-2.14-5.47-3.64-11.24-4.93-16.99-.82-3.66-1.11-7.53-1-11.29,.15-4.94,4.22-7.96,8.32-6.29,1.63,.66,2.95,2.42,4.04,3.94,.8,1.12,1,2.68,1.46,4.05,.06,.92,.12,1.84,.18,2.76Z"/>
          <path class="cls-37" d="M905.5,392.29c-6.08,.06-6.98-.74-6.92-6.82,.08-8.42,3.01-16.18,6.02-23.87,1.12-2.85,3.58-4.27,6.71-4.29,2.95-.02,4.51,2.19,5.75,4.23,2.88,4.73,1.63,13-2.3,17.56-1.35,1.3-2.99,2.41-3.99,3.94-1.94,2.96-3.52,6.15-5.25,9.24Z"/>
          <path class="cls-37" d="M1012.2,92.37c-1.29-.72-2.56-1.45-3.86-2.15-4.64-2.51-9.3-4.98-13.93-7.52-3.73-2.05-4.09-7.38-.66-9.87,2.61-1.9,5.65-2.18,8.55-1.12,6.16,2.26,10.88,6.36,13.6,12.4,1.06,2.36,1.99,5.08-1.18,6.89-.84,.46-1.68,.91-2.53,1.37Z"/>
          <path class="cls-34" d="M909.84,270.24c-.44,7.28-1.07,9-4.98,13.01-1.01-1.79-2.06-3.38-2.85-5.1-2.78-6.08-4.25-12.53-4.32-19.17-.06-5.01,3.28-7.68,8.46-7.3,.4,3.14,.81,6.33,1.22,9.52,.82,3.01,1.65,6.03,2.47,9.04Z"/>
          <path class="cls-4" d="M776.3,76.64c.86,3.08-.52,5.01-2.25,6.17-2.71,1.82-5.73,3.28-8.77,4.49-3.35,1.34-6.85,2.37-10.35,3.27-1.44,.37-4.07,.6-4.39-.02-.71-1.37-.5-3.35-.25-5.02,.13-.86,1.04-1.7,1.76-2.36,5.65-5.2,12.6-7.15,20.03-7.82,.64-.06,1.33,.1,1.96,.29,.78,.25,1.5,.64,2.27,.98Z"/>
          <path class="cls-24" d="M909.72,180.13c-.06-.92-.12-1.84-.18-2.76,.32-2.45,.58-4.91,.96-7.36,.3-1.92,1.5-2.84,3.45-2.85,2.02-.01,3.21,1.19,3.43,2.95,1.04,8.2,2.05,16.4,2.75,24.63,.18,2.12-.8,4.35-1.39,7.25-3.81-3.41-4.66-7.37-5.99-10.95-1.31-3.52-2.04-7.26-3.03-10.91Z"/>
          <path class="cls-24" d="M909.84,270.24c-.82-3.01-1.65-6.03-2.47-9.04,.06-2.98-.24-6.03,.29-8.92,.43-2.32,1.61-4.62,2.92-6.63,1.09-1.65,2.96-1.99,4.73-.71,.09,.23,.23,.43,.18,.53-4,8.88-.45,17.48,.77,26.21,.55,3.92,1.94,7.96,.37,12.87-4.3-4.37-4.45-9.89-6.79-14.31Z"/>
          <path class="cls-37" d="M1006.1,113.1c-6.81,.16-13.45-4.42-14.62-9.89-1-4.67,2.76-8.66,7.41-7.84,.63,.11,1.27,.36,1.84,.67,5.36,2.86,8.02,11.01,5.37,17.06Z"/>
          <path class="cls-24" d="M1036.51,93.58c-2.57-2.86-4.94-5.58-7.41-8.21-2.26-2.4-4.56-4.77-6.99-7-1.54-1.41-2.08-2.96-1.51-4.87,.66-2.22,2.58-2.47,4.42-2.26,1.42,.17,3.07,.51,4.13,1.37,4.74,3.86,8.09,8.76,9.33,14.79,.39,1.89,1,4.35-1.97,6.17Z"/>
          <path class="cls-37" d="M830.71,71.86c-1.47,.81-2.88,1.82-4.44,2.39-4.81,1.75-9.68,3.34-14.54,4.96-3.64,1.21-6.33,.37-7.03-2.1-.76-2.7,1.17-6.26,4.47-6.63,5.7-.64,11.49-.62,17.24-.71,1.26-.02,2.53,.62,3.8,.95l.5,1.15Z"/>
          <path class="cls-14" d="M905.5,392.29c1.73-3.09,3.31-6.29,5.25-9.24,1-1.53,2.64-2.64,3.99-3.94,4.34,.71,5.14,1.85,4,5.7-1.44,4.85-6.74,9.5-10.73,9.54-1.53,.02-2.57-.27-2.51-2.06Z"/>
          <path class="cls-24" d="M915.1,340.24c-.48-2.81-1.06-5.61-1.43-8.43-.42-3.26-.68-6.54-.96-9.82-.08-.98-.35-2.19,.1-2.92,.66-1.09,1.26-2.11,2.86-2.74,1.47,.65,2.53,2.06,2.13,3.19,0,7.02,.68,13.84-1.62,20.68-.36,.01-.72,.02-1.08,.04Z"/>
          <path class="cls-23" d="M1012.2,92.37c.84-.46,1.68-.91,2.53-1.37,3.51,.26,4.82,2.51,4.98,5.67,.11,2.12,.02,4.25,.02,6.53-4.83-1.67-8.11-6.63-7.53-10.83Z"/>
        </g>
        <g>
          <path class="cls-19" d="M1460.43,103.32c-11.05,19.43-29.74,25.76-50.1,27.59-16.21,1.46-32.62,.8-48.94,.95-6.83,.07-13.66-.35-20.49-.19-2.75,.07-5.58,.84-8.2,1.77-6.24,2.23-9.9,6.81-10.18,13.44-.42,9.81-.49,19.64-.55,29.46-.01,1.78,.54,3.64,1.18,5.34,3.89,10.31,3.93,20.84,1.91,31.49-2.11,11.11-4.16,22.23-6.46,33.29-1.38,6.66-1.37,13.18,.41,19.76,1.61,5.94,2.99,11.94,4.39,17.93,2.21,9.46,.9,18.94-.37,28.33-1.88,14-1.63,27.83,1.01,41.74,3.25,17.11,1.52,33.73-5.75,49.78-5.51,12.15-14.87,18.76-27.65,21.26-11.64,2.28-22.94,.82-33.85-3.3-12.96-4.9-19.78-15.37-23.21-28.14-1.46-5.41-2.13-11.15-2.27-16.76-.32-12.65-.78-25.36,.15-37.95,.75-10.23,3.19-20.36,5.31-30.44,3.61-17.16,5.67-34.47,6.33-51.99,.37-9.92-1.25-19.58-2.91-29.26-2.94-17.09-2.58-34.14,.64-51.17,.9-4.74,1.83-9.51,2.16-14.31,.26-3.94-.03-7.99-.67-11.9-.67-4.08-3.06-7.33-6.67-9.54-3.97-2.43-7.9-4.93-11.96-7.19-.98-.55-2.51-.67-3.6-.35-4.76,1.38-9.58,2.7-14.16,4.58-13.79,5.66-28.2,7.55-42.94,7.75-8.01,.11-15.99,.14-23.86-1.72-12.76-3.01-23.34-9.77-31.65-19.66-6.08-7.24-8.91-16.13-7.57-25.59,1.46-10.3,8.1-17.29,16.95-22.12,3.91-2.13,8.13-3.72,12.3-5.33,9.28-3.58,18.59-7.11,27.95-10.49,8.84-3.19,18.08-4.71,27.41-4.85,19.15-.28,38.32-.42,57.46-.03,13.64,.28,27.25,2.03,40.88,2.18,11.79,.13,23.59-1.09,35.39-1.65,13.97-.66,27.95-1.25,41.92-1.88,5.82-.26,11.64-.54,17.47-.8,13.22-.58,26.41-.07,39.06,4.02,18.45,5.96,32,17.97,40.7,35.32,1.22,2.44,2.03,5.08,3.03,7.63v3Zm-218.64,253.05c.9,10.43,1.12,20.97,2.91,31.24,1.64,9.38,6.02,17.78,15.67,21.73,9.47,3.88,19.28,4.9,29.35,2.65,8.01-1.79,13.93-6.09,16.87-14,.58-1.56,1.29-3.06,1.89-4.61,5.21-13.35,4.46-27.06,2.52-40.87-1.44-10.23-2.37-20.48-.87-30.83,.95-6.58,1.43-13.22,2.13-19.84,.96-9.11-.7-17.91-3.34-26.56-3.31-10.85-4.42-21.71-1.6-32.92,2.47-9.82,4.28-19.8,6.57-29.67,2.33-10.02,3.31-19.99-.03-29.99-.36-1.09-.51-2.29-.51-3.44,.02-10.33-.28-20.68,.26-30.98,.71-13.61,7.29-21.72,20.03-25.4,3.47-1,7.19-1.57,10.8-1.57,7.48,0,14.97,.72,22.45,.72,8.82,0,17.64-.41,26.46-.74,6.65-.24,13.3-.54,19.93-.98,11.97-.81,22.56-5.46,32.27-12.21,6.12-4.25,6.74-6.76,3.09-13.41-7.61-13.87-19.86-22.29-34.42-27.19-13.76-4.63-28.18-4.26-42.53-3.81-9.48,.3-18.97,.18-28.46,.25-3.32,.02-6.64-.12-9.94,.11-10.62,.74-21.23,2.29-31.85,2.29-15.13,0-30.25-1.06-45.38-1.75-5.15-.23-10.29-.96-15.43-1.02-18.49-.21-36.98-.26-55.47-.28-3.65,0-7.41-.06-10.92,.76-7.58,1.77-15.13,3.79-22.51,6.26-10.23,3.43-20.49,6.88-30.36,11.2-14.79,6.48-19.18,21.54-10.06,34.75,7.48,10.84,18.35,17.5,31.21,19.86,15.89,2.91,31.86,.95,47.63-1.67,7.67-1.28,15.14-3.7,22.72-5.53,2.87-.7,5.97-.76,8.65-1.87,7.83-3.25,15.13-2.12,21.76,2.58,9.86,6.99,13.4,17.12,12.53,28.79-.45,6.11-1.54,12.21-2.8,18.21-3.27,15.47-3.7,31.01-1.71,46.66,1.11,8.73,2.76,17.44,3.09,26.2,.77,20.56-2.22,40.81-6.49,60.88-3.22,15.14-6.66,30.26-6.11,45.99Z"/>
          <path class="cls-33" d="M1241.79,356.37c-.55-15.73,2.89-30.85,6.11-45.99,4.27-20.07,7.26-40.32,6.49-60.88-.33-8.76-1.98-17.48-3.09-26.2-1.99-15.65-1.55-31.18,1.71-46.66,1.27-6,2.35-12.1,2.8-18.21,.87-11.67-2.68-21.8-12.53-28.79-6.63-4.7-13.92-5.84-21.76-2.58-2.68,1.11-5.78,1.18-8.65,1.87-7.58,1.83-15.05,4.26-22.72,5.53-15.77,2.63-31.74,4.59-47.63,1.67-12.86-2.36-23.73-9.02-31.21-19.86-9.11-13.22-4.73-28.27,10.06-34.75,9.87-4.32,20.13-7.77,30.36-11.2,7.38-2.47,14.93-4.49,22.51-6.26,3.51-.82,7.27-.76,10.92-.76,18.49,.02,36.98,.07,55.47,.28,5.15,.06,10.28,.78,15.43,1.02,15.12,.69,30.25,1.75,45.38,1.75,10.62,0,21.23-1.55,31.85-2.29,3.3-.23,6.63-.09,9.94-.11,9.49-.07,18.98,.05,28.46-.25,14.35-.46,28.77-.82,42.53,3.81,14.56,4.9,26.81,13.32,34.42,27.19,3.65,6.65,3.02,9.16-3.09,13.41-9.71,6.75-20.3,11.4-32.27,12.21-6.64,.45-13.29,.74-19.93,.98-8.82,.32-17.64,.73-26.46,.74-7.48,0-14.97-.73-22.45-.72-3.61,0-7.33,.57-10.8,1.57-12.73,3.67-19.32,11.79-20.03,25.4-.53,10.3-.23,20.65-.26,30.98,0,1.15,.15,2.36,.51,3.44,3.33,10,2.36,19.96,.03,29.99-2.29,9.87-4.1,19.85-6.57,29.67-2.82,11.21-1.71,22.06,1.6,32.92,2.63,8.65,4.3,17.45,3.34,26.56-.7,6.62-1.18,13.26-2.13,19.84-1.5,10.35-.57,20.6,.87,30.83,1.95,13.81,2.69,27.51-2.52,40.87-.6,1.55-1.31,3.05-1.89,4.61-2.94,7.91-8.86,12.21-16.87,14-10.07,2.25-19.88,1.23-29.35-2.65-9.65-3.95-14.04-12.35-15.67-21.73-1.79-10.27-2.01-20.82-2.91-31.24Zm49.86-87.14c2.34,4.42,2.49,9.94,6.79,14.31,1.56-4.91,.18-8.95-.37-12.87-1.22-8.73-4.77-17.33-.77-26.21,.05-.11-.1-.3-.18-.53-1.77-1.28-3.65-.95-4.73,.71-1.32,2-2.5,4.31-2.92,6.63-.53,2.9-.23,5.94-.29,8.92-.41-3.19-.82-6.37-1.22-9.52-5.18-.39-8.51,2.29-8.46,7.3,.07,6.65,1.54,13.1,4.32,19.17,.79,1.72,1.84,3.31,2.85,5.1,3.91-4.01,4.54-5.73,4.98-13.01Zm102.36-177.87c-.58,4.2,2.7,9.16,7.53,10.83,0-2.28,.09-4.41-.02-6.53-.16-3.16-1.47-5.41-4.98-5.67,3.17-1.81,2.24-4.53,1.18-6.89-2.72-6.04-7.43-10.14-13.6-12.4-2.9-1.06-5.94-.78-8.55,1.12-3.43,2.49-3.07,7.82,.66,9.87,4.62,2.54,9.29,5.01,13.93,7.52,1.29,.7,2.57,1.43,3.86,2.15Zm-106.7,299.92c-.06,1.79,.99,2.08,2.51,2.06,4-.04,9.3-4.69,10.73-9.54,1.14-3.85,.34-4.99-4-5.7,3.93-4.56,5.18-12.83,2.3-17.56-1.24-2.04-2.8-4.26-5.75-4.23-3.13,.03-5.59,1.44-6.71,4.29-3.01,7.69-5.94,15.45-6.02,23.87-.06,6.08,.84,6.87,6.92,6.82Zm4.03-214.92c-.46-1.36-.66-2.92-1.46-4.05-1.09-1.52-2.41-3.28-4.04-3.94-4.1-1.67-8.17,1.35-8.32,6.29-.11,3.76,.18,7.63,1,11.29,1.28,5.75,2.79,11.51,4.93,16.99,1.35,3.46,4.11,6.25,8.94,6.15,0-1.62,.04-2.92,0-4.21-.28-8.59-.58-17.17-.87-25.76,.98,3.64,1.71,7.38,3.03,10.91,1.33,3.58,2.18,7.53,5.99,10.95,.6-2.9,1.58-5.13,1.39-7.25-.7-8.23-1.72-16.43-2.75-24.63-.22-1.75-1.4-2.96-3.43-2.95-1.95,.01-3.16,.94-3.45,2.85-.38,2.44-.65,4.9-.96,7.36Zm.92-91.68l.05-.42c1.82,0,3.66,.14,5.47-.03,4.93-.45,9.92-.98,14.16-3.79,1.47-.97,2.75-2.75,3.23-4.41,.18-.64-1.98-2.23-3.3-2.97-5.34-3-11.39-3.19-17.25-3.57-4.39-.28-8.94,.12-13.25,1.02-5.51,1.16-6.63,8.07-2.61,10.7,1.22,.8,2.42,1.88,3.77,2.15,3.2,.65,6.49,.9,9.75,1.31Zm-134.17-9.06c-.77-.34-1.5-.73-2.27-.98-.62-.2-1.32-.35-1.96-.29-7.43,.67-14.38,2.62-20.03,7.82-.72,.66-1.63,1.5-1.76,2.36-.25,1.67-.45,3.65,.25,5.02,.32,.62,2.95,.39,4.39,.02,3.5-.91,7-1.93,10.35-3.27,3.04-1.22,6.06-2.67,8.77-4.49,1.73-1.16,3.11-3.09,2.25-6.17Zm229.8,36.45c2.65-6.04-.01-14.2-5.37-17.06-.57-.3-1.21-.56-1.84-.67-4.66-.82-8.41,3.17-7.41,7.84,1.17,5.47,7.81,10.05,14.62,9.89Zm30.41-19.52c2.98-1.82,2.36-4.28,1.97-6.17-1.24-6.03-4.59-10.93-9.33-14.79-1.06-.86-2.71-1.2-4.13-1.37-1.84-.22-3.76,.03-4.42,2.26-.57,1.91-.03,3.47,1.51,4.87,2.43,2.22,4.73,4.6,6.99,7,2.47,2.63,4.84,5.35,7.41,8.21Zm-205.8-21.71l-.5-1.15c-1.27-.33-2.54-.97-3.8-.95-5.75,.1-11.54,.07-17.24,.71-3.3,.37-5.23,3.93-4.47,6.63,.7,2.47,3.39,3.31,7.03,2.1,4.86-1.61,9.73-3.21,14.54-4.96,1.56-.57,2.96-1.58,4.44-2.39Zm84.39,268.38c.36-.01,.72-.02,1.08-.04,2.3-6.84,1.47-13.96,1.48-20.98,0-.96-1.29-1.93-1.99-2.9-.98,.9-2.2,1.65-2.86,2.74-.44,.73-.18,1.94-.1,2.92,.28,3.28,.54,6.56,.96,9.82,.37,2.83,.94,5.62,1.43,8.43Z"/>
          <path class="cls-37" d="M1292.27,84.7c-3.25-.41-6.54-.66-9.75-1.31-1.35-.27-2.55-1.36-3.77-2.15-4.02-2.63-2.9-9.54,2.61-10.7,4.31-.9,8.87-1.31,13.25-1.02,5.86,.38,11.91,.56,17.25,3.57,1.33,.74,3.49,2.34,3.3,2.97-.48,1.66-1.77,3.44-3.23,4.41-4.23,2.81-9.23,3.34-14.16,3.79-1.81,.17-3.64,.03-5.47,.03l-.05,.42Z"/>
          <path class="cls-37" d="M1291.53,179.13c.29,8.59,.59,17.17,.87,25.76,.04,1.3,0,2.59,0,4.21-4.83,.1-7.59-2.7-8.94-6.15-2.14-5.47-3.64-11.24-4.93-16.99-.82-3.66-1.11-7.53-1-11.29,.15-4.94,4.22-7.96,8.32-6.29,1.63,.66,2.95,2.42,4.04,3.94,.8,1.12,1,2.68,1.46,4.05,.06,.92,.12,1.84,.18,2.76Z"/>
          <path class="cls-37" d="M1287.32,391.29c-6.08,.06-6.98-.74-6.92-6.82,.08-8.42,3.01-16.18,6.02-23.87,1.12-2.85,3.58-4.27,6.71-4.29,2.95-.02,4.51,2.19,5.75,4.23,2.88,4.73,1.63,13-2.3,17.56-1.35,1.3-2.99,2.41-3.99,3.94-1.94,2.96-3.52,6.15-5.25,9.24Z"/>
          <path class="cls-37" d="M1394.02,91.37c-1.29-.72-2.56-1.45-3.86-2.15-4.64-2.51-9.3-4.98-13.93-7.52-3.73-2.05-4.09-7.38-.66-9.87,2.61-1.9,5.65-2.18,8.55-1.12,6.16,2.26,10.88,6.36,13.6,12.4,1.06,2.36,1.99,5.08-1.18,6.89-.84,.46-1.68,.91-2.53,1.37Z"/>
          <path class="cls-34" d="M1291.66,269.24c-.44,7.28-1.07,9-4.98,13.01-1.01-1.79-2.06-3.38-2.85-5.1-2.78-6.08-4.25-12.53-4.32-19.17-.06-5.01,3.28-7.68,8.46-7.3,.4,3.14,.81,6.33,1.22,9.52,.82,3.01,1.65,6.03,2.47,9.04Z"/>
          <path class="cls-4" d="M1158.11,75.64c.86,3.08-.52,5.01-2.25,6.17-2.71,1.82-5.73,3.28-8.77,4.49-3.35,1.34-6.85,2.37-10.35,3.27-1.44,.37-4.07,.6-4.39-.02-.71-1.37-.5-3.35-.25-5.02,.13-.86,1.04-1.7,1.76-2.36,5.65-5.2,12.6-7.15,20.03-7.82,.64-.06,1.33,.1,1.96,.29,.78,.25,1.5,.64,2.27,.98Z"/>
          <path class="cls-24" d="M1291.53,179.13c-.06-.92-.12-1.84-.18-2.76,.32-2.45,.58-4.91,.96-7.36,.3-1.92,1.5-2.84,3.45-2.85,2.02-.01,3.21,1.19,3.43,2.95,1.04,8.2,2.05,16.4,2.75,24.63,.18,2.12-.8,4.35-1.39,7.25-3.81-3.41-4.66-7.37-5.99-10.95-1.31-3.52-2.04-7.26-3.03-10.91Z"/>
          <path class="cls-24" d="M1291.66,269.24c-.82-3.01-1.65-6.03-2.47-9.04,.06-2.98-.24-6.03,.29-8.92,.43-2.32,1.61-4.62,2.92-6.63,1.09-1.65,2.96-1.99,4.73-.71,.09,.23,.23,.43,.18,.53-4,8.88-.45,17.48,.77,26.21,.55,3.92,1.94,7.96,.37,12.87-4.3-4.37-4.45-9.89-6.79-14.31Z"/>
          <path class="cls-37" d="M1387.91,112.1c-6.81,.16-13.45-4.42-14.62-9.89-1-4.67,2.76-8.66,7.41-7.84,.63,.11,1.27,.36,1.84,.67,5.36,2.86,8.02,11.01,5.37,17.06Z"/>
          <path class="cls-24" d="M1418.32,92.58c-2.57-2.86-4.94-5.58-7.41-8.21-2.26-2.4-4.56-4.77-6.99-7-1.54-1.41-2.08-2.96-1.51-4.87,.66-2.22,2.58-2.47,4.42-2.26,1.42,.17,3.07,.51,4.13,1.37,4.74,3.86,8.09,8.76,9.33,14.79,.39,1.89,1,4.35-1.97,6.17Z"/>
          <path class="cls-37" d="M1212.52,70.86c-1.47,.81-2.88,1.82-4.44,2.39-4.81,1.75-9.68,3.34-14.54,4.96-3.64,1.21-6.33,.37-7.03-2.1-.76-2.7,1.17-6.26,4.47-6.63,5.7-.64,11.49-.62,17.24-.71,1.26-.02,2.53,.62,3.8,.95l.5,1.15Z"/>
          <path class="cls-14" d="M1287.32,391.29c1.73-3.09,3.31-6.29,5.25-9.24,1-1.53,2.64-2.64,3.99-3.94,4.34,.71,5.14,1.85,4,5.7-1.44,4.85-6.74,9.5-10.73,9.54-1.53,.02-2.57-.27-2.51-2.06Z"/>
          <path class="cls-24" d="M1296.91,339.24c-.48-2.81-1.06-5.61-1.43-8.43-.42-3.26-.68-6.54-.96-9.82-.08-.98-.35-2.19,.1-2.92,.66-1.09,1.26-2.11,2.86-2.74,1.47,.65,2.53,2.06,2.13,3.19,0,7.02,.68,13.84-1.62,20.68-.36,.01-.72,.02-1.08,.04Z"/>
          <path class="cls-23" d="M1394.02,91.37c.84-.46,1.68-.91,2.53-1.37,3.51,.26,4.82,2.51,4.98,5.67,.11,2.12,.02,4.25,.02,6.53-4.83-1.67-8.11-6.63-7.53-10.83Z"/>
        </g>
        <g>
          <path class="cls-19" d="M1599.18,47.99c-1.15,7.83-5.69,13.46-8.47,20.21-5.93,14.45-27.32,27.66-49.13,19.22-4.44-1.72-8.2-5.51-11.9-8.78-3.23-2.85-6-6.22-8.84-9.49-7.17-8.27-8.94-17.93-7.36-28.51,.76-5.1,1.29-10.24,1.73-15.38,.98-11.31,7.64-19.41,18.62-22.72,21.39-6.44,39.65-.31,55.76,13.99,4.88,4.33,8.19,10.43,9.06,16.46m-48.2-23.31c-4.18,.68-8.79,1.29-13.33,2.21-5.32,1.08-8.95,4.37-10.62,9.49-.92,2.81-1.37,5.79-1.79,8.73-.64,4.43-.85,8.93-1.63,13.33-.91,5.11-.75,10.06,2.11,14.42,4,6.1,8.3,12,12.67,17.84,.76,1.02,2.42,1.67,3.76,1.9,3.76,.63,7.65,.61,11.35,1.47,10.84,2.51,24.21-5.8,28.39-15.84,1.72-4.14,3.25-8.39,5.33-12.34,4.78-9.09,.1-22.84-6.88-28.61-6.9-5.7-14.92-9.24-23.48-11.62-1.74-.48-3.58-.62-5.87-.99Z"/>
          <path class="cls-41" d="M1550.48,9.7c2.29,.38,4.13,.51,5.87,.99,8.56,2.38,16.58,5.92,23.48,11.62,6.98,5.77,11.66,19.52,6.88,28.61-2.08,3.95-3.6,8.2-5.33,12.34-4.18,10.04-17.55,18.34-28.39,15.84-3.7-.85-7.59-.83-11.35-1.47-1.34-.23-3-.88-3.76-1.9-4.37-5.84-8.67-11.75-12.67-17.84-2.87-4.37-3.03-9.31-2.11-14.42,.79-4.4,1-8.9,1.63-13.33,.42-2.94,.88-5.93,1.79-8.73,1.67-5.12,5.31-8.41,10.62-9.49,4.55-.92,9.16-1.53,13.33-2.21Zm9.08,17.06c-2.07-2.87-3.87-6.01-6.28-8.55-2.96-3.11-7.18-3.28-10.42-1.08-3,2.03-4.77,6.7-2.94,10.2,3.32,6.36,8.21,11.53,14.11,15.67,.14,.1,.28,.19,.43,.25,4.04,1.68,6.74-.12,7.09-4.49,.34-4.2-.5-8.15-1.99-12.03,3.51,2.72,6.99,5.48,10.53,8.16,1.44,1.09,2.2,.02,2.33-1.19,.4-3.72-.2-7.25-2.52-10.34-2.13-2.83-4.77-3.98-7.19-3.09-3.12,1.15-3.48,3.65-3.15,6.48Zm4.27,36.86c1.34-5.59,.62-9.95-.65-14.17-.61-2.04-2.52-3.15-4.8-2.5-1.86,.53-3.03,1.59-2.96,3.91,.07,2.43,.44,4.64,2.11,6.43,1.8,1.92,3.72,3.74,6.3,6.33Zm9.72-13.63c-.04-1.02-1.15-2.22-3.38-2.23-2.14,0-4.12,1.95-3.42,3.9,.67,1.87,2.07,3.64,3.57,4.98,.72,.64,3.33-3.45,3.22-6.66Z"/>
          <path class="cls-2" d="M1559.55,26.74c1.49,3.87,2.33,7.82,1.99,12.03-.35,4.37-3.05,6.16-7.09,4.49-.15-.06-.3-.15-.43-.25-5.9-4.14-10.79-9.31-14.11-15.67-1.83-3.5-.06-8.17,2.94-10.2,3.24-2.19,7.46-2.03,10.42,1.08,2.42,2.54,4.21,5.67,6.28,8.55v-.02Z"/>
          <path class="cls-32" d="M1559.56,26.75c-1.14-2.66,.03-5.34,3.15-6.48,2.42-.89,5.06,.26,7.19,3.09,2.32,3.08,2.91,6.62,2.52,10.34-.13,1.22-.89,2.28-2.33,1.19-3.54-2.68-7.03-5.43-10.53-8.16v.02Z"/>
          <path class="cls-2" d="M1563.84,63.61c-2.59-2.59-4.5-4.41-6.3-6.33-1.68-1.79-2.04-4-2.11-6.43-.07-2.32,1.1-3.38,2.96-3.91,2.29-.65,4.19,.46,4.8,2.5,1.27,4.22,1.99,8.58,.65,14.17Z"/>
          <path class="cls-38" d="M1573.55,49.98c.1,3.2-2.51,7.3-3.22,6.66-1.5-1.34-2.89-3.11-3.57-4.98-.7-1.95,1.27-3.91,3.42-3.9,2.22,0,3.34,1.21,3.38,2.23Z"/>
        </g>
        <g>
          <path class="cls-19" d="M1976.57,388.01c.16,.81-.1,2.44-.41,2.84-3.75,18.86-15.86,30.08-33.4,36.14-3.22,1.11-6.83,1.54-10.26,1.53-7.31-.01-14.63-.39-21.93-.9-2.24-.16-4.59-.87-6.58-1.91-15.45-8.14-23.19-21.54-24.76-38.43-2-21.55-2.12-43.15,1.24-64.61,2.59-16.55,2.39-33.08,.44-49.66-1.81-15.33-3.71-30.66-5.26-46.01-.83-8.26-1-16.58-1.46-24.88-.35-6.21-2.4-11.62-7.08-15.95-2.64-2.43-5.61-3.51-9.13-2.93-2.12,.35-4.21,.95-6.32,1.39-7.97,1.66-13.71,5.84-17.4,13.39-2.45,5.01-6.25,9.35-9.35,14.05-1.46,2.2-2.75,4.52-4.04,6.83-3.07,5.49-5.84,11.17-9.2,16.47-5.25,8.3-12.55,14.19-22.28,16.46-11.97,2.79-19.21,10.34-21.83,22-2.36,10.5-4.29,21.14-5.68,31.82-1.92,14.82-3.46,29.7-4.59,44.59-.93,12.25-1.07,24.56-1.5,36.84-.39,11.16-4.01,21.47-8.34,31.56-1.96,4.56-5.84,7.18-10.44,8.64-11.65,3.69-23.52,4.29-35.44,1.69-5-1.09-9.98-2.57-14.73-4.46-3.71-1.48-7.84-3.02-8.6-7.98-.08-.53-.84-.99-1.34-1.42-6.91-5.88-9.39-13.78-10.54-22.41-1.76-13.29-1.01-26.51,.62-39.74,1.26-10.22,2.25-20.46,3.44-30.69,1.95-16.68-.16-33.18-2.29-49.64-2.07-15.96-5.51-31.76-6.98-47.76-1.98-21.65-3.57-43.38-1.79-65.19,1.69-20.7,4.36-41.26,8.33-61.63,1.1-5.67,2.96-11.21,4.83-16.69,2.08-6.07,5.76-11.16,10.56-15.47,6.6-5.93,14.03-7.15,22.23-4.11,1.86,.69,3.84,1.42,5.32,2.66,6.74,5.64,13.73,11.07,19.87,17.32,6.94,7.07,7.75,16.6,8.31,25.99,.53,9-.58,17.89-1.48,26.83-.64,6.41-.47,12.91-.37,19.37,.03,2.2,.95,4.38,1.74,7.73,2.25-3.98,3.91-6.83,5.5-9.72,4.58-8.33,9.46-16.38,17.2-22.33,4.84-3.72,10-6.55,16.05-7.54,4.06-.66,7.61-2.28,10.7-4.96,8.79-7.61,17.95-14.85,26.31-22.91,14.97-14.42,32.34-24.33,52.45-29.29,12.62-3.11,25.47-5.07,38.51-2.78,3.73,.66,7.35,1.99,11,3.07,5.72,1.69,11.37,3.59,17.14,5.09,6.68,1.74,12.31,5.06,16.52,10.48,10.34,13.28,17.98,27.88,20.8,44.64,.63,3.74,.55,7.62,.5,11.43-.2,17.28-.31,34.56-.84,51.82-.64,20.92-1.59,41.83-2.57,62.73-.86,18.3-.27,36.56,1.47,54.76,1.46,15.18,3.62,30.29,5.32,45.45,.67,5.94,.89,11.92,1.42,17.88,.09,1,.19,2.7,.14,3.8,.92,5.69,.26,9.02,.26,14.67Zm-16.65-231.7l.7-.04c-.44-6.93-.88-13.87-1.34-20.8-1.17-17.8-8.53-33.09-19.28-46.95-3.04-3.92-6.98-6.39-12-7.36-3.87-.74-7.62-2.14-11.4-3.31-1.58-.49-3.11-1.12-4.65-1.74-6.36-2.59-12.91-3.79-19.79-3.01-7.39,.84-14.95,.9-22.14,2.57-18.44,4.28-34.38,13.35-48.15,26.44-7.8,7.42-16.1,14.32-24.35,21.25-5.21,4.38-10.83,8.05-17.86,9.21-7.17,1.18-12.88,5.14-17.14,10.93-3.63,4.92-7.01,10.02-10.29,15.18-2.59,4.07-4.95,8.27-9.36,10.72-5.02,2.79-9.64,1.84-12.13-3.31-1.98-4.09-3.8-8.67-4.03-13.11-.42-8.07,.34-16.2,.71-24.3,.26-5.78,.83-11.55,.98-17.33,.07-2.61-.7-5.23-.84-7.86-.3-5.64-2.05-10.83-5.58-15.1-4.98-6.03-10.68-11.47-17.49-15.41-5.49-3.17-11.11-2.84-14.86,1.88-2.24,2.82-4.46,5.79-5.96,9.03-3.57,7.7-4.68,16.12-6.02,24.4-1.29,7.98-2.26,16.01-3.23,24.03-1.01,8.35-2.4,16.7-2.66,25.09-.55,17.56-.56,35.14,1.71,52.64,.98,7.53,1.36,15.14,2.35,22.67,2.1,16.02,4.91,31.96,6.5,48.03,1.27,12.87-.04,25.79-2.11,38.59-1.65,10.25-3.52,20.51-4.36,30.84-.94,11.55-1.11,23.18-1.02,34.77,.04,5.2,1.31,10.45,2.43,15.58,1.42,6.49,6.77,10,11.53,13.82,.91,.73,2.49,.72,3.78,.89,6.88,.87,13.8,1.5,20.65,2.56,6.52,1,12.8,.44,19.15-1.22,3.25-.85,5.59-2.58,6.54-5.47,2.11-6.4,4.28-12.86,5.45-19.46,1.06-5.98,.82-12.19,1.15-18.3,.68-12.4,1.33-24.79,2.07-37.19,.21-3.46,.64-6.91,1.08-10.35,1.23-9.65,2.49-19.29,3.78-28.93,1.25-9.3,2.19-18.64,4.92-27.71,4.05-13.42,11.84-23.13,25.59-27.39,6.81-2.11,13.06-5.25,17.05-11.33,3.44-5.24,6.18-10.94,9.28-16.41,2.03-3.58,4.02-7.2,6.3-10.61,3.48-5.22,7.47-10.11,10.75-15.45,3.91-6.37,9.07-10.95,16.21-13.12,3.93-1.19,7.96-2.06,11.94-3.08,10.16-2.6,17.63,1.63,23.94,9.19,5.17,6.19,6.89,13.4,6.96,21.21,.04,4.32-.27,8.67,.17,12.96,1.08,10.66,2.64,21.28,3.72,31.94,1.16,11.51,2.14,23.03,2.94,34.57,.99,14.27-.01,28.5-2.07,42.62-1.58,10.82-2.85,21.63-2.66,32.57,.14,8.11,.6,16.22,.8,24.34,.2,8.44,2.63,16.28,6.36,23.73,.94,1.87,2.42,3.62,4.04,4.95,2.81,2.31,5.97,4.18,8.88,6.36,2.11,1.58,4.38,2.22,6.98,2.04,4.13-.29,8.42-1.33,12.35-.57,5.96,1.17,11.2-.38,16.36-2.53,10.42-4.36,18.43-11.41,21.27-22.7,1.73-6.88,1.99-14.07,1.48-21.21-.24-3.3-.55-6.59-.74-9.89-.39-6.61-.66-13.23-1.13-19.83-.24-3.45-.03-7.21-1.35-10.26-2.89-6.7-2.58-13.59-2.61-20.53-.03-5.82,.18-11.64-.11-17.45-.35-6.92-1.35-13.81-1.62-20.73-.18-4.6,.56-9.24,.67-13.86,.41-16.58,.75-33.17,1.06-49.75,.13-6.65,.04-13.3,.2-19.94,.1-4.29,.76-8.58,.67-12.86-.15-6.62-.72-13.22-1.12-19.83Z"/>
          <path class="cls-29" d="M1961.04,176.14c.09,4.28-.56,8.57-.67,12.86-.16,6.64-.07,13.29-.2,19.94-.31,16.58-.66,33.17-1.06,49.75-.11,4.62-.85,9.26-.67,13.86,.27,6.92,1.27,13.81,1.62,20.73,.29,5.8,.08,11.63,.11,17.45,.03,6.94-.28,13.83,2.61,20.53,1.32,3.05,1.11,6.8,1.35,10.26,.46,6.6,.73,13.22,1.13,19.83,.2,3.3,.51,6.59,.74,9.89,.51,7.14,.25,14.33-1.48,21.21-2.84,11.29-10.85,18.33-21.27,22.7-5.15,2.16-10.39,3.7-16.36,2.53-3.93-.77-8.22,.28-12.35,.57-2.6,.18-4.87-.46-6.98-2.04-2.91-2.18-6.07-4.05-8.88-6.36-1.62-1.33-3.1-3.08-4.04-4.95-3.74-7.45-6.16-15.29-6.36-23.73-.19-8.11-.66-16.22-.8-24.34-.19-10.94,1.08-21.75,2.66-32.57,2.06-14.12,3.07-28.34,2.07-42.62-.8-11.54-1.78-23.07-2.94-34.57-1.08-10.66-2.64-21.28-3.72-31.94-.43-4.28-.13-8.63-.17-12.96-.07-7.81-1.79-15.02-6.96-21.21-6.31-7.55-13.78-11.79-23.94-9.19-3.98,1.02-8.01,1.89-11.94,3.08-7.15,2.17-12.31,6.75-16.21,13.12-3.27,5.34-7.26,10.23-10.75,15.45-2.28,3.42-4.26,7.04-6.3,10.61-3.11,5.46-5.84,11.16-9.28,16.41-3.99,6.08-10.24,9.22-17.05,11.33-13.75,4.26-21.54,13.96-25.59,27.39-2.74,9.07-3.68,18.41-4.92,27.71-1.29,9.64-2.55,19.28-3.78,28.93-.44,3.44-.87,6.89-1.08,10.35-.74,12.39-1.39,24.79-2.07,37.19-.34,6.11-.1,12.32-1.15,18.3-1.17,6.61-3.34,13.07-5.45,19.46-.95,2.89-3.29,4.63-6.54,5.47-6.35,1.65-12.63,2.22-19.15,1.22-6.85-1.05-13.77-1.69-20.65-2.56-1.29-.16-2.87-.15-3.78-.89-4.75-3.83-10.1-7.34-11.53-13.82-1.13-5.13-2.39-10.38-2.43-15.58-.09-11.59,.08-23.22,1.02-34.77,.84-10.33,2.71-20.59,4.36-30.84,2.06-12.81,3.38-25.73,2.11-38.59-1.59-16.07-4.4-32.01-6.5-48.03-.99-7.53-1.37-15.14-2.35-22.67-2.27-17.5-2.26-35.08-1.71-52.64,.26-8.38,1.65-16.74,2.66-25.09,.97-8.02,1.94-16.06,3.23-24.03,1.34-8.29,2.45-16.7,6.02-24.4,1.5-3.24,3.72-6.21,5.96-9.03,3.75-4.72,9.37-5.05,14.86-1.88,6.81,3.93,12.5,9.38,17.49,15.41,3.54,4.28,5.29,9.47,5.58,15.1,.14,2.63,.91,5.25,.84,7.86-.15,5.78-.71,11.55-.98,17.33-.37,8.1-1.13,16.23-.71,24.3,.23,4.45,2.05,9.02,4.03,13.11,2.49,5.16,7.11,6.1,12.13,3.31,4.41-2.45,6.77-6.65,9.36-10.72,3.28-5.16,6.66-10.26,10.29-15.18,4.27-5.79,9.98-9.75,17.14-10.93,7.03-1.16,12.64-4.83,17.86-9.21,8.25-6.93,16.55-13.83,24.35-21.25,13.77-13.09,29.71-22.16,48.15-26.44,7.19-1.67,14.75-1.73,22.14-2.57,6.88-.78,13.43,.43,19.79,3.01,1.53,.62,3.07,1.25,4.65,1.74,3.78,1.17,7.53,2.56,11.4,3.31,5.02,.97,8.96,3.43,12,7.36,10.75,13.87,18.1,29.15,19.28,46.95,.46,6.93,.89,13.87,1.34,20.8m-16.49,100.14c1.31-2.7,2.71-4.48,3.04-6.45,.92-5.48,1.83-11.03,1.95-16.57,.14-6.41-.34-12.85-.97-19.24-.33-3.36-.87-6.86-3.59-9.48-3.81-3.69-10.03-2.42-11.4,2.67-.7,2.6-.75,5.51-.45,8.21,.63,5.52,1.7,10.99,2.57,16.49,1.13,7.15,2.98,14.1,6.01,20.7,.46,1,1.36,1.8,2.83,3.68Zm-3.93,126.3c0-1.49,.12-2.99-.03-4.47-.21-2.12-.38-4.29-1.01-6.3-.63-2.01-1.52-4.05-2.77-5.73-2.67-3.58-9.93-4.81-12.14,2-.55,1.69-.95,3.51-.98,5.28-.09,5.46-.2,10.94,.15,16.39,.24,3.73,1.1,7.44,1.94,11.09,.6,2.64,2.61,3.51,5.26,3.47,2.96-.05,4.43-1.95,5.7-4.12,3.18-5.44,3.47-11.54,3.88-17.61Zm-82.17-281.53c.36-.08,1.42-.1,2.25-.56,5.47-3.03,11.55-3.52,17.54-4.62,4.33-.8,8.61-2.26,12.64-4.03,1.86-.82,4.99-1.56,4.73-4.41-.25-2.83-3.04-3.63-5.42-4.37-9.07-2.84-18.24-2.54-27.34-.42-5.11,1.19-8.78,4.47-10.56,9.55-1.57,4.49,1.2,8.9,6.16,8.87Zm-160.09,39.69c1.59-2.47,2.94-3.98,3.59-5.74,1.08-2.89,1.93-5.92,2.49-8.96,1.02-5.46,1.97-10.96,2.53-16.48,.35-3.47-1.92-6.13-4.67-6.52-2.87-.4-5.33,1.29-6.33,4.97-.72,2.66-.53,5.56-1.2,8.24-1.58,6.28-.73,12.42,.73,18.52,.43,1.8,1.61,3.41,2.86,5.97Zm131.4-20.55c-.89-.56-1.39-1.13-1.69-1.04-8.25,2.42-16.05,5.83-22.91,11.08-2.65,2.03-3.08,4.78-1.55,6.92,1.52,2.13,4.96,2.75,7.55,.92,7.01-4.96,13.7-10.29,18.6-17.89Zm-131.58,286.99c-.77-8.28-3.46-15.48-6.65-22.48-.4-.87-2.74-1.56-3.86-1.23-1.35,.39-2.81,1.76-3.39,3.07-.53,1.2-.36,3.08,.2,4.33,1.9,4.2,3.91,8.37,6.29,12.31,1.35,2.24,3.57,3.88,7.4,4Zm6.63-20.97c-4.71-.02-7.05,3.21-5.06,7.24,1.8,3.65,4.24,7,6.53,10.39,.51,.75,1.52,1.38,2.42,1.6,1.34,.33,3.19,.8,4.07,.16,.88-.64,1.42-2.73,1.08-3.88-1.29-4.37-3.01-8.61-4.56-12.91-.82-2.29-2.6-2.78-4.47-2.6Zm-19.1-245.59l.92-.07c.46-1.34,1.13-2.65,1.35-4.03,1.1-7.15,2.08-14.32,3.09-21.49,.35-2.44,.85-4.88,.93-7.34,.03-.88-.95-2.53-1.5-2.55-1.32-.03-3.13,.31-3.87,1.22-.97,1.17-1.42,3.02-1.52,4.61-.46,7.09-.89,14.18-.94,21.28-.02,2.79,1,5.58,1.55,8.37Zm262.61,251.64c2.32-.83,3.98-2.27,4.42-4.73,.72-4.02,1.43-8.05,1.84-12.1,.28-2.78,.05-5.61,.08-8.41,.02-2.22-.82-4.09-3.04-4.49-2.38-.43-3.54,1.33-4,3.45-.34,1.59-.75,3.22-.72,4.83,.04,2.45,.51,4.88,.67,7.33,.3,4.62,.5,9.26,.75,14.12Zm-9.98-286.65c.45-2.75-1.21-4.58-3.63-4.55-2.36,.03-5.08,2.78-4.75,5.43,.56,4.36,2.71,8.08,5.94,11.08,.96,.88,2.41,.07,2.42-1.27,.04-3.56,.01-7.12,.01-10.68Zm-253.17,97.13c0-.5,0-.99,0-1.49,.01-2.05,.01-4.17-2.72-4.45-2.63-.27-3.17,1.68-3.76,3.69-1.44,4.87,.47,9.37,1.44,13.97,.1,.49,.96,1.27,1.18,1.19,.65-.25,1.5-.78,1.65-1.36"/>
          <path class="cls-42" d="M1944.13,256.41c-1.47-1.87-2.37-2.68-2.83-3.68-3.02-6.6-4.88-13.54-6.01-20.7-.87-5.5-1.94-10.97-2.57-16.49-.31-2.7-.25-5.61,.45-8.21,1.37-5.08,7.59-6.36,11.4-2.67,2.71,2.62,3.26,6.12,3.59,9.48,.63,6.39,1.11,12.83,.97,19.24-.12,5.54-1.03,11.09-1.95,16.57-.33,1.96-1.73,3.75-3.04,6.45Z"/>
          <path class="cls-42" d="M1940.2,382.71c-.4,6.06-.69,12.17-3.88,17.61-1.27,2.17-2.75,4.07-5.7,4.12-2.65,.04-4.66-.83-5.26-3.47-.84-3.66-1.7-7.37-1.94-11.09-.35-5.44-.24-10.93-.15-16.39,.03-1.77,.44-3.58,.98-5.28,2.2-6.81,9.47-5.57,12.14-2,1.25,1.68,2.15,3.72,2.77,5.73,.63,2.01,.8,4.18,1.01,6.3,.15,1.48,.03,2.98,.03,4.47Z"/>
          <path class="cls-42" d="M1858.03,101.18c-4.96,.03-7.74-4.38-6.16-8.87,1.78-5.08,5.45-8.36,10.56-9.55,9.1-2.12,18.28-2.41,27.34,.42,2.38,.75,5.17,1.54,5.42,4.37,.25,2.85-2.87,3.59-4.73,4.41-4.03,1.77-8.31,3.23-12.64,4.03-5.99,1.1-12.07,1.59-17.54,4.62-.82,.46-1.89,.47-2.25,.56Z"/>
          <path class="cls-42" d="M1697.94,140.87c-1.25-2.55-2.43-4.17-2.86-5.97-1.46-6.1-2.31-12.24-.73-18.52,.67-2.68,.48-5.58,1.2-8.24,.99-3.68,3.46-5.37,6.33-4.97,2.76,.38,5.02,3.05,4.67,6.52-.55,5.52-1.51,11.02-2.53,16.48-.57,3.04-1.41,6.06-2.49,8.96-.66,1.76-2.01,3.27-3.59,5.74Z"/>
          <path class="cls-42" d="M1829.34,120.32c-4.89,7.6-11.59,12.93-18.6,17.89-2.59,1.84-6.03,1.22-7.55-.92-1.53-2.14-1.09-4.89,1.55-6.92,6.85-5.26,14.66-8.66,22.91-11.08,.31-.09,.81,.48,1.69,1.04Z"/>
          <path class="cls-12" d="M1697.75,407.32c-3.83-.12-6.05-1.76-7.4-4-2.38-3.94-4.39-8.11-6.29-12.31-.57-1.26-.74-3.13-.2-4.33,.58-1.31,2.04-2.68,3.39-3.07,1.12-.33,3.46,.36,3.86,1.23,3.19,7,5.88,14.2,6.65,22.48Z"/>
          <path class="cls-35" d="M1704.38,386.34c1.87-.18,3.65,.31,4.47,2.6,1.54,4.3,3.26,8.54,4.56,12.91,.34,1.15-.2,3.24-1.08,3.88-.88,.63-2.73,.16-4.07-.16-.89-.22-1.91-.85-2.42-1.6-2.29-3.39-4.73-6.74-6.53-10.39-1.99-4.03,.35-7.26,5.06-7.24Z"/>
          <path class="cls-25" d="M1685.28,140.75c-.55-2.79-1.57-5.58-1.55-8.37,.05-7.1,.48-14.19,.94-21.28,.1-1.59,.56-3.43,1.52-4.61,.75-.9,2.55-1.25,3.87-1.22,.55,.01,1.53,1.67,1.5,2.55-.08,2.45-.58,4.89-.93,7.34-1.02,7.16-2,14.33-3.09,21.49-.21,1.38-.89,2.69-1.35,4.03l-.92,.07Z"/>
          <path class="cls-28" d="M1947.9,392.4c-.25-4.87-.45-9.5-.75-14.12-.16-2.45-.62-4.89-.67-7.33-.03-1.61,.37-3.24,.72-4.83,.46-2.12,1.62-3.88,4-3.45,2.21,.4,3.06,2.27,3.04,4.49-.03,2.81,.21,5.64-.08,8.41-.42,4.06-1.12,8.09-1.84,12.1-.44,2.46-2.1,3.9-4.42,4.73Z"/>
          <path class="cls-13" d="M1937.91,105.74c0,3.56,.03,7.12-.01,10.68-.02,1.34-1.47,2.15-2.42,1.27-3.24-2.99-5.38-6.71-5.94-11.08-.34-2.64,2.38-5.4,4.75-5.43,2.43-.03,4.08,1.8,3.63,4.55Z"/>
          <path class="cls-27" d="M1682.52,214.42c-.14,.58-1,1.11-1.65,1.36-.22,.09-1.08-.7-1.18-1.19-.96-4.6-2.88-9.09-1.44-13.97,.59-2.01,1.13-3.96,3.76-3.69,2.74,.28,2.73,2.4,2.72,4.45,0,.5,0,.99,0,1.49"/>
        </g>
      </g>
    </g>
  </g>
</svg>