<?xml version="1.0" encoding="UTF-8"?>
<svg xmlns="http://www.w3.org/2000/svg" xmlns:xlink="http://www.w3.org/1999/xlink" viewBox="0 0 1464.77 384.86">
  <defs>
    <style>
      .cls-1 {
        fill: #ee91f6;
      }

      .cls-2 {
        fill: #121312;
      }

      .cls-3 {
        fill: #6fab66;
      }

      .cls-4 {
        fill: #54dafe;
      }

      .cls-5 {
        fill: #14100f;
      }

      .cls-6 {
        fill: #f4a757;
      }

      .cls-7 {
        fill: #121615;
      }

      .cls-8 {
        fill: #54d9fe;
      }

      .cls-9 {
        fill: #121210;
      }

      .cls-10 {
        fill: #70ab66;
      }

      .cls-11 {
        fill: #171012;
      }

      .cls-12 {
        fill: #da1be9;
      }

      .cls-13 {
        fill: #151010;
      }

      .cls-14 {
        fill: #ee8ff6;
      }

      .cls-15 {
        fill: #55dafe;
      }

      .cls-16 {
        fill: #100f0b;
      }

      .cls-17 {
        fill: #08b2e4;
      }

      .cls-18 {
        fill: #0f0d0a;
      }

      .cls-19 {
        fill: #121412;
      }

      .cls-20 {
        fill: #121716;
      }

      .cls-21 {
        fill: #55d9fd;
      }

      .cls-22 {
        filter: url(#outer-glow-1);
      }

      .cls-23 {
        fill: #07bff9;
      }

      .cls-24 {
        fill: #191015;
      }

      .cls-25 {
        fill: #54814d;
      }

      .cls-26 {
        fill: #12100d;
      }

      .cls-27 {
        fill: #e8871f;
      }

      .cls-28 {
        fill: #f4a857;
      }

      .cls-29 {
        fill: #13100e;
      }

      .cls-30 {
        fill: #121311;
      }

      .cls-31 {
        fill: #0f0e0a;
      }

      .cls-32 {
        fill: #121413;
      }

      .cls-33 {
        fill: #0e0d09;
      }

      .cls-34 {
        fill: #0e0c09;
      }
    </style>
    <filter id="outer-glow-1" filterUnits="userSpaceOnUse">
      <feOffset dx="0" dy="0"/>
      <feGaussianBlur result="blur" stdDeviation="17.01"/>
      <feFlood flood-color="#7ead79" flood-opacity=".85"/>
      <feComposite in2="blur" operator="in"/>
      <feComposite in="SourceGraphic"/>
    </filter>
  </defs>
  <g id="_лой_1" data-name="Слой 1"/>
  <g id="_лой_2" data-name="Слой 2">
    <g id="_лой_1-2" data-name="Слой 1">
      <g class="cls-22">
        <g>
          <path class="cls-26" d="M195.84,0c4.71,0,9.43,0,14.14,.01,14.61,.95,28.39,4.88,41.79,10.75,10.69,4.68,19.28,11.83,26.53,20.67,10.43,12.73,16.26,27.37,16.96,43.92,.24,5.65,.9,11.32,.61,16.94-.54,10.17-5.21,18.85-11.38,26.65-4.74,5.99-14.5,7.81-21.43,4.47-5.4-2.59-9.61-6.56-12.74-11.63-1.75-2.82-3.65-5.64-4.82-8.71-3.04-7.97-9.46-12.81-16.11-17.04-6.43-4.09-14-5.16-21.66-4.38-5.47,.55-10.98,.97-16.37,1.98-7.69,1.45-14.89,.23-21.91-2.85-6.76-2.96-13.66-4.93-21.2-4.96-18.87-.08-36.77,9.25-43.48,28.71-4.68,13.57-5.88,27.17-2.97,41.2,1.25,6.04,4.33,10.98,8.66,15.38,11.69,.1,23.1-1.43,33.92-6.5,11.73-5.5,23.72-10.47,35.39-16.08,9.36-4.5,19.03-4.3,28.84-3.06,19.43,2.46,37.1,10.18,52.74,21.32,23.54,16.78,36.53,39.48,34.21,69.59-.8,10.41,.07,20.94,.2,31.42,.16,12.32,.53,24.65,.46,36.97-.06,9.48-.52,18.97-1.08,28.44-.4,6.71-3.39,12.42-7.83,17.43-4.47,5.05-9.61,9.25-15.67,12.19-10.3,5-20.67,9.84-31.03,14.73-8.54,4.03-17.43,6.44-26.99,6.01-8.85-.4-17.58,.77-26.37,1.8-20.61,2.42-41.12,2.21-61.51-2.84-5.82-1.44-12.37-1.41-18.33-.46-15.47,2.49-30.11,.32-44.5-5.42-8.79-3.51-17.67-6.81-26.64-9.82-17.93-6.02-28.58-18.67-34.01-36.32-3.51-11.41-2.8-22.73,1.06-33.84,3.58-10.32,11.11-17.2,20.65-22.02,11.78-5.96,24.19-8.21,37.31-5.99,5.08,.86,10.25,1.32,15.24,2.56,11.56,2.88,19.53,10.26,24.79,20.78,1.71,3.42,3.49,6.8,5.27,10.18,5.54,10.46,15.09,13.94,26.06,14.64,4.81,.31,9.66,.07,14.5,.04,7.66-.04,14.81,1.83,21.46,5.62,3.18,1.81,6.33,3.67,9.55,5.41,5.17,2.78,10.62,3.57,16.42,2.39,10.15-2.07,19.57-5.32,26.14-14.08,3.66-4.88,6.28-10.09,7.16-16.23,.82-5.76,2.56-11.18,5.54-16.39,3.27-5.73,6.36-11.92,7.69-18.3,1.87-8.92-.35-17.67-6.5-24.73-2.98-3.41-7.56-4-11.98-4.06-5.33-.07-10.66-.03-15.99-.07-6.18-.05-11.53-2.14-15.26-7.16-3.67-4.94-8.53-6.45-14.38-6.43-17.41,.04-34.51,2.06-51.27,6.97-21.47,6.28-42.74,5.43-63.59-2.73-10.16-3.98-19.37-9.71-27.07-17.47-9.73-9.81-13.14-22.49-15.12-35.65-3.45-22.87-.12-45.12,6.44-67.04,2.95-9.86,5.9-19.71,8.8-29.58,.37-1.26,.76-2.64,.63-3.91-1.66-15.66,5-27.71,16.25-37.81,14.72-13.22,31.66-19.18,51.46-15.78,5.91,1.01,11.81,2.04,17.7,3.17,9.88,1.89,19.66,.24,29.27-1.49,9.45-1.7,18.68-4.6,28-6.99,5.79-1.48,11.57-3,17.35-4.49ZM26.47,148.03c.54,5.96,.82,11.96,1.67,17.87,1.74,12.13,5.71,23.24,15.54,31.45,15.3,12.75,33.07,18.74,52.78,19.61,9.47,.42,18.4-2.09,27.44-4.38,10.29-2.6,20.69-4.9,31.16-6.63,7.19-1.19,14.57-1.27,21.87-1.68,8.36-.48,15.88,1.29,21.34,8.38,1.81,2.36,4.36,3.52,7.38,3.62,6.65,.2,13.31,.32,19.95,.72,7.11,.43,13.79,2.88,17.68,8.89,8.07,12.48,10.94,25.73,4.28,40.16-4.22,9.15-7.82,18.57-8.82,28.9-.68,7.05-4.11,13.31-9.47,18.27-9.08,8.41-19.87,13.25-32.03,14.96-4.07,.57-8.27,.69-12.38,.45-6.56-.38-11.89-4.09-17.25-7.41-7.47-4.62-15.45-6.82-24.23-6.29-3.65,.22-7.34,.29-10.99,.08-14.29-.82-26.22-5.86-33.42-19.14-1.66-3.07-3.29-6.18-5.19-9.1-1.99-3.05-4.08-6.09-6.49-8.8-5.3-5.94-12.63-7.66-20.05-9.18-13.97-2.86-27.47-1.95-40.32,4.71-7.01,3.63-12.79,8.52-15.8,16-9.79,24.3,3.87,49.62,23.76,57.52,13.75,5.46,27.73,10.31,41.63,15.38,8.33,3.04,16.82,3.21,25.58,2.04,8.55-1.15,17.24-2.22,25.79,.18,8.56,2.41,17.25,3.5,26.13,3.35,8.49-.14,17.03,.29,25.48-.37,12.41-.96,24.7-3.88,37.25-1.72,.8,.14,1.66,0,2.49-.11,7.15-.92,13.99-2.93,20.48-6.04,9.59-4.59,19.21-9.14,28.65-14.04,8.63-4.48,16.19-10.28,18.32-20.51,1.11-5.35,1.75-10.86,1.96-16.32,.37-9.65,.38-19.33,.29-28.99-.06-6.31-.64-12.62-.88-18.94-.33-8.64-.62-17.28-.82-25.93-.19-8.13,.58-16.37-.52-24.36-2.63-19.19-12.78-34.34-28.55-45.05-10.54-7.16-21.94-13.25-34.31-17.08-16.14-4.99-31.82-7.04-47.78,1.88-11.41,6.38-23.89,10.87-35.97,16.03-7.28,3.12-14.93,4.81-22.89,3.79-2.88-.37-6.24-.93-8.36-2.65-5.83-4.73-10.83-10.33-12.9-17.89-3.77-13.69-2.89-27.35,.61-40.91,2.3-8.91,5.58-17.44,11.73-24.52,13.08-15.06,30.3-18.45,48.98-16.52,5.67,.58,11.1,3.3,16.68,4.85,3.49,.97,7.11,2.35,10.61,2.2,6.95-.3,13.86-1.63,20.8-2.37,17.24-1.84,32.04,2.03,41.44,18.12,2.6,4.45,5.12,8.95,7.49,13.52,2.51,4.83,5.83,8.91,10.36,11.93,4.2,2.79,9.76,2.3,13.13-1.49,4.59-5.15,8.02-11,9.29-17.93,1.6-8.69-.22-17.18-1.05-25.79-1.48-15.39-8.89-27.67-18.8-38.82-4.81-5.41-10.54-9.6-17.07-12.81-12.23-6.02-25.15-9.33-38.63-11.09-9.18-1.2-17.88-.16-26.5,2.89-3.91,1.38-7.92,2.5-11.88,3.74-14.23,4.48-28.79,7.29-43.71,6.56-8.59-.42-17.18-1.96-25.63-3.67-8.36-1.69-16.65-1.44-24.78,.23-12.02,2.47-21.62,9.43-29.22,18.84-6.94,8.59-10.42,18.4-8.15,29.7,.35,1.73,.15,3.68-.25,5.43-1.58,6.79-3.24,13.57-5.07,20.29-5,18.34-9.28,36.78-9.85,55.97Z"/>
          <path class="cls-12" d="M26.47,148.03c.57-19.18,4.84-37.63,9.85-55.97,1.84-6.72,3.49-13.5,5.07-20.29,.41-1.74,.6-3.7,.25-5.43-2.27-11.3,1.21-21.11,8.15-29.7,7.61-9.41,17.2-16.37,29.22-18.84,8.13-1.67,16.42-1.93,24.78-.23,8.45,1.71,17.04,3.25,25.63,3.67,14.92,.73,29.48-2.08,43.71-6.56,3.96-1.25,7.97-2.36,11.88-3.74,8.62-3.04,17.31-4.09,26.5-2.89,13.49,1.76,26.4,5.07,38.63,11.09,6.53,3.21,12.26,7.4,17.07,12.81,9.91,11.15,17.32,23.43,18.8,38.82,.83,8.61,2.64,17.1,1.05,25.79-1.27,6.93-4.7,12.78-9.29,17.93-3.37,3.79-8.93,4.28-13.13,1.49-4.53-3.01-7.85-7.1-10.36-11.93-2.37-4.57-4.89-9.07-7.49-13.52-9.4-16.09-24.2-19.96-41.44-18.12-6.94,.74-13.85,2.07-20.8,2.37-3.5,.15-7.12-1.23-10.61-2.2-5.59-1.55-11.02-4.26-16.68-4.85-18.69-1.93-35.91,1.47-48.98,16.52-6.15,7.08-9.43,15.61-11.73,24.52-3.5,13.56-4.38,27.21-.61,40.91,2.08,7.56,7.08,13.16,12.9,17.89,2.12,1.72,5.48,2.28,8.36,2.65,7.95,1.02,15.6-.68,22.89-3.79,12.07-5.17,24.55-9.65,35.97-16.03,15.96-8.92,31.64-6.88,47.78-1.88,12.37,3.83,23.76,9.92,34.31,17.08,15.78,10.71,25.92,25.87,28.55,45.05,1.1,7.99,.33,16.24,.52,24.36,.2,8.64,.49,17.29,.82,25.93,.24,6.31,.82,12.62,.88,18.94,.1,9.66,.08,19.34-.29,28.99-.21,5.46-.84,10.97-1.96,16.32-2.13,10.23-9.69,16.03-18.32,20.51-9.44,4.9-19.05,9.45-28.65,14.04-6.49,3.1-13.33,5.12-20.48,6.04-.82,.11-1.69,.25-2.49,.11-12.55-2.16-24.84,.76-37.25,1.72-8.45,.65-16.98,.23-25.48,.37-8.88,.15-17.57-.94-26.13-3.35-8.55-2.41-17.24-1.33-25.79-.18-8.75,1.17-17.25,1-25.58-2.04-13.9-5.07-27.89-9.92-41.63-15.38-19.89-7.9-33.55-33.22-23.76-57.52,3.01-7.48,8.8-12.37,15.8-16,12.85-6.66,26.35-7.58,40.32-4.71,7.41,1.52,14.75,3.23,20.05,9.18,2.42,2.71,4.51,5.75,6.49,8.8,1.9,2.92,3.53,6.03,5.19,9.1,7.19,13.28,19.13,18.32,33.42,19.14,3.65,.21,7.34,.14,10.99-.08,8.78-.53,16.76,1.66,24.23,6.29,5.36,3.32,10.69,7.03,17.25,7.41,4.11,.24,8.31,.12,12.38-.45,12.16-1.71,22.95-6.55,32.03-14.96,5.36-4.96,8.78-11.22,9.47-18.27,1-10.33,4.6-19.75,8.82-28.9,6.66-14.43,3.79-27.68-4.28-40.16-3.89-6.01-10.56-8.46-17.68-8.89-6.64-.4-13.3-.51-19.95-.72-3.02-.09-5.57-1.26-7.38-3.62-5.46-7.09-12.98-8.86-21.34-8.38-7.3,.42-14.69,.5-21.87,1.68-10.47,1.73-20.87,4.03-31.16,6.63-9.05,2.28-17.98,4.79-27.44,4.38-19.71-.87-37.48-6.86-52.78-19.61-9.84-8.2-13.8-19.32-15.54-31.45-.85-5.92-1.13-11.91-1.67-17.87Zm56.87,154.17c-1.75-3.48-2.97-7.18-5.2-10.09-4.17-5.42-9.41-9.85-15.51-13.04-4.61-2.41-9.39-3.17-14.19-.22-4.57,2.81-4.94,8.44-.5,11.28,4.04,2.59,8.25,4.92,12.48,7.2,4.07,2.19,8.12,4.53,12.43,6.11,3.03,1.11,6.6,2.56,10.49-1.23Zm182.57-6.81c.11-7.59-3.32-12-8.43-12.29-5.06-.28-9.13,3.5-9.52,9.35-.53,7.93-.76,15.87-1.07,23.81-.11,2.68-.3,5.7,2.97,6.64,2.89,.83,4.99-1.17,6.89-3.11,.35-.35,.65-.75,.95-1.15,5.41-7.33,6.18-16.21,8.23-23.25Zm-6.32-83.96c.14-1.57,.34-2.54,.3-3.5-.29-8.73-12.49-20.98-18.77-23.55-2.85-1.16-6.75,.26-7.98,2.43-1.38,2.43-.91,5.88,1.2,8.2,.66,.73,1.45,1.36,2.23,1.97,2.59,2.04,5.13,4.15,7.83,6.03,4.56,3.17,8.97,6.67,15.18,8.41Zm-195.52-40.87c2.16-9.45,2.18-17.88,1.67-26.28-.22-3.57-3.05-5.33-6.7-5.21-3.11,.11-5.4,1.37-5.92,4.95-1.19,8.12-.98,16.23,5,22.81,1.33,1.47,3.47,2.21,5.96,3.72ZM254.92,39.29c-.03-.27-.03-.78-.16-1.25-1.52-5.78-14.41-14.52-20.42-13.77-3.44,.43-6.9,3.96-4.13,7.37,4.84,5.95,10.4,11.13,18.12,13.17,3.47,.92,6.7-1.75,6.59-5.51ZM30.46,332.63c-1.81-4.21-3.43-7.25-4.43-10.49-2-6.49-3.59-13.1-5.49-19.62-.97-3.31-2.84-4.71-5.19-4.34-2.25,.35-3.82,2.49-4.05,5.59-.05,.65,.02,1.33,.12,1.98,1.64,10.72,6.98,19.21,15.58,25.7,.6,.45,1.48,.52,3.46,1.17Zm19.15-152.71c-1.48-4.83-2.99-9.5-4.31-14.24-.67-2.39-.91-4.9-1.47-7.33-.77-3.34-2.85-5.28-5.25-5.08-2.6,.22-4.9,2.99-4.5,6.24,.88,7.29,3.47,13.87,9.33,18.72,1.79,1.48,3.77,2.73,6.21,1.68Zm217.07,22.92c-.32-2.76-.39-4.66-.79-6.5-1.27-5.93-4.72-10.49-9.34-14.22-1.86-1.5-4-1.73-5.9-.09-1.64,1.41-1.32,4.16,.56,6.2,.56,.61,1.28,1.06,1.85,1.66,3.53,3.71,7.02,7.46,10.58,11.14,.57,.59,1.45,.89,3.03,1.81ZM62.6,39.56c-3.52-.3-4.27-.26-5.94,1.36-3.51,3.41-5.26,7.58-4.98,12.53,.15,2.59,1.61,4.07,4.03,4.25,2.5,.18,3.2-1.58,3.62-3.81,.9-4.69,2.1-9.33,3.26-14.33Zm52.16-3.45c-5.19-2.76-8.17-3.82-11.06-2.88-1.46,.48-3.12,1.99-3.59,3.39-.38,1.16,.44,3.39,1.47,4.22,3.86,3.11,11.52,.21,13.18-4.74Zm-35.58,5.8c-5.27,.73-8.8,2.45-11.35,5.95-1.13,1.55-1.03,3.36,.59,4.38,.86,.54,2.96,.6,3.44,.02,2.44-3.01,4.52-6.3,7.33-10.35Zm190.53,46.93c2.66-3.35,2.47-6.3,2.19-9.21-.19-1.96-1.07-3.81-3.38-3.31-2.18,.47-2.6,2.27-1.83,4.32,.92,2.44,1.81,4.89,3.02,8.2Z"/>
          <path class="cls-1" d="M83.34,302.2c-3.89,3.79-7.46,2.34-10.49,1.23-4.31-1.58-8.36-3.92-12.43-6.11-4.23-2.28-8.44-4.61-12.48-7.2-4.44-2.84-4.07-8.47,.5-11.28,4.8-2.95,9.58-2.19,14.19,.22,6.1,3.19,11.35,7.62,15.51,13.04,2.24,2.91,3.46,6.61,5.2,10.09Z"/>
          <path class="cls-1" d="M265.91,295.39c-2.05,7.04-2.81,15.92-8.23,23.25-.3,.4-.6,.8-.95,1.15-1.9,1.94-3.99,3.94-6.89,3.11-3.26-.93-3.07-3.96-2.97-6.64,.31-7.94,.55-15.89,1.07-23.81,.39-5.85,4.46-9.64,9.52-9.35,5.11,.29,8.54,4.7,8.43,12.29Z"/>
          <path class="cls-1" d="M259.59,211.42c-6.22-1.74-10.62-5.24-15.18-8.41-2.7-1.88-5.24-4-7.83-6.03-.78-.61-1.56-1.24-2.23-1.97-2.11-2.32-2.58-5.77-1.2-8.2,1.23-2.16,5.13-3.59,7.98-2.43,6.29,2.56,18.48,14.81,18.77,23.55,.03,.96-.16,1.92-.3,3.5Z"/>
          <path class="cls-1" d="M64.07,170.56c-2.49-1.51-4.62-2.26-5.96-3.72-5.98-6.58-6.18-14.69-5-22.81,.52-3.58,2.81-4.84,5.92-4.95,3.65-.13,6.48,1.64,6.7,5.21,.52,8.4,.5,16.83-1.67,26.28Z"/>
          <path class="cls-1" d="M254.92,39.29c.1,3.76-3.12,6.43-6.59,5.51-7.72-2.04-13.28-7.22-18.12-13.17-2.77-3.41,.69-6.94,4.13-7.37,6.02-.75,18.9,7.99,20.42,13.77,.12,.47,.13,.98,.16,1.25Z"/>
          <path class="cls-29" d="M30.46,332.63c-1.98-.65-2.86-.72-3.46-1.17-8.6-6.49-13.94-14.99-15.58-25.7-.1-.65-.16-1.32-.12-1.98,.23-3.1,1.79-5.24,4.05-5.59,2.35-.37,4.22,1.02,5.19,4.34,1.9,6.52,3.49,13.13,5.49,19.62,1,3.23,2.62,6.28,4.43,10.49Z"/>
          <path class="cls-5" d="M49.61,179.92c-2.44,1.05-4.42-.2-6.21-1.68-5.86-4.85-8.44-11.43-9.33-18.72-.39-3.24,1.9-6.02,4.5-6.24,2.4-.2,4.48,1.74,5.25,5.08,.56,2.43,.8,4.94,1.47,7.33,1.32,4.73,2.84,9.41,4.31,14.24Z"/>
          <path class="cls-5" d="M266.68,202.84c-1.57-.92-2.45-1.22-3.03-1.81-3.56-3.68-7.05-7.43-10.58-11.14-.57-.6-1.29-1.05-1.85-1.66-1.88-2.04-2.2-4.78-.56-6.2,1.9-1.64,4.04-1.41,5.9,.09,4.62,3.73,8.07,8.3,9.34,14.22,.39,1.84,.46,3.74,.79,6.5Z"/>
          <path class="cls-13" d="M62.6,39.56c-1.16,5-2.36,9.64-3.26,14.33-.43,2.23-1.13,3.99-3.62,3.81-2.42-.18-3.88-1.66-4.03-4.25-.28-4.96,1.47-9.13,4.98-12.53,1.66-1.62,2.42-1.66,5.94-1.36Z"/>
          <path class="cls-14" d="M114.77,36.11c-1.66,4.95-9.32,7.84-13.18,4.74-1.03-.83-1.85-3.06-1.47-4.22,.46-1.41,2.12-2.92,3.59-3.39,2.89-.94,5.87,.12,11.06,2.88Z"/>
          <path class="cls-24" d="M79.18,41.9c-2.8,4.05-4.89,7.34-7.33,10.35-.47,.59-2.57,.53-3.44-.02-1.62-1.01-1.72-2.83-.59-4.38,2.55-3.5,6.08-5.22,11.35-5.95Z"/>
          <path class="cls-11" d="M269.72,88.83c-1.22-3.3-2.1-5.76-3.02-8.2-.77-2.05-.35-3.85,1.83-4.32,2.31-.5,3.19,1.35,3.38,3.31,.28,2.91,.47,5.86-2.19,9.21Z"/>
        </g>
        <g>
          <path class="cls-34" d="M399.09,.16c.87,.15,1.05,0,1.57,.17,22.88,7.32,36.42,22.94,41,46.37,2.3,11.79,3.01,23.75,2.94,35.76-.07,12.16-.2,24.27-2.55,36.29-1.37,6.99-.25,13.92,1.84,20.7,2.54,8.26,5.24,16.49,7.42,24.85,2.92,11.2,1.78,22.39-.44,33.63-3.13,15.82-6.83,31.54-8.2,47.68-.75,8.81-.39,17.25,3.81,25.25,1.15,2.2,2.18,4.53,2.77,6.93,.71,2.89,2.38,3.42,5.06,3.42,9.62,.01,18.67-2.64,27.76-5.36,7.61-2.28,15.35-4.17,23.1-5.96,2.72-.63,5.62-.66,8.43-.6,5.81,.12,11.62,.56,17.44,.7,4.35,.11,8.47,1.36,11.51,4.18,6.63,6.12,14.68,7.32,23.07,7.87,13.49,.88,26.96,.54,40.43-.46,13.4-1,26.55,.07,39.36,4.63,17.34,6.18,26.92,18.76,30.65,36.27,1.17,5.46,.6,10.93-1.2,16.25-3.12,9.23-8.18,17.1-16.1,22.92-11.47,8.43-23.85,14.51-38.53,14.44-.66,0-1.32,.18-1.97,.27-8.67,0-17.34-.01-26.02-.02-1.31-.26-2.61-.71-3.92-.74-8.21-.2-15.54-2.94-22.62-6.96-6.62-3.75-13.82-4.29-21.27-2.44-9.51,2.36-19.02,4.75-28.63,6.62-9.15,1.78-18.21,1.23-26.77-3.12-2.66-1.35-5.56-2.2-8.29-3.43-12.23-5.51-24.77-5.88-37.52-2.31-11.19,3.14-22.34,6.44-33.51,9.67-4.22,1.22-8.46,1.5-12.83,.79-2.08-.34-4.29,.08-6.36-.31-3.07-.58-6.42-.96-9.01-2.5-7.7-4.57-15.28-9.42-22.54-14.66-4.77-3.44-8.06-8.49-10.41-13.85-10.41-23.82-14.93-48.51-10.32-74.43,.49-2.76,1.25-5.52,2.25-8.14,3.5-9.19,4.22-18.76,4.23-28.45,.01-9.01-1.06-17.89-2.51-26.79-2.16-13.26-.49-26.27,4.68-38.63,6.8-16.23,7.43-32.85,4.46-49.94-3.22-18.53-5.46-37.19-5.38-56.05,.05-12,2.87-23.25,8.2-34.1,6.88-13.99,18.44-21.34,32.81-25.38,1.48-.42,2.8-.86,4.64-1.08,2.67,0,4.78,.04,7.45,.04Zm36.05,83.51c.31-9.49-1.34-19.1-2.74-28.79-2.34-16.18-9.41-28.93-23.06-38.34-8.31-5.73-16.6-6.96-25.7-3.14-5.94,2.49-12.2,4.59-16.1,10.35-9.25,13.66-11.9,29.01-11.06,45.07,.52,9.91,1.76,19.78,2.82,29.65,.97,9.04,1.83,18.12,3.27,27.09,1.34,8.36,.99,16.64-.97,24.69-2.08,8.5-5.25,16.73-7.88,25.1-3.34,10.6-4.04,21.3-1.89,32.31,1.27,6.47,1.77,13.11,2.21,19.7,.23,3.44-.66,6.93-.63,10.4,.07,8.9-1.45,17.53-4.43,25.83-3.24,9.03-3.94,18.42-4.59,27.82-.58,8.35,1.29,16.52,3.1,24.55,2.73,12.14,7.5,23.58,17.09,31.97,5.07,4.44,11.19,7.68,16.88,11.39,2.08,1.36,4.28,2.53,6.43,3.78,2.46-2.28,4.94,.21,7.35-.03,6.08-.6,12.23-1.08,18.15-2.46,11.42-2.66,22.63-6.29,34.08-8.75,5.9-1.27,12.21-1.51,18.25-1.08,9.32,.66,18.01,4.18,26.51,7.96,6.02,2.68,12.26,4.56,18.82,3.32,7.46-1.41,14.79-3.49,22.19-5.21,5.3-1.23,10.58-3.06,15.95-3.39,9.21-.56,17.6,2.81,25.3,7.68,3.45,2.18,7.12,3.53,11.08,4.09,3.6,.51,7.3,.51,10.86,1.19,10.68,2.06,21.16,.01,31.58-1.66,7.87-1.26,14.22-6.14,20.73-10.45,6.04-3.99,10.36-9.41,12.92-16.06,1.63-4.25,3.09-8.55,1.98-13.49-2.7-12.08-9.72-20.47-20.51-26.04-9.15-4.72-18.96-7-29.16-7.26-6.12-.16-12.26,.55-18.39,.72-12.96,.36-25.87-.3-38.77-1.75-6.3-.71-11.9-2.53-16.82-6.63-3.95-3.29-8.53-4.73-13.84-4.55-11.99,.4-23.56,3.16-35.2,5.63-10.98,2.33-21.66,6.04-33,6.72-4.32,.26-8.25-.41-11.67-2.97-9.64-7.21-14.51-16.96-15.08-28.94-.59-12.36,1.56-24.49,3.36-36.6,1.45-9.78,4.17-19.37,6.27-29.06,1.73-8.02,2.53-16.1,.47-24.16-1.96-7.69-3.87-15.41-6.36-22.93-3.62-10.95-4.83-22.04-2.5-33.3,2.03-9.81,2.71-19.68,2.68-29.99Z"/>
          <path class="cls-25" d="M435.13,83.67c.03,10.31-.65,20.17-2.68,29.99-2.33,11.26-1.11,22.35,2.5,33.3,2.49,7.52,4.4,15.24,6.36,22.93,2.06,8.06,1.26,16.15-.47,24.16-2.1,9.69-4.81,19.28-6.27,29.06-1.8,12.11-3.95,24.24-3.36,36.6,.57,11.98,5.44,21.73,15.08,28.94,3.42,2.56,7.36,3.23,11.67,2.97,11.34-.68,22.02-4.39,33-6.72,11.64-2.47,23.21-5.23,35.2-5.63,5.31-.18,9.89,1.26,13.84,4.55,4.92,4.09,10.51,5.92,16.82,6.63,12.9,1.45,25.81,2.1,38.77,1.75,6.14-.17,12.27-.88,18.39-.72,10.2,.27,20.01,2.54,29.16,7.26,10.79,5.57,17.81,13.97,20.51,26.04,1.11,4.95-.35,9.24-1.98,13.49-2.56,6.65-6.88,12.07-12.92,16.06-6.51,4.31-12.87,9.19-20.73,10.45-10.42,1.67-20.9,3.71-31.58,1.66-3.56-.69-7.26-.68-10.86-1.19-3.96-.57-7.63-1.91-11.08-4.09-7.7-4.87-16.09-8.24-25.3-7.68-5.37,.33-10.65,2.15-15.95,3.39-7.4,1.72-14.73,3.8-22.19,5.21-6.56,1.24-12.8-.65-18.82-3.32-8.5-3.77-17.18-7.29-26.51-7.96-6.04-.43-12.35-.18-18.25,1.08-11.46,2.46-22.66,6.09-34.08,8.75-5.92,1.38-12.08,1.86-18.15,2.46-2.41,.24-4.88-2.26-7.35,.03-2.15-1.25-4.35-2.42-6.43-3.78-5.69-3.71-11.81-6.95-16.88-11.39-9.59-8.39-14.36-19.83-17.09-31.97-1.81-8.04-3.68-16.2-3.1-24.55,.65-9.4,1.35-18.79,4.59-27.82,2.98-8.31,4.5-16.94,4.43-25.83-.03-3.47,.86-6.96,.63-10.4-.44-6.59-.94-13.24-2.21-19.7-2.15-11-1.45-21.71,1.89-32.31,2.63-8.37,5.8-16.6,7.88-25.1,1.97-8.05,2.31-16.33,.97-24.69-1.44-8.97-2.3-18.05-3.27-27.09-1.05-9.87-2.3-19.75-2.82-29.65-.84-16.06,1.81-31.4,11.06-45.07,3.9-5.76,10.15-7.86,16.1-10.35,9.1-3.82,17.39-2.58,25.7,3.14,13.64,9.41,20.71,22.16,23.06,38.34,1.4,9.7,3.05,19.3,2.74,28.79Zm-12.4-30.12c-.89-4.84-1.31-9.83-2.79-14.48-1.55-4.87-4.26-9.34-8.79-12.27-4.18-2.71-10.02-2.09-13.15,1.2-2.89,3.03-2.17,6.4-.96,9.73,1.34,3.72,2.76,7.43,4.47,10.99,3.36,7,6.47,14.19,11.75,20.06,2.65,2.95,3.29,2.89,5.52-.49,2.91-4.43,3.6-9.46,3.95-14.74Zm199.42,269.4c5.12-.57,8-2.82,9.73-7.94,1.22-3.63-.59-9.05-4.12-11.43-10.42-7.01-21.33-6.73-32.42-1.8-2.36,1.05-3.81,3.09-4.09,5.75-.4,3.92,2.83,7.45,7.26,7.73,3.15,.19,6.33-.16,9.47,.11,3.31,.28,6.74,.14,8.63,4.22,.75,1.63,3.63,2.27,5.55,3.36Zm-192.58-153.67c-.44-3.75-1.05-7.49-1.28-11.25-.29-4.56-1.74-8.69-4.01-12.57-1.27-2.18-5.58-4.4-7.45-3.94-2.85,.7-5.35,3.66-5.56,6.92-.15,2.48-.32,5.04,.09,7.46,1.85,10.81,3.93,21.58,5.86,32.37,.37,2.09,1.49,3.01,3.37,2.27,1.6-.63,3.41-1.51,4.37-2.82,3.97-5.47,4.43-11.88,4.61-18.42Zm88.52,123.52c-4.34,.72-8.11,1.09-11.75,2.01-3.48,.88-6.94,2.05-10.17,3.59-3.24,1.54-4.86,5.92-3.85,8.89,.78,2.3,4.65,3.62,8.26,2.8,.32-.07,.6-.29,.91-.41,9.06-3.39,18.14-6.74,27.17-10.22,.94-.36,1.59-1.44,2.38-2.19-.8-.74-1.49-1.9-2.42-2.15-3.61-.96-7.3-1.63-10.53-2.32Zm-160.46-5.1c-.51,.38-.94,.53-1.01,.78-2.47,9.04-2.68,18.22-1.23,27.42,.27,1.71,1.18,3.55,2.36,4.81,.84,.9,2.82,1.53,3.92,1.17,1.11-.36,2.12-1.99,2.52-3.27,.42-1.36,.33-3.01,.03-4.44-1.71-8.21-3.52-16.39-5.37-24.57-.15-.68-.8-1.26-1.22-1.89Zm12.44-236.39c.21-2.96,.43-5.91,.63-8.87,.06-.92,.06-1.85,.09-2.77-1.03,.33-2.27,.41-3.05,1.05-.98,.8-1.76,1.98-2.33,3.14-2.54,5.16-2.79,10.8-3.08,16.38-.07,1.35,.68,2.95,1.53,4.07,.7,.92,2.09,1.72,3.21,1.77,.62,.03,1.73-1.51,1.91-2.48m-4.29,119.13l-1.25,.13c-2.71,5.9-3.53,12.16-3.27,18.62,.08,2.1-.4,4.56,2.79,4.84,1.85,.16,3.25-2.22,3.17-5.23,0-.16-.03-.33-.04-.49-.28-4.59-.54-9.18-.85-13.77-.09-1.37-.35-2.73-.54-4.09Zm13.06-134.12c-.23,2.08,.68,4.02,2.86,4.18,1.16,.08,2.67-1.41,3.62-2.53,.67-.8,.74-2.15,.97-3.27,.53-2.57,1.05-5.15,1.47-7.74,.14-.88,0-1.8-.01-2.71-.91,.2-2.04,.12-2.69,.65-3.58,2.89-6.51,6.22-6.22,11.42Zm251.59,308.71l.07,.36c2.42-.45,4.91-.68,7.25-1.4,3.11-.95,4.96-3.44,4.34-5.22-.67-1.91-3.5-2.53-6.62-1.25-2.45,1-4.85,2.16-7.2,3.4-1.33,.7-2.51,1.68-3.76,2.54,1.47,.52,2.93,1.08,4.42,1.54,.46,.14,.99,.02,1.49,.02Z"/>
          <path class="cls-10" d="M422.73,53.55c-.35,5.28-1.04,10.31-3.95,14.74-2.22,3.38-2.86,3.44-5.52,.49-5.28-5.87-8.39-13.06-11.75-20.06-1.71-3.56-3.13-7.27-4.47-10.99-1.2-3.33-1.92-6.7,.96-9.73,3.14-3.29,8.98-3.9,13.15-1.2,4.52,2.93,7.23,7.39,8.79,12.27,1.48,4.65,1.9,9.64,2.79,14.48Z"/>
          <path class="cls-10" d="M622.16,322.95c-1.91-1.09-4.79-1.73-5.55-3.36-1.89-4.09-5.32-3.94-8.63-4.22-3.14-.27-6.32,.09-9.47-.11-4.43-.27-7.66-3.81-7.26-7.73,.27-2.66,1.72-4.7,4.09-5.75,11.08-4.92,22-5.21,32.42,1.8,3.53,2.38,5.34,7.79,4.12,11.43-1.73,5.12-4.6,7.37-9.73,7.94Z"/>
          <path class="cls-3" d="M429.58,169.28c-.19,6.54-.64,12.95-4.61,18.42-.96,1.32-2.77,2.19-4.37,2.82-1.88,.75-3-.17-3.37-2.27-1.92-10.8-4.01-21.56-5.86-32.37-.41-2.42-.24-4.98-.09-7.46,.2-3.26,2.71-6.22,5.56-6.92,1.88-.46,6.18,1.76,7.45,3.94,2.27,3.89,3.72,8.01,4.01,12.57,.24,3.76,.84,7.5,1.28,11.25Z"/>
          <path class="cls-3" d="M518.1,292.8c3.23,.69,6.92,1.36,10.53,2.32,.93,.25,1.62,1.41,2.42,2.15-.79,.75-1.44,1.83-2.38,2.19-9.03,3.47-18.11,6.83-27.17,10.22-.31,.12-.59,.33-.91,.41-3.62,.82-7.48-.5-8.26-2.8-1.01-2.97,.61-7.34,3.85-8.89,3.23-1.54,6.7-2.71,10.17-3.59,3.63-.92,7.41-1.3,11.75-2.01Z"/>
          <path class="cls-18" d="M357.65,287.7c.42,.64,1.07,1.21,1.22,1.89,1.85,8.18,3.66,16.36,5.37,24.57,.3,1.43,.39,3.08-.03,4.44-.4,1.28-1.41,2.91-2.52,3.27-1.11,.36-3.08-.27-3.92-1.17-1.18-1.26-2.09-3.1-2.36-4.81-1.45-9.2-1.24-18.37,1.23-27.42,.07-.25,.5-.4,1.01-.78Z"/>
          <path class="cls-33" d="M368.99,63.59c-.17,.96-1.28,2.5-1.91,2.48-1.12-.05-2.51-.84-3.21-1.77-.85-1.12-1.6-2.72-1.53-4.07,.29-5.58,.54-11.22,3.08-16.38,.57-1.16,1.35-2.33,2.33-3.14,.78-.64,2.02-.72,3.05-1.05-.03,.92-.03,1.85-.09,2.77-.2,2.96-.42,5.91-.63,8.87"/>
          <path class="cls-18" d="M364.7,182.72c.18,1.36,.44,2.72,.54,4.09,.32,4.59,.57,9.18,.85,13.77,.01,.16,.03,.33,.04,.49,.09,3.01-1.32,5.39-3.17,5.23-3.19-.27-2.71-2.74-2.79-4.84-.25-6.46,.56-12.72,3.27-18.62l1.25-.13Z"/>
          <path class="cls-16" d="M377.76,48.6c-.29-5.2,2.64-8.53,6.22-11.42,.65-.52,1.78-.45,2.69-.65,.01,.9,.16,1.83,.01,2.71-.42,2.59-.94,5.17-1.47,7.74-.23,1.12-.3,2.47-.97,3.27-.95,1.12-2.45,2.61-3.62,2.53-2.17-.16-3.08-2.1-2.86-4.18Z"/>
          <path class="cls-31" d="M629.35,357.3c-.5,0-1.04,.12-1.49-.02-1.49-.46-2.95-1.02-4.42-1.54,1.25-.86,2.43-1.84,3.76-2.54,2.35-1.23,4.75-2.39,7.2-3.4,3.12-1.28,5.95-.66,6.62,1.25,.62,1.78-1.23,4.27-4.34,5.22-2.34,.72-4.83,.95-7.25,1.4l-.07-.36Z"/>
        </g>
        <g>
          <path class="cls-27" d="M1000.31,159.68c-1.87-3.05-3.41-6.3-4.98-9.53-2.44,.74-5.59-.04-6.84-3.04-5.21-12.46-7-25.74-5.34-39.14,1.24-10,2.9-20.03,2.36-30-4.82-12.79-11.11-24.74-23.93-31.41-10.02-5.22-20.41-9.77-30.8-14.25-4.35-1.87-7.72-4.28-9.88-8.57-4.3-8.54-11.74-12.92-20.8-14.83-6.35-1.34-12.7-2.87-19.13-3.54-9.57-.99-19.22-1.8-28.82-1.73-7.95,.06-15.87,1.62-23.82,2.33-18.58,1.65-36.14,5.92-50.59,18.75-1.69,1.5-3.86,2.85-6.03,3.38-9.61,2.34-16.84,7.95-23.63,14.94-7.82,8.05-13.46,17.02-15.02,28.11-2.42,17.17-8.24,32.89-18.74,46.74-3.42,4.51-7.17,8.76-10.7,13.19-7.92,9.94-15.69,19.85-16.34,33.47-.31,6.58-1.71,13.11-2.73,19.64-.97,6.23-2.4,12.22-3.42,18.88,1.68,.66,3.07,2.12,3.27,4.38,.73,8.27,.83,16.69,1.29,25.05,.17,.24,.34,.51,.48,.81,6.03,12.62,9.64,25.58,8.74,39.66-.06,.89-.35,1.7-.8,2.4,.52,2.39,1,4.78,1.39,7.19,1.1,6.84,3.09,13.04,6.02,18.72,1.87-.39,3.95,.13,5.32,2.1,5.27,7.55,12.26,13.77,17.7,21.25,5.69,7.83,13.77,12.4,22.1,17.08,7.53,4.23,15.35,8.15,23.43,11.23,6.5,2.48,13.43,3.92,18.17,9.44,5.52,6.42,9.18,13.42,18.04,15.67,7.45,1.89,15.45,.76,23.06,1.23,6.97,.43,14.64,1.57,21.48-.3,6.71-1.83,12.56-6.12,19.26-8.11,5.87-1.75,11.95-1.95,18.02-2.12,.46-1.89,2-3.52,4.66-3.72,9.06-.68,17.58-5.22,26.8-3.82,4.42,.67,8.67,2.42,13.14,2.77,4.51,.36,9.16-.27,13.55-1.28,4.09-.94,7.99-2.37,11.97-3.66,3.7-1.2,7.77-1.99,11.04-4.21,5.93-4.03,7.95-11.8,13.51-16.37,.02-.02,.05-.03,.07-.05-.18-2.34,.09-4.73,.61-7.12-.29-1.62,.08-3.4,1.27-4.69,1.34-4.23,3.05-8.41,3.98-12.29,.15-.63,.33-1.25,.51-1.87,.15-2.18,.26-4.36,.5-6.52,.28-2.57,1.95-4.11,3.85-4.62,.52-1.21,1.02-2.43,1.5-3.67,2.13-5.58,3.49-11.36,4.34-17.27,1.74-12.08,6.72-23.15,9.94-34.84,3.46-12.55,4.14-25.8,4.19-38.76,0-1.81,.8-3.11,1.94-3.91-2.17-14.98-6.73-29.44-15.17-43.16Zm-198.09,75.72c-.91,4.01-3.56,4.92-6.12,1.78-5.38-6.59-8.31-14.4-8.8-22.83-.21-3.66,2.02-6.77,6.16-7.24,4.16-.47,6.68,2.12,7.58,5.74,1.19,4.79,1.72,9.74,2.48,14.27-.46,3.07-.71,5.71-1.29,8.28Zm1.17-69.41c-2.56,3.03-6.74,4.33-10.95,2.19-4.09-2.07-5.22-5.74-5.41-11.7,1.06-2.14,2.13-6.26,4.68-9.02,5.85-6.33,12.31-12.33,20.97-14.52,2.83-.72,6.81-.27,9.03,1.34,1.23,.89,.94,5.98-.43,7.99-5.55,8.19-11.5,16.16-17.89,23.71Zm88.23,56.01c-.4,1.28-.99,2.35-1.72,3.26-.6,2.94-2.12,5.62-4.24,8.07-9.17,10.63-20.01,18.22-34.71,17.68-3.77-.14-7.92-1.46-11.11-3.48-4.91-3.1-10.91-4.73-14.3-10.08-1.18-.73-2.33-1.64-3.45-2.77-4.61-4.67-7.32-10.59-6.92-17.14,.54-8.88,2.73-17.64,1.11-26.54-.33-1.84,.25-3.37,1.28-4.46-1.71-.62-3.06-2.12-3.03-4.49,.08-7.39,4.32-16.17,8.99-21.81,4.76-5.75,11.75-7.94,18.75-9.62,13.27-3.17,30.52-4.85,40.44,6.6,3.78,4.37-1.57,10.56-5.76,8.17,0,.07,.01,.13,.01,.19,.15,5.24,.76,10.32,1.81,15.29,1.36,.1,2.64,.87,3.4,2.59,3.12,6.96,4.05,14.3,6.12,21.56,1.52,5.34,5.1,11.26,3.32,16.98Zm43.2-134.64c-9.21-7.21-18.17-14.28-27.2-21.28-3.69-2.86-4.74-6.69-2.9-10.6,1.83-3.88,6.1-4.2,9.65-3.23,3.4,.92,6.78,2.7,9.61,4.84,6.72,5.09,11.96,11.45,14.53,19.7,1.26,4.06,.64,7.49-3.69,10.57Zm41.97,145.6c-2.18,4.21-5.92,7.66-9.22,11.22-.58,.62-2.59,.56-3.54,.05-2.83-1.51-4.06-8.51-2.62-13.41,1.14-3.89,5.01-6.85,8.83-6.76,4.41,.11,8.57,5.01,6.56,8.9Zm1.41-40.34c-5.41,1.51-8.58-3.63-10.31-7.7-4.34-10.19-8.17-20.64-11.49-31.2-1.79-5.69,1.64-12.18,5.83-13.53,5.26-1.69,10.66,.62,12.91,7.28,3.64,10.76,6.19,21.89,9.2,32.87-1.66,4.86-.7,10.77-6.14,12.28Z"/>
          <path class="cls-28" d="M984.33,180.34c-1.66,4.86-.7,10.77-6.14,12.28-5.41,1.51-8.58-3.63-10.31-7.7-4.34-10.19-8.17-20.64-11.49-31.2-1.79-5.69,1.64-12.18,5.83-13.53,5.26-1.69,10.66,.62,12.91,7.28,3.64,10.76,6.19,21.89,9.2,32.87Z"/>
          <path class="cls-28" d="M787.03,156.49c1.06-2.14,2.13-6.26,4.68-9.02,5.85-6.33,12.31-12.33,20.97-14.52,2.83-.72,6.81-.27,9.03,1.34,1.23,.89,.94,5.98-.43,7.99-5.55,8.19-11.5,16.16-17.89,23.71-2.56,3.03-6.74,4.33-10.95,2.19-4.09-2.07-5.22-5.74-5.41-11.7Z"/>
          <path class="cls-28" d="M934.82,87.36c-9.21-7.21-18.17-14.28-27.2-21.28-3.69-2.86-4.74-6.69-2.9-10.6,1.83-3.88,6.1-4.2,9.65-3.23,3.4,.92,6.78,2.7,9.61,4.84,6.72,5.09,11.96,11.45,14.53,19.7,1.26,4.06,.64,7.49-3.69,10.57Z"/>
          <path class="cls-6" d="M803.51,227.13c-.46,3.07-.71,5.71-1.29,8.28-.91,4.01-3.56,4.92-6.12,1.78-5.38-6.59-8.31-14.4-8.8-22.83-.21-3.66,2.02-6.77,6.16-7.24,4.16-.47,6.68,2.12,7.58,5.74,1.19,4.79,1.72,9.74,2.48,14.27Z"/>
          <path class="cls-6" d="M970.23,224.07c4.41,.11,8.57,5.01,6.56,8.9-2.18,4.21-5.92,7.66-9.22,11.22-.58,.62-2.59,.56-3.54,.05-2.83-1.51-4.06-8.51-2.62-13.41,1.14-3.89,5.01-6.85,8.83-6.76Z"/>
          <path d="M680.79,210.09c.29-11.06,2.1-21.32,4.67-31.51,1.04-4.13,1.49-8.48,1.62-12.74,.22-7.29,1.38-14.26,5.55-20.37,3.83-5.62,7.88-11.09,11.95-16.55,4.37-5.86,9.08-11.47,13.25-17.46,7.63-10.95,12.25-23.14,14.04-36.38,1.83-13.48,7.54-24.71,17.58-34.27,6.34-6.04,12.93-10.68,21.33-13.05,2.62-.74,5.2-2.32,7.31-4.1,12.4-10.48,26.88-15.63,42.83-17.3,10.92-1.15,21.8-2.76,32.74-3.52,5.92-.41,11.99,.15,17.91,.92,9.39,1.23,18.74,2.85,28.05,4.61,9.28,1.76,16.79,6.32,21.16,15.03,2.06,4.11,5.36,6.41,9.54,8.21,10.52,4.56,20.97,9.33,31.22,14.47,3.63,1.82,7.08,4.52,9.79,7.55,9.19,10.26,14.94,22.23,17.01,35.95,.82,5.4,.08,10.57-.84,15.82-.6,3.43-1.06,6.88-1.49,10.34-1.08,8.69,.74,16.85,4.67,24.59,3.61,7.11,6.92,14.4,11.01,21.22,8.65,14.46,12.52,30.25,14.4,46.74,1.65,14.47,1.17,28.9-1.21,43.19-1.11,6.66-3.22,13.21-5.5,19.6-6.69,18.74-15.16,36.87-19.11,56.54-1.29,6.42-4.03,12.26-7.07,18.02-5.76,10.88-14.6,17.75-26.35,21.39-13.07,4.05-26.12,4.64-39.39,1.29-3.22-.81-6.55-1.16-9.8-1.84-6.1-1.27-11.85-.07-17.61,1.96-12.07,4.25-24.08,8.76-36.38,12.23-7.94,2.24-16.31,3.34-24.57,4.01-11.15,.9-21.84-1.84-31.97-6.46-5.53-2.52-10.09-6.35-13.7-11.32-1.23-1.69-2.86-3.31-4.68-4.3-6.12-3.33-12.17-7.03-18.69-9.36-12.61-4.5-23.06-11.59-31.41-22.05-3.09-3.87-6.99-7.1-10.5-10.64-3.39-3.43-6.81-6.83-10.09-10.36-7.03-7.55-10.71-16.59-12.31-26.73-1.37-8.67-3.12-17.3-5.15-25.84-1.34-5.63-3.53-11.07-5.24-16.62-3.16-10.25-3.88-20.86-4.58-30.92Zm325.13,10.01c-.29-4.27-.48-10.43-1.18-16.52-1.43-12.44-4.06-24.51-10.6-35.52-4.24-7.13-8.02-14.57-11.57-22.07-5.29-11.15-8.13-22.76-6.03-35.29,.84-5.04,1.35-10.3,.88-15.36-1.13-12.21-5.93-23.13-13.84-32.52-2.09-2.49-4.73-4.85-7.61-6.28-10.12-5.04-20.33-9.96-30.76-14.31-6.44-2.69-11.59-6.34-14.88-12.54-3.02-5.69-8.02-8.9-14.18-10.05-11.45-2.13-22.94-4.06-34.44-5.85-2.93-.45-6-.29-8.98-.02-9.44,.84-18.86,2.01-28.31,2.79-14.45,1.18-27.77,5.22-39.21,14.44-4.21,3.39-8.85,5.87-14.21,6.94-2.7,.54-4.89,1.86-6.61,4.12-3.82,5.03-7.81,9.94-11.7,14.92-3.55,4.53-5.75,9.65-6.9,15.3-1.56,7.64-2.79,15.41-5.19,22.79-5.36,16.5-14.29,31.05-26.14,43.75-7.35,7.88-13.63,16.3-15.83,27.19-.65,3.24-1.86,6.37-2.89,9.53-7.07,21.69-7.02,43.4-.36,65.19,2.62,8.57,5.21,17.16,7.36,25.85,1.71,6.92,2.53,14.06,4.19,20.99,.71,2.98,2.22,5.91,3.94,8.48,4,5.96,8.96,11.09,14.47,15.75,4.17,3.53,8.53,7.12,11.71,11.47,7.02,9.61,15.97,16.32,26.99,20.55,8.16,3.13,15.25,8.06,22.17,13.31,2.75,2.09,5.77,4.01,8.95,5.34,9.93,4.12,20.32,6.21,31.11,6.47,19.11,.45,37.34-3.84,55.28-9.82,3.63-1.21,7.21-2.63,10.91-3.52,8.81-2.11,17.57-1.1,26.15,1.35,12.43,3.55,24.65,2.99,36.8-1.21,5.82-2.01,11.09-5.03,14.52-10.09,4.47-6.58,8.48-13.46,10.04-21.53,1.95-10.13,5.3-19.83,9.28-29.39,4.21-10.11,7.87-20.46,11.3-30.86,4.47-13.58,4.67-27.77,5.36-43.76Z"/>
          <path d="M870.18,143.2c9.5,1.29,16.94,9.21,17.84,18.77,.3,3.14,.59,6.3,.59,9.45-.01,6.63,1.59,12.77,4.78,18.6,4.18,7.64,6.76,15.79,8.05,24.46,1.45,9.79-.24,18.53-6.95,25.99-11.71,13.03-25.73,21.72-43.85,21.32-11.99-.26-21.38-5.5-26.75-16.75-.48-1.01-1.42-1.79-2.09-2.73-2.4-3.38-4.97-6.66-7.12-10.19-3.78-6.21-4.74-12.94-3.5-20.14,.52-3.04,.35-6.27,.05-9.37-.68-7.26-2.23-14.49-2.35-21.75-.34-19.68,13.05-35.03,32.46-37.96,1.48-.22,2.96-.56,4.45-.62,2.83-.1,5.66-.03,8.49-.03m-7.45,10.03c-15.91,.26-28.77,13.1-28.7,29.01,.03,5.78,1.04,11.54,1.34,17.33,.25,4.78,.73,9.68-.04,14.34-.83,4.99-.65,9.55,1.55,14.02,1.9,3.86,3.86,7.7,5.96,11.46,.6,1.08,1.65,2.06,2.72,2.69,3.7,2.2,7.41,4.42,11.29,6.26,2.49,1.18,5.25,2.26,7.95,2.45,15.53,1.07,26.92-6.6,36.63-17.7,4.05-4.63,4.87-9.95,4.08-15.82-1.1-8.12-3.13-15.91-6.99-23.21-3.22-6.1-4.96-12.62-5.05-19.57-.04-2.81-.42-5.62-.69-8.43-.66-6.91-3.84-10.65-10.68-11.81-4.57-.78-9.23-.98-13.85-1.44"/>
          <path d="M829.05,34.7c-.84,.55-1.71,1.06-2.51,1.65-7.78,5.69-15.75,11.07-25,14.15-2.01,.67-4.19,1-6.31,1.1-2.38,.11-4.12-1.16-4.9-3.48-.78-2.34,.07-4.31,1.87-5.74,1.13-.91,2.52-1.68,3.91-2.05,10.08-2.65,20.19-5.2,30.31-7.69,.6-.15,1.4,.51,2.11,.79l.51,1.27Z"/>
          <path d="M770.75,76.09c0,1.79,.3,3.15-.05,4.33-2.44,8.26-5,16.49-7.56,24.72-.34,1.1-.78,2.21-1.42,3.16-1.3,1.94-3.14,2.94-5.56,2.42-2.33-.5-4.04-2.38-4.14-4.97-.06-1.44,.19-3.01,.72-4.35,3.53-8.89,8.55-16.87,15.28-23.72,.61-.62,1.56-.92,2.73-1.58Z"/>
          <path d="M995.7,238.07c-1.26,4.51-2.11,9.18-3.88,13.48-2.78,6.71-6.19,13.15-9.34,19.7-.21,.44-.51,.85-.8,1.26-2.34,3.29-5.15,4.46-7.48,3.11-2.18-1.26-2.42-4.38-.13-8,6.11-9.66,12.37-19.22,18.61-28.79,.39-.6,1.14-.98,1.72-1.46,.43,.23,.87,.46,1.3,.69Z"/>
          <path d="M806.57,54.14c-.35,1.25-.45,2.04-.78,2.72-2.9,5.93-5.82,11.84-8.78,17.74-.51,1.01-1.07,2.33-1.97,2.75-1.38,.65-3.12,1.03-4.61,.81-1.8-.27-2.71-1.93-2.62-3.72,.07-1.61,.22-3.36,.9-4.78,3.27-6.77,8.53-11.67,15.13-15.18,.62-.33,1.49-.2,2.73-.34Z"/>
          <path d="M769.15,333.36c-1.63,0-2.82,.26-3.86-.04-6.63-1.9-11.87-5.77-15.68-11.51-.63-.96-1.14-2.05-1.45-3.15-.69-2.4,.24-4.68,2.17-5.51,2.21-.94,3.92,0,5.2,1.74,1.28,1.73,2.28,3.67,3.57,5.39,3.14,4.2,6.39,8.32,10.05,13.07Z"/>
          <path d="M951.1,333.92c-1.39,1.26-2.59,2.96-4.22,3.7-5.42,2.46-10.97,4.63-16.53,6.77-1.19,.46-2.62,.41-3.94,.42-1.8,.02-3.31-.58-3.68-2.61-.34-1.84,.33-3.36,1.96-4.19,1.31-.67,2.77-1.17,4.21-1.42,5.88-1.03,11.78-1.92,17.67-2.91,1.24-.21,2.45-.58,3.68-.88l.85,1.11Z"/>
          <path d="M713.44,224.84c-1.25-1.61-2.13-2.33-2.46-3.24-2.34-6.43-2.88-13.15-3.03-19.91-.02-1.08,.35-2.48,1.07-3.18,.96-.94,2.5-1.94,3.7-1.83,1.19,.11,2.45,1.4,3.3,2.46,.54,.67,.63,1.91,.51,2.84-.93,7.28-1.95,14.54-3.09,22.86Z"/>
          <path d="M728.88,275.39c-1.35-.43-2.2-.47-2.75-.91-5.06-4-8.47-9.19-10.76-15.16-.18-.46-.32-.94-.39-1.43-.41-2.75,.75-4.82,3.05-5.49,2.06-.6,3.95,.39,5.16,2.77,.37,.73,.62,1.53,.84,2.32,1.55,5.67,3.08,11.34,4.85,17.89Z"/>
        </g>
        <g>
          <path class="cls-26" d="M1005.67,39.49c.68-2.77,.86-5.5,1.37-8.31,2.37-12.99,11.75-23.4,23.56-24.71,13.65-1.51,25.46,2.57,33.59,14.28,2.73,3.93,4.57,8.47,6.94,12.67,2.2,3.9,4.16,8.03,6.94,11.49,8.22,10.24,14.39,21.58,19.13,33.75,4.6,11.78,8.9,23.68,13.82,35.33,3.56,8.41,7.6,16.65,11.99,24.67,6.02,10.99,10.71,22.52,15.02,34.24,4.31,11.71,8.39,23.51,13.1,35.06,3.06,7.51,7.08,14.63,10.71,22.03,5.58-2.76,9.46-6.23,12.48-11.02,4.46-7.04,8.64-14.16,11.74-21.93,1.55-3.88,1.51-7.44-.52-10.99-2.48-4.33-4.85-8.74-7.62-12.88-7.67-11.45-10.24-24.34-11.31-37.76-.53-6.58-.11-13,2.21-19.16,1.22-3.24,2.8-6.39,4.54-9.4,4.86-8.42,12.42-11.7,21.89-10.83,3.8,.35,7.6,.94,11.35,1.69,4.03,.81,7.26,3.09,10.2,5.94,4.18,4.05,8.51,7.95,12.86,11.83,3,2.67,6.37,3.46,10.1,1.44,4.07-2.21,8.19-4.33,12.22-6.62,1.58-.9,3-2.1,4.43-3.25,9.07-7.3,18.93-7.21,29.15-3.01,2.6,1.07,5.09,2.48,7.47,3.99,6.83,4.32,9.27,10,7.52,17.93-.71,3.21-2.03,6.31-3.21,9.4-3.14,8.22-6.54,16.36-9.48,24.66-1.32,3.73-2.01,7.72-2.6,11.65-.83,5.58-.1,10.93,3.33,15.7,10.75,14.97,15.33,32.32,19.19,49.95,.14,.64,.28,1.28,.51,2.36,8.84-5.53,15.56-12.7,20.74-21.36,5.51-9.2,6.71-19.29,6.35-29.81-.24-7.13-.07-14.3,.34-21.42,.34-5.97,3-11.23,6.55-15.96,7.11-9.5,12.97-19.74,18.29-30.32,3.97-7.9,8.26-15.6,14.18-22.26,3.51-3.95,4.58-8.98,5.05-13.88,1.31-13.64,7.04-25.07,15.6-35.55,3.85-4.72,6.59-10.35,9.82-15.58,3.49-5.66,6.52-11.67,10.54-16.92,7.31-9.54,16.9-13.65,29.04-10.35,8.32,2.26,13.19,7.99,16.27,15.6,4.56,11.23,4.76,22.73,1.58,34.29-1.67,6.08-3.61,12.12-5.89,18-4.5,11.66-8.31,23.48-10.85,35.74-3.04,14.67-10,27.81-17.13,40.79-4.88,8.89-10.23,17.53-15.44,26.24-12.42,20.74-24.09,41.84-30.66,65.3-1.93,6.88-3.45,13.88-4.87,20.89-2.26,11.19-7.57,21.28-11.21,31.97-4.02,11.8-7.81,23.67-11.47,35.59-3.04,9.91-6.33,19.61-13.12,27.76-7.23,8.68-16.38,13.35-27.63,14.11-9.91,.67-16.37-3.38-19.31-12.93-3.03-9.87-5.63-19.92-11.15-28.73-4.4-7.02-9.08-13.97-14.45-20.26-5.2-6.09-9.16-12.61-11.54-20.18-.95-3.01-1.82-6.06-2.97-9-1.75-4.45-4.77-7.3-9.77-8.27-6.29-1.21-12.36-2.28-18.47,.86-2.59,1.33-4.39,2.9-4.88,5.8-.06,.33-.24,.64-.25,.97-.17,9.49-4.73,17.52-8.47,25.86-4.08,9.1-7.78,18.37-11.89,27.45-8.47,18.67-22.32,32.07-40.75,40.84-2.75,1.31-5.62,2.39-8.44,3.57h-3c-1.16-.88-2.2-2.07-3.5-2.58-6.44-2.51-10.33-7.6-13.89-13.13-4.71-7.33-8.12-15.25-10.75-23.52-2.19-6.88-5.39-13.2-9.72-18.99-8.98-12.02-14.91-25.41-18.34-40.02-4.57-19.49-11.68-38.07-20.56-56.02-4.34-8.77-8.46-17.73-11.64-26.96-5.76-16.74-13.49-32.51-21.89-48-9.55-17.62-17.19-35.97-22.46-55.32-2.92-10.74-6.12-21.41-9.02-32.16-.73-2.7-.74-5.58-1.2-8.37m187.03,269.82c1.47-3.13,3.94-5.85,3.92-9.59,.14-.09,.37-.14,.41-.26,4.57-11.52,11.15-22.31,12.52-35.01,.58-5.35,3.09-9.83,7.56-12.99,9.84-6.96,28.9-7.49,38.84-.64,3.04,2.09,5.52,5.3,7.55,8.45,1.66,2.58,2.55,5.77,3.3,8.81,2.3,9.38,6.59,17.45,12.84,24.98,9.75,11.73,16.18,25.49,21.09,39.92,1.12,3.3,2.12,6.66,3.49,9.86,2.04,4.78,4.26,6,9.37,5.5,8.75-.85,15.78-4.73,21.1-11.82,5.01-6.68,7.84-14.33,9.62-22.29,2.66-11.88,6.41-23.36,10.62-34.77,4.25-11.52,9.8-22.57,12.19-34.78,1.4-7.16,3.12-14.29,5.14-21.31,6.68-23.19,18.14-44.24,29.6-65.28,8.11-14.9,16.14-29.85,23.81-44.98,2.83-5.59,5.17-11.61,6.59-17.7,3.9-16.73,9.78-32.78,15.64-48.86,1.81-4.97,3.33-10.13,4.19-15.33,1.26-7.68,.6-15.27-3.37-22.28-1.8-3.18-4.29-5.3-7.87-6.45-5.59-1.8-10.49-.43-14.14,3.63-3.74,4.16-7.12,8.82-9.75,13.75-4.63,8.7-9.52,17.15-15.69,24.86-4.52,5.65-7.95,11.9-9.16,19.16-.55,3.28-.9,6.59-1.44,9.87-1.01,6.16-2.87,12-7.32,16.64-4.78,4.98-8.2,10.84-11.58,16.8-6.41,11.28-12.78,22.59-19.74,33.52-4.2,6.58-6.41,13.31-6.37,21.09,.04,7.64-.2,15.32-.92,22.92-1.84,19.25-12.65,33.18-27.38,44.55-3.04,2.34-6.63,3.78-10.68,3.57-2.5-.13-4.35-.7-5.36-3.46-2.39-6.54-5.81-12.77-7.54-19.46-2.97-11.54-6.82-22.51-13.53-32.48-4.12-6.12-5.5-13.21-4.41-20.54,1.19-8.06,3.15-15.94,6.36-23.51,2.66-6.27,5.03-12.67,7.26-19.1,2.94-8.49,1.98-10.55-6.21-14.44-1.94-.92-4.01-1.6-6.04-2.32-5.59-1.98-10.65-1.05-15.61,2.27-5.65,3.78-11.48,7.34-17.48,10.53-7.63,4.05-15.2,3.4-21.94-2.09-4.11-3.35-7.74-7.29-11.7-10.82-1.95-1.74-3.99-3.9-6.35-4.57-4.27-1.21-8.79-1.7-13.25-2-3.89-.26-7.01,1.59-9.31,4.84-2.92,4.13-5.06,8.55-6.05,13.55-1.72,8.66-.75,17.22,.93,25.73,1.81,9.19,6.79,16.92,11.85,24.56,2.87,4.33,5.44,8.72,6.82,13.79,1.06,3.88,.91,7.6-.82,11.18-4.19,8.7-8.66,17.24-14.74,24.83-1.25,1.56-3.04,3.08-3.4,4.86-.97,4.85-4.39,6.73-8.38,8.33-.76,.31-1.72,1.12-1.84,1.83-.55,3.16-2.82,2.6-4.58,1.95-1.64-.61-3.22-1.84-4.38-3.18-6.04-6.94-11.28-14.38-14.5-23.12-5.86-15.91-11.65-31.84-17.84-47.61-2.73-6.94-6.05-13.7-9.66-20.23-6.86-12.4-13.25-24.97-18.2-38.27-3.66-9.82-7.05-19.77-11.42-29.27-3.95-8.58-8.56-16.95-13.8-24.8-4.44-6.66-8.81-13.22-12.24-20.5-2.01-4.26-4.99-8.32-8.35-11.65-5.52-5.48-12.78-7.33-20.32-6.04-8.51,1.46-13.02,7.52-14.97,15.57-2.47,10.18-2.72,20.51-.24,30.66,7.47,30.62,17.24,60.41,32.69,88.11,7.22,12.94,13.1,26.49,18.17,40.44,3.62,9.98,7.69,19.86,12.36,29.38,8.55,17.42,14.86,35.55,19.15,54.42,3.34,14.64,9.33,28.04,18.2,40.13,4.96,6.76,8.93,13.97,11.77,21.88,3.27,9.11,7.56,17.78,13.37,25.56,1.73,2.31,4.31,4.04,6.65,5.83,1.61,1.23,3.35,.98,5.07-.22,5.74-3.99,11.59-7.82,17.33-11.82,8.43-5.87,14.35-13.77,18.4-23.13,1.37-3.05,2.73-6.09,4.1-9.14Z"/>
          <path class="cls-23" d="M1188.98,332.41c-4.05,9.37-9.97,17.27-18.4,23.13-5.74,3.99-11.58,7.83-17.33,11.82-1.73,1.2-3.47,1.44-5.07,.22-2.35-1.79-4.92-3.52-6.65-5.83-5.81-7.78-10.1-16.45-13.37-25.56-2.84-7.91-6.81-15.12-11.77-21.88-8.87-12.09-14.86-25.49-18.2-40.13-4.3-18.86-10.61-37-19.15-54.42-4.68-9.53-8.74-19.4-12.36-29.38-5.06-13.95-10.95-27.5-18.17-40.44-15.45-27.69-25.22-57.49-32.69-88.11-2.48-10.15-2.22-20.48,.24-30.66,1.95-8.05,6.46-14.11,14.97-15.57,7.55-1.3,14.8,.56,20.32,6.04,3.36,3.33,6.34,7.38,8.35,11.65,3.43,7.28,7.8,13.84,12.24,20.5,5.24,7.85,9.85,16.22,13.8,24.8,4.37,9.5,7.77,19.45,11.42,29.27,4.95,13.29,11.35,25.87,18.2,38.27,3.61,6.53,6.94,13.29,9.66,20.23,6.19,15.77,11.99,31.71,17.84,47.61,3.22,8.74,8.46,16.18,14.5,23.12,1.17,1.34,2.74,2.57,4.38,3.18,1.75,.66,4.03,1.22,4.58-1.95,.12-.71,1.08-1.53,1.84-1.83,3.99-1.6,7.41-3.48,8.38-8.33,.35-1.78,2.15-3.3,3.4-4.86,6.08-7.59,10.55-16.13,14.74-24.83,1.73-3.58,1.87-7.3,.82-11.18-1.38-5.07-3.95-9.46-6.82-13.79-5.06-7.63-10.04-15.37-11.85-24.56-1.68-8.51-2.65-17.07-.93-25.73,.99-4.99,3.13-9.42,6.05-13.55,2.3-3.25,5.43-5.11,9.31-4.84,4.45,.3,8.98,.79,13.25,2,2.36,.67,4.39,2.83,6.35,4.57,3.97,3.53,7.59,7.47,11.7,10.82,6.74,5.49,14.31,6.14,21.94,2.09,6-3.19,11.83-6.75,17.48-10.53,4.96-3.32,10.02-4.25,15.61-2.27,2.03,.72,4.1,1.4,6.04,2.32,8.19,3.89,9.15,5.95,6.21,14.44-2.23,6.44-4.6,12.84-7.26,19.1-3.21,7.57-5.17,15.45-6.36,23.51-1.09,7.33,.29,14.43,4.41,20.54,6.71,9.97,10.56,20.94,13.53,32.48,1.72,6.69,5.15,12.92,7.54,19.46,1.01,2.76,2.85,3.32,5.36,3.46,4.06,.22,7.64-1.22,10.68-3.57,14.73-11.37,25.54-25.31,27.38-44.55,.73-7.6,.96-15.28,.92-22.92-.04-7.78,2.17-14.51,6.37-21.09,6.97-10.93,13.34-22.25,19.74-33.52,3.38-5.95,6.8-11.82,11.58-16.8,4.45-4.63,6.3-10.47,7.32-16.64,.54-3.28,.9-6.59,1.44-9.87,1.21-7.26,4.64-13.5,9.16-19.16,6.16-7.71,11.06-16.17,15.69-24.86,2.63-4.93,6.01-9.59,9.75-13.75,3.65-4.06,8.54-5.43,14.14-3.63,3.58,1.15,6.07,3.27,7.87,6.45,3.96,7,4.63,14.6,3.37,22.28-.86,5.2-2.38,10.36-4.19,15.33-5.86,16.08-11.75,32.13-15.64,48.86-1.42,6.09-3.76,12.11-6.59,17.7-7.66,15.13-15.7,30.08-23.81,44.98-11.46,21.05-22.92,42.09-29.6,65.28-2.02,7.02-3.74,14.14-5.14,21.31-2.38,12.2-7.94,23.26-12.19,34.78-4.21,11.41-7.96,22.89-10.62,34.77-1.78,7.96-4.61,15.61-9.62,22.29-5.32,7.09-12.35,10.97-21.1,11.82-5.12,.5-7.33-.72-9.37-5.5-1.37-3.2-2.37-6.56-3.49-9.86-4.91-14.43-11.34-28.19-21.09-39.92-6.25-7.53-10.54-15.6-12.84-24.98-.75-3.04-1.64-6.23-3.3-8.81-2.03-3.15-4.51-6.36-7.55-8.45-9.94-6.85-29-6.32-38.84,.64-4.47,3.16-6.98,7.64-7.56,12.99-1.38,12.7-7.95,23.49-12.52,35.01-.05,.12-.27,.18-.41,.26-3.79-3.33-6.17-3.33-8.68,.98-2.96,5.08-5.25,10.56-7.73,15.91-.26,.56,.09,1.4,.16,2.11,.7-.15,1.58-.07,2.06-.48,2.51-2.14,4.91-4.4,7.35-6.61,.12,.65,.47,1.35,.33,1.94-.39,1.66-.98,3.27-1.5,4.89ZM1434.24,50.43c.16,4.09,.32,8.19,.5,12.28,.04,.86,.19,1.72,.29,2.58,.87-.55,1.97-.92,2.56-1.69,3.23-4.2,4.19-9.24,4.96-14.32,.83-5.5-.79-7.16-6.44-6.7-1.67-3.81-4.5-5.68-7.41-4.9-3.35,.9-5.51,4.34-4.58,8.23,.68,2.84,1.92,5.62,3.34,8.19,.59,1.08,2.55,2.38,3.4,2.1,1.28-.42,2.26-2.06,3.11-3.35,.4-.61,.2-1.61,.27-2.44Zm-164.09,85.75c.85,.59,1.5,1.92,2.75,.36,2.62-3.25,2.91-11.15,.4-14.6-1.31-1.81-2.98-2.61-5.15-1.59-2.26,1.06-2.48,2.85-1.71,4.99,.61,1.7,1.14,3.42,1.71,5.13-1.21-1.32-2.3-2.78-3.65-3.93-2-1.7-5.92-.49-6.34,2.09-.27,1.69-.15,3.83,.68,5.25,2.73,4.7,5.83,9.19,8.86,13.72,.29,.44,1.07,.56,2.45,1.22v-12.64Zm72.89,157.24c4.12-2.91,3.83-7.68,4.89-11.84,.46-1.81,.14-3.8-1.92-4.64-2.39-.98-3.14,1.03-4.08,2.57-4.76-1.74-5.75-1.13-5.96,3.5-.29,6.61-.65,13.21-1,19.81-.04,.82-.33,1.63-.33,2.44,0,1.33,.13,2.65,.21,3.98,1.24-.93,2.82-1.64,3.63-2.86,1.17-1.76,1.9-3.84,2.59-5.87,.79-2.32,1.32-4.72,1.96-7.09Zm-70.73-84.99c-.61-.25-1.27-.4-1.81-.76-2.16-1.46-4.55-1.23-5.62,.8-.85,1.62-1.08,4.6-.12,5.94,3.44,4.81,7.48,9.2,11.36,13.69,.48,.56,1.35,.77,2.04,1.15,.29-.86,.87-1.74,.82-2.58-.14-2.11-.54-4.21-.88-6.31-.29-1.77-.64-3.52-.97-5.28,1.65,2.43,3.28,4.89,4.99,7.28,.31,.43,.97,.59,1.47,.88,.27-.55,.81-1.11,.78-1.64-.36-7.07-2.35-13.6-6.68-19.3-.79-1.04-1.62-2.12-2.63-2.92-1.56-1.24-3.63-1.63-4.9-.04-.8,1.02-.9,3.06-.53,4.42,.46,1.68,1.75,3.12,2.68,4.67Zm151.56-125.87c-2.46-1.39-5.16-2.06-7.29,.08-1.08,1.09-1.47,3.21-1.55,4.89-.43,9.21-.67,18.43-.93,27.65-.01,.36,.45,.74,.96,1.51,5.81-7.69,8.14-16.22,9.08-25.27,.47-.13,1.25-.13,1.35-.4,1.86-4.74,3.76-9.47,5.38-14.29,.51-1.52-.36-3-2.15-3.36-1.9-.39-3.33,.33-3.74,2.32-.47,2.27-.75,4.58-1.11,6.88Zm-353.23,.89c-1.13-2.49-1.99-5.15-3.46-7.42-1.79-2.77-4.59-3.29-7.3-1.94-2.54,1.27-3.83,4.28-2.4,7.17,3.38,6.81,7.43,13.21,13.19,18.32,.48,.43,1.42,.34,2.14,.48,.14-.71,.47-1.44,.4-2.14-.36-3.75-.82-7.49-1.25-11.23,2.27,2.62,4.52,5.27,6.82,7.86,.87,.98,1.75,2.08,2.86,2.71,1.11,.63,2.7,.33,2.22-1.34-1.37-4.74-2.99-9.43-4.71-14.06-.81-2.16-2.53-3.59-5.04-3.21-2.67,.4-3.22,2.53-3.47,4.78Zm-24.61-42.25c1.08,.75,2.43,1.29,3.19,2.28,2.1,2.74,3.92,5.7,5.95,8.51,.42,.58,1.25,.87,1.9,1.29,.31-.7,.97-1.45,.87-2.08-.45-2.76-.98-5.53-1.76-8.22-1.3-4.52-4.15-7.99-8.21-10.27-4.08-2.29-6.22-1.07-7.19,3.72-1.81-1.7-3.83-2.49-6.33-1.65-4.46,1.5-6.2,6.45-2.9,10.51,4.57,5.64,9.77,10.79,14.85,16,1.74,1.79,3.42,1.08,3.53-1.52,.12-2.78,.05-5.66-.56-8.35-.79-3.48-2.2-6.83-3.34-10.23Zm103.27,204.13c-1.51-8.71-4.44-16.41-11.16-22.24-2.31-2-5.71-2.25-7.65-.54-2.03,1.79-1.98,4.07,.18,7.08,.19,.27,.45,.49,.66,.74,4.51,5.47,8.96,10.99,13.57,16.37,.72,.84,2.18,1.06,3.29,1.57l1.1-2.98Zm26.52,64.71l1.44,.46c1.21-1.09,2.34-2.29,3.65-3.25,5.75-4.23,9.33-10.07,12.4-16.33,.89-1.81,.98-3.37-.37-5.04-2.94-3.63-7.25-3.4-9.57,1.22-2.57,5.11-4.43,10.59-6.34,16-.77,2.19-.83,4.62-1.21,6.95Zm18.19-194.37c-1.38,1.08-3.12,1.8-3.62,3.03-.41,1.02,.23,3.19,1.14,3.88,4.23,3.2,8.71,6.08,13.15,9,.42,.27,1.36,.29,1.69,0,.36-.31,.6-1.31,.36-1.68-2.46-3.9-4.85-7.87-7.66-11.51-.98-1.27-3.06-1.7-5.07-2.73Zm-85.15,45.39c.64-5.45-.3-9.76-2.35-13.82-1.36-2.68-4.15-3.61-6.21-2.38-1.8,1.08-2.36,3.82-.92,6.25,2.2,3.72,5.04,6.92,9.48,9.94Z"/>
          <path class="cls-7" d="M1190.15,325.58c-2.44,2.22-4.84,4.48-7.35,6.61-.48,.41-1.36,.33-2.06,.48-.07-.71-.42-1.55-.16-2.11,2.49-5.35,4.77-10.83,7.73-15.91,2.51-4.31,4.89-4.31,8.68-.98,.02,3.74-2.45,6.46-3.92,9.59-.98,.77-1.95,1.54-2.93,2.31Z"/>
          <path class="cls-17" d="M1190.15,325.58c.98-.77,1.95-1.54,2.93-2.31-1.37,3.05-2.73,6.09-4.1,9.14,.51-1.63,1.1-3.24,1.5-4.89,.14-.59-.2-1.29-.33-1.94Z"/>
          <path class="cls-15" d="M1046.03,41.2c1.14,3.4,2.55,6.75,3.34,10.23,.61,2.69,.68,5.57,.56,8.35-.11,2.6-1.78,3.31-3.53,1.52-5.08-5.21-10.28-10.36-14.85-16-3.29-4.06-1.56-9.01,2.9-10.51,2.5-.84,4.52-.05,6.33,1.65l5.24,4.76Z"/>
          <path class="cls-15" d="M1149.3,245.33l-1.1,2.98c-1.12-.51-2.57-.73-3.29-1.57-4.61-5.38-9.06-10.9-13.57-16.37-.21-.26-.47-.48-.66-.74-2.16-3.01-2.22-5.29-.18-7.08,1.93-1.71,5.33-1.46,7.65,.54,6.72,5.83,9.65,13.53,11.16,22.24Z"/>
          <path class="cls-15" d="M1071.97,86.7c.43,3.74,.89,7.48,1.25,11.23,.07,.69-.26,1.42-.4,2.14-.73-.15-1.66-.06-2.14-.48-5.76-5.11-9.81-11.52-13.19-18.32-1.43-2.89-.14-5.91,2.4-7.17,2.71-1.35,5.51-.83,7.3,1.94,1.47,2.27,2.33,4.93,3.46,7.42l1.32,3.25Z"/>
          <path class="cls-15" d="M1175.82,310.04c.38-2.32,.44-4.76,1.21-6.95,1.9-5.41,3.77-10.89,6.34-16,2.32-4.62,6.63-4.85,9.57-1.22,1.35,1.67,1.26,3.23,.37,5.04-3.07,6.26-6.65,12.1-12.4,16.33-1.31,.96-2.44,2.16-3.65,3.25l-1.44-.46Z"/>
          <path class="cls-15" d="M1424.15,91.43c-.93,9.05-3.27,17.58-9.08,25.27-.51-.77-.97-1.15-.96-1.51,.26-9.22,.5-18.44,.93-27.65,.08-1.68,.47-3.8,1.55-4.89,2.12-2.14,4.83-1.47,7.29-.08l.28,8.86Z"/>
          <path class="cls-8" d="M1277.13,215.09c.33,1.76,.68,3.51,.97,5.28,.34,2.1,.74,4.19,.88,6.31,.06,.84-.52,1.72-.82,2.58-.69-.37-1.56-.59-2.04-1.15-3.88-4.49-7.92-8.88-11.36-13.69-.95-1.33-.73-4.32,.12-5.94,1.07-2.03,3.46-2.25,5.62-.8,.53,.36,1.2,.51,1.81,.76,1.61,2.22,3.21,4.44,4.82,6.66Z"/>
          <path class="cls-21" d="M1343.05,293.43c-.64,2.37-1.18,4.77-1.96,7.09-.69,2.02-1.42,4.11-2.59,5.87-.81,1.22-2.39,1.92-3.63,2.86-.08-1.33-.21-2.65-.21-3.98,0-.81,.29-1.62,.33-2.44,.35-6.6,.71-13.21,1-19.81,.2-4.63,1.2-5.24,5.96-3.5,.37,4.64,.74,9.28,1.11,13.92Z"/>
          <path class="cls-4" d="M1270.15,136.19v12.64c-1.37-.66-2.15-.78-2.45-1.22-3.03-4.52-6.13-9.01-8.86-13.72-.83-1.43-.95-3.56-.68-5.25,.42-2.58,4.34-3.79,6.34-2.09,1.35,1.15,2.44,2.61,3.65,3.93l2,5.7Z"/>
          <path class="cls-21" d="M1434.24,50.43c-.07,.82,.13,1.83-.27,2.44-.85,1.29-1.83,2.93-3.11,3.35-.85,.28-2.81-1.03-3.4-2.1-1.41-2.57-2.66-5.35-3.34-8.19-.93-3.9,1.22-7.33,4.58-8.23,2.91-.78,5.74,1.09,7.41,4.9-.62,2.62-1.25,5.23-1.87,7.85Z"/>
          <path class="cls-9" d="M1277.13,215.09c-1.61-2.22-3.21-4.44-4.82-6.66-.93-1.55-2.22-3-2.68-4.67-.38-1.36-.27-3.4,.53-4.42,1.26-1.6,3.34-1.2,4.9,.04,1.01,.81,1.84,1.88,2.63,2.92,4.33,5.7,6.32,12.23,6.68,19.3,.03,.53-.51,1.1-.78,1.64-.5-.29-1.17-.45-1.47-.88-1.71-2.39-3.33-4.85-4.99-7.28Z"/>
          <path class="cls-9" d="M1046.03,41.2l-5.24-4.76c.97-4.79,3.11-6.02,7.19-3.72,4.06,2.28,6.91,5.75,8.21,10.27,.77,2.69,1.3,5.46,1.76,8.22,.1,.63-.56,1.38-.87,2.08-.64-.42-1.47-.71-1.9-1.29-2.03-2.8-3.85-5.76-5.95-8.51-.76-.99-2.11-1.53-3.19-2.28Z"/>
          <path class="cls-19" d="M1434.24,50.43l1.87-7.85c5.65-.47,7.27,1.19,6.44,6.7-.76,5.08-1.73,10.12-4.96,14.32-.59,.77-1.69,1.13-2.56,1.69-.1-.86-.25-1.71-.29-2.58-.18-4.09-.34-8.19-.5-12.28Z"/>
          <path class="cls-9" d="M1071.97,86.7l-1.32-3.25c.25-2.25,.79-4.38,3.47-4.78,2.52-.38,4.24,1.05,5.04,3.21,1.73,4.63,3.34,9.31,4.71,14.06,.48,1.66-1.12,1.97-2.22,1.34-1.11-.63-1.98-1.73-2.86-2.71-2.3-2.59-4.55-5.24-6.82-7.86Z"/>
          <path class="cls-30" d="M1194,115.67c2,1.03,4.09,1.46,5.07,2.73,2.81,3.64,5.2,7.61,7.66,11.51,.23,.37,0,1.37-.36,1.68-.33,.29-1.27,.27-1.69,0-4.44-2.92-8.91-5.81-13.15-9-.91-.69-1.55-2.87-1.14-3.88,.49-1.23,2.24-1.95,3.62-3.03Z"/>
          <path class="cls-2" d="M1270.15,136.19l-2-5.7c-.57-1.71-1.11-3.43-1.71-5.13-.76-2.14-.54-3.94,1.71-4.99,2.17-1.02,3.84-.21,5.15,1.59,2.5,3.44,2.22,11.34-.4,14.6-1.26,1.56-1.9,.23-2.75-.36Z"/>
          <path class="cls-9" d="M1108.85,161.06c-4.44-3.03-7.28-6.23-9.48-9.94-1.44-2.44-.88-5.18,.92-6.25,2.07-1.24,4.86-.31,6.21,2.38,2.05,4.06,3,8.38,2.35,13.82Z"/>
          <path class="cls-32" d="M1424.15,91.43l-.28-8.86c.36-2.29,.65-4.6,1.11-6.88,.41-1.98,1.84-2.71,3.74-2.32,1.79,.37,2.66,1.85,2.15,3.36-1.62,4.82-3.51,9.56-5.38,14.29-.11,.27-.89,.27-1.35,.4Z"/>
          <path class="cls-20" d="M1343.05,293.43c-.37-4.64-.74-9.28-1.11-13.92,.94-1.53,1.7-3.55,4.08-2.57,2.06,.84,2.38,2.84,1.92,4.64-1.06,4.16-.77,8.93-4.89,11.84Z"/>
        </g>
      </g>
    </g>
  </g>
</svg>