<?xml version="1.0" encoding="UTF-8"?>
<svg xmlns="http://www.w3.org/2000/svg" viewBox="0 0 1874.91 396.79">
  <defs>
    <style>
      .cls-1 {
        fill: #ee91f6;
      }

      .cls-2 {
        fill: #131212;
      }

      .cls-3 {
        fill: #fee877;
      }

      .cls-4 {
        fill: #14100f;
      }

      .cls-5 {
        fill: #171012;
      }

      .cls-6 {
        fill: #da1be9;
      }

      .cls-7 {
        fill: #151010;
      }

      .cls-8 {
        fill: #ee8ff6;
      }

      .cls-9 {
        fill: #12100e;
      }

      .cls-10 {
        fill: #3a458b;
      }

      .cls-11 {
        fill: #14110e;
      }

      .cls-12 {
        fill: #b89af8;
      }

      .cls-13 {
        fill: #6977ca;
      }

      .cls-14 {
        fill: #191015;
      }

      .cls-15 {
        fill: #12100d;
      }

      .cls-16 {
        fill: #6831d5;
      }

      .cls-17 {
        fill: #141111;
      }

      .cls-18 {
        fill: #13110f;
      }

      .cls-19 {
        fill: #191311;
      }

      .cls-20 {
        fill: #d25171;
      }

      .cls-21 {
        fill: #13100d;
      }

      .cls-22 {
        fill: #13100e;
      }

      .cls-23 {
        fill: #6876c9;
      }

      .cls-24 {
        fill: #6977cb;
      }

      .cls-25 {
        fill: #17140e;
      }

      .cls-26 {
        fill: #b798f7;
      }

      .cls-27 {
        fill: #19160f;
      }

      .cls-28 {
        fill: #f8a0b7;
      }

      .cls-29 {
        fill: #13100f;
      }

      .cls-30 {
        fill: #efd54f;
      }
    </style>
  </defs>
  <g id="_лой_1" data-name="Слой 1"/>
  <g id="_лой_2" data-name="Слой 2">
    <g id="_лой_1-2" data-name="Слой 1">
      <g>
        <path class="cls-15" d="M1658.75,0c.65,.35,1.42,.13,2.11,.26,7.51,1.42,15.04,2.71,22.55,4.16,14.07,2.72,22.4,11.57,26.32,24.98,1.88,6.43,2.67,12.94,2.29,19.71-1.33,23.17-4.91,46-10.37,68.51-3.68,15.17-3.25,29.9,1.63,44.71,3.35,10.15,5.61,20.66,3.81,31.42-.92,5.52-2.85,10.88-4.51,16.26-1.36,4.43-3.04,8.77-4.49,13.18-3.2,9.69-3.5,19.58-1.91,29.59,3.51,22.18,7.27,44.33,10.42,66.56,1.73,12.18,2.85,24.49,3.45,36.77,.58,11.94-4.44,22.01-12.85,30.34-3.63,3.6-8.21,5.71-13.18,6.71-5.87,1.18-11.8,1.99-17.7,3.03-.84,.15-2.04-.21-2.84,.15-1.93,.44-3.08,.44-5.08,.44-1.58,0-3.61-1.07-5.25-1.35-4.82-.82-9.26-2.47-13.54-4.84-8.28-4.59-16.71-8.92-25.06-13.37-5.27-2.81-10.81-3.41-16.42-1.48-8.78,3.01-17.86,5.51-26.14,9.58-21.66,10.63-44.25,12.56-67.66,8.94-3.26-.5-6.58-1.26-9.62-2.52-12.44-5.12-24.89-10.23-36.5-17.17-6.69-4-13.33-8.26-21.14-9.86-4.56-.93-9.17-1.66-13.79-2.25-15.88-2.01-28.04-9.49-36.24-23.5-2.32-3.97-5.95-7.25-6.87-11.94-1.03-5.22-2.38-10.52-2.31-15.77,.15-11.82,1.11-23.63,3.71-35.21,2.71-12.08,7.77-23.29,12.93-34.48,2.28-4.94,4.13-10.17,5.43-15.45,1.84-7.47,.17-14.94-1.66-22.21-2.18-8.64-3.37-17.34-2.63-26.21,1.79-21.39,11.44-38.39,29.36-50.25,4.63-3.06,10.1-5.19,15.47-6.73,9.42-2.7,19-4.93,28.62-6.77,10.23-1.96,20.57-1.7,30.72,.86,7.86,1.99,15.75,3.22,23.57,.38,4.81-1.75,9.42-4.1,14.03-6.36,1.93-.94,3.68-2.28,5.44-3.54,11.29-8.14,23.63-8.97,36.63-5.3,6.83,1.93,12.38,5.73,16.4,11.55,2.83,4.1,5.37,8.41,7.93,12.69,1.88,3.13,3.58,6.37,5.72,10.19,.51-1.47,1.02-2.39,1.15-3.36,1.64-12.05,2.91-24.11,2.99-36.31,.14-20.35,1.65-40.59,6.35-60.48,1.61-6.8,3.71-13.43,6.99-19.67,3.99-7.61,10.06-12.19,18.55-13.65,1.5-.26,3.56-.94,5.22-.59,3,0,4.97-.35,7.97-.35Zm-271.47,310.05c.72,6.08,.44,12.49,2.36,18.16,3.81,11.19,11.55,19.43,23.12,22.98,6.29,1.93,12.9,2.97,19.44,3.87,8.17,1.12,15.81,3.43,22.94,7.62,12.32,7.24,25.04,13.69,38.38,18.88,6.86,2.67,13.85,4.42,21.24,4.69,7.29,.26,14.57,.64,21.85-.09,8.1-.81,16-2.27,23.6-5.49,10.68-4.53,21.46-8.86,32.39-12.71,9.43-3.33,19.22-3.37,27.96,1.85,8.47,5.06,17.63,8.5,26.34,12.96,5.08,2.6,10.8,3.4,16.44,3.21,4.78-.17,9.55-1.1,14.28-1.89,11.53-1.93,20.48-11.54,22.42-23.03,1.75-10.36-.75-20.52-.73-30.79,0-3.46-.59-6.93-1.11-10.37-2.1-13.75-4.3-27.49-6.42-41.24-1.24-8.02-2.61-16.02-3.53-24.08-.75-6.56-1.97-13.05-.82-19.81,1.54-9.03,3.97-17.76,6.96-26.37,2.25-6.48,3.6-13.05,3.64-19.96,.05-8.93-2.19-17.42-4.53-25.88-2.36-8.53-3.97-17.07-3.76-25.98,.23-10.04,2.73-19.66,4.66-29.41,2.06-10.39,3.95-20.83,5.45-31.31,1.12-7.87,1.05-15.92,2.34-23.75,1.24-7.53-.25-14.52-2.4-21.51-2.44-7.92-7.1-13.85-15.52-16.04-1.92-.5-3.86-.99-5.83-1.26-8.21-1.14-16.44-2.13-24.64-3.29-8.63-1.22-15.45,2.03-19.56,9.54-3.47,6.32-5.1,13.22-6.75,20.2-4.3,18.24-4.91,36.8-5.35,55.38-.07,2.81,.65,5.64,.48,8.43-.42,6.79-.9,13.59-1.81,20.32-.8,5.89-2.13,11.72-3.41,17.53-.63,2.87-2.07,5.35-5.33,5.89-3.3,.54-5.88-.89-7.76-3.5-1.84-2.56-3.6-5.19-5.2-7.9-3.46-5.86-6.65-11.89-10.24-17.67-3.01-4.86-7.41-7.98-13.19-8.98-9.76-1.69-19.11-1.5-27.54,4.78-2.92,2.17-6.16,3.95-9.38,5.66-9.06,4.8-18.55,8.33-29,7.55-4.93-.37-9.82-1.49-14.7-2.43-7.72-1.49-15.46-2.36-23.23-.69-9.55,2.05-19.16,3.95-28.53,6.66-5.33,1.54-10.73,3.88-15.25,7.05-17.06,12-28.36,35.74-22.14,59.79,1.37,5.28,2.3,10.68,3.26,16.05,1.49,8.37,.64,16.57-2.63,24.4-3.01,7.19-6.49,14.18-9.56,21.35-6.9,16.15-8.95,33.21-9.71,50.65Z"/>
        <path class="cls-15" d="M357.17,292.4c1.43-15.59,3.25-31.19,2.56-46.86-.29-6.58-1.73-13.18-3.3-19.61-2.41-9.88-4.53-19.81-5.02-29.96-.29-5.95,.41-11.96,.88-17.93,1.1-13.93,2.56-27.83,3.39-41.78,.35-5.95-.49-11.97-.82-17.95-1.48-26.67,6.41-50.21,23.82-70.45,5.31-6.17,10.96-12.08,16.73-17.83,4.52-4.5,10.22-6.55,16.66-6.94,7.14-.43,14.24-1.35,21.37-1.96,9.04-.78,17.95,.11,26.73,2.36,4.45,1.14,8.84,1.07,13.32,.04,5.99-1.37,12.04-2.49,18.07-3.65,7.19-1.37,14.2-.84,21.09,1.79,3.71,1.41,7.59,2.4,11.4,3.53,7.47,2.2,14.87-.26,22.31-.33,5.98-.05,12.04-.73,17.93-.03,15.97,1.9,27.98,11.02,38.01,22.83,12.26,14.43,21.76,30.61,28.67,48.27,3.69,9.43,5.58,19.32,4.75,29.32-1.07,12.91-2.99,25.76-4.99,38.57-2.04,13.06-9.56,23.19-18.57,32.37-13.27,13.52-29.5,21.44-47.98,24.69-4.68,.82-9.63,.25-14.45,.11-3.15-.09-6.33-.38-9.44-.91-9.69-1.65-18.86,.56-27.92,3.57-3.31,1.1-6.62,2.27-9.79,3.71-6.34,2.89-12.81,3.2-19.5,1.66-3.88-.9-7.79-1.78-11.73-2.33-7.37-1.02-13.87,.72-18.86,6.64-6.04,7.16-10.16,15.34-11.54,24.54-1.95,13-3.21,26.1-4.82,39.14-.56,4.56,.34,8.89,1.42,13.3,1.62,6.61,3.03,13.3,4.1,20.02,1.17,7.35,.21,14.63-2.01,21.7-2.34,7.45-4.8,14.86-7.36,22.24-.87,2.49-2.01,4.94-3.39,7.19-1.02,1.67-2.34,3.52-3.99,4.36-12.2,6.17-24.8,10.57-38.8,7.3-1.46-.34-2.9-.75-4.34-1.14-13.38-3.6-20.86-12.96-24.8-25.64-2.08-6.7-3.25-13.56-3.07-20.63,.1-4,.02-8,.02-12m7.07,3.77c0,2.67-.06,5.33,.01,8,.28,10.3,2.74,19.89,8.72,28.49,2.36,3.39,5.34,5.68,9.05,7.42,9.56,4.49,19.41,4.61,29.63,3.08,4.53-.68,7.44-1.87,8.58-6.84,.71-3.11,3.42-5.7,4.53-8.78,2.69-7.45,5.09-15,7.33-22.6,.78-2.65,.91-5.53,1.11-8.32,.64-8.87-.98-17.57-3.41-25.95-2.08-7.17-1.19-14.09-.36-21.09,.99-8.34,3-16.59,3.51-24.94,.58-9.4,2.39-18.33,6.37-26.8,3.53-7.51,7.47-14.84,14.37-19.9,5.94-4.35,12.75-6.48,20.04-5.79,5.38,.51,10.72,1.84,15.98,3.17,4.53,1.14,8.83,.84,13.14-.74,5.11-1.88,10.16-4,15.38-5.5,9.92-2.86,19.94-4.04,30.37-2.43,6.02,.93,12.44,1,18.44,0,11.9-2,22.64-7.37,32.28-14.53,4.2-3.11,7.42-7.51,11.32-11.07,7.01-6.38,9.9-14.69,11.52-23.63,1.35-7.45,2.77-14.9,3.78-22.4,.71-5.24,1.33-10.6,1-15.84-.57-8.94-2.98-17.53-6.93-25.65-5.09-10.44-10.68-20.55-17.86-29.77-5.82-7.49-11.62-14.89-19.79-20.03-7.52-4.73-15.81-6.8-24.55-6.59-6.59,.16-13.15,1.29-19.74,1.69-7.39,.44-14.37-1.73-21.28-4.01-5.15-1.7-10.08-4.58-15.73-3.82-6.52,.88-13.09,1.78-19.46,3.36-7.42,1.85-14.56,1.76-21.99-.06-9.18-2.24-18.52-3.47-28.02-1.5-3.38,.7-6.93,1.29-10.33,1.03-6.98-.54-12.2,2.39-16.61,7.29-4.11,4.56-8.03,9.28-12.1,13.88-13.42,15.16-19.38,33.23-20.33,53.1-.28,5.76,.57,11.57,.88,17.36,.67,12.64-.76,25.18-2.03,37.72-.35,3.45-.83,6.88-1.24,10.32-.55,4.58-1.37,9.16-1.59,13.76-.54,11.18,2,21.99,4.53,32.77,1.74,7.4,3.7,14.79,3.31,22.46-.32,6.26-.95,12.52-1.85,18.72-1.92,13.21-3.79,26.44-6.27,39.55-2.22,11.74-3.92,23.47-3.73,35.43Z"/>
        <path class="cls-15" d="M1131.84,204.86c-1.04,.65-1.44,.97-1.89,1.17-8.22,3.6-10.92,10.82-11.88,18.85-.92,7.71-3.87,14.01-10.31,18.54-1.63,1.15-3.13,2.49-4.61,3.83-4.63,4.23-5,7.23-1.61,12.64,.88,1.41,2.03,2.7,2.67,4.21,1.08,2.57,2.41,5.23,2.6,7.93,.24,3.47,1.81,5.59,4.57,7.14,2.32,1.3,4.64,2.62,7.06,3.7,8.63,3.88,17.3,7.66,25.95,11.49,8.55,3.79,17.4,6.7,26.73,7.53,10.1,.9,20.12,2.45,30.35,2.19,12.52-.32,24.8-1.43,37.03-4.43,9.16-2.25,18.68-3.04,28.05-4.38,4.61-.66,9.24-1.17,13.86-1.66,11.55-1.22,22.53,.98,32.98,5.83,5.68,2.64,8.57,7.68,10.39,13.4,3.58,11.25,1.83,22.39-1.1,33.41-1.17,4.39-3.57,8.23-7.1,11.25-10.6,9.08-21.98,16.49-36.14,19-11.11,1.98-22.05,4.82-33.1,7.14-3.41,.72-6.9,1.11-10.37,1.42-9.95,.89-19.89,2.11-29.86,2.36-12.13,.3-24.3,.02-36.42-.54-7.79-.36-15.59-1.34-23.28-2.65-16.38-2.79-31.78-8.36-45.87-17.32-6.9-4.38-14.02-8.36-22.11-10.08-5.03-1.07-10.15-1.69-15.23-2.55-3.96-.67-7.6-1.82-10.55-4.92-1.9-2-4.42-3.45-6.78-4.96-4.31-2.76-7.64-6.42-10.18-10.78-6.29-10.8-9.81-22.48-10.73-34.94-1.31-17.76-2.57-35.53-3.82-53.29-.75-10.54,.41-20.94,2.26-31.29,2.04-11.45,4.55-22.87,3.45-34.62-.53-5.62-1.19-11.24-2.12-16.81-1.85-11.09,.48-21.49,4.94-31.54,7.04-15.88,16.85-29.71,30.36-40.81,15.31-12.58,31.02-24.62,47.66-35.41,7.85-5.09,16.08-9.2,25.41-11.04,7.31-1.44,13.64-5.39,19.37-9.9,14.01-11.03,30-14.28,47.02-11.48,8.9,1.46,17.5,5.08,26.05,8.21,12.94,4.74,25.65,10.15,39.48,11.89,9.4,1.18,18.77,2.73,28.21,3.45,12.92,.99,25.21,4.4,37.19,8.93,9.25,3.5,16.62,9.76,21.95,18.15,6.43,10.12,10.8,20.97,10.63,33.24-.11,7.64-1.88,14.92-5.81,21.41-3.69,6.09-6.1,12.51-7.24,19.49-2.28,13.92-10.62,23.71-22.54,29.97-9.18,4.82-17.93,10.09-26.26,16.2-6.98,5.11-14.42,9.63-21.21,14.98-12.85,10.12-27.74,15.5-43.18,19.9-10.58,3.01-21.33,3.38-32.17,2.78-9.49-.53-18.86-1.92-28.09-4.2-7.48-1.85-14.45-4.8-21.07-8.8-7.67-4.63-15.63-8.8-23.55-13.21Zm71.28,107.34c-11.97,1.49-23.43-1.02-34.94-2.24-11.8-1.25-22.77-5.69-33.28-11.18-4.27-2.23-8.62-4.3-12.96-6.39-4.78-2.31-9.65-4.44-14.37-6.86-4.31-2.21-7.84-5.55-8.37-10.49-.44-4.06-2.13-7.23-4.31-10.4-.94-1.36-1.69-2.86-2.41-4.35-2.69-5.51-2-10.65,2.01-15.25,1.95-2.24,4.01-4.43,6.28-6.34,4.56-3.84,6.93-8.38,7.44-14.55,.47-5.67,1.95-11.5,4.18-16.74,3.71-8.73,11.96-11.73,20.95-8.61,.77,.27,1.62,.29,2.42,.49,6.28,1.59,12.4,3.54,17.96,7.05,4.47,2.82,8.97,5.76,13.82,7.8,17.92,7.54,36.84,7.82,55.86,6.99,.49-.02,.98-.18,1.46-.31,8.14-2.2,16.39-4.05,24.37-6.72,5.78-1.94,11.58-4.38,16.68-7.65,10.48-6.72,20.58-14.05,30.68-21.34,7.68-5.54,15.31-10.91,24.05-14.9,10.79-4.92,17.78-13.54,20.3-25.51,1.05-5,2.64-9.9,4.29-14.74,.9-2.66,2.51-5.06,3.65-7.65,2.94-6.62,5.11-13.62,3.72-20.78-1.25-6.44-3.32-12.9-6.18-18.8-4.71-9.75-12.43-16.44-22.83-20.32-16.17-6.04-33.04-8.16-49.98-10.23-9.51-1.17-19.07-2.4-28.19-5.6-13.6-4.76-27.17-9.61-40.71-14.54-9.71-3.54-19.48-3.09-29.39-1.1-6.67,1.34-12.38,4.56-17.91,8.31-7.69,5.21-15.36,10.55-24.68,12.52-7.1,1.51-13.4,4.83-19.45,8.61-15.39,9.61-29.64,20.8-43.9,31.97-13.3,10.43-23.67,23.09-30.92,38.49-5.8,12.32-7.89,24.85-5.35,38.2,2.33,12.21,1.65,24.34-.67,36.52-2.1,11.06-4.13,22.19-3.55,33.56,.25,4.97,.59,9.94,.94,14.9,.71,10.1,1.44,20.2,2.18,30.3,.36,4.96,.57,9.95,1.19,14.88,1.22,9.58,3.99,18.74,8.03,27.54,2,4.37,4.9,7.87,8.65,10.76,3.01,2.32,6.07,4.6,9.02,6.99,2.41,1.95,4.96,2.84,8.19,2.89,4.77,.08,9.57,.77,14.29,1.55,8.53,1.42,15.88,5.72,23.05,10.23,8.78,5.52,18.07,9.73,28.09,12.4,8.66,2.31,17.36,4.23,26.33,4.89,10.58,.78,21.15,2.41,31.73,2.47,12.26,.06,24.54-1.02,36.79-1.95,6.92-.52,13.82-1.54,20.67-2.67,7.83-1.28,15.61-2.83,23.38-4.43,5.17-1.06,10.4-2.08,15.41-3.7,8.36-2.69,15.18-8.11,21.94-13.51,3.1-2.48,5.15-5.89,5.94-9.61,2.02-9.47,2.22-19.03-.18-28.53-1.05-4.13-3.34-7.12-7.39-8.73-6.83-2.71-13.8-4.94-21.22-4.53-6.61,.37-13.21,1.06-19.76,1.98-7.69,1.07-15.41,2.19-22.98,3.9-13.29,3.01-26.49,6.35-40.02,5.02Z"/>
        <path class="cls-15" d="M764.82,204.86c-1.09,.69-1.48,1.02-1.93,1.21-8.25,3.59-10.87,10.87-11.83,18.88-.93,7.72-3.92,13.99-10.36,18.52-1.76,1.24-3.4,2.69-4.97,4.17-3.99,3.77-4.42,6.81-1.69,11.48,.92,1.58,2.24,2.97,2.93,4.63,1.19,2.87,2.43,5.83,2.88,8.86,.38,2.56,1.35,4.4,3.35,5.78,1.36,.94,2.78,1.85,4.3,2.52,13.06,5.74,26.03,11.73,39.29,16.99,5.48,2.17,11.53,3.3,17.42,3.94,10.07,1.09,20.11,2.51,30.34,2.24,12.52-.32,24.79-1.44,37.02-4.45,9.15-2.25,18.68-3.02,28.05-4.37,4.61-.66,9.23-1.19,13.86-1.67,11.54-1.2,22.53,.99,32.97,5.87,5.67,2.65,8.53,7.71,10.35,13.44,3.41,10.73,1.87,21.36-.75,31.96-1.32,5.34-4.02,9.83-8.25,13.35-10.45,8.71-21.6,15.87-35.42,18.3-11.11,1.95-22.05,4.82-33.1,7.14-3.41,.72-6.9,1.1-10.38,1.41-9.95,.89-19.89,2.11-29.86,2.36-12.13,.3-24.3,.01-36.42-.55-7.79-.36-15.59-1.34-23.28-2.65-16.21-2.77-31.47-8.26-45.44-17.08-7.05-4.45-14.3-8.54-22.54-10.34-4.7-1.02-9.47-1.81-14.24-2.4-4.59-.56-8.58-1.91-11.85-5.47-1.75-1.9-4.22-3.16-6.46-4.58-4.62-2.93-8.1-6.93-10.69-11.64-6.35-11.54-9.71-23.89-10.35-37.09-.6-12.3-1.5-24.59-2.7-36.85-1.64-16.85-1.39-33.55,2.24-50.14,3.09-14.12,3.68-28.27,.78-42.56-2.76-13.59,.13-26.38,6.2-38.66,7.32-14.81,17-27.68,29.9-38.12,15.02-12.15,30.29-23.93,46.52-34.43,7.85-5.08,16.1-9.17,25.42-11.02,7.3-1.45,13.63-5.41,19.36-9.92,14.01-11.02,30.02-14.25,47.03-11.44,8.9,1.47,17.49,5.1,26.05,8.24,12.94,4.74,25.66,10.13,39.49,11.88,9.4,1.19,18.77,2.72,28.21,3.44,12.92,.99,25.21,4.42,37.18,8.96,9.25,3.5,16.62,9.78,21.93,18.17,6.41,10.13,10.79,20.98,10.59,33.25-.13,7.64-1.92,14.91-5.85,21.39-3.7,6.09-6.07,12.53-7.22,19.5-2.3,13.91-10.66,23.67-22.59,29.94-9.03,4.75-17.66,9.88-25.85,15.91-6.97,5.13-14.39,9.67-21.19,15-12.86,10.08-27.69,15.63-43.13,20.04-10.89,3.11-22.01,3.78-33.16,2.75-9.09-.84-18.14-2.32-27.11-4.04-7.71-1.48-14.8-4.78-21.56-8.87-7.67-4.64-15.62-8.8-23.51-13.2Zm71.27,107.61c-3.14,0-6.3,.21-9.41-.04-6.77-.56-13.5-1.63-20.28-2-9.58-.52-18.71-2.8-27.39-6.61-10.18-4.47-20.14-9.41-30.19-14.18-3-1.42-6.05-2.78-8.91-4.45-4.01-2.34-7.31-5.62-7.76-10.4-.35-3.71-1.91-6.61-3.81-9.55-1.17-1.81-2.31-3.67-3.19-5.63-2.34-5.22-1.44-10.1,2.18-14.39,2.02-2.39,4.24-4.66,6.63-6.69,4.42-3.75,6.87-8.14,7.16-14.15,.3-6.09,1.53-12.17,4.5-17.69,4.27-7.94,12.23-11.02,20.49-8.01,.76,.28,1.59,.38,2.39,.57,6.47,1.56,12.75,3.53,18.39,7.26,7.35,4.86,14.94,9.29,23.73,11.05,5.35,1.07,10.71,2.4,16.13,2.74,9.77,.62,19.74,1.8,29.35,.56,14.8-1.9,29.29-6.2,42.17-14.03,10.63-6.46,20.63-13.97,30.73-21.27,7.8-5.65,15.49-11.25,24.41-15.27,11.01-4.96,18.08-13.67,20.54-25.87,.98-4.84,2.56-9.58,4.16-14.26,.91-2.65,2.52-5.06,3.66-7.65,2.99-6.78,5.18-13.92,3.79-21.26-1.17-6.12-3.17-12.24-5.83-17.88-4.7-9.96-12.36-16.89-22.94-20.89-16.16-6.1-33.05-8.05-49.96-10.35-9.48-1.29-19.05-2.83-28.17-5.61-13.93-4.24-27.52-9.6-41.21-14.59-9.38-3.42-18.9-3.01-28.46-1.23-6.98,1.3-13.02,4.7-18.82,8.68-7.66,5.27-15.39,10.5-24.71,12.47-7.12,1.51-13.39,4.86-19.43,8.67-14.5,9.14-27.93,19.75-41.53,30.15-14.99,11.46-26.69,25.31-34.21,42.68-3.83,8.83-6.02,17.93-5.26,27.57,.51,6.44,1.05,12.9,2.2,19.24,1.19,6.57-.02,12.9-.9,19.27-1.3,9.34-3.72,18.6-4.13,27.96-.51,11.59,.31,23.26,.98,34.87,.6,10.25,2.02,20.46,2.64,30.71,.54,8.84,2.08,17.39,5.05,25.73,3.13,8.78,7.33,16.69,15.77,21.62,1.84,1.07,3.41,2.62,5.06,4,2.36,1.97,4.87,3,8.12,3.05,4.78,.08,9.59,.67,14.31,1.48,8.67,1.5,16.17,5.85,23.49,10.45,8.63,5.42,17.78,9.55,27.65,12.18,8.66,2.31,17.34,4.3,26.32,4.94,11.74,.83,23.48,2.39,35.22,2.51,11.26,.11,22.54-1.05,33.79-1.97,6.92-.57,13.82-1.54,20.67-2.69,7.98-1.34,15.91-3.02,23.83-4.66,4.85-1,9.76-1.87,14.47-3.37,8.54-2.72,15.5-8.2,22.35-13.76,3.07-2.5,5.02-5.93,5.81-9.67,1.97-9.32,2.11-18.71-.16-28.05-1.05-4.32-3.45-7.44-7.7-9.08-7.01-2.7-14.16-4.9-21.75-4.41-6.44,.41-12.88,1.07-19.26,2-8.67,1.27-17.43,2.36-25.89,4.52-12.15,3.11-24.32,5.2-36.88,4.65Z"/>
        <path class="cls-20" d="M1387.28,310.05c.76-17.44,2.81-34.5,9.71-50.65,3.07-7.17,6.55-14.16,9.56-21.35,3.28-7.82,4.12-16.03,2.63-24.4-.96-5.37-1.89-10.77-3.26-16.05-6.22-24.04,5.07-47.79,22.14-59.79,4.52-3.18,9.92-5.51,15.25-7.05,9.37-2.71,18.98-4.61,28.53-6.66,7.77-1.67,15.51-.8,23.23,.69,4.88,.94,9.76,2.07,14.7,2.43,10.45,.78,19.94-2.75,29-7.55,3.22-1.71,6.47-3.49,9.38-5.66,8.42-6.28,17.78-6.47,27.54-4.78,5.78,1,10.18,4.12,13.19,8.98,3.58,5.78,6.77,11.81,10.24,17.67,1.6,2.71,3.36,5.35,5.2,7.9,1.88,2.6,4.46,4.04,7.76,3.5,3.26-.54,4.7-3.02,5.33-5.89,1.27-5.82,2.61-11.64,3.41-17.53,.91-6.73,1.4-13.53,1.81-20.32,.17-2.79-.54-5.63-.48-8.43,.43-18.59,1.04-37.14,5.35-55.38,1.65-6.98,3.28-13.87,6.75-20.2,4.12-7.51,10.93-10.76,19.56-9.54,8.2,1.16,16.43,2.15,24.64,3.29,1.96,.27,3.9,.76,5.83,1.26,8.42,2.19,13.09,8.12,15.52,16.04,2.15,6.99,3.64,13.97,2.4,21.51-1.29,7.83-1.22,15.88-2.34,23.75-1.5,10.48-3.39,20.92-5.45,31.31-1.93,9.75-4.43,19.37-4.66,29.41-.2,8.91,1.41,17.45,3.76,25.98,2.34,8.46,4.58,16.95,4.53,25.88-.04,6.91-1.39,13.48-3.64,19.96-2.99,8.61-5.42,17.34-6.96,26.37-1.15,6.76,.08,13.26,.82,19.81,.92,8.06,2.29,16.06,3.53,24.08,2.12,13.75,4.32,27.48,6.42,41.24,.52,3.44,1.12,6.91,1.11,10.37-.02,10.27,2.48,20.43,.73,30.79-1.94,11.49-10.9,21.09-22.42,23.03-4.74,.8-9.51,1.73-14.28,1.89-5.65,.2-11.36-.61-16.44-3.21-8.71-4.46-17.88-7.9-26.34-12.96-8.74-5.22-18.53-5.17-27.96-1.85-10.93,3.86-21.71,8.19-32.39,12.71-7.6,3.23-15.5,4.68-23.6,5.49-7.28,.73-14.56,.35-21.85,.09-7.38-.27-14.38-2.02-21.24-4.69-13.34-5.19-26.06-11.64-38.38-18.88-7.13-4.19-14.77-6.5-22.94-7.62-6.54-.9-13.15-1.94-19.44-3.87-11.56-3.55-19.3-11.78-23.12-22.98-1.93-5.66-1.65-12.08-2.36-18.16Zm59.73-148.79c.7-3.12,1.41-6.24,2.17-9.61-8.06,2-10.23,4.94-8.27,10.57-5.41,2.93-9.47,7.07-11.45,12.98-1.4,4.18-.1,8,3.16,9.98,3.26,1.98,6.61,1.53,9.73-1.91,3.67-4.04,6.45-8.71,8-14,.41-1.39,.46-2.9,.58-4.36,.21-2.8-1.2-3.95-3.91-3.65Zm74.81,176.83c2.62,0,5.81,.27,8.94-.06,6.91-.73,13.78-1.88,20.69-2.64,9.01-.99,17.49-3.39,25.36-8.04,15.13-8.94,22.93-22,23.32-39.65,.19-8.71-1.06-17.17-2.66-25.67-1.18-6.32-2.47-12.83-2.14-19.18,.36-6.86,2.33-13.68,3.98-20.42,1.55-6.3,3.35-12.57,2.63-19.11-1.39-12.67-6.55-23.09-19.06-28.08-12.52-5-25.5-5.64-38.57-2.24-16.61,4.32-28.5,15.14-38.53,28.42-5.68,7.52-9.04,16.2-11.87,25.07-2.42,7.61-6.13,14.29-12.24,19.59-2.89,2.5-5.61,5.23-8.15,8.09-12.43,13.98-16.51,38.59,.53,54.95,4.68,4.49,9.55,8.78,14.22,13.29,1.11,1.07,1.65,2.71,2.59,3.99,1.23,1.67,2.26,4.04,3.94,4.74,8.5,3.5,16.59,8.75,27.01,6.96Zm116.41-97.74c4.2-7.28,5.28-15.15,6.61-22.89,.94-5.51,1.5-11.1,1.89-16.68,.17-2.41-.07-5.06-.94-7.28-2.36-5.99-9.41-7.52-13.44-2.24-1.91,2.5-2.45,5.42-2.38,8.37,.17,7.45,.3,14.91,1,22.32,.46,4.87,1.87,9.65,2.87,14.46,.44,2.14,1.62,3.54,4.39,3.94Zm22.11-162.51c-.51-3.91-.72-7.89-1.61-11.71-.73-3.13-4.01-5.01-7.18-4.91-3.41,.11-5.77,1.5-6.5,4.99-.79,3.83-1.25,7.88-.93,11.76,.55,6.69,1.61,13.36,2.85,19.96,1,5.3,2.55,10.5,3.96,15.72,.17,.62,.99,1.52,1.47,1.49,.6-.03,1.36-.78,1.68-1.41,.67-1.31,1.3-2.7,1.6-4.12,2.16-10.47,4.34-20.94,4.66-31.77Zm23.79-3.98c4.71-3.14,5.66-7.01,5.63-11.03-.08-10.12-2.81-19.59-7.82-28.37-.8-1.4-1.96-2.74-3.27-3.67-2.95-2.09-6.21-3.09-9.78-1.47-4.08,1.85-4.64,6.1-1.32,9.12,1.3,1.18,2.66,2.53,3.37,4.09,3.98,8.72,7.8,17.53,11.61,26.33,.61,1.42,.94,2.96,1.58,5.01Zm-248.58,170.1c-7.64,4.71-11.73,10.83-14.76,17.73-2.19,4.98-3.68,10.17-2.95,15.69,.52,3.94,2.61,5.68,5.96,5.97,3.82,.33,5.54-3.04,6.11-5.91,1.89-9.49,3.8-18.97,5.61-28.47,.25-1.32,.03-2.73,.03-5.01Zm128.33-120.66c-1.16-.46-1.96-1.11-2.6-.98-5.12,1.06-10.34,1.87-15.26,3.57-3.16,1.09-5.92,3.46-8.71,5.46-1.88,1.35-1.76,3.48-1.13,5.45,1.02,3.19,5.24,4.86,8.7,2.84,7.1-4.15,14.17-8.48,18.99-16.33Zm112.05,224.75c-1.24,.36-1.86,.35-2.12,.65-4.21,4.96-10.07,6.67-16.04,8.1-2.4,.58-4.85,.89-7.27,1.36-2.34,.46-3.49,2.32-3.33,4.29,.11,1.35,1.4,3.11,2.65,3.73,1.66,.82,3.86,1.19,5.69,.89,3.05-.51,6.08-1.48,8.96-2.66,5.11-2.1,8.85-5.76,10.73-11.02,.55-1.54,.48-3.29,.74-5.33Zm-104.77,17.82c2.51-1.06,4.61-1.65,6.39-2.77,6.31-3.95,12.53-8.04,18.72-12.17,.68-.45,.98-1.48,1.46-2.25-.82-.24-1.65-.71-2.45-.67-6.91,.34-13.16,2.98-19.35,5.76-2.41,1.08-4.88,2.14-7.09,3.56-1.8,1.16-2.67,3.29-1.57,5.22,.78,1.37,2.52,2.2,3.88,3.31Zm65.04-307.45c-4.17,4.6-5.87,10.22-7.2,15.92-.7,3.02-1.04,6.18-1.01,9.28,.02,2.33,1.8,3.88,4.06,4.42,1.76,.43,4.28-1.34,4.72-3.58,1.69-8.63,2.07-17.29-.57-26.05Zm-199.1,87.8l-.87-.77c-8.82,3.73-14.32,10.54-17.43,19.5-.35,1-.28,2.29,0,3.35,.74,2.81,3.66,3.8,5.73,1.83,1.28-1.21,2.19-2.88,3.02-4.48,2.82-5.43,5.53-10.92,8.26-16.4,.49-.98,.86-2.02,1.29-3.03Z"/>
        <path class="cls-10" d="M360.98,337.47c-.2-11.96,1.51-23.69,3.73-35.43,2.48-13.11,4.35-26.34,6.27-39.55,.9-6.2,1.52-12.46,1.85-18.72,.4-7.66-1.57-15.05-3.31-22.46-2.53-10.78-5.07-21.59-4.53-32.77,.22-4.6,1.04-9.17,1.59-13.76,.41-3.44,.89-6.88,1.24-10.32,1.27-12.54,2.7-25.08,2.03-37.72-.31-5.79-1.15-11.6-.88-17.36,.95-19.87,6.91-37.94,20.33-53.1,4.07-4.59,7.99-9.32,12.1-13.88,4.41-4.9,9.62-7.83,16.61-7.29,3.4,.26,6.95-.32,10.33-1.03,9.5-1.97,18.84-.75,28.02,1.5,7.42,1.82,14.56,1.9,21.99,.06,6.37-1.58,12.94-2.48,19.46-3.36,5.66-.76,10.58,2.12,15.73,3.82,6.91,2.28,13.89,4.45,21.28,4.01,6.59-.4,13.15-1.53,19.74-1.69,8.74-.21,17.03,1.86,24.55,6.59,8.17,5.14,13.97,12.55,19.79,20.03,7.17,9.22,12.76,19.33,17.86,29.77,3.96,8.12,6.36,16.71,6.93,25.65,.34,5.24-.29,10.6-1,15.84-1.01,7.5-2.43,14.95-3.78,22.4-1.62,8.94-4.51,17.25-11.52,23.63-3.9,3.55-7.12,7.95-11.32,11.07-9.65,7.16-20.38,12.53-32.28,14.53-6,1-12.42,.93-18.44,0-10.43-1.61-20.45-.43-30.37,2.43-5.22,1.5-10.27,3.63-15.38,5.5-4.31,1.58-8.61,1.88-13.14,.74-5.26-1.33-10.6-2.66-15.98-3.17-7.29-.69-14.1,1.44-20.04,5.79-6.91,5.06-10.84,12.39-14.37,19.9-3.98,8.47-5.79,17.4-6.37,26.8-.51,8.35-2.52,16.6-3.51,24.94-.83,7-1.72,13.92,.36,21.09,2.44,8.38,4.05,17.08,3.41,25.95-.2,2.79-.33,5.66-1.11,8.32-2.25,7.59-4.65,15.15-7.33,22.6-1.11,3.08-3.82,5.67-4.53,8.78-1.14,4.97-4.04,6.16-8.58,6.84-10.22,1.53-20.07,1.4-29.63-3.08-3.7-1.74-6.68-4.02-9.05-7.42-5.98-8.59-8.44-18.19-8.72-28.49-.07-2.66-.01-5.33-.01-8Zm61.84,13.95c.46-.64,1.23-1.23,1.35-1.92,.96-5.79,1.82-11.59,2.67-17.4,.07-.46-.14-.96-.25-1.44-.59-2.65-2.61-2.61-4.68-2.49-2,.12-2.98,1.23-3.03,3.18-.05,1.98-.06,3.96-.09,5.94l-2.04-3.65c-1.1,5.38-2.21,9.65-2.8,13.98-.62,4.55-1.26,9.21-.93,13.75,.31,4.25-2.3,8.46,.08,12.84,1.98-2.36,3.73-4.76,4.73-7.43,1.89-5.04,3.35-10.24,4.99-15.37Zm-6.07-89.09c-5.94-.13-9.34,3.46-8.69,9.13,.33,2.93,.63,5.88,.82,8.82,.32,4.92,1.85,9.45,3.76,14.05,3.7-3,5.68-8.19,6.4-16.21,1.7,.3,2.4-.74,2.8-2.13,.59-2.05,1.32-4.07,1.69-6.16,.6-3.39,1.03-6.82,1.39-10.24,.17-1.63-.46-3.01-2.28-3.3-1.86-.3-3.78-.32-4.66,1.81-.56,1.35-.83,2.82-1.23,4.24ZM563.94,55.19c-2.1,.96-2.16,2.31-1.45,4.43,1.94,5.72,5.23,10.54,9.25,14.9,1.42,1.54,3.08,3.05,4.94,3.98,4.87,2.45,8.32,.72,9.43-4.41,1.93,1.31,3.44,3.57,6.87,2.78,0-1.91,.02-3.85,0-5.78-.08-5.7-2.3-7.05-7.93-4.84-.37-.46-.7-.97-1.13-1.38-.61-.57-1.29-1.07-1.94-1.6,.89-8.37-7.07-15.78-13.21-18.49-1.14-.5-2.57-.58-3.85-.5-3.02,.18-5.57,2.48-5.88,5.06-.25,2.09,1.18,3.8,4.24,5.16,.27,.12,.45,.45,.67,.68Zm1.05,51.13h-.08c0-4,.05-8-.01-12-.09-6.24-3.66-11.14-9.56-13.09-6.91-2.29-13.75-.72-20.57,.56-8.82,1.65-17.12,5.02-25.21,8.68-8.72,3.94-17.38,6.02-26.88,3.62-11.37-2.88-20.8,2-29.46,8.38-7.49,5.52-9.88,13.96-10.26,22.79-.25,5.76,.9,11.56,.8,17.34-.11,6.59,2.26,12.24,5.13,17.91,1.67,3.3,4.08,5.9,7.3,7.18,4.09,1.63,8.48,3.13,12.83,3.4,12.09,.74,24.23,.9,36.35,1.14,8,.16,15.8-1.39,23.29-4.07,6.44-2.31,12.48-5.55,16.29-11.57,1.94-3.06,3.66-6.34,4.99-9.71,2.64-6.7,6.15-12.77,10.96-18.17,2.95-3.31,4.33-7.34,4.12-11.89-.16-3.49-.03-7-.03-10.49Zm33.51,30.75c2.83-6.28,3.23-11.84,3.22-17.34,0-2.88-.95-5.81-1.79-8.62-.98-3.29-3.23-4.67-6.19-4.26-3.23,.45-3.97,1.37-3.85,5.61,.06,1.94,.4,3.93,.94,5.8,1.25,4.25,2.58,8.49,4.13,12.64,.7,1.88,1.99,3.53,3.52,6.16Zm-112.32-86.68c-4.61-4.94-15-6.93-20.58-4.5-2.28,.99-3.53,2.76-3.54,4.89,0,2.15,1.2,4.17,3.61,4.77,1.4,.35,2.98,.81,4.3,.5,4.75-1.13,9.44-2.53,14.13-3.93,.69-.21,1.21-.98,2.08-1.72Zm121.7,81.65c5.11-3.78,7.85-13.5,5.36-19-1.17-2.59-3.22-3.53-6.07-2.8-2.39,.62-3.8,3.02-3.16,5.89,1.18,5.23,2.52,10.43,3.86,15.9Zm-100.14,59.9c-2.14,.51-3.94,.77-5.62,1.38-2.52,.91-3.6,2.78-3.15,4.94,.47,2.2,2.89,4.47,5.02,3.86,4.08-1.18,8.07-2.78,11.93-4.57,1.63-.76,1.37-2.67-.42-3.35-2.58-.98-5.31-1.57-7.75-2.26Zm18.07-116.32c-.53-.45-.78-.86-1.02-.85-4.25,.14-8.5,.29-12.74,.52-1.13,.06-2.28,.25-3.35,.59-1.93,.62-3.21,1.92-2.69,4.08,.52,2.14,1.99,3.45,4.3,3.25,1.28-.11,2.59-.44,3.79-.9,4.18-1.61,8.42-3.17,11.71-6.68Zm-90.97-26.84c-3.22-3.4-7.02-2.68-10.56-2.42-2.48,.18-4.57,3.8-3.87,5.91,.92,2.76,3.47,4.15,5.86,2.73,2.9-1.73,5.51-3.96,8.56-6.21Zm-15.48,260.6c2.67-3.87,3.11-8.14,4.27-12.14,.11-.38-.16-1.06-.49-1.33-1.07-.89-2.25-2.33-3.38-2.32-2.19,.02-3.57,1.88-3.7,3.96-.27,4.12,.48,8.08,3.3,11.83Z"/>
        <path class="cls-16" d="M1203.12,312.2c13.53,1.33,26.73-2.02,40.02-5.02,7.57-1.71,15.28-2.83,22.98-3.9,6.55-.91,13.16-1.61,19.76-1.98,7.42-.41,14.39,1.82,21.22,4.53,4.05,1.61,6.34,4.59,7.39,8.73,2.41,9.5,2.2,19.06,.18,28.53-.79,3.71-2.84,7.13-5.94,9.61-6.76,5.4-13.58,10.82-21.94,13.51-5.01,1.62-10.24,2.64-15.41,3.7-7.77,1.6-15.55,3.15-23.38,4.43-6.86,1.12-13.75,2.14-20.67,2.67-12.25,.93-24.53,2.01-36.79,1.95-10.58-.05-21.14-1.68-31.73-2.47-8.97-.66-17.67-2.58-26.33-4.89-10.02-2.68-19.32-6.88-28.09-12.4-7.17-4.51-14.52-8.81-23.05-10.23-4.73-.79-9.52-1.47-14.29-1.55-3.23-.06-5.78-.94-8.19-2.89-2.96-2.39-6.01-4.67-9.02-6.99-3.75-2.89-6.65-6.4-8.65-10.76-4.04-8.8-6.8-17.96-8.03-27.54-.63-4.93-.83-9.92-1.19-14.88-.74-10.1-1.47-20.2-2.18-30.3-.35-4.96-.69-9.93-.94-14.9-.58-11.37,1.45-22.5,3.55-33.56,2.32-12.18,2.99-24.3,.67-36.52-2.54-13.35-.45-25.88,5.35-38.2,7.25-15.41,17.62-28.06,30.92-38.49,14.25-11.18,28.51-22.36,43.9-31.97,6.06-3.78,12.35-7.11,19.45-8.61,9.33-1.98,16.99-7.31,24.68-12.52,5.53-3.74,11.24-6.96,17.91-8.31,9.91-1.99,19.68-2.45,29.39,1.1,13.54,4.94,27.11,9.78,40.71,14.54,9.12,3.19,18.67,4.43,28.19,5.6,16.95,2.08,33.81,4.19,49.98,10.23,10.41,3.89,18.12,10.58,22.83,20.32,2.85,5.9,4.92,12.36,6.18,18.8,1.39,7.15-.78,14.16-3.72,20.78-1.15,2.58-2.75,4.99-3.65,7.65-1.64,4.84-3.24,9.74-4.29,14.74-2.51,11.98-9.5,20.59-20.3,25.51-8.74,3.98-16.38,9.36-24.05,14.9-10.1,7.29-20.2,14.61-30.68,21.34-5.11,3.28-10.9,5.71-16.68,7.65-7.98,2.68-16.23,4.52-24.37,6.72-.48,.13-.97,.29-1.46,.31-19.02,.83-37.94,.55-55.86-6.99-4.84-2.04-9.35-4.98-13.82-7.8-5.56-3.52-11.68-5.46-17.96-7.05-.8-.2-1.65-.22-2.42-.49-8.99-3.12-17.23-.12-20.95,8.61-2.23,5.25-3.71,11.07-4.18,16.74-.51,6.17-2.88,10.7-7.44,14.55-2.27,1.91-4.33,4.1-6.28,6.34-4,4.6-4.69,9.74-2.01,15.25,.73,1.49,1.48,2.99,2.41,4.35,2.18,3.17,3.87,6.34,4.31,10.4,.54,4.94,4.06,8.28,8.37,10.49,4.72,2.42,9.59,4.56,14.37,6.86,4.34,2.09,8.69,4.16,12.96,6.39,10.51,5.49,21.48,9.94,33.28,11.18,11.51,1.22,22.97,3.74,34.94,2.24Zm-26.17-262.18c-.79-.13-1.59-.27-2.38-.4-4.46-.73-8.92-1.1-13.25,.61-3.16,1.25-4.49,4.35-3.25,7.29,1.1,2.6,3.45,2.82,5.82,2.96,1.83,3.53,4.49,4.84,9,3.59,7.9-2.19,15.75-4.61,23.53-7.22,2.7-.9,5.12-2.64,8.76-4.59-2.51-1.41-3.88-2.6-5.46-3-7.64-1.9-15.26-1.64-22.79,.75Zm-73.95,34.07c-.58,.31-1.13,.79-1.75,.91-6.09,1.16-10.93,4.5-15.27,8.7-1.06,1.03-2.16,2.12-2.89,3.38-1.31,2.26-.96,4.99,.53,6.4,1.53,1.44,4.76,1.3,6.86-.36,1.16-.92,2.23-1.94,3.34-2.92,3.24,5.21,7.05,6.7,11.93,3.54,5.09-3.3,9.67-7.4,14.29-11.36,1.17-1.01,1.82-2.75,2.43-4.27,1.32-3.3,.51-5.44-2.69-6.89-1.31-.59-2.83-.84-4.28-.94-4.63-.33-8.53,1.86-12.49,3.82Zm84.76,8.58c-4.05,.74-8.18,1.2-12.14,2.27-13.32,3.61-23.34,11.94-30.62,23.29-7,10.91-11.82,22.66-9.02,36.17,.22,1.06-.08,2.23-.07,3.34,.04,5.92,.74,11.82,5.39,15.95,2.92,2.59,6.49,5.03,10.19,6.07,8.26,2.33,16.76,3.8,25.18,5.5,8.27,1.67,16.57,.59,24.84-.05,7.82-.6,15.68-1.78,22.18-6.48,7.25-5.25,14.26-10.9,20.95-16.84,5.56-4.94,11.64-8.77,18.47-11.59,3.37-1.39,6.69-2.92,9.91-4.63,2.58-1.36,4.61-3.53,4.9-6.52,.71-7.28-.29-14.27-4.69-20.4-3.52-4.91-8.74-7.48-14.01-9.96-3.83-1.81-7.88-2.55-12.08-2.35-5.47,.25-10.94,.85-16.4,.81-2.72-.02-5.6-.76-8.12-1.84-4.57-1.95-9.01-4.27-13.37-6.66-6.69-3.67-13.76-5.65-21.5-6.09Zm101.1,225.71c.18-2.81-1.91-3.74-3.88-4.49-1.98-.76-4.1-1.46-6.18-1.55-10.11-.46-20.12,.31-29.72,3.82-1.63,.6-3.07,1.78-4.5,2.84-1.85,1.37-2.22,3.48-1.45,5.38,.81,1.97,2.29,3.8,4.77,3.83,2.3,.02,4.64-.04,6.9-.43,4.2-.72,8.41-1.51,12.52-2.62,7.23-1.96,14.81-2.9,21.53-6.77Zm27.85-226.01c1.3,6.23,2.76,11.66,6.17,16.24,2.14,2.88,6.21,2.26,8.29-.95,2.59-3.98,1.87-8.51,1.98-12.85,.05-1.89-.47-3.99-1.35-5.68-2.49-4.8-7.66-6.21-11.5-2.88-1.81,1.57-2.59,4.33-3.59,6.11Zm-262.22,52.84c-4.23,.36-6.03,2.65-7.64,5.17-3.88,6.12-5.49,13.05-6.92,20.01-.36,1.75-.22,3.66,.04,5.45,.43,2.9,2.14,4.43,4.42,4.55,2.89,.16,3.69-2.03,4.29-4.03,.81-2.67,1.2-5.48,1.7-8.24,1.34-7.39,2.65-14.79,4.1-22.92Zm123.01,179.07c-1.01-1.74-1.47-3.33-2.52-4.18-4.34-3.48-9.31-5.71-14.95-5.83-4.26-.1-6.78,2.16-7.2,5.97-.46,4.21,1.46,6.98,5.67,8.01,6.66,1.63,12.6-.27,18.99-3.97Zm-116.31,6.79l.9-.72c-.25-1.42-.32-2.91-.78-4.26-1.35-3.88-2.78-7.74-4.32-11.55-1.3-3.21-2.74-6.37-4.25-9.49-1.03-2.14-2.78-3.27-5.26-2.78-2.29,.45-3.76,2.29-3.58,5.18,.12,1.91,.65,3.92,1.5,5.63,2.84,5.68,6.77,10.57,11.57,14.73,1.34,1.16,2.81,2.18,4.22,3.26Zm264.24-193.37c-1.43,1.4-2.51,2.37-3.49,3.44-2.37,2.56-4.76,5.1-7,7.77-1.94,2.3-2.09,4.91-.68,7.34,1.18,2.03,2.88,3.35,5.28,2.95,2.95-.5,3.76-2.99,4.32-5.46,.99-4.34,1.95-8.69,2.75-13.06,.13-.73-.62-1.62-1.18-2.97Zm-36.71,188.51c-3,.03-5.73,2.36-5.81,4.95-.11,3.46,2.93,6.1,7.02,6.09,3.44,0,6.84-2.21,6.92-4.48,.1-3.22-4.1-6.61-8.12-6.57Zm-207.65-4.04c-.95,.61-1.72,.95-2.29,1.5-1.75,1.68-1.85,4.4-.04,6.73,3.06,3.92,7.2,6.2,12,7.28,.52,.12,1.58-.15,1.64-.41,.16-.67,.15-1.62-.23-2.16-2.45-3.51-4.93-7-7.59-10.35-.86-1.08-2.29-1.71-3.51-2.58Zm-22.89-155.89c-.61,.21-1.76,.23-2.14,.78-2.79,4.01-4.51,8.44-4,13.41,.14,1.41,.77,2.92,1.61,4.05,.56,.76,2.11,1.52,2.85,1.25,1.01-.37,2.19-1.61,2.37-2.65,.33-1.92,.03-3.95-.07-5.93-.17-3.39-.38-6.77-.61-10.92Z"/>
        <path class="cls-16" d="M836.09,312.47c12.56,.55,24.73-1.53,36.88-4.65,8.46-2.17,17.22-3.25,25.89-4.52,6.38-.94,12.82-1.59,19.26-2,7.6-.49,14.75,1.71,21.75,4.41,4.24,1.64,6.65,4.76,7.7,9.08,2.27,9.34,2.13,18.73,.16,28.05-.79,3.75-2.74,7.18-5.81,9.67-6.85,5.56-13.81,11.05-22.35,13.76-4.71,1.5-9.62,2.37-14.47,3.37-7.93,1.63-15.85,3.32-23.83,4.66-6.85,1.15-13.75,2.12-20.67,2.69-11.25,.92-22.53,2.09-33.79,1.97-11.75-.12-23.48-1.68-35.22-2.51-8.97-.63-17.66-2.63-26.32-4.94-9.87-2.63-19.02-6.76-27.65-12.18-7.32-4.6-14.82-8.95-23.49-10.45-4.72-.81-9.53-1.41-14.31-1.48-3.25-.05-5.76-1.08-8.12-3.05-1.65-1.38-3.22-2.93-5.06-4-8.43-4.92-12.64-12.84-15.77-21.62-2.97-8.34-4.51-16.89-5.05-25.73-.63-10.25-2.05-20.46-2.64-30.71-.68-11.61-1.49-23.28-.98-34.87,.41-9.36,2.83-18.62,4.13-27.96,.89-6.37,2.1-12.7,.9-19.27-1.15-6.34-1.69-12.81-2.2-19.24-.76-9.64,1.44-18.74,5.26-27.57,7.53-17.37,19.22-31.22,34.21-42.68,13.6-10.4,27.03-21.01,41.53-30.15,6.04-3.81,12.31-7.16,19.43-8.67,9.31-1.97,17.05-7.2,24.71-12.47,5.8-3.99,11.84-7.38,18.82-8.68,9.56-1.78,19.08-2.19,28.46,1.23,13.69,4.99,27.28,10.35,41.21,14.59,9.12,2.78,18.69,4.32,28.17,5.61,16.91,2.3,33.8,4.25,49.96,10.35,10.58,3.99,18.24,10.92,22.94,20.89,2.66,5.64,4.66,11.76,5.83,17.88,1.4,7.34-.8,14.49-3.79,21.26-1.14,2.59-2.75,4.99-3.66,7.65-1.61,4.68-3.19,9.42-4.16,14.26-2.46,12.2-9.54,20.91-20.54,25.87-8.92,4.02-16.6,9.62-24.41,15.27-10.09,7.31-20.1,14.81-30.73,21.27-12.88,7.83-27.37,12.13-42.17,14.03-9.61,1.23-19.58,.06-29.35-.56-5.41-.35-10.78-1.67-16.13-2.74-8.79-1.76-16.38-6.2-23.73-11.05-5.64-3.73-11.92-5.7-18.39-7.26-.8-.19-1.63-.29-2.39-.57-8.27-3.01-16.22,.07-20.49,8.01-2.97,5.52-4.21,11.59-4.5,17.69-.29,6.01-2.74,10.4-7.16,14.15-2.39,2.02-4.61,4.3-6.63,6.69-3.62,4.29-4.52,9.17-2.18,14.39,.88,1.96,2.01,3.82,3.19,5.63,1.91,2.94,3.47,5.84,3.81,9.55,.45,4.78,3.75,8.05,7.76,10.4,2.86,1.67,5.91,3.03,8.91,4.45,10.04,4.77,20.01,9.71,30.19,14.18,8.69,3.81,17.82,6.09,27.39,6.61,6.78,.37,13.51,1.44,20.28,2,3.12,.26,6.28,.04,9.41,.04Zm-39.2-251.98c1.83,3.53,4.49,4.84,9,3.59,7.9-2.19,15.75-4.61,23.53-7.22,2.7-.9,5.12-2.64,8.76-4.59-2.53-1.42-3.89-2.61-5.46-3-7.64-1.9-15.26-1.64-22.79,.75-.79-.13-1.59-.27-2.38-.4-4.46-.73-8.92-1.09-13.25,.61-3.16,1.25-4.49,4.35-3.25,7.29,1.1,2.6,3.45,2.82,5.82,2.96Zm-60.89,23.6c-.58,.31-1.13,.79-1.75,.91-6.09,1.16-10.93,4.5-15.27,8.7-1.06,1.03-2.16,2.12-2.89,3.38-1.31,2.26-.96,4.99,.53,6.4,1.53,1.44,4.76,1.3,6.86-.36,1.16-.92,2.23-1.94,3.34-2.92,3.24,5.21,7.05,6.7,11.93,3.54,5.09-3.3,9.67-7.4,14.29-11.36,1.17-1.01,1.82-2.75,2.43-4.27,1.32-3.3,.51-5.44-2.69-6.89-1.31-.59-2.83-.84-4.28-.94-4.63-.33-8.53,1.86-12.49,3.82Zm84.72,8.57c-4.05,.75-8.17,1.22-12.13,2.29-13.32,3.61-23.32,11.96-30.61,23.31-7,10.91-11.79,22.66-8.99,36.17,.22,1.06-.08,2.23-.08,3.34-.02,5.76,.71,11.56,5.07,15.59,3.09,2.86,7.02,5.37,11.02,6.57,7.74,2.32,15.77,3.72,23.72,5.27,8.75,1.71,17.57,.74,26.34,0,7.65-.65,15.33-1.9,21.67-6.49,7.25-5.25,14.25-10.9,20.95-16.85,5.56-4.94,11.65-8.76,18.47-11.57,3.37-1.39,6.69-2.93,9.91-4.64,2.58-1.37,4.68-3.55,4.83-6.53,.18-3.62,0-7.32-.59-10.89-1.59-9.73-8.47-14.99-16.72-18.91-4.25-2.02-8.72-3.14-13.47-2.88-5.47,.3-10.93,.86-16.4,.82-2.72-.02-5.59-.78-8.12-1.85-4.57-1.95-9-4.27-13.37-6.67-6.69-3.67-13.76-5.67-21.5-6.07Zm101.21,225.85c-.08-3.07-2.15-4-4.12-4.73-1.98-.73-4.12-1.37-6.21-1.46-10.12-.44-20.11,.4-29.72,3.86-1.34,.48-2.57,1.39-3.73,2.25-2.09,1.55-3,3.78-1.93,6.13,1.06,2.33,2.97,4.11,5.89,3.69,4.22-.6,8.46-1.12,12.62-2.03,9.12-1.99,18.41-3.43,27.2-7.71Zm44.73-221.55c-.42-2.6-.52-4.44-1.03-6.15-1.18-3.97-5.77-7.14-8.97-6.39-4.05,.94-7.6,5.69-6.53,9.73,1.21,4.58,2.86,9.12,4.99,13.34,2.12,4.22,7.41,4.01,9.25-.4,1.42-3.4,1.69-7.28,2.3-10.13Zm-279.36,48.76c-3.88,.23-5.21,1.02-7.31,4.37-3.93,6.27-5.82,13.31-7,20.48-.4,2.46,.07,5.37,1.06,7.67,1.38,3.21,5.29,2.93,6.9-.24,.51-1.01,.82-2.15,1.05-3.27,1.03-5.01,2.04-10.02,2.96-15.04,.84-4.62,1.56-9.26,2.34-13.97Zm123.07,178.6c-.82-1.56-1.18-3.19-2.2-4.04-4.42-3.68-9.54-5.93-15.37-6.01-3.95-.05-6.44,2.18-6.95,5.71-.59,4.08,1.41,7.24,5.41,8.22,6.79,1.67,12.89-.12,19.1-3.89Zm-116.19,6.86c.3-.2,.59-.4,.89-.59-.28-1.57-.37-3.2-.86-4.7-1.18-3.59-2.45-7.16-3.88-10.66-1.43-3.51-3.03-6.96-4.7-10.37-1.06-2.17-2.96-3.18-5.36-2.51-2.35,.66-3.62,2.42-3.37,4.84,.2,1.92,.41,4.11,1.42,5.63,3.01,4.51,6.27,8.88,9.73,13.06,1.7,2.05,4.07,3.55,6.13,5.3Zm264.37-193.87c-4.24,4.69-7.95,8.46-11.22,12.58-1.63,2.05-1.36,4.66,.31,6.92,1.28,1.73,2.9,2.83,5.08,2.39,2.7-.54,3.56-2.84,4.1-5.12,1.07-4.49,1.99-9.02,2.85-13.55,.12-.64-.46-1.41-1.12-3.21Zm-36.05,199.95c3.63,.16,7.33-2.12,7.36-4.53,.04-3.05-3.88-6.37-7.68-6.51-3.32-.12-6.2,2.19-6.26,5-.07,3.29,2.75,5.87,6.58,6.04Zm-196.44-.6c-.36-.69-.53-1.15-.81-1.53-2.51-3.46-5-6.94-7.59-10.34-1.24-1.63-2.77-3-5.03-1.76-1.91,1.04-2.54,3.2-1.76,5.57,.1,.31,.11,.68,.29,.94,3.15,4.62,7.76,7.01,13.02,8.28,.49,.12,1.21-.72,1.9-1.16Zm-34.94-170.27s-.33-.23-.6-.18c-.46,.09-1.08,.22-1.31,.56-2.96,4.32-4.83,9.02-4.11,14.36,.39,2.88,2.41,5.02,4.15,4.87,2.06-.17,2.88-1.79,2.77-5.49-.03-.99-.11-1.98-.17-2.97-.23-3.54-.46-7.08-.72-11.16Z"/>
        <path class="cls-15" d="M1521.82,338.08c-10.42,1.79-18.51-3.46-27.01-6.96-1.68-.69-2.72-3.06-3.94-4.74-.94-1.28-1.48-2.92-2.59-3.99-4.66-4.51-9.54-8.8-14.22-13.29-17.05-16.35-12.96-40.96-.53-54.95,2.54-2.86,5.26-5.59,8.15-8.09,6.11-5.3,9.82-11.98,12.24-19.59,2.82-8.88,6.18-17.55,11.87-25.07,10.03-13.27,21.91-24.1,38.53-28.42,13.07-3.4,26.05-2.75,38.57,2.24,12.51,4.99,17.67,15.41,19.06,28.08,.72,6.54-1.08,12.81-2.63,19.11-1.66,6.74-3.63,13.56-3.98,20.42-.33,6.34,.96,12.85,2.14,19.18,1.59,8.51,2.85,16.96,2.66,25.67-.39,17.65-8.19,30.71-23.32,39.65-7.87,4.65-16.35,7.05-25.36,8.04-6.91,.76-13.78,1.91-20.69,2.64-3.13,.33-6.32,.06-8.94,.06Zm-10.56-10.64c6.17-.51,10.47-.89,14.79-1.21,8.63-.65,17.27-1.13,25.88-1.95,3.45-.33,6.98-.97,10.22-2.16,10.26-3.78,19.16-9.53,24.02-19.79,3.32-7.02,4.69-14.61,3.83-22.38-.6-5.45-1.55-10.88-2.75-16.23-2.87-12.76-2.69-25.42,.54-38.08,1.32-5.15,2.66-10.32,3.6-15.55,2.28-12.69-4.55-23.81-16.86-27.32-11.2-3.19-22.49-3.38-33.26,1.47-15.78,7.11-27.43,18.61-34.33,34.6-1.97,4.57-3.43,9.36-5.04,14.07-2.25,6.61-5.88,12.23-11.29,16.75-3.06,2.56-5.79,5.51-8.69,8.26-6.51,6.18-9.38,13.99-10.1,22.72-.71,8.73,2.76,16,8.52,22.16,6.02,6.45,12.44,12.53,18.62,18.84,3.91,4,8.17,6.91,12.3,5.8Z"/>
        <path class="cls-28" d="M1638.23,240.35c-2.77-.4-3.94-1.8-4.39-3.94-1-4.82-2.41-9.59-2.87-14.46-.7-7.41-.83-14.88-1-22.32-.07-2.95,.47-5.87,2.38-8.37,4.03-5.27,11.08-3.75,13.44,2.24,.87,2.22,1.1,4.87,.94,7.28-.39,5.58-.94,11.17-1.89,16.68-1.33,7.74-2.41,15.61-6.61,22.89Z"/>
        <path class="cls-28" d="M1660.34,77.84c-.33,10.83-2.5,21.3-4.66,31.77-.29,1.43-.92,2.82-1.6,4.12-.32,.63-1.08,1.38-1.68,1.41-.48,.03-1.3-.87-1.47-1.49-1.41-5.22-2.96-10.42-3.96-15.72-1.24-6.6-2.3-13.27-2.85-19.96-.32-3.88,.14-7.93,.93-11.76,.72-3.49,3.08-4.88,6.5-4.99,3.17-.11,6.44,1.78,7.18,4.91,.89,3.82,1.1,7.8,1.61,11.71Z"/>
        <path class="cls-21" d="M1684.13,73.86c-.64-2.05-.96-3.59-1.58-5.01-3.81-8.8-7.63-17.6-11.61-26.33-.71-1.56-2.07-2.9-3.37-4.09-3.32-3.02-2.77-7.27,1.32-9.12,3.57-1.62,6.83-.62,9.78,1.47,1.31,.93,2.47,2.27,3.27,3.67,5.01,8.78,7.74,18.25,7.82,28.37,.03,4.03-.92,7.89-5.63,11.03Z"/>
        <path class="cls-28" d="M1435.55,243.96c0,2.28,.22,3.69-.03,5.01-1.82,9.5-3.72,18.98-5.61,28.47-.57,2.87-2.29,6.24-6.11,5.91-3.34-.28-5.44-2.03-5.96-5.97-.72-5.52,.77-10.72,2.95-15.69,3.03-6.9,7.12-13.02,14.76-17.73Z"/>
        <path class="cls-28" d="M1447.01,161.26c2.72-.3,4.13,.85,3.91,3.65-.11,1.46-.17,2.97-.58,4.36-1.56,5.28-4.33,9.96-8,14-3.12,3.43-6.47,3.89-9.73,1.91-3.26-1.98-4.56-5.8-3.16-9.98,1.98-5.91,6.04-10.06,11.45-12.98,2.3,1.4,4.44,1.7,6.1-.96Z"/>
        <path class="cls-28" d="M1563.88,123.3c-4.82,7.86-11.89,12.19-18.99,16.33-3.46,2.02-7.68,.35-8.7-2.84-.63-1.96-.75-4.1,1.13-5.45,2.79-2,5.55-4.37,8.71-5.46,4.91-1.7,10.14-2.51,15.26-3.57,.64-.13,1.44,.52,2.6,.98Z"/>
        <path class="cls-22" d="M1675.94,348.05c-.26,2.04-.2,3.8-.74,5.33-1.88,5.26-5.62,8.92-10.73,11.02-2.87,1.18-5.9,2.15-8.96,2.66-1.82,.3-4.03-.07-5.69-.89-1.24-.61-2.54-2.38-2.65-3.73-.16-1.97,.98-3.83,3.33-4.29,2.42-.47,4.88-.79,7.27-1.36,5.97-1.44,11.83-3.14,16.04-8.1,.25-.3,.88-.29,2.12-.65Z"/>
        <path class="cls-11" d="M1571.16,365.87c-1.36-1.11-3.09-1.94-3.88-3.31-1.1-1.92-.24-4.06,1.57-5.22,2.22-1.42,4.68-2.48,7.09-3.56,6.19-2.78,12.44-5.42,19.35-5.76,.8-.04,1.63,.44,2.45,.67-.48,.76-.78,1.79-1.46,2.25-6.19,4.13-12.41,8.22-18.72,12.17-1.78,1.11-3.89,1.7-6.39,2.77Z"/>
        <path class="cls-11" d="M1636.2,58.42c2.64,8.76,2.26,17.41,.57,26.05-.44,2.24-2.96,4.01-4.72,3.58-2.26-.55-4.04-2.1-4.06-4.42-.02-3.1,.31-6.26,1.01-9.28,1.32-5.71,3.02-11.32,7.2-15.92Z"/>
        <path class="cls-11" d="M1437.1,146.22c-.43,1.01-.8,2.05-1.29,3.03-2.73,5.48-5.44,10.96-8.26,16.4-.83,1.6-1.74,3.27-3.02,4.48-2.07,1.96-4.99,.97-5.73-1.83-.28-1.05-.34-2.34,0-3.35,3.11-8.96,8.61-15.77,17.43-19.5l.87,.77Z"/>
        <path class="cls-19" d="M1447.01,161.26c-1.67,2.66-3.8,2.36-6.1,.96-1.96-5.63,.21-8.57,8.27-10.57-.76,3.37-1.46,6.49-2.17,9.61Z"/>
        <path class="cls-15" d="M564.99,106.32c0,3.5-.13,7,.03,10.49,.21,4.55-1.17,8.58-4.12,11.89-4.81,5.39-8.32,11.47-10.96,18.17-1.33,3.37-3.05,6.65-4.99,9.71-3.82,6.02-9.85,9.26-16.29,11.57-7.49,2.68-15.29,4.23-23.29,4.07-12.12-.24-24.25-.39-36.35-1.14-4.34-.27-8.73-1.77-12.83-3.4-3.22-1.28-5.63-3.89-7.3-7.18-2.87-5.67-5.24-11.32-5.13-17.91,.1-5.77-1.05-11.58-.8-17.34,.38-8.83,2.77-17.27,10.26-22.79,8.66-6.38,18.09-11.26,29.46-8.38,9.5,2.4,18.16,.32,26.88-3.62,8.09-3.66,16.39-7.03,25.21-8.68,6.82-1.28,13.66-2.85,20.57-.56,5.9,1.95,9.47,6.85,9.56,13.09,.06,4,.01,8,.01,12h.08Zm-76.93,52.81v.13c5,0,10,.12,14.99-.03,7.18-.21,14.14-1.65,21.01-3.83,6.79-2.15,11.74-5.94,14.26-12.77,.97-2.64,2.27-5.2,3.71-7.61,1.95-3.27,3.78-6.78,6.41-9.45,3.59-3.66,4.86-7.78,4.71-12.65-.16-5.16-.22-10.32-.36-15.49-.11-4.09-.9-5.22-5.02-4.96-4.61,.3-9.35,.81-13.7,2.25-9.13,3.03-18.09,6.61-27.03,10.2-6.05,2.43-12.19,3.19-18.59,2.27-2.14-.31-4.3-.59-6.38-1.16-6.69-1.81-12.83-.2-18.8,2.76-4.75,2.35-7.93,6.09-9.28,11.16-.98,3.68-1.76,7.46-2.18,11.24-1.24,11.22-.97,11.68,5.64,20.65,3.41,4.63,8.05,6.96,13.62,7.22,5.65,.26,11.32,.06,16.98,.06Z"/>
        <path class="cls-24" d="M586.11,74.09c-1.11,5.12-4.56,6.85-9.43,4.41-1.85-.93-3.51-2.44-4.94-3.98-4.02-4.36-7.31-9.18-9.25-14.9-.72-2.12-.65-3.47,1.45-4.43,5.32,.65,9.33,4.08,13.83,6.46,1.32,.7,2.79,1.09,4.19,1.63,.65,.53,1.33,1.02,1.94,1.6,.43,.4,.76,.91,1.13,1.38-.4,2.72-.56,5.4,1.07,7.84Z"/>
        <path class="cls-24" d="M419.03,278.12c-.72,8.02-2.7,13.22-6.4,16.21-1.91-4.6-3.44-9.14-3.76-14.05-.19-2.95-.49-5.89-.82-8.82-.65-5.66,2.76-9.26,8.69-9.13,.76,5.26,1.52,10.52,2.29,15.79Z"/>
        <path class="cls-24" d="M598.5,137.07c-1.53-2.63-2.83-4.28-3.52-6.16-1.55-4.15-2.88-8.39-4.13-12.64-.55-1.87-.89-3.85-.94-5.8-.12-4.24,.61-5.17,3.85-5.61,2.96-.41,5.2,.97,6.19,4.26,.84,2.81,1.78,5.74,1.79,8.62,0,5.5-.39,11.06-3.22,17.34Z"/>
        <path class="cls-9" d="M581.97,63.28c-1.4-.53-2.88-.93-4.19-1.63-4.51-2.38-8.51-5.82-13.83-6.46-.22-.23-.4-.56-.67-.68-3.06-1.36-4.49-3.07-4.24-5.16,.3-2.58,2.86-4.89,5.88-5.06,1.28-.07,2.71,0,3.85,.5,6.13,2.71,14.1,10.12,13.21,18.49Z"/>
        <path class="cls-13" d="M422.82,351.43c-1.64,5.13-3.1,10.33-4.99,15.37-1,2.67-2.75,5.07-4.73,7.43-2.37-4.38,.24-8.59-.08-12.84-.34-4.54,.31-9.2,.93-13.75,.59-4.34,1.7-8.6,2.8-13.98l2.04,3.65c.66,2.97,1.23,5.98,2.03,8.91,.48,1.79,1.32,3.48,2,5.21Z"/>
        <path class="cls-24" d="M486.18,50.39c-.87,.75-1.39,1.52-2.08,1.72-4.68,1.4-9.37,2.8-14.13,3.93-1.32,.31-2.9-.14-4.3-.5-2.41-.61-3.62-2.62-3.61-4.77,0-2.13,1.26-3.9,3.54-4.89,5.58-2.42,15.96-.43,20.58,4.5Z"/>
        <path class="cls-18" d="M607.88,132.05c-1.34-5.48-2.69-10.67-3.86-15.9-.65-2.87,.76-5.27,3.16-5.89,2.86-.74,4.9,.2,6.07,2.8,2.49,5.5-.25,15.22-5.36,19Z"/>
        <path class="cls-18" d="M422.82,351.43c-.68-1.73-1.52-3.42-2-5.21-.8-2.94-1.36-5.94-2.03-8.91,.03-1.98,.04-3.96,.09-5.94,.05-1.95,1.03-3.06,3.03-3.18,2.06-.12,4.09-.16,4.68,2.49,.11,.48,.31,.98,.25,1.44-.85,5.81-1.7,11.61-2.67,17.4-.12,.7-.88,1.29-1.35,1.92Z"/>
        <path class="cls-18" d="M419.03,278.12c-.76-5.26-1.52-10.52-2.29-15.79,.4-1.42,.67-2.89,1.23-4.24,.88-2.13,2.8-2.1,4.66-1.81,1.82,.29,2.45,1.68,2.28,3.3-.37,3.43-.79,6.85-1.39,10.24-.37,2.09-1.1,4.11-1.69,6.16-.4,1.39-1.1,2.43-2.8,2.13Z"/>
        <path class="cls-23" d="M507.75,191.94c2.44,.69,5.17,1.28,7.75,2.26,1.79,.68,2.06,2.59,.42,3.35-3.86,1.79-7.85,3.39-11.93,4.57-2.12,.61-4.55-1.66-5.02-3.86-.46-2.15,.62-4.03,3.15-4.94,1.68-.61,3.49-.87,5.62-1.38Z"/>
        <path class="cls-18" d="M525.82,75.62c-3.29,3.51-7.53,5.08-11.71,6.68-1.21,.46-2.51,.79-3.79,.9-2.32,.2-3.78-1.11-4.3-3.25-.52-2.16,.75-3.46,2.69-4.08,1.07-.34,2.23-.53,3.35-.59,4.25-.23,8.49-.38,12.74-.52,.24,0,.5,.4,1.02,.85Z"/>
        <path class="cls-24" d="M434.85,48.78c-3.06,2.25-5.66,4.48-8.56,6.21-2.39,1.43-4.94,.03-5.86-2.73-.71-2.11,1.39-5.73,3.87-5.91,3.54-.26,7.34-.98,10.56,2.42Z"/>
        <path class="cls-2" d="M419.36,309.38c-2.82-3.74-3.57-7.7-3.3-11.83,.14-2.08,1.51-3.94,3.7-3.96,1.13-.01,2.31,1.43,3.38,2.32,.32,.27,.6,.96,.49,1.33-1.16,4-1.59,8.27-4.27,12.14Z"/>
        <path class="cls-18" d="M586.11,74.09c-1.63-2.44-1.46-5.12-1.07-7.84,5.63-2.21,7.85-.86,7.93,4.84,.03,1.93,0,3.87,0,5.78-3.43,.79-4.94-1.48-6.87-2.78Z"/>
        <path class="cls-15" d="M1187.76,92.66c7.73,.44,14.81,2.41,21.5,6.09,4.36,2.4,8.8,4.71,13.37,6.66,2.52,1.08,5.4,1.82,8.12,1.84,5.46,.04,10.93-.56,16.4-.81,4.2-.2,8.25,.54,12.08,2.35,5.26,2.49,10.49,5.05,14.01,9.96,4.4,6.13,5.4,13.12,4.69,20.4-.29,2.99-2.32,5.15-4.9,6.52-3.22,1.7-6.55,3.23-9.91,4.63-6.82,2.82-12.9,6.65-18.47,11.59-6.69,5.95-13.7,11.6-20.95,16.84-6.5,4.7-14.36,5.88-22.18,6.48-8.27,.64-16.57,1.72-24.84,.05-8.43-1.7-16.93-3.18-25.18-5.5-3.69-1.04-7.26-3.48-10.19-6.07-4.65-4.13-5.36-10.03-5.39-15.95,0-1.12,.29-2.28,.07-3.34-2.8-13.51,2.02-25.26,9.02-36.17,7.29-11.36,17.31-19.69,30.62-23.29,3.96-1.07,8.09-1.53,12.14-2.27Zm.28,83.99c3.33-.15,6.67-.15,9.98-.48,8.48-.84,16.89-2,23.88-7.56,4.56-3.62,9.2-7.14,13.65-10.9,7.67-6.48,15.74-12.25,25.24-15.8,2.33-.87,4.59-1.94,6.87-2.93,1.84-.8,3.12-2.11,2.87-4.2-.77-6.62-2.56-12.6-8.95-16.31-5.17-3-10.37-5.19-16.5-4.2-1.97,.32-3.97,.38-5.95,.63-7.78,1.02-15.24,.09-22.3-3.51-3.84-1.96-7.71-3.88-11.57-5.81-12.44-6.22-24.74-5.65-36.7,1.15-14.58,8.29-22.29,21.43-25.47,37.5-.44,2.23-.29,4.69,.1,6.96,.73,4.24,1.74,8.44,2.84,12.6,.25,.96,1.13,1.98,2.01,2.51,12.3,7.4,25.72,10.57,40,10.36Z"/>
        <path class="cls-12" d="M1288.86,318.38c-6.72,3.88-14.3,4.81-21.53,6.77-4.11,1.12-8.32,1.9-12.52,2.62-2.26,.39-4.6,.46-6.9,.43-2.48-.03-3.96-1.86-4.77-3.83-.77-1.89-.4-4.01,1.45-5.38,1.42-1.06,2.87-2.24,4.5-2.84,9.6-3.51,19.6-4.28,29.72-3.82,2.09,.09,4.21,.79,6.18,1.55,1.96,.75,4.05,1.68,3.88,4.49Z"/>
        <path class="cls-12" d="M1103,84.09c3.96-1.96,7.86-4.15,12.49-3.82,1.45,.1,2.97,.35,4.28,.94,3.2,1.45,4.02,3.59,2.69,6.89-.61,1.52-1.26,3.26-2.43,4.27-4.62,3.96-9.21,8.06-14.29,11.36-4.87,3.16-8.69,1.67-11.93-3.54,2.84-2.97,5.73-5.89,8.5-8.92,1.71-1.87,3.69-3.65,3.73-6.83l-3.04-.36Z"/>
        <path class="cls-12" d="M1316.71,92.37c1-1.78,1.78-4.54,3.59-6.11,3.84-3.33,9.01-1.92,11.5,2.88,.87,1.69,1.39,3.79,1.35,5.68-.11,4.34,.61,8.87-1.98,12.85-2.08,3.2-6.15,3.82-8.29,.95-3.41-4.58-4.86-10.01-6.17-16.24Z"/>
        <path class="cls-12" d="M1176.95,50.02c7.53-2.38,15.15-2.65,22.79-.75,1.57,.39,2.95,1.59,5.46,3-3.64,1.94-6.06,3.68-8.76,4.59-7.78,2.61-15.63,5.02-23.53,7.22-4.51,1.25-7.18-.05-9-3.59,4.51-1.42,9.08-2.7,13.51-4.35,1.69-.63,4.32-2.07,4.34-3.2,.06-2.61-2.97-2.21-4.8-2.92Z"/>
        <path class="cls-9" d="M1054.49,145.21c-1.45,8.13-2.76,15.53-4.1,22.92-.5,2.76-.89,5.56-1.7,8.24-.6,2-1.41,4.19-4.29,4.03-2.28-.13-3.99-1.65-4.42-4.55-.27-1.79-.4-3.71-.04-5.45,1.43-6.96,3.03-13.89,6.92-20.01,1.6-2.53,3.4-4.81,7.64-5.17Z"/>
        <path class="cls-12" d="M1177.5,324.28c-6.39,3.7-12.34,5.6-18.99,3.97-4.21-1.03-6.14-3.8-5.67-8.01,.42-3.81,2.93-6.07,7.2-5.97,5.64,.13,10.61,2.35,14.95,5.83,1.05,.84,1.51,2.44,2.52,4.18Z"/>
        <path class="cls-22" d="M1061.19,331.07c-1.41-1.08-2.88-2.1-4.22-3.26-4.8-4.16-8.73-9.06-11.57-14.73-.86-1.71-1.38-3.72-1.5-5.63-.18-2.89,1.29-4.73,3.58-5.18,2.48-.48,4.23,.65,5.26,2.78,1.51,3.12,2.94,6.28,4.25,9.49,1.54,3.81,2.98,7.67,4.32,11.55,.47,1.35,.53,2.83,.78,4.26l-.9,.72Z"/>
        <path class="cls-29" d="M1103,84.09l3.04,.36c-.04,3.18-2.03,4.97-3.73,6.83-2.77,3.03-5.66,5.95-8.5,8.92-1.11,.98-2.18,2-3.34,2.92-2.1,1.66-5.33,1.8-6.86,.36-1.49-1.41-1.84-4.14-.53-6.4,.73-1.26,1.82-2.35,2.89-3.38,4.34-4.2,9.18-7.54,15.27-8.7,.62-.12,1.17-.6,1.75-.91Z"/>
        <path class="cls-18" d="M1176.95,50.02c1.84,.71,4.86,.31,4.8,2.92-.03,1.12-2.65,2.57-4.34,3.2-4.43,1.65-9,2.92-13.51,4.35-2.37-.14-4.72-.36-5.82-2.96-1.24-2.94,.09-6.04,3.25-7.29,4.32-1.71,8.79-1.34,13.25-.61,.79,.13,1.59,.26,2.38,.4Z"/>
        <path class="cls-29" d="M1325.44,137.71c.57,1.35,1.32,2.24,1.18,2.97-.8,4.38-1.76,8.73-2.75,13.06-.57,2.47-1.37,4.97-4.32,5.46-2.4,.4-4.11-.92-5.28-2.95-1.41-2.44-1.26-5.04,.68-7.34,2.24-2.67,4.64-5.21,7-7.77,.98-1.07,2.07-2.04,3.49-3.44Z"/>
        <path class="cls-26" d="M1288.72,326.21c4.03-.05,8.23,3.35,8.12,6.57-.07,2.27-3.48,4.47-6.92,4.48-4.09,0-7.13-2.63-7.02-6.09,.08-2.59,2.82-4.92,5.81-4.95Z"/>
        <path class="cls-29" d="M1081.07,322.17c1.22,.87,2.65,1.5,3.51,2.58,2.66,3.35,5.14,6.84,7.59,10.35,.38,.54,.39,1.48,.23,2.16-.06,.27-1.12,.53-1.64,.41-4.81-1.08-8.95-3.36-12-7.28-1.81-2.32-1.71-5.05,.04-6.73,.57-.55,1.34-.89,2.29-1.5Z"/>
        <path class="cls-17" d="M1058.18,166.28c.24,4.16,.45,7.54,.61,10.92,.1,1.98,.4,4.01,.07,5.93-.18,1.03-1.36,2.28-2.37,2.65-.74,.27-2.28-.49-2.85-1.25-.84-1.14-1.47-2.64-1.61-4.05-.51-4.97,1.21-9.4,4-13.41,.39-.56,1.54-.58,2.14-.78Z"/>
        <path class="cls-15" d="M820.72,92.66c7.74,.4,14.81,2.4,21.5,6.07,4.37,2.39,8.8,4.71,13.37,6.67,2.52,1.08,5.4,1.83,8.12,1.85,5.46,.04,10.93-.52,16.4-.82,4.75-.26,9.22,.86,13.47,2.88,8.25,3.92,15.13,9.18,16.72,18.91,.58,3.57,.77,7.28,.59,10.89-.15,2.99-2.25,5.17-4.83,6.53-3.22,1.71-6.54,3.25-9.91,4.64-6.82,2.82-12.91,6.63-18.47,11.57-6.7,5.95-13.7,11.6-20.95,16.85-6.34,4.59-14.02,5.84-21.67,6.49-8.77,.74-17.58,1.72-26.34,0-7.95-1.55-15.98-2.95-23.72-5.27-4-1.2-7.93-3.71-11.02-6.57-4.36-4.03-5.09-9.83-5.07-15.59,0-1.12,.3-2.28,.08-3.34-2.8-13.5,1.98-25.26,8.99-36.17,7.29-11.36,17.29-19.7,30.61-23.31,3.96-1.07,8.08-1.55,12.13-2.29Zm.45,83.99c3.33-.15,6.66-.22,9.98-.47,9.8-.72,19.02-3.07,26.74-9.63,3.55-3.02,7.22-5.89,10.78-8.91,7.52-6.39,15.44-12.1,24.79-15.58,2.49-.93,4.89-2.07,7.33-3.14,1.85-.81,3.03-2.2,2.77-4.27-.84-6.61-2.63-12.57-9.05-16.27-5.2-3-10.42-5.07-16.52-4.12-1.97,.31-3.97,.4-5.95,.65-7.78,.98-15.24,.03-22.29-3.58-3.84-1.97-7.7-3.9-11.57-5.82-12.27-6.09-24.43-5.59-36.27,1.01-13.42,7.48-21.3,19.24-24.92,33.93-.82,3.32-1.11,6.95-.76,10.35,.46,4.42,1.72,8.77,2.84,13.1,.24,.94,1.21,1.9,2.1,2.44,12.3,7.41,25.73,10.53,40.01,10.31Z"/>
        <path class="cls-12" d="M921.93,318.51c-8.8,4.28-18.09,5.71-27.2,7.71-4.16,.91-8.4,1.44-12.62,2.03-2.92,.41-4.83-1.36-5.89-3.69-1.07-2.35-.16-4.58,1.93-6.13,1.16-.86,2.39-1.77,3.73-2.25,9.61-3.46,19.6-4.31,29.72-3.86,2.09,.09,4.22,.73,6.21,1.46,1.97,.73,4.04,1.66,4.12,4.73Z"/>
        <path class="cls-12" d="M736,84.09c3.96-1.96,7.86-4.15,12.49-3.82,1.45,.1,2.97,.35,4.28,.94,3.2,1.45,4.02,3.59,2.69,6.89-.61,1.52-1.26,3.26-2.43,4.27-4.62,3.96-9.21,8.06-14.29,11.36-4.87,3.16-8.69,1.67-11.93-3.54,2.84-2.97,5.73-5.89,8.5-8.92,1.71-1.87,3.69-3.65,3.73-6.83l-3.04-.36Z"/>
        <path class="cls-12" d="M966.66,96.96c-.61,2.86-.88,6.74-2.3,10.13-1.84,4.41-7.13,4.62-9.25,.4-2.12-4.22-3.78-8.77-4.99-13.34-1.07-4.04,2.48-8.79,6.53-9.73,3.2-.75,7.79,2.42,8.97,6.39,.51,1.71,.61,3.55,1.03,6.15Z"/>
        <path class="cls-12" d="M809.95,50.02c7.53-2.38,15.15-2.65,22.79-.75,1.56,.39,2.93,1.58,5.46,3-3.64,1.94-6.06,3.68-8.76,4.59-7.78,2.61-15.63,5.02-23.53,7.22-4.51,1.25-7.18-.06-9-3.59,4.51-1.42,9.08-2.7,13.51-4.35,1.69-.63,4.32-2.07,4.34-3.2,.06-2.61-2.97-2.21-4.8-2.92Z"/>
        <path class="cls-9" d="M687.3,145.72c-.78,4.71-1.5,9.35-2.34,13.97-.92,5.03-1.93,10.04-2.96,15.04-.23,1.12-.54,2.26-1.05,3.27-1.61,3.17-5.52,3.45-6.9,.24-.99-2.31-1.46-5.21-1.06-7.67,1.18-7.18,3.07-14.21,7-20.48,2.1-3.35,3.43-4.14,7.31-4.37Z"/>
        <path class="cls-12" d="M810.36,324.32c-6.22,3.77-12.32,5.55-19.1,3.89-4-.98-6-4.14-5.41-8.22,.51-3.53,3-5.77,6.95-5.71,5.83,.08,10.95,2.33,15.37,6.01,1.02,.85,1.38,2.48,2.2,4.04Z"/>
        <path class="cls-22" d="M694.17,331.18c-2.07-1.75-4.43-3.25-6.13-5.3-3.46-4.18-6.72-8.55-9.73-13.06-1.02-1.53-1.22-3.71-1.42-5.63-.25-2.42,1.02-4.19,3.37-4.84,2.4-.67,4.29,.34,5.36,2.51,1.67,3.41,3.27,6.86,4.7,10.37,1.43,3.5,2.7,7.07,3.88,10.66,.49,1.5,.59,3.13,.86,4.7-.3,.2-.59,.4-.89,.59Z"/>
        <path class="cls-29" d="M736,84.09c.95,.11,1.91,.23,3.04,.36-.04,3.18-2.03,4.97-3.73,6.83-2.77,3.03-5.66,5.95-8.5,8.92-1.11,.98-2.18,2-3.34,2.92-2.1,1.66-5.33,1.8-6.86,.36-1.49-1.41-1.84-4.14-.53-6.4,.73-1.26,1.82-2.35,2.89-3.38,4.34-4.2,9.18-7.54,15.27-8.7,.62-.12,1.17-.6,1.75-.91Z"/>
        <path class="cls-18" d="M809.95,50.02c1.84,.71,4.86,.31,4.8,2.92-.03,1.12-2.65,2.57-4.34,3.2-4.43,1.65-9,2.92-13.51,4.35-2.37-.14-4.72-.36-5.82-2.96-1.24-2.94,.09-6.04,3.25-7.29,4.32-1.71,8.79-1.34,13.25-.61,.79,.13,1.59,.26,2.38,.4Z"/>
        <path class="cls-29" d="M958.54,137.31c.65,1.8,2.01,3.46,1.45,3.58-.86,4.54-2.11,8.7-3.18,13.19-.54,2.28-1.41,4.58-4.1,5.12-2.18,.44-3.8-.66-5.08-2.39-1.67-2.26-1.94-4.87-.31-6.92,3.28-4.12,6.99-7.89,11.22-12.58Z"/>
        <path class="cls-26" d="M922.48,337.26c-3.83-.17-6.64-2.75-6.58-6.04,.06-2.81,2.94-5.12,6.26-5,3.8,.13,7.72,3.45,7.68,6.51-.03,2.41-3.73,4.69-7.36,4.53Z"/>
        <path class="cls-29" d="M726.05,336.66c-.68,.44-1.4,1.27-1.9,1.16-5.26-1.27-9.87-3.66-13.02-8.28-.18-.26-.19-.63-.29-.94-.78-2.37-.15-4.53,1.76-5.57,2.27-1.24,3.79,.13,5.03,1.76,2.59,3.4,5.08,6.88,7.59,10.34,.28,.38,.45,.84,.81,1.53Z"/>
        <path class="cls-17" d="M691.11,166.39c.26,4.08,.49,7.62,.72,11.16,.06,.99,.14,1.98,.17,2.97,.11,3.7-.71,5.32-2.77,5.49-1.74,.15-3.76-1.99-4.15-4.87-.71-5.34,1.15-10.04,4.11-14.36,.23-.34,.85-.47,1.31-.56,.27-.05,.6,.18,.6,.18Z"/>
      </g>
      <g>
        <path class="cls-15" d="M195.84,15.09c4.71,0,9.43,0,14.14,.01,14.61,.95,28.39,4.88,41.79,10.75,10.69,4.68,19.28,11.83,26.53,20.67,10.43,12.73,16.26,27.37,16.96,43.92,.24,5.65,.9,11.32,.61,16.94-.54,10.17-5.21,18.85-11.38,26.65-4.74,5.99-14.5,7.81-21.43,4.47-5.4-2.59-9.61-6.56-12.74-11.63-1.75-2.82-3.65-5.64-4.82-8.71-3.04-7.97-9.46-12.81-16.11-17.04-6.43-4.09-14-5.16-21.66-4.38-5.47,.55-10.98,.97-16.37,1.98-7.69,1.45-14.89,.23-21.91-2.85-6.76-2.96-13.66-4.93-21.2-4.96-18.87-.08-36.77,9.25-43.48,28.71-4.68,13.57-5.88,27.17-2.97,41.2,1.25,6.04,4.33,10.98,8.66,15.38,11.69,.1,23.1-1.43,33.92-6.5,11.73-5.5,23.72-10.47,35.39-16.08,9.36-4.5,19.03-4.3,28.84-3.06,19.43,2.46,37.1,10.18,52.74,21.32,23.54,16.78,36.53,39.48,34.21,69.59-.8,10.41,.07,20.94,.2,31.42,.16,12.32,.53,24.65,.46,36.97-.06,9.48-.52,18.97-1.08,28.44-.4,6.71-3.39,12.42-7.83,17.43-4.47,5.05-9.61,9.25-15.67,12.19-10.3,5-20.67,9.84-31.03,14.73-8.54,4.03-17.43,6.44-26.99,6.01-8.85-.4-17.58,.77-26.37,1.8-20.61,2.42-41.12,2.21-61.51-2.84-5.82-1.44-12.37-1.41-18.33-.46-15.47,2.49-30.11,.32-44.5-5.42-8.79-3.51-17.67-6.81-26.64-9.82-17.93-6.02-28.58-18.67-34.01-36.32-3.51-11.41-2.8-22.73,1.06-33.84,3.58-10.32,11.11-17.2,20.65-22.02,11.78-5.96,24.19-8.21,37.31-5.99,5.08,.86,10.25,1.32,15.24,2.56,11.56,2.88,19.53,10.26,24.79,20.78,1.71,3.42,3.49,6.8,5.27,10.18,5.54,10.46,15.09,13.94,26.06,14.64,4.81,.31,9.66,.07,14.5,.04,7.66-.04,14.81,1.83,21.46,5.62,3.18,1.81,6.33,3.67,9.55,5.41,5.17,2.78,10.62,3.57,16.42,2.39,10.15-2.07,19.57-5.32,26.14-14.08,3.66-4.88,6.28-10.09,7.16-16.23,.82-5.76,2.56-11.18,5.54-16.39,3.27-5.73,6.36-11.92,7.69-18.3,1.87-8.92-.35-17.67-6.5-24.73-2.98-3.41-7.56-4-11.98-4.06-5.33-.07-10.66-.03-15.99-.07-6.18-.05-11.53-2.14-15.26-7.16-3.67-4.94-8.53-6.45-14.38-6.43-17.41,.04-34.51,2.06-51.27,6.97-21.47,6.28-42.74,5.43-63.59-2.73-10.16-3.98-19.37-9.71-27.07-17.47-9.73-9.81-13.14-22.49-15.12-35.65-3.45-22.87-.12-45.12,6.44-67.04,2.95-9.86,5.9-19.71,8.8-29.58,.37-1.26,.76-2.64,.63-3.91-1.66-15.66,5-27.71,16.25-37.81,14.72-13.22,31.66-19.18,51.46-15.78,5.91,1.01,11.81,2.04,17.7,3.17,9.88,1.89,19.66,.24,29.27-1.49,9.45-1.7,18.68-4.6,28-6.99,5.79-1.48,11.57-3,17.35-4.49ZM26.47,163.12c.54,5.96,.82,11.96,1.67,17.87,1.74,12.13,5.71,23.24,15.54,31.45,15.3,12.75,33.07,18.74,52.78,19.61,9.47,.42,18.4-2.09,27.44-4.38,10.29-2.6,20.69-4.9,31.16-6.63,7.19-1.19,14.57-1.27,21.87-1.68,8.36-.48,15.88,1.29,21.34,8.38,1.81,2.36,4.36,3.52,7.38,3.62,6.65,.2,13.31,.32,19.95,.72,7.11,.43,13.79,2.88,17.68,8.89,8.07,12.48,10.94,25.73,4.28,40.16-4.22,9.15-7.82,18.57-8.82,28.9-.68,7.05-4.11,13.31-9.47,18.27-9.08,8.41-19.87,13.25-32.03,14.96-4.07,.57-8.27,.69-12.38,.45-6.56-.38-11.89-4.09-17.25-7.41-7.47-4.62-15.45-6.82-24.23-6.29-3.65,.22-7.34,.29-10.99,.08-14.29-.82-26.22-5.86-33.42-19.14-1.66-3.07-3.29-6.18-5.19-9.1-1.99-3.05-4.08-6.09-6.49-8.8-5.3-5.94-12.63-7.66-20.05-9.18-13.97-2.86-27.47-1.95-40.32,4.71-7.01,3.63-12.79,8.52-15.8,16-9.79,24.3,3.87,49.62,23.76,57.52,13.75,5.46,27.73,10.31,41.63,15.38,8.33,3.04,16.82,3.21,25.58,2.04,8.55-1.15,17.24-2.22,25.79,.18,8.56,2.41,17.25,3.5,26.13,3.35,8.49-.14,17.03,.29,25.48-.37,12.41-.96,24.7-3.88,37.25-1.72,.8,.14,1.66,0,2.49-.11,7.15-.92,13.99-2.93,20.48-6.04,9.59-4.59,19.21-9.14,28.65-14.04,8.63-4.48,16.19-10.28,18.32-20.51,1.11-5.35,1.75-10.86,1.96-16.32,.37-9.65,.38-19.33,.29-28.99-.06-6.31-.64-12.62-.88-18.94-.33-8.64-.62-17.28-.82-25.93-.19-8.13,.58-16.37-.52-24.36-2.63-19.19-12.78-34.34-28.55-45.05-10.54-7.16-21.94-13.25-34.31-17.08-16.14-4.99-31.82-7.04-47.78,1.88-11.41,6.38-23.89,10.87-35.97,16.03-7.28,3.12-14.93,4.81-22.89,3.79-2.88-.37-6.24-.93-8.36-2.65-5.83-4.73-10.83-10.33-12.9-17.89-3.77-13.69-2.89-27.35,.61-40.91,2.3-8.91,5.58-17.44,11.73-24.52,13.08-15.06,30.3-18.45,48.98-16.52,5.67,.58,11.1,3.3,16.68,4.85,3.49,.97,7.11,2.35,10.61,2.2,6.95-.3,13.86-1.63,20.8-2.37,17.24-1.84,32.04,2.03,41.44,18.12,2.6,4.45,5.12,8.95,7.49,13.52,2.51,4.83,5.83,8.91,10.36,11.93,4.2,2.79,9.76,2.3,13.13-1.49,4.59-5.15,8.02-11,9.29-17.93,1.6-8.69-.22-17.18-1.05-25.79-1.48-15.39-8.89-27.67-18.8-38.82-4.81-5.41-10.54-9.6-17.07-12.81-12.23-6.02-25.15-9.33-38.63-11.09-9.18-1.2-17.88-.16-26.5,2.89-3.91,1.38-7.92,2.5-11.88,3.74-14.23,4.48-28.79,7.29-43.71,6.56-8.59-.42-17.18-1.96-25.63-3.67-8.36-1.69-16.65-1.44-24.78,.23-12.02,2.47-21.62,9.43-29.22,18.84-6.94,8.59-10.42,18.4-8.15,29.7,.35,1.73,.15,3.68-.25,5.43-1.58,6.79-3.24,13.57-5.07,20.29-5,18.34-9.28,36.78-9.85,55.97Z"/>
        <path class="cls-6" d="M26.47,163.12c.57-19.18,4.84-37.63,9.85-55.97,1.84-6.72,3.49-13.5,5.07-20.29,.41-1.74,.6-3.7,.25-5.43-2.27-11.3,1.21-21.11,8.15-29.7,7.61-9.41,17.2-16.37,29.22-18.84,8.13-1.67,16.42-1.93,24.78-.23,8.45,1.71,17.04,3.25,25.63,3.67,14.92,.73,29.48-2.08,43.71-6.56,3.96-1.25,7.97-2.36,11.88-3.74,8.62-3.04,17.31-4.09,26.5-2.89,13.49,1.76,26.4,5.07,38.63,11.09,6.53,3.21,12.26,7.4,17.07,12.81,9.91,11.15,17.32,23.43,18.8,38.82,.83,8.61,2.64,17.1,1.05,25.79-1.27,6.93-4.7,12.78-9.29,17.93-3.37,3.79-8.93,4.28-13.13,1.49-4.53-3.01-7.85-7.1-10.36-11.93-2.37-4.57-4.89-9.07-7.49-13.52-9.4-16.09-24.2-19.96-41.44-18.12-6.94,.74-13.85,2.07-20.8,2.37-3.5,.15-7.12-1.23-10.61-2.2-5.59-1.55-11.02-4.26-16.68-4.85-18.69-1.93-35.91,1.47-48.98,16.52-6.15,7.08-9.43,15.61-11.73,24.52-3.5,13.56-4.38,27.21-.61,40.91,2.08,7.56,7.08,13.16,12.9,17.89,2.12,1.72,5.48,2.28,8.36,2.65,7.95,1.02,15.6-.68,22.89-3.79,12.07-5.17,24.55-9.65,35.97-16.03,15.96-8.92,31.64-6.88,47.78-1.88,12.37,3.83,23.76,9.92,34.31,17.08,15.78,10.71,25.92,25.87,28.55,45.05,1.1,7.99,.33,16.24,.52,24.36,.2,8.64,.49,17.29,.82,25.93,.24,6.31,.82,12.62,.88,18.94,.1,9.66,.08,19.34-.29,28.99-.21,5.46-.84,10.97-1.96,16.32-2.13,10.23-9.69,16.03-18.32,20.51-9.44,4.9-19.05,9.45-28.65,14.04-6.49,3.1-13.33,5.12-20.48,6.04-.82,.11-1.69,.25-2.49,.11-12.55-2.16-24.84,.76-37.25,1.72-8.45,.65-16.98,.23-25.48,.37-8.88,.15-17.57-.94-26.13-3.35-8.55-2.41-17.24-1.33-25.79-.18-8.75,1.17-17.25,1-25.58-2.04-13.9-5.07-27.89-9.92-41.63-15.38-19.89-7.9-33.55-33.22-23.76-57.52,3.01-7.48,8.8-12.37,15.8-16,12.85-6.66,26.35-7.58,40.32-4.71,7.41,1.52,14.75,3.23,20.05,9.18,2.42,2.71,4.51,5.75,6.49,8.8,1.9,2.92,3.53,6.03,5.19,9.1,7.19,13.28,19.13,18.32,33.42,19.14,3.65,.21,7.34,.14,10.99-.08,8.78-.53,16.76,1.66,24.23,6.29,5.36,3.32,10.69,7.03,17.25,7.41,4.11,.24,8.31,.12,12.38-.45,12.16-1.71,22.95-6.55,32.03-14.96,5.36-4.96,8.78-11.22,9.47-18.27,1-10.33,4.6-19.75,8.82-28.9,6.66-14.43,3.79-27.68-4.28-40.16-3.89-6.01-10.56-8.46-17.68-8.89-6.64-.4-13.3-.51-19.95-.72-3.02-.09-5.57-1.26-7.38-3.62-5.46-7.09-12.98-8.86-21.34-8.38-7.3,.42-14.69,.5-21.87,1.68-10.47,1.73-20.87,4.03-31.16,6.63-9.05,2.28-17.98,4.79-27.44,4.38-19.71-.87-37.48-6.86-52.78-19.61-9.84-8.2-13.8-19.32-15.54-31.45-.85-5.92-1.13-11.91-1.67-17.87Zm56.87,154.17c-1.75-3.48-2.97-7.18-5.2-10.09-4.17-5.42-9.41-9.85-15.51-13.04-4.61-2.41-9.39-3.17-14.19-.22-4.57,2.81-4.94,8.44-.5,11.28,4.04,2.59,8.25,4.92,12.48,7.2,4.07,2.19,8.12,4.53,12.43,6.11,3.03,1.11,6.6,2.56,10.49-1.23Zm182.57-6.81c.11-7.59-3.32-12-8.43-12.29-5.06-.28-9.13,3.5-9.52,9.35-.53,7.93-.76,15.87-1.07,23.81-.11,2.68-.3,5.7,2.97,6.64,2.89,.83,4.99-1.17,6.89-3.11,.35-.35,.65-.75,.95-1.15,5.41-7.33,6.18-16.21,8.23-23.25Zm-6.32-83.96c.14-1.57,.34-2.54,.3-3.5-.29-8.73-12.49-20.98-18.77-23.55-2.85-1.16-6.75,.26-7.98,2.43-1.38,2.43-.91,5.88,1.2,8.2,.66,.73,1.45,1.36,2.23,1.97,2.59,2.04,5.13,4.15,7.83,6.03,4.56,3.17,8.97,6.67,15.18,8.41Zm-195.52-40.87c2.16-9.45,2.18-17.88,1.67-26.28-.22-3.57-3.05-5.33-6.7-5.21-3.11,.11-5.4,1.37-5.92,4.95-1.19,8.12-.98,16.23,5,22.81,1.33,1.47,3.47,2.21,5.96,3.72ZM254.92,54.38c-.03-.27-.03-.78-.16-1.25-1.52-5.78-14.41-14.52-20.42-13.77-3.44,.43-6.9,3.96-4.13,7.37,4.84,5.95,10.4,11.13,18.12,13.17,3.47,.92,6.7-1.75,6.59-5.51ZM30.46,347.73c-1.81-4.21-3.43-7.25-4.43-10.49-2-6.49-3.59-13.1-5.49-19.62-.97-3.31-2.84-4.71-5.19-4.34-2.25,.35-3.82,2.49-4.05,5.59-.05,.65,.02,1.33,.12,1.98,1.64,10.72,6.98,19.21,15.58,25.7,.6,.45,1.48,.52,3.46,1.17Zm19.15-152.71c-1.48-4.83-2.99-9.5-4.31-14.24-.67-2.39-.91-4.9-1.47-7.33-.77-3.34-2.85-5.28-5.25-5.08-2.6,.22-4.9,2.99-4.5,6.24,.88,7.29,3.47,13.87,9.33,18.72,1.79,1.48,3.77,2.73,6.21,1.68Zm217.07,22.92c-.32-2.76-.39-4.66-.79-6.5-1.27-5.93-4.72-10.49-9.34-14.22-1.86-1.5-4-1.73-5.9-.09-1.64,1.41-1.32,4.16,.56,6.2,.56,.61,1.28,1.06,1.85,1.66,3.53,3.71,7.02,7.46,10.58,11.14,.57,.59,1.45,.89,3.03,1.81ZM62.6,54.65c-3.52-.3-4.27-.26-5.94,1.36-3.51,3.41-5.26,7.58-4.98,12.53,.15,2.59,1.61,4.07,4.03,4.25,2.5,.18,3.2-1.58,3.62-3.81,.9-4.69,2.1-9.33,3.26-14.33Zm52.16-3.45c-5.19-2.76-8.17-3.82-11.06-2.88-1.46,.48-3.12,1.99-3.59,3.39-.38,1.16,.44,3.39,1.47,4.22,3.86,3.11,11.52,.21,13.18-4.74Zm-35.58,5.8c-5.27,.73-8.8,2.45-11.35,5.95-1.13,1.55-1.03,3.36,.59,4.38,.86,.54,2.96,.6,3.44,.02,2.44-3.01,4.52-6.3,7.33-10.35Zm190.53,46.93c2.66-3.35,2.47-6.3,2.19-9.21-.19-1.96-1.07-3.81-3.38-3.31-2.18,.47-2.6,2.27-1.83,4.32,.92,2.44,1.81,4.89,3.02,8.2Z"/>
        <path class="cls-1" d="M83.34,317.29c-3.89,3.79-7.46,2.34-10.49,1.23-4.31-1.58-8.36-3.92-12.43-6.11-4.23-2.28-8.44-4.61-12.48-7.2-4.44-2.84-4.07-8.47,.5-11.28,4.8-2.95,9.58-2.19,14.19,.22,6.1,3.19,11.35,7.62,15.51,13.04,2.24,2.91,3.46,6.61,5.2,10.09Z"/>
        <path class="cls-1" d="M265.91,310.48c-2.05,7.04-2.81,15.92-8.23,23.25-.3,.4-.6,.8-.95,1.15-1.9,1.94-3.99,3.94-6.89,3.11-3.26-.93-3.07-3.96-2.97-6.64,.31-7.94,.55-15.89,1.07-23.81,.39-5.85,4.46-9.64,9.52-9.35,5.11,.29,8.54,4.7,8.43,12.29Z"/>
        <path class="cls-1" d="M259.59,226.51c-6.22-1.74-10.62-5.24-15.18-8.41-2.7-1.88-5.24-4-7.83-6.03-.78-.61-1.56-1.24-2.23-1.97-2.11-2.32-2.58-5.77-1.2-8.2,1.23-2.16,5.13-3.59,7.98-2.43,6.29,2.56,18.48,14.81,18.77,23.55,.03,.96-.16,1.92-.3,3.5Z"/>
        <path class="cls-1" d="M64.07,185.65c-2.49-1.51-4.62-2.26-5.96-3.72-5.98-6.58-6.18-14.69-5-22.81,.52-3.58,2.81-4.84,5.92-4.95,3.65-.13,6.48,1.64,6.7,5.21,.52,8.4,.5,16.83-1.67,26.28Z"/>
        <path class="cls-1" d="M254.92,54.38c.1,3.76-3.12,6.43-6.59,5.51-7.72-2.04-13.28-7.22-18.12-13.17-2.77-3.41,.69-6.94,4.13-7.37,6.02-.75,18.9,7.99,20.42,13.77,.12,.47,.13,.98,.16,1.25Z"/>
        <path class="cls-22" d="M30.46,347.73c-1.98-.65-2.86-.72-3.46-1.17-8.6-6.49-13.94-14.99-15.58-25.7-.1-.65-.16-1.32-.12-1.98,.23-3.1,1.79-5.24,4.05-5.59,2.35-.37,4.22,1.02,5.19,4.34,1.9,6.52,3.49,13.13,5.49,19.62,1,3.23,2.62,6.28,4.43,10.49Z"/>
        <path class="cls-4" d="M49.61,195.01c-2.44,1.05-4.42-.2-6.21-1.68-5.86-4.85-8.44-11.43-9.33-18.72-.39-3.24,1.9-6.02,4.5-6.24,2.4-.2,4.48,1.74,5.25,5.08,.56,2.43,.8,4.94,1.47,7.33,1.32,4.73,2.84,9.41,4.31,14.24Z"/>
        <path class="cls-4" d="M266.68,217.93c-1.57-.92-2.45-1.22-3.03-1.81-3.56-3.68-7.05-7.43-10.58-11.14-.57-.6-1.29-1.05-1.85-1.66-1.88-2.04-2.2-4.78-.56-6.2,1.9-1.64,4.04-1.41,5.9,.09,4.62,3.73,8.07,8.3,9.34,14.22,.39,1.84,.46,3.74,.79,6.5Z"/>
        <path class="cls-7" d="M62.6,54.65c-1.16,5-2.36,9.64-3.26,14.33-.43,2.23-1.13,3.99-3.62,3.81-2.42-.18-3.88-1.66-4.03-4.25-.28-4.96,1.47-9.13,4.98-12.53,1.66-1.62,2.42-1.66,5.94-1.36Z"/>
        <path class="cls-8" d="M114.77,51.2c-1.66,4.95-9.32,7.84-13.18,4.74-1.03-.83-1.85-3.06-1.47-4.22,.46-1.41,2.12-2.92,3.59-3.39,2.89-.94,5.87,.12,11.06,2.88Z"/>
        <path class="cls-14" d="M79.18,56.99c-2.8,4.05-4.89,7.34-7.33,10.35-.47,.59-2.57,.53-3.44-.02-1.62-1.01-1.72-2.83-.59-4.38,2.55-3.5,6.08-5.22,11.35-5.95Z"/>
        <path class="cls-5" d="M269.72,103.93c-1.22-3.3-2.1-5.76-3.02-8.2-.77-2.05-.35-3.85,1.83-4.32,2.31-.5,3.19,1.35,3.38,3.31,.28,2.91,.47,5.86-2.19,9.21Z"/>
      </g>
      <path class="cls-29" d="M1325.35,137.31c.65,1.8,2.01,3.46,1.45,3.58-.86,4.54-2.11,8.7-3.18,13.19-.54,2.28-1.41,4.58-4.1,5.12-2.18,.44-3.8-.66-5.08-2.39-1.67-2.26-1.94-4.87-.31-6.92,3.28-4.12,6.99-7.89,11.22-12.58Z"/>
      <g>
        <path class="cls-15" d="M1874.91,131.39c-1.15,7.83-5.69,13.46-8.47,20.21-5.93,14.45-27.32,27.66-49.13,19.22-4.44-1.72-8.2-5.51-11.9-8.78-3.23-2.85-6-6.22-8.84-9.49-7.17-8.27-8.94-17.93-7.36-28.51,.76-5.1,1.29-10.24,1.73-15.38,.98-11.31,7.64-19.41,18.62-22.72,21.39-6.44,39.65-.31,55.76,13.99,4.88,4.33,8.19,10.43,9.06,16.46m-48.2-23.31c-4.18,.68-8.79,1.29-13.33,2.21-5.32,1.08-8.95,4.37-10.62,9.49-.92,2.81-1.37,5.79-1.79,8.73-.64,4.43-.85,8.93-1.63,13.33-.91,5.11-.75,10.06,2.11,14.42,4,6.1,8.3,12,12.67,17.84,.76,1.02,2.42,1.67,3.76,1.9,3.76,.63,7.65,.61,11.35,1.47,10.84,2.51,24.21-5.8,28.39-15.84,1.72-4.14,3.25-8.39,5.33-12.34,4.78-9.09,.1-22.84-6.88-28.61-6.9-5.7-14.92-9.24-23.48-11.62-1.74-.48-3.58-.62-5.87-.99Z"/>
        <path class="cls-30" d="M1826.21,93.1c2.29,.38,4.13,.51,5.87,.99,8.56,2.38,16.58,5.92,23.48,11.62,6.98,5.77,11.66,19.52,6.88,28.61-2.08,3.95-3.6,8.2-5.33,12.34-4.18,10.04-17.55,18.34-28.39,15.84-3.7-.85-7.59-.83-11.35-1.47-1.34-.23-3-.88-3.76-1.9-4.37-5.84-8.67-11.75-12.67-17.84-2.87-4.37-3.03-9.31-2.11-14.42,.79-4.4,1-8.9,1.63-13.33,.42-2.94,.88-5.93,1.79-8.73,1.67-5.12,5.31-8.41,10.62-9.49,4.55-.92,9.16-1.53,13.33-2.21Zm9.08,17.06c-2.07-2.87-3.87-6.01-6.28-8.55-2.96-3.11-7.18-3.28-10.42-1.08-3,2.03-4.77,6.7-2.94,10.2,3.32,6.36,8.21,11.53,14.11,15.67,.14,.1,.28,.19,.43,.25,4.04,1.68,6.74-.12,7.09-4.49,.34-4.2-.5-8.15-1.99-12.03,3.51,2.72,6.99,5.48,10.53,8.16,1.44,1.09,2.2,.02,2.33-1.19,.4-3.72-.2-7.25-2.52-10.34-2.13-2.83-4.77-3.98-7.19-3.09-3.12,1.15-3.48,3.65-3.15,6.48Zm4.27,36.86c1.34-5.59,.62-9.95-.65-14.17-.61-2.04-2.52-3.15-4.8-2.5-1.86,.53-3.03,1.59-2.96,3.91,.07,2.43,.44,4.64,2.11,6.43,1.8,1.92,3.72,3.74,6.3,6.33Zm9.72-13.63c-.04-1.02-1.15-2.22-3.38-2.23-2.14,0-4.12,1.95-3.42,3.9,.67,1.87,2.07,3.64,3.57,4.98,.72,.64,3.33-3.45,3.22-6.66Z"/>
        <path class="cls-3" d="M1835.28,110.14c1.49,3.87,2.33,7.82,1.99,12.03-.35,4.37-3.05,6.16-7.09,4.49-.15-.06-.3-.15-.43-.25-5.9-4.14-10.79-9.31-14.11-15.67-1.83-3.5-.06-8.17,2.94-10.2,3.24-2.19,7.46-2.03,10.42,1.08,2.42,2.54,4.21,5.67,6.28,8.55v-.02Z"/>
        <path class="cls-25" d="M1835.29,110.16c-1.14-2.66,.03-5.34,3.15-6.48,2.42-.89,5.06,.26,7.19,3.09,2.32,3.08,2.91,6.62,2.52,10.34-.13,1.22-.89,2.28-2.33,1.19-3.54-2.68-7.03-5.43-10.53-8.16v.02Z"/>
        <path class="cls-3" d="M1839.57,147.01c-2.59-2.59-4.5-4.41-6.3-6.33-1.68-1.79-2.04-4-2.11-6.43-.07-2.32,1.1-3.38,2.96-3.91,2.29-.65,4.19,.46,4.8,2.5,1.27,4.22,1.99,8.58,.65,14.17Z"/>
        <path class="cls-27" d="M1849.28,133.38c.1,3.2-2.51,7.3-3.22,6.66-1.5-1.34-2.89-3.11-3.57-4.98-.7-1.95,1.27-3.91,3.42-3.9,2.22,0,3.34,1.21,3.38,2.23Z"/>
      </g>
      <g>
        <path class="cls-15" d="M1874.91,318.43c-1.15,7.83-5.69,13.46-8.47,20.21-5.93,14.45-27.32,27.66-49.13,19.22-4.44-1.72-8.2-5.51-11.9-8.78-3.23-2.85-6-6.22-8.84-9.49-7.17-8.27-8.94-17.93-7.36-28.51,.76-5.1,1.29-10.24,1.73-15.38,.98-11.31,7.64-19.41,18.62-22.72,21.39-6.44,39.65-.31,55.76,13.99,4.88,4.33,8.19,10.43,9.06,16.46m-48.2-23.31c-4.18,.68-8.79,1.29-13.33,2.21-5.32,1.08-8.95,4.37-10.62,9.49-.92,2.81-1.37,5.79-1.79,8.73-.64,4.43-.85,8.93-1.63,13.33-.91,5.11-.75,10.06,2.11,14.42,4,6.1,8.3,12,12.67,17.84,.76,1.02,2.42,1.67,3.76,1.9,3.76,.63,7.65,.61,11.35,1.47,10.84,2.51,24.21-5.8,28.39-15.84,1.72-4.14,3.25-8.39,5.33-12.34,4.78-9.09,.1-22.84-6.88-28.61-6.9-5.7-14.92-9.24-23.48-11.62-1.74-.48-3.58-.62-5.87-.99Z"/>
        <path class="cls-30" d="M1826.21,280.14c2.29,.38,4.13,.51,5.87,.99,8.56,2.38,16.58,5.92,23.48,11.62,6.98,5.77,11.66,19.52,6.88,28.61-2.08,3.95-3.6,8.2-5.33,12.34-4.18,10.04-17.55,18.34-28.39,15.84-3.7-.85-7.59-.83-11.35-1.47-1.34-.23-3-.88-3.76-1.9-4.37-5.84-8.67-11.75-12.67-17.84-2.87-4.37-3.03-9.31-2.11-14.42,.79-4.4,1-8.9,1.63-13.33,.42-2.94,.88-5.93,1.79-8.73,1.67-5.12,5.31-8.41,10.62-9.49,4.55-.92,9.16-1.53,13.33-2.21Zm9.08,17.06c-2.07-2.87-3.87-6.01-6.28-8.55-2.96-3.11-7.18-3.28-10.42-1.08-3,2.03-4.77,6.7-2.94,10.2,3.32,6.36,8.21,11.53,14.11,15.67,.14,.1,.28,.19,.43,.25,4.04,1.68,6.74-.12,7.09-4.49,.34-4.2-.5-8.15-1.99-12.03,3.51,2.72,6.99,5.48,10.53,8.16,1.44,1.09,2.2,.02,2.33-1.19,.4-3.72-.2-7.25-2.52-10.34-2.13-2.83-4.77-3.98-7.19-3.09-3.12,1.15-3.48,3.65-3.15,6.48Zm4.27,36.86c1.34-5.59,.62-9.95-.65-14.17-.61-2.04-2.52-3.15-4.8-2.5-1.86,.53-3.03,1.59-2.96,3.91,.07,2.43,.44,4.64,2.11,6.43,1.8,1.92,3.72,3.74,6.3,6.33Zm9.72-13.63c-.04-1.02-1.15-2.22-3.38-2.23-2.14,0-4.12,1.95-3.42,3.9,.67,1.87,2.07,3.64,3.57,4.98,.72,.64,3.33-3.45,3.22-6.66Z"/>
        <path class="cls-3" d="M1835.28,297.18c1.49,3.87,2.33,7.82,1.99,12.03-.35,4.37-3.05,6.16-7.09,4.49-.15-.06-.3-.15-.43-.25-5.9-4.14-10.79-9.31-14.11-15.67-1.83-3.5-.06-8.17,2.94-10.2,3.24-2.19,7.46-2.03,10.42,1.08,2.42,2.54,4.21,5.67,6.28,8.55v-.02Z"/>
        <path class="cls-25" d="M1835.29,297.2c-1.14-2.66,.03-5.34,3.15-6.48,2.42-.89,5.06,.26,7.19,3.09,2.32,3.08,2.91,6.62,2.52,10.34-.13,1.22-.89,2.28-2.33,1.19-3.54-2.68-7.03-5.43-10.53-8.16v.02Z"/>
        <path class="cls-3" d="M1839.57,334.05c-2.59-2.59-4.5-4.41-6.3-6.33-1.68-1.79-2.04-4-2.11-6.43-.07-2.32,1.1-3.38,2.96-3.91,2.29-.65,4.19,.46,4.8,2.5,1.27,4.22,1.99,8.58,.65,14.17Z"/>
        <path class="cls-27" d="M1849.28,320.42c.1,3.2-2.51,7.3-3.22,6.66-1.5-1.34-2.89-3.11-3.57-4.98-.7-1.95,1.27-3.91,3.42-3.9,2.22,0,3.34,1.21,3.38,2.23Z"/>
      </g>
    </g>
  </g>
</svg>