<?xml version="1.0" encoding="UTF-8"?>
<svg xmlns="http://www.w3.org/2000/svg" viewBox="0 0 1698.03 378.18">
  <defs>
    <style>
      .cls-1 {
        fill: #121312;
      }

      .cls-2 {
        fill: #fee877;
      }

      .cls-3 {
        fill: #6fab66;
      }

      .cls-4 {
        fill: #54dafe;
      }

      .cls-5 {
        fill: #121615;
      }

      .cls-6 {
        fill: #54d9fe;
      }

      .cls-7 {
        fill: #100e0b;
      }

      .cls-8 {
        fill: #fafafe;
      }

      .cls-9 {
        fill: #121210;
      }

      .cls-10 {
        fill: #70ab66;
      }

      .cls-11 {
        fill: #55dafe;
      }

      .cls-12 {
        fill: #100f0b;
      }

      .cls-13 {
        fill: #08b2e4;
      }

      .cls-14 {
        fill: #0f0d0a;
      }

      .cls-15 {
        fill: #121412;
      }

      .cls-16 {
        fill: #121716;
      }

      .cls-17 {
        fill: #d3d3d6;
      }

      .cls-18 {
        fill: #55d9fd;
      }

      .cls-19 {
        fill: #07bff9;
      }

      .cls-20 {
        fill: #54814d;
      }

      .cls-21 {
        fill: #12100d;
      }

      .cls-22 {
        fill: #121311;
      }

      .cls-23 {
        fill: #0f0e0a;
      }

      .cls-24 {
        fill: #17140e;
      }

      .cls-25 {
        fill: #121413;
      }

      .cls-26 {
        fill: #0e0d09;
      }

      .cls-27 {
        fill: #19160f;
      }

      .cls-28 {
        fill: #0e0c09;
      }

      .cls-29 {
        fill: #efd54f;
      }
    </style>
  </defs>
  <g id="_лой_1" data-name="Слой 1"/>
  <g id="_лой_2" data-name="Слой 2">
    <g id="_лой_1-2" data-name="Слой 1">
      <g>
        <g>
          <path class="cls-21" d="M0,39.15c.68-2.77,.86-5.5,1.37-8.31C3.74,17.86,13.12,7.45,24.92,6.14c13.65-1.51,25.46,2.57,33.59,14.28,2.73,3.93,4.57,8.47,6.94,12.67,2.2,3.9,4.16,8.03,6.94,11.49,8.22,10.24,14.39,21.58,19.13,33.75,4.6,11.78,8.9,23.68,13.82,35.33,3.56,8.41,7.6,16.65,11.99,24.67,6.02,10.99,10.71,22.52,15.02,34.24,4.31,11.71,8.39,23.51,13.1,35.06,3.06,7.51,7.08,14.63,10.71,22.03,5.58-2.76,9.46-6.23,12.48-11.02,4.46-7.04,8.64-14.16,11.74-21.93,1.55-3.88,1.51-7.44-.52-10.99-2.48-4.33-4.85-8.74-7.62-12.88-7.67-11.45-10.24-24.34-11.31-37.76-.53-6.58-.11-13,2.21-19.16,1.22-3.24,2.8-6.39,4.54-9.4,4.86-8.42,12.42-11.7,21.89-10.83,3.8,.35,7.6,.94,11.35,1.69,4.03,.81,7.26,3.09,10.2,5.94,4.18,4.05,8.51,7.95,12.86,11.83,3,2.67,6.37,3.46,10.1,1.44,4.07-2.21,8.19-4.33,12.22-6.62,1.58-.9,3-2.1,4.43-3.25,9.07-7.3,18.93-7.21,29.15-3.01,2.6,1.07,5.09,2.48,7.47,3.99,6.83,4.32,9.27,10,7.52,17.93-.71,3.21-2.03,6.31-3.21,9.4-3.14,8.22-6.54,16.36-9.48,24.66-1.32,3.73-2.01,7.72-2.6,11.65-.83,5.58-.1,10.93,3.33,15.7,10.75,14.97,15.33,32.32,19.19,49.95,.14,.64,.28,1.28,.51,2.36,8.84-5.53,15.56-12.7,20.74-21.36,5.51-9.2,6.71-19.29,6.35-29.81-.24-7.13-.07-14.3,.34-21.42,.34-5.97,3-11.23,6.55-15.96,7.11-9.5,12.97-19.74,18.29-30.32,3.97-7.9,8.26-15.6,14.18-22.26,3.51-3.95,4.58-8.98,5.05-13.88,1.31-13.64,7.04-25.07,15.6-35.55,3.85-4.72,6.59-10.35,9.82-15.58,3.49-5.66,6.52-11.67,10.54-16.92,7.31-9.54,16.9-13.65,29.04-10.35,8.32,2.26,13.19,7.99,16.27,15.6,4.56,11.23,4.76,22.73,1.58,34.29-1.67,6.08-3.61,12.12-5.89,18-4.5,11.66-8.31,23.48-10.85,35.74-3.04,14.67-10,27.81-17.13,40.79-4.88,8.89-10.23,17.53-15.44,26.24-12.42,20.74-24.09,41.84-30.66,65.3-1.93,6.88-3.45,13.88-4.87,20.89-2.26,11.19-7.57,21.28-11.21,31.97-4.02,11.8-7.81,23.67-11.47,35.59-3.04,9.91-6.33,19.61-13.12,27.76-7.23,8.68-16.38,13.35-27.63,14.11-9.91,.67-16.37-3.38-19.31-12.93-3.03-9.87-5.63-19.92-11.15-28.73-4.4-7.02-9.08-13.97-14.45-20.26-5.2-6.09-9.16-12.61-11.54-20.18-.95-3.01-1.82-6.06-2.97-9-1.75-4.45-4.77-7.3-9.77-8.27-6.29-1.21-12.36-2.28-18.47,.86-2.59,1.33-4.39,2.9-4.88,5.8-.06,.33-.24,.64-.25,.97-.17,9.49-4.73,17.52-8.47,25.86-4.08,9.1-7.78,18.37-11.89,27.45-8.47,18.67-22.32,32.07-40.75,40.84-2.75,1.31-5.62,2.39-8.44,3.57h-3c-1.16-.88-2.2-2.07-3.5-2.58-6.44-2.51-10.33-7.6-13.89-13.13-4.71-7.33-8.12-15.25-10.75-23.52-2.19-6.88-5.39-13.2-9.72-18.99-8.98-12.02-14.91-25.41-18.34-40.02-4.57-19.49-11.68-38.07-20.56-56.02-4.34-8.77-8.46-17.73-11.64-26.96-5.76-16.74-13.49-32.51-21.89-48-9.55-17.62-17.19-35.97-22.46-55.32-2.92-10.74-6.12-21.41-9.02-32.16-.73-2.7-.74-5.58-1.2-8.37M187.41,322.93c1.47-3.13,3.94-5.85,3.92-9.59,.14-.09,.37-.14,.41-.26,4.57-11.52,11.15-22.31,12.52-35.01,.58-5.35,3.09-9.83,7.56-12.99,9.84-6.96,28.9-7.49,38.84-.64,3.04,2.09,5.52,5.3,7.55,8.45,1.66,2.58,2.55,5.77,3.3,8.81,2.3,9.38,6.59,17.45,12.84,24.98,9.75,11.73,16.18,25.49,21.09,39.92,1.12,3.3,2.12,6.66,3.49,9.86,2.04,4.78,4.26,6,9.37,5.5,8.75-.85,15.78-4.73,21.1-11.82,5.01-6.68,7.84-14.33,9.62-22.29,2.66-11.88,6.41-23.36,10.62-34.77,4.25-11.52,9.8-22.57,12.19-34.78,1.4-7.16,3.12-14.29,5.14-21.31,6.68-23.19,18.14-44.24,29.6-65.28,8.11-14.9,16.14-29.85,23.81-44.98,2.83-5.59,5.17-11.61,6.59-17.7,3.9-16.73,9.78-32.78,15.64-48.86,1.81-4.97,3.33-10.13,4.19-15.33,1.26-7.68,.6-15.27-3.37-22.28-1.8-3.18-4.29-5.3-7.87-6.45-5.59-1.8-10.49-.43-14.14,3.63-3.74,4.16-7.12,8.82-9.75,13.75-4.63,8.7-9.52,17.15-15.69,24.86-4.52,5.65-7.95,11.9-9.16,19.16-.55,3.28-.9,6.59-1.44,9.87-1.01,6.16-2.87,12-7.32,16.64-4.78,4.98-8.2,10.84-11.58,16.8-6.41,11.28-12.78,22.59-19.74,33.52-4.2,6.58-6.41,13.31-6.37,21.09,.04,7.64-.2,15.32-.92,22.92-1.84,19.25-12.65,33.18-27.38,44.55-3.04,2.34-6.63,3.78-10.68,3.57-2.5-.13-4.35-.7-5.36-3.46-2.39-6.54-5.81-12.77-7.54-19.46-2.97-11.54-6.82-22.51-13.53-32.48-4.12-6.12-5.5-13.21-4.41-20.54,1.19-8.06,3.15-15.94,6.36-23.51,2.66-6.27,5.03-12.67,7.26-19.1,2.94-8.49,1.98-10.55-6.21-14.44-1.94-.92-4.01-1.6-6.04-2.32-5.59-1.98-10.65-1.05-15.61,2.27-5.65,3.78-11.48,7.34-17.48,10.53-7.63,4.05-15.2,3.4-21.94-2.09-4.11-3.35-7.74-7.29-11.7-10.82-1.95-1.74-3.99-3.9-6.35-4.57-4.27-1.21-8.79-1.7-13.25-2-3.89-.26-7.01,1.59-9.31,4.84-2.92,4.13-5.06,8.55-6.05,13.55-1.72,8.66-.75,17.22,.93,25.73,1.81,9.19,6.79,16.92,11.85,24.56,2.87,4.33,5.44,8.72,6.82,13.79,1.06,3.88,.91,7.6-.82,11.18-4.19,8.7-8.66,17.24-14.74,24.83-1.25,1.56-3.04,3.08-3.4,4.86-.97,4.85-4.39,6.73-8.38,8.33-.76,.31-1.72,1.12-1.84,1.83-.55,3.16-2.82,2.6-4.58,1.95-1.64-.61-3.22-1.84-4.38-3.18-6.04-6.94-11.28-14.38-14.5-23.12-5.86-15.91-11.65-31.84-17.84-47.61-2.73-6.94-6.05-13.7-9.66-20.23-6.86-12.4-13.25-24.97-18.2-38.27-3.66-9.82-7.05-19.77-11.42-29.27-3.95-8.58-8.56-16.95-13.8-24.8-4.44-6.66-8.81-13.22-12.24-20.5-2.01-4.26-4.99-8.32-8.35-11.65-5.52-5.48-12.78-7.33-20.32-6.04-8.51,1.46-13.02,7.52-14.97,15.57-2.47,10.18-2.72,20.51-.24,30.66,7.47,30.62,17.24,60.41,32.69,88.11,7.22,12.94,13.1,26.49,18.17,40.44,3.62,9.98,7.69,19.86,12.36,29.38,8.55,17.42,14.86,35.55,19.15,54.42,3.34,14.64,9.33,28.04,18.2,40.13,4.96,6.76,8.93,13.97,11.77,21.88,3.27,9.11,7.56,17.78,13.37,25.56,1.73,2.31,4.31,4.04,6.65,5.83,1.61,1.23,3.35,.98,5.07-.22,5.74-3.99,11.59-7.82,17.33-11.82,8.43-5.87,14.35-13.77,18.4-23.13,1.37-3.05,2.73-6.09,4.1-9.14Z"/>
          <path class="cls-28" d="M454.06,245.33c1.32-11.46-.82-22.52-3.12-33.63-1.61-7.81-2.74-15.74-3.86-23.64-2.19-15.45,1.51-29.76,9.22-43.07,5.05-8.72,12.5-14.55,22.45-16.99,10.03-2.47,18.26-7.7,24.61-15.98,6.18-8.06,12.62-15.92,18.97-23.85,7.88-9.83,17.66-17.25,29.37-21.75,10.54-4.05,21.24-7.78,32.07-10.92,12.05-3.49,24.43-2.61,36.7-.87,12.57,1.78,24.48,6.07,36.47,10.03,9.31,3.08,18.66,6.02,28.05,8.84,4.31,1.29,6.21,.28,6.96-3.84,3.56-19.63,15.63-33.93,29.62-46.81,7.6-7,16.31-12.79,26.75-14.87,4.19-.83,8.59-1.02,12.86-.84,4.3,.19,7.78,2.5,10.68,5.78,6.39,7.21,8.03,15.97,8.05,25.1,.03,13.91-2.25,27.49-7,40.61-2.21,6.1-4.19,12.27-6.42,18.36-3.21,8.79-2.42,17.22,1.36,25.69,2.22,4.98,4.31,10.17,5.38,15.48,1.79,8.8,.45,17.5-2.57,25.99-3.4,9.54-7.22,19.02-9.58,28.83-4.27,17.79-5.15,35.86-1.88,54.02,1.37,7.61,5.33,13.92,9.6,20.09,1.89,2.73,3.99,5.34,6.11,7.9,10.24,12.36,16.1,26.73,18.88,42.36,.93,5.21,1.04,10.61,1.12,15.93,.15,9.83-5.3,16.57-13.64,20.36-11.84,5.38-24.43,7.44-37.5,5.2-14.47-2.47-26.25-10.15-37.3-19.15-6.58-5.36-12.86-11.09-19.28-16.65-1.13-.98-2.34-1.87-3.48-2.85-5.04-4.36-10.44-2.63-13.37,1.63-1.41,2.05-3.12,3.9-4.65,5.87-4.95,6.39-11.63,9.31-19.54,9.37-4.13,.03-8.29-.3-12.4-.81-2.11-.26-3.38,.24-4.64,1.91-5.62,7.44-12.89,12.92-21.1,17.23-5.3,2.78-10.51,5.74-15.88,8.38-11.41,5.61-23.44,8.49-36.23,7.48-18.58-1.46-36.7-4.99-53.01-14.42-8.33-4.81-16.46-10.24-23.76-16.48-17.44-14.9-27.13-33.83-27.03-57.19,.01-3.17,0-6.33,0-9.5m10.25,11.88c-.02,17.18,6.7,31.61,19.18,42.93,10.23,9.27,21.66,17.13,34.48,22.7,14.94,6.5,30.71,8.69,46.77,8.56,5.53-.04,11.39-1.19,16.49-3.3,8.57-3.55,16.7-8.18,24.93-12.53,5.8-3.07,11.11-7.03,14.89-12.35,4.59-6.47,9.96-8.69,17.93-7.37,9.65,1.6,18.66-.33,24.48-9.52,.18-.28,.46-.49,.67-.74,7.42-8.7,19.92-8.73,27.09-3.22,3.16,2.43,6.28,4.93,9.31,7.52,6.2,5.31,12.14,10.93,18.51,16.01,7.47,5.96,15.78,10.39,25.23,12.59,10.69,2.49,21.14,1.82,31.45-1.69,7.67-2.61,10.94-7.63,10.2-15.56-.37-3.98-.58-7.99-1.34-11.9-2.65-13.62-7.96-26.03-17.18-36.6-1.75-2.01-3.31-4.18-5.03-6.22-8.82-10.46-13.14-22.81-13.99-36.19-1.58-24.86,1.01-49.13,11.42-72.22,6.12-13.57,8.24-27.43-.27-41.09-.86-1.39-1.27-3.07-1.83-4.63-3.03-8.41-3.52-16.86-.58-25.42,2.8-8.18,5.44-16.41,8.24-24.59,4.02-11.75,6.38-23.79,5.65-36.24-.2-3.39-1.16-6.93-2.58-10.02-2.53-5.5-7.09-7.59-13.07-7-5.38,.54-10.4,1.99-14.98,4.99-18.16,11.89-30.34,28.13-35.92,49.19-2.36,8.91-7.82,13.15-17,12.66-3.62-.19-7.31-.8-10.79-1.83-13.86-4.1-27.71-8.28-41.46-12.73-11.08-3.59-22.38-4.99-33.95-4.61-12.17,.4-23.41,4.64-34.74,8.5-15.6,5.32-28.21,14.65-38.17,27.79-4.82,6.36-10.05,12.43-15.27,18.48-6.95,8.07-15.9,13.12-26.04,15.9-5.69,1.56-10.6,4.3-14.32,8.62-4.32,5.02-8.14,10.51-11.8,16.05-1.18,1.79-1.63,4.37-1.6,6.58,.06,4.98,.37,10,1.05,14.93,1.73,12.35,3.53,24.69,5.67,36.96,1.39,7.95,1.75,15.79,.68,23.82-1.38,10.37-2.23,20.81-3.31,31.22"/>
          <path class="cls-19" d="M183.31,332.07c-4.05,9.37-9.97,17.27-18.4,23.13-5.74,3.99-11.58,7.83-17.33,11.82-1.73,1.2-3.47,1.44-5.07,.22-2.35-1.79-4.92-3.52-6.65-5.83-5.81-7.78-10.1-16.45-13.37-25.56-2.84-7.91-6.81-15.12-11.77-21.88-8.87-12.09-14.86-25.49-18.2-40.13-4.3-18.86-10.61-37-19.15-54.42-4.68-9.53-8.74-19.4-12.36-29.38-5.06-13.95-10.95-27.5-18.17-40.44-15.45-27.69-25.22-57.49-32.69-88.11-2.48-10.15-2.22-20.48,.24-30.66,1.95-8.05,6.46-14.11,14.97-15.57,7.55-1.3,14.8,.56,20.32,6.04,3.36,3.33,6.34,7.38,8.35,11.65,3.43,7.28,7.8,13.84,12.24,20.5,5.24,7.85,9.85,16.22,13.8,24.8,4.37,9.5,7.77,19.45,11.42,29.27,4.95,13.29,11.35,25.87,18.2,38.27,3.61,6.53,6.94,13.29,9.66,20.23,6.19,15.77,11.99,31.71,17.84,47.61,3.22,8.74,8.46,16.18,14.5,23.12,1.17,1.34,2.74,2.57,4.38,3.18,1.75,.66,4.03,1.22,4.58-1.95,.12-.71,1.08-1.53,1.84-1.83,3.99-1.6,7.41-3.48,8.38-8.33,.35-1.78,2.15-3.3,3.4-4.86,6.08-7.59,10.55-16.13,14.74-24.83,1.73-3.58,1.87-7.3,.82-11.18-1.38-5.07-3.95-9.46-6.82-13.79-5.06-7.63-10.04-15.37-11.85-24.56-1.68-8.51-2.65-17.07-.93-25.73,.99-4.99,3.13-9.42,6.05-13.55,2.3-3.25,5.43-5.11,9.31-4.84,4.45,.3,8.98,.79,13.25,2,2.36,.67,4.39,2.83,6.35,4.57,3.97,3.53,7.59,7.47,11.7,10.82,6.74,5.49,14.31,6.14,21.94,2.09,6-3.19,11.83-6.75,17.48-10.53,4.96-3.32,10.02-4.25,15.61-2.27,2.03,.72,4.1,1.4,6.04,2.32,8.19,3.89,9.15,5.95,6.21,14.44-2.23,6.44-4.6,12.84-7.26,19.1-3.21,7.57-5.17,15.45-6.36,23.51-1.09,7.33,.29,14.43,4.41,20.54,6.71,9.97,10.56,20.94,13.53,32.48,1.72,6.69,5.15,12.92,7.54,19.46,1.01,2.76,2.85,3.32,5.36,3.46,4.06,.22,7.64-1.22,10.68-3.57,14.73-11.37,25.54-25.31,27.38-44.55,.73-7.6,.96-15.28,.92-22.92-.04-7.78,2.17-14.51,6.37-21.09,6.97-10.93,13.34-22.25,19.74-33.52,3.38-5.95,6.8-11.82,11.58-16.8,4.45-4.63,6.3-10.47,7.32-16.64,.54-3.28,.9-6.59,1.44-9.87,1.21-7.26,4.64-13.5,9.16-19.16,6.16-7.71,11.06-16.17,15.69-24.86,2.63-4.93,6.01-9.59,9.75-13.75,3.65-4.06,8.54-5.43,14.14-3.63,3.58,1.15,6.07,3.27,7.87,6.45,3.96,7,4.63,14.6,3.37,22.28-.86,5.2-2.38,10.36-4.19,15.33-5.86,16.08-11.75,32.13-15.64,48.86-1.42,6.09-3.76,12.11-6.59,17.7-7.66,15.13-15.7,30.08-23.81,44.98-11.46,21.05-22.92,42.09-29.6,65.28-2.02,7.02-3.74,14.14-5.14,21.31-2.38,12.2-7.94,23.26-12.19,34.78-4.21,11.41-7.96,22.89-10.62,34.77-1.78,7.96-4.61,15.61-9.62,22.29-5.32,7.09-12.35,10.97-21.1,11.82-5.12,.5-7.33-.72-9.37-5.5-1.37-3.2-2.37-6.56-3.49-9.86-4.91-14.43-11.34-28.19-21.09-39.92-6.25-7.53-10.54-15.6-12.84-24.98-.75-3.04-1.64-6.23-3.3-8.81-2.03-3.15-4.51-6.36-7.55-8.45-9.94-6.85-29-6.32-38.84,.64-4.47,3.16-6.98,7.64-7.56,12.99-1.38,12.7-7.95,23.49-12.52,35.01-.05,.12-.27,.18-.41,.26-3.79-3.33-6.17-3.33-8.68,.98-2.96,5.08-5.25,10.56-7.73,15.91-.26,.56,.09,1.4,.16,2.11,.7-.15,1.58-.07,2.06-.48,2.51-2.14,4.91-4.4,7.35-6.61,.12,.65,.47,1.35,.33,1.94-.39,1.66-.98,3.27-1.5,4.89ZM428.58,50.1c.16,4.09,.32,8.19,.5,12.28,.04,.86,.19,1.72,.29,2.58,.87-.55,1.97-.92,2.56-1.69,3.23-4.2,4.19-9.24,4.96-14.32,.83-5.5-.79-7.16-6.44-6.7-1.67-3.81-4.5-5.68-7.41-4.9-3.35,.9-5.51,4.34-4.58,8.23,.68,2.84,1.92,5.62,3.34,8.19,.59,1.08,2.55,2.38,3.4,2.1,1.28-.42,2.26-2.06,3.11-3.35,.4-.61,.2-1.61,.27-2.44Zm-164.09,85.75c.85,.59,1.5,1.92,2.75,.36,2.62-3.25,2.91-11.15,.4-14.6-1.31-1.81-2.98-2.61-5.15-1.59-2.26,1.06-2.48,2.85-1.71,4.99,.61,1.7,1.14,3.42,1.71,5.13-1.21-1.32-2.3-2.78-3.65-3.93-2-1.7-5.92-.49-6.34,2.09-.27,1.69-.15,3.83,.68,5.25,2.73,4.7,5.83,9.19,8.86,13.72,.29,.44,1.07,.56,2.45,1.22v-12.64Zm72.89,157.24c4.12-2.91,3.83-7.68,4.89-11.84,.46-1.81,.14-3.8-1.92-4.64-2.39-.98-3.14,1.03-4.08,2.57-4.76-1.74-5.75-1.13-5.96,3.5-.29,6.61-.65,13.21-1,19.81-.04,.82-.33,1.63-.33,2.44,0,1.33,.13,2.65,.21,3.98,1.24-.93,2.82-1.64,3.63-2.86,1.17-1.76,1.9-3.84,2.59-5.87,.79-2.32,1.32-4.72,1.96-7.09Zm-70.73-84.99c-.61-.25-1.27-.4-1.81-.76-2.16-1.46-4.55-1.23-5.62,.8-.85,1.62-1.08,4.6-.12,5.94,3.44,4.81,7.48,9.2,11.36,13.69,.48,.56,1.35,.77,2.04,1.15,.29-.86,.87-1.74,.82-2.58-.14-2.11-.54-4.21-.88-6.31-.29-1.77-.64-3.52-.97-5.28,1.65,2.43,3.28,4.89,4.99,7.28,.31,.43,.97,.59,1.47,.88,.27-.55,.81-1.11,.78-1.64-.36-7.07-2.35-13.6-6.68-19.3-.79-1.04-1.62-2.12-2.63-2.92-1.56-1.24-3.63-1.63-4.9-.04-.8,1.02-.9,3.06-.53,4.42,.46,1.68,1.75,3.12,2.68,4.67Zm151.56-125.87c-2.46-1.39-5.16-2.06-7.29,.08-1.08,1.09-1.47,3.21-1.55,4.89-.43,9.21-.67,18.43-.93,27.65-.01,.36,.45,.74,.96,1.51,5.81-7.69,8.14-16.22,9.08-25.27,.47-.13,1.25-.13,1.35-.4,1.86-4.74,3.76-9.47,5.38-14.29,.51-1.52-.36-3-2.15-3.36-1.9-.39-3.33,.33-3.74,2.32-.47,2.27-.75,4.58-1.11,6.88Zm-353.23,.89c-1.13-2.49-1.99-5.15-3.46-7.42-1.79-2.77-4.59-3.29-7.3-1.94-2.54,1.27-3.83,4.28-2.4,7.17,3.38,6.81,7.43,13.21,13.19,18.32,.48,.43,1.42,.34,2.14,.48,.14-.71,.47-1.44,.4-2.14-.36-3.75-.82-7.49-1.25-11.23,2.27,2.62,4.52,5.27,6.82,7.86,.87,.98,1.75,2.08,2.86,2.71,1.11,.63,2.7,.33,2.22-1.34-1.37-4.74-2.99-9.43-4.71-14.06-.81-2.16-2.53-3.59-5.04-3.21-2.67,.4-3.22,2.53-3.47,4.78Zm-24.61-42.25c1.08,.75,2.43,1.29,3.19,2.28,2.1,2.74,3.92,5.7,5.95,8.51,.42,.58,1.25,.87,1.9,1.29,.31-.7,.97-1.45,.87-2.08-.45-2.76-.98-5.53-1.76-8.22-1.3-4.52-4.15-7.99-8.21-10.27-4.08-2.29-6.22-1.07-7.19,3.72-1.81-1.7-3.83-2.49-6.33-1.65-4.46,1.5-6.2,6.45-2.9,10.51,4.57,5.64,9.77,10.79,14.85,16,1.74,1.79,3.42,1.08,3.53-1.52,.12-2.78,.05-5.66-.56-8.35-.79-3.48-2.2-6.83-3.34-10.23Zm103.27,204.13c-1.51-8.71-4.44-16.41-11.16-22.24-2.31-2-5.71-2.25-7.65-.54-2.03,1.79-1.98,4.07,.18,7.08,.19,.27,.45,.49,.66,.74,4.51,5.47,8.96,10.99,13.57,16.37,.72,.84,2.18,1.06,3.29,1.57l1.1-2.98Zm26.52,64.71l1.44,.46c1.21-1.09,2.34-2.29,3.65-3.25,5.75-4.23,9.33-10.07,12.4-16.33,.89-1.81,.98-3.37-.37-5.04-2.94-3.63-7.25-3.4-9.57,1.22-2.57,5.11-4.43,10.59-6.34,16-.77,2.19-.83,4.62-1.21,6.95Zm18.19-194.37c-1.38,1.08-3.12,1.8-3.62,3.03-.41,1.02,.23,3.19,1.14,3.88,4.23,3.2,8.71,6.08,13.15,9,.42,.27,1.36,.29,1.69,0,.36-.31,.6-1.31,.36-1.68-2.46-3.9-4.85-7.87-7.66-11.51-.98-1.27-3.06-1.7-5.07-2.73Zm-85.15,45.39c.64-5.45-.3-9.76-2.35-13.82-1.36-2.68-4.15-3.61-6.21-2.38-1.8,1.08-2.36,3.82-.92,6.25,2.2,3.72,5.04,6.92,9.48,9.94Z"/>
          <path class="cls-5" d="M184.48,325.24c-2.44,2.22-4.84,4.48-7.35,6.61-.48,.41-1.36,.33-2.06,.48-.07-.71-.42-1.55-.16-2.11,2.49-5.35,4.77-10.83,7.73-15.91,2.51-4.31,4.89-4.31,8.68-.98,.02,3.74-2.45,6.46-3.92,9.59-.98,.77-1.95,1.54-2.93,2.31Z"/>
          <path class="cls-13" d="M184.48,325.24c.98-.77,1.95-1.54,2.93-2.31-1.37,3.05-2.73,6.09-4.1,9.14,.51-1.63,1.1-3.24,1.5-4.89,.14-.59-.2-1.29-.33-1.94Z"/>
          <path class="cls-17" d="M464.85,242.78c1.07-8.03,.7-15.87-.68-23.82-2.14-12.28-3.95-24.62-5.67-36.96-.69-4.93-.99-9.95-1.05-14.93-.03-2.21,.42-4.79,1.6-6.58,3.66-5.54,7.48-11.03,11.8-16.05,3.72-4.32,8.62-7.06,14.32-8.62,10.14-2.78,19.09-7.84,26.04-15.9,5.22-6.05,10.45-12.12,15.27-18.48,9.96-13.14,22.57-22.48,38.17-27.79,11.33-3.86,22.57-8.1,34.74-8.5,11.57-.38,22.87,1.03,33.95,4.61,13.75,4.46,27.6,8.64,41.46,12.73,3.48,1.03,7.16,1.63,10.79,1.83,9.19,.49,14.64-3.75,17-12.66,5.58-21.06,17.76-37.3,35.92-49.19,4.58-3,9.6-4.45,14.98-4.99,5.98-.6,10.54,1.5,13.07,7,1.42,3.1,2.38,6.63,2.58,10.02,.73,12.45-1.63,24.49-5.65,36.24-2.8,8.18-5.44,16.41-8.24,24.59-2.93,8.56-2.45,17.02,.58,25.42,.56,1.56,.97,3.25,1.83,4.63,8.51,13.66,6.39,27.52,.27,41.09-10.41,23.09-13,47.36-11.42,72.22,.85,13.38,5.17,25.73,13.99,36.19,1.72,2.04,3.28,4.21,5.03,6.22,9.22,10.57,14.54,22.98,17.18,36.6,.76,3.91,.97,7.92,1.34,11.9,.73,7.94-2.53,12.95-10.2,15.56-10.31,3.51-20.76,4.18-31.45,1.69-9.46-2.2-17.76-6.64-25.23-12.59-6.37-5.08-12.32-10.7-18.51-16.01-3.03-2.6-6.15-5.09-9.31-7.52-7.17-5.51-19.67-5.48-27.09,3.22-.22,.25-.5,.46-.67,.74-5.82,9.19-14.83,11.12-24.48,9.52-7.97-1.32-13.34,.9-17.93,7.37-3.78,5.32-9.1,9.29-14.89,12.35-8.22,4.35-16.36,8.98-24.93,12.53-5.1,2.11-10.96,3.26-16.49,3.3-16.07,.13-31.83-2.07-46.77-8.56-12.82-5.58-24.25-13.43-34.48-22.7-12.48-11.31-19.21-25.75-19.18-42.93,0-3.83-1.01-7.24-1.01-11.07m76.96-43.27c0,.83,.08,1.68-.01,2.5-1.18,10.13,7.45,21.36,18.54,23.26,5.8,.99,10.64,3.55,15.09,7.22,7.13,5.87,15.01,10.32,23.8,13.35,16.36,5.63,31.19,2.82,44.63-7.63,9.48-7.38,14.6-17.21,14.19-29.39-.21-6.14-.89-12.29-1.75-18.37-1.96-13.87-3.66-27.73-1.38-41.73,.88-5.41,1.97-10.8,2.5-16.25,.47-4.78,.9-9.71,.25-14.42-1.27-9.22-7.47-14.51-15.95-17.37-13.27-4.47-25.56-1.44-37.34,5.07-9.89,5.47-16.41,14.11-21.13,23.99-5.8,12.14-14.24,22-24.14,30.84-2.6,2.32-5.27,4.64-7.52,7.29-7.73,9.12-9.73,20.11-9.79,31.65Zm53.28-147.97c-1,0-2.01-.12-2.99,.02-10.91,1.52-20.43,6.35-29.31,12.56-2.43,1.7-4.85,3.57-6.79,5.78-5,5.72-3.28,13.85,3.75,16.01,3.94,1.21,7.05-.67,9.99-2.88,9.51-7.14,18.97-14.35,28.51-21.44,1.28-.96,2.92-1.45,4.42-2.1,.97-.42,2.88-.86,2.85-1.09-.17-1.36-.49-2.93-1.33-3.94-2.34-2.79-5.7-3.05-9.09-2.91Zm131.92,96.6c-.28-1.7-.88-4.28-1.06-6.89-.15-2.13-.34-4.07-2.81-4.57-2.5-.51-4.78-.44-6.85,1.69-3.05,3.12-4.54,6.9-5.45,10.96-1.43,6.41-2.86,12.84-3.87,19.33-.73,4.72-.98,9.54-1.07,14.32-.06,3.11,.66,6.22,.85,9.34,.16,2.61,.04,5.23,2.38,7.08,1.91-1.7,3.85-3.37,5.7-5.14,.45-.43,.64-1.15,.87-1.78,2-5.59,4.27-11.11,5.9-16.81,2.49-8.7,4.81-17.47,5.41-27.54Zm-222.69,12.94c3.74-.01,7.48-2.71,8.35-6.62,2.52-11.32,7.02-21.96,11-32.79,.45-1.24,.88-2.51,1.09-3.8,.44-2.75-.61-4.01-3.24-3.29-3,.82-6.27,1.71-8.63,3.57-9.82,7.75-16.42,17.87-18.79,30.16-1.17,6.09,3.55,12.19,10.22,12.76Zm236.51-124.32c0,2-.13,4.01,.04,5.99,.12,1.46,.57,2.9,.99,4.32,1.04,3.5,4.18,5.5,7.03,4.19,1.42-.65,2.84-1.94,3.58-3.31,1.39-2.59,2.58-5.36,3.34-8.2,1.31-4.91,1.99-10,3.4-14.87,.99-3.43,.52-6.55-.58-9.69-1.34-3.81-2.95-4.79-7.11-4.74-4.06,.05-6.44,1.62-7.61,6.39m-16.72,247.92c-1.78,1.49-3.4,2.39-4.37,3.75-1.58,2.22-1.06,4.74-.06,7.13,4,9.6,10.26,17.35,18.99,23.03,.67,.44,1.75,.25,2.64,.35-.17-.89-.2-1.84-.55-2.66-3.46-8.22-6.97-16.42-10.47-24.62-.45-1.06-.69-2.35-1.44-3.13-1.29-1.35-2.9-2.38-4.75-3.84Zm-17.45-219.18c-.21,4.51,1.38,7.22,4.13,7.95,3.27,.87,5.85-.59,7.43-4.28,.39-.91,.7-1.87,.91-2.84,1.43-6.65,2.79-13.32,4.26-19.96,.39-1.77-.55-2.2-1.83-1.96-1.26,.23-2.64,.67-3.6,1.46-6.43,5.33-9.98,12.31-11.3,19.63Zm26.28,119.02c.14,.02-.3,.23-.16,.25,0,1.49-.11,3,.05,4.48,.08,.7,.69,1.33,1.06,2,.63-.36,1.35-.62,1.86-1.11,.46-.43,.79-1.08,1-1.69,2.67-7.82,5.37-15.62,7.88-23.49,.48-1.52,.57-3.42,.09-4.9-.45-1.37-1.76-3.17-2.96-3.41-1.49-.3-3.5,.48-4.85,1.42-.89,.61-1.26,2.29-1.44,3.55-1.1,7.69-1.5,15.21-2.52,22.92Zm-240.63-44.11c-1.21,0-2.55-.23-3.78,.04-6.91,1.53-16.39,14.99-15.62,22.07,.26,2.35,1.44,4.17,3.8,4.75,2.59,.64,4.02-1,4.98-3.14,3.52-7.83,7.02-15.68,10.62-23.72Zm-9.48,51.43c-6.8,3.67-11.32,14.8-8.99,21.58,.88,2.56,3.36,4.27,5.68,3.92,2.24-.34,3.77-2.11,3.86-5.08,.07-2.3-.47-4.62-.52-6.93-.09-4.44-.03-8.89-.03-13.49Z"/>
          <path class="cls-11" d="M40.37,40.87c1.14,3.4,2.55,6.75,3.34,10.23,.61,2.69,.68,5.57,.56,8.35-.11,2.6-1.78,3.31-3.53,1.52-5.08-5.21-10.28-10.36-14.85-16-3.29-4.06-1.56-9.01,2.9-10.51,2.5-.84,4.52-.05,6.33,1.65l5.24,4.76Z"/>
          <path class="cls-11" d="M143.63,245l-1.1,2.98c-1.12-.51-2.57-.73-3.29-1.57-4.61-5.38-9.06-10.9-13.57-16.37-.21-.26-.47-.48-.66-.74-2.16-3.01-2.22-5.29-.18-7.08,1.93-1.71,5.33-1.46,7.65,.54,6.72,5.83,9.65,13.53,11.16,22.24Z"/>
          <path class="cls-11" d="M66.3,86.37c.43,3.74,.89,7.48,1.25,11.23,.07,.69-.26,1.42-.4,2.14-.73-.15-1.66-.06-2.14-.48-5.76-5.11-9.81-11.52-13.19-18.32-1.43-2.89-.14-5.91,2.4-7.17,2.71-1.35,5.51-.83,7.3,1.94,1.47,2.27,2.33,4.93,3.46,7.42l1.32,3.25Z"/>
          <path class="cls-11" d="M170.15,309.7c.38-2.32,.44-4.76,1.21-6.95,1.9-5.41,3.77-10.89,6.34-16,2.32-4.62,6.63-4.85,9.57-1.22,1.35,1.67,1.26,3.23,.37,5.04-3.07,6.26-6.65,12.1-12.4,16.33-1.31,.96-2.44,2.16-3.65,3.25l-1.44-.46Z"/>
          <path class="cls-11" d="M418.48,91.09c-.93,9.05-3.27,17.58-9.08,25.27-.51-.77-.97-1.15-.96-1.51,.26-9.22,.5-18.44,.93-27.65,.08-1.68,.47-3.8,1.55-4.89,2.12-2.14,4.83-1.47,7.29-.08l.28,8.86Z"/>
          <path class="cls-6" d="M271.47,214.76c.33,1.76,.68,3.51,.97,5.28,.34,2.1,.74,4.19,.88,6.31,.06,.84-.52,1.72-.82,2.58-.69-.37-1.56-.59-2.04-1.15-3.88-4.49-7.92-8.88-11.36-13.69-.95-1.33-.73-4.32,.12-5.94,1.07-2.03,3.46-2.25,5.62-.8,.53,.36,1.2,.51,1.81,.76,1.61,2.22,3.21,4.44,4.82,6.66Z"/>
          <path class="cls-18" d="M337.38,293.1c-.64,2.37-1.18,4.77-1.96,7.09-.69,2.02-1.42,4.11-2.59,5.87-.81,1.22-2.39,1.92-3.63,2.86-.08-1.33-.21-2.65-.21-3.98,0-.81,.29-1.62,.33-2.44,.35-6.6,.71-13.21,1-19.81,.2-4.63,1.2-5.24,5.96-3.5,.37,4.64,.74,9.28,1.11,13.92Z"/>
          <path class="cls-4" d="M264.49,135.85v12.64c-1.37-.66-2.15-.78-2.45-1.22-3.03-4.52-6.13-9.01-8.86-13.72-.83-1.43-.95-3.56-.68-5.25,.42-2.58,4.34-3.79,6.34-2.09,1.35,1.15,2.44,2.61,3.65,3.93l2,5.7Z"/>
          <path class="cls-18" d="M428.58,50.1c-.07,.82,.13,1.83-.27,2.44-.85,1.29-1.83,2.93-3.11,3.35-.85,.28-2.81-1.03-3.4-2.1-1.41-2.57-2.66-5.35-3.34-8.19-.93-3.9,1.22-7.33,4.58-8.23,2.91-.78,5.74,1.09,7.41,4.9-.62,2.62-1.25,5.23-1.87,7.85Z"/>
          <path class="cls-9" d="M271.47,214.76c-1.61-2.22-3.21-4.44-4.82-6.66-.93-1.55-2.22-3-2.68-4.67-.38-1.36-.27-3.4,.53-4.42,1.26-1.6,3.34-1.2,4.9,.04,1.01,.81,1.84,1.88,2.63,2.92,4.33,5.7,6.32,12.23,6.68,19.3,.03,.53-.51,1.1-.78,1.64-.5-.29-1.17-.45-1.47-.88-1.71-2.39-3.33-4.85-4.99-7.28Z"/>
          <path class="cls-9" d="M40.37,40.87l-5.24-4.76c.97-4.79,3.11-6.02,7.19-3.72,4.06,2.28,6.91,5.75,8.21,10.27,.77,2.69,1.3,5.46,1.76,8.22,.1,.63-.56,1.38-.87,2.08-.64-.42-1.47-.71-1.9-1.29-2.03-2.8-3.85-5.76-5.95-8.51-.76-.99-2.11-1.53-3.19-2.28Z"/>
          <path class="cls-15" d="M428.58,50.1l1.87-7.85c5.65-.47,7.27,1.19,6.44,6.7-.76,5.08-1.73,10.12-4.96,14.32-.59,.77-1.69,1.13-2.56,1.69-.1-.86-.25-1.71-.29-2.58-.18-4.09-.34-8.19-.5-12.28Z"/>
          <path class="cls-9" d="M66.3,86.37l-1.32-3.25c.25-2.25,.79-4.38,3.47-4.78,2.52-.38,4.24,1.05,5.04,3.21,1.73,4.63,3.34,9.31,4.71,14.06,.48,1.66-1.12,1.97-2.22,1.34-1.11-.63-1.98-1.73-2.86-2.71-2.3-2.59-4.55-5.24-6.82-7.86Z"/>
          <path class="cls-22" d="M188.34,115.33c2,1.03,4.09,1.46,5.07,2.73,2.81,3.64,5.2,7.61,7.66,11.51,.23,.37,0,1.37-.36,1.68-.33,.29-1.27,.27-1.69,0-4.44-2.92-8.91-5.81-13.15-9-.91-.69-1.55-2.87-1.14-3.88,.49-1.23,2.24-1.95,3.62-3.03Z"/>
          <path class="cls-1" d="M264.49,135.85l-2-5.7c-.57-1.71-1.11-3.43-1.71-5.13-.76-2.14-.54-3.94,1.71-4.99,2.17-1.02,3.84-.21,5.15,1.59,2.5,3.44,2.22,11.34-.4,14.6-1.26,1.56-1.9,.23-2.75-.36Z"/>
          <path class="cls-9" d="M103.19,160.73c-4.44-3.03-7.28-6.23-9.48-9.94-1.44-2.44-.88-5.18,.92-6.25,2.07-1.24,4.86-.31,6.21,2.38,2.05,4.06,3,8.38,2.35,13.82Z"/>
          <path class="cls-25" d="M418.48,91.09l-.28-8.86c.36-2.29,.65-4.6,1.11-6.88,.41-1.98,1.84-2.71,3.74-2.32,1.79,.37,2.66,1.85,2.15,3.36-1.62,4.82-3.51,9.56-5.38,14.29-.11,.27-.89,.27-1.35,.4Z"/>
          <path class="cls-16" d="M337.38,293.1c-.37-4.64-.74-9.28-1.11-13.92,.94-1.53,1.7-3.55,4.08-2.57,2.06,.84,2.38,2.84,1.92,4.64-1.06,4.16-.77,8.93-4.89,11.84Z"/>
          <g>
            <path class="cls-28" d="M908.19,.04c.87,.15,1.05,0,1.57,.17,22.88,7.32,36.42,22.94,41,46.37,2.3,11.79,3.01,23.75,2.94,35.76-.07,12.16-.2,24.27-2.55,36.29-1.37,6.99-.25,13.92,1.84,20.7,2.54,8.26,5.24,16.49,7.42,24.85,2.92,11.2,1.78,22.39-.44,33.63-3.13,15.82-6.83,31.54-8.2,47.68-.75,8.81-.39,17.25,3.81,25.25,1.15,2.2,2.18,4.53,2.77,6.93,.71,2.89,2.38,3.42,5.06,3.42,9.62,.01,18.67-2.64,27.76-5.36,7.61-2.28,15.35-4.17,23.1-5.96,2.72-.63,5.62-.66,8.43-.6,5.81,.12,11.62,.56,17.44,.7,4.35,.11,8.47,1.36,11.51,4.18,6.63,6.12,14.68,7.32,23.07,7.87,13.45,.87,26.94,.55,40.37-.46s26.59,.06,39.42,4.63c17.34,6.18,26.92,18.76,30.65,36.27,1.17,5.46,.6,10.93-1.2,16.25-3.12,9.23-8.18,17.1-16.1,22.92-11.47,8.43-23.85,14.51-38.53,14.44-.66,0-1.32,.18-1.97,.27-8.67,0-17.34-.01-26.02-.02-1.31-.26-2.61-.71-3.92-.74-8.21-.2-15.54-2.94-22.62-6.96-6.62-3.75-13.82-4.29-21.27-2.44-9.51,2.36-19.02,4.75-28.63,6.62-9.15,1.78-18.21,1.23-26.77-3.12-2.66-1.35-5.56-2.2-8.29-3.43-12.23-5.51-24.77-5.88-37.52-2.31-11.19,3.14-22.34,6.44-33.51,9.67-4.22,1.22-8.46,1.5-12.83,.79-2.08-.34-4.29,.08-6.36-.31-3.07-.58-6.42-.96-9.01-2.5-7.7-4.57-15.28-9.42-22.54-14.66-4.77-3.44-8.06-8.49-10.41-13.85-10.48-23.96-14.98-48.81-10.24-74.9,.51-2.78,1.36-5.48,2.34-8.13,3.85-10.4,4.19-21.27,4.02-32.27-.11-7.12-.97-14.2-2.25-21.21-2.49-13.71-.89-27.17,4.46-39.94,6.8-16.23,7.43-32.85,4.46-49.94-3.22-18.53-5.46-37.19-5.38-56.05,.05-12,2.87-23.25,8.2-34.1,6.88-13.99,18.44-21.34,32.81-25.38,1.48-.42,2.8-.86,4.64-1.08,2.67,0,4.78,.04,7.45,.04Zm36.05,83.51c.31-9.49-1.34-19.1-2.74-28.79-2.34-16.18-9.41-28.93-23.06-38.34-8.31-5.73-16.6-6.96-25.7-3.14-5.94,2.49-12.2,4.59-16.1,10.35-9.25,13.66-11.9,29.01-11.06,45.07,.5,9.53,1.67,19.03,2.7,28.53,1.04,9.6,2.03,19.22,3.47,28.77,1.24,8.17,.86,16.26-1.06,24.14-2.08,8.5-5.25,16.73-7.88,25.1-3.34,10.6-4.04,21.3-1.89,32.31,1.27,6.47,1.77,13.11,2.21,19.7,.23,3.44-.66,6.93-.63,10.4,.07,8.9-1.45,17.53-4.43,25.83-3.24,9.03-3.94,18.42-4.59,27.82-.58,8.35,1.29,16.52,3.1,24.55,2.73,12.14,7.5,23.58,17.09,31.97,5.07,4.44,11.19,7.68,16.88,11.39,2.08,1.36,4.28,2.53,6.43,3.78,2.46-2.28,4.94,.21,7.35-.03,6.08-.6,12.23-1.08,18.15-2.46,11.42-2.66,22.63-6.29,34.08-8.75,5.9-1.27,12.21-1.51,18.25-1.08,9.32,.66,18.01,4.18,26.51,7.96,6.02,2.68,12.26,4.56,18.82,3.32,7.46-1.41,14.79-3.49,22.19-5.21,5.3-1.23,10.58-3.06,15.95-3.39,9.21-.56,17.6,2.81,25.3,7.68,3.45,2.18,7.12,3.53,11.08,4.09,3.6,.51,7.3,.51,10.86,1.19,10.68,2.06,21.16,.01,31.58-1.66,7.87-1.26,14.22-6.14,20.73-10.45,6.04-3.99,10.36-9.41,12.92-16.06,1.63-4.25,3.09-8.55,1.98-13.49-2.7-12.08-9.72-20.47-20.51-26.04-9.15-4.72-18.96-7-29.16-7.26-6.12-.16-12.26,.55-18.39,.72-12.96,.36-25.87-.3-38.77-1.75-6.3-.71-11.9-2.53-16.82-6.63-3.95-3.29-8.53-4.73-13.84-4.55-11.99,.4-23.56,3.16-35.2,5.63-10.98,2.33-21.66,6.04-33,6.72-4.32,.26-8.25-.41-11.67-2.97-9.64-7.21-14.51-16.96-15.08-28.94-.59-12.36,1.56-24.49,3.36-36.6,1.45-9.78,4.17-19.37,6.27-29.06,1.73-8.02,2.53-16.1,.47-24.16-1.96-7.69-3.87-15.41-6.36-22.93-3.62-10.95-4.83-22.04-2.5-33.3,2.03-9.81,2.71-19.68,2.68-29.99Z"/>
            <path class="cls-20" d="M944.24,83.55c.03,10.31-.65,20.17-2.68,29.99-2.33,11.26-1.11,22.35,2.5,33.3,2.49,7.52,4.4,15.24,6.36,22.93,2.06,8.06,1.26,16.15-.47,24.16-2.1,9.69-4.81,19.28-6.27,29.06-1.8,12.11-3.95,24.24-3.36,36.6,.57,11.98,5.44,21.73,15.08,28.94,3.42,2.56,7.36,3.23,11.67,2.97,11.34-.68,22.02-4.39,33-6.72,11.64-2.47,23.21-5.23,35.2-5.63,5.31-.18,9.89,1.26,13.84,4.55,4.92,4.09,10.51,5.92,16.82,6.63,12.9,1.45,25.81,2.1,38.77,1.75,6.14-.17,12.27-.88,18.39-.72,10.2,.27,20.01,2.54,29.16,7.26,10.79,5.57,17.81,13.97,20.51,26.04,1.11,4.95-.35,9.24-1.98,13.49-2.56,6.65-6.88,12.07-12.92,16.06-6.51,4.31-12.87,9.19-20.73,10.45-10.42,1.67-20.9,3.71-31.58,1.66-3.56-.69-7.26-.68-10.86-1.19-3.96-.57-7.63-1.91-11.08-4.09-7.7-4.87-16.09-8.24-25.3-7.68-5.37,.33-10.65,2.15-15.95,3.39-7.4,1.72-14.73,3.8-22.19,5.21-6.56,1.24-12.8-.65-18.82-3.32-8.5-3.77-17.18-7.29-26.51-7.96-6.04-.43-12.35-.18-18.25,1.08-11.46,2.46-22.66,6.09-34.08,8.75-5.92,1.38-12.08,1.86-18.15,2.46-2.41,.24-4.88-2.26-7.35,.03-2.15-1.25-4.35-2.42-6.43-3.78-5.69-3.71-11.81-6.95-16.88-11.39-9.59-8.39-14.36-19.83-17.09-31.97-1.81-8.04-3.68-16.2-3.1-24.55,.65-9.4,1.35-18.79,4.59-27.82,2.98-8.31,4.5-16.94,4.43-25.83-.03-3.47,.86-6.96,.63-10.4-.44-6.59-.94-13.24-2.21-19.7-2.15-11-1.45-21.71,1.89-32.31,2.63-8.37,5.8-16.6,7.88-25.1,1.97-8.05,2.31-16.33,.97-24.69-1.44-8.97-2.3-18.05-3.27-27.09-1.05-9.87-2.3-19.75-2.82-29.65-.84-16.06,1.81-31.4,11.06-45.07,3.9-5.76,10.15-7.86,16.1-10.35,9.1-3.82,17.39-2.58,25.7,3.14,13.64,9.41,20.71,22.16,23.06,38.34,1.4,9.7,3.05,19.3,2.74,28.79Zm-12.4-30.12c-.89-4.84-1.31-9.83-2.79-14.48-1.55-4.87-4.26-9.34-8.79-12.27-4.18-2.71-10.02-2.09-13.15,1.2-2.89,3.03-2.17,6.4-.96,9.73,1.34,3.72,2.76,7.43,4.47,10.99,3.36,7,6.47,14.19,11.75,20.06,2.65,2.95,3.29,2.89,5.52-.49,2.91-4.43,3.6-9.46,3.95-14.74Zm199.42,269.4c5.12-.57,8-2.82,9.73-7.94,1.22-3.63-.59-9.05-4.12-11.43-10.42-7.01-21.33-6.73-32.42-1.8-2.36,1.05-3.81,3.09-4.09,5.75-.4,3.92,2.83,7.45,7.26,7.73,3.15,.19,6.33-.16,9.47,.11,3.31,.28,6.74,.14,8.63,4.22,.75,1.63,3.63,2.27,5.55,3.36Zm-192.58-153.67c-.44-3.75-1.05-7.49-1.28-11.25-.29-4.56-1.74-8.69-4.01-12.57-1.27-2.18-5.58-4.4-7.45-3.94-2.85,.7-5.35,3.66-5.56,6.92-.15,2.48-.32,5.04,.09,7.46,1.85,10.81,3.93,21.58,5.86,32.37,.37,2.09,1.49,3.01,3.37,2.27,1.6-.63,3.41-1.51,4.37-2.82,3.97-5.47,4.43-11.88,4.61-18.42Zm88.52,123.52c-4.34,.72-8.11,1.09-11.75,2.01-3.48,.88-6.94,2.05-10.17,3.59-3.24,1.54-4.86,5.92-3.85,8.89,.78,2.3,4.65,3.62,8.26,2.8,.32-.07,.6-.29,.91-.41,9.06-3.39,18.14-6.74,27.17-10.22,.94-.36,1.59-1.44,2.38-2.19-.8-.74-1.49-1.9-2.42-2.15-3.61-.96-7.3-1.63-10.53-2.32Zm-160.46-5.1c-.51,.38-.94,.53-1.01,.78-2.47,9.04-2.68,18.22-1.23,27.42,.27,1.71,1.18,3.55,2.36,4.81,.84,.9,2.82,1.53,3.92,1.17,1.11-.36,2.12-1.99,2.52-3.27,.42-1.36,.33-3.01,.03-4.44-1.71-8.21-3.52-16.39-5.37-24.57-.15-.68-.8-1.26-1.22-1.89Zm12.44-236.39c.21-2.96,.43-5.91,.63-8.87,.06-.92,.06-1.85,.09-2.77-1.03,.33-2.27,.41-3.05,1.05-.98,.8-1.76,1.98-2.33,3.14-2.54,5.16-2.79,10.8-3.08,16.38-.07,1.35,.68,2.95,1.53,4.07,.7,.92,2.09,1.72,3.21,1.77,.62,.03,1.73-1.51,1.91-2.48m-4.29,119.13l-1.25,.13c-2.71,5.9-3.53,12.16-3.27,18.62,.08,2.1-.4,4.56,2.79,4.84,1.85,.16,3.25-2.22,3.17-5.23,0-.16-.03-.33-.04-.49-.28-4.59-.54-9.18-.85-13.77-.09-1.37-.35-2.73-.54-4.09Zm13.06-134.12c-.23,2.08,.68,4.02,2.86,4.18,1.16,.08,2.67-1.41,3.62-2.53,.67-.8,.74-2.15,.97-3.27,.53-2.57,1.05-5.15,1.47-7.74,.14-.88,0-1.8-.01-2.71-.91,.2-2.04,.12-2.69,.65-3.58,2.89-6.51,6.22-6.22,11.42Zm251.59,308.71l.07,.36c2.42-.45,4.91-.68,7.25-1.4,3.11-.95,4.96-3.44,4.34-5.22-.67-1.91-3.5-2.53-6.62-1.25-2.45,1-4.85,2.16-7.2,3.4-1.33,.7-2.51,1.68-3.76,2.54,1.47,.52,2.93,1.08,4.42,1.54,.46,.14,.99,.02,1.49,.02Z"/>
            <path class="cls-10" d="M931.84,53.43c-.35,5.28-1.04,10.31-3.95,14.74-2.22,3.38-2.86,3.44-5.52,.49-5.28-5.87-8.39-13.06-11.75-20.06-1.71-3.56-3.13-7.27-4.47-10.99-1.2-3.33-1.92-6.7,.96-9.73,3.14-3.29,8.98-3.9,13.15-1.2,4.52,2.93,7.23,7.39,8.79,12.27,1.48,4.65,1.9,9.64,2.79,14.48Z"/>
            <path class="cls-10" d="M1131.26,322.83c-1.91-1.09-4.79-1.73-5.55-3.36-1.89-4.09-5.32-3.94-8.63-4.22-3.14-.27-6.32,.09-9.47-.11-4.43-.27-7.66-3.81-7.26-7.73,.27-2.66,1.72-4.7,4.09-5.75,11.08-4.92,22-5.21,32.42,1.8,3.53,2.38,5.34,7.79,4.12,11.43-1.73,5.12-4.6,7.37-9.73,7.94Z"/>
            <path class="cls-3" d="M938.68,169.16c-.19,6.54-.64,12.95-4.61,18.42-.96,1.32-2.77,2.19-4.37,2.82-1.88,.75-3-.17-3.37-2.27-1.92-10.8-4.01-21.56-5.86-32.37-.41-2.42-.24-4.98-.09-7.46,.2-3.26,2.71-6.22,5.56-6.92,1.88-.46,6.18,1.76,7.45,3.94,2.27,3.89,3.72,8.01,4.01,12.57,.24,3.76,.84,7.5,1.28,11.25Z"/>
            <path class="cls-3" d="M1027.21,292.68c3.23,.69,6.92,1.36,10.53,2.32,.93,.25,1.62,1.41,2.42,2.15-.79,.75-1.44,1.83-2.38,2.19-9.03,3.47-18.11,6.83-27.17,10.22-.31,.12-.59,.33-.91,.41-3.62,.82-7.48-.5-8.26-2.8-1.01-2.97,.61-7.34,3.85-8.89,3.23-1.54,6.7-2.71,10.17-3.59,3.63-.92,7.41-1.3,11.75-2.01Z"/>
            <path class="cls-14" d="M866.75,287.58c.42,.64,1.07,1.21,1.22,1.89,1.85,8.18,3.66,16.36,5.37,24.57,.3,1.43,.39,3.08-.03,4.44-.4,1.28-1.41,2.91-2.52,3.27-1.11,.36-3.08-.27-3.92-1.17-1.18-1.26-2.09-3.1-2.36-4.81-1.45-9.2-1.24-18.37,1.23-27.42,.07-.25,.5-.4,1.01-.78Z"/>
            <path class="cls-26" d="M878.09,63.47c-.17,.96-1.28,2.5-1.91,2.48-1.12-.05-2.51-.84-3.21-1.77-.85-1.12-1.6-2.72-1.53-4.07,.29-5.58,.54-11.22,3.08-16.38,.57-1.16,1.35-2.33,2.33-3.14,.78-.64,2.02-.72,3.05-1.05-.03,.92-.03,1.85-.09,2.77-.2,2.96-.42,5.91-.63,8.87"/>
            <path class="cls-14" d="M873.8,182.6c.18,1.36,.44,2.72,.54,4.09,.32,4.59,.57,9.18,.85,13.77,.01,.16,.03,.33,.04,.49,.09,3.01-1.32,5.39-3.17,5.23-3.19-.27-2.71-2.74-2.79-4.84-.25-6.46,.56-12.72,3.27-18.62l1.25-.13Z"/>
            <path class="cls-12" d="M886.86,48.48c-.29-5.2,2.64-8.53,6.22-11.42,.65-.52,1.78-.45,2.69-.65,.01,.9,.16,1.83,.01,2.71-.42,2.59-.94,5.17-1.47,7.74-.23,1.12-.3,2.47-.97,3.27-.95,1.12-2.45,2.61-3.62,2.53-2.17-.16-3.08-2.1-2.86-4.18Z"/>
            <path class="cls-23" d="M1138.46,357.19c-.5,0-1.04,.12-1.49-.02-1.49-.46-2.95-1.02-4.42-1.54,1.25-.86,2.43-1.84,3.76-2.54,2.35-1.23,4.75-2.39,7.2-3.4,3.12-1.28,5.95-.66,6.62,1.25,.62,1.78-1.23,4.27-4.34,5.22-2.34,.72-4.83,.95-7.25,1.4l-.07-.36Z"/>
          </g>
          <g>
            <path class="cls-21" d="M1698.03,116.37c-1.15,7.83-5.69,13.46-8.47,20.21-5.93,14.45-27.32,27.66-49.13,19.22-4.44-1.72-8.2-5.51-11.9-8.78-3.23-2.85-6-6.22-8.84-9.49-7.17-8.27-8.94-17.93-7.36-28.51,.76-5.1,1.29-10.24,1.73-15.38,.98-11.31,7.64-19.41,18.62-22.72,21.39-6.44,39.65-.31,55.76,13.99,4.88,4.33,8.19,10.43,9.06,16.46m-48.2-23.31c-4.18,.68-8.79,1.29-13.33,2.21-5.32,1.08-8.95,4.37-10.62,9.49-.92,2.81-1.37,5.79-1.79,8.73-.64,4.43-.85,8.93-1.63,13.33-.91,5.11-.75,10.06,2.11,14.42,4,6.1,8.3,12,12.67,17.84,.76,1.02,2.42,1.67,3.76,1.9,3.76,.63,7.65,.61,11.35,1.47,10.84,2.51,24.21-5.8,28.39-15.84,1.72-4.14,3.25-8.39,5.33-12.34,4.78-9.09,.1-22.84-6.88-28.61-6.9-5.7-14.92-9.24-23.48-11.62-1.74-.48-3.58-.62-5.87-.99Z"/>
            <path class="cls-29" d="M1649.33,78.07c2.29,.38,4.13,.51,5.87,.99,8.56,2.38,16.58,5.92,23.48,11.62,6.98,5.77,11.66,19.52,6.88,28.61-2.08,3.95-3.6,8.2-5.33,12.34-4.18,10.04-17.55,18.34-28.39,15.84-3.7-.85-7.59-.83-11.35-1.47-1.34-.23-3-.88-3.76-1.9-4.37-5.84-8.67-11.75-12.67-17.84-2.87-4.37-3.03-9.31-2.11-14.42,.79-4.4,1-8.9,1.63-13.33,.42-2.94,.88-5.93,1.79-8.73,1.67-5.12,5.31-8.41,10.62-9.49,4.55-.92,9.16-1.53,13.33-2.21Zm9.08,17.06c-2.07-2.87-3.87-6.01-6.28-8.55-2.96-3.11-7.18-3.28-10.42-1.08-3,2.03-4.77,6.7-2.94,10.2,3.32,6.36,8.21,11.53,14.11,15.67,.14,.1,.28,.19,.43,.25,4.04,1.68,6.74-.12,7.09-4.49,.34-4.2-.5-8.15-1.99-12.03,3.51,2.72,6.99,5.48,10.53,8.16,1.44,1.09,2.2,.02,2.33-1.19,.4-3.72-.2-7.25-2.52-10.34-2.13-2.83-4.77-3.98-7.19-3.09-3.12,1.15-3.48,3.65-3.15,6.48Zm4.27,36.86c1.34-5.59,.62-9.95-.65-14.17-.61-2.04-2.52-3.15-4.8-2.5-1.86,.53-3.03,1.59-2.96,3.91,.07,2.43,.44,4.64,2.11,6.43,1.8,1.92,3.72,3.74,6.3,6.33Zm9.72-13.63c-.04-1.02-1.15-2.22-3.38-2.23-2.14,0-4.12,1.95-3.42,3.9,.67,1.87,2.07,3.64,3.57,4.98,.72,.64,3.33-3.45,3.22-6.66Z"/>
            <path class="cls-2" d="M1658.4,95.12c1.49,3.87,2.33,7.82,1.99,12.03-.35,4.37-3.05,6.16-7.09,4.49-.15-.06-.3-.15-.43-.25-5.9-4.14-10.79-9.31-14.11-15.67-1.83-3.5-.06-8.17,2.94-10.2,3.24-2.19,7.46-2.03,10.42,1.08,2.42,2.54,4.21,5.67,6.28,8.55v-.02Z"/>
            <path class="cls-24" d="M1658.41,95.13c-1.14-2.66,.03-5.34,3.15-6.48,2.42-.89,5.06,.26,7.19,3.09,2.32,3.08,2.91,6.62,2.52,10.34-.13,1.22-.89,2.28-2.33,1.19-3.54-2.68-7.03-5.43-10.53-8.16v.02Z"/>
            <path class="cls-2" d="M1662.69,131.99c-2.59-2.59-4.5-4.41-6.3-6.33-1.68-1.79-2.04-4-2.11-6.43-.07-2.32,1.1-3.38,2.96-3.91,2.29-.65,4.19,.46,4.8,2.5,1.27,4.22,1.99,8.58,.65,14.17Z"/>
            <path class="cls-27" d="M1672.4,118.36c.1,3.2-2.51,7.3-3.22,6.66-1.5-1.34-2.89-3.11-3.57-4.98-.7-1.95,1.27-3.91,3.42-3.9,2.22,0,3.34,1.21,3.38,2.23Z"/>
          </g>
          <path class="cls-28" d="M538.36,231.22c.06-11.54,2.06-22.53,9.79-31.65,2.25-2.65,4.91-4.96,7.52-7.29,9.9-8.84,18.34-18.71,24.14-30.84,4.72-9.88,11.24-18.52,21.13-23.99,11.78-6.51,24.07-9.54,37.34-5.07,8.48,2.86,14.68,8.15,15.95,17.37,.65,4.71,.21,9.64-.25,14.42-.53,5.45-1.62,10.84-2.5,16.25-2.28,14-.59,27.86,1.38,41.73,.86,6.09,1.55,12.23,1.75,18.37,.41,12.19-4.7,22.01-14.19,29.39-13.44,10.45-28.28,13.26-44.63,7.63-8.79-3.03-16.68-7.48-23.8-13.35-4.45-3.66-9.29-6.23-15.09-7.22-11.09-1.9-19.72-13.13-18.54-23.26,.1-.82,.01-1.66,.01-2.5Zm6.54-2.37c.42,1.68,.34,4.6,1.74,6.26,4.51,5.36,9.64,10.21,16.45,12.63,6.67,2.37,12.57,5.99,18.11,10.33,5.99,4.69,12.88,7.5,20.16,9.52,12.22,3.4,23.13,.57,32.71-7.25,7.11-5.8,10.65-13.57,9.96-22.85-.46-6.13-1.14-12.28-2.2-18.33-2.84-16.22-3.46-32.36,.22-48.57,1.21-5.32,1.74-10.83,2.08-16.29,.4-6.37-2.76-10.68-8.71-13.12-4.14-1.7-8.35-2.12-12.72-1.49-14.51,2.09-25.42,9.61-32.35,22.42-8.19,15.17-18.92,28.05-32.4,38.79-8.62,6.86-11.78,16.56-13.05,27.93Z"/>
          <path class="cls-8" d="M591.64,83.25c3.39-.14,6.75,.12,9.09,2.91,.85,1.01,1.16,2.58,1.33,3.94,.03,.24-1.87,.67-2.85,1.09-1.5,.65-3.13,1.14-4.42,2.1-9.54,7.1-19,14.3-28.51,21.44-2.95,2.21-6.05,4.09-9.99,2.88-7.03-2.16-8.74-10.29-3.75-16.01,1.94-2.22,4.36-4.08,6.79-5.78,8.88-6.21,18.4-11.04,29.31-12.56,.98-.14,2-.02,2.99-.02Z"/>
          <path class="cls-8" d="M723.56,179.85c-.6,10.07-2.92,18.84-5.41,27.54-1.63,5.7-3.9,11.21-5.9,16.81-.22,.62-.42,1.35-.87,1.78-1.85,1.77-3.79,3.43-5.7,5.14-2.34-1.85-2.22-4.47-2.38-7.08-.19-3.12-.91-6.23-.85-9.34,.09-4.78,.34-9.6,1.07-14.32,1.01-6.49,2.43-12.91,3.87-19.33,.91-4.06,2.4-7.84,5.45-10.96,2.07-2.12,4.35-2.2,6.85-1.69,2.47,.51,2.66,2.44,2.81,4.57,.19,2.61,.79,5.19,1.06,6.89Z"/>
          <path class="cls-8" d="M500.87,192.79c-6.67-.57-11.39-6.67-10.22-12.76,2.37-12.29,8.96-22.41,18.79-30.16,2.36-1.86,5.63-2.76,8.63-3.57,2.62-.72,3.68,.55,3.24,3.29-.21,1.29-.63,2.57-1.09,3.8-3.97,10.83-8.47,21.47-11,32.79-.87,3.9-4.62,6.6-8.35,6.62Z"/>
          <path class="cls-8" d="M740.46,48.53c1.17-4.77,3.55-6.34,7.61-6.39,4.16-.05,5.77,.93,7.11,4.74,1.11,3.14,1.57,6.26,.58,9.69-1.41,4.88-2.09,9.96-3.4,14.87-.76,2.83-1.94,5.61-3.34,8.2-.74,1.37-2.16,2.66-3.58,3.31-2.85,1.31-5.99-.69-7.03-4.19-.42-1.42-.86-2.86-.99-4.32-.17-1.98-.04-3.99-.04-5.99"/>
          <path class="cls-14" d="M723.74,296.45c2.39,1.1,3.46,2.49,4.75,3.84,.75,.79,.98,2.07,1.44,3.13,3.5,8.2,7.01,16.4,10.47,24.62,.34,.82,.37,1.77,.55,2.66-.89-.1-1.97,.09-2.64-.35-8.73-5.68-14.99-13.43-18.99-23.03-1-2.39-1.52-4.91,.06-7.13,.97-1.36,2.13-2.64,4.37-3.75Z"/>
          <path class="cls-14" d="M706.29,77.28c1.32-7.33,4.87-14.31,11.3-19.63,.96-.79,2.34-1.23,3.6-1.46,1.28-.24,2.22,.19,1.83,1.96-1.47,6.64-2.83,13.31-4.26,19.96-.21,.97-.52,1.93-.91,2.84-1.58,3.68-4.16,5.15-7.43,4.28-2.75-.73-4.34-3.45-4.13-7.95Z"/>
          <path class="cls-14" d="M735.09,173.38c.18-1.26,.56-2.93,1.44-3.55,1.35-.93,3.36-1.72,4.85-1.42,1.21,.24,2.51,2.04,2.96,3.41,.48,1.48,.39,3.39-.09,4.9-2.51,7.87-5.21,15.68-7.88,23.49-.21,.61-.54,1.26-1,1.69-.51,.49-1.23,.75-1.86,1.11-.37-.66-.99-1.3-1.06-2-.17-1.48-.05-2.98-.05-4.48"/>
          <path class="cls-7" d="M491.94,152.18c-3.6,8.05-7.1,15.89-10.62,23.72-.96,2.14-2.39,3.78-4.98,3.14-2.35-.58-3.54-2.4-3.8-4.75-.77-7.09,8.71-20.55,15.62-22.07,1.23-.27,2.57-.04,3.78-.04Z"/>
          <path class="cls-7" d="M482.46,203.61c0,4.6-.07,9.05,.03,13.49,.05,2.31,.59,4.63,.52,6.93-.09,2.96-1.62,4.74-3.86,5.08-2.32,.35-4.8-1.37-5.68-3.92-2.32-6.78,2.19-17.91,8.99-21.58Z"/>
        </g>
        <g>
          <path class="cls-28" d="M1289.43,.51c.87,.15,1.05,0,1.57,.17,22.88,7.32,36.42,22.94,41,46.37,2.3,11.79,3.01,23.75,2.94,35.76-.07,12.16-.2,24.27-2.55,36.29-1.37,6.99-.25,13.92,1.84,20.7,2.54,8.26,5.24,16.49,7.42,24.85,2.92,11.2,1.78,22.39-.44,33.63-3.13,15.82-6.83,31.54-8.2,47.68-.75,8.81-.39,17.25,3.81,25.25,1.15,2.2,2.18,4.53,2.77,6.93,.71,2.89,2.38,3.42,5.06,3.42,9.62,.01,18.67-2.64,27.76-5.36,7.61-2.28,15.35-4.17,23.1-5.96,2.72-.63,5.62-.66,8.43-.6,5.81,.12,11.62,.56,17.44,.7,4.35,.11,8.47,1.36,11.51,4.18,6.63,6.12,14.68,7.32,23.07,7.87,13.49,.88,26.96,.54,40.43-.46,13.4-1,26.55,.07,39.36,4.63,17.34,6.18,26.92,18.76,30.65,36.27,1.17,5.46,.6,10.93-1.2,16.25-3.12,9.23-8.18,17.1-16.1,22.92-11.47,8.43-23.85,14.51-38.53,14.44-.66,0-1.32,.18-1.97,.27-8.67,0-17.34-.01-26.02-.02-1.31-.26-2.61-.71-3.92-.74-8.21-.2-15.54-2.94-22.62-6.96-6.62-3.75-13.82-4.29-21.27-2.44-9.51,2.36-19.02,4.75-28.63,6.62-9.15,1.78-18.21,1.23-26.77-3.12-2.66-1.35-5.56-2.2-8.29-3.43-12.23-5.51-24.77-5.88-37.52-2.31-11.19,3.14-22.34,6.44-33.51,9.67-4.22,1.22-8.46,1.5-12.83,.79-2.08-.34-4.29,.08-6.36-.31-3.07-.58-6.42-.96-9.01-2.5-7.7-4.57-15.28-9.42-22.54-14.66-4.77-3.44-8.06-8.49-10.41-13.85-10.41-23.82-14.93-48.51-10.32-74.43,.49-2.76,1.25-5.52,2.25-8.14,3.5-9.19,4.22-18.76,4.23-28.45,.01-9.01-1.06-17.89-2.51-26.79-2.16-13.26-.49-26.27,4.68-38.63,6.8-16.23,7.43-32.85,4.46-49.94-3.22-18.53-5.46-37.19-5.38-56.05,.05-12,2.87-23.25,8.2-34.1,6.88-13.99,18.44-21.34,32.81-25.38,1.48-.42,2.8-.86,4.64-1.08,2.67,0,4.78,.04,7.45,.04Zm36.05,83.51c.31-9.49-1.34-19.1-2.74-28.79-2.34-16.18-9.41-28.93-23.06-38.34-8.31-5.73-16.6-6.96-25.7-3.14-5.94,2.49-12.2,4.59-16.1,10.35-9.25,13.66-11.9,29.01-11.06,45.07,.52,9.91,1.76,19.78,2.82,29.65,.97,9.04,1.83,18.12,3.27,27.09,1.34,8.36,.99,16.64-.97,24.69-2.08,8.5-5.25,16.73-7.88,25.1-3.34,10.6-4.04,21.3-1.89,32.31,1.27,6.47,1.77,13.11,2.21,19.7,.23,3.44-.66,6.93-.63,10.4,.07,8.9-1.45,17.53-4.43,25.83-3.24,9.03-3.94,18.42-4.59,27.82-.58,8.35,1.29,16.52,3.1,24.55,2.73,12.14,7.5,23.58,17.09,31.97,5.07,4.44,11.19,7.68,16.88,11.39,2.08,1.36,4.28,2.53,6.43,3.78,2.46-2.28,4.94,.21,7.35-.03,6.08-.6,12.23-1.08,18.15-2.46,11.42-2.66,22.63-6.29,34.08-8.75,5.9-1.27,12.21-1.51,18.25-1.08,9.32,.66,18.01,4.18,26.51,7.96,6.02,2.68,12.26,4.56,18.82,3.32,7.46-1.41,14.79-3.49,22.19-5.21,5.3-1.23,10.58-3.06,15.95-3.39,9.21-.56,17.6,2.81,25.3,7.68,3.45,2.18,7.12,3.53,11.08,4.09,3.6,.51,7.3,.51,10.86,1.19,10.68,2.06,21.16,.01,31.58-1.66,7.87-1.26,14.22-6.14,20.73-10.45,6.04-3.99,10.36-9.41,12.92-16.06,1.63-4.25,3.09-8.55,1.98-13.49-2.7-12.08-9.72-20.47-20.51-26.04-9.15-4.72-18.96-7-29.16-7.26-6.12-.16-12.26,.55-18.39,.72-12.96,.36-25.87-.3-38.77-1.75-6.3-.71-11.9-2.53-16.82-6.63-3.95-3.29-8.53-4.73-13.84-4.55-11.99,.4-23.56,3.16-35.2,5.63-10.98,2.33-21.66,6.04-33,6.72-4.32,.26-8.25-.41-11.67-2.97-9.64-7.21-14.51-16.96-15.08-28.94-.59-12.36,1.56-24.49,3.36-36.6,1.45-9.78,4.17-19.37,6.27-29.06,1.73-8.02,2.53-16.1,.47-24.16-1.96-7.69-3.87-15.41-6.36-22.93-3.62-10.95-4.83-22.04-2.5-33.3,2.03-9.81,2.71-19.68,2.68-29.99Z"/>
          <path class="cls-20" d="M1325.47,84.02c.03,10.31-.65,20.17-2.68,29.99-2.33,11.26-1.11,22.35,2.5,33.3,2.49,7.52,4.4,15.24,6.36,22.93,2.06,8.06,1.26,16.15-.47,24.16-2.1,9.69-4.81,19.28-6.27,29.06-1.8,12.11-3.95,24.24-3.36,36.6,.57,11.98,5.44,21.73,15.08,28.94,3.42,2.56,7.36,3.23,11.67,2.97,11.34-.68,22.02-4.39,33-6.72,11.64-2.47,23.21-5.23,35.2-5.63,5.31-.18,9.89,1.26,13.84,4.55,4.92,4.09,10.51,5.92,16.82,6.63,12.9,1.45,25.81,2.1,38.77,1.75,6.14-.17,12.27-.88,18.39-.72,10.2,.27,20.01,2.54,29.16,7.26,10.79,5.57,17.81,13.97,20.51,26.04,1.11,4.95-.35,9.24-1.98,13.49-2.56,6.65-6.88,12.07-12.92,16.06-6.51,4.31-12.87,9.19-20.73,10.45-10.42,1.67-20.9,3.71-31.58,1.66-3.56-.69-7.26-.68-10.86-1.19-3.96-.57-7.63-1.91-11.08-4.09-7.7-4.87-16.09-8.24-25.3-7.68-5.37,.33-10.65,2.15-15.95,3.39-7.4,1.72-14.73,3.8-22.19,5.21-6.56,1.24-12.8-.65-18.82-3.32-8.5-3.77-17.18-7.29-26.51-7.96-6.04-.43-12.35-.18-18.25,1.08-11.46,2.46-22.66,6.09-34.08,8.75-5.92,1.38-12.08,1.86-18.15,2.46-2.41,.24-4.88-2.26-7.35,.03-2.15-1.25-4.35-2.42-6.43-3.78-5.69-3.71-11.81-6.95-16.88-11.39-9.59-8.39-14.36-19.83-17.09-31.97-1.81-8.04-3.68-16.2-3.1-24.55,.65-9.4,1.35-18.79,4.59-27.82,2.98-8.31,4.5-16.94,4.43-25.83-.03-3.47,.86-6.96,.63-10.4-.44-6.59-.94-13.24-2.21-19.7-2.15-11-1.45-21.71,1.89-32.31,2.63-8.37,5.8-16.6,7.88-25.1,1.97-8.05,2.31-16.33,.97-24.69-1.44-8.97-2.3-18.05-3.27-27.09-1.05-9.87-2.3-19.75-2.82-29.65-.84-16.06,1.81-31.4,11.06-45.07,3.9-5.76,10.15-7.86,16.1-10.35,9.1-3.82,17.39-2.58,25.7,3.14,13.64,9.41,20.71,22.16,23.06,38.34,1.4,9.7,3.05,19.3,2.74,28.79Zm-12.4-30.12c-.89-4.84-1.31-9.83-2.79-14.48-1.55-4.87-4.26-9.34-8.79-12.27-4.18-2.71-10.02-2.09-13.15,1.2-2.89,3.03-2.17,6.4-.96,9.73,1.34,3.72,2.76,7.43,4.47,10.99,3.36,7,6.47,14.19,11.75,20.06,2.65,2.95,3.29,2.89,5.52-.49,2.91-4.43,3.6-9.46,3.95-14.74Zm199.42,269.4c5.12-.57,8-2.82,9.73-7.94,1.22-3.63-.59-9.05-4.12-11.43-10.42-7.01-21.33-6.73-32.42-1.8-2.36,1.05-3.81,3.09-4.09,5.75-.4,3.92,2.83,7.45,7.26,7.73,3.15,.19,6.33-.16,9.47,.11,3.31,.28,6.74,.14,8.63,4.22,.75,1.63,3.63,2.27,5.55,3.36Zm-192.58-153.67c-.44-3.75-1.05-7.49-1.28-11.25-.29-4.56-1.74-8.69-4.01-12.57-1.27-2.18-5.58-4.4-7.45-3.94-2.85,.7-5.35,3.66-5.56,6.92-.15,2.48-.32,5.04,.09,7.46,1.85,10.81,3.93,21.58,5.86,32.37,.37,2.09,1.49,3.01,3.37,2.27,1.6-.63,3.41-1.51,4.37-2.82,3.97-5.47,4.43-11.88,4.61-18.42Zm88.52,123.52c-4.34,.72-8.11,1.09-11.75,2.01-3.48,.88-6.94,2.05-10.17,3.59-3.24,1.54-4.86,5.92-3.85,8.89,.78,2.3,4.65,3.62,8.26,2.8,.32-.07,.6-.29,.91-.41,9.06-3.39,18.14-6.74,27.17-10.22,.94-.36,1.59-1.44,2.38-2.19-.8-.74-1.49-1.9-2.42-2.15-3.61-.96-7.3-1.63-10.53-2.32Zm-160.46-5.1c-.51,.38-.94,.53-1.01,.78-2.47,9.04-2.68,18.22-1.23,27.42,.27,1.71,1.18,3.55,2.36,4.81,.84,.9,2.82,1.53,3.92,1.17,1.11-.36,2.12-1.99,2.52-3.27,.42-1.36,.33-3.01,.03-4.44-1.71-8.21-3.52-16.39-5.37-24.57-.15-.68-.8-1.26-1.22-1.89Zm12.44-236.39c.21-2.96,.43-5.91,.63-8.87,.06-.92,.06-1.85,.09-2.77-1.03,.33-2.27,.41-3.05,1.05-.98,.8-1.76,1.98-2.33,3.14-2.54,5.16-2.79,10.8-3.08,16.38-.07,1.35,.68,2.95,1.53,4.07,.7,.92,2.09,1.72,3.21,1.77,.62,.03,1.73-1.51,1.91-2.48m-4.29,119.13l-1.25,.13c-2.71,5.9-3.53,12.16-3.27,18.62,.08,2.1-.4,4.56,2.79,4.84,1.85,.16,3.25-2.22,3.17-5.23,0-.16-.03-.33-.04-.49-.28-4.59-.54-9.18-.85-13.77-.09-1.37-.35-2.73-.54-4.09Zm13.06-134.12c-.23,2.08,.68,4.02,2.86,4.18,1.16,.08,2.67-1.41,3.62-2.53,.67-.8,.74-2.15,.97-3.27,.53-2.57,1.05-5.15,1.47-7.74,.14-.88,0-1.8-.01-2.71-.91,.2-2.04,.12-2.69,.65-3.58,2.89-6.51,6.22-6.22,11.42Zm251.59,308.71l.07,.36c2.42-.45,4.91-.68,7.25-1.4,3.11-.95,4.96-3.44,4.34-5.22-.67-1.91-3.5-2.53-6.62-1.25-2.45,1-4.85,2.16-7.2,3.4-1.33,.7-2.51,1.68-3.76,2.54,1.47,.52,2.93,1.08,4.42,1.54,.46,.14,.99,.02,1.49,.02Z"/>
          <path class="cls-10" d="M1313.08,53.9c-.35,5.28-1.04,10.31-3.95,14.74-2.22,3.38-2.86,3.44-5.52,.49-5.28-5.87-8.39-13.06-11.75-20.06-1.71-3.56-3.13-7.27-4.47-10.99-1.2-3.33-1.92-6.7,.96-9.73,3.14-3.29,8.98-3.9,13.15-1.2,4.52,2.93,7.23,7.39,8.79,12.27,1.48,4.65,1.9,9.64,2.79,14.48Z"/>
          <path class="cls-10" d="M1512.5,323.3c-1.91-1.09-4.79-1.73-5.55-3.36-1.89-4.09-5.32-3.94-8.63-4.22-3.14-.27-6.32,.09-9.47-.11-4.43-.27-7.66-3.81-7.26-7.73,.27-2.66,1.72-4.7,4.09-5.75,11.08-4.92,22-5.21,32.42,1.8,3.53,2.38,5.34,7.79,4.12,11.43-1.73,5.12-4.6,7.37-9.73,7.94Z"/>
          <path class="cls-3" d="M1319.92,169.63c-.19,6.54-.64,12.95-4.61,18.42-.96,1.32-2.77,2.19-4.37,2.82-1.88,.75-3-.17-3.37-2.27-1.92-10.8-4.01-21.56-5.86-32.37-.41-2.42-.24-4.98-.09-7.46,.2-3.26,2.71-6.22,5.56-6.92,1.88-.46,6.18,1.76,7.45,3.94,2.27,3.89,3.72,8.01,4.01,12.57,.24,3.76,.84,7.5,1.28,11.25Z"/>
          <path class="cls-3" d="M1408.45,293.15c3.23,.69,6.92,1.36,10.53,2.32,.93,.25,1.62,1.41,2.42,2.15-.79,.75-1.44,1.83-2.38,2.19-9.03,3.47-18.11,6.83-27.17,10.22-.31,.12-.59,.33-.91,.41-3.62,.82-7.48-.5-8.26-2.8-1.01-2.97,.61-7.34,3.85-8.89,3.23-1.54,6.7-2.71,10.17-3.59,3.63-.92,7.41-1.3,11.75-2.01Z"/>
          <path class="cls-14" d="M1247.99,288.05c.42,.64,1.07,1.21,1.22,1.89,1.85,8.18,3.66,16.36,5.37,24.57,.3,1.43,.39,3.08-.03,4.44-.4,1.28-1.41,2.91-2.52,3.27-1.11,.36-3.08-.27-3.92-1.17-1.18-1.26-2.09-3.1-2.36-4.81-1.45-9.2-1.24-18.37,1.23-27.42,.07-.25,.5-.4,1.01-.78Z"/>
          <path class="cls-26" d="M1259.33,63.94c-.17,.96-1.28,2.5-1.91,2.48-1.12-.05-2.51-.84-3.21-1.77-.85-1.12-1.6-2.72-1.53-4.07,.29-5.58,.54-11.22,3.08-16.38,.57-1.16,1.35-2.33,2.33-3.14,.78-.64,2.02-.72,3.05-1.05-.03,.92-.03,1.85-.09,2.77-.2,2.96-.42,5.91-.63,8.87"/>
          <path class="cls-14" d="M1255.04,183.07c.18,1.36,.44,2.72,.54,4.09,.32,4.59,.57,9.18,.85,13.77,.01,.16,.03,.33,.04,.49,.09,3.01-1.32,5.39-3.17,5.23-3.19-.27-2.71-2.74-2.79-4.84-.25-6.46,.56-12.72,3.27-18.62l1.25-.13Z"/>
          <path class="cls-12" d="M1268.1,48.95c-.29-5.2,2.64-8.53,6.22-11.42,.65-.52,1.78-.45,2.69-.65,.01,.9,.16,1.83,.01,2.71-.42,2.59-.94,5.17-1.47,7.74-.23,1.12-.3,2.47-.97,3.27-.95,1.12-2.45,2.61-3.62,2.53-2.17-.16-3.08-2.1-2.86-4.18Z"/>
          <path class="cls-23" d="M1519.69,357.66c-.5,0-1.04,.12-1.49-.02-1.49-.46-2.95-1.02-4.42-1.54,1.25-.86,2.43-1.84,3.76-2.54,2.35-1.23,4.75-2.39,7.2-3.4,3.12-1.28,5.95-.66,6.62,1.25,.62,1.78-1.23,4.27-4.34,5.22-2.34,.72-4.83,.95-7.25,1.4l-.07-.36Z"/>
        </g>
        <g>
          <path class="cls-21" d="M1697.81,302.2c-1.15,7.83-5.69,13.46-8.47,20.21-5.93,14.45-27.32,27.66-49.13,19.22-4.44-1.72-8.2-5.51-11.9-8.78-3.23-2.85-6-6.22-8.84-9.49-7.17-8.27-8.94-17.93-7.36-28.51,.76-5.1,1.29-10.24,1.73-15.38,.98-11.31,7.64-19.41,18.62-22.72,21.39-6.44,39.65-.31,55.76,13.99,4.88,4.33,8.19,10.43,9.06,16.46m-48.2-23.31c-4.18,.68-8.79,1.29-13.33,2.21-5.32,1.08-8.95,4.37-10.62,9.49-.92,2.81-1.37,5.79-1.79,8.73-.64,4.43-.85,8.93-1.63,13.33-.91,5.11-.75,10.06,2.11,14.42,4,6.1,8.3,12,12.67,17.84,.76,1.02,2.42,1.67,3.76,1.9,3.76,.63,7.65,.61,11.35,1.47,10.84,2.51,24.21-5.8,28.39-15.84,1.72-4.14,3.25-8.39,5.33-12.34,4.78-9.09,.1-22.84-6.88-28.61-6.9-5.7-14.92-9.24-23.48-11.62-1.74-.48-3.58-.62-5.87-.99Z"/>
          <path class="cls-29" d="M1649.11,263.91c2.29,.38,4.13,.51,5.87,.99,8.56,2.38,16.58,5.92,23.48,11.62,6.98,5.77,11.66,19.52,6.88,28.61-2.08,3.95-3.6,8.2-5.33,12.34-4.18,10.04-17.55,18.34-28.39,15.84-3.7-.85-7.59-.83-11.35-1.47-1.34-.23-3-.88-3.76-1.9-4.37-5.84-8.67-11.75-12.67-17.84-2.87-4.37-3.03-9.31-2.11-14.42,.79-4.4,1-8.9,1.63-13.33,.42-2.94,.88-5.93,1.79-8.73,1.67-5.12,5.31-8.41,10.62-9.49,4.55-.92,9.16-1.53,13.33-2.21Zm9.08,17.06c-2.07-2.87-3.87-6.01-6.28-8.55-2.96-3.11-7.18-3.28-10.42-1.08-3,2.03-4.77,6.7-2.94,10.2,3.32,6.36,8.21,11.53,14.11,15.67,.14,.1,.28,.19,.43,.25,4.04,1.68,6.74-.12,7.09-4.49,.34-4.2-.5-8.15-1.99-12.03,3.51,2.72,6.99,5.48,10.53,8.16,1.44,1.09,2.2,.02,2.33-1.19,.4-3.72-.2-7.25-2.52-10.34-2.13-2.83-4.77-3.98-7.19-3.09-3.12,1.15-3.48,3.65-3.15,6.48Zm4.27,36.86c1.34-5.59,.62-9.95-.65-14.17-.61-2.04-2.52-3.15-4.8-2.5-1.86,.53-3.03,1.59-2.96,3.91,.07,2.43,.44,4.64,2.11,6.43,1.8,1.92,3.72,3.74,6.3,6.33Zm9.72-13.63c-.04-1.02-1.15-2.22-3.38-2.23-2.14,0-4.12,1.95-3.42,3.9,.67,1.87,2.07,3.64,3.57,4.98,.72,.64,3.33-3.45,3.22-6.66Z"/>
          <path class="cls-2" d="M1658.18,280.95c1.49,3.87,2.33,7.82,1.99,12.03-.35,4.37-3.05,6.16-7.09,4.49-.15-.06-.3-.15-.43-.25-5.9-4.14-10.79-9.31-14.11-15.67-1.83-3.5-.06-8.17,2.94-10.2,3.24-2.19,7.46-2.03,10.42,1.08,2.42,2.54,4.21,5.67,6.28,8.55v-.02Z"/>
          <path class="cls-24" d="M1658.19,280.97c-1.14-2.66,.03-5.34,3.15-6.48,2.42-.89,5.06,.26,7.19,3.09,2.32,3.08,2.91,6.62,2.52,10.34-.13,1.22-.89,2.28-2.33,1.19-3.54-2.68-7.03-5.43-10.53-8.16v.02Z"/>
          <path class="cls-2" d="M1662.47,317.82c-2.59-2.59-4.5-4.41-6.3-6.33-1.68-1.79-2.04-4-2.11-6.43-.07-2.32,1.1-3.38,2.96-3.91,2.29-.65,4.19,.46,4.8,2.5,1.27,4.22,1.99,8.58,.65,14.17Z"/>
          <path class="cls-27" d="M1672.18,304.19c.1,3.2-2.51,7.3-3.22,6.66-1.5-1.34-2.89-3.11-3.57-4.98-.7-1.95,1.27-3.91,3.42-3.9,2.22,0,3.34,1.21,3.38,2.23Z"/>
        </g>
      </g>
    </g>
  </g>
</svg>