<?xml version="1.0" encoding="UTF-8"?>
<svg xmlns="http://www.w3.org/2000/svg" viewBox="0 0 219.65 319.1">
  <defs>
    <style>
      .cls-1 {
        fill: none;
        stroke: #000;
        stroke-width: 7px;
      }

      .cls-2 {
        fill: #4be0fc;
      }

      .cls-3 {
        fill: #0475ec;
      }

      .cls-4 {
        fill: #4de1fc;
      }

      .cls-5 {
        fill: #0cbefb;
      }

      .cls-6 {
        fill: #485c80;
      }
    </style>
  </defs>
  <g id="_лой_1" data-name="Слой 1"/>
  <g id="_лой_2" data-name="Слой 2">
    <g id="_лой_1-2" data-name="Слой 1">
      <g>
        <path class="cls-6" d="M137.03,5.92h15c2.34,1.2,4.88,.48,7.31,.7,16.94,1.51,28.48,11.41,37.89,24.36,11.27,15.5,17.2,32.91,17.93,52.17,.16,4.24-.27,8.58,.87,12.78v28c-.92,7.95-.9,15.97-1.63,23.94-1.32,14.31-5.36,27.99-10.14,41.43-8.51,23.94-19.67,46.58-34.88,67.05-15.15,20.39-32.95,37.78-55.78,49.63-8.16,4.24-16.75,5.87-25.71,6.46-.97,.06-2.01-.26-2.85,.5h-20c-11.17-.67-21.48-3.73-30.01-11.3-10.75-9.53-18.65-21.08-24.34-34.27-5.54-12.85-6.55-26.41-7.17-40.09-.14-3.11,.59-6.28-.48-9.34v-17c.98-9.61,.92-19.27,1.77-28.9,1.2-13.58,5.07-26.48,9.34-39.23,6.78-20.26,15.74-39.61,27.54-57.5C58.87,49.26,79.26,26.64,107.94,12.58c8.43-4.13,17.13-5.67,26.24-6.17,.97-.05,2.01,.27,2.86-.5Z"/>
        <path class="cls-5" d="M56.96,195.97c-3.34-2.89-6.73-5.73-9.97-8.73-.57-.53-.72-1.77-.61-2.63,.04-.31,1.4-.67,2.15-.65,3.65,.1,7.21-.12,10.42-2.13,1.84-2.45,4.22-1.12,6.43-.9,12.77,1.25,25.37,.68,34.55-2.39-17.88,5-37.92,4.65-56.02-9.48l.04-.02c-.44-.78-1.47-.51-1.99-1.13-1.63-1.81-3.68-3.39-4.79-5.48-2.28-4.3-4.3-8.78-5.95-13.36-1.19-3.32,.84-5.06,4.21-3.89,2.61,.91,5.08,2.22,7.66,3.25,1.33,.54,2.79,1.23,3.89-.49,2.03-2.33,4.01-.81,5.76,.28,9.33,5.81,19.71,8.73,30.3,10.97,7.63,1.62,15.36,.62,20.9,.3-5.89,.26-13.92,1.11-21.98-.45-16.25-3.14-29-11.89-39.65-24.14-2.48-2.86-2.73-6.7-4.1-10.05-.39-1.24-1.06-2.47-1.11-3.72-.15-3.49-.12-7,0-10.49,.03-.86,.39-2.14,1-2.46,.92-.48,2.06-.43,2.98,.81,4.98,6.66,12.04,10.73,19.18,14.47,6.26,3.27,12.76,6.16,19.37,8.65,7.37,2.77,15,4.75,23.01,4.91,2.71,.05,5.24,.72,8.15,.12,4.66-.96,6.11-4.09,7.17-7.78,.67-2.35,.59-4.9,1.19-7.28,2.05-8.06,6.16-15.02,12.62-20.21,6.12-4.91,13.4-6.07,21.09-4.53,6.14,1.22,11.14,4.71,16.18,8.11,1.36,.92,2.62,2,3.99,2.91,2.32,1.54,4.71,2.23,7.47,.89,1.45-.7,3.13-1.05,4.74-1.23,.84-.1,2.19,.27,2.53,.86,.4,.7,.19,1.99-.19,2.82-.39,.86-1.3,1.49-2,2.2-1.28,1.31-2.61,2.57-3.85,3.92-.92,1-.64,1.81,.64,2.19,1.24,.36,2.5,.76,3.78,.89,1.48,.16,3-.04,4.49,.08,.75,.06,2.07,.44,2.09,.75,.06,.88-.15,2.06-.74,2.63-1.38,1.35-2.9,2.74-4.63,3.51-1.65,.74-2.34,1.65-2.32,3.33,.02,2.33,.05,4.67,0,7-.33,12.27-2.98,24.03-7.28,35.52-4.37,11.67-10.45,22.41-18.28,31.93-5.86,7.14-12.48,13.83-20.17,19.17-4.58,3.19-9.17,6.47-14.13,8.96-7.32,3.68-15.05,6.35-23.09,8.27-9.83,2.34-19.74,2.12-29.63,1.76-6.35-.23-12.63-1.78-18.69-3.93-5.44-1.93-10.69-4.23-15.55-7.35-1.24-.8-2.59-1.55-3.55-2.62-1.25-1.39-.46-3.47,1.39-3.85,1.45-.29,3.05,.01,4.44-.4,9.13-2.72,18.07-5.96,25.96-11.49,1.29-.91,2.35-2.15,3.51-3.24,9.88-5.51,21.3-7.67,28.72-12.93-10.97,8.93-24.28,5.38-37.59-.35-1.37-.59-2.79-1.01-4.13-1.66Z"/>
        <path class="cls-3" d="M38.21,124.84c.56,.59,1.33,1.09,1.66,1.8,4.11,8.77,11.45,14.62,18.95,20.05,7.43,5.38,15.95,8.57,25.07,10.33,7.63,1.47,15.24,.68,22.85,.79,2.23,.03,4.47-1.04,6.72-1.53,.39-.08,1.13,.12,1.24,.38,.14,.35-.05,1.17-.33,1.3-2.23,1.03-4.44,2.44-6.8,2.82-13.42,2.18-26.67,1.69-39.64-2.95-6.58-2.36-13.05-4.84-18.68-9.11-.6-.46-1.5-.53-2.26-.78l.06,.04c-.28-.42-.67-.73-1.05-1.05l.06,.05c-.31-.39-.66-.74-1.06-1.05l.04,.05c-.55-.58-.38-1.52-1.05-2.03-4.93-5.46-5.88-12.12-5.76-19.11Z"/>
        <path class="cls-3" d="M43.91,169.05c1.24,.38,2.53,.65,3.72,1.17,2.58,1.14,5.06,2.51,7.66,3.61,3.96,1.67,8.02,2.8,12.32,3.53,12.07,2.05,23.96,2.7,35.72-1.58,2.15-.78,4.43-1.2,6.65-1.76,.11-.03,.27,.16,.41,.25-5.83,7.3-36.19,13.13-51.44,7.56-3.54-2.61-7.03-5.28-10.64-7.79-1.91-1.33-3.94-2.44-4.39-4.99Z"/>
        <path class="cls-3" d="M56.96,195.97c4.02,.82,8.04,1.67,12.07,2.46,4.36,.85,8.71,2.03,13.11,2.36,6.69,.51,12.59-2.23,18.15-5.68,1.97-1.22,3.91-2.49,5.9-3.68,.34-.2,.88-.06,1.34-.07-.07,.57,.08,1.35-.23,1.68-1.47,1.58-2.85,3.43-4.67,4.46-6.78,3.8-13.16,8.39-20.62,10.89-3.91,1.31-7.79,2.83-12.05,2.52,.5-.66,1.09-1.27,1.47-1.99,1.12-2.13,.8-3.1-1.25-4.42-4.41-2.83-8.81-5.69-13.22-8.53Z"/>
        <path class="cls-5" d="M43.97,143.95l1.05,2.03-1.05-2.03Z"/>
        <path class="cls-3" d="M41.95,167.9l1.99,1.13-1.99-1.13Z"/>
        <path class="cls-5" d="M44.98,145.92l1.06,1.05-1.06-1.05Z"/>
        <path class="cls-5" d="M45.98,146.92l1.05,1.05-1.05-1.05Z"/>
        <path class="cls-4" d="M163.12,185.69c1.79-5.66,3.44-10.81,5.06-15.97,.64-2.05,1.19-4.12,1.89-6.15,.31-.91,.77-1.84,1.39-2.55,1.22-1.41,2.98-1.03,3.37,.75,.28,1.28,.32,2.66,.18,3.96-.85,7.91-4.24,14.53-10.3,19.73-.2,.18-.62,.1-1.59,.23Z"/>
        <path class="cls-4" d="M150.1,101.57c6.58,1.34,12.29,3.28,15.9,8.89,.58,.9,.93,2.14,.9,3.21-.05,1.76-1.56,2.41-3.14,1.4-5.03-3.2-9.58-7.13-15.17-9.46-.68-.28-.96-1.55-1.42-2.36l2.94-1.68Z"/>
        <path class="cls-2" d="M160.96,118.98c.12,2.45-.72,3.03-2.11,2.27-1.15-.63-2.24-1.4-3.22-2.26-.97-.86-2.18-1.9-.74-3.28,1.24-1.19,2.92-1.24,4.04-.11,1.09,1.11,1.66,2.73,2.03,3.38Z"/>
        <path d="M53.91,181.96c-14.5-9.9-23.94-22.42-24.96-40.79,5.65-.65,8.84,4.45,13.46,4.47-1.63-5.42-3.82-10.73-4.75-16.25-1.09-6.5-1.11-13.19-1.56-19.8-.04-.65,0-1.4,.29-1.96,.78-1.54,1.7-3,2.57-4.48,1.35,1.04,3.16,1.8,3.96,3.16,3.35,5.69,8.66,9.32,13.98,12.51,11.42,6.86,23.54,12.36,36.84,14.55,5.07,.83,10.22,1.34,15.35,1.48,5.5,.16,6.47-1.15,6.94-6.65,1.14-13.17,7.48-23.26,18.62-30.21,7.79-4.86,16.17-4.58,24.41-1.31,6.84,2.71,13.06,6.58,18.83,12.59,3.12-1.73,6.44-3.44,9.6-5.39,1.69-1.04,3-2.68,4.68-3.72,1.42-.88,3.64-2.25,4.61-1.73,2.38,1.28,1.5,3.89,.42,5.72-2.9,4.96-6.07,9.75-9.11,14.59,4.62,1.62,9.59-3.63,15.87-.92-4.34,3.86-7.83,7.14-11.52,10.17-2.9,2.38-3.89,4.91-3.87,8.91,.07,18.24-4.56,35.47-13.3,51.47-15.53,28.43-38.28,48.28-69.89,56.83-26.31,7.11-50.99,2.87-73.7-12.29-2.17-1.45-4.8-2.82-3.08-6.54,15.41-2.76,30.61-6.48,42.85-18.06-6.23-4.16-12.25-7.91-17.94-12.1-3.32-2.44-6.34-5.4-9.04-8.52-1.08-1.25-.93-3.56-1.34-5.38,1.68-.23,3.35-.6,5.03-.65,1.91-.05,3.82,.19,5.73,.3Zm-13.32-70.56l-1.3,.15c.25,4.9,.27,9.83,.81,14.7,.88,7.97,2.71,15.63,8.82,21.52,.6,.58,1.21,2.06,.91,2.5-.55,.8-1.74,1.46-2.74,1.59-1.08,.14-2.31-.22-3.35-.65-3.47-1.4-6.88-2.93-10.99-4.71,3.24,9.59,6.54,18.51,14.56,24.67,3.55,2.73,7.32,5.19,10.96,7.82,1.74,1.25,3.8,2.4,2.32,6.02-3.46,.57-7.39,1.22-12.14,2,1.91,1.69,3.5,3.37,5.36,4.67,5.86,4.07,11.8,8.05,17.77,11.97,4.15,2.72,4.78,4.56,1.55,8.32-2.34,2.71-5.1,5.46-8.26,6.99-8.01,3.88-15.88,8.35-25.03,9.26-.99,.1-1.94,.68-3.42,1.22,20.84,14.09,42.89,17.42,66.35,11.96,23.77-5.53,42.79-18.68,57.69-37.77,13.48-17.27,21.58-36.84,23.63-58.78,.51-5.44,.95-10.88,1.38-15.91,1.98-1.48,3.75-2.8,6.38-4.76-4.96-.55-9.04-.28-12.57-4.01,2.81-3.28,5.57-6.51,8.33-9.74-.98-.27-1.59-.12-2.12,.18-5.81,3.19-10.87,2.24-15.99-1.95-3.56-2.91-7.74-5.19-11.91-7.19-8.05-3.86-15.92-3.04-22.93,2.52-2.82,2.24-5.26,5.09-7.45,7.98-4.45,5.86-5.85,12.89-7.11,19.98-.94,5.29-3.88,7.97-9.25,7.89-5.79-.08-11.71-.25-17.34-1.45-19.99-4.27-38.12-12.43-52.93-26.96Z"/>
        <ellipse class="cls-1" cx="109.82" cy="159.55" rx="163.07" ry="95.14" transform="translate(-78.48 204.94) rotate(-69.01)"/>
      </g>
    </g>
  </g>
</svg>