<?xml version="1.0" encoding="UTF-8"?>
<svg xmlns="http://www.w3.org/2000/svg" viewBox="0 0 242.61 377.44">
  <defs>
    <style>
      .cls-1 {
        fill: #b8f2b4;
      }

      .cls-2 {
        fill: #70f167;
      }

      .cls-3 {
        fill: #b6f2b2;
      }
    </style>
  </defs>
  <g id="_лой_1" data-name="Слой 1"/>
  <g id="_лой_2" data-name="Слой 2">
    <g id="_лой_1-2" data-name="Слой 1">
      <g>
        <path class="cls-2" d="M240,136.29c-1.52-2.74-.79-5.78-1.09-8.68-.98-9.52-5.12-17.93-8.99-26.43-7.21-15.8-13.01-32.32-22.05-47.2-6.79-11.18-15.21-21.26-22.19-32.36-2.8-4.45-7.27-7.43-11.62-10.35-8.94-6-18.79-9.29-29.42-10.32h-17.51c-1.39,1.12-3.04,1-4.65,.98-9.88-.13-19.76,.04-29.62,.52-11.49,.56-22.52,2.94-32.3,9.47-12.7,8.47-22.57,19.57-29.89,33.12-7.83,14.51-11.69,30.69-18.78,45.48-5.66,11.81-9.97,23.9-9.78,37.24,1.16,40.61,1.24,81.24,0,121.87-.13,1.51,.41,2.92,.48,4.41,1.24,24.03,11.93,42.97,30.45,57.53,6.33,4.98,12.06,10.41,16.64,17.13,3.88,5.68,8.41,10.82,13.15,15.82,6.91,7.28,14.73,13.47,22.31,19.95,.33-.06,.68-.1,1.06-.1,2.36,0,3.85,1.34,4.48,3.04,.14-.01,.28-.02,.42-.02,2.57,0,4.11,1.59,4.63,3.5,1.78,.45,2.88,1.8,3.29,3.36,4.9,1.62,10.14,1.46,15.64,.23,2.06-.46,4.12-.96,6.08-1.74,16.34-6.54,33.32-10.7,50.46-14.44,14.24-3.11,26.17-10.26,34.58-22.83,8.05-12.04,13.44-25.03,15.44-39.53,3.17-22.96,5.63-46.05,11.18-68.61,3.03-12.34,4.28-24.83,4.55-37.59,.26-12.28,.49-24.64,1.99-36.88,.39-3.22-.79-6.62,1.08-9.66v-6.91Zm-72.38,64.53c-.11,1.2-.28,2.39-.48,3.57,.51,8.71,.48,19.28-8.87,23.1-.38,.16-.72,.3-1.03,.43-.69,.92-1.42,1.8-2.17,2.66,.01,.51-.06,1.06-.25,1.64-1.62,4.95-5.75,6.88-10.25,8.1-1.25,.39-2.54,.68-3.81,.92-1.97,.86-4.02,1.55-6.16,2.05-8.85,2.05-17.85-.26-22.7-7.52-.73-.72-1.36-1.5-2.01-2.48-.37-.56-.69-.98-1-1.31-2.56-.07-4.52-1.31-6.11-3.22-4.54-2.77-6.97-7.21-8.72-12.11-.73-1.09-1.37-2.24-1.87-3.51-2.05-5.23-2.57-11.66-3.4-17.22-.59-3.97-.32-7.56,1.22-10.8-.18-2.16-.33-4.33-.47-6.46-.19-.92-.35-1.85-.46-2.79-.4-3.46,.08-6.95,.47-10.4,.26-2.37,.95-4.23,1.85-6.15,.61-3.62,1.51-7.07,3-10.5,.03-.07,.06-.14,.09-.21,.08-.54,.16-1.07,.26-1.6,.6-3.16,1.72-6.32,3.76-8.85,.26-.32,.53-.62,.81-.9,.16-1.36,.8-2.64,1.96-3.42,1.76-3.05,3.8-5.83,6.28-7.9,1.64-1.37,3.51-2.19,4.95-3.79,1.23-1.37,2.13-2.64,3.64-3.75,3.43-2.5,7.52-4.11,11.78-4.18,1.28-.02,2.3,.37,3.07,.99,.26,.1,.51,.21,.77,.35,6.2,3.48,11.82,8.95,15.6,14.97,3.73,5.93,8.76,11.07,12.21,17.17,.46,.82,.67,1.62,.68,2.38,.4,.24,.79,.54,1.16,.94,4.81,5.2,6.41,12.14,6.8,19.04,.52,2.72,.83,5.46,.89,8.12,.18,7.49-.78,15.18-1.49,22.63Z"/>
        <path class="cls-1" d="M57.66,186.7c.43-3.02,.85-6.39,1.42-9.73,.16-.93,.63-1.85,1.13-2.66,2.05-3.35,3.94-3.23,5.92,.14,4.05,6.89,5.67,14.71,8.33,22.12,.63,1.75,.28,3.92,.14,5.87-.18,2.6-1.43,4.76-3.78,5.83-2.36,1.08-7.1-.09-8.42-2.17-1.35-2.14-2.69-4.48-3.21-6.92-.84-3.94-1.01-8.03-1.51-12.49Z"/>
        <path class="cls-1" d="M214.86,180.01c-1.17,6.48-1.76,12.59-4.82,18.09-1.25,2.25-2.92,3.78-5.1,4.96-1.46,.79-2.34-.11-2.61-1.18-.6-2.33-1.11-4.73-1.19-7.13-.18-5.41-.14-10.83-.05-16.24,.07-3.99,2.89-7.34,6.04-7.66,3.61-.37,5.05,1.2,6.48,3.97,.85,1.65,.91,3.71,1.24,5.19Z"/>
        <path class="cls-1" d="M171.79,320.98c-1.45,0-1.95,.07-2.42-.01-2.39-.43-3.06-2.31-1.48-4.26,1.84-2.26,3.77-4.43,5.6-6.69,2.94-3.64,5.84-7.31,8.73-10.99,.39-.5,.53-1.21,.94-1.68,1.66-1.91,6.26-2.79,8.02-1.6,1.84,1.25,2.61,4.91,1.55,7.57-1.47,3.68-3.82,6.81-6.58,9.49-3.46,3.35-7.2,6.44-12.08,7.56-1.07,.25-2.13,.57-2.28,.61Z"/>
        <path class="cls-1" d="M207.92,219.4c-1.26,7.6-3.3,15.85-8.63,22.87-.48,.63-1.13,1.28-1.84,1.55-.92,.34-2.31,.16-2.1-1.11,.71-4.34-2.21-8.5-.29-12.99,.77-1.81,.05-4.23,.21-6.35,.2-2.57,.46-5.16,1.01-7.68,.58-2.7,4.66-5.63,6.86-5.21,2.73,.52,4.6,3.06,4.78,6.5,.02,.49,0,.99,0,2.42Z"/>
        <path class="cls-3" d="M165.36,65.04c-4.36-.97-9.6-3.3-13.41-7.99-1.65-2.03-2-4.51-.72-7.32,1.39-3.05,3.96-3.92,6.55-4.1,1.68-.12,3.67,1.13,5.19,2.25,4.2,3.08,6.79,7.42,7.83,12.5,.67,3.27-.08,5.15-5.43,4.66Z"/>
        <path class="cls-3" d="M82,329.93c1.02,.62,2.97,1.43,4.46,2.77,4.47,4.01,8.48,8.49,11.57,13.7,.59,.99,1.04,3.16,.62,3.47-1.17,.85-3.03,1.7-4.25,1.32-7.65-2.39-14.49-6.08-18.06-13.94-1.69-3.73,.73-7.4,5.66-7.31Z"/>
        <path class="cls-3" d="M112.44,256.81c-5.29,.11-9.5-2.68-13.47-5.65-1.34-1-2.62-2.86-1.57-5.18,1.17-2.58,1.67-2.96,4.8-3.06,1.87-.06,3.46,.28,4.83,1.7,2.8,2.88,5.97,5.44,8.43,8.59,2.03,2.6,1.3,3.52-2.05,3.61-.32,0-.65,0-.97,0Z"/>
        <path class="cls-1" d="M73.64,148.11c0,1.64,.08,3.29-.03,4.92-.08,1.1-.27,2.26-.69,3.27-1.27,3.08-2.83,4.07-5.45,3.69-2.2-.31-4.64-3.03-4.44-5.64,.37-4.99,2.25-9.4,6.06-12.74,.7-.61,1.65-1.03,2.56-1.27,1.02-.27,1.96,.02,1.97,1.38,.02,2.13,0,4.26,0,6.39h.01Z"/>
        <path class="cls-1" d="M187.49,84.35c0,.82,.07,1.64-.02,2.45-.1,.94-.33,1.87-.5,2.8-1.01-.34-2.42-.37-2.97-1.09-2.76-3.52-5.37-7.16-7.84-10.9-.55-.83-.35-2.19-.39-3.32-.06-1.47-.17-2.99,1.39-3.86,1.33-.74,4.68-.44,5.89,.64,2.76,2.48,3.65,5.93,4.39,9.38,.27,1.25,.04,2.6,.04,3.91h0Z"/>
        <path class="cls-3" d="M171.99,82.98c-.22,.48-.39,1.34-.91,1.76-.34,.28-1.37,.15-1.77-.19-2.83-2.38-5.78-4.67-8.31-7.35-2.44-2.59-2.26-4.12-.16-6.28,2.18-2.24,4.79-2.39,6.49,.22,2.26,3.48,4.14,7.26,4.65,11.84Z"/>
        <path d="M1.12,217.23c2.12-22.66,.42-45.28-.62-67.9-.59-12.83-1.03-25.67,2.46-38.22,1.2-4.31,2.75-8.55,4.42-12.71,4.89-12.2,10.04-24.28,14.85-36.51,5.66-14.39,12.97-27.63,23.9-38.85C58.58,10.24,73.41,3.12,91.23,2.23,107.36,1.41,123.52-.27,139.63,.04c22.8,.43,41.63,9.23,53.58,29.9,2.57,4.45,5.73,8.58,8.9,12.64,6.51,8.31,11.83,17.28,16.06,26.95,5.47,12.5,11.04,24.97,16.83,37.32,7.08,15.1,9.05,30.66,6.6,47.2-1.58,10.66-1.97,21.57-2,32.38-.05,14.93-2.38,29.44-5.35,44.01-3.58,17.6-6.18,35.39-9.14,53.11-1.15,6.89-1.97,13.85-3.21,20.72-2.67,14.83-9.74,27.56-19.49,38.81-8.47,9.76-19.9,14.34-32.17,16.87-15.67,3.23-31.15,6.99-46.08,12.88-4.92,1.94-10.24,2.85-15.4,4.16-3.56,.9-6.98,.53-10.01-1.67-3.76-2.73-7.53-5.45-11.16-8.35-5.19-4.15-10.32-8.39-15.37-12.7-8.78-7.5-16.59-15.88-23.2-25.38-3.92-5.63-8.49-10.64-14.17-14.65C11.37,297.64,1.3,274.14,.05,246.17c-.1-2.16-.01-4.33-.01-6.5m93.88,123.83c8.08-.7,18.39-.02,28.1-3.61,14.73-5.44,29.96-8.93,45.31-11.97,13.15-2.61,23.49-9.18,31.28-20.46,8.37-12.11,11.33-25.61,13.52-39.74,3.15-20.38,6.57-40.76,10.99-60.9,3.05-13.91,5.33-27.68,5.16-41.97-.13-10.8,.73-21.63,1.69-32.4,1.07-12.09,1.27-24-3.74-35.36-6.92-15.69-13.68-31.46-21.19-46.86-3.69-7.57-8.84-14.44-13.49-21.53-3.1-4.72-6.76-9.09-9.7-13.91-9.47-15.51-24.24-21.71-41.29-21.99-16.12-.26-32.27,1.41-48.41,2.32-13.34,.75-24.65,5.81-34.38,15.17-11.11,10.68-18.11,23.68-23.69,37.75-4.35,10.98-8.96,21.87-13.86,32.61-4.92,10.8-7.77,21.93-7.41,33.83,.34,11.16,.81,22.32,.89,33.48,.09,13.16-.05,26.32-.32,39.47-.3,14.65-1.74,29.33-1.12,43.93,.9,21.09,9.84,38.83,26.08,52.59,6.78,5.74,12.59,12.19,17.72,19.52,5.6,8.01,12.02,15.52,18.71,22.67,5.43,5.81,11.79,10.77,19.14,17.36Z"/>
        <path d="M174.24,183.45c0,7.64,.44,15.31-.1,22.91-.87,12.17-6.03,22.73-13.86,32-4.06,4.81-9.13,8.28-15.16,10.15-7.8,2.43-15.67,4.92-23.95,2.62-2.13-.59-4.39-1.73-5.93-3.27-7.4-7.43-14.54-15.11-21.83-22.65-8.86-9.16-12.11-19.85-9.94-32.52,.83-4.83,.05-9.93,.11-14.91,.09-7.13-.1-14.3,.61-21.37,.33-3.3,2.23-6.56,3.9-9.57,2.72-4.93,5.92-9.59,8.76-14.45,7.07-12.1,17.01-20.34,31.02-22.93,7.03-1.3,10.41,.6,13.98,6.77,.91,1.56,2.12,2.95,3.22,4.4,4.49,5.96,9.14,11.81,13.44,17.91,3.06,4.34,5.46,9.15,8.51,13.51,5.48,7.85,7.85,16.42,7.02,25.93-.16,1.82-.02,3.66-.02,5.49h.22Zm-53,58.26c4.83-.51,10.45-1.06,16.06-1.72,7.85-.93,14.25-4.34,18.63-11.13,6.54-10.15,10.64-21.05,10.28-33.32-.23-7.82-.18-15.66-.93-23.43-.4-4.2-1.67-8.53-3.52-12.32-2.91-5.96-6.62-11.54-10.04-17.25-3.52-5.87-7.39-11.45-12.62-16.02-1.82-1.6-3.37-3.76-4.39-5.97-1.42-3.07-3.6-3.7-6.48-3.07-1.78,.39-3.62,.81-5.22,1.62-8.33,4.24-15.31,9.95-19.66,18.5-1.8,3.54-3.58,7.24-6.11,10.25-3.59,4.26-4.75,9.1-4.92,14.31-.13,3.99,.23,7.99,.33,11.98,.15,5.65,1.24,11.49,.2,16.92-2.16,11.27,1.28,20.18,8.78,28.28,6.54,7.06,12.7,14.46,19.61,22.38Z"/>
        <path d="M180.35,60.86c-1.75-.88-3.03-1.25-3.93-2.04-5.25-4.61-10.53-9.19-15.56-14.03-3.49-3.35-3.9-6.91-1.61-9.16,2.53-2.48,6.29-1.93,9.52,1.87,5.27,6.18,11.06,12.14,11.74,20.92,.04,.46-.05,.94-.15,2.45Z"/>
        <path d="M214.81,204.8c.45-9.36,.85-18.73,1.37-28.09,.13-2.32,1.1-4.41,3.85-4.2,2.18,.17,3.17,2.05,2.79,4-1.74,8.9-3.65,17.76-5.57,26.63-.15,.71-.8,1.31-1.22,1.96l-1.23-.3Z"/>
        <path d="M179.54,326.85c3.29-3.93,6.47-7.75,9.68-11.54,.53-.63,1.08-1.56,1.76-1.71,1.64-.36,3.92-1.06,4.9-.29,.99,.77,1.37,3.38,.88,4.78-1.69,4.78-11.33,10.23-16.39,9.65-.25-.03-.45-.46-.83-.88Z"/>
        <path d="M206.82,237.04c-.3-4.72-.81-9.44-.83-14.17,0-3.21,1.96-4.95,4.48-4.79,2.58,.16,4.1,2.09,3.57,5.42-.79,5.01-1.92,9.97-5.58,13.76l-1.64-.22Z"/>
        <path d="M71.51,168.3c1.49,5.58,3.03,11.14,4.43,16.74,.51,2.04,.42,4.19-2.12,4.85-2.36,.61-3.89-.87-4.55-2.92-2.06-6.42-1.16-12.63,2.23-18.67Z"/>
        <path d="M178.43,82.82c-4.02-3.34-6.44-7.59-8.22-12.17-.76-1.95-.37-4.09,2.01-4.93,2.3-.8,3.83,.43,4.76,2.43,2.15,4.63,2.23,9.53,1.44,14.67Z"/>
        <path d="M91.37,120.55c-1.92,3.75-3.7,7.59-5.83,11.22-1.43,2.44-3.83,2.92-5.36,1.44-1.83-1.77-1.35-3.74,.27-5.19,3.22-2.88,5.72-6.68,9.87-8.4l1.05,.93Z"/>
        <path d="M196.44,86.38c-1.91-.56-2.97-.54-3.29-1.01-2.12-3.16-4.3-6.32-5.96-9.73-.53-1.09-.09-3.56,.81-4.27,1.71-1.37,3.73-.28,4.41,1.62,1.46,4.1,2.54,8.33,4.03,13.39Z"/>
      </g>
    </g>
  </g>
</svg>