<?xml version="1.0" encoding="UTF-8"?>
<svg xmlns="http://www.w3.org/2000/svg" viewBox="0 0 2667 401.22">
  <defs>
    <style>
      .cls-1 {
        fill: #ee91f6;
      }

      .cls-2 {
        fill: #6fab66;
      }

      .cls-3 {
        fill: #14100f;
      }

      .cls-4 {
        fill: #f4a757;
      }

      .cls-5 {
        fill: #100e0b;
      }

      .cls-6 {
        fill: #fafafe;
      }

      .cls-7 {
        fill: #70ab66;
      }

      .cls-8 {
        fill: #171012;
      }

      .cls-9 {
        fill: #da1be9;
      }

      .cls-10 {
        fill: #151010;
      }

      .cls-11 {
        fill: #ee8ff6;
      }

      .cls-12 {
        fill: #100f0b;
      }

      .cls-13 {
        fill: #12100e;
      }

      .cls-14 {
        fill: #0f0d0a;
      }

      .cls-15 {
        fill: #14100e;
      }

      .cls-16 {
        fill: #14110e;
      }

      .cls-17 {
        fill: #b89af8;
      }

      .cls-18 {
        fill: #d3d3d6;
      }

      .cls-19 {
        fill: #191015;
      }

      .cls-20 {
        fill: #54814d;
      }

      .cls-21 {
        fill: #12100d;
      }

      .cls-22 {
        fill: #6831d5;
      }

      .cls-23 {
        fill: #141111;
      }

      .cls-24 {
        fill: #13110f;
      }

      .cls-25 {
        fill: #191311;
      }

      .cls-26 {
        fill: #e8871f;
      }

      .cls-27 {
        fill: #d25171;
      }

      .cls-28 {
        fill: #13100d;
      }

      .cls-29 {
        fill: #f4a857;
      }

      .cls-30 {
        fill: #16110f;
      }

      .cls-31 {
        fill: #13100e;
      }

      .cls-32 {
        fill: #ae444e;
      }

      .cls-33 {
        fill: #0f0e0a;
      }

      .cls-34 {
        fill: #eb8f98;
      }

      .cls-35 {
        fill: #b798f7;
      }

      .cls-36 {
        fill: #0e0d09;
      }

      .cls-37 {
        fill: #f8a0b7;
      }

      .cls-38 {
        fill: #0e0c09;
      }

      .cls-39 {
        fill: #13100f;
      }

      .cls-40 {
        fill: #ec8f98;
      }
    </style>
  </defs>
  <g id="_лой_1" data-name="Слой 1"/>
  <g id="_лой_2" data-name="Слой 2">
    <g id="_лой_1-2" data-name="Слой 1">
      <g>
        <g>
          <path class="cls-21" d="M1690.9,210.96c-1.09,.69-1.48,1.02-1.93,1.21-8.25,3.59-10.87,10.87-11.83,18.88-.93,7.72-3.92,13.99-10.36,18.52-1.76,1.24-3.4,2.69-4.97,4.17-3.99,3.77-4.42,6.81-1.69,11.48,.92,1.58,2.24,2.97,2.93,4.63,1.19,2.87,2.43,5.83,2.88,8.86,.38,2.56,1.35,4.4,3.35,5.78,1.36,.94,2.78,1.85,4.3,2.52,13.06,5.74,26.03,11.73,39.29,16.99,5.48,2.17,11.53,3.3,17.42,3.94,10.07,1.09,20.11,2.51,30.34,2.24,12.52-.32,24.79-1.44,37.02-4.45,9.15-2.25,18.68-3.02,28.05-4.37,4.61-.66,9.23-1.19,13.86-1.67,11.54-1.2,22.53,.99,32.97,5.87,5.67,2.65,8.53,7.71,10.35,13.44,3.41,10.73,1.87,21.36-.75,31.96-1.32,5.34-4.02,9.83-8.25,13.35-10.45,8.71-21.6,15.87-35.42,18.3-11.11,1.95-22.05,4.82-33.1,7.14-3.41,.72-6.9,1.1-10.38,1.41-9.95,.89-19.89,2.11-29.86,2.36-12.13,.3-24.3,.01-36.42-.55-7.79-.36-15.59-1.34-23.28-2.65-16.21-2.77-31.47-8.26-45.44-17.08-7.05-4.45-14.3-8.54-22.54-10.34-4.7-1.02-9.47-1.81-14.24-2.4-4.59-.56-8.58-1.91-11.85-5.47-1.75-1.9-4.22-3.16-6.46-4.58-4.62-2.93-8.1-6.93-10.69-11.64-6.35-11.54-9.71-23.89-10.35-37.09-.6-12.3-1.5-24.59-2.7-36.85-1.64-16.85-1.39-33.55,2.24-50.14,3.09-14.12,3.68-28.27,.78-42.56-2.76-13.59,.13-26.38,6.2-38.66,7.32-14.81,17-27.68,29.9-38.12,15.02-12.15,30.29-23.93,46.52-34.43,7.85-5.08,16.1-9.17,25.42-11.02,7.3-1.45,13.63-5.41,19.36-9.92,14.01-11.02,30.02-14.25,47.03-11.44,8.9,1.47,17.49,5.1,26.05,8.24,12.94,4.74,25.66,10.13,39.49,11.88,9.4,1.19,18.77,2.72,28.21,3.44,12.92,.99,25.21,4.42,37.18,8.96,9.25,3.5,16.62,9.78,21.93,18.17,6.41,10.13,10.79,20.98,10.59,33.25-.13,7.64-1.92,14.91-5.85,21.39-3.7,6.09-6.07,12.53-7.22,19.5-2.3,13.91-10.66,23.67-22.59,29.94-9.03,4.75-17.66,9.88-25.85,15.91-6.97,5.13-14.39,9.67-21.19,15-12.86,10.08-27.69,15.63-43.13,20.04-10.89,3.11-22.01,3.78-33.16,2.75-9.09-.84-18.14-2.32-27.11-4.04-7.71-1.48-14.8-4.78-21.56-8.87-7.67-4.64-15.62-8.8-23.51-13.2Zm71.27,107.61c-3.14,0-6.3,.21-9.41-.04-6.77-.56-13.5-1.63-20.28-2-9.58-.52-18.71-2.8-27.39-6.61-10.18-4.47-20.14-9.41-30.19-14.18-3-1.42-6.05-2.78-8.91-4.45-4.01-2.34-7.31-5.62-7.76-10.4-.35-3.71-1.91-6.61-3.81-9.55-1.17-1.81-2.31-3.67-3.19-5.63-2.34-5.22-1.44-10.1,2.18-14.39,2.02-2.39,4.24-4.66,6.63-6.69,4.42-3.75,6.87-8.14,7.16-14.15,.3-6.09,1.53-12.17,4.5-17.69,4.27-7.94,12.23-11.02,20.49-8.01,.76,.28,1.59,.38,2.39,.57,6.47,1.56,12.75,3.53,18.39,7.26,7.35,4.86,14.94,9.29,23.73,11.05,5.35,1.07,10.71,2.4,16.13,2.74,9.77,.62,19.74,1.8,29.35,.56,14.8-1.9,29.29-6.2,42.17-14.03,10.63-6.46,20.63-13.97,30.73-21.27,7.8-5.65,15.49-11.25,24.41-15.27,11.01-4.96,18.08-13.67,20.54-25.87,.98-4.84,2.56-9.58,4.16-14.26,.91-2.65,2.52-5.06,3.66-7.65,2.99-6.78,5.18-13.92,3.79-21.26-1.17-6.12-3.17-12.24-5.83-17.88-4.7-9.96-12.36-16.89-22.94-20.89-16.16-6.1-33.05-8.05-49.96-10.35-9.48-1.29-19.05-2.83-28.17-5.61-13.93-4.24-27.52-9.6-41.21-14.59-9.38-3.42-18.9-3.01-28.46-1.23-6.98,1.3-13.02,4.7-18.82,8.68-7.66,5.27-15.39,10.5-24.71,12.47-7.12,1.51-13.39,4.86-19.43,8.67-14.5,9.14-27.93,19.75-41.53,30.15-14.99,11.46-26.69,25.31-34.21,42.68-3.83,8.83-6.02,17.93-5.26,27.57,.51,6.44,1.05,12.9,2.2,19.24,1.19,6.57-.02,12.9-.9,19.27-1.3,9.34-3.72,18.6-4.13,27.96-.51,11.59,.31,23.26,.98,34.87,.6,10.25,2.02,20.46,2.64,30.71,.54,8.84,2.08,17.39,5.05,25.73,3.13,8.78,7.33,16.69,15.77,21.62,1.84,1.07,3.41,2.62,5.06,4,2.36,1.97,4.87,3,8.12,3.05,4.78,.08,9.59,.67,14.31,1.48,8.67,1.5,16.17,5.85,23.49,10.45,8.63,5.42,17.78,9.55,27.65,12.18,8.66,2.31,17.34,4.3,26.32,4.94,11.74,.83,23.48,2.39,35.22,2.51,11.26,.11,22.54-1.05,33.79-1.97,6.92-.57,13.82-1.54,20.67-2.69,7.98-1.34,15.91-3.02,23.83-4.66,4.85-1,9.76-1.87,14.47-3.37,8.54-2.72,15.5-8.2,22.35-13.76,3.07-2.5,5.02-5.93,5.81-9.67,1.97-9.32,2.11-18.71-.16-28.05-1.05-4.32-3.45-7.44-7.7-9.08-7.01-2.7-14.16-4.9-21.75-4.41-6.44,.41-12.88,1.07-19.26,2-8.67,1.27-17.43,2.36-25.89,4.52-12.15,3.11-24.32,5.2-36.88,4.65Z"/>
          <path class="cls-22" d="M1762.17,318.57c12.56,.55,24.73-1.53,36.88-4.65,8.46-2.17,17.22-3.25,25.89-4.52,6.38-.94,12.82-1.59,19.26-2,7.6-.49,14.75,1.71,21.75,4.41,4.24,1.64,6.65,4.76,7.7,9.08,2.27,9.34,2.13,18.73,.16,28.05-.79,3.75-2.74,7.18-5.81,9.67-6.85,5.56-13.81,11.05-22.35,13.76-4.71,1.5-9.62,2.37-14.47,3.37-7.93,1.63-15.85,3.32-23.83,4.66-6.85,1.15-13.75,2.12-20.67,2.69-11.25,.92-22.53,2.09-33.79,1.97-11.75-.12-23.48-1.68-35.22-2.51-8.97-.63-17.66-2.63-26.32-4.94-9.87-2.63-19.02-6.76-27.65-12.18-7.32-4.6-14.82-8.95-23.49-10.45-4.72-.81-9.53-1.41-14.31-1.48-3.25-.05-5.76-1.08-8.12-3.05-1.65-1.38-3.22-2.93-5.06-4-8.43-4.92-12.64-12.84-15.77-21.62-2.97-8.34-4.51-16.89-5.05-25.73-.63-10.25-2.05-20.46-2.64-30.71-.68-11.61-1.49-23.28-.98-34.87,.41-9.36,2.83-18.62,4.13-27.96,.89-6.37,2.1-12.7,.9-19.27-1.15-6.34-1.69-12.81-2.2-19.24-.76-9.64,1.44-18.74,5.26-27.57,7.53-17.37,19.22-31.22,34.21-42.68,13.6-10.4,27.03-21.01,41.53-30.15,6.04-3.81,12.31-7.16,19.43-8.67,9.31-1.97,17.05-7.2,24.71-12.47,5.8-3.99,11.84-7.38,18.82-8.68,9.56-1.78,19.08-2.19,28.46,1.23,13.69,4.99,27.28,10.35,41.21,14.59,9.12,2.78,18.69,4.32,28.17,5.61,16.91,2.3,33.8,4.25,49.96,10.35,10.58,3.99,18.24,10.92,22.94,20.89,2.66,5.64,4.66,11.76,5.83,17.88,1.4,7.34-.8,14.49-3.79,21.26-1.14,2.59-2.75,4.99-3.66,7.65-1.61,4.68-3.19,9.42-4.16,14.26-2.46,12.2-9.54,20.91-20.54,25.87-8.92,4.02-16.6,9.62-24.41,15.27-10.09,7.31-20.1,14.81-30.73,21.27-12.88,7.83-27.37,12.13-42.17,14.03-9.61,1.23-19.58,.06-29.35-.56-5.41-.35-10.78-1.67-16.13-2.74-8.79-1.76-16.38-6.2-23.73-11.05-5.64-3.73-11.92-5.7-18.39-7.26-.8-.19-1.63-.29-2.39-.57-8.27-3.01-16.22,.07-20.49,8.01-2.97,5.52-4.21,11.59-4.5,17.69-.29,6.01-2.74,10.4-7.16,14.15-2.39,2.02-4.61,4.3-6.63,6.69-3.62,4.29-4.52,9.17-2.18,14.39,.88,1.96,2.01,3.82,3.19,5.63,1.91,2.94,3.47,5.84,3.81,9.55,.45,4.78,3.75,8.05,7.76,10.4,2.86,1.67,5.91,3.03,8.91,4.45,10.04,4.77,20.01,9.71,30.19,14.18,8.69,3.81,17.82,6.09,27.39,6.61,6.78,.37,13.51,1.44,20.28,2,3.12,.26,6.28,.04,9.41,.04Zm-39.2-251.98c1.83,3.53,4.49,4.84,9,3.59,7.9-2.19,15.75-4.61,23.53-7.22,2.7-.9,5.12-2.64,8.76-4.59-2.53-1.42-3.89-2.61-5.46-3-7.64-1.9-15.26-1.64-22.79,.75-.79-.13-1.59-.27-2.38-.4-4.46-.73-8.92-1.09-13.25,.61-3.16,1.25-4.49,4.35-3.25,7.29,1.1,2.6,3.45,2.82,5.82,2.96Zm-60.89,23.6c-.58,.31-1.13,.79-1.75,.91-6.09,1.16-10.93,4.5-15.27,8.7-1.06,1.03-2.16,2.12-2.89,3.38-1.31,2.26-.96,4.99,.53,6.4,1.53,1.44,4.76,1.3,6.86-.36,1.16-.92,2.23-1.94,3.34-2.92,3.24,5.21,7.05,6.7,11.93,3.54,5.09-3.3,9.67-7.4,14.29-11.36,1.17-1.01,1.82-2.75,2.43-4.27,1.32-3.3,.51-5.44-2.69-6.89-1.31-.59-2.83-.84-4.28-.94-4.63-.33-8.53,1.86-12.49,3.82Zm84.72,8.57c-4.05,.75-8.17,1.22-12.13,2.29-13.32,3.61-23.32,11.96-30.61,23.31-7,10.91-11.79,22.66-8.99,36.17,.22,1.06-.08,2.23-.08,3.34-.02,5.76,.71,11.56,5.07,15.59,3.09,2.86,7.02,5.37,11.02,6.57,7.74,2.32,15.77,3.72,23.72,5.27,8.75,1.71,17.57,.74,26.34,0,7.65-.65,15.33-1.9,21.67-6.49,7.25-5.25,14.25-10.9,20.95-16.85,5.56-4.94,11.65-8.76,18.47-11.57,3.37-1.39,6.69-2.93,9.91-4.64,2.58-1.37,4.68-3.55,4.83-6.53,.18-3.62,0-7.32-.59-10.89-1.59-9.73-8.47-14.99-16.72-18.91-4.25-2.02-8.72-3.14-13.47-2.88-5.47,.3-10.93,.86-16.4,.82-2.72-.02-5.59-.78-8.12-1.85-4.57-1.95-9-4.27-13.37-6.67-6.69-3.67-13.76-5.67-21.5-6.07Zm101.21,225.85c-.08-3.07-2.15-4-4.12-4.73-1.98-.73-4.12-1.37-6.21-1.46-10.12-.44-20.11,.4-29.72,3.86-1.34,.48-2.57,1.39-3.73,2.25-2.09,1.55-3,3.78-1.93,6.13,1.06,2.33,2.97,4.11,5.89,3.69,4.22-.6,8.46-1.12,12.62-2.03,9.12-1.99,18.41-3.43,27.2-7.71Zm44.73-221.55c-.42-2.6-.52-4.44-1.03-6.15-1.18-3.97-5.77-7.14-8.97-6.39-4.05,.94-7.6,5.69-6.53,9.73,1.21,4.58,2.86,9.12,4.99,13.34,2.12,4.22,7.41,4.01,9.25-.4,1.42-3.4,1.69-7.28,2.3-10.13Zm-279.36,48.76c-3.88,.23-5.21,1.02-7.31,4.37-3.93,6.27-5.82,13.31-7,20.48-.4,2.46,.07,5.37,1.06,7.67,1.38,3.21,5.29,2.93,6.9-.24,.51-1.01,.82-2.15,1.05-3.27,1.03-5.01,2.04-10.02,2.96-15.04,.84-4.62,1.56-9.26,2.34-13.97Zm123.07,178.6c-.82-1.56-1.18-3.19-2.2-4.04-4.42-3.68-9.54-5.93-15.37-6.01-3.95-.05-6.44,2.18-6.95,5.71-.59,4.08,1.41,7.24,5.41,8.22,6.79,1.67,12.89-.12,19.1-3.89Zm-116.19,6.86c.3-.2,.59-.4,.89-.59-.28-1.57-.37-3.2-.86-4.7-1.18-3.59-2.45-7.16-3.88-10.66-1.43-3.51-3.03-6.96-4.7-10.37-1.06-2.17-2.96-3.18-5.36-2.51-2.35,.66-3.62,2.42-3.37,4.84,.2,1.92,.41,4.11,1.42,5.63,3.01,4.51,6.27,8.88,9.73,13.06,1.7,2.05,4.07,3.55,6.13,5.3Zm264.37-193.87c-4.24,4.69-7.95,8.46-11.22,12.58-1.63,2.05-1.36,4.66,.31,6.92,1.28,1.73,2.9,2.83,5.08,2.39,2.7-.54,3.56-2.84,4.1-5.12,1.07-4.49,1.99-9.02,2.85-13.55,.12-.64-.46-1.41-1.12-3.21Zm-36.05,199.95c3.63,.16,7.33-2.12,7.36-4.53,.04-3.05-3.88-6.37-7.68-6.51-3.32-.12-6.2,2.19-6.26,5-.07,3.29,2.75,5.87,6.58,6.04Zm-196.44-.6c-.36-.69-.53-1.15-.81-1.53-2.51-3.46-5-6.94-7.59-10.34-1.24-1.63-2.77-3-5.03-1.76-1.91,1.04-2.54,3.2-1.76,5.57,.1,.31,.11,.68,.29,.94,3.15,4.62,7.76,7.01,13.02,8.28,.49,.12,1.21-.72,1.9-1.16Zm-34.94-170.27s-.33-.23-.6-.18c-.46,.09-1.08,.22-1.31,.56-2.96,4.32-4.83,9.02-4.11,14.36,.39,2.88,2.41,5.02,4.15,4.87,2.06-.17,2.88-1.79,2.77-5.49-.03-.99-.11-1.98-.17-2.97-.23-3.54-.46-7.08-.72-11.16Z"/>
          <path class="cls-21" d="M1746.8,98.77c7.74,.4,14.81,2.4,21.5,6.07,4.37,2.39,8.8,4.71,13.37,6.67,2.52,1.08,5.4,1.83,8.12,1.85,5.46,.04,10.93-.52,16.4-.82,4.75-.26,9.22,.86,13.47,2.88,8.25,3.92,15.13,9.18,16.72,18.91,.58,3.57,.77,7.28,.59,10.89-.15,2.99-2.25,5.17-4.83,6.53-3.22,1.71-6.54,3.25-9.91,4.64-6.82,2.82-12.91,6.63-18.47,11.57-6.7,5.95-13.7,11.6-20.95,16.85-6.34,4.59-14.02,5.84-21.67,6.49-8.77,.74-17.58,1.72-26.34,0-7.95-1.55-15.98-2.95-23.72-5.27-4-1.2-7.93-3.71-11.02-6.57-4.36-4.03-5.09-9.83-5.07-15.59,0-1.12,.3-2.28,.08-3.34-2.8-13.5,1.98-25.26,8.99-36.17,7.29-11.36,17.29-19.7,30.61-23.31,3.96-1.07,8.08-1.55,12.13-2.29Zm.45,83.99c3.33-.15,6.66-.22,9.98-.47,9.8-.72,19.02-3.07,26.74-9.63,3.55-3.02,7.22-5.89,10.78-8.91,7.52-6.39,15.44-12.1,24.79-15.58,2.49-.93,4.89-2.07,7.33-3.14,1.85-.81,3.03-2.2,2.77-4.27-.84-6.61-2.63-12.57-9.05-16.27-5.2-3-10.42-5.07-16.52-4.12-1.97,.31-3.97,.4-5.95,.65-7.78,.98-15.24,.03-22.29-3.58-3.84-1.97-7.7-3.9-11.57-5.82-12.27-6.09-24.43-5.59-36.27,1.01-13.42,7.48-21.3,19.24-24.92,33.93-.82,3.32-1.11,6.95-.76,10.35,.46,4.42,1.72,8.77,2.84,13.1,.24,.94,1.21,1.9,2.1,2.44,12.3,7.41,25.73,10.53,40.01,10.31Z"/>
          <path class="cls-17" d="M1848.01,324.62c-8.8,4.28-18.09,5.71-27.2,7.71-4.16,.91-8.4,1.44-12.62,2.03-2.92,.41-4.83-1.36-5.89-3.69-1.07-2.35-.16-4.58,1.93-6.13,1.16-.86,2.39-1.77,3.73-2.25,9.61-3.46,19.6-4.31,29.72-3.86,2.09,.09,4.22,.73,6.21,1.46,1.97,.73,4.04,1.66,4.12,4.73Z"/>
          <path class="cls-17" d="M1662.08,90.19c3.96-1.96,7.86-4.15,12.49-3.82,1.45,.1,2.97,.35,4.28,.94,3.2,1.45,4.02,3.59,2.69,6.89-.61,1.52-1.26,3.26-2.43,4.27-4.62,3.96-9.21,8.06-14.29,11.36-4.87,3.16-8.69,1.67-11.93-3.54,2.84-2.97,5.73-5.89,8.5-8.92,1.71-1.87,3.69-3.65,3.73-6.83l-3.04-.36Z"/>
          <path class="cls-17" d="M1892.74,103.07c-.61,2.86-.88,6.74-2.3,10.13-1.84,4.41-7.13,4.62-9.25,.4-2.12-4.22-3.78-8.77-4.99-13.34-1.07-4.04,2.48-8.79,6.53-9.73,3.2-.75,7.79,2.42,8.97,6.39,.51,1.71,.61,3.55,1.03,6.15Z"/>
          <path class="cls-17" d="M1736.03,56.13c7.53-2.38,15.15-2.65,22.79-.75,1.56,.39,2.93,1.58,5.46,3-3.64,1.94-6.06,3.68-8.76,4.59-7.78,2.61-15.63,5.02-23.53,7.22-4.51,1.25-7.18-.06-9-3.59,4.51-1.42,9.08-2.7,13.51-4.35,1.69-.63,4.32-2.07,4.34-3.2,.06-2.61-2.97-2.21-4.8-2.92Z"/>
          <path class="cls-13" d="M1613.38,151.83c-.78,4.71-1.5,9.35-2.34,13.97-.92,5.03-1.93,10.04-2.96,15.04-.23,1.12-.54,2.26-1.05,3.27-1.61,3.17-5.52,3.45-6.9,.24-.99-2.31-1.46-5.21-1.06-7.67,1.18-7.18,3.07-14.21,7-20.48,2.1-3.35,3.43-4.14,7.31-4.37Z"/>
          <path class="cls-17" d="M1736.44,330.43c-6.22,3.77-12.32,5.55-19.1,3.89-4-.98-6-4.14-5.41-8.22,.51-3.53,3-5.77,6.95-5.71,5.83,.08,10.95,2.33,15.37,6.01,1.02,.85,1.38,2.48,2.2,4.04Z"/>
          <path class="cls-31" d="M1620.25,337.29c-2.07-1.75-4.43-3.25-6.13-5.3-3.46-4.18-6.72-8.55-9.73-13.06-1.02-1.53-1.22-3.71-1.42-5.63-.25-2.42,1.02-4.19,3.37-4.84,2.4-.67,4.29,.34,5.36,2.51,1.67,3.41,3.27,6.86,4.7,10.37,1.43,3.5,2.7,7.07,3.88,10.66,.49,1.5,.59,3.13,.86,4.7-.3,.2-.59,.4-.89,.59Z"/>
          <path class="cls-39" d="M1662.08,90.19c.95,.11,1.91,.23,3.04,.36-.04,3.18-2.03,4.97-3.73,6.83-2.77,3.03-5.66,5.95-8.5,8.92-1.11,.98-2.18,2-3.34,2.92-2.1,1.66-5.33,1.8-6.86,.36-1.49-1.41-1.84-4.14-.53-6.4,.73-1.26,1.82-2.35,2.89-3.38,4.34-4.2,9.18-7.54,15.27-8.7,.62-.12,1.17-.6,1.75-.91Z"/>
          <path class="cls-24" d="M1736.03,56.13c1.84,.71,4.86,.31,4.8,2.92-.03,1.12-2.65,2.57-4.34,3.2-4.43,1.65-9,2.92-13.51,4.35-2.37-.14-4.72-.36-5.82-2.96-1.24-2.94,.09-6.04,3.25-7.29,4.32-1.71,8.79-1.34,13.25-.61,.79,.13,1.59,.26,2.38,.4Z"/>
          <path class="cls-39" d="M1884.62,143.42c.65,1.8,2.01,3.46,1.45,3.58-.86,4.54-2.11,8.7-3.18,13.19-.54,2.28-1.41,4.58-4.1,5.12-2.18,.44-3.8-.66-5.08-2.39-1.67-2.26-1.94-4.87-.31-6.92,3.28-4.12,6.99-7.89,11.22-12.58Z"/>
          <path class="cls-35" d="M1848.57,343.36c-3.83-.17-6.64-2.75-6.58-6.04,.06-2.81,2.94-5.12,6.26-5,3.8,.13,7.72,3.45,7.68,6.51-.03,2.41-3.73,4.69-7.36,4.53Z"/>
          <path class="cls-39" d="M1652.13,342.77c-.68,.44-1.4,1.27-1.9,1.16-5.26-1.27-9.87-3.66-13.02-8.28-.18-.26-.19-.63-.29-.94-.78-2.37-.15-4.53,1.76-5.57,2.27-1.24,3.79,.13,5.03,1.76,2.59,3.4,5.08,6.88,7.59,10.34,.28,.38,.45,.84,.81,1.53Z"/>
          <path class="cls-23" d="M1617.19,172.5c.26,4.08,.49,7.62,.72,11.16,.06,.99,.14,1.98,.17,2.97,.11,3.7-.71,5.32-2.77,5.49-1.74,.15-3.76-1.99-4.15-4.87-.71-5.34,1.15-10.04,4.11-14.36,.23-.34,.85-.47,1.31-.56,.27-.05,.6,.18,.6,.18Z"/>
        </g>
        <g>
          <path class="cls-38" d="M764.72,272.05c1.32-11.46-.82-22.52-3.12-33.63-1.61-7.81-2.74-15.74-3.86-23.64-2.19-15.45,1.51-29.76,9.22-43.07,5.05-8.72,12.5-14.55,22.45-16.99,10.03-2.47,18.26-7.7,24.61-15.98,6.18-8.06,12.62-15.92,18.97-23.85,7.88-9.83,17.66-17.25,29.37-21.75,10.54-4.05,21.24-7.78,32.07-10.92,12.05-3.49,24.43-2.61,36.7-.87,12.57,1.78,24.48,6.07,36.47,10.03,9.31,3.08,18.66,6.02,28.05,8.84,4.31,1.29,6.21,.28,6.96-3.84,3.56-19.63,15.63-33.93,29.62-46.81,7.6-7,16.31-12.79,26.75-14.87,4.19-.83,8.59-1.02,12.86-.84,4.3,.19,7.78,2.5,10.68,5.78,6.39,7.21,8.03,15.97,8.05,25.1,.03,13.91-2.25,27.49-7,40.61-2.21,6.1-4.19,12.27-6.42,18.36-3.21,8.79-2.42,17.22,1.36,25.69,2.22,4.98,4.31,10.17,5.38,15.48,1.79,8.8,.45,17.5-2.57,25.99-3.4,9.54-7.22,19.02-9.58,28.83-4.27,17.79-5.15,35.86-1.88,54.02,1.37,7.61,5.33,13.92,9.6,20.09,1.89,2.73,3.99,5.34,6.11,7.9,10.24,12.36,16.1,26.73,18.88,42.36,.93,5.21,1.04,10.61,1.12,15.93,.15,9.83-5.3,16.57-13.64,20.36-11.84,5.38-24.43,7.44-37.5,5.2-14.47-2.47-26.25-10.15-37.3-19.15-6.58-5.36-12.86-11.09-19.28-16.65-1.13-.98-2.34-1.87-3.48-2.85-5.04-4.36-10.44-2.63-13.37,1.63-1.41,2.05-3.12,3.9-4.65,5.87-4.95,6.39-11.63,9.31-19.54,9.37-4.13,.03-8.29-.3-12.4-.81-2.11-.26-3.38,.24-4.64,1.91-5.62,7.44-12.89,12.92-21.1,17.23-5.3,2.78-10.51,5.74-15.88,8.38-11.41,5.61-23.44,8.49-36.23,7.48-18.58-1.46-36.7-4.99-53.01-14.42-8.33-4.81-16.46-10.24-23.76-16.48-17.44-14.9-27.13-33.83-27.03-57.19,.01-3.17,0-6.33,0-9.5m10.25,11.88c-.02,17.18,6.7,31.61,19.18,42.93,10.23,9.27,21.66,17.13,34.48,22.7,14.94,6.5,30.71,8.69,46.77,8.56,5.53-.04,11.39-1.19,16.49-3.3,8.57-3.55,16.7-8.18,24.93-12.53,5.8-3.07,11.11-7.03,14.89-12.35,4.59-6.47,9.96-8.69,17.93-7.37,9.65,1.6,18.66-.33,24.48-9.52,.18-.28,.46-.49,.67-.74,7.42-8.7,19.92-8.73,27.09-3.22,3.16,2.43,6.28,4.93,9.31,7.52,6.2,5.31,12.14,10.93,18.51,16.01,7.47,5.96,15.78,10.39,25.23,12.59,10.69,2.49,21.14,1.82,31.45-1.69,7.67-2.61,10.94-7.63,10.2-15.56-.37-3.98-.58-7.99-1.34-11.9-2.65-13.62-7.96-26.03-17.18-36.6-1.75-2.01-3.31-4.18-5.03-6.22-8.82-10.46-13.14-22.81-13.99-36.19-1.58-24.86,1.01-49.13,11.42-72.22,6.12-13.57,8.24-27.43-.27-41.09-.86-1.39-1.27-3.07-1.83-4.63-3.03-8.41-3.52-16.86-.58-25.42,2.8-8.18,5.44-16.41,8.24-24.59,4.02-11.75,6.38-23.79,5.65-36.24-.2-3.39-1.16-6.93-2.58-10.02-2.53-5.5-7.09-7.59-13.07-7-5.38,.54-10.4,1.99-14.98,4.99-18.16,11.89-30.34,28.13-35.92,49.19-2.36,8.91-7.82,13.15-17,12.66-3.62-.19-7.31-.8-10.79-1.83-13.86-4.1-27.71-8.28-41.46-12.73-11.08-3.59-22.38-4.99-33.95-4.61-12.17,.4-23.41,4.64-34.74,8.5-15.6,5.32-28.21,14.65-38.17,27.79-4.82,6.36-10.05,12.43-15.27,18.48-6.95,8.07-15.9,13.12-26.04,15.9-5.69,1.56-10.6,4.3-14.32,8.62-4.32,5.02-8.14,10.51-11.8,16.05-1.18,1.79-1.63,4.37-1.6,6.58,.06,4.98,.37,10,1.05,14.93,1.73,12.35,3.53,24.69,5.67,36.96,1.39,7.95,1.75,15.79,.68,23.82-1.38,10.37-2.23,20.81-3.31,31.22"/>
          <path class="cls-18" d="M775.5,269.5c1.07-8.03,.7-15.87-.68-23.82-2.14-12.28-3.95-24.62-5.67-36.96-.69-4.93-.99-9.95-1.05-14.93-.03-2.21,.42-4.79,1.6-6.58,3.66-5.54,7.48-11.03,11.8-16.05,3.72-4.32,8.62-7.06,14.32-8.62,10.14-2.78,19.09-7.84,26.04-15.9,5.22-6.05,10.45-12.12,15.27-18.48,9.96-13.14,22.57-22.48,38.17-27.79,11.33-3.86,22.57-8.1,34.74-8.5,11.57-.38,22.87,1.03,33.95,4.61,13.75,4.46,27.6,8.64,41.46,12.73,3.48,1.03,7.16,1.63,10.79,1.83,9.19,.49,14.64-3.75,17-12.66,5.58-21.06,17.76-37.3,35.92-49.19,4.58-3,9.6-4.45,14.98-4.99,5.98-.6,10.54,1.5,13.07,7,1.42,3.1,2.38,6.63,2.58,10.02,.73,12.45-1.63,24.49-5.65,36.24-2.8,8.18-5.44,16.41-8.24,24.59-2.93,8.56-2.45,17.02,.58,25.42,.56,1.56,.97,3.25,1.83,4.63,8.51,13.66,6.39,27.52,.27,41.09-10.41,23.09-13,47.36-11.42,72.22,.85,13.38,5.17,25.73,13.99,36.19,1.72,2.04,3.28,4.21,5.03,6.22,9.22,10.57,14.54,22.98,17.18,36.6,.76,3.91,.97,7.92,1.34,11.9,.73,7.94-2.53,12.95-10.2,15.56-10.31,3.51-20.76,4.18-31.45,1.69-9.46-2.2-17.76-6.64-25.23-12.59-6.37-5.08-12.32-10.7-18.51-16.01-3.03-2.6-6.15-5.09-9.31-7.52-7.17-5.51-19.67-5.48-27.09,3.22-.22,.25-.5,.46-.67,.74-5.82,9.19-14.83,11.12-24.48,9.52-7.97-1.32-13.34,.9-17.93,7.37-3.78,5.32-9.1,9.29-14.89,12.35-8.22,4.35-16.36,8.98-24.93,12.53-5.1,2.11-10.96,3.26-16.49,3.3-16.07,.13-31.83-2.07-46.77-8.56-12.82-5.58-24.25-13.43-34.48-22.7-12.48-11.31-19.21-25.75-19.18-42.93,0-3.83-1.01-7.24-1.01-11.07m76.96-43.27c0,.83,.08,1.68-.01,2.5-1.18,10.13,7.45,21.36,18.54,23.26,5.8,.99,10.64,3.55,15.09,7.22,7.13,5.87,15.01,10.32,23.8,13.35,16.36,5.63,31.19,2.82,44.63-7.63,9.48-7.38,14.6-17.21,14.19-29.39-.21-6.14-.89-12.29-1.75-18.37-1.96-13.87-3.66-27.73-1.38-41.73,.88-5.41,1.97-10.8,2.5-16.25,.47-4.78,.9-9.71,.25-14.42-1.27-9.22-7.47-14.51-15.95-17.37-13.27-4.47-25.56-1.44-37.34,5.07-9.89,5.47-16.41,14.11-21.13,23.99-5.8,12.14-14.24,22-24.14,30.84-2.6,2.32-5.27,4.64-7.52,7.29-7.73,9.12-9.73,20.11-9.79,31.65Zm53.28-147.97c-1,0-2.01-.12-2.99,.02-10.91,1.52-20.43,6.35-29.31,12.56-2.43,1.7-4.85,3.57-6.79,5.78-5,5.72-3.28,13.85,3.75,16.01,3.94,1.21,7.05-.67,9.99-2.88,9.51-7.14,18.97-14.35,28.51-21.44,1.28-.96,2.92-1.45,4.42-2.1,.97-.42,2.88-.86,2.85-1.09-.17-1.36-.49-2.93-1.33-3.94-2.34-2.79-5.7-3.05-9.09-2.91Zm131.92,96.6c-.28-1.7-.88-4.28-1.06-6.89-.15-2.13-.34-4.07-2.81-4.57-2.5-.51-4.78-.44-6.85,1.69-3.05,3.12-4.54,6.9-5.45,10.96-1.43,6.41-2.86,12.84-3.87,19.33-.73,4.72-.98,9.54-1.07,14.32-.06,3.11,.66,6.22,.85,9.34,.16,2.61,.04,5.23,2.38,7.08,1.91-1.7,3.85-3.37,5.7-5.14,.45-.43,.64-1.15,.87-1.78,2-5.59,4.27-11.11,5.9-16.81,2.49-8.7,4.81-17.47,5.41-27.54Zm-222.69,12.94c3.74-.01,7.48-2.71,8.35-6.62,2.52-11.32,7.02-21.96,11-32.79,.45-1.24,.88-2.51,1.09-3.8,.44-2.75-.61-4.01-3.24-3.29-3,.82-6.27,1.71-8.63,3.57-9.82,7.75-16.42,17.87-18.79,30.16-1.17,6.09,3.55,12.19,10.22,12.76Zm236.51-124.32c0,2-.13,4.01,.04,5.99,.12,1.46,.57,2.9,.99,4.32,1.04,3.5,4.18,5.5,7.03,4.19,1.42-.65,2.84-1.94,3.58-3.31,1.39-2.59,2.58-5.36,3.34-8.2,1.31-4.91,1.99-10,3.4-14.87,.99-3.43,.52-6.55-.58-9.69-1.34-3.81-2.95-4.79-7.11-4.74-4.06,.05-6.44,1.62-7.61,6.39m-16.72,247.92c-1.78,1.49-3.4,2.39-4.37,3.75-1.58,2.22-1.06,4.74-.06,7.13,4,9.6,10.26,17.35,18.99,23.03,.67,.44,1.75,.25,2.64,.35-.17-.89-.2-1.84-.55-2.66-3.46-8.22-6.97-16.42-10.47-24.62-.45-1.06-.69-2.35-1.44-3.13-1.29-1.35-2.9-2.38-4.75-3.84Zm-17.45-219.18c-.21,4.51,1.38,7.22,4.13,7.95,3.27,.87,5.85-.59,7.43-4.28,.39-.91,.7-1.87,.91-2.84,1.43-6.65,2.79-13.32,4.26-19.96,.39-1.77-.55-2.2-1.83-1.96-1.26,.23-2.64,.67-3.6,1.46-6.43,5.33-9.98,12.31-11.3,19.63Zm26.28,119.02c.14,.02-.3,.23-.16,.25,0,1.49-.11,3,.05,4.48,.08,.7,.69,1.33,1.06,2,.63-.36,1.35-.62,1.86-1.11,.46-.43,.79-1.08,1-1.69,2.67-7.82,5.37-15.62,7.88-23.49,.48-1.52,.57-3.42,.09-4.9-.45-1.37-1.76-3.17-2.96-3.41-1.49-.3-3.5,.48-4.85,1.42-.89,.61-1.26,2.29-1.44,3.55-1.1,7.69-1.5,15.21-2.52,22.92Zm-240.63-44.11c-1.21,0-2.55-.23-3.78,.04-6.91,1.53-16.39,14.99-15.62,22.07,.26,2.35,1.44,4.17,3.8,4.75,2.59,.64,4.02-1,4.98-3.14,3.52-7.83,7.02-15.68,10.62-23.72Zm-9.48,51.43c-6.8,3.67-11.32,14.8-8.99,21.58,.88,2.56,3.36,4.27,5.68,3.92,2.24-.34,3.77-2.11,3.86-5.08,.07-2.3-.47-4.62-.52-6.93-.09-4.44-.03-8.89-.03-13.49Z"/>
          <path class="cls-38" d="M849.01,257.94c.06-11.54,2.06-22.53,9.79-31.65,2.25-2.65,4.91-4.96,7.52-7.29,9.9-8.84,18.34-18.71,24.14-30.84,4.72-9.88,11.24-18.52,21.13-23.99,11.78-6.51,24.07-9.54,37.34-5.07,8.48,2.86,14.68,8.15,15.95,17.37,.65,4.71,.21,9.64-.25,14.42-.53,5.45-1.62,10.84-2.5,16.25-2.28,14-.59,27.86,1.38,41.73,.86,6.09,1.55,12.23,1.75,18.37,.41,12.19-4.7,22.01-14.19,29.39-13.44,10.45-28.28,13.26-44.63,7.63-8.79-3.03-16.68-7.48-23.8-13.35-4.45-3.66-9.29-6.23-15.09-7.22-11.09-1.9-19.72-13.13-18.54-23.26,.1-.82,.01-1.66,.01-2.5Zm6.54-2.37c.42,1.68,.34,4.6,1.74,6.26,4.51,5.36,9.64,10.21,16.45,12.63,6.67,2.37,12.57,5.99,18.11,10.33,5.99,4.69,12.88,7.5,20.16,9.52,12.22,3.4,23.13,.57,32.71-7.25,7.11-5.8,10.65-13.57,9.96-22.85-.46-6.13-1.14-12.28-2.2-18.33-2.84-16.22-3.46-32.36,.22-48.57,1.21-5.32,1.74-10.83,2.08-16.29,.4-6.37-2.76-10.68-8.71-13.12-4.14-1.7-8.35-2.12-12.72-1.49-14.51,2.09-25.42,9.61-32.35,22.42-8.19,15.17-18.92,28.05-32.4,38.79-8.62,6.86-11.78,16.56-13.05,27.93Z"/>
          <path class="cls-6" d="M902.3,109.97c3.39-.14,6.75,.12,9.09,2.91,.85,1.01,1.16,2.58,1.33,3.94,.03,.24-1.87,.67-2.85,1.09-1.5,.65-3.13,1.14-4.42,2.1-9.54,7.1-19,14.3-28.51,21.44-2.95,2.21-6.05,4.09-9.99,2.88-7.03-2.16-8.74-10.29-3.75-16.01,1.94-2.22,4.36-4.08,6.79-5.78,8.88-6.21,18.4-11.04,29.31-12.56,.98-.14,2-.02,2.99-.02Z"/>
          <path class="cls-6" d="M1034.22,206.57c-.6,10.07-2.92,18.84-5.41,27.54-1.63,5.7-3.9,11.21-5.9,16.81-.22,.62-.42,1.35-.87,1.78-1.85,1.77-3.79,3.43-5.7,5.14-2.34-1.85-2.22-4.47-2.38-7.08-.19-3.12-.91-6.23-.85-9.34,.09-4.78,.34-9.6,1.07-14.32,1.01-6.49,2.43-12.91,3.87-19.33,.91-4.06,2.4-7.84,5.45-10.96,2.07-2.12,4.35-2.2,6.85-1.69,2.47,.51,2.66,2.44,2.81,4.57,.19,2.61,.79,5.19,1.06,6.89Z"/>
          <path class="cls-6" d="M811.53,219.51c-6.67-.57-11.39-6.67-10.22-12.76,2.37-12.29,8.96-22.41,18.79-30.16,2.36-1.86,5.63-2.76,8.63-3.57,2.62-.72,3.68,.55,3.24,3.29-.21,1.29-.63,2.57-1.09,3.8-3.97,10.83-8.47,21.47-11,32.79-.87,3.9-4.62,6.6-8.35,6.62Z"/>
          <path class="cls-6" d="M1051.11,75.25c1.17-4.77,3.55-6.34,7.61-6.39,4.16-.05,5.77,.93,7.11,4.74,1.11,3.14,1.57,6.26,.58,9.69-1.41,4.88-2.09,9.96-3.4,14.87-.76,2.83-1.94,5.61-3.34,8.2-.74,1.37-2.16,2.66-3.58,3.31-2.85,1.31-5.99-.69-7.03-4.19-.42-1.42-.86-2.86-.99-4.32-.17-1.98-.04-3.99-.04-5.99"/>
          <path class="cls-14" d="M1034.39,323.17c2.39,1.1,3.46,2.49,4.75,3.84,.75,.79,.98,2.07,1.44,3.13,3.5,8.2,7.01,16.4,10.47,24.62,.34,.82,.37,1.77,.55,2.66-.89-.1-1.97,.09-2.64-.35-8.73-5.68-14.99-13.43-18.99-23.03-1-2.39-1.52-4.91,.06-7.13,.97-1.36,2.13-2.64,4.37-3.75Z"/>
          <path class="cls-14" d="M1016.94,104c1.32-7.33,4.87-14.31,11.3-19.63,.96-.79,2.34-1.23,3.6-1.46,1.28-.24,2.22,.19,1.83,1.96-1.47,6.64-2.83,13.31-4.26,19.96-.21,.97-.52,1.93-.91,2.84-1.58,3.68-4.16,5.15-7.43,4.28-2.75-.73-4.34-3.45-4.13-7.95Z"/>
          <path class="cls-14" d="M1045.74,200.1c.18-1.26,.56-2.93,1.44-3.55,1.35-.93,3.36-1.72,4.85-1.42,1.21,.24,2.51,2.04,2.96,3.41,.48,1.48,.39,3.39-.09,4.9-2.51,7.87-5.21,15.68-7.88,23.49-.21,.61-.54,1.26-1,1.69-.51,.49-1.23,.75-1.86,1.11-.37-.66-.99-1.3-1.06-2-.17-1.48-.05-2.98-.05-4.48"/>
          <path class="cls-5" d="M802.59,178.9c-3.6,8.05-7.1,15.89-10.62,23.72-.96,2.14-2.39,3.78-4.98,3.14-2.35-.58-3.54-2.4-3.8-4.75-.77-7.09,8.71-20.55,15.62-22.07,1.23-.27,2.57-.04,3.78-.04Z"/>
          <path class="cls-5" d="M793.11,230.33c0,4.6-.07,9.05,.03,13.49,.05,2.31,.59,4.63,.52,6.93-.09,2.96-1.62,4.74-3.86,5.08-2.32,.35-4.8-1.37-5.68-3.92-2.32-6.78,2.19-17.91,8.99-21.58Z"/>
        </g>
        <g>
          <path class="cls-26" d="M684.84,176.04c-1.87-3.05-3.41-6.3-4.98-9.53-2.44,.74-5.59-.04-6.84-3.04-5.21-12.46-7-25.74-5.34-39.14,1.24-10,2.9-20.03,2.36-30-4.82-12.79-11.11-24.74-23.93-31.41-10.02-5.22-20.41-9.77-30.8-14.25-4.35-1.87-7.72-4.28-9.88-8.57-4.3-8.54-11.74-12.92-20.8-14.83-6.35-1.34-12.7-2.87-19.13-3.54-9.57-.99-19.22-1.8-28.82-1.73-7.95,.06-15.87,1.62-23.82,2.33-18.58,1.65-36.14,5.92-50.59,18.75-1.69,1.5-3.86,2.85-6.03,3.38-9.61,2.34-16.84,7.95-23.63,14.94-7.82,8.05-13.46,17.02-15.02,28.11-2.42,17.17-8.24,32.89-18.74,46.74-3.42,4.51-7.17,8.76-10.7,13.19-7.92,9.94-15.69,19.85-16.34,33.47-.31,6.58-1.71,13.11-2.73,19.64-.97,6.23-2.4,12.22-3.42,18.88,1.68,.66,3.07,2.12,3.27,4.38,.73,8.27,.83,16.69,1.29,25.05,.17,.24,.34,.51,.48,.81,6.03,12.62,9.64,25.58,8.74,39.66-.06,.89-.35,1.7-.8,2.4,.52,2.39,1,4.78,1.39,7.19,1.1,6.84,3.09,13.04,6.02,18.72,1.87-.39,3.95,.13,5.32,2.1,5.27,7.55,12.26,13.77,17.7,21.25,5.69,7.83,13.77,12.4,22.1,17.08,7.53,4.23,15.35,8.15,23.43,11.23,6.5,2.48,13.43,3.92,18.17,9.44,5.52,6.42,9.18,13.42,18.04,15.67,7.45,1.89,15.45,.76,23.06,1.23,6.97,.43,14.64,1.57,21.48-.3,6.71-1.83,12.56-6.12,19.26-8.11,5.87-1.75,11.95-1.95,18.02-2.12,.46-1.89,2-3.52,4.66-3.72,9.06-.68,17.58-5.22,26.8-3.82,4.42,.67,8.67,2.42,13.14,2.77,4.51,.36,9.16-.27,13.55-1.28,4.09-.94,7.99-2.37,11.97-3.66,3.7-1.2,7.77-1.99,11.04-4.21,5.93-4.03,7.95-11.8,13.51-16.37,.02-.02,.05-.03,.07-.05-.18-2.34,.09-4.73,.61-7.12-.29-1.62,.08-3.4,1.27-4.69,1.34-4.23,3.05-8.41,3.98-12.29,.15-.63,.33-1.25,.51-1.87,.15-2.18,.26-4.36,.5-6.52,.28-2.57,1.95-4.11,3.85-4.62,.52-1.21,1.02-2.43,1.5-3.67,2.13-5.58,3.49-11.36,4.34-17.27,1.74-12.08,6.72-23.15,9.94-34.84,3.46-12.55,4.14-25.8,4.19-38.76,0-1.81,.8-3.11,1.94-3.91-2.17-14.98-6.73-29.44-15.17-43.16Zm-198.09,75.72c-.91,4.01-3.56,4.92-6.12,1.78-5.38-6.59-8.31-14.4-8.8-22.83-.21-3.66,2.02-6.77,6.16-7.24,4.16-.47,6.68,2.12,7.58,5.74,1.19,4.79,1.72,9.74,2.48,14.27-.46,3.07-.71,5.71-1.29,8.28Zm1.17-69.41c-2.56,3.03-6.74,4.33-10.95,2.19-4.09-2.07-5.22-5.74-5.41-11.7,1.06-2.14,2.13-6.26,4.68-9.02,5.85-6.33,12.31-12.33,20.97-14.52,2.83-.72,6.81-.27,9.03,1.34,1.23,.89,.94,5.98-.43,7.99-5.55,8.19-11.5,16.16-17.89,23.71Zm88.23,56.01c-.4,1.28-.99,2.35-1.72,3.26-.6,2.94-2.12,5.62-4.24,8.07-9.17,10.63-20.01,18.22-34.71,17.68-3.77-.14-7.92-1.46-11.11-3.48-4.91-3.1-10.91-4.73-14.3-10.08-1.18-.73-2.33-1.64-3.45-2.77-4.61-4.67-7.32-10.59-6.92-17.14,.54-8.88,2.73-17.64,1.11-26.54-.33-1.84,.25-3.37,1.28-4.46-1.71-.62-3.06-2.12-3.03-4.49,.08-7.39,4.32-16.17,8.99-21.81,4.76-5.75,11.75-7.94,18.75-9.62,13.27-3.17,30.52-4.85,40.44,6.6,3.78,4.37-1.57,10.56-5.76,8.17,0,.07,.01,.13,.01,.19,.15,5.24,.76,10.32,1.81,15.29,1.36,.1,2.64,.87,3.4,2.59,3.12,6.96,4.05,14.3,6.12,21.56,1.52,5.34,5.1,11.26,3.32,16.98Zm43.2-134.64c-9.21-7.21-18.17-14.28-27.2-21.28-3.69-2.86-4.74-6.69-2.9-10.6,1.83-3.88,6.1-4.2,9.65-3.23,3.4,.92,6.78,2.7,9.61,4.84,6.72,5.09,11.96,11.45,14.53,19.7,1.26,4.06,.64,7.49-3.69,10.57Zm41.97,145.6c-2.18,4.21-5.92,7.66-9.22,11.22-.58,.62-2.59,.56-3.54,.05-2.83-1.51-4.06-8.51-2.62-13.41,1.14-3.89,5.01-6.85,8.83-6.76,4.41,.11,8.57,5.01,6.56,8.9Zm1.41-40.34c-5.41,1.51-8.58-3.63-10.31-7.7-4.34-10.19-8.17-20.64-11.49-31.2-1.79-5.69,1.64-12.18,5.83-13.53,5.26-1.69,10.66,.62,12.91,7.28,3.64,10.76,6.19,21.89,9.2,32.87-1.66,4.86-.7,10.77-6.14,12.28Z"/>
          <path class="cls-29" d="M668.86,196.7c-1.66,4.86-.7,10.77-6.14,12.28-5.41,1.51-8.58-3.63-10.31-7.7-4.34-10.19-8.17-20.64-11.49-31.2-1.79-5.69,1.64-12.18,5.83-13.53,5.26-1.69,10.66,.62,12.91,7.28,3.64,10.76,6.19,21.89,9.2,32.87Z"/>
          <path class="cls-29" d="M471.55,172.85c1.06-2.14,2.13-6.26,4.68-9.02,5.85-6.33,12.31-12.33,20.97-14.52,2.83-.72,6.81-.27,9.03,1.34,1.23,.89,.94,5.98-.43,7.99-5.55,8.19-11.5,16.16-17.89,23.71-2.56,3.03-6.74,4.33-10.95,2.19-4.09-2.07-5.22-5.74-5.41-11.7Z"/>
          <path class="cls-29" d="M619.34,103.72c-9.21-7.21-18.17-14.28-27.2-21.28-3.69-2.86-4.74-6.69-2.9-10.6,1.83-3.88,6.1-4.2,9.65-3.23,3.4,.92,6.78,2.7,9.61,4.84,6.72,5.09,11.96,11.45,14.53,19.7,1.26,4.06,.64,7.49-3.69,10.57Z"/>
          <path class="cls-4" d="M488.03,243.49c-.46,3.07-.71,5.71-1.29,8.28-.91,4.01-3.56,4.92-6.12,1.78-5.38-6.59-8.31-14.4-8.8-22.83-.21-3.66,2.02-6.77,6.16-7.24,4.16-.47,6.68,2.12,7.58,5.74,1.19,4.79,1.72,9.74,2.48,14.27Z"/>
          <path class="cls-4" d="M654.76,240.43c4.41,.11,8.57,5.01,6.56,8.9-2.18,4.21-5.92,7.66-9.22,11.22-.58,.62-2.59,.56-3.54,.05-2.83-1.51-4.06-8.51-2.62-13.41,1.14-3.89,5.01-6.85,8.83-6.76Z"/>
          <path d="M365.32,226.45c.29-11.06,2.1-21.32,4.67-31.51,1.04-4.13,1.49-8.48,1.62-12.74,.22-7.29,1.38-14.26,5.55-20.37,3.83-5.62,7.88-11.09,11.95-16.55,4.37-5.86,9.08-11.47,13.25-17.46,7.63-10.95,12.25-23.14,14.04-36.38,1.83-13.48,7.54-24.71,17.58-34.27,6.34-6.04,12.93-10.68,21.33-13.05,2.62-.74,5.2-2.32,7.31-4.1,12.4-10.48,26.88-15.63,42.83-17.3,10.92-1.15,21.8-2.76,32.74-3.52,5.92-.41,11.99,.15,17.91,.92,9.39,1.23,18.74,2.85,28.05,4.61,9.28,1.76,16.79,6.32,21.16,15.03,2.06,4.11,5.36,6.41,9.54,8.21,10.52,4.56,20.97,9.33,31.22,14.47,3.63,1.82,7.08,4.52,9.79,7.55,9.19,10.26,14.94,22.23,17.01,35.95,.82,5.4,.08,10.57-.84,15.82-.6,3.43-1.06,6.88-1.49,10.34-1.08,8.69,.74,16.85,4.67,24.59,3.61,7.11,6.92,14.4,11.01,21.22,8.65,14.46,12.52,30.25,14.4,46.74,1.65,14.47,1.17,28.9-1.21,43.19-1.11,6.66-3.22,13.21-5.5,19.6-6.69,18.74-15.16,36.87-19.11,56.54-1.29,6.42-4.03,12.26-7.07,18.02-5.76,10.88-14.6,17.75-26.35,21.39-13.07,4.05-26.12,4.64-39.39,1.29-3.22-.81-6.55-1.16-9.8-1.84-6.1-1.27-11.85-.07-17.61,1.96-12.07,4.25-24.08,8.76-36.38,12.23-7.94,2.24-16.31,3.34-24.57,4.01-11.15,.9-21.84-1.84-31.97-6.46-5.53-2.52-10.09-6.35-13.7-11.32-1.23-1.69-2.86-3.31-4.68-4.3-6.12-3.33-12.17-7.03-18.69-9.36-12.61-4.5-23.06-11.59-31.41-22.05-3.09-3.87-6.99-7.1-10.5-10.64-3.39-3.43-6.81-6.83-10.09-10.36-7.03-7.55-10.71-16.59-12.31-26.73-1.37-8.67-3.12-17.3-5.15-25.84-1.34-5.63-3.53-11.07-5.24-16.62-3.16-10.25-3.88-20.86-4.58-30.92Zm325.13,10.01c-.29-4.27-.48-10.43-1.18-16.52-1.43-12.44-4.06-24.51-10.6-35.52-4.24-7.13-8.02-14.57-11.57-22.07-5.29-11.15-8.13-22.76-6.03-35.29,.84-5.04,1.35-10.3,.88-15.36-1.13-12.21-5.93-23.13-13.84-32.52-2.09-2.49-4.73-4.85-7.61-6.28-10.12-5.04-20.33-9.96-30.76-14.31-6.44-2.69-11.59-6.34-14.88-12.54-3.02-5.69-8.02-8.9-14.18-10.05-11.45-2.13-22.94-4.06-34.44-5.85-2.93-.45-6-.29-8.98-.02-9.44,.84-18.86,2.01-28.31,2.79-14.45,1.18-27.77,5.22-39.21,14.44-4.21,3.39-8.85,5.87-14.21,6.94-2.7,.54-4.89,1.86-6.61,4.12-3.82,5.03-7.81,9.94-11.7,14.92-3.55,4.53-5.75,9.65-6.9,15.3-1.56,7.64-2.79,15.41-5.19,22.79-5.36,16.5-14.29,31.05-26.14,43.75-7.35,7.88-13.63,16.3-15.83,27.19-.65,3.24-1.86,6.37-2.89,9.53-7.07,21.69-7.02,43.4-.36,65.19,2.62,8.57,5.21,17.16,7.36,25.85,1.71,6.92,2.53,14.06,4.19,20.99,.71,2.98,2.22,5.91,3.94,8.48,4,5.96,8.96,11.09,14.47,15.75,4.17,3.53,8.53,7.12,11.71,11.47,7.02,9.61,15.97,16.32,26.99,20.55,8.16,3.13,15.25,8.06,22.17,13.31,2.75,2.09,5.77,4.01,8.95,5.34,9.93,4.12,20.32,6.21,31.11,6.47,19.11,.45,37.34-3.84,55.28-9.82,3.63-1.21,7.21-2.63,10.91-3.52,8.81-2.11,17.57-1.1,26.15,1.35,12.43,3.55,24.65,2.99,36.8-1.21,5.82-2.01,11.09-5.03,14.52-10.09,4.47-6.58,8.48-13.46,10.04-21.53,1.95-10.13,5.3-19.83,9.28-29.39,4.21-10.11,7.87-20.46,11.3-30.86,4.47-13.58,4.67-27.77,5.36-43.76Z"/>
          <path d="M554.71,159.56c9.5,1.29,16.94,9.21,17.84,18.77,.3,3.14,.59,6.3,.59,9.45-.01,6.63,1.59,12.77,4.78,18.6,4.18,7.64,6.76,15.79,8.05,24.46,1.45,9.79-.24,18.53-6.95,25.99-11.71,13.03-25.73,21.72-43.85,21.32-11.99-.26-21.38-5.5-26.75-16.75-.48-1.01-1.42-1.79-2.09-2.73-2.4-3.38-4.97-6.66-7.12-10.19-3.78-6.21-4.74-12.94-3.5-20.14,.52-3.04,.35-6.27,.05-9.37-.68-7.26-2.23-14.49-2.35-21.75-.34-19.68,13.05-35.03,32.46-37.96,1.48-.22,2.96-.56,4.45-.62,2.83-.1,5.66-.03,8.49-.03m-7.45,10.03c-15.91,.26-28.77,13.1-28.7,29.01,.03,5.78,1.04,11.54,1.34,17.33,.25,4.78,.73,9.68-.04,14.34-.83,4.99-.65,9.55,1.55,14.02,1.9,3.86,3.86,7.7,5.96,11.46,.6,1.08,1.65,2.06,2.72,2.69,3.7,2.2,7.41,4.42,11.29,6.26,2.49,1.18,5.25,2.26,7.95,2.45,15.53,1.07,26.92-6.6,36.63-17.7,4.05-4.63,4.87-9.95,4.08-15.82-1.1-8.12-3.13-15.91-6.99-23.21-3.22-6.1-4.96-12.62-5.05-19.57-.04-2.81-.42-5.62-.69-8.43-.66-6.91-3.84-10.65-10.68-11.81-4.57-.78-9.23-.98-13.85-1.44"/>
          <path d="M513.57,51.05c-.84,.55-1.71,1.06-2.51,1.65-7.78,5.69-15.75,11.07-25,14.15-2.01,.67-4.19,1-6.31,1.1-2.38,.11-4.12-1.16-4.9-3.48-.78-2.34,.07-4.31,1.87-5.74,1.13-.91,2.52-1.68,3.91-2.05,10.08-2.65,20.19-5.2,30.31-7.69,.6-.15,1.4,.51,2.11,.79l.51,1.27Z"/>
          <path d="M455.28,92.45c0,1.79,.3,3.15-.05,4.33-2.44,8.26-5,16.49-7.56,24.72-.34,1.1-.78,2.21-1.42,3.16-1.3,1.94-3.14,2.94-5.56,2.42-2.33-.5-4.04-2.38-4.14-4.97-.06-1.44,.19-3.01,.72-4.35,3.53-8.89,8.55-16.87,15.28-23.72,.61-.62,1.56-.92,2.73-1.58Z"/>
          <path d="M680.22,254.43c-1.26,4.51-2.11,9.18-3.88,13.48-2.78,6.71-6.19,13.15-9.34,19.7-.21,.44-.51,.85-.8,1.26-2.34,3.29-5.15,4.46-7.48,3.11-2.18-1.26-2.42-4.38-.13-8,6.11-9.66,12.37-19.22,18.61-28.79,.39-.6,1.14-.98,1.72-1.46,.43,.23,.87,.46,1.3,.69Z"/>
          <path d="M491.1,70.5c-.35,1.25-.45,2.04-.78,2.72-2.9,5.93-5.82,11.84-8.78,17.74-.51,1.01-1.07,2.33-1.97,2.75-1.38,.65-3.12,1.03-4.61,.81-1.8-.27-2.71-1.93-2.62-3.72,.07-1.61,.22-3.36,.9-4.78,3.27-6.77,8.53-11.67,15.13-15.18,.62-.33,1.49-.2,2.73-.34Z"/>
          <path d="M453.67,349.72c-1.63,0-2.82,.26-3.86-.04-6.63-1.9-11.87-5.77-15.68-11.51-.63-.96-1.14-2.05-1.45-3.15-.69-2.4,.24-4.68,2.17-5.51,2.21-.94,3.92,0,5.2,1.74,1.28,1.73,2.28,3.67,3.57,5.39,3.14,4.2,6.39,8.32,10.05,13.07Z"/>
          <path d="M635.62,350.28c-1.39,1.26-2.59,2.96-4.22,3.7-5.42,2.46-10.97,4.63-16.53,6.77-1.19,.46-2.62,.41-3.94,.42-1.8,.02-3.31-.58-3.68-2.61-.34-1.84,.33-3.36,1.96-4.19,1.31-.67,2.77-1.17,4.21-1.42,5.88-1.03,11.78-1.92,17.67-2.91,1.24-.21,2.45-.58,3.68-.88l.85,1.11Z"/>
          <path d="M397.96,241.2c-1.25-1.61-2.13-2.33-2.46-3.24-2.34-6.43-2.88-13.15-3.03-19.91-.02-1.08,.35-2.48,1.07-3.18,.96-.94,2.5-1.94,3.7-1.83,1.19,.11,2.45,1.4,3.3,2.46,.54,.67,.63,1.91,.51,2.84-.93,7.28-1.95,14.54-3.09,22.86Z"/>
          <path d="M413.4,291.75c-1.35-.43-2.2-.47-2.75-.91-5.06-4-8.47-9.19-10.76-15.16-.18-.46-.32-.94-.39-1.43-.41-2.75,.75-4.82,3.05-5.49,2.06-.6,3.95,.39,5.16,2.77,.37,.73,.62,1.53,.84,2.32,1.55,5.67,3.08,11.34,4.85,17.89Z"/>
        </g>
        <g>
          <path class="cls-38" d="M62.63,15.77c.87,.15,1.05,0,1.57,.17,22.88,7.32,36.42,22.94,41,46.37,2.3,11.79,3.01,23.75,2.94,35.76-.07,12.16-.2,24.27-2.55,36.29-1.37,6.99-.25,13.92,1.84,20.7,2.54,8.26,5.24,16.49,7.42,24.85,2.92,11.2,1.78,22.39-.44,33.63-3.13,15.82-6.83,31.54-8.2,47.68-.75,8.81-.39,17.25,3.81,25.25,1.15,2.2,2.18,4.53,2.77,6.93,.71,2.89,2.38,3.42,5.06,3.42,9.62,.01,18.67-2.64,27.76-5.36,7.61-2.28,15.35-4.17,23.1-5.96,2.72-.63,5.62-.66,8.43-.6,5.81,.12,11.62,.56,17.44,.7,4.35,.11,8.47,1.36,11.51,4.18,6.63,6.12,14.68,7.32,23.07,7.87,13.49,.88,26.96,.54,40.43-.46,13.4-1,26.55,.07,39.36,4.63,17.34,6.18,26.92,18.76,30.65,36.27,1.17,5.46,.6,10.93-1.2,16.25-3.12,9.23-8.18,17.1-16.1,22.92-11.47,8.43-23.85,14.51-38.53,14.44-.66,0-1.32,.18-1.97,.27-8.67,0-17.34-.01-26.02-.02-1.31-.26-2.61-.71-3.92-.74-8.21-.2-15.54-2.94-22.62-6.96-6.62-3.75-13.82-4.29-21.27-2.44-9.51,2.36-19.02,4.75-28.63,6.62-9.15,1.78-18.21,1.23-26.77-3.12-2.66-1.35-5.56-2.2-8.29-3.43-12.23-5.51-24.77-5.88-37.52-2.31-11.19,3.14-22.34,6.44-33.51,9.67-4.22,1.22-8.46,1.5-12.83,.79-2.08-.34-4.29,.08-6.36-.31-3.07-.58-6.42-.96-9.01-2.5-7.7-4.57-15.28-9.42-22.54-14.66-4.77-3.44-8.06-8.49-10.41-13.85-10.41-23.82-14.93-48.51-10.32-74.43,.49-2.76,1.25-5.52,2.25-8.14,3.5-9.19,4.22-18.76,4.23-28.45,.01-9.01-1.06-17.89-2.51-26.79-2.16-13.26-.49-26.27,4.68-38.63,6.8-16.23,7.43-32.85,4.46-49.94-3.22-18.53-5.46-37.19-5.38-56.05,.05-12,2.87-23.25,8.2-34.1,6.88-13.99,18.44-21.34,32.81-25.38,1.48-.42,2.8-.86,4.64-1.08,2.67,0,4.78,.04,7.45,.04Zm36.05,83.51c.31-9.49-1.34-19.1-2.74-28.79-2.34-16.18-9.41-28.93-23.06-38.34-8.31-5.73-16.6-6.96-25.7-3.14-5.94,2.49-12.2,4.59-16.1,10.35-9.25,13.66-11.9,29.01-11.06,45.07,.52,9.91,1.76,19.78,2.82,29.65,.97,9.04,1.83,18.12,3.27,27.09,1.34,8.36,.99,16.64-.97,24.69-2.08,8.5-5.25,16.73-7.88,25.1-3.34,10.6-4.04,21.3-1.89,32.31,1.27,6.47,1.77,13.11,2.21,19.7,.23,3.44-.66,6.93-.63,10.4,.07,8.9-1.45,17.53-4.43,25.83-3.24,9.03-3.94,18.42-4.59,27.82-.58,8.35,1.29,16.52,3.1,24.55,2.73,12.14,7.5,23.58,17.09,31.97,5.07,4.44,11.19,7.68,16.88,11.39,2.08,1.36,4.28,2.53,6.43,3.78,2.46-2.28,4.94,.21,7.35-.03,6.08-.6,12.23-1.08,18.15-2.46,11.42-2.66,22.63-6.29,34.08-8.75,5.9-1.27,12.21-1.51,18.25-1.08,9.32,.66,18.01,4.18,26.51,7.96,6.02,2.68,12.26,4.56,18.82,3.32,7.46-1.41,14.79-3.49,22.19-5.21,5.3-1.23,10.58-3.06,15.95-3.39,9.21-.56,17.6,2.81,25.3,7.68,3.45,2.18,7.12,3.53,11.08,4.09,3.6,.51,7.3,.51,10.86,1.19,10.68,2.06,21.16,.01,31.58-1.66,7.87-1.26,14.22-6.14,20.73-10.45,6.04-3.99,10.36-9.41,12.92-16.06,1.63-4.25,3.09-8.55,1.98-13.49-2.7-12.08-9.72-20.47-20.51-26.04-9.15-4.72-18.96-7-29.16-7.26-6.12-.16-12.26,.55-18.39,.72-12.96,.36-25.87-.3-38.77-1.75-6.3-.71-11.9-2.53-16.82-6.63-3.95-3.29-8.53-4.73-13.84-4.55-11.99,.4-23.56,3.16-35.2,5.63-10.98,2.33-21.66,6.04-33,6.72-4.32,.26-8.25-.41-11.67-2.97-9.64-7.21-14.51-16.96-15.08-28.94-.59-12.36,1.56-24.49,3.36-36.6,1.45-9.78,4.17-19.37,6.27-29.06,1.73-8.02,2.53-16.1,.47-24.16-1.96-7.69-3.87-15.41-6.36-22.93-3.62-10.95-4.83-22.04-2.5-33.3,2.03-9.81,2.71-19.68,2.68-29.99Z"/>
          <path class="cls-20" d="M98.68,99.28c.03,10.31-.65,20.17-2.68,29.99-2.33,11.26-1.11,22.35,2.5,33.3,2.49,7.52,4.4,15.24,6.36,22.93,2.06,8.06,1.26,16.15-.47,24.16-2.1,9.69-4.81,19.28-6.27,29.06-1.8,12.11-3.95,24.24-3.36,36.6,.57,11.98,5.44,21.73,15.08,28.94,3.42,2.56,7.36,3.23,11.67,2.97,11.34-.68,22.02-4.39,33-6.72,11.64-2.47,23.21-5.23,35.2-5.63,5.31-.18,9.89,1.26,13.84,4.55,4.92,4.09,10.51,5.92,16.82,6.63,12.9,1.45,25.81,2.1,38.77,1.75,6.14-.17,12.27-.88,18.39-.72,10.2,.27,20.01,2.54,29.16,7.26,10.79,5.57,17.81,13.97,20.51,26.04,1.11,4.95-.35,9.24-1.98,13.49-2.56,6.65-6.88,12.07-12.92,16.06-6.51,4.31-12.87,9.19-20.73,10.45-10.42,1.67-20.9,3.71-31.58,1.66-3.56-.69-7.26-.68-10.86-1.19-3.96-.57-7.63-1.91-11.08-4.09-7.7-4.87-16.09-8.24-25.3-7.68-5.37,.33-10.65,2.15-15.95,3.39-7.4,1.72-14.73,3.8-22.19,5.21-6.56,1.24-12.8-.65-18.82-3.32-8.5-3.77-17.18-7.29-26.51-7.96-6.04-.43-12.35-.18-18.25,1.08-11.46,2.46-22.66,6.09-34.08,8.75-5.92,1.38-12.08,1.86-18.15,2.46-2.41,.24-4.88-2.26-7.35,.03-2.15-1.25-4.35-2.42-6.43-3.78-5.69-3.71-11.81-6.95-16.88-11.39-9.59-8.39-14.36-19.83-17.09-31.97-1.81-8.04-3.68-16.2-3.1-24.55,.65-9.4,1.35-18.79,4.59-27.82,2.98-8.31,4.5-16.94,4.43-25.83-.03-3.47,.86-6.96,.63-10.4-.44-6.59-.94-13.24-2.21-19.7-2.15-11-1.45-21.71,1.89-32.31,2.63-8.37,5.8-16.6,7.88-25.1,1.97-8.05,2.31-16.33,.97-24.69-1.44-8.97-2.3-18.05-3.27-27.09-1.05-9.87-2.3-19.75-2.82-29.65-.84-16.06,1.81-31.4,11.06-45.07,3.9-5.76,10.15-7.86,16.1-10.35,9.1-3.82,17.39-2.58,25.7,3.14,13.64,9.41,20.71,22.16,23.06,38.34,1.4,9.7,3.05,19.3,2.74,28.79Zm-12.4-30.12c-.89-4.84-1.31-9.83-2.79-14.48-1.55-4.87-4.26-9.34-8.79-12.27-4.18-2.71-10.02-2.09-13.15,1.2-2.89,3.03-2.17,6.4-.96,9.73,1.34,3.72,2.76,7.43,4.47,10.99,3.36,7,6.47,14.19,11.75,20.06,2.65,2.95,3.29,2.89,5.52-.49,2.91-4.43,3.6-9.46,3.95-14.74Zm199.42,269.4c5.12-.57,8-2.82,9.73-7.94,1.22-3.63-.59-9.05-4.12-11.43-10.42-7.01-21.33-6.73-32.42-1.8-2.36,1.05-3.81,3.09-4.09,5.75-.4,3.92,2.83,7.45,7.26,7.73,3.15,.19,6.33-.16,9.47,.11,3.31,.28,6.74,.14,8.63,4.22,.75,1.63,3.63,2.27,5.55,3.36ZM93.13,184.89c-.44-3.75-1.05-7.49-1.28-11.25-.29-4.56-1.74-8.69-4.01-12.57-1.27-2.18-5.58-4.4-7.45-3.94-2.85,.7-5.35,3.66-5.56,6.92-.15,2.48-.32,5.04,.09,7.46,1.85,10.81,3.93,21.58,5.86,32.37,.37,2.09,1.49,3.01,3.37,2.27,1.6-.63,3.41-1.51,4.37-2.82,3.97-5.47,4.43-11.88,4.61-18.42Zm88.52,123.52c-4.34,.72-8.11,1.09-11.75,2.01-3.48,.88-6.94,2.05-10.17,3.59-3.24,1.54-4.86,5.92-3.85,8.89,.78,2.3,4.65,3.62,8.26,2.8,.32-.07,.6-.29,.91-.41,9.06-3.39,18.14-6.74,27.17-10.22,.94-.36,1.59-1.44,2.38-2.19-.8-.74-1.49-1.9-2.42-2.15-3.61-.96-7.3-1.63-10.53-2.32Zm-160.46-5.1c-.51,.38-.94,.53-1.01,.78-2.47,9.04-2.68,18.22-1.23,27.42,.27,1.71,1.18,3.55,2.36,4.81,.84,.9,2.82,1.53,3.92,1.17,1.11-.36,2.12-1.99,2.52-3.27,.42-1.36,.33-3.01,.03-4.44-1.71-8.21-3.52-16.39-5.37-24.57-.15-.68-.8-1.26-1.22-1.89Zm12.44-236.39c.21-2.96,.43-5.91,.63-8.87,.06-.92,.06-1.85,.09-2.77-1.03,.33-2.27,.41-3.05,1.05-.98,.8-1.76,1.98-2.33,3.14-2.54,5.16-2.79,10.8-3.08,16.38-.07,1.35,.68,2.95,1.53,4.07,.7,.92,2.09,1.72,3.21,1.77,.62,.03,1.73-1.51,1.91-2.48m-4.29,119.13l-1.25,.13c-2.71,5.9-3.53,12.16-3.27,18.62,.08,2.1-.4,4.56,2.79,4.84,1.85,.16,3.25-2.22,3.17-5.23,0-.16-.03-.33-.04-.49-.28-4.59-.54-9.18-.85-13.77-.09-1.37-.35-2.73-.54-4.09Zm13.06-134.12c-.23,2.08,.68,4.02,2.86,4.18,1.16,.08,2.67-1.41,3.62-2.53,.67-.8,.74-2.15,.97-3.27,.53-2.57,1.05-5.15,1.47-7.74,.14-.88,0-1.8-.01-2.71-.91,.2-2.04,.12-2.69,.65-3.58,2.89-6.51,6.22-6.22,11.42Zm251.59,308.71l.07,.36c2.42-.45,4.91-.68,7.25-1.4,3.11-.95,4.96-3.44,4.34-5.22-.67-1.91-3.5-2.53-6.62-1.25-2.45,1-4.85,2.16-7.2,3.4-1.33,.7-2.51,1.68-3.76,2.54,1.47,.52,2.93,1.08,4.42,1.54,.46,.14,.99,.02,1.49,.02Z"/>
          <path class="cls-7" d="M86.28,69.16c-.35,5.28-1.04,10.31-3.95,14.74-2.22,3.38-2.86,3.44-5.52,.49-5.28-5.87-8.39-13.06-11.75-20.06-1.71-3.56-3.13-7.27-4.47-10.99-1.2-3.33-1.92-6.7,.96-9.73,3.14-3.29,8.98-3.9,13.15-1.2,4.52,2.93,7.23,7.39,8.79,12.27,1.48,4.65,1.9,9.64,2.79,14.48Z"/>
          <path class="cls-7" d="M285.71,338.56c-1.91-1.09-4.79-1.73-5.55-3.36-1.89-4.09-5.32-3.94-8.63-4.22-3.14-.27-6.32,.09-9.47-.11-4.43-.27-7.66-3.81-7.26-7.73,.27-2.66,1.72-4.7,4.09-5.75,11.08-4.92,22-5.21,32.42,1.8,3.53,2.38,5.34,7.79,4.12,11.43-1.73,5.12-4.6,7.37-9.73,7.94Z"/>
          <path class="cls-2" d="M93.13,184.89c-.19,6.54-.64,12.95-4.61,18.42-.96,1.32-2.77,2.19-4.37,2.82-1.88,.75-3-.17-3.37-2.27-1.92-10.8-4.01-21.56-5.86-32.37-.41-2.42-.24-4.98-.09-7.46,.2-3.26,2.71-6.22,5.56-6.92,1.88-.46,6.18,1.76,7.45,3.94,2.27,3.89,3.72,8.01,4.01,12.57,.24,3.76,.84,7.5,1.28,11.25Z"/>
          <path class="cls-2" d="M181.65,308.41c3.23,.69,6.92,1.36,10.53,2.32,.93,.25,1.62,1.41,2.42,2.15-.79,.75-1.44,1.83-2.38,2.19-9.03,3.47-18.11,6.83-27.17,10.22-.31,.12-.59,.33-.91,.41-3.62,.82-7.48-.5-8.26-2.8-1.01-2.97,.61-7.34,3.85-8.89,3.23-1.54,6.7-2.71,10.17-3.59,3.63-.92,7.41-1.3,11.75-2.01Z"/>
          <path class="cls-14" d="M21.2,303.31c.42,.64,1.07,1.21,1.22,1.89,1.85,8.18,3.66,16.36,5.37,24.57,.3,1.43,.39,3.08-.03,4.44-.4,1.28-1.41,2.91-2.52,3.27-1.11,.36-3.08-.27-3.92-1.17-1.18-1.26-2.09-3.1-2.36-4.81-1.45-9.2-1.24-18.37,1.23-27.42,.07-.25,.5-.4,1.01-.78Z"/>
          <path class="cls-36" d="M32.54,79.2c-.17,.96-1.28,2.5-1.91,2.48-1.12-.05-2.51-.84-3.21-1.77-.85-1.12-1.6-2.72-1.53-4.07,.29-5.58,.54-11.22,3.08-16.38,.57-1.16,1.35-2.33,2.33-3.14,.78-.64,2.02-.72,3.05-1.05-.03,.92-.03,1.85-.09,2.77-.2,2.96-.42,5.91-.63,8.87"/>
          <path class="cls-14" d="M28.25,198.33c.18,1.36,.44,2.72,.54,4.09,.32,4.59,.57,9.18,.85,13.77,.01,.16,.03,.33,.04,.49,.09,3.01-1.32,5.39-3.17,5.23-3.19-.27-2.71-2.74-2.79-4.84-.25-6.46,.56-12.72,3.27-18.62l1.25-.13Z"/>
          <path class="cls-12" d="M41.31,64.21c-.29-5.2,2.64-8.53,6.22-11.42,.65-.52,1.78-.45,2.69-.65,.01,.9,.16,1.83,.01,2.71-.42,2.59-.94,5.17-1.47,7.74-.23,1.12-.3,2.47-.97,3.27-.95,1.12-2.45,2.61-3.62,2.53-2.17-.16-3.08-2.1-2.86-4.18Z"/>
          <path class="cls-33" d="M292.9,372.92c-.5,0-1.04,.12-1.49-.02-1.49-.46-2.95-1.02-4.42-1.54,1.25-.86,2.43-1.84,3.76-2.54,2.35-1.23,4.75-2.39,7.2-3.4,3.12-1.28,5.95-.66,6.62,1.25,.62,1.78-1.23,4.27-4.34,5.22-2.34,.72-4.83,.95-7.25,1.4l-.07-.36Z"/>
        </g>
        <g>
          <path class="cls-21" d="M2566.61,15.97c4.71,0,9.43,0,14.14,.01,14.61,.95,28.39,4.88,41.79,10.75,10.69,4.68,19.28,11.83,26.53,20.67,10.43,12.73,16.26,27.37,16.96,43.92,.24,5.65,.9,11.32,.61,16.94-.54,10.17-5.21,18.85-11.38,26.65-4.74,5.99-14.5,7.81-21.43,4.47-5.4-2.59-9.61-6.56-12.74-11.63-1.75-2.82-3.65-5.64-4.82-8.71-3.04-7.97-9.46-12.81-16.11-17.04-6.43-4.09-14-5.16-21.66-4.38-5.47,.55-10.98,.97-16.37,1.98-7.69,1.45-14.89,.23-21.91-2.85-6.76-2.96-13.66-4.93-21.2-4.96-18.87-.08-36.77,9.25-43.48,28.71-4.68,13.57-5.88,27.17-2.97,41.2,1.25,6.04,4.33,10.98,8.66,15.38,11.69,.1,23.1-1.43,33.92-6.5,11.73-5.5,23.72-10.47,35.39-16.08,9.36-4.5,19.03-4.3,28.84-3.06,19.43,2.46,37.1,10.18,52.74,21.32,23.54,16.78,36.53,39.48,34.21,69.59-.8,10.41,.07,20.94,.2,31.42,.16,12.32,.53,24.65,.46,36.97-.06,9.48-.52,18.97-1.08,28.44-.4,6.71-3.39,12.42-7.83,17.43-4.47,5.05-9.61,9.25-15.67,12.19-10.3,5-20.67,9.84-31.03,14.73-8.54,4.03-17.43,6.44-26.99,6.01-8.85-.4-17.58,.77-26.37,1.8-20.61,2.42-41.12,2.21-61.51-2.84-5.82-1.44-12.37-1.41-18.33-.46-15.47,2.49-30.11,.32-44.5-5.42-8.79-3.51-17.67-6.81-26.64-9.82-17.93-6.02-28.58-18.67-34.01-36.32-3.51-11.41-2.8-22.73,1.06-33.84,3.58-10.32,11.11-17.2,20.65-22.02,11.78-5.96,24.19-8.21,37.31-5.99,5.08,.86,10.25,1.32,15.24,2.56,11.56,2.88,19.53,10.26,24.79,20.78,1.71,3.42,3.49,6.8,5.27,10.18,5.54,10.46,15.09,13.94,26.06,14.64,4.81,.31,9.66,.07,14.5,.04,7.66-.04,14.81,1.83,21.46,5.62,3.18,1.81,6.33,3.67,9.55,5.41,5.17,2.78,10.62,3.57,16.42,2.39,10.15-2.07,19.57-5.32,26.14-14.08,3.66-4.88,6.28-10.09,7.16-16.23,.82-5.76,2.56-11.18,5.54-16.39,3.27-5.73,6.36-11.92,7.69-18.3,1.87-8.92-.35-17.67-6.5-24.73-2.98-3.41-7.56-4-11.98-4.06-5.33-.07-10.66-.03-15.99-.07-6.18-.05-11.53-2.14-15.26-7.16-3.67-4.94-8.53-6.45-14.38-6.43-17.41,.04-34.51,2.06-51.27,6.97-21.47,6.28-42.74,5.43-63.59-2.73-10.16-3.98-19.37-9.71-27.07-17.47-9.73-9.81-13.14-22.49-15.12-35.65-3.45-22.87-.12-45.12,6.44-67.04,2.95-9.86,5.9-19.71,8.8-29.58,.37-1.26,.76-2.64,.63-3.91-1.66-15.66,5-27.71,16.25-37.81,14.72-13.22,31.66-19.18,51.46-15.78,5.91,1.01,11.81,2.04,17.7,3.17,9.88,1.89,19.66,.24,29.27-1.49,9.45-1.7,18.68-4.6,28-6.99,5.79-1.48,11.57-3,17.35-4.49Zm-169.38,148.03c.54,5.96,.82,11.96,1.67,17.87,1.74,12.13,5.71,23.24,15.54,31.45,15.3,12.75,33.07,18.74,52.78,19.61,9.47,.42,18.4-2.09,27.44-4.38,10.29-2.6,20.69-4.9,31.16-6.63,7.19-1.19,14.57-1.27,21.87-1.68,8.36-.48,15.88,1.29,21.34,8.38,1.81,2.36,4.36,3.52,7.38,3.62,6.65,.2,13.31,.32,19.95,.72,7.11,.43,13.79,2.88,17.68,8.89,8.07,12.48,10.94,25.73,4.28,40.16-4.22,9.15-7.82,18.57-8.82,28.9-.68,7.05-4.11,13.31-9.47,18.27-9.08,8.41-19.87,13.25-32.03,14.96-4.07,.57-8.27,.69-12.38,.45-6.56-.38-11.89-4.09-17.25-7.41-7.47-4.62-15.45-6.82-24.23-6.29-3.65,.22-7.34,.29-10.99,.08-14.29-.82-26.22-5.86-33.42-19.14-1.66-3.07-3.29-6.18-5.19-9.1-1.99-3.05-4.08-6.09-6.49-8.8-5.3-5.94-12.63-7.66-20.05-9.18-13.97-2.86-27.47-1.95-40.32,4.71-7.01,3.63-12.79,8.52-15.8,16-9.79,24.3,3.87,49.62,23.76,57.52,13.75,5.46,27.73,10.31,41.63,15.38,8.33,3.04,16.82,3.21,25.58,2.04,8.55-1.15,17.24-2.22,25.79,.18,8.56,2.41,17.25,3.5,26.13,3.35,8.49-.14,17.03,.29,25.48-.37,12.41-.96,24.7-3.88,37.25-1.72,.8,.14,1.66,0,2.49-.11,7.15-.92,13.99-2.93,20.48-6.04,9.59-4.59,19.21-9.14,28.65-14.04,8.63-4.48,16.19-10.28,18.32-20.51,1.11-5.35,1.75-10.86,1.96-16.32,.37-9.65,.38-19.33,.29-28.99-.06-6.31-.64-12.62-.88-18.94-.33-8.64-.62-17.28-.82-25.93-.19-8.13,.58-16.37-.52-24.36-2.63-19.19-12.78-34.34-28.55-45.05-10.54-7.16-21.94-13.25-34.31-17.08-16.14-4.99-31.82-7.04-47.78,1.88-11.41,6.38-23.89,10.87-35.97,16.03-7.28,3.12-14.93,4.81-22.89,3.79-2.88-.37-6.24-.93-8.36-2.65-5.83-4.73-10.83-10.33-12.9-17.89-3.77-13.69-2.89-27.35,.61-40.91,2.3-8.91,5.58-17.44,11.73-24.52,13.08-15.06,30.3-18.45,48.98-16.52,5.67,.58,11.1,3.3,16.68,4.85,3.49,.97,7.11,2.35,10.61,2.2,6.95-.3,13.86-1.63,20.8-2.37,17.24-1.84,32.04,2.03,41.44,18.12,2.6,4.45,5.12,8.95,7.49,13.52,2.51,4.83,5.83,8.91,10.36,11.93,4.2,2.79,9.76,2.3,13.13-1.49,4.59-5.15,8.02-11,9.29-17.93,1.6-8.69-.22-17.18-1.05-25.79-1.48-15.39-8.89-27.67-18.8-38.82-4.81-5.41-10.54-9.6-17.07-12.81-12.23-6.02-25.15-9.33-38.63-11.09-9.18-1.2-17.88-.16-26.5,2.89-3.91,1.38-7.92,2.5-11.88,3.74-14.23,4.48-28.79,7.29-43.71,6.56-8.59-.42-17.18-1.96-25.63-3.67-8.36-1.69-16.65-1.44-24.78,.23-12.02,2.47-21.62,9.43-29.22,18.84-6.94,8.59-10.42,18.4-8.15,29.7,.35,1.73,.15,3.68-.25,5.43-1.58,6.79-3.24,13.57-5.07,20.29-5,18.34-9.28,36.78-9.85,55.97Z"/>
          <path class="cls-9" d="M2397.23,164c.57-19.18,4.84-37.63,9.85-55.97,1.84-6.72,3.49-13.5,5.07-20.29,.41-1.74,.6-3.7,.25-5.43-2.27-11.3,1.21-21.11,8.15-29.7,7.61-9.41,17.2-16.37,29.22-18.84,8.13-1.67,16.42-1.93,24.78-.23,8.45,1.71,17.04,3.25,25.63,3.67,14.92,.73,29.48-2.08,43.71-6.56,3.96-1.25,7.97-2.36,11.88-3.74,8.62-3.04,17.31-4.09,26.5-2.89,13.49,1.76,26.4,5.07,38.63,11.09,6.53,3.21,12.26,7.4,17.07,12.81,9.91,11.15,17.32,23.43,18.8,38.82,.83,8.61,2.64,17.1,1.05,25.79-1.27,6.93-4.7,12.78-9.29,17.93-3.37,3.79-8.93,4.28-13.13,1.49-4.53-3.01-7.85-7.1-10.36-11.93-2.37-4.57-4.89-9.07-7.49-13.52-9.4-16.09-24.2-19.96-41.44-18.12-6.94,.74-13.85,2.07-20.8,2.37-3.5,.15-7.12-1.23-10.61-2.2-5.59-1.55-11.02-4.26-16.68-4.85-18.69-1.93-35.91,1.47-48.98,16.52-6.15,7.08-9.43,15.61-11.73,24.52-3.5,13.56-4.38,27.21-.61,40.91,2.08,7.56,7.08,13.16,12.9,17.89,2.12,1.72,5.48,2.28,8.36,2.65,7.95,1.02,15.6-.68,22.89-3.79,12.07-5.17,24.55-9.65,35.97-16.03,15.96-8.92,31.64-6.88,47.78-1.88,12.37,3.83,23.76,9.92,34.31,17.08,15.78,10.71,25.92,25.87,28.55,45.05,1.1,7.99,.33,16.24,.52,24.36,.2,8.64,.49,17.29,.82,25.93,.24,6.31,.82,12.62,.88,18.94,.1,9.66,.08,19.34-.29,28.99-.21,5.46-.84,10.97-1.96,16.32-2.13,10.23-9.69,16.03-18.32,20.51-9.44,4.9-19.05,9.45-28.65,14.04-6.49,3.1-13.33,5.12-20.48,6.04-.82,.11-1.69,.25-2.49,.11-12.55-2.16-24.84,.76-37.25,1.72-8.45,.65-16.98,.23-25.48,.37-8.88,.15-17.57-.94-26.13-3.35-8.55-2.41-17.24-1.33-25.79-.18-8.75,1.17-17.25,1-25.58-2.04-13.9-5.07-27.89-9.92-41.63-15.38-19.89-7.9-33.55-33.22-23.76-57.52,3.01-7.48,8.8-12.37,15.8-16,12.85-6.66,26.35-7.58,40.32-4.71,7.41,1.52,14.75,3.23,20.05,9.18,2.42,2.71,4.51,5.75,6.49,8.8,1.9,2.92,3.53,6.03,5.19,9.1,7.19,13.28,19.13,18.32,33.42,19.14,3.65,.21,7.34,.14,10.99-.08,8.78-.53,16.76,1.66,24.23,6.29,5.36,3.32,10.69,7.03,17.25,7.41,4.11,.24,8.31,.12,12.38-.45,12.16-1.71,22.95-6.55,32.03-14.96,5.36-4.96,8.78-11.22,9.47-18.27,1-10.33,4.6-19.75,8.82-28.9,6.66-14.43,3.79-27.68-4.28-40.16-3.89-6.01-10.56-8.46-17.68-8.89-6.64-.4-13.3-.51-19.95-.72-3.02-.09-5.57-1.26-7.38-3.62-5.46-7.09-12.98-8.86-21.34-8.38-7.3,.42-14.69,.5-21.87,1.68-10.47,1.73-20.87,4.03-31.16,6.63-9.05,2.28-17.98,4.79-27.44,4.38-19.71-.87-37.48-6.86-52.78-19.61-9.84-8.2-13.8-19.32-15.54-31.45-.85-5.92-1.13-11.91-1.67-17.87Zm56.87,154.17c-1.75-3.48-2.97-7.18-5.2-10.09-4.17-5.42-9.41-9.85-15.51-13.04-4.61-2.41-9.39-3.17-14.19-.22-4.57,2.81-4.94,8.44-.5,11.28,4.04,2.59,8.25,4.92,12.48,7.2,4.07,2.19,8.12,4.53,12.43,6.11,3.03,1.11,6.6,2.56,10.49-1.23Zm182.57-6.81c.11-7.59-3.32-12-8.43-12.29-5.06-.28-9.13,3.5-9.52,9.35-.53,7.93-.76,15.87-1.07,23.81-.11,2.68-.3,5.7,2.97,6.64,2.89,.83,4.99-1.17,6.89-3.11,.35-.35,.65-.75,.95-1.15,5.41-7.33,6.18-16.21,8.23-23.25Zm-6.32-83.96c.14-1.57,.34-2.54,.3-3.5-.29-8.73-12.49-20.98-18.77-23.55-2.85-1.16-6.75,.26-7.98,2.43-1.38,2.43-.91,5.88,1.2,8.2,.66,.73,1.45,1.36,2.23,1.97,2.59,2.04,5.13,4.15,7.83,6.03,4.56,3.17,8.97,6.67,15.18,8.41Zm-195.52-40.87c2.16-9.45,2.18-17.88,1.67-26.28-.22-3.57-3.05-5.33-6.7-5.21-3.11,.11-5.4,1.37-5.92,4.95-1.19,8.12-.98,16.23,5,22.81,1.33,1.47,3.47,2.21,5.96,3.72Zm190.85-131.27c-.03-.27-.03-.78-.16-1.25-1.52-5.78-14.41-14.52-20.42-13.77-3.44,.43-6.9,3.96-4.13,7.37,4.84,5.95,10.4,11.13,18.12,13.17,3.47,.92,6.7-1.75,6.59-5.51Zm-224.46,293.34c-1.81-4.21-3.43-7.25-4.43-10.49-2-6.49-3.59-13.1-5.49-19.62-.97-3.31-2.84-4.71-5.19-4.34-2.25,.35-3.82,2.49-4.05,5.59-.05,.65,.02,1.33,.12,1.98,1.64,10.72,6.98,19.21,15.58,25.7,.6,.45,1.48,.52,3.46,1.17Zm19.15-152.71c-1.48-4.83-2.99-9.5-4.31-14.24-.67-2.39-.91-4.9-1.47-7.33-.77-3.34-2.85-5.28-5.25-5.08-2.6,.22-4.9,2.99-4.5,6.24,.88,7.29,3.47,13.87,9.33,18.72,1.79,1.48,3.77,2.73,6.21,1.68Zm217.07,22.92c-.32-2.76-.39-4.66-.79-6.5-1.27-5.93-4.72-10.49-9.34-14.22-1.86-1.5-4-1.73-5.9-.09-1.64,1.41-1.32,4.16,.56,6.2,.56,.61,1.28,1.06,1.85,1.66,3.53,3.71,7.02,7.46,10.58,11.14,.57,.59,1.45,.89,3.03,1.81Zm-204.08-163.29c-3.52-.3-4.27-.26-5.94,1.36-3.51,3.41-5.26,7.58-4.98,12.53,.15,2.59,1.61,4.07,4.03,4.25,2.5,.18,3.2-1.58,3.62-3.81,.9-4.69,2.1-9.33,3.26-14.33Zm52.16-3.45c-5.19-2.76-8.17-3.82-11.06-2.88-1.46,.48-3.12,1.99-3.59,3.39-.38,1.16,.44,3.39,1.47,4.22,3.86,3.11,11.52,.21,13.18-4.74Zm-35.58,5.8c-5.27,.73-8.8,2.45-11.35,5.95-1.13,1.55-1.03,3.36,.59,4.38,.86,.54,2.96,.6,3.44,.02,2.44-3.01,4.52-6.3,7.33-10.35Zm190.53,46.93c2.66-3.35,2.47-6.3,2.19-9.21-.19-1.96-1.07-3.81-3.38-3.31-2.18,.47-2.6,2.27-1.83,4.32,.92,2.44,1.81,4.89,3.02,8.2Z"/>
          <path class="cls-1" d="M2454.1,318.17c-3.89,3.79-7.46,2.34-10.49,1.23-4.31-1.58-8.36-3.92-12.43-6.11-4.23-2.28-8.44-4.61-12.48-7.2-4.44-2.84-4.07-8.47,.5-11.28,4.8-2.95,9.58-2.19,14.19,.22,6.1,3.19,11.35,7.62,15.51,13.04,2.24,2.91,3.46,6.61,5.2,10.09Z"/>
          <path class="cls-1" d="M2636.67,311.36c-2.05,7.04-2.81,15.92-8.23,23.25-.3,.4-.6,.8-.95,1.15-1.9,1.94-3.99,3.94-6.89,3.11-3.26-.93-3.07-3.96-2.97-6.64,.31-7.94,.55-15.89,1.07-23.81,.39-5.85,4.46-9.64,9.52-9.35,5.11,.29,8.54,4.7,8.43,12.29Z"/>
          <path class="cls-1" d="M2630.36,227.39c-6.22-1.74-10.62-5.24-15.18-8.41-2.7-1.88-5.24-4-7.83-6.03-.78-.61-1.56-1.24-2.23-1.97-2.11-2.32-2.58-5.77-1.2-8.2,1.23-2.16,5.13-3.59,7.98-2.43,6.29,2.56,18.48,14.81,18.77,23.55,.03,.96-.16,1.92-.3,3.5Z"/>
          <path class="cls-1" d="M2434.84,186.53c-2.49-1.51-4.62-2.26-5.96-3.72-5.98-6.58-6.18-14.69-5-22.81,.52-3.58,2.81-4.84,5.92-4.95,3.65-.13,6.48,1.64,6.7,5.21,.52,8.4,.5,16.83-1.67,26.28Z"/>
          <path class="cls-1" d="M2625.68,55.26c.1,3.76-3.12,6.43-6.59,5.51-7.72-2.04-13.28-7.22-18.12-13.17-2.77-3.41,.69-6.94,4.13-7.37,6.02-.75,18.9,7.99,20.42,13.77,.12,.47,.13,.98,.16,1.25Z"/>
          <path class="cls-31" d="M2401.22,348.61c-1.98-.65-2.86-.72-3.46-1.17-8.6-6.49-13.94-14.99-15.58-25.7-.1-.65-.16-1.32-.12-1.98,.23-3.1,1.79-5.24,4.05-5.59,2.35-.37,4.22,1.02,5.19,4.34,1.9,6.52,3.49,13.13,5.49,19.62,1,3.23,2.62,6.28,4.43,10.49Z"/>
          <path class="cls-3" d="M2420.37,195.89c-2.44,1.05-4.42-.2-6.21-1.68-5.86-4.85-8.44-11.43-9.33-18.72-.39-3.24,1.9-6.02,4.5-6.24,2.4-.2,4.48,1.74,5.25,5.08,.56,2.43,.8,4.94,1.47,7.33,1.32,4.73,2.84,9.41,4.31,14.24Z"/>
          <path class="cls-3" d="M2637.44,218.82c-1.57-.92-2.45-1.22-3.03-1.81-3.56-3.68-7.05-7.43-10.58-11.14-.57-.6-1.29-1.05-1.85-1.66-1.88-2.04-2.2-4.78-.56-6.2,1.9-1.64,4.04-1.41,5.9,.09,4.62,3.73,8.07,8.3,9.34,14.22,.39,1.84,.46,3.74,.79,6.5Z"/>
          <path class="cls-10" d="M2433.37,55.53c-1.16,5-2.36,9.64-3.26,14.33-.43,2.23-1.13,3.99-3.62,3.81-2.42-.18-3.88-1.66-4.03-4.25-.28-4.96,1.47-9.13,4.98-12.53,1.66-1.62,2.42-1.66,5.94-1.36Z"/>
          <path class="cls-11" d="M2485.53,52.08c-1.66,4.95-9.32,7.84-13.18,4.74-1.03-.83-1.85-3.06-1.47-4.22,.46-1.41,2.12-2.92,3.59-3.39,2.89-.94,5.87,.12,11.06,2.88Z"/>
          <path class="cls-19" d="M2449.95,57.88c-2.8,4.05-4.89,7.34-7.33,10.35-.47,.59-2.57,.53-3.44-.02-1.62-1.01-1.72-2.83-.59-4.38,2.55-3.5,6.08-5.22,11.35-5.95Z"/>
          <path class="cls-8" d="M2640.48,104.81c-1.22-3.3-2.1-5.76-3.02-8.2-.77-2.05-.35-3.85,1.83-4.32,2.31-.5,3.19,1.35,3.38,3.31,.28,2.91,.47,5.86-2.19,9.21Z"/>
        </g>
        <g>
          <path class="cls-21" d="M1448.77,0c.65,.35,1.42,.13,2.11,.26,7.51,1.42,15.04,2.71,22.55,4.16,14.07,2.72,22.4,11.57,26.32,24.98,1.88,6.43,2.67,12.94,2.29,19.71-1.33,23.17-4.91,46-10.37,68.51-3.68,15.17-3.25,29.9,1.63,44.71,3.35,10.15,5.61,20.66,3.81,31.42-.92,5.52-2.85,10.88-4.51,16.26-1.36,4.43-3.04,8.77-4.49,13.18-3.2,9.69-3.5,19.58-1.91,29.59,3.51,22.18,7.27,44.33,10.42,66.56,1.73,12.18,2.85,24.49,3.45,36.77,.58,11.94-4.44,22.01-12.85,30.34-3.63,3.6-8.21,5.71-13.18,6.71-5.87,1.18-11.8,1.99-17.7,3.03-.84,.15-2.04-.21-2.84,.15-1.93,.44-3.08,.44-5.08,.44-1.58,0-3.61-1.07-5.25-1.35-4.82-.82-9.26-2.47-13.54-4.84-8.28-4.59-16.71-8.92-25.06-13.37-5.27-2.81-10.81-3.41-16.42-1.48-8.78,3.01-17.86,5.51-26.14,9.58-21.66,10.63-44.25,12.56-67.66,8.94-3.26-.5-6.58-1.26-9.62-2.52-12.44-5.12-24.89-10.23-36.5-17.17-6.69-4-13.33-8.26-21.14-9.86-4.56-.93-9.17-1.66-13.79-2.25-15.88-2.01-28.04-9.49-36.24-23.5-2.32-3.97-5.95-7.25-6.87-11.94-1.03-5.22-2.38-10.52-2.31-15.77,.15-11.82,1.11-23.63,3.71-35.21,2.71-12.08,7.77-23.29,12.93-34.48,2.28-4.94,4.13-10.17,5.43-15.45,1.84-7.47,.17-14.94-1.66-22.21-2.18-8.64-3.37-17.34-2.63-26.21,1.79-21.39,11.44-38.39,29.36-50.25,4.63-3.06,10.1-5.19,15.47-6.73,9.42-2.7,19-4.93,28.62-6.77,10.23-1.96,20.57-1.7,30.72,.86,7.86,1.99,15.75,3.22,23.57,.38,4.81-1.75,9.42-4.1,14.03-6.36,1.93-.94,3.68-2.28,5.44-3.54,11.29-8.14,23.63-8.97,36.63-5.3,6.83,1.93,12.38,5.73,16.4,11.55,2.83,4.1,5.37,8.41,7.93,12.69,1.88,3.13,3.58,6.37,5.72,10.19,.51-1.47,1.02-2.39,1.15-3.36,1.64-12.05,2.91-24.11,2.99-36.31,.14-20.35,1.65-40.59,6.35-60.48,1.61-6.8,3.71-13.43,6.99-19.67,3.99-7.61,10.06-12.19,18.55-13.65,1.5-.26,3.56-.94,5.22-.59,3,0,4.97-.35,7.97-.35Zm-271.47,310.05c.72,6.08,.44,12.49,2.36,18.16,3.81,11.19,11.55,19.43,23.12,22.98,6.29,1.93,12.9,2.97,19.44,3.87,8.17,1.12,15.81,3.43,22.94,7.62,12.32,7.24,25.04,13.69,38.38,18.88,6.86,2.67,13.85,4.42,21.24,4.69,7.29,.26,14.57,.64,21.85-.09,8.1-.81,16-2.27,23.6-5.49,10.68-4.53,21.46-8.86,32.39-12.71,9.43-3.33,19.22-3.37,27.96,1.85,8.47,5.06,17.63,8.5,26.34,12.96,5.08,2.6,10.8,3.4,16.44,3.21,4.78-.17,9.55-1.1,14.28-1.89,11.53-1.93,20.48-11.54,22.42-23.03,1.75-10.36-.75-20.52-.73-30.79,0-3.46-.59-6.93-1.11-10.37-2.1-13.75-4.3-27.49-6.42-41.24-1.24-8.02-2.61-16.02-3.53-24.08-.75-6.56-1.97-13.05-.82-19.81,1.54-9.03,3.97-17.76,6.96-26.37,2.25-6.48,3.6-13.05,3.64-19.96,.05-8.93-2.19-17.42-4.53-25.88-2.36-8.53-3.97-17.07-3.76-25.98,.23-10.04,2.73-19.66,4.66-29.41,2.06-10.39,3.95-20.83,5.45-31.31,1.12-7.87,1.05-15.92,2.34-23.75,1.24-7.53-.25-14.52-2.4-21.51-2.44-7.92-7.1-13.85-15.52-16.04-1.92-.5-3.86-.99-5.83-1.26-8.21-1.14-16.44-2.13-24.64-3.29-8.63-1.22-15.45,2.03-19.56,9.54-3.47,6.32-5.1,13.22-6.75,20.2-4.3,18.24-4.91,36.8-5.35,55.38-.07,2.81,.65,5.64,.48,8.43-.42,6.79-.9,13.59-1.81,20.32-.8,5.89-2.13,11.72-3.41,17.53-.63,2.87-2.07,5.35-5.33,5.89-3.3,.54-5.88-.89-7.76-3.5-1.84-2.56-3.6-5.19-5.2-7.9-3.46-5.86-6.65-11.89-10.24-17.67-3.01-4.86-7.41-7.98-13.19-8.98-9.76-1.69-19.11-1.5-27.54,4.78-2.92,2.17-6.16,3.95-9.38,5.66-9.06,4.8-18.55,8.33-29,7.55-4.93-.37-9.82-1.49-14.7-2.43-7.72-1.49-15.46-2.36-23.23-.69-9.55,2.05-19.16,3.95-28.53,6.66-5.33,1.54-10.73,3.88-15.25,7.05-17.06,12-28.36,35.74-22.14,59.79,1.37,5.28,2.3,10.68,3.26,16.05,1.49,8.37,.64,16.57-2.63,24.4-3.01,7.19-6.49,14.18-9.56,21.35-6.9,16.15-8.95,33.21-9.71,50.65Z"/>
          <path class="cls-27" d="M1177.31,310.05c.76-17.44,2.81-34.5,9.71-50.65,3.07-7.17,6.55-14.16,9.56-21.35,3.28-7.82,4.12-16.03,2.63-24.4-.96-5.37-1.89-10.77-3.26-16.05-6.22-24.04,5.07-47.79,22.14-59.79,4.52-3.18,9.92-5.51,15.25-7.05,9.37-2.71,18.98-4.61,28.53-6.66,7.77-1.67,15.51-.8,23.23,.69,4.88,.94,9.76,2.07,14.7,2.43,10.45,.78,19.94-2.75,29-7.55,3.22-1.71,6.47-3.49,9.38-5.66,8.42-6.28,17.78-6.47,27.54-4.78,5.78,1,10.18,4.12,13.19,8.98,3.58,5.78,6.77,11.81,10.24,17.67,1.6,2.71,3.36,5.35,5.2,7.9,1.88,2.6,4.46,4.04,7.76,3.5,3.26-.54,4.7-3.02,5.33-5.89,1.27-5.82,2.61-11.64,3.41-17.53,.91-6.73,1.4-13.53,1.81-20.32,.17-2.79-.54-5.63-.48-8.43,.43-18.59,1.04-37.14,5.35-55.38,1.65-6.98,3.28-13.87,6.75-20.2,4.12-7.51,10.93-10.76,19.56-9.54,8.2,1.16,16.43,2.15,24.64,3.29,1.96,.27,3.9,.76,5.83,1.26,8.42,2.19,13.09,8.12,15.52,16.04,2.15,6.99,3.64,13.97,2.4,21.51-1.29,7.83-1.22,15.88-2.34,23.75-1.5,10.48-3.39,20.92-5.45,31.31-1.93,9.75-4.43,19.37-4.66,29.41-.2,8.91,1.41,17.45,3.76,25.98,2.34,8.46,4.58,16.95,4.53,25.88-.04,6.91-1.39,13.48-3.64,19.96-2.99,8.61-5.42,17.34-6.96,26.37-1.15,6.76,.08,13.26,.82,19.81,.92,8.06,2.29,16.06,3.53,24.08,2.12,13.75,4.32,27.48,6.42,41.24,.52,3.44,1.12,6.91,1.11,10.37-.02,10.27,2.48,20.43,.73,30.79-1.94,11.49-10.9,21.09-22.42,23.03-4.74,.8-9.51,1.73-14.28,1.89-5.65,.2-11.36-.61-16.44-3.21-8.71-4.46-17.88-7.9-26.34-12.96-8.74-5.22-18.53-5.17-27.96-1.85-10.93,3.86-21.71,8.19-32.39,12.71-7.6,3.23-15.5,4.68-23.6,5.49-7.28,.73-14.56,.35-21.85,.09-7.38-.27-14.38-2.02-21.24-4.69-13.34-5.19-26.06-11.64-38.38-18.88-7.13-4.19-14.77-6.5-22.94-7.62-6.54-.9-13.15-1.94-19.44-3.87-11.56-3.55-19.3-11.78-23.12-22.98-1.93-5.66-1.65-12.08-2.36-18.16Zm59.73-148.79c.7-3.12,1.41-6.24,2.17-9.61-8.06,2-10.23,4.94-8.27,10.57-5.41,2.93-9.47,7.07-11.45,12.98-1.4,4.18-.1,8,3.16,9.98,3.26,1.98,6.61,1.53,9.73-1.91,3.67-4.04,6.45-8.71,8-14,.41-1.39,.46-2.9,.58-4.36,.21-2.8-1.2-3.95-3.91-3.65Zm74.81,176.83c2.62,0,5.81,.27,8.94-.06,6.91-.73,13.78-1.88,20.69-2.64,9.01-.99,17.49-3.39,25.36-8.04,15.13-8.94,22.93-22,23.32-39.65,.19-8.71-1.06-17.17-2.66-25.67-1.18-6.32-2.47-12.83-2.14-19.18,.36-6.86,2.33-13.68,3.98-20.42,1.55-6.3,3.35-12.57,2.63-19.11-1.39-12.67-6.55-23.09-19.06-28.08-12.52-5-25.5-5.64-38.57-2.24-16.61,4.32-28.5,15.14-38.53,28.42-5.68,7.52-9.04,16.2-11.87,25.07-2.42,7.61-6.13,14.29-12.24,19.59-2.89,2.5-5.61,5.23-8.15,8.09-12.43,13.98-16.51,38.59,.53,54.95,4.68,4.49,9.55,8.78,14.22,13.29,1.11,1.07,1.65,2.71,2.59,3.99,1.23,1.67,2.26,4.04,3.94,4.74,8.5,3.5,16.59,8.75,27.01,6.96Zm116.41-97.74c4.2-7.28,5.28-15.15,6.61-22.89,.94-5.51,1.5-11.1,1.89-16.68,.17-2.41-.07-5.06-.94-7.28-2.36-5.99-9.41-7.52-13.44-2.24-1.91,2.5-2.45,5.42-2.38,8.37,.17,7.45,.3,14.91,1,22.32,.46,4.87,1.87,9.65,2.87,14.46,.44,2.14,1.62,3.54,4.39,3.94Zm22.11-162.51c-.51-3.91-.72-7.89-1.61-11.71-.73-3.13-4.01-5.01-7.18-4.91-3.41,.11-5.77,1.5-6.5,4.99-.79,3.83-1.25,7.88-.93,11.76,.55,6.69,1.61,13.36,2.85,19.96,1,5.3,2.55,10.5,3.96,15.72,.17,.62,.99,1.52,1.47,1.49,.6-.03,1.36-.78,1.68-1.41,.67-1.31,1.3-2.7,1.6-4.12,2.16-10.47,4.34-20.94,4.66-31.77Zm23.79-3.98c4.71-3.14,5.66-7.01,5.63-11.03-.08-10.12-2.81-19.59-7.82-28.37-.8-1.4-1.96-2.74-3.27-3.67-2.95-2.09-6.21-3.09-9.78-1.47-4.08,1.85-4.64,6.1-1.32,9.12,1.3,1.18,2.66,2.53,3.37,4.09,3.98,8.72,7.8,17.53,11.61,26.33,.61,1.42,.94,2.96,1.58,5.01Zm-248.58,170.1c-7.64,4.71-11.73,10.83-14.76,17.73-2.19,4.98-3.68,10.17-2.95,15.69,.52,3.94,2.61,5.68,5.96,5.97,3.82,.33,5.54-3.04,6.11-5.91,1.89-9.49,3.8-18.97,5.61-28.47,.25-1.32,.03-2.73,.03-5.01Zm128.33-120.66c-1.16-.46-1.96-1.11-2.6-.98-5.12,1.06-10.34,1.87-15.26,3.57-3.16,1.09-5.92,3.46-8.71,5.46-1.88,1.35-1.76,3.48-1.13,5.45,1.02,3.19,5.24,4.86,8.7,2.84,7.1-4.15,14.17-8.48,18.99-16.33Zm112.05,224.75c-1.24,.36-1.86,.35-2.12,.65-4.21,4.96-10.07,6.67-16.04,8.1-2.4,.58-4.85,.89-7.27,1.36-2.34,.46-3.49,2.32-3.33,4.29,.11,1.35,1.4,3.11,2.65,3.73,1.66,.82,3.86,1.19,5.69,.89,3.05-.51,6.08-1.48,8.96-2.66,5.11-2.1,8.85-5.76,10.73-11.02,.55-1.54,.48-3.29,.74-5.33Zm-104.77,17.82c2.51-1.06,4.61-1.65,6.39-2.77,6.31-3.95,12.53-8.04,18.72-12.17,.68-.45,.98-1.48,1.46-2.25-.82-.24-1.65-.71-2.45-.67-6.91,.34-13.16,2.98-19.35,5.76-2.41,1.08-4.88,2.14-7.09,3.56-1.8,1.16-2.67,3.29-1.57,5.22,.78,1.37,2.52,2.2,3.88,3.31Zm65.04-307.45c-4.17,4.6-5.87,10.22-7.2,15.92-.7,3.02-1.04,6.18-1.01,9.28,.02,2.33,1.8,3.88,4.06,4.42,1.76,.43,4.28-1.34,4.72-3.58,1.69-8.63,2.07-17.29-.57-26.05Zm-199.1,87.8l-.87-.77c-8.82,3.73-14.32,10.54-17.43,19.5-.35,1-.28,2.29,0,3.35,.74,2.81,3.66,3.8,5.73,1.83,1.28-1.21,2.19-2.88,3.02-4.48,2.82-5.43,5.53-10.92,8.26-16.4,.49-.98,.86-2.02,1.29-3.03Z"/>
          <path class="cls-21" d="M1311.85,338.08c-10.42,1.79-18.51-3.46-27.01-6.96-1.68-.69-2.72-3.06-3.94-4.74-.94-1.28-1.48-2.92-2.59-3.99-4.66-4.51-9.54-8.8-14.22-13.29-17.05-16.35-12.96-40.96-.53-54.95,2.54-2.86,5.26-5.59,8.15-8.09,6.11-5.3,9.82-11.98,12.24-19.59,2.82-8.88,6.18-17.55,11.87-25.07,10.03-13.27,21.91-24.1,38.53-28.42,13.07-3.4,26.05-2.75,38.57,2.24,12.51,4.99,17.67,15.41,19.06,28.08,.72,6.54-1.08,12.81-2.63,19.11-1.66,6.74-3.63,13.56-3.98,20.42-.33,6.34,.96,12.85,2.14,19.18,1.59,8.51,2.85,16.96,2.66,25.67-.39,17.65-8.19,30.71-23.32,39.65-7.87,4.65-16.35,7.05-25.36,8.04-6.91,.76-13.78,1.91-20.69,2.64-3.13,.33-6.32,.06-8.94,.06Zm-10.56-10.64c6.17-.51,10.47-.89,14.79-1.21,8.63-.65,17.27-1.13,25.88-1.95,3.45-.33,6.98-.97,10.22-2.16,10.26-3.78,19.16-9.53,24.02-19.79,3.32-7.02,4.69-14.61,3.83-22.38-.6-5.45-1.55-10.88-2.75-16.23-2.87-12.76-2.69-25.42,.54-38.08,1.32-5.15,2.66-10.32,3.6-15.55,2.28-12.69-4.55-23.81-16.86-27.32-11.2-3.19-22.49-3.38-33.26,1.47-15.78,7.11-27.43,18.61-34.33,34.6-1.97,4.57-3.43,9.36-5.04,14.07-2.25,6.61-5.88,12.23-11.29,16.75-3.06,2.56-5.79,5.51-8.69,8.26-6.51,6.18-9.38,13.99-10.1,22.72-.71,8.73,2.76,16,8.52,22.16,6.02,6.45,12.44,12.53,18.62,18.84,3.91,4,8.17,6.91,12.3,5.8Z"/>
          <path class="cls-37" d="M1428.25,240.35c-2.77-.4-3.94-1.8-4.39-3.94-1-4.82-2.41-9.59-2.87-14.46-.7-7.41-.83-14.88-1-22.32-.07-2.95,.47-5.87,2.38-8.37,4.03-5.27,11.08-3.75,13.44,2.24,.87,2.22,1.1,4.87,.94,7.28-.39,5.58-.94,11.17-1.89,16.68-1.33,7.74-2.41,15.61-6.61,22.89Z"/>
          <path class="cls-37" d="M1450.37,77.84c-.33,10.83-2.5,21.3-4.66,31.77-.29,1.43-.92,2.82-1.6,4.12-.32,.63-1.08,1.38-1.68,1.41-.48,.03-1.3-.87-1.47-1.49-1.41-5.22-2.96-10.42-3.96-15.72-1.24-6.6-2.3-13.27-2.85-19.96-.32-3.88,.14-7.93,.93-11.76,.72-3.49,3.08-4.88,6.5-4.99,3.17-.11,6.44,1.78,7.18,4.91,.89,3.82,1.1,7.8,1.61,11.71Z"/>
          <path class="cls-28" d="M1474.16,73.86c-.64-2.05-.96-3.59-1.58-5.01-3.81-8.8-7.63-17.6-11.61-26.33-.71-1.56-2.07-2.9-3.37-4.09-3.32-3.02-2.77-7.27,1.32-9.12,3.57-1.62,6.83-.62,9.78,1.47,1.31,.93,2.47,2.27,3.27,3.67,5.01,8.78,7.74,18.25,7.82,28.37,.03,4.03-.92,7.89-5.63,11.03Z"/>
          <path class="cls-37" d="M1225.58,243.96c0,2.28,.22,3.69-.03,5.01-1.82,9.5-3.72,18.98-5.61,28.47-.57,2.87-2.29,6.24-6.11,5.91-3.34-.28-5.44-2.03-5.96-5.97-.72-5.52,.77-10.72,2.95-15.69,3.03-6.9,7.12-13.02,14.76-17.73Z"/>
          <path class="cls-37" d="M1237.04,161.26c2.72-.3,4.13,.85,3.91,3.65-.11,1.46-.17,2.97-.58,4.36-1.56,5.28-4.33,9.96-8,14-3.12,3.43-6.47,3.89-9.73,1.91-3.26-1.98-4.56-5.8-3.16-9.98,1.98-5.91,6.04-10.06,11.45-12.98,2.3,1.4,4.44,1.7,6.1-.96Z"/>
          <path class="cls-37" d="M1353.91,123.3c-4.82,7.86-11.89,12.19-18.99,16.33-3.46,2.02-7.68,.35-8.7-2.84-.63-1.96-.75-4.1,1.13-5.45,2.79-2,5.55-4.37,8.71-5.46,4.91-1.7,10.14-2.51,15.26-3.57,.64-.13,1.44,.52,2.6,.98Z"/>
          <path class="cls-31" d="M1465.96,348.05c-.26,2.04-.2,3.8-.74,5.33-1.88,5.26-5.62,8.92-10.73,11.02-2.87,1.18-5.9,2.15-8.96,2.66-1.82,.3-4.03-.07-5.69-.89-1.24-.61-2.54-2.38-2.65-3.73-.16-1.97,.98-3.83,3.33-4.29,2.42-.47,4.88-.79,7.27-1.36,5.97-1.44,11.83-3.14,16.04-8.1,.25-.3,.88-.29,2.12-.65Z"/>
          <path class="cls-16" d="M1361.19,365.87c-1.36-1.11-3.09-1.94-3.88-3.31-1.1-1.92-.24-4.06,1.57-5.22,2.22-1.42,4.68-2.48,7.09-3.56,6.19-2.78,12.44-5.42,19.35-5.76,.8-.04,1.63,.44,2.45,.67-.48,.76-.78,1.79-1.46,2.25-6.19,4.13-12.41,8.22-18.72,12.17-1.78,1.11-3.89,1.7-6.39,2.77Z"/>
          <path class="cls-16" d="M1426.23,58.42c2.64,8.76,2.26,17.41,.57,26.05-.44,2.24-2.96,4.01-4.72,3.58-2.26-.55-4.04-2.1-4.06-4.42-.02-3.1,.31-6.26,1.01-9.28,1.32-5.71,3.02-11.32,7.2-15.92Z"/>
          <path class="cls-16" d="M1227.13,146.22c-.43,1.01-.8,2.05-1.29,3.03-2.73,5.48-5.44,10.96-8.26,16.4-.83,1.6-1.74,3.27-3.02,4.48-2.07,1.96-4.99,.97-5.73-1.83-.28-1.05-.34-2.34,0-3.35,3.11-8.96,8.61-15.77,17.43-19.5l.87,.77Z"/>
          <path class="cls-25" d="M1237.04,161.26c-1.67,2.66-3.8,2.36-6.1,.96-1.96-5.63,.21-8.57,8.27-10.57-.76,3.37-1.46,6.49-2.17,9.61Z"/>
        </g>
        <g>
          <path class="cls-21" d="M2304.53,351.29c.16,.81-.1,2.44-.41,2.84-3.75,18.86-15.86,30.08-33.4,36.14-3.22,1.11-6.83,1.54-10.26,1.53-7.31-.01-14.63-.39-21.93-.9-2.24-.16-4.59-.87-6.58-1.91-15.45-8.14-23.19-21.54-24.76-38.43-2-21.55-2.12-43.15,1.24-64.61,2.59-16.55,2.39-33.08,.44-49.66-1.81-15.33-3.71-30.66-5.26-46.01-.83-8.26-1-16.58-1.46-24.88-.35-6.21-2.4-11.62-7.08-15.95-2.64-2.43-5.61-3.51-9.13-2.93-2.12,.35-4.21,.95-6.32,1.39-7.97,1.66-13.71,5.84-17.4,13.39-2.45,5.01-6.25,9.35-9.35,14.05-1.46,2.2-2.75,4.52-4.04,6.83-3.07,5.49-5.84,11.17-9.2,16.47-5.25,8.3-12.55,14.19-22.28,16.46-11.97,2.79-19.21,10.34-21.83,22-2.36,10.5-4.29,21.14-5.68,31.82-1.92,14.82-3.46,29.7-4.59,44.59-.93,12.25-1.07,24.56-1.5,36.84-.39,11.16-4.01,21.47-8.34,31.56-1.96,4.56-5.84,7.18-10.44,8.64-11.65,3.69-23.52,4.29-35.44,1.69-5-1.09-9.98-2.57-14.73-4.46-3.71-1.48-7.84-3.02-8.6-7.98-.08-.53-.84-.99-1.34-1.42-6.91-5.88-9.39-13.78-10.54-22.41-1.76-13.29-1.01-26.51,.62-39.74,1.26-10.22,2.25-20.46,3.44-30.69,1.95-16.68-.16-33.18-2.29-49.64-2.07-15.96-5.51-31.76-6.98-47.76-1.98-21.65-3.57-43.38-1.79-65.19,1.69-20.7,4.36-41.26,8.33-61.63,1.1-5.67,2.96-11.21,4.83-16.69,2.08-6.07,5.76-11.16,10.56-15.47,6.6-5.93,14.03-7.15,22.23-4.11,1.86,.69,3.84,1.42,5.32,2.66,6.74,5.64,13.73,11.07,19.87,17.32,6.94,7.07,7.75,16.6,8.31,25.99,.53,9-.58,17.89-1.48,26.83-.64,6.41-.47,12.91-.37,19.37,.03,2.2,.95,4.38,1.74,7.73,2.25-3.98,3.91-6.83,5.5-9.72,4.58-8.33,9.46-16.38,17.2-22.33,4.84-3.72,10-6.55,16.05-7.54,4.06-.66,7.61-2.28,10.7-4.96,8.79-7.61,17.95-14.85,26.31-22.91,14.97-14.42,32.34-24.33,52.45-29.29,12.62-3.11,25.47-5.07,38.51-2.78,3.73,.66,7.35,1.99,11,3.07,5.72,1.69,11.37,3.59,17.14,5.09,6.68,1.74,12.31,5.06,16.52,10.48,10.34,13.28,17.98,27.88,20.8,44.64,.63,3.74,.55,7.62,.5,11.43-.2,17.28-.31,34.56-.84,51.82-.64,20.92-1.59,41.83-2.57,62.73-.86,18.3-.27,36.56,1.47,54.76,1.46,15.18,3.62,30.29,5.32,45.45,.67,5.94,.89,11.92,1.42,17.88,.09,1,.19,2.7,.14,3.8,.92,5.69,.26,9.02,.26,14.67Zm-16.65-231.7l.7-.04c-.44-6.93-.88-13.87-1.34-20.8-1.17-17.8-8.53-33.09-19.28-46.95-3.04-3.92-6.98-6.39-12-7.36-3.87-.74-7.62-2.14-11.4-3.31-1.58-.49-3.11-1.12-4.65-1.74-6.36-2.59-12.91-3.79-19.79-3.01-7.39,.84-14.95,.9-22.14,2.57-18.44,4.28-34.38,13.35-48.15,26.44-7.8,7.42-16.1,14.32-24.35,21.25-5.21,4.38-10.83,8.05-17.86,9.21-7.17,1.18-12.88,5.14-17.14,10.93-3.63,4.92-7.01,10.02-10.29,15.18-2.59,4.07-4.95,8.27-9.36,10.72-5.02,2.79-9.64,1.84-12.13-3.31-1.98-4.09-3.8-8.67-4.03-13.11-.42-8.07,.34-16.2,.71-24.3,.26-5.78,.83-11.55,.98-17.33,.07-2.61-.7-5.23-.84-7.86-.3-5.64-2.05-10.83-5.58-15.1-4.98-6.03-10.68-11.47-17.49-15.41-5.49-3.17-11.11-2.84-14.86,1.88-2.24,2.82-4.46,5.79-5.96,9.03-3.57,7.7-4.68,16.12-6.02,24.4-1.29,7.98-2.26,16.01-3.23,24.03-1.01,8.35-2.4,16.7-2.66,25.09-.55,17.56-.56,35.14,1.71,52.64,.98,7.53,1.36,15.14,2.35,22.67,2.1,16.02,4.91,31.96,6.5,48.03,1.27,12.87-.04,25.79-2.11,38.59-1.65,10.25-3.52,20.51-4.36,30.84-.94,11.55-1.11,23.18-1.02,34.77,.04,5.2,1.31,10.45,2.43,15.58,1.42,6.49,6.77,10,11.53,13.82,.91,.73,2.49,.72,3.78,.89,6.88,.87,13.8,1.5,20.65,2.56,6.52,1,12.8,.44,19.15-1.22,3.25-.85,5.59-2.58,6.54-5.47,2.11-6.4,4.28-12.86,5.45-19.46,1.06-5.98,.82-12.19,1.15-18.3,.68-12.4,1.33-24.79,2.07-37.19,.21-3.46,.64-6.91,1.08-10.35,1.23-9.65,2.49-19.29,3.78-28.93,1.25-9.3,2.19-18.64,4.92-27.71,4.05-13.42,11.84-23.13,25.59-27.39,6.81-2.11,13.06-5.25,17.05-11.33,3.44-5.24,6.18-10.94,9.28-16.41,2.03-3.58,4.02-7.2,6.3-10.61,3.48-5.22,7.47-10.11,10.75-15.45,3.91-6.37,9.07-10.95,16.21-13.12,3.93-1.19,7.96-2.06,11.94-3.08,10.16-2.6,17.63,1.63,23.94,9.19,5.17,6.19,6.89,13.4,6.96,21.21,.04,4.32-.27,8.67,.17,12.96,1.08,10.66,2.64,21.28,3.72,31.94,1.16,11.51,2.14,23.03,2.94,34.57,.99,14.27-.01,28.5-2.07,42.62-1.58,10.82-2.85,21.63-2.66,32.57,.14,8.11,.6,16.22,.8,24.34,.2,8.44,2.63,16.28,6.36,23.73,.94,1.87,2.42,3.62,4.04,4.95,2.81,2.31,5.97,4.18,8.88,6.36,2.11,1.58,4.38,2.22,6.98,2.04,4.13-.29,8.42-1.33,12.35-.57,5.96,1.17,11.2-.38,16.36-2.53,10.42-4.36,18.43-11.41,21.27-22.7,1.73-6.88,1.99-14.07,1.48-21.21-.24-3.3-.55-6.59-.74-9.89-.39-6.61-.66-13.23-1.13-19.83-.24-3.45-.03-7.21-1.35-10.26-2.89-6.7-2.58-13.59-2.61-20.53-.03-5.82,.18-11.64-.11-17.45-.35-6.92-1.35-13.81-1.62-20.73-.18-4.6,.56-9.24,.67-13.86,.41-16.58,.75-33.17,1.06-49.75,.13-6.65,.04-13.3,.2-19.94,.1-4.29,.76-8.58,.67-12.86-.15-6.62-.72-13.22-1.12-19.83Z"/>
          <path class="cls-32" d="M2288.99,139.42c.09,4.28-.56,8.57-.67,12.86-.16,6.64-.07,13.29-.2,19.94-.31,16.58-.66,33.17-1.06,49.75-.11,4.62-.85,9.26-.67,13.86,.27,6.92,1.27,13.81,1.62,20.73,.29,5.8,.08,11.63,.11,17.45,.03,6.94-.28,13.83,2.61,20.53,1.32,3.05,1.11,6.8,1.35,10.26,.46,6.6,.73,13.22,1.13,19.83,.2,3.3,.51,6.59,.74,9.89,.51,7.14,.25,14.33-1.48,21.21-2.84,11.29-10.85,18.33-21.27,22.7-5.15,2.16-10.39,3.7-16.36,2.53-3.93-.77-8.22,.28-12.35,.57-2.6,.18-4.87-.46-6.98-2.04-2.91-2.18-6.07-4.05-8.88-6.36-1.62-1.33-3.1-3.08-4.04-4.95-3.74-7.45-6.16-15.29-6.36-23.73-.19-8.11-.66-16.22-.8-24.34-.19-10.94,1.08-21.75,2.66-32.57,2.06-14.12,3.07-28.34,2.07-42.62-.8-11.54-1.78-23.07-2.94-34.57-1.08-10.66-2.64-21.28-3.72-31.94-.43-4.28-.13-8.63-.17-12.96-.07-7.81-1.79-15.02-6.96-21.21-6.31-7.55-13.78-11.79-23.94-9.19-3.98,1.02-8.01,1.89-11.94,3.08-7.15,2.17-12.31,6.75-16.21,13.12-3.27,5.34-7.26,10.23-10.75,15.45-2.28,3.42-4.26,7.04-6.3,10.61-3.11,5.46-5.84,11.16-9.28,16.41-3.99,6.08-10.24,9.22-17.05,11.33-13.75,4.26-21.54,13.96-25.59,27.39-2.74,9.07-3.68,18.41-4.92,27.71-1.29,9.64-2.55,19.28-3.78,28.93-.44,3.44-.87,6.89-1.08,10.35-.74,12.39-1.39,24.79-2.07,37.19-.34,6.11-.1,12.32-1.15,18.3-1.17,6.61-3.34,13.07-5.45,19.46-.95,2.89-3.29,4.63-6.54,5.47-6.35,1.65-12.63,2.22-19.15,1.22-6.85-1.05-13.77-1.69-20.65-2.56-1.29-.16-2.87-.15-3.78-.89-4.75-3.83-10.1-7.34-11.53-13.82-1.13-5.13-2.39-10.38-2.43-15.58-.09-11.59,.08-23.22,1.02-34.77,.84-10.33,2.71-20.59,4.36-30.84,2.06-12.81,3.38-25.73,2.11-38.59-1.59-16.07-4.4-32.01-6.5-48.03-.99-7.53-1.37-15.14-2.35-22.67-2.27-17.5-2.26-35.08-1.71-52.64,.26-8.38,1.65-16.74,2.66-25.09,.97-8.02,1.94-16.06,3.23-24.03,1.34-8.29,2.45-16.7,6.02-24.4,1.5-3.24,3.72-6.21,5.96-9.03,3.75-4.72,9.37-5.05,14.86-1.88,6.81,3.93,12.5,9.38,17.49,15.41,3.54,4.28,5.29,9.47,5.58,15.1,.14,2.63,.91,5.25,.84,7.86-.15,5.78-.71,11.55-.98,17.33-.37,8.1-1.13,16.23-.71,24.3,.23,4.45,2.05,9.02,4.03,13.11,2.49,5.16,7.11,6.1,12.13,3.31,4.41-2.45,6.77-6.65,9.36-10.72,3.28-5.16,6.66-10.26,10.29-15.18,4.27-5.79,9.98-9.75,17.14-10.93,7.03-1.16,12.64-4.83,17.86-9.21,8.25-6.93,16.55-13.83,24.35-21.25,13.77-13.09,29.71-22.16,48.15-26.44,7.19-1.67,14.75-1.73,22.14-2.57,6.88-.78,13.43,.43,19.79,3.01,1.53,.62,3.07,1.25,4.65,1.74,3.78,1.17,7.53,2.56,11.4,3.31,5.02,.97,8.96,3.43,12,7.36,10.75,13.87,18.1,29.15,19.28,46.95,.46,6.93,.89,13.87,1.34,20.8m-16.49,100.14c1.31-2.7,2.71-4.48,3.04-6.45,.92-5.48,1.83-11.03,1.95-16.57,.14-6.41-.34-12.85-.97-19.24-.33-3.36-.87-6.86-3.59-9.48-3.81-3.69-10.03-2.42-11.4,2.67-.7,2.6-.75,5.51-.45,8.21,.63,5.52,1.7,10.99,2.57,16.49,1.13,7.15,2.98,14.1,6.01,20.7,.46,1,1.36,1.8,2.83,3.68Zm-3.93,126.3c0-1.49,.12-2.99-.03-4.47-.21-2.12-.38-4.29-1.01-6.3-.63-2.01-1.52-4.05-2.77-5.73-2.67-3.58-9.93-4.81-12.14,2-.55,1.69-.95,3.51-.98,5.28-.09,5.46-.2,10.94,.15,16.39,.24,3.73,1.1,7.44,1.94,11.09,.6,2.64,2.61,3.51,5.26,3.47,2.96-.05,4.43-1.95,5.7-4.12,3.18-5.44,3.47-11.54,3.88-17.61Zm-82.17-281.53c.36-.08,1.42-.1,2.25-.56,5.47-3.03,11.55-3.52,17.54-4.62,4.33-.8,8.61-2.26,12.64-4.03,1.86-.82,4.99-1.56,4.73-4.41-.25-2.83-3.04-3.63-5.42-4.37-9.07-2.84-18.24-2.54-27.34-.42-5.11,1.19-8.78,4.47-10.56,9.55-1.57,4.49,1.2,8.9,6.16,8.87Zm-160.09,39.69c1.59-2.47,2.94-3.98,3.59-5.74,1.08-2.89,1.93-5.92,2.49-8.96,1.02-5.46,1.97-10.96,2.53-16.48,.35-3.47-1.92-6.13-4.67-6.52-2.87-.4-5.33,1.29-6.33,4.97-.72,2.66-.53,5.56-1.2,8.24-1.58,6.28-.73,12.42,.73,18.52,.43,1.8,1.61,3.41,2.86,5.97Zm131.4-20.55c-.89-.56-1.39-1.13-1.69-1.04-8.25,2.42-16.05,5.83-22.91,11.08-2.65,2.03-3.08,4.78-1.55,6.92,1.52,2.13,4.96,2.75,7.55,.92,7.01-4.96,13.7-10.29,18.6-17.89Zm-131.58,286.99c-.77-8.28-3.46-15.48-6.65-22.48-.4-.87-2.74-1.56-3.86-1.23-1.35,.39-2.81,1.76-3.39,3.07-.53,1.2-.36,3.08,.2,4.33,1.9,4.2,3.91,8.37,6.29,12.31,1.35,2.24,3.57,3.88,7.4,4Zm6.63-20.97c-4.71-.02-7.05,3.21-5.06,7.24,1.8,3.65,4.24,7,6.53,10.39,.51,.75,1.52,1.38,2.42,1.6,1.34,.33,3.19,.8,4.07,.16,.88-.64,1.42-2.73,1.08-3.88-1.29-4.37-3.01-8.61-4.56-12.91-.82-2.29-2.6-2.78-4.47-2.6Zm-19.1-245.59l.92-.07c.46-1.34,1.13-2.65,1.35-4.03,1.1-7.15,2.08-14.32,3.09-21.49,.35-2.44,.85-4.88,.93-7.34,.03-.88-.95-2.53-1.5-2.55-1.32-.03-3.13,.31-3.87,1.22-.97,1.17-1.42,3.02-1.52,4.61-.46,7.09-.89,14.18-.94,21.28-.02,2.79,1,5.58,1.55,8.37Zm262.61,251.64c2.32-.83,3.98-2.27,4.42-4.73,.72-4.02,1.43-8.05,1.84-12.1,.28-2.78,.05-5.61,.08-8.41,.02-2.22-.82-4.09-3.04-4.49-2.38-.43-3.54,1.33-4,3.45-.34,1.59-.75,3.22-.72,4.83,.04,2.45,.51,4.88,.67,7.33,.3,4.62,.5,9.26,.75,14.12Zm-9.98-286.65c.45-2.75-1.21-4.58-3.63-4.55-2.36,.03-5.08,2.78-4.75,5.43,.56,4.36,2.71,8.08,5.94,11.08,.96,.88,2.41,.07,2.42-1.27,.04-3.56,.01-7.12,.01-10.68Zm-253.17,97.13c0-.5,0-.99,0-1.49,.01-2.05,.01-4.17-2.72-4.45-2.63-.27-3.17,1.68-3.76,3.69-1.44,4.87,.47,9.37,1.44,13.97,.1,.49,.96,1.27,1.18,1.19,.65-.25,1.5-.78,1.65-1.36"/>
          <path class="cls-40" d="M2272.09,219.69c-1.47-1.87-2.37-2.68-2.83-3.68-3.02-6.6-4.88-13.54-6.01-20.7-.87-5.5-1.94-10.97-2.57-16.49-.31-2.7-.25-5.61,.45-8.21,1.37-5.08,7.59-6.36,11.4-2.67,2.71,2.62,3.26,6.12,3.59,9.48,.63,6.39,1.11,12.83,.97,19.24-.12,5.54-1.03,11.09-1.95,16.57-.33,1.96-1.73,3.75-3.04,6.45Z"/>
          <path class="cls-40" d="M2268.16,345.99c-.4,6.06-.69,12.17-3.88,17.61-1.27,2.17-2.75,4.07-5.7,4.12-2.65,.04-4.66-.83-5.26-3.47-.84-3.66-1.7-7.37-1.94-11.09-.35-5.44-.24-10.93-.15-16.39,.03-1.77,.44-3.58,.98-5.28,2.2-6.81,9.47-5.57,12.14-2,1.25,1.68,2.15,3.72,2.77,5.73,.63,2.01,.8,4.18,1.01,6.3,.15,1.48,.03,2.98,.03,4.47Z"/>
          <path class="cls-40" d="M2185.99,64.46c-4.96,.03-7.74-4.38-6.16-8.87,1.78-5.08,5.45-8.36,10.56-9.55,9.1-2.12,18.28-2.41,27.34,.42,2.38,.75,5.17,1.54,5.42,4.37,.25,2.85-2.87,3.59-4.73,4.41-4.03,1.77-8.31,3.23-12.64,4.03-5.99,1.1-12.07,1.59-17.54,4.62-.82,.46-1.89,.47-2.25,.56Z"/>
          <path class="cls-40" d="M2025.9,104.15c-1.25-2.55-2.43-4.17-2.86-5.97-1.46-6.1-2.31-12.24-.73-18.52,.67-2.68,.48-5.58,1.2-8.24,.99-3.68,3.46-5.37,6.33-4.97,2.76,.38,5.02,3.05,4.67,6.52-.55,5.52-1.51,11.02-2.53,16.48-.57,3.04-1.41,6.06-2.49,8.96-.66,1.76-2.01,3.27-3.59,5.74Z"/>
          <path class="cls-40" d="M2157.29,83.6c-4.89,7.6-11.59,12.93-18.6,17.89-2.59,1.84-6.03,1.22-7.55-.92-1.53-2.14-1.09-4.89,1.55-6.92,6.85-5.26,14.66-8.66,22.91-11.08,.31-.09,.81,.48,1.69,1.04Z"/>
          <path class="cls-15" d="M2025.71,370.6c-3.83-.12-6.05-1.76-7.4-4-2.38-3.94-4.39-8.11-6.29-12.31-.57-1.26-.74-3.13-.2-4.33,.58-1.31,2.04-2.68,3.39-3.07,1.12-.33,3.46,.36,3.86,1.23,3.19,7,5.88,14.2,6.65,22.48Z"/>
          <path class="cls-34" d="M2032.34,349.62c1.87-.18,3.65,.31,4.47,2.6,1.54,4.3,3.26,8.54,4.56,12.91,.34,1.15-.2,3.24-1.08,3.88-.88,.63-2.73,.16-4.07-.16-.89-.22-1.91-.85-2.42-1.6-2.29-3.39-4.73-6.74-6.53-10.39-1.99-4.03,.35-7.26,5.06-7.24Z"/>
          <path class="cls-28" d="M2013.24,104.03c-.55-2.79-1.57-5.58-1.55-8.37,.05-7.1,.48-14.19,.94-21.28,.1-1.59,.56-3.43,1.52-4.61,.75-.9,2.55-1.25,3.87-1.22,.55,.01,1.53,1.67,1.5,2.55-.08,2.45-.58,4.89-.93,7.34-1.02,7.16-2,14.33-3.09,21.49-.21,1.38-.89,2.69-1.35,4.03l-.92,.07Z"/>
          <path class="cls-31" d="M2275.85,355.68c-.25-4.87-.45-9.5-.75-14.12-.16-2.45-.62-4.89-.67-7.33-.03-1.61,.37-3.24,.72-4.83,.46-2.12,1.62-3.88,4-3.45,2.21,.4,3.06,2.27,3.04,4.49-.03,2.81,.21,5.64-.08,8.41-.42,4.06-1.12,8.09-1.84,12.1-.44,2.46-2.1,3.9-4.42,4.73Z"/>
          <path class="cls-16" d="M2265.87,69.02c0,3.56,.03,7.12-.01,10.68-.02,1.34-1.47,2.15-2.42,1.27-3.24-2.99-5.38-6.71-5.94-11.08-.34-2.64,2.38-5.4,4.75-5.43,2.43-.03,4.08,1.8,3.63,4.55Z"/>
          <path class="cls-30" d="M2010.47,177.7c-.14,.58-1,1.11-1.65,1.36-.22,.09-1.08-.7-1.18-1.19-.96-4.6-2.88-9.09-1.44-13.97,.59-2.01,1.13-3.96,3.76-3.69,2.74,.28,2.73,2.4,2.72,4.45,0,.5,0,.99,0,1.49"/>
        </g>
      </g>
    </g>
  </g>
</svg>