<?xml version="1.0" encoding="UTF-8"?>
<svg xmlns="http://www.w3.org/2000/svg" viewBox="0 0 2920.44 387.07">
  <defs>
    <style>
      .cls-1 {
        fill: #121312;
      }

      .cls-2 {
        fill: #110c0b;
      }

      .cls-3 {
        fill: #100c0a;
      }

      .cls-4 {
        fill: #54dafe;
      }

      .cls-5 {
        fill: #121615;
      }

      .cls-6 {
        fill: #54d9fe;
      }

      .cls-7 {
        fill: #100e0b;
      }

      .cls-8 {
        fill: #fafafe;
      }

      .cls-9 {
        fill: #121210;
      }

      .cls-10 {
        fill: #13110e;
      }

      .cls-11 {
        fill: #e87fa8;
      }

      .cls-12 {
        fill: #110d0b;
      }

      .cls-13 {
        fill: #55dafe;
      }

      .cls-14 {
        fill: #12100e;
      }

      .cls-15 {
        fill: #171410;
      }

      .cls-16 {
        fill: #08b2e4;
      }

      .cls-17 {
        fill: #0f0d0a;
      }

      .cls-18 {
        fill: #121412;
      }

      .cls-19 {
        fill: #14100e;
      }

      .cls-20 {
        fill: #14110e;
      }

      .cls-21 {
        fill: #121716;
      }

      .cls-22 {
        fill: #b89af8;
      }

      .cls-23 {
        fill: #d3d3d6;
      }

      .cls-24 {
        fill: #eed28b;
      }

      .cls-25 {
        fill: #100d0a;
      }

      .cls-26 {
        fill: #55d9fd;
      }

      .cls-27 {
        fill: #07bff9;
      }

      .cls-28 {
        fill: #14120e;
      }

      .cls-29 {
        fill: #e880a9;
      }

      .cls-30 {
        fill: #110c0a;
      }

      .cls-31 {
        fill: #ae265c;
      }

      .cls-32 {
        fill: #12100d;
      }

      .cls-33 {
        fill: #6831d5;
      }

      .cls-34 {
        fill: #141111;
      }

      .cls-35 {
        fill: #13110f;
      }

      .cls-36 {
        fill: #e77fa8;
      }

      .cls-37 {
        fill: #0f0c09;
      }

      .cls-38 {
        fill: #13100d;
      }

      .cls-39 {
        fill: #f9e3ac;
      }

      .cls-40 {
        fill: #16110f;
      }

      .cls-41 {
        fill: #13100e;
      }

      .cls-42 {
        fill: #ae444e;
      }

      .cls-43 {
        fill: #16130f;
      }

      .cls-44 {
        fill: #121311;
      }

      .cls-45 {
        fill: #15130f;
      }

      .cls-46 {
        fill: #121413;
      }

      .cls-47 {
        fill: #e980a9;
      }

      .cls-48 {
        fill: #eb8f98;
      }

      .cls-49 {
        fill: #b798f7;
      }

      .cls-50 {
        fill: #0e0c09;
      }

      .cls-51 {
        fill: #0f0c0a;
      }

      .cls-52 {
        fill: #13100f;
      }

      .cls-53 {
        fill: #f8e3ac;
      }

      .cls-54 {
        fill: #ec8f98;
      }
    </style>
  </defs>
  <g id="_лой_1" data-name="Слой 1"/>
  <g id="_лой_2" data-name="Слой 2">
    <g id="_лой_1-2" data-name="Слой 1">
      <g>
        <g>
          <path class="cls-32" d="M505.62,199.22c-1.09,.69-1.48,1.02-1.93,1.21-8.25,3.59-10.87,10.87-11.83,18.88-.93,7.72-3.92,13.99-10.36,18.52-1.76,1.24-3.4,2.69-4.97,4.17-3.99,3.77-4.42,6.81-1.69,11.48,.92,1.58,2.24,2.97,2.93,4.63,1.19,2.87,2.43,5.83,2.88,8.86,.38,2.56,1.35,4.4,3.35,5.78,1.36,.94,2.78,1.85,4.3,2.52,13.06,5.74,26.03,11.73,39.29,16.99,5.48,2.17,11.53,3.3,17.42,3.94,10.07,1.09,20.11,2.51,30.34,2.24,12.52-.32,24.79-1.44,37.02-4.45,9.15-2.25,18.68-3.02,28.05-4.37,4.61-.66,9.23-1.19,13.86-1.67,11.54-1.2,22.53,.99,32.97,5.87,5.67,2.65,8.53,7.71,10.35,13.44,3.41,10.73,1.87,21.36-.75,31.96-1.32,5.34-4.02,9.83-8.25,13.35-10.45,8.71-21.6,15.87-35.42,18.3-11.11,1.95-22.05,4.82-33.1,7.14-3.41,.72-6.9,1.1-10.38,1.41-9.95,.89-19.89,2.11-29.86,2.36-12.13,.3-24.3,.01-36.42-.55-7.79-.36-15.59-1.34-23.28-2.65-16.21-2.77-31.47-8.26-45.44-17.08-7.05-4.45-14.3-8.54-22.54-10.34-4.7-1.02-9.47-1.81-14.24-2.4-4.59-.56-8.58-1.91-11.85-5.47-1.75-1.9-4.22-3.16-6.46-4.58-4.62-2.93-8.1-6.93-10.69-11.64-6.35-11.54-9.71-23.89-10.35-37.09-.6-12.3-1.5-24.59-2.7-36.85-1.64-16.85-1.39-33.55,2.24-50.14,3.09-14.12,3.68-28.27,.78-42.56-2.76-13.59,.13-26.38,6.2-38.66,7.32-14.81,17-27.68,29.9-38.12,15.02-12.15,30.29-23.93,46.52-34.43,7.85-5.08,16.1-9.17,25.42-11.02,7.3-1.45,13.63-5.41,19.36-9.92,14.01-11.02,30.02-14.25,47.03-11.44,8.9,1.47,17.49,5.1,26.05,8.24,12.94,4.74,25.66,10.13,39.49,11.88,9.4,1.19,18.77,2.72,28.21,3.44,12.92,.99,25.21,4.42,37.18,8.96,9.25,3.5,16.62,9.78,21.93,18.17,6.41,10.13,10.79,20.98,10.59,33.25-.13,7.64-1.92,14.91-5.85,21.39-3.7,6.09-6.07,12.53-7.22,19.5-2.3,13.91-10.66,23.67-22.59,29.94-9.03,4.75-17.66,9.88-25.85,15.91-6.97,5.13-14.39,9.67-21.19,15-12.86,10.08-27.69,15.63-43.13,20.04-10.89,3.11-22.01,3.78-33.16,2.75-9.09-.84-18.14-2.32-27.11-4.04-7.71-1.48-14.8-4.78-21.56-8.87-7.67-4.64-15.62-8.8-23.51-13.2Zm71.27,107.61c-3.14,0-6.3,.21-9.41-.04-6.77-.56-13.5-1.63-20.28-2-9.58-.52-18.71-2.8-27.39-6.61-10.18-4.47-20.14-9.41-30.19-14.18-3-1.42-6.05-2.78-8.91-4.45-4.01-2.34-7.31-5.62-7.76-10.4-.35-3.71-1.91-6.61-3.81-9.55-1.17-1.81-2.31-3.67-3.19-5.63-2.34-5.22-1.44-10.1,2.18-14.39,2.02-2.39,4.24-4.66,6.63-6.69,4.42-3.75,6.87-8.14,7.16-14.15,.3-6.09,1.53-12.17,4.5-17.69,4.27-7.94,12.23-11.02,20.49-8.01,.76,.28,1.59,.38,2.39,.57,6.47,1.56,12.75,3.53,18.39,7.26,7.35,4.86,14.94,9.29,23.73,11.05,5.35,1.07,10.71,2.4,16.13,2.74,9.77,.62,19.74,1.8,29.35,.56,14.8-1.9,29.29-6.2,42.17-14.03,10.63-6.46,20.63-13.97,30.73-21.27,7.8-5.65,15.49-11.25,24.41-15.27,11.01-4.96,18.08-13.67,20.54-25.87,.98-4.84,2.56-9.58,4.16-14.26,.91-2.65,2.52-5.06,3.66-7.65,2.99-6.78,5.18-13.92,3.79-21.26-1.17-6.12-3.17-12.24-5.83-17.88-4.7-9.96-12.36-16.89-22.94-20.89-16.16-6.1-33.05-8.05-49.96-10.35-9.48-1.29-19.05-2.83-28.17-5.61-13.93-4.24-27.52-9.6-41.21-14.59-9.38-3.42-18.9-3.01-28.46-1.23-6.98,1.3-13.02,4.7-18.82,8.68-7.66,5.27-15.39,10.5-24.71,12.47-7.12,1.51-13.39,4.86-19.43,8.67-14.5,9.14-27.93,19.75-41.53,30.15-14.99,11.46-26.69,25.31-34.21,42.68-3.83,8.83-6.02,17.93-5.26,27.57,.51,6.44,1.05,12.9,2.2,19.24,1.19,6.57-.02,12.9-.9,19.27-1.3,9.34-3.72,18.6-4.13,27.96-.51,11.59,.31,23.26,.98,34.87,.6,10.25,2.02,20.46,2.64,30.71,.54,8.84,2.08,17.39,5.05,25.73,3.13,8.78,7.33,16.69,15.77,21.62,1.84,1.07,3.41,2.62,5.06,4,2.36,1.97,4.87,3,8.12,3.05,4.78,.08,9.59,.67,14.31,1.48,8.67,1.5,16.17,5.85,23.49,10.45,8.63,5.42,17.78,9.55,27.65,12.18,8.66,2.31,17.34,4.3,26.32,4.94,11.74,.83,23.48,2.39,35.22,2.51,11.26,.11,22.54-1.05,33.79-1.97,6.92-.57,13.82-1.54,20.67-2.69,7.98-1.34,15.91-3.02,23.83-4.66,4.85-1,9.76-1.87,14.47-3.37,8.54-2.72,15.5-8.2,22.35-13.76,3.07-2.5,5.02-5.93,5.81-9.67,1.97-9.32,2.11-18.71-.16-28.05-1.05-4.32-3.45-7.44-7.7-9.08-7.01-2.7-14.16-4.9-21.75-4.41-6.44,.41-12.88,1.07-19.26,2-8.67,1.27-17.43,2.36-25.89,4.52-12.15,3.11-24.32,5.2-36.88,4.65Z"/>
          <path class="cls-33" d="M576.89,306.83c12.56,.55,24.73-1.53,36.88-4.65,8.46-2.17,17.22-3.25,25.89-4.52,6.38-.94,12.82-1.59,19.26-2,7.6-.49,14.75,1.71,21.75,4.41,4.24,1.64,6.65,4.76,7.7,9.08,2.27,9.34,2.13,18.73,.16,28.05-.79,3.75-2.74,7.18-5.81,9.67-6.85,5.56-13.81,11.05-22.35,13.76-4.71,1.5-9.62,2.37-14.47,3.37-7.93,1.63-15.85,3.32-23.83,4.66-6.85,1.15-13.75,2.12-20.67,2.69-11.25,.92-22.53,2.09-33.79,1.97-11.75-.12-23.48-1.68-35.22-2.51-8.97-.63-17.66-2.63-26.32-4.94-9.87-2.63-19.02-6.76-27.65-12.18-7.32-4.6-14.82-8.95-23.49-10.45-4.72-.81-9.53-1.41-14.31-1.48-3.25-.05-5.76-1.08-8.12-3.05-1.65-1.38-3.22-2.93-5.06-4-8.43-4.92-12.64-12.84-15.77-21.62-2.97-8.34-4.51-16.89-5.05-25.73-.63-10.25-2.05-20.46-2.64-30.71-.68-11.61-1.49-23.28-.98-34.87,.41-9.36,2.83-18.62,4.13-27.96,.89-6.37,2.1-12.7,.9-19.27-1.15-6.34-1.69-12.81-2.2-19.24-.76-9.64,1.44-18.74,5.26-27.57,7.53-17.37,19.22-31.22,34.21-42.68,13.6-10.4,27.03-21.01,41.53-30.15,6.04-3.81,12.31-7.16,19.43-8.67,9.31-1.97,17.05-7.2,24.71-12.47,5.8-3.99,11.84-7.38,18.82-8.68,9.56-1.78,19.08-2.19,28.46,1.23,13.69,4.99,27.28,10.35,41.21,14.59,9.12,2.78,18.69,4.32,28.17,5.61,16.91,2.3,33.8,4.25,49.96,10.35,10.58,3.99,18.24,10.92,22.94,20.89,2.66,5.64,4.66,11.76,5.83,17.88,1.4,7.34-.8,14.49-3.79,21.26-1.14,2.59-2.75,4.99-3.66,7.65-1.61,4.68-3.19,9.42-4.16,14.26-2.46,12.2-9.54,20.91-20.54,25.87-8.92,4.02-16.6,9.62-24.41,15.27-10.09,7.31-20.1,14.81-30.73,21.27-12.88,7.83-27.37,12.13-42.17,14.03-9.61,1.23-19.58,.06-29.35-.56-5.41-.35-10.78-1.67-16.13-2.74-8.79-1.76-16.38-6.2-23.73-11.05-5.64-3.73-11.92-5.7-18.39-7.26-.8-.19-1.63-.29-2.39-.57-8.27-3.01-16.22,.07-20.49,8.01-2.97,5.52-4.21,11.59-4.5,17.69-.29,6.01-2.74,10.4-7.16,14.15-2.39,2.02-4.61,4.3-6.63,6.69-3.62,4.29-4.52,9.17-2.18,14.39,.88,1.96,2.01,3.82,3.19,5.63,1.91,2.94,3.47,5.84,3.81,9.55,.45,4.78,3.75,8.05,7.76,10.4,2.86,1.67,5.91,3.03,8.91,4.45,10.04,4.77,20.01,9.71,30.19,14.18,8.69,3.81,17.82,6.09,27.39,6.61,6.78,.37,13.51,1.44,20.28,2,3.12,.26,6.28,.04,9.41,.04Zm-39.2-251.98c1.83,3.53,4.49,4.84,9,3.59,7.9-2.19,15.75-4.61,23.53-7.22,2.7-.9,5.12-2.64,8.76-4.59-2.53-1.42-3.89-2.61-5.46-3-7.64-1.9-15.26-1.64-22.79,.75-.79-.13-1.59-.27-2.38-.4-4.46-.73-8.92-1.09-13.25,.61-3.16,1.25-4.49,4.35-3.25,7.29,1.1,2.6,3.45,2.82,5.82,2.96Zm-60.89,23.6c-.58,.31-1.13,.79-1.75,.91-6.09,1.16-10.93,4.5-15.27,8.7-1.06,1.03-2.16,2.12-2.89,3.38-1.31,2.26-.96,4.99,.53,6.4,1.53,1.44,4.76,1.3,6.86-.36,1.16-.92,2.23-1.94,3.34-2.92,3.24,5.21,7.05,6.7,11.93,3.54,5.09-3.3,9.67-7.4,14.29-11.36,1.17-1.01,1.82-2.75,2.43-4.27,1.32-3.3,.51-5.44-2.69-6.89-1.31-.59-2.83-.84-4.28-.94-4.63-.33-8.53,1.86-12.49,3.82Zm84.72,8.57c-4.05,.75-8.17,1.22-12.13,2.29-13.32,3.61-23.32,11.96-30.61,23.31-7,10.91-11.79,22.66-8.99,36.17,.22,1.06-.08,2.23-.08,3.34-.02,5.76,.71,11.56,5.07,15.59,3.09,2.86,7.02,5.37,11.02,6.57,7.74,2.32,15.77,3.72,23.72,5.27,8.75,1.71,17.57,.74,26.34,0,7.65-.65,15.33-1.9,21.67-6.49,7.25-5.25,14.25-10.9,20.95-16.85,5.56-4.94,11.65-8.76,18.47-11.57,3.37-1.39,6.69-2.93,9.91-4.64,2.58-1.37,4.68-3.55,4.83-6.53,.18-3.62,0-7.32-.59-10.89-1.59-9.73-8.47-14.99-16.72-18.91-4.25-2.02-8.72-3.14-13.47-2.88-5.47,.3-10.93,.86-16.4,.82-2.72-.02-5.59-.78-8.12-1.85-4.57-1.95-9-4.27-13.37-6.67-6.69-3.67-13.76-5.67-21.5-6.07Zm101.21,225.85c-.08-3.07-2.15-4-4.12-4.73-1.98-.73-4.12-1.37-6.21-1.46-10.12-.44-20.11,.4-29.72,3.86-1.34,.48-2.57,1.39-3.73,2.25-2.09,1.55-3,3.78-1.93,6.13,1.06,2.33,2.97,4.11,5.89,3.69,4.22-.6,8.46-1.12,12.62-2.03,9.12-1.99,18.41-3.43,27.2-7.71Zm44.73-221.55c-.42-2.6-.52-4.44-1.03-6.15-1.18-3.97-5.77-7.14-8.97-6.39-4.05,.94-7.6,5.69-6.53,9.73,1.21,4.58,2.86,9.12,4.99,13.34,2.12,4.22,7.41,4.01,9.25-.4,1.42-3.4,1.69-7.28,2.3-10.13Zm-279.36,48.76c-3.88,.23-5.21,1.02-7.31,4.37-3.93,6.27-5.82,13.31-7,20.48-.4,2.46,.07,5.37,1.06,7.67,1.38,3.21,5.29,2.93,6.9-.24,.51-1.01,.82-2.15,1.05-3.27,1.03-5.01,2.04-10.02,2.96-15.04,.84-4.62,1.56-9.26,2.34-13.97Zm123.07,178.6c-.82-1.56-1.18-3.19-2.2-4.04-4.42-3.68-9.54-5.93-15.37-6.01-3.95-.05-6.44,2.18-6.95,5.71-.59,4.08,1.41,7.24,5.41,8.22,6.79,1.67,12.89-.12,19.1-3.89Zm-116.19,6.86c.3-.2,.59-.4,.89-.59-.28-1.57-.37-3.2-.86-4.7-1.18-3.59-2.45-7.16-3.88-10.66-1.43-3.51-3.03-6.96-4.7-10.37-1.06-2.17-2.96-3.18-5.36-2.51-2.35,.66-3.62,2.42-3.37,4.84,.2,1.92,.41,4.11,1.42,5.63,3.01,4.51,6.27,8.88,9.73,13.06,1.7,2.05,4.07,3.55,6.13,5.3Zm264.37-193.87c-4.24,4.69-7.95,8.46-11.22,12.58-1.63,2.05-1.36,4.66,.31,6.92,1.28,1.73,2.9,2.83,5.08,2.39,2.7-.54,3.56-2.84,4.1-5.12,1.07-4.49,1.99-9.02,2.85-13.55,.12-.64-.46-1.41-1.12-3.21Zm-36.05,199.95c3.63,.16,7.33-2.12,7.36-4.53,.04-3.05-3.88-6.37-7.68-6.51-3.32-.12-6.2,2.19-6.26,5-.07,3.29,2.75,5.87,6.58,6.04Zm-196.44-.6c-.36-.69-.53-1.15-.81-1.53-2.51-3.46-5-6.94-7.59-10.34-1.24-1.63-2.77-3-5.03-1.76-1.91,1.04-2.54,3.2-1.76,5.57,.1,.31,.11,.68,.29,.94,3.15,4.62,7.76,7.01,13.02,8.28,.49,.12,1.21-.72,1.9-1.16Zm-34.94-170.27s-.33-.23-.6-.18c-.46,.09-1.08,.22-1.31,.56-2.96,4.32-4.83,9.02-4.11,14.36,.39,2.88,2.41,5.02,4.15,4.87,2.06-.17,2.88-1.79,2.77-5.49-.03-.99-.11-1.98-.17-2.97-.23-3.54-.46-7.08-.72-11.16Z"/>
          <path class="cls-32" d="M561.51,87.02c7.74,.4,14.81,2.4,21.5,6.07,4.37,2.39,8.8,4.71,13.37,6.67,2.52,1.08,5.4,1.83,8.12,1.85,5.46,.04,10.93-.52,16.4-.82,4.75-.26,9.22,.86,13.47,2.88,8.25,3.92,15.13,9.18,16.72,18.91,.58,3.57,.77,7.28,.59,10.89-.15,2.99-2.25,5.17-4.83,6.53-3.22,1.71-6.54,3.25-9.91,4.64-6.82,2.82-12.91,6.63-18.47,11.57-6.7,5.95-13.7,11.6-20.95,16.85-6.34,4.59-14.02,5.84-21.67,6.49-8.77,.74-17.58,1.72-26.34,0-7.95-1.55-15.98-2.95-23.72-5.27-4-1.2-7.93-3.71-11.02-6.57-4.36-4.03-5.09-9.83-5.07-15.59,0-1.12,.3-2.28,.08-3.34-2.8-13.5,1.98-25.26,8.99-36.17,7.29-11.36,17.29-19.7,30.61-23.31,3.96-1.07,8.08-1.55,12.13-2.29Zm.45,83.99c3.33-.15,6.66-.22,9.98-.47,9.8-.72,19.02-3.07,26.74-9.63,3.55-3.02,7.22-5.89,10.78-8.91,7.52-6.39,15.44-12.1,24.79-15.58,2.49-.93,4.89-2.07,7.33-3.14,1.85-.81,3.03-2.2,2.77-4.27-.84-6.61-2.63-12.57-9.05-16.27-5.2-3-10.42-5.07-16.52-4.12-1.97,.31-3.97,.4-5.95,.65-7.78,.98-15.24,.03-22.29-3.58-3.84-1.97-7.7-3.9-11.57-5.82-12.27-6.09-24.43-5.59-36.27,1.01-13.42,7.48-21.3,19.24-24.92,33.93-.82,3.32-1.11,6.95-.76,10.35,.46,4.42,1.72,8.77,2.84,13.1,.24,.94,1.21,1.9,2.1,2.44,12.3,7.41,25.73,10.53,40.01,10.31Z"/>
          <path class="cls-22" d="M662.72,312.88c-8.8,4.28-18.09,5.71-27.2,7.71-4.16,.91-8.4,1.44-12.62,2.03-2.92,.41-4.83-1.36-5.89-3.69-1.07-2.35-.16-4.58,1.93-6.13,1.16-.86,2.39-1.77,3.73-2.25,9.61-3.46,19.6-4.31,29.72-3.86,2.09,.09,4.22,.73,6.21,1.46,1.97,.73,4.04,1.66,4.12,4.73Z"/>
          <path class="cls-22" d="M476.79,78.45c3.96-1.96,7.86-4.15,12.49-3.82,1.45,.1,2.97,.35,4.28,.94,3.2,1.45,4.02,3.59,2.69,6.89-.61,1.52-1.26,3.26-2.43,4.27-4.62,3.96-9.21,8.06-14.29,11.36-4.87,3.16-8.69,1.67-11.93-3.54,2.84-2.97,5.73-5.89,8.5-8.92,1.71-1.87,3.69-3.65,3.73-6.83l-3.04-.36Z"/>
          <path class="cls-22" d="M707.45,91.32c-.61,2.86-.88,6.74-2.3,10.13-1.84,4.41-7.13,4.62-9.25,.4-2.12-4.22-3.78-8.77-4.99-13.34-1.07-4.04,2.48-8.79,6.53-9.73,3.2-.75,7.79,2.42,8.97,6.39,.51,1.71,.61,3.55,1.03,6.15Z"/>
          <path class="cls-22" d="M550.74,44.39c7.53-2.38,15.15-2.65,22.79-.75,1.56,.39,2.93,1.58,5.46,3-3.64,1.94-6.06,3.68-8.76,4.59-7.78,2.61-15.63,5.02-23.53,7.22-4.51,1.25-7.18-.06-9-3.59,4.51-1.42,9.08-2.7,13.51-4.35,1.69-.63,4.32-2.07,4.34-3.2,.06-2.61-2.97-2.21-4.8-2.92Z"/>
          <path class="cls-14" d="M428.09,140.08c-.78,4.71-1.5,9.35-2.34,13.97-.92,5.03-1.93,10.04-2.96,15.04-.23,1.12-.54,2.26-1.05,3.27-1.61,3.17-5.52,3.45-6.9,.24-.99-2.31-1.46-5.21-1.06-7.67,1.18-7.18,3.07-14.21,7-20.48,2.1-3.35,3.43-4.14,7.31-4.37Z"/>
          <path class="cls-22" d="M551.16,318.69c-6.22,3.77-12.32,5.55-19.1,3.89-4-.98-6-4.14-5.41-8.22,.51-3.53,3-5.77,6.95-5.71,5.83,.08,10.95,2.33,15.37,6.01,1.02,.85,1.38,2.48,2.2,4.04Z"/>
          <path class="cls-41" d="M434.97,325.55c-2.07-1.75-4.43-3.25-6.13-5.3-3.46-4.18-6.72-8.55-9.73-13.06-1.02-1.53-1.22-3.71-1.42-5.63-.25-2.42,1.02-4.19,3.37-4.84,2.4-.67,4.29,.34,5.36,2.51,1.67,3.41,3.27,6.86,4.7,10.37,1.43,3.5,2.7,7.07,3.88,10.66,.49,1.5,.59,3.13,.86,4.7-.3,.2-.59,.4-.89,.59Z"/>
          <path class="cls-52" d="M476.79,78.45c.95,.11,1.91,.23,3.04,.36-.04,3.18-2.03,4.97-3.73,6.83-2.77,3.03-5.66,5.95-8.5,8.92-1.11,.98-2.18,2-3.34,2.92-2.1,1.66-5.33,1.8-6.86,.36-1.49-1.41-1.84-4.14-.53-6.4,.73-1.26,1.82-2.35,2.89-3.38,4.34-4.2,9.18-7.54,15.27-8.7,.62-.12,1.17-.6,1.75-.91Z"/>
          <path class="cls-35" d="M550.74,44.39c1.84,.71,4.86,.31,4.8,2.92-.03,1.12-2.65,2.57-4.34,3.2-4.43,1.65-9,2.92-13.51,4.35-2.37-.14-4.72-.36-5.82-2.96-1.24-2.94,.09-6.04,3.25-7.29,4.32-1.71,8.79-1.34,13.25-.61,.79,.13,1.59,.26,2.38,.4Z"/>
          <path class="cls-52" d="M699.33,131.68c.65,1.8,2.01,3.46,1.45,3.58-.86,4.54-2.11,8.7-3.18,13.19-.54,2.28-1.41,4.58-4.1,5.12-2.18,.44-3.8-.66-5.08-2.39-1.67-2.26-1.94-4.87-.31-6.92,3.28-4.12,6.99-7.89,11.22-12.58Z"/>
          <path class="cls-49" d="M663.28,331.62c-3.83-.17-6.64-2.75-6.58-6.04,.06-2.81,2.94-5.12,6.26-5,3.8,.13,7.72,3.45,7.68,6.51-.03,2.41-3.73,4.69-7.36,4.53Z"/>
          <path class="cls-52" d="M466.84,331.03c-.68,.44-1.4,1.27-1.9,1.16-5.26-1.27-9.87-3.66-13.02-8.28-.18-.26-.19-.63-.29-.94-.78-2.37-.15-4.53,1.76-5.57,2.27-1.24,3.79,.13,5.03,1.76,2.59,3.4,5.08,6.88,7.59,10.34,.28,.38,.45,.84,.81,1.53Z"/>
          <path class="cls-34" d="M431.9,160.75c.26,4.08,.49,7.62,.72,11.16,.06,.99,.14,1.98,.17,2.97,.11,3.7-.71,5.32-2.77,5.49-1.74,.15-3.76-1.99-4.15-4.87-.71-5.34,1.15-10.04,4.11-14.36,.23-.34,.85-.47,1.31-.56,.27-.05,.6,.18,.6,.18Z"/>
        </g>
        <g>
          <path class="cls-50" d="M1733.53,252.97c1.32-11.46-.82-22.52-3.12-33.63-1.61-7.81-2.74-15.74-3.86-23.64-2.19-15.45,1.51-29.76,9.22-43.07,5.05-8.72,12.5-14.55,22.45-16.99,10.03-2.47,18.26-7.7,24.61-15.98,6.18-8.06,12.62-15.92,18.97-23.85,7.88-9.83,17.66-17.25,29.37-21.75,10.54-4.05,21.24-7.78,32.07-10.92,12.05-3.49,24.43-2.61,36.7-.87,12.57,1.78,24.48,6.07,36.47,10.03,9.31,3.08,18.66,6.02,28.05,8.84,4.31,1.29,6.21,.28,6.96-3.84,3.56-19.63,15.63-33.93,29.62-46.81,7.6-7,16.31-12.79,26.75-14.87,4.19-.83,8.59-1.02,12.86-.84,4.3,.19,7.78,2.5,10.68,5.78,6.39,7.21,8.03,15.97,8.05,25.1,.03,13.91-2.25,27.49-7,40.61-2.21,6.1-4.19,12.27-6.42,18.36-3.21,8.79-2.42,17.22,1.36,25.69,2.22,4.98,4.31,10.17,5.38,15.48,1.79,8.8,.45,17.5-2.57,25.99-3.4,9.54-7.22,19.02-9.58,28.83-4.27,17.79-5.15,35.86-1.88,54.02,1.37,7.61,5.33,13.92,9.6,20.09,1.89,2.73,3.99,5.34,6.11,7.9,10.24,12.36,16.1,26.73,18.88,42.36,.93,5.21,1.04,10.61,1.12,15.93,.15,9.83-5.3,16.57-13.64,20.36-11.84,5.38-24.43,7.44-37.5,5.2-14.47-2.47-26.25-10.15-37.3-19.15-6.58-5.36-12.86-11.09-19.28-16.65-1.13-.98-2.34-1.87-3.48-2.85-5.04-4.36-10.44-2.63-13.37,1.63-1.41,2.05-3.12,3.9-4.65,5.87-4.95,6.39-11.63,9.31-19.54,9.37-4.13,.03-8.29-.3-12.4-.81-2.11-.26-3.38,.24-4.64,1.91-5.62,7.44-12.89,12.92-21.1,17.23-5.3,2.78-10.51,5.74-15.88,8.38-11.41,5.61-23.44,8.49-36.23,7.48-18.58-1.46-36.7-4.99-53.01-14.42-8.33-4.81-16.46-10.24-23.76-16.48-17.44-14.9-27.13-33.83-27.03-57.19,.01-3.17,0-6.33,0-9.5m10.25,11.88c-.02,17.18,6.7,31.61,19.18,42.93,10.23,9.27,21.66,17.13,34.48,22.7,14.94,6.5,30.71,8.69,46.77,8.56,5.53-.04,11.39-1.19,16.49-3.3,8.57-3.55,16.7-8.18,24.93-12.53,5.8-3.07,11.11-7.03,14.89-12.35,4.59-6.47,9.96-8.69,17.93-7.37,9.65,1.6,18.66-.33,24.48-9.52,.18-.28,.46-.49,.67-.74,7.42-8.7,19.92-8.73,27.09-3.22,3.16,2.43,6.28,4.93,9.31,7.52,6.2,5.31,12.14,10.93,18.51,16.01,7.47,5.96,15.78,10.39,25.23,12.59,10.69,2.49,21.14,1.82,31.45-1.69,7.67-2.61,10.94-7.63,10.2-15.56-.37-3.98-.58-7.99-1.34-11.9-2.65-13.62-7.96-26.03-17.18-36.6-1.75-2.01-3.31-4.18-5.03-6.22-8.82-10.46-13.14-22.81-13.99-36.19-1.58-24.86,1.01-49.13,11.42-72.22,6.12-13.57,8.24-27.43-.27-41.09-.86-1.39-1.27-3.07-1.83-4.63-3.03-8.41-3.52-16.86-.58-25.42,2.8-8.18,5.44-16.41,8.24-24.59,4.02-11.75,6.38-23.79,5.65-36.24-.2-3.39-1.16-6.93-2.58-10.02-2.53-5.5-7.09-7.59-13.07-7-5.38,.54-10.4,1.99-14.98,4.99-18.16,11.89-30.34,28.13-35.92,49.19-2.36,8.91-7.82,13.15-17,12.66-3.62-.19-7.31-.8-10.79-1.83-13.86-4.1-27.71-8.28-41.46-12.73-11.08-3.59-22.38-4.99-33.95-4.61-12.17,.4-23.41,4.64-34.74,8.5-15.6,5.32-28.21,14.65-38.17,27.79-4.82,6.36-10.05,12.43-15.27,18.48-6.95,8.07-15.9,13.12-26.04,15.9-5.69,1.56-10.6,4.3-14.32,8.62-4.32,5.02-8.14,10.51-11.8,16.05-1.18,1.79-1.63,4.37-1.6,6.58,.06,4.98,.37,10,1.05,14.93,1.73,12.35,3.53,24.69,5.67,36.96,1.39,7.95,1.75,15.79,.68,23.82-1.38,10.37-2.23,20.81-3.31,31.22"/>
          <path class="cls-23" d="M1744.31,250.41c1.07-8.03,.7-15.87-.68-23.82-2.14-12.28-3.95-24.62-5.67-36.96-.69-4.93-.99-9.95-1.05-14.93-.03-2.21,.42-4.79,1.6-6.58,3.66-5.54,7.48-11.03,11.8-16.05,3.72-4.32,8.62-7.06,14.32-8.62,10.14-2.78,19.09-7.84,26.04-15.9,5.22-6.05,10.45-12.12,15.27-18.48,9.96-13.14,22.57-22.48,38.17-27.79,11.33-3.86,22.57-8.1,34.74-8.5,11.57-.38,22.87,1.03,33.95,4.61,13.75,4.46,27.6,8.64,41.46,12.73,3.48,1.03,7.16,1.63,10.79,1.83,9.19,.49,14.64-3.75,17-12.66,5.58-21.06,17.76-37.3,35.92-49.19,4.58-3,9.6-4.45,14.98-4.99,5.98-.6,10.54,1.5,13.07,7,1.42,3.1,2.38,6.63,2.58,10.02,.73,12.45-1.63,24.49-5.65,36.24-2.8,8.18-5.44,16.41-8.24,24.59-2.93,8.56-2.45,17.02,.58,25.42,.56,1.56,.97,3.25,1.83,4.63,8.51,13.66,6.39,27.52,.27,41.09-10.41,23.09-13,47.36-11.42,72.22,.85,13.38,5.17,25.73,13.99,36.19,1.72,2.04,3.28,4.21,5.03,6.22,9.22,10.57,14.54,22.98,17.18,36.6,.76,3.91,.97,7.92,1.34,11.9,.73,7.94-2.53,12.95-10.2,15.56-10.31,3.51-20.76,4.18-31.45,1.69-9.46-2.2-17.76-6.64-25.23-12.59-6.37-5.08-12.32-10.7-18.51-16.01-3.03-2.6-6.15-5.09-9.31-7.52-7.17-5.51-19.67-5.48-27.09,3.22-.22,.25-.5,.46-.67,.74-5.82,9.19-14.83,11.12-24.48,9.52-7.97-1.32-13.34,.9-17.93,7.37-3.78,5.32-9.1,9.29-14.89,12.35-8.22,4.35-16.36,8.98-24.93,12.53-5.1,2.11-10.96,3.26-16.49,3.3-16.07,.13-31.83-2.07-46.77-8.56-12.82-5.58-24.25-13.43-34.48-22.7-12.48-11.31-19.21-25.75-19.18-42.93,0-3.83-1.01-7.24-1.01-11.07m76.96-43.27c0,.83,.08,1.68-.01,2.5-1.18,10.13,7.45,21.36,18.54,23.26,5.8,.99,10.64,3.55,15.09,7.22,7.13,5.87,15.01,10.32,23.8,13.35,16.36,5.63,31.19,2.82,44.63-7.63,9.48-7.38,14.6-17.21,14.19-29.39-.21-6.14-.89-12.29-1.75-18.37-1.96-13.87-3.66-27.73-1.38-41.73,.88-5.41,1.97-10.8,2.5-16.25,.47-4.78,.9-9.71,.25-14.42-1.27-9.22-7.47-14.51-15.95-17.37-13.27-4.47-25.56-1.44-37.34,5.07-9.89,5.47-16.41,14.11-21.13,23.99-5.8,12.14-14.24,22-24.14,30.84-2.6,2.32-5.27,4.64-7.52,7.29-7.73,9.12-9.73,20.11-9.79,31.65Zm53.28-147.97c-1,0-2.01-.12-2.99,.02-10.91,1.52-20.43,6.35-29.31,12.56-2.43,1.7-4.85,3.57-6.79,5.78-5,5.72-3.28,13.85,3.75,16.01,3.94,1.21,7.05-.67,9.99-2.88,9.51-7.14,18.97-14.35,28.51-21.44,1.28-.96,2.92-1.45,4.42-2.1,.97-.42,2.88-.86,2.85-1.09-.17-1.36-.49-2.93-1.33-3.94-2.34-2.79-5.7-3.05-9.09-2.91Zm131.92,96.6c-.28-1.7-.88-4.28-1.06-6.89-.15-2.13-.34-4.07-2.81-4.57-2.5-.51-4.78-.44-6.85,1.69-3.05,3.12-4.54,6.9-5.45,10.96-1.43,6.41-2.86,12.84-3.87,19.33-.73,4.72-.98,9.54-1.07,14.32-.06,3.11,.66,6.22,.85,9.34,.16,2.61,.04,5.23,2.38,7.08,1.91-1.7,3.85-3.37,5.7-5.14,.45-.43,.64-1.15,.87-1.78,2-5.59,4.27-11.11,5.9-16.81,2.49-8.7,4.81-17.47,5.41-27.54Zm-222.69,12.94c3.74-.01,7.48-2.71,8.35-6.62,2.52-11.32,7.02-21.96,11-32.79,.45-1.24,.88-2.51,1.09-3.8,.44-2.75-.61-4.01-3.24-3.29-3,.82-6.27,1.71-8.63,3.57-9.82,7.75-16.42,17.87-18.79,30.16-1.17,6.09,3.55,12.19,10.22,12.76Zm236.51-124.32c0,2-.13,4.01,.04,5.99,.12,1.46,.57,2.9,.99,4.32,1.04,3.5,4.18,5.5,7.03,4.19,1.42-.65,2.84-1.94,3.58-3.31,1.39-2.59,2.58-5.36,3.34-8.2,1.31-4.91,1.99-10,3.4-14.87,.99-3.43,.52-6.55-.58-9.69-1.34-3.81-2.95-4.79-7.11-4.74-4.06,.05-6.44,1.62-7.61,6.39m-16.72,247.92c-1.78,1.49-3.4,2.39-4.37,3.75-1.58,2.22-1.06,4.74-.06,7.13,4,9.6,10.26,17.35,18.99,23.03,.67,.44,1.75,.25,2.64,.35-.17-.89-.2-1.84-.55-2.66-3.46-8.22-6.97-16.42-10.47-24.62-.45-1.06-.69-2.35-1.44-3.13-1.29-1.35-2.9-2.38-4.75-3.84Zm-17.45-219.18c-.21,4.51,1.38,7.22,4.13,7.95,3.27,.87,5.85-.59,7.43-4.28,.39-.91,.7-1.87,.91-2.84,1.43-6.65,2.79-13.32,4.26-19.96,.39-1.77-.55-2.2-1.83-1.96-1.26,.23-2.64,.67-3.6,1.46-6.43,5.33-9.98,12.31-11.3,19.63Zm26.28,119.02c.14,.02-.3,.23-.16,.25,0,1.49-.11,3,.05,4.48,.08,.7,.69,1.33,1.06,2,.63-.36,1.35-.62,1.86-1.11,.46-.43,.79-1.08,1-1.69,2.67-7.82,5.37-15.62,7.88-23.49,.48-1.52,.57-3.42,.09-4.9-.45-1.37-1.76-3.17-2.96-3.41-1.49-.3-3.5,.48-4.85,1.42-.89,.61-1.26,2.29-1.44,3.55-1.1,7.69-1.5,15.21-2.52,22.92Zm-240.63-44.11c-1.21,0-2.55-.23-3.78,.04-6.91,1.53-16.39,14.99-15.62,22.07,.26,2.35,1.44,4.17,3.8,4.75,2.59,.64,4.02-1,4.98-3.14,3.52-7.83,7.02-15.68,10.62-23.72Zm-9.48,51.43c-6.8,3.67-11.32,14.8-8.99,21.58,.88,2.56,3.36,4.27,5.68,3.92,2.24-.34,3.77-2.11,3.86-5.08,.07-2.3-.47-4.62-.52-6.93-.09-4.44-.03-8.89-.03-13.49Z"/>
          <path class="cls-50" d="M1817.82,238.86c.06-11.54,2.06-22.53,9.79-31.65,2.25-2.65,4.91-4.96,7.52-7.29,9.9-8.84,18.34-18.71,24.14-30.84,4.72-9.88,11.24-18.52,21.13-23.99,11.78-6.51,24.07-9.54,37.34-5.07,8.48,2.86,14.68,8.15,15.95,17.37,.65,4.71,.21,9.64-.25,14.42-.53,5.45-1.62,10.84-2.5,16.25-2.28,14-.59,27.86,1.38,41.73,.86,6.09,1.55,12.23,1.75,18.37,.41,12.19-4.7,22.01-14.19,29.39-13.44,10.45-28.28,13.26-44.63,7.63-8.79-3.03-16.68-7.48-23.8-13.35-4.45-3.66-9.29-6.23-15.09-7.22-11.09-1.9-19.72-13.13-18.54-23.26,.1-.82,.01-1.66,.01-2.5Zm6.54-2.37c.42,1.68,.34,4.6,1.74,6.26,4.51,5.36,9.64,10.21,16.45,12.63,6.67,2.37,12.57,5.99,18.11,10.33,5.99,4.69,12.88,7.5,20.16,9.52,12.22,3.4,23.13,.57,32.71-7.25,7.11-5.8,10.65-13.57,9.96-22.85-.46-6.13-1.14-12.28-2.2-18.33-2.84-16.22-3.46-32.36,.22-48.57,1.21-5.32,1.74-10.83,2.08-16.29,.4-6.37-2.76-10.68-8.71-13.12-4.14-1.7-8.35-2.12-12.72-1.49-14.51,2.09-25.42,9.61-32.35,22.42-8.19,15.17-18.92,28.05-32.4,38.79-8.62,6.86-11.78,16.56-13.05,27.93Z"/>
          <path class="cls-8" d="M1871.1,90.89c3.39-.14,6.75,.12,9.09,2.91,.85,1.01,1.16,2.58,1.33,3.94,.03,.24-1.87,.67-2.85,1.09-1.5,.65-3.13,1.14-4.42,2.1-9.54,7.1-19,14.3-28.51,21.44-2.95,2.21-6.05,4.09-9.99,2.88-7.03-2.16-8.74-10.29-3.75-16.01,1.94-2.22,4.36-4.08,6.79-5.78,8.88-6.21,18.4-11.04,29.31-12.56,.98-.14,2-.02,2.99-.02Z"/>
          <path class="cls-8" d="M2003.03,187.49c-.6,10.07-2.92,18.84-5.41,27.54-1.63,5.7-3.9,11.21-5.9,16.81-.22,.62-.42,1.35-.87,1.78-1.85,1.77-3.79,3.43-5.7,5.14-2.34-1.85-2.22-4.47-2.38-7.08-.19-3.12-.91-6.23-.85-9.34,.09-4.78,.34-9.6,1.07-14.32,1.01-6.49,2.43-12.91,3.87-19.33,.91-4.06,2.4-7.84,5.45-10.96,2.07-2.12,4.35-2.2,6.85-1.69,2.47,.51,2.66,2.44,2.81,4.57,.19,2.61,.79,5.19,1.06,6.89Z"/>
          <path class="cls-8" d="M1780.33,200.42c-6.67-.57-11.39-6.67-10.22-12.76,2.37-12.29,8.96-22.41,18.79-30.16,2.36-1.86,5.63-2.76,8.63-3.57,2.62-.72,3.68,.55,3.24,3.29-.21,1.29-.63,2.57-1.09,3.8-3.97,10.83-8.47,21.47-11,32.79-.87,3.9-4.62,6.6-8.35,6.62Z"/>
          <path class="cls-8" d="M2019.92,56.17c1.17-4.77,3.55-6.34,7.61-6.39,4.16-.05,5.77,.93,7.11,4.74,1.11,3.14,1.57,6.26,.58,9.69-1.41,4.88-2.09,9.96-3.4,14.87-.76,2.83-1.94,5.61-3.34,8.2-.74,1.37-2.16,2.66-3.58,3.31-2.85,1.31-5.99-.69-7.03-4.19-.42-1.42-.86-2.86-.99-4.32-.17-1.98-.04-3.99-.04-5.99"/>
          <path class="cls-17" d="M2003.2,304.09c2.39,1.1,3.46,2.49,4.75,3.84,.75,.79,.98,2.07,1.44,3.13,3.5,8.2,7.01,16.4,10.47,24.62,.34,.82,.37,1.77,.55,2.66-.89-.1-1.97,.09-2.64-.35-8.73-5.68-14.99-13.43-18.99-23.03-1-2.39-1.52-4.91,.06-7.13,.97-1.36,2.13-2.64,4.37-3.75Z"/>
          <path class="cls-17" d="M1985.75,84.91c1.32-7.33,4.87-14.31,11.3-19.63,.96-.79,2.34-1.23,3.6-1.46,1.28-.24,2.22,.19,1.83,1.96-1.47,6.64-2.83,13.31-4.26,19.96-.21,.97-.52,1.93-.91,2.84-1.58,3.68-4.16,5.15-7.43,4.28-2.75-.73-4.34-3.45-4.13-7.95Z"/>
          <path class="cls-17" d="M2014.55,181.01c.18-1.26,.56-2.93,1.44-3.55,1.35-.93,3.36-1.72,4.85-1.42,1.21,.24,2.51,2.04,2.96,3.41,.48,1.48,.39,3.39-.09,4.9-2.51,7.87-5.21,15.68-7.88,23.49-.21,.61-.54,1.26-1,1.69-.51,.49-1.23,.75-1.86,1.11-.37-.66-.99-1.3-1.06-2-.17-1.48-.05-2.98-.05-4.48"/>
          <path class="cls-7" d="M1771.4,159.82c-3.6,8.05-7.1,15.89-10.62,23.72-.96,2.14-2.39,3.78-4.98,3.14-2.35-.58-3.54-2.4-3.8-4.75-.77-7.09,8.71-20.55,15.62-22.07,1.23-.27,2.57-.04,3.78-.04Z"/>
          <path class="cls-7" d="M1761.92,211.25c0,4.6-.07,9.05,.03,13.49,.05,2.31,.59,4.63,.52,6.93-.09,2.96-1.62,4.74-3.86,5.08-2.32,.35-4.8-1.37-5.68-3.92-2.32-6.78,2.19-17.91,8.99-21.58Z"/>
        </g>
        <g>
          <path class="cls-32" d="M767.95,45.57c.68-2.77,.86-5.5,1.37-8.31,2.37-12.99,11.75-23.4,23.56-24.71,13.65-1.51,25.46,2.57,33.59,14.28,2.73,3.93,4.57,8.47,6.94,12.67,2.2,3.9,4.16,8.03,6.94,11.49,8.22,10.24,14.39,21.58,19.13,33.75,4.6,11.78,8.9,23.68,13.82,35.33,3.56,8.41,7.6,16.65,11.99,24.67,6.02,10.99,10.71,22.52,15.02,34.24,4.31,11.71,8.39,23.51,13.1,35.06,3.06,7.51,7.08,14.63,10.71,22.03,5.58-2.76,9.46-6.23,12.48-11.02,4.46-7.04,8.64-14.16,11.74-21.93,1.55-3.88,1.51-7.44-.52-10.99-2.48-4.33-4.85-8.74-7.62-12.88-7.67-11.45-10.24-24.34-11.31-37.76-.53-6.58-.11-13,2.21-19.16,1.22-3.24,2.8-6.39,4.54-9.4,4.86-8.42,12.42-11.7,21.89-10.83,3.8,.35,7.6,.94,11.35,1.69,4.03,.81,7.26,3.09,10.2,5.94,4.18,4.05,8.51,7.95,12.86,11.83,3,2.67,6.37,3.46,10.1,1.44,4.07-2.21,8.19-4.33,12.22-6.62,1.58-.9,3-2.1,4.43-3.25,9.07-7.3,18.93-7.21,29.15-3.01,2.6,1.07,5.09,2.48,7.47,3.99,6.83,4.32,9.27,10,7.52,17.93-.71,3.21-2.03,6.31-3.21,9.4-3.14,8.22-6.54,16.36-9.48,24.66-1.32,3.73-2.01,7.72-2.6,11.65-.83,5.58-.1,10.93,3.33,15.7,10.75,14.97,15.33,32.32,19.19,49.95,.14,.64,.28,1.28,.51,2.36,8.84-5.53,15.56-12.7,20.74-21.36,5.51-9.2,6.71-19.29,6.35-29.81-.24-7.13-.07-14.3,.34-21.42,.34-5.97,3-11.23,6.55-15.96,7.11-9.5,12.97-19.74,18.29-30.32,3.97-7.9,8.26-15.6,14.18-22.26,3.51-3.95,4.58-8.98,5.05-13.88,1.31-13.64,7.04-25.07,15.6-35.55,3.85-4.72,6.59-10.35,9.82-15.58,3.49-5.66,6.52-11.67,10.54-16.92,7.31-9.54,16.9-13.65,29.04-10.35,8.32,2.26,13.19,7.99,16.27,15.6,4.56,11.23,4.76,22.73,1.58,34.29-1.67,6.08-3.61,12.12-5.89,18-4.5,11.66-8.31,23.48-10.85,35.74-3.04,14.67-10,27.81-17.13,40.79-4.88,8.89-10.23,17.53-15.44,26.24-12.42,20.74-24.09,41.84-30.66,65.3-1.93,6.88-3.45,13.88-4.87,20.89-2.26,11.19-7.57,21.28-11.21,31.97-4.02,11.8-7.81,23.67-11.47,35.59-3.04,9.91-6.33,19.61-13.12,27.76-7.23,8.68-16.38,13.35-27.63,14.11-9.91,.67-16.37-3.38-19.31-12.93-3.03-9.87-5.63-19.92-11.15-28.73-4.4-7.02-9.08-13.97-14.45-20.26-5.2-6.09-9.16-12.61-11.54-20.18-.95-3.01-1.82-6.06-2.97-9-1.75-4.45-4.77-7.3-9.77-8.27-6.29-1.21-12.36-2.28-18.47,.86-2.59,1.33-4.39,2.9-4.88,5.8-.06,.33-.24,.64-.25,.97-.17,9.49-4.73,17.52-8.47,25.86-4.08,9.1-7.78,18.37-11.89,27.45-8.47,18.67-22.32,32.07-40.75,40.84-2.75,1.31-5.62,2.39-8.44,3.57h-3c-1.16-.88-2.2-2.07-3.5-2.58-6.44-2.51-10.33-7.6-13.89-13.13-4.71-7.33-8.12-15.25-10.75-23.52-2.19-6.88-5.39-13.2-9.72-18.99-8.98-12.02-14.91-25.41-18.34-40.02-4.57-19.49-11.68-38.07-20.56-56.02-4.34-8.77-8.46-17.73-11.64-26.96-5.76-16.74-13.49-32.51-21.89-48-9.55-17.62-17.19-35.97-22.46-55.32-2.92-10.74-6.12-21.41-9.02-32.16-.73-2.7-.74-5.58-1.2-8.37m187.03,269.82c1.47-3.13,3.94-5.85,3.92-9.59,.14-.09,.37-.14,.41-.26,4.57-11.52,11.15-22.31,12.52-35.01,.58-5.35,3.09-9.83,7.56-12.99,9.84-6.96,28.9-7.49,38.84-.64,3.04,2.09,5.52,5.3,7.55,8.45,1.66,2.58,2.55,5.77,3.3,8.81,2.3,9.38,6.59,17.45,12.84,24.98,9.75,11.73,16.18,25.49,21.09,39.92,1.12,3.3,2.12,6.66,3.49,9.86,2.04,4.78,4.26,6,9.37,5.5,8.75-.85,15.78-4.73,21.1-11.82,5.01-6.68,7.84-14.33,9.62-22.29,2.66-11.88,6.41-23.36,10.62-34.77,4.25-11.52,9.8-22.57,12.19-34.78,1.4-7.16,3.12-14.29,5.14-21.31,6.68-23.19,18.14-44.24,29.6-65.28,8.11-14.9,16.14-29.85,23.81-44.98,2.83-5.59,5.17-11.61,6.59-17.7,3.9-16.73,9.78-32.78,15.64-48.86,1.81-4.97,3.33-10.13,4.19-15.33,1.26-7.68,.6-15.27-3.37-22.28-1.8-3.18-4.29-5.3-7.87-6.45-5.59-1.8-10.49-.43-14.14,3.63-3.74,4.16-7.12,8.82-9.75,13.75-4.63,8.7-9.52,17.15-15.69,24.86-4.52,5.65-7.95,11.9-9.16,19.16-.55,3.28-.9,6.59-1.44,9.87-1.01,6.16-2.87,12-7.32,16.64-4.78,4.98-8.2,10.84-11.58,16.8-6.41,11.28-12.78,22.59-19.74,33.52-4.2,6.58-6.41,13.31-6.37,21.09,.04,7.64-.2,15.32-.92,22.92-1.84,19.25-12.65,33.18-27.38,44.55-3.04,2.34-6.63,3.78-10.68,3.57-2.5-.13-4.35-.7-5.36-3.46-2.39-6.54-5.81-12.77-7.54-19.46-2.97-11.54-6.82-22.51-13.53-32.48-4.12-6.12-5.5-13.21-4.41-20.54,1.19-8.06,3.15-15.94,6.36-23.51,2.66-6.27,5.03-12.67,7.26-19.1,2.94-8.49,1.98-10.55-6.21-14.44-1.94-.92-4.01-1.6-6.04-2.32-5.59-1.98-10.65-1.05-15.61,2.27-5.65,3.78-11.48,7.34-17.48,10.53-7.63,4.05-15.2,3.4-21.94-2.09-4.11-3.35-7.74-7.29-11.7-10.82-1.95-1.74-3.99-3.9-6.35-4.57-4.27-1.21-8.79-1.7-13.25-2-3.89-.26-7.01,1.59-9.31,4.84-2.92,4.13-5.06,8.55-6.05,13.55-1.72,8.66-.75,17.22,.93,25.73,1.81,9.19,6.79,16.92,11.85,24.56,2.87,4.33,5.44,8.72,6.82,13.79,1.06,3.88,.91,7.6-.82,11.18-4.19,8.7-8.66,17.24-14.74,24.83-1.25,1.56-3.04,3.08-3.4,4.86-.97,4.85-4.39,6.73-8.38,8.33-.76,.31-1.72,1.12-1.84,1.83-.55,3.16-2.82,2.6-4.58,1.95-1.64-.61-3.22-1.84-4.38-3.18-6.04-6.94-11.28-14.38-14.5-23.12-5.86-15.91-11.65-31.84-17.84-47.61-2.73-6.94-6.05-13.7-9.66-20.23-6.86-12.4-13.25-24.97-18.2-38.27-3.66-9.82-7.05-19.77-11.42-29.27-3.95-8.58-8.56-16.95-13.8-24.8-4.44-6.66-8.81-13.22-12.24-20.5-2.01-4.26-4.99-8.32-8.35-11.65-5.52-5.48-12.78-7.33-20.32-6.04-8.51,1.46-13.02,7.52-14.97,15.57-2.47,10.18-2.72,20.51-.24,30.66,7.47,30.62,17.24,60.41,32.69,88.11,7.22,12.94,13.1,26.49,18.17,40.44,3.62,9.98,7.69,19.86,12.36,29.38,8.55,17.42,14.86,35.55,19.15,54.42,3.34,14.64,9.33,28.04,18.2,40.13,4.96,6.76,8.93,13.97,11.77,21.88,3.27,9.11,7.56,17.78,13.37,25.56,1.73,2.31,4.31,4.04,6.65,5.83,1.61,1.23,3.35,.98,5.07-.22,5.74-3.99,11.59-7.82,17.33-11.82,8.43-5.87,14.35-13.77,18.4-23.13,1.37-3.05,2.73-6.09,4.1-9.14Z"/>
          <path class="cls-27" d="M951.26,338.49c-4.05,9.37-9.97,17.27-18.4,23.13-5.74,3.99-11.58,7.83-17.33,11.82-1.73,1.2-3.47,1.44-5.07,.22-2.35-1.79-4.92-3.52-6.65-5.83-5.81-7.78-10.1-16.45-13.37-25.56-2.84-7.91-6.81-15.12-11.77-21.88-8.87-12.09-14.86-25.49-18.2-40.13-4.3-18.86-10.61-37-19.15-54.42-4.68-9.53-8.74-19.4-12.36-29.38-5.06-13.95-10.95-27.5-18.17-40.44-15.45-27.69-25.22-57.49-32.69-88.11-2.48-10.15-2.22-20.48,.24-30.66,1.95-8.05,6.46-14.11,14.97-15.57,7.55-1.3,14.8,.56,20.32,6.04,3.36,3.33,6.34,7.38,8.35,11.65,3.43,7.28,7.8,13.84,12.24,20.5,5.24,7.85,9.85,16.22,13.8,24.8,4.37,9.5,7.77,19.45,11.42,29.27,4.95,13.29,11.35,25.87,18.2,38.27,3.61,6.53,6.94,13.29,9.66,20.23,6.19,15.77,11.99,31.71,17.84,47.61,3.22,8.74,8.46,16.18,14.5,23.12,1.17,1.34,2.74,2.57,4.38,3.18,1.75,.66,4.03,1.22,4.58-1.95,.12-.71,1.08-1.53,1.84-1.83,3.99-1.6,7.41-3.48,8.38-8.33,.35-1.78,2.15-3.3,3.4-4.86,6.08-7.59,10.55-16.13,14.74-24.83,1.73-3.58,1.87-7.3,.82-11.18-1.38-5.07-3.95-9.46-6.82-13.79-5.06-7.63-10.04-15.37-11.85-24.56-1.68-8.51-2.65-17.07-.93-25.73,.99-4.99,3.13-9.42,6.05-13.55,2.3-3.25,5.43-5.11,9.31-4.84,4.45,.3,8.98,.79,13.25,2,2.36,.67,4.39,2.83,6.35,4.57,3.97,3.53,7.59,7.47,11.7,10.82,6.74,5.49,14.31,6.14,21.94,2.09,6-3.19,11.83-6.75,17.48-10.53,4.96-3.32,10.02-4.25,15.61-2.27,2.03,.72,4.1,1.4,6.04,2.32,8.19,3.89,9.15,5.95,6.21,14.44-2.23,6.44-4.6,12.84-7.26,19.1-3.21,7.57-5.17,15.45-6.36,23.51-1.09,7.33,.29,14.43,4.41,20.54,6.71,9.97,10.56,20.94,13.53,32.48,1.72,6.69,5.15,12.92,7.54,19.46,1.01,2.76,2.85,3.32,5.36,3.46,4.06,.22,7.64-1.22,10.68-3.57,14.73-11.37,25.54-25.31,27.38-44.55,.73-7.6,.96-15.28,.92-22.92-.04-7.78,2.17-14.51,6.37-21.09,6.97-10.93,13.34-22.25,19.74-33.52,3.38-5.95,6.8-11.82,11.58-16.8,4.45-4.63,6.3-10.47,7.32-16.64,.54-3.28,.9-6.59,1.44-9.87,1.21-7.26,4.64-13.5,9.16-19.16,6.16-7.71,11.06-16.17,15.69-24.86,2.63-4.93,6.01-9.59,9.75-13.75,3.65-4.06,8.54-5.43,14.14-3.63,3.58,1.15,6.07,3.27,7.87,6.45,3.96,7,4.63,14.6,3.37,22.28-.86,5.2-2.38,10.36-4.19,15.33-5.86,16.08-11.75,32.13-15.64,48.86-1.42,6.09-3.76,12.11-6.59,17.7-7.66,15.13-15.7,30.08-23.81,44.98-11.46,21.05-22.92,42.09-29.6,65.28-2.02,7.02-3.74,14.14-5.14,21.31-2.38,12.2-7.94,23.26-12.19,34.78-4.21,11.41-7.96,22.89-10.62,34.77-1.78,7.96-4.61,15.61-9.62,22.29-5.32,7.09-12.35,10.97-21.1,11.82-5.12,.5-7.33-.72-9.37-5.5-1.37-3.2-2.37-6.56-3.49-9.86-4.91-14.43-11.34-28.19-21.09-39.92-6.25-7.53-10.54-15.6-12.84-24.98-.75-3.04-1.64-6.23-3.3-8.81-2.03-3.15-4.51-6.36-7.55-8.45-9.94-6.85-29-6.32-38.84,.64-4.47,3.16-6.98,7.64-7.56,12.99-1.38,12.7-7.95,23.49-12.52,35.01-.05,.12-.27,.18-.41,.26-3.79-3.33-6.17-3.33-8.68,.98-2.96,5.08-5.25,10.56-7.73,15.91-.26,.56,.09,1.4,.16,2.11,.7-.15,1.58-.07,2.06-.48,2.51-2.14,4.91-4.4,7.35-6.61,.12,.65,.47,1.35,.33,1.94-.39,1.66-.98,3.27-1.5,4.89ZM1196.53,56.52c.16,4.09,.32,8.19,.5,12.28,.04,.86,.19,1.72,.29,2.58,.87-.55,1.97-.92,2.56-1.69,3.23-4.2,4.19-9.24,4.96-14.32,.83-5.5-.79-7.16-6.44-6.7-1.67-3.81-4.5-5.68-7.41-4.9-3.35,.9-5.51,4.34-4.58,8.23,.68,2.84,1.92,5.62,3.34,8.19,.59,1.08,2.55,2.38,3.4,2.1,1.28-.42,2.26-2.06,3.11-3.35,.4-.61,.2-1.61,.27-2.44Zm-164.09,85.75c.85,.59,1.5,1.92,2.75,.36,2.62-3.25,2.91-11.15,.4-14.6-1.31-1.81-2.98-2.61-5.15-1.59-2.26,1.06-2.48,2.85-1.71,4.99,.61,1.7,1.14,3.42,1.71,5.13-1.21-1.32-2.3-2.78-3.65-3.93-2-1.7-5.92-.49-6.34,2.09-.27,1.69-.15,3.83,.68,5.25,2.73,4.7,5.83,9.19,8.86,13.72,.29,.44,1.07,.56,2.45,1.22v-12.64Zm72.89,157.24c4.12-2.91,3.83-7.68,4.89-11.84,.46-1.81,.14-3.8-1.92-4.64-2.39-.98-3.14,1.03-4.08,2.57-4.76-1.74-5.75-1.13-5.96,3.5-.29,6.61-.65,13.21-1,19.81-.04,.82-.33,1.63-.33,2.44,0,1.33,.13,2.65,.21,3.98,1.24-.93,2.82-1.64,3.63-2.86,1.17-1.76,1.9-3.84,2.59-5.87,.79-2.32,1.32-4.72,1.96-7.09Zm-70.73-84.99c-.61-.25-1.27-.4-1.81-.76-2.16-1.46-4.55-1.23-5.62,.8-.85,1.62-1.08,4.6-.12,5.94,3.44,4.81,7.48,9.2,11.36,13.69,.48,.56,1.35,.77,2.04,1.15,.29-.86,.87-1.74,.82-2.58-.14-2.11-.54-4.21-.88-6.31-.29-1.77-.64-3.52-.97-5.28,1.65,2.43,3.28,4.89,4.99,7.28,.31,.43,.97,.59,1.47,.88,.27-.55,.81-1.11,.78-1.64-.36-7.07-2.35-13.6-6.68-19.3-.79-1.04-1.62-2.12-2.63-2.92-1.56-1.24-3.63-1.63-4.9-.04-.8,1.02-.9,3.06-.53,4.42,.46,1.68,1.75,3.12,2.68,4.67Zm151.56-125.87c-2.46-1.39-5.16-2.06-7.29,.08-1.08,1.09-1.47,3.21-1.55,4.89-.43,9.21-.67,18.43-.93,27.65-.01,.36,.45,.74,.96,1.51,5.81-7.69,8.14-16.22,9.08-25.27,.47-.13,1.25-.13,1.35-.4,1.86-4.74,3.76-9.47,5.38-14.29,.51-1.52-.36-3-2.15-3.36-1.9-.39-3.33,.33-3.74,2.32-.47,2.27-.75,4.58-1.11,6.88Zm-353.23,.89c-1.13-2.49-1.99-5.15-3.46-7.42-1.79-2.77-4.59-3.29-7.3-1.94-2.54,1.27-3.83,4.28-2.4,7.17,3.38,6.81,7.43,13.21,13.19,18.32,.48,.43,1.42,.34,2.14,.48,.14-.71,.47-1.44,.4-2.14-.36-3.75-.82-7.49-1.25-11.23,2.27,2.62,4.52,5.27,6.82,7.86,.87,.98,1.75,2.08,2.86,2.71,1.11,.63,2.7,.33,2.22-1.34-1.37-4.74-2.99-9.43-4.71-14.06-.81-2.16-2.53-3.59-5.04-3.21-2.67,.4-3.22,2.53-3.47,4.78Zm-24.61-42.25c1.08,.75,2.43,1.29,3.19,2.28,2.1,2.74,3.92,5.7,5.95,8.51,.42,.58,1.25,.87,1.9,1.29,.31-.7,.97-1.45,.87-2.08-.45-2.76-.98-5.53-1.76-8.22-1.3-4.52-4.15-7.99-8.21-10.27-4.08-2.29-6.22-1.07-7.19,3.72-1.81-1.7-3.83-2.49-6.33-1.65-4.46,1.5-6.2,6.45-2.9,10.51,4.57,5.64,9.77,10.79,14.85,16,1.74,1.79,3.42,1.08,3.53-1.52,.12-2.78,.05-5.66-.56-8.35-.79-3.48-2.2-6.83-3.34-10.23Zm103.27,204.13c-1.51-8.71-4.44-16.41-11.16-22.24-2.31-2-5.71-2.25-7.65-.54-2.03,1.79-1.98,4.07,.18,7.08,.19,.27,.45,.49,.66,.74,4.51,5.47,8.96,10.99,13.57,16.37,.72,.84,2.18,1.06,3.29,1.57l1.1-2.98Zm26.52,64.71l1.44,.46c1.21-1.09,2.34-2.29,3.65-3.25,5.75-4.23,9.33-10.07,12.4-16.33,.89-1.81,.98-3.37-.37-5.04-2.94-3.63-7.25-3.4-9.57,1.22-2.57,5.11-4.43,10.59-6.34,16-.77,2.19-.83,4.62-1.21,6.95Zm18.19-194.37c-1.38,1.08-3.12,1.8-3.62,3.03-.41,1.02,.23,3.19,1.14,3.88,4.23,3.2,8.71,6.08,13.15,9,.42,.27,1.36,.29,1.69,0,.36-.31,.6-1.31,.36-1.68-2.46-3.9-4.85-7.87-7.66-11.51-.98-1.27-3.06-1.7-5.07-2.73Zm-85.15,45.39c.64-5.45-.3-9.76-2.35-13.82-1.36-2.68-4.15-3.61-6.21-2.38-1.8,1.08-2.36,3.82-.92,6.25,2.2,3.72,5.04,6.92,9.48,9.94Z"/>
          <path class="cls-5" d="M952.43,331.66c-2.44,2.22-4.84,4.48-7.35,6.61-.48,.41-1.36,.33-2.06,.48-.07-.71-.42-1.55-.16-2.11,2.49-5.35,4.77-10.83,7.73-15.91,2.51-4.31,4.89-4.31,8.68-.98,.02,3.74-2.45,6.46-3.92,9.59-.98,.77-1.95,1.54-2.93,2.31Z"/>
          <path class="cls-16" d="M952.43,331.66c.98-.77,1.95-1.54,2.93-2.31-1.37,3.05-2.73,6.09-4.1,9.14,.51-1.63,1.1-3.24,1.5-4.89,.14-.59-.2-1.29-.33-1.94Z"/>
          <path class="cls-13" d="M808.32,47.29c1.14,3.4,2.55,6.75,3.34,10.23,.61,2.69,.68,5.57,.56,8.35-.11,2.6-1.78,3.31-3.53,1.52-5.08-5.21-10.28-10.36-14.85-16-3.29-4.06-1.56-9.01,2.9-10.51,2.5-.84,4.52-.05,6.33,1.65l5.24,4.76Z"/>
          <path class="cls-13" d="M911.59,251.42l-1.1,2.98c-1.12-.51-2.57-.73-3.29-1.57-4.61-5.38-9.06-10.9-13.57-16.37-.21-.26-.47-.48-.66-.74-2.16-3.01-2.22-5.29-.18-7.08,1.93-1.71,5.33-1.46,7.65,.54,6.72,5.83,9.65,13.53,11.16,22.24Z"/>
          <path class="cls-13" d="M834.26,92.79c.43,3.74,.89,7.48,1.25,11.23,.07,.69-.26,1.42-.4,2.14-.73-.15-1.66-.06-2.14-.48-5.76-5.11-9.81-11.52-13.19-18.32-1.43-2.89-.14-5.91,2.4-7.17,2.71-1.35,5.51-.83,7.3,1.94,1.47,2.27,2.33,4.93,3.46,7.42l1.32,3.25Z"/>
          <path class="cls-13" d="M938.11,316.12c.38-2.32,.44-4.76,1.21-6.95,1.9-5.41,3.77-10.89,6.34-16,2.32-4.62,6.63-4.85,9.57-1.22,1.35,1.67,1.26,3.23,.37,5.04-3.07,6.26-6.65,12.1-12.4,16.33-1.31,.96-2.44,2.16-3.65,3.25l-1.44-.46Z"/>
          <path class="cls-13" d="M1186.43,97.51c-.93,9.05-3.27,17.58-9.08,25.27-.51-.77-.97-1.15-.96-1.51,.26-9.22,.5-18.44,.93-27.65,.08-1.68,.47-3.8,1.55-4.89,2.12-2.14,4.83-1.47,7.29-.08l.28,8.86Z"/>
          <path class="cls-6" d="M1039.42,221.18c.33,1.76,.68,3.51,.97,5.28,.34,2.1,.74,4.19,.88,6.31,.06,.84-.52,1.72-.82,2.58-.69-.37-1.56-.59-2.04-1.15-3.88-4.49-7.92-8.88-11.36-13.69-.95-1.33-.73-4.32,.12-5.94,1.07-2.03,3.46-2.25,5.62-.8,.53,.36,1.2,.51,1.81,.76,1.61,2.22,3.21,4.44,4.82,6.66Z"/>
          <path class="cls-26" d="M1105.34,299.52c-.64,2.37-1.18,4.77-1.96,7.09-.69,2.02-1.42,4.11-2.59,5.87-.81,1.22-2.39,1.92-3.63,2.86-.08-1.33-.21-2.65-.21-3.98,0-.81,.29-1.62,.33-2.44,.35-6.6,.71-13.21,1-19.81,.2-4.63,1.2-5.24,5.96-3.5,.37,4.64,.74,9.28,1.11,13.92Z"/>
          <path class="cls-4" d="M1032.44,142.27v12.64c-1.37-.66-2.15-.78-2.45-1.22-3.03-4.52-6.13-9.01-8.86-13.72-.83-1.43-.95-3.56-.68-5.25,.42-2.58,4.34-3.79,6.34-2.09,1.35,1.15,2.44,2.61,3.65,3.93l2,5.7Z"/>
          <path class="cls-26" d="M1196.53,56.52c-.07,.82,.13,1.83-.27,2.44-.85,1.29-1.83,2.93-3.11,3.35-.85,.28-2.81-1.03-3.4-2.1-1.41-2.57-2.66-5.35-3.34-8.19-.93-3.9,1.22-7.33,4.58-8.23,2.91-.78,5.74,1.09,7.41,4.9-.62,2.62-1.25,5.23-1.87,7.85Z"/>
          <path class="cls-9" d="M1039.42,221.18c-1.61-2.22-3.21-4.44-4.82-6.66-.93-1.55-2.22-3-2.68-4.67-.38-1.36-.27-3.4,.53-4.42,1.26-1.6,3.34-1.2,4.9,.04,1.01,.81,1.84,1.88,2.63,2.92,4.33,5.7,6.32,12.23,6.68,19.3,.03,.53-.51,1.1-.78,1.64-.5-.29-1.17-.45-1.47-.88-1.71-2.39-3.33-4.85-4.99-7.28Z"/>
          <path class="cls-9" d="M808.32,47.29l-5.24-4.76c.97-4.79,3.11-6.02,7.19-3.72,4.06,2.28,6.91,5.75,8.21,10.27,.77,2.69,1.3,5.46,1.76,8.22,.1,.63-.56,1.38-.87,2.08-.64-.42-1.47-.71-1.9-1.29-2.03-2.8-3.85-5.76-5.95-8.51-.76-.99-2.11-1.53-3.19-2.28Z"/>
          <path class="cls-18" d="M1196.53,56.52l1.87-7.85c5.65-.47,7.27,1.19,6.44,6.7-.76,5.08-1.73,10.12-4.96,14.32-.59,.77-1.69,1.13-2.56,1.69-.1-.86-.25-1.71-.29-2.58-.18-4.09-.34-8.19-.5-12.28Z"/>
          <path class="cls-9" d="M834.26,92.79l-1.32-3.25c.25-2.25,.79-4.38,3.47-4.78,2.52-.38,4.24,1.05,5.04,3.21,1.73,4.63,3.34,9.31,4.71,14.06,.48,1.66-1.12,1.97-2.22,1.34-1.11-.63-1.98-1.73-2.86-2.71-2.3-2.59-4.55-5.24-6.82-7.86Z"/>
          <path class="cls-44" d="M956.29,121.76c2,1.03,4.09,1.46,5.07,2.73,2.81,3.64,5.2,7.61,7.66,11.51,.23,.37,0,1.37-.36,1.68-.33,.29-1.27,.27-1.69,0-4.44-2.92-8.91-5.81-13.15-9-.91-.69-1.55-2.87-1.14-3.88,.49-1.23,2.24-1.95,3.62-3.03Z"/>
          <path class="cls-1" d="M1032.44,142.27l-2-5.7c-.57-1.71-1.11-3.43-1.71-5.13-.76-2.14-.54-3.94,1.71-4.99,2.17-1.02,3.84-.21,5.15,1.59,2.5,3.44,2.22,11.34-.4,14.6-1.26,1.56-1.9,.23-2.75-.36Z"/>
          <path class="cls-9" d="M871.14,167.15c-4.44-3.03-7.28-6.23-9.48-9.94-1.44-2.44-.88-5.18,.92-6.25,2.07-1.24,4.86-.31,6.21,2.38,2.05,4.06,3,8.38,2.35,13.82Z"/>
          <path class="cls-46" d="M1186.43,97.51l-.28-8.86c.36-2.29,.65-4.6,1.11-6.88,.41-1.98,1.84-2.71,3.74-2.32,1.79,.37,2.66,1.85,2.15,3.36-1.62,4.82-3.51,9.56-5.38,14.29-.11,.27-.89,.27-1.35,.4Z"/>
          <path class="cls-21" d="M1105.34,299.52c-.37-4.64-.74-9.28-1.11-13.92,.94-1.53,1.7-3.55,4.08-2.57,2.06,.84,2.38,2.84,1.92,4.64-1.06,4.16-.77,8.93-4.89,11.84Z"/>
        </g>
        <g>
          <path class="cls-32" d="M1526.86,380.25c-4.35,.36-8.69,.83-13.05,1.04-3.44,.16-6.9-.01-10.35-.04-.95-.24-1.89-.63-2.85-.71-9.99-.83-19.68-2.96-28.98-6.68-13.08-5.23-26.17-10.45-39.14-15.95-4.56-1.93-8.85-4.54-13.13-7.07-7.21-4.25-12.5-10.35-16.27-17.77-1.43-2.81-2.69-5.7-3.95-8.59-3.25-7.45-6.29-14.98-11.6-21.35-1.55-1.86-2.53-4.29-3.4-6.6-1.16-3.08-1.95-6.29-2.9-9.45-1.39-5.5-2.34-8.68-4.96-12.73l-9.13-17.8c-.63-2.26-1.62-4.49-1.84-6.79-.56-5.86-1.51-11.81-.96-17.6,.94-10,2.88-19.84,7.51-29.06,4.24-8.44,8.58-16.89,10.75-26.23,1.18-5.12,2.5-10.17,2.62-15.48,.08-3.23,.67-6.44,1.04-9.66,.3-6.8,.61-13.6,.91-20.4,.44-9.07,3.21-17.55,6.85-25.75,5.68-12.77,13.26-24.38,22.13-35.17,5.11-4.99,10.23-9.97,15.34-14.96,6.31-6.22,13.54-11.33,21.53-14.91,7.5-3.36,15.66-5.34,23.99-5.12,14.71,.38,28.17-4.13,41.46-9.66,3.5-1.46,7.29-2.2,10.9-3.4,3-1,5.98-2.1,8.9-3.31,10.74-4.46,21.8-7.88,33.21-10.13,8.32-1.64,16.66-2.38,25.14-.75,5.64,1.09,11.4,1.56,17.11,2.3,3.28,1.86,6.65,3.59,9.84,5.61,5.17,3.28,8.47,8.37,11.8,13.28,4.87,7.2,11.59,11.64,19.65,14.35,3.56,1.92,7.13,3.83,10.68,5.75,3.07,1.67,6.15,3.33,9.19,5.05,1,.56,1.9,1.3,2.85,1.96,.83,.78,1.63,1.61,2.5,2.35,6.52,5.46,10.85,12.31,13.06,20.51,.55,2.04,1.18,4.06,1.78,6.09l-.03-.05c0,6.32,.01,12.65,.02,18.97-.62,2.86-1.22,5.73-1.88,8.58-1.37,5.9-2.72,11.81-4.2,17.68-.46,1.85-1.31,3.6-1.98,5.39-4.32,6.36-7.59,13.36-15.15,17.27-4.28,2.22-8.14,5.39-12.85,6.98l.06-.04c-4.97,.26-9.95,.84-14.83-.78-5.19-1.72-10.55-3.04-15.57-5.16-4.4-1.86-8.75-4.15-12.54-7.02-7.47-5.65-11.16-13.41-10.87-22.91,.04-1.32,0-2.65-.02-3.97,.33-3.1,.66-6.2,.99-9.29-7.23-5.46-14.42-9.99-23.23-11.54-8.99-1.58-17.87-3.8-26.87-5.36-8.02-1.39-16.1-2.51-24.2-3.27-5.57-.52-10.88,1.27-15.83,3.79-3.1,1.58-6.19,3.32-8.92,5.46-17.71,13.81-31.89,30.58-41.98,50.73-4.93,9.85-7.05,20.38-7.84,31.24-.36,4.98-.61,9.97-.8,14.96-.27,6.94,1.17,13.59,4.02,19.88,6.3,13.91,8.48,28.68,8.62,43.73,.09,9.41,2.54,17.68,8.55,24.9,2.34,2.81,4.54,5.75,6.93,8.52,7.9,9.16,18.58,13.81,29.6,17.72,2.04,.72,4.62,.28,6.88-.07,1.94-.3,3.9-1,5.64-1.93,10.32-5.53,21.53-6.36,32.91-6.66,7.72-.2,15.15-1.6,21.81-6.01,4.95-3.28,8.24-7.7,10.11-13.21,1.77-5.24,2.62-10.65,2.36-16.2-.18-3.73-.95-4.71-4.64-5.18-2.14-.27-4.32-.22-6.49-.21-6.49,.04-12.99,.2-19.48,.18-7.35-.03-13.61-2.83-18.8-7.97-2-1.98-3.81-4.18-5.59-6.37-9.11-11.27-9.05-23.47-3.37-36.09,2.56-5.69,6.58-10.34,11.24-14.49,4.21-3.76,8.72-4.15,13.9-2.23,4.96,1.83,10.02,3.6,15.18,4.63,4.7,.94,9.6,.88,14.42,1.2,2.15,.14,4.31,.15,6.47,.22,1.95,.25,3.9,.69,5.85,.71,7.32,.11,14.65,.3,21.96,.03,5.96-.22,11.89-1.12,17.84-1.56,3.14-.23,6.4-.61,9.44-.03,5.37,1.01,10.74,2.33,15.87,4.18,9.75,3.51,16.76,10,19.74,20.24,.55,1.89,.99,3.81,1.48,5.72,0,3.44,.01,6.88,.02,10.31-.45,3.27-.78,6.56-1.37,9.81-1.53,8.33-3.28,16.62-4.75,24.95-2.05,11.6-5.85,22.47-12.57,32.23-3.67,5.33-7.12,10.83-11,16-6.08,8.12-12.43,16.03-18.68,24.02-5.15,6.57-11.68,11.27-19.49,14.22-3.26,1.23-6.45,2.66-9.75,3.76-5.66,1.87-11.38,3.56-17.08,5.31-3.32,1.02-6.76,1.74-9.97,3.03-8.28,3.34-16.79,5.13-25.73,5.01-7.98-.11-15.97-.08-23.96,.04-2.62,.04-5.24,.54-7.85,.83Zm22.66-14.05v.32c3.18,0,6.35-.08,9.51,.02,7.76,.24,15.19-1.11,22.38-4.12,2.57-1.08,5.4-1.55,8.13-2.25,5.13-1.32,10.31-2.44,15.38-3.97,3.65-1.1,7.18-2.62,10.68-4.13,6.16-2.65,11.99-5.8,16.2-11.29,6.99-9.11,13.93-18.27,21.07-27.26,5.95-7.49,10.15-15.99,14.48-24.41,1.27-2.47,2.03-5.28,2.61-8.02,1.73-8.12,3.48-16.24,4.81-24.43,1.03-6.39,1.83-12.86,2.03-19.32,.24-7.52-2.21-14.27-8.97-18.42-7.22-4.43-15.09-6.64-23.74-5.83-6.78,.63-13.62,1.12-20.41,.98-12.31-.26-24.6-1.12-36.91-1.57-10.02-.37-19.96-.92-29.1-5.72-1.5-.79-3.16-1.13-4.66,.22-6.78,6.12-10.32,13.76-10.59,22.86-.04,1.44,.43,3.01,1.07,4.33,2.33,4.83,5.17,9.4,9.47,12.69,2.16,1.66,4.86,3.18,7.48,3.54,4.56,.62,9.25,.3,13.88,.37,5.81,.08,11.68-.38,17.4,.35,9.46,1.2,13.81,6.51,13.42,15.95-.32,7.83-1.77,15.52-4.77,22.82-2.13,5.16-5.29,9.58-9.61,13.18-8.26,6.89-17.88,10.04-28.48,10.48-11.64,.48-23.14,1.19-34.05,6.22-6.69,3.08-13.97,2.61-20.99,.25-16.99-5.71-30.58-15.73-40.22-31.07-5.11-8.13-7.96-16.75-7.97-26.34,0-14.97-2.41-29.41-8.84-43.1-3-6.38-4.45-13.23-4.17-20.34,.3-7.65,.62-15.3,1.03-22.94,.46-8.52,2.06-16.77,5.36-24.72,5.94-14.32,14.71-26.8,24.57-38.59,8.04-9.62,16.76-18.56,27.38-25.39,9.56-6.15,19.85-10.2,31.51-9.07,6.45,.62,12.93,1.27,19.29,2.48,8.63,1.64,17.18,3.78,25.74,5.79,9.32,2.19,18.3,5.1,24.95,12.62,.5,.56,1.44,1.18,2.09,1.1,4.73-.6,5.99,2.85,7.18,6.15,1.88,5.23,2.26,10.7,2.19,16.23-.1,7.17,2.76,12.85,8.69,17.01,6.76,4.75,14.27,7.84,22.16,9.99,4.11,1.12,8.24,.68,12.04-1.62,1.85-1.12,3.69-2.51,5.73-2.99,4.57-1.08,6.91-4.39,8.9-8.06,9.11-16.82,12-34.8,9.01-53.58-1.17-7.35-4.86-13.72-11.05-18.4-7.48-5.66-15.61-10.17-24.21-13.8-8.81-3.71-16.34-8.86-21.55-17.08-1.24-1.96-2.8-3.73-4.27-5.54-3.45-4.26-7.68-7.54-13.12-8.57-7.65-1.45-15.36-3.04-23.1-3.51-8.5-.51-16.9,1.4-24.96,4.12-15.1,5.11-30.09,10.55-45.15,15.78-11.49,3.99-23.06,7.25-35.48,7.15-11.37-.09-21.98,3.25-31.46,9.75-22.68,15.54-38.54,36.41-48.45,61.94-4.03,10.38-5.31,21.26-5.59,32.27-.19,7.32-.24,14.6-1.65,21.86-2.18,11.19-5.95,21.76-11.07,31.9-5.72,11.33-8.94,23.23-8.37,36.02,.52,11.55,3.48,22.24,10.35,31.77,2.48,3.45,4.31,7.39,6.27,11.19,2.13,4.13,3.66,8.61,6.17,12.48,5.11,7.88,8.63,16.45,12.2,25.06,1.96,4.74,4.21,9.44,6.94,13.77,5.32,8.45,14.04,12.61,22.79,16.29,10.24,4.31,20.83,7.81,31.13,12,15.24,6.19,31,8.48,47.37,7.47,10.63-.66,21.3-.87,31.95-1.29Z"/>
          <path class="cls-24" d="M1549.52,366.21c-10.65,.41-21.31,.63-31.95,1.29-16.37,1.01-32.13-1.28-47.37-7.47-10.3-4.18-20.88-7.68-31.13-12-8.75-3.68-17.47-7.84-22.79-16.29-2.73-4.33-4.97-9.03-6.94-13.77-3.56-8.61-7.09-17.18-12.2-25.06-2.51-3.87-4.04-8.35-6.17-12.48-1.96-3.8-3.79-7.74-6.27-11.19-6.87-9.53-9.83-20.23-10.35-31.77-.58-12.79,2.65-24.69,8.37-36.02,5.12-10.14,8.89-20.71,11.07-31.9,1.42-7.26,1.46-14.54,1.65-21.86,.29-11.01,1.56-21.89,5.59-32.27,9.91-25.52,25.77-46.4,48.45-61.94,9.48-6.49,20.09-9.84,31.46-9.75,12.42,.1,23.99-3.17,35.48-7.15,15.06-5.22,30.05-10.67,45.15-15.78,8.06-2.73,16.46-4.64,24.96-4.12,7.75,.47,15.45,2.05,23.1,3.51,5.43,1.03,9.67,4.31,13.12,8.57,1.47,1.81,3.02,3.58,4.27,5.54,5.21,8.21,12.75,13.36,21.55,17.08,8.6,3.63,16.73,8.14,24.21,13.8,6.19,4.68,9.88,11.05,11.05,18.4,2.98,18.78,.1,36.76-9.01,53.58-1.99,3.68-4.33,6.98-8.9,8.06-2.03,.48-3.88,1.87-5.73,2.99-3.8,2.3-7.92,2.74-12.04,1.62-7.89-2.15-15.4-5.25-22.16-9.99-5.93-4.16-8.79-9.83-8.69-17.01,.08-5.53-.31-11-2.19-16.23-1.19-3.3-2.45-6.75-7.18-6.15-.65,.08-1.59-.53-2.09-1.1-6.65-7.52-15.63-10.43-24.95-12.62-8.56-2.01-17.1-4.15-25.74-5.79-6.36-1.21-12.84-1.86-19.29-2.48-11.66-1.13-21.95,2.92-31.51,9.07-10.61,6.83-19.34,15.77-27.38,25.39-9.85,11.79-18.63,24.27-24.57,38.59-3.29,7.94-4.9,16.2-5.36,24.72-.41,7.64-.73,15.29-1.03,22.94-.28,7.11,1.17,13.96,4.17,20.34,6.43,13.69,8.83,28.13,8.84,43.1,0,9.59,2.86,18.21,7.97,26.34,9.64,15.34,23.23,25.36,40.22,31.07,7.02,2.36,14.31,2.83,20.99-.25,10.92-5.03,22.41-5.74,34.05-6.22,10.6-.43,20.23-3.59,28.48-10.48,4.32-3.6,7.48-8.02,9.61-13.18,3.01-7.31,4.45-15,4.77-22.82,.39-9.44-3.96-14.75-13.42-15.95-5.72-.73-11.6-.26-17.4-.35-4.63-.06-9.32,.26-13.88-.37-2.62-.36-5.32-1.88-7.48-3.54-4.29-3.29-7.14-7.86-9.47-12.69-.63-1.32-1.11-2.89-1.07-4.33,.27-9.1,3.81-16.75,10.59-22.86,1.5-1.35,3.15-1.01,4.66-.22,9.14,4.8,19.08,5.35,29.1,5.72,12.31,.46,24.6,1.31,36.91,1.57,6.8,.14,13.63-.35,20.41-.98,8.66-.8,16.52,1.4,23.74,5.83,6.76,4.14,9.21,10.89,8.97,18.42-.21,6.46-1,12.93-2.03,19.32-1.33,8.19-3.07,16.32-4.81,24.43-.59,2.74-1.34,5.55-2.61,8.02-4.33,8.42-8.53,16.92-14.48,24.41-7.14,8.99-14.08,18.15-21.07,27.26-4.21,5.49-10.05,8.63-16.2,11.29-3.5,1.51-7.04,3.03-10.68,4.13-5.07,1.53-10.25,2.65-15.38,3.97-2.72,.7-5.56,1.17-8.13,2.25-7.19,3.01-14.61,4.36-22.38,4.12-3.16-.1-6.33-.02-9.5-.02v-.32Zm106.66-281.93c1,.74,2.01,1.49,3.3,2.45,.66-1.34,1.39-2.28,1.59-3.32,1.11-5.81-3.71-16.69-8.91-19.32-1.69-.86-4.33-1.02-6.08-.33-2.42,.96-1.77,3.51-1.14,5.62-1.38-.11-2.92-.67-4.11-.24-5.56,2-6.35,7.76-1.78,11.6,2.78,2.34,5.45,4.81,8.18,7.2,1.36,1.2,2.75,2.36,4.13,3.54-.5,1.34-1.59,2.78-1.39,4.01,.67,4.15,2.69,7.75,5.69,10.74,.25,.25,.95,.04,1.44,.04,.34,1.75,.72,3.5,1.03,5.26,.5,2.88,.77,5.82,1.49,8.64,.37,1.46,1.56,3.89,2.28,3.85,1.77-.09,3.54-1.25,5.18-2.2,.62-.36,.89-1.33,1.29-2.04,2.53-4.52,3.59-9.46,3.7-14.55,.05-2.57-.23-5.29-1.05-7.71-1.41-4.19-6.3-6.18-9.91-3.98-1.64,1-2.57,3.19-3.82,4.84-.72-2.49-1.01-5.19-3.29-6.94,1.55-.57,2.22-1.67,2.14-3.32-.06-1.28,0-2.56,.02-3.83Zm-216.36,4.94c3.1-5.1,6.2-10.2,9.49-15.61-3.5-.64-5.95,.81-8.24,2.36-7.49,5.05-12.97,11.87-16.85,19.97-.56,1.17-.91,2.52-1.01,3.82-.17,2.35,.83,4.23,3.04,5.25,1.87,.86,3.95,.09,5.55-2.17,1.23-1.74,2.24-3.63,3.35-5.45,0,.99-.04,1.99,0,2.98,.17,4,2.73,6.23,6.72,6.01,2.92-.15,4.84-1.88,6.59-3.9,1.28-1.48,2.62-2.97,3.63-4.63,2.35-3.88,5.93-6.92,7.27-11.57,.61-2.13,.24-3.37-.98-4.77-5.86,.39-9.92,1.94-13.99,5.05-1.39,1.06-3.05,1.79-4.58,2.66Zm208.29,177.56c2.81-1.41,4.85-2.74,5.14-5.55,.36-3.58,1.21-7.27,.7-10.74-.79-5.34-2.83-10.41-6.14-14.84-2.82-3.78-7-5.37-11.53-4.28-5.21,1.25-7.26,7.49-3.91,11.74,1.83,2.32,3.6,4.68,5.22,7.15,3.49,5.34,6.85,10.75,10.52,16.53Zm-249.95-24.43c0,2.74-.2,4.76,.04,6.73,.46,3.71,.71,7.49,2.77,10.84,1.32,2.14,3.26,2.52,5.49,2.45,2.41-.07,2.8-2.13,3.46-3.72,.42-1.01,.29-2.29,.22-3.43-.29-4.59-.65-9.18-.98-13.77-.34-4.76-.59-9.52-1.04-14.26-.26-2.78-2.83-3.83-5.04-2.1-.87,.68-1.46,1.75-2.05,2.72-2.85,4.73-3.13,9.97-2.87,14.54Zm184.34-191.95c-2.56-5.32-5.25-8.26-9.24-9.97-2.85-1.22-5.79-2.37-8.8-3.02-3.18-.68-6.51-1.05-9.74-.93-2.52,.1-4.54,1.69-5.69,4.2-1.21,2.62-.5,5.64,2.11,6.56,8.51,3,17.14,5.62,26.32,5.05,1.61-.1,3.16-1.16,5.05-1.89Zm42.86,258.38c1.18,2.13,2.72,1.65,4.56,.69,6.96-3.64,11.34-9.51,13.93-16.67,1.85-5.12-2.05-9.3-6.9-8.41-2.65,.49-4.06,2.33-4.9,4.91-2.11,6.51-4.44,12.96-6.69,19.47Zm-27.28-273c.19-1.29,.48-1.94,.32-2.45-1.66-5.38-9.66-9.52-14.99-7.82-2.19,.7-3.52,2.42-3.32,4.37,.24,2.48,2.07,2.78,3.99,2.72,4.68-.14,9.22,.38,14,3.19Zm41.47,274.55c5.14-3.24,11.78-10.09,13.68-13.9,.5-1.01,.85-2.14,1.02-3.25,.24-1.61-.3-3.22-1.97-3.5-1.1-.18-2.51,.46-3.51,1.13-.73,.49-1.08,1.62-1.52,2.5-2.05,4.12-4.11,8.24-6.08,12.39-.59,1.23-.92,2.58-1.62,4.63Zm-244.67-71.9c-5.85,3.13-8.54,13.57-5.11,18.27,.2,.27,.42,.51,.67,.74,1.93,1.76,4.47,1.15,4.91-1.42,.3-1.73-.17-3.58-.29-5.38-.22-3.11-.47-6.23-.62-9.35-.04-.84,.25-1.7,.44-2.87Zm264.13,5.26c.91-.62,1.32-.74,1.42-.99,1.87-4.45-1.44-13.09-5.7-14.95-1.98-.86-4.27-.26-5.18,1.53-.92,1.8-.8,3.73,1,4.83,3.72,2.27,6.56,5.28,8.46,9.57Z"/>
          <path class="cls-39" d="M1648.12,266.77c-3.67-5.78-7.03-11.2-10.52-16.53-1.61-2.47-3.39-4.83-5.22-7.15-3.35-4.25-1.31-10.49,3.91-11.74,4.53-1.08,8.71,.5,11.53,4.28,3.31,4.43,5.35,9.51,6.14,14.84,.51,3.47-.34,7.16-.7,10.74-.28,2.8-2.32,4.14-5.14,5.55Z"/>
          <path class="cls-39" d="M1398.17,242.34c-.26-4.58,.02-9.81,2.87-14.54,.59-.97,1.18-2.05,2.05-2.72,2.21-1.73,4.78-.68,5.04,2.1,.45,4.74,.7,9.51,1.04,14.26,.33,4.59,.69,9.18,.98,13.77,.07,1.15,.19,2.43-.22,3.43-.66,1.59-1.05,3.64-3.46,3.72-2.23,.07-4.18-.31-5.49-2.45-2.06-3.34-2.31-7.13-2.77-10.84-.24-1.96-.04-3.98-.04-6.73Z"/>
          <path class="cls-39" d="M1582.51,50.39c-1.88,.73-3.44,1.79-5.05,1.89-9.18,.57-17.81-2.05-26.32-5.05-2.61-.92-3.31-3.94-2.11-6.56,1.15-2.5,3.17-4.1,5.69-4.2,3.24-.12,6.57,.25,9.74,.93,3.01,.64,5.96,1.79,8.8,3.02,3.99,1.71,6.69,4.66,9.24,9.97Z"/>
          <path class="cls-39" d="M1657.33,98.37c1.25-1.65,2.17-3.83,3.82-4.84,3.61-2.2,8.49-.21,9.91,3.98,.82,2.42,1.1,5.14,1.05,7.71-.11,5.09-1.16,10.03-3.7,14.55-.4,.71-.67,1.68-1.29,2.04-1.64,.95-3.41,2.11-5.18,2.2-.72,.04-1.91-2.39-2.28-3.85-.72-2.82-.99-5.76-1.49-8.64-.3-1.76-.68-3.5-1.03-5.26,.07-2.63,.13-5.26,.2-7.89Z"/>
          <path class="cls-39" d="M1439.84,89.21c1.54-.88,3.19-1.6,4.58-2.66,4.07-3.11,8.13-4.66,13.99-5.05,1.22,1.4,1.59,2.64,.98,4.77-1.34,4.64-4.92,7.68-7.27,11.57-1.01,1.67-2.35,3.15-3.63,4.63-1.75,2.02-3.68,3.75-6.59,3.9-4,.21-6.56-2.01-6.72-6.01-.04-.99,0-1.99,0-2.98,1.56-2.72,3.11-5.44,4.67-8.16Z"/>
          <path class="cls-10" d="M1439.84,89.21c-1.56,2.72-3.11,5.44-4.67,8.16-1.11,1.82-2.13,3.71-3.35,5.45-1.6,2.26-3.67,3.03-5.55,2.17-2.21-1.02-3.21-2.9-3.04-5.25,.09-1.29,.44-2.65,1.01-3.82,3.89-8.1,9.36-14.92,16.85-19.97,2.29-1.54,4.74-3,8.24-2.36-3.29,5.42-6.39,10.51-9.49,15.61Z"/>
          <path class="cls-39" d="M1625.37,308.77c2.25-6.52,4.58-12.96,6.69-19.47,.84-2.58,2.25-4.42,4.9-4.91,4.85-.89,8.75,3.28,6.9,8.41-2.59,7.16-6.96,13.03-13.93,16.67-1.84,.96-3.38,1.43-4.56-.69Z"/>
          <path class="cls-53" d="M1651.39,91.48c-1.38-1.18-2.77-2.35-4.13-3.54-2.73-2.4-5.4-4.86-8.18-7.2-4.57-3.85-3.78-9.6,1.78-11.6,1.19-.43,2.73,.13,4.11,.24,3.74,4.97,7.48,9.93,11.23,14.9-.01,1.28-.08,2.56-.02,3.83,.08,1.65-.59,2.76-2.14,3.32-.88,.02-1.76,.03-2.64,.05Z"/>
          <path class="cls-20" d="M1656.2,84.28c-3.74-4.97-7.48-9.93-11.23-14.9-.64-2.11-1.29-4.66,1.14-5.62,1.74-.69,4.38-.53,6.08,.33,5.2,2.63,10.02,13.51,8.91,19.32-.2,1.05-.94,1.99-1.59,3.32-1.29-.96-2.3-1.71-3.3-2.45Z"/>
          <path class="cls-28" d="M1598.09,35.78c-4.78-2.81-9.32-3.32-14-3.19-1.91,.06-3.74-.24-3.99-2.72-.19-1.94,1.13-3.67,3.32-4.37,5.33-1.7,13.33,2.44,14.99,7.82,.16,.51-.14,1.16-.32,2.45Z"/>
          <path class="cls-45" d="M1639.56,310.33c.71-2.05,1.04-3.4,1.62-4.63,1.98-4.16,4.03-8.27,6.08-12.39,.44-.88,.78-2,1.52-2.5,1-.67,2.41-1.31,3.51-1.13,1.67,.27,2.21,1.89,1.97,3.5-.17,1.11-.52,2.25-1.02,3.25-1.9,3.81-8.54,10.66-13.68,13.9Z"/>
          <path class="cls-43" d="M1394.89,238.43c-.19,1.17-.48,2.02-.44,2.87,.15,3.12,.4,6.23,.62,9.35,.12,1.8,.59,3.65,.29,5.38-.44,2.57-2.98,3.18-4.91,1.42-.24-.22-.47-.47-.67-.74-3.43-4.7-.73-15.14,5.11-18.27Z"/>
          <path class="cls-15" d="M1659.01,243.7c-1.89-4.3-4.74-7.3-8.46-9.57-1.8-1.1-1.92-3.02-1-4.83,.91-1.79,3.2-2.4,5.18-1.53,4.26,1.86,7.57,10.49,5.7,14.95-.1,.25-.51,.37-1.42,.99Z"/>
          <path class="cls-45" d="M1651.39,91.48c.88-.02,1.76-.03,2.64-.05,2.29,1.75,2.57,4.45,3.29,6.94-.07,2.63-.13,5.26-.2,7.89-.49,0-1.2,.21-1.44-.04-3-2.98-5.03-6.58-5.69-10.74-.2-1.23,.89-2.67,1.39-4.01Z"/>
        </g>
        <g>
          <path class="cls-50" d="M2179.27,1.15l13.22,.1c11.35,1.84,19.67,8.57,26.92,16.86,3.58,4.09,4.52,9.21,4.27,14.51-.5,10.65-1.18,21.29-1.6,31.94-.23,5.82-.45,11.67-.06,17.47,.47,6.94,3.91,12.96,7.46,19.84,.51-1.99,.91-3.18,1.12-4.41,1.27-7.38,2.25-14.81,3.79-22.13,1.91-9.07,5.96-17.3,11.3-24.82,15.18-21.37,35.08-36.25,60.54-43.19,3.97-1.08,8.19-1.45,12.32-1.66,15.81-.8,32.69,16.41,30.07,32.83-.75,4.71,.39,9.17,1.39,13.78,1.63,7.45,2.73,15.05,3.51,22.64,.83,8.05,2.8,15.7,6.15,23.02,.19,.42,.59,.74,1.24,1.52,1.32-3.26,2.32-6.31,3.74-9.16,6.5-13.11,12.91-26.27,19.74-39.21,6.71-12.7,17.12-22,29.03-29.7,5.41-3.5,11.32-5.42,17.91-5.4,2.37,0,4.78-1.12,7.12-1.89,4.88-1.6,9.63-3.72,14.61-4.9,11.52-2.73,22.44,.38,33.14,4.37,3.11,1.16,6.06,2.73,9.13,4.02,6.65,2.81,11.86,7.22,15.71,13.37,3.61,5.78,7.93,11.16,11.03,17.19,2.31,4.48,3.8,9.62,4.57,14.63,2.59,16.85,.5,33.56-2.51,50.17-2.56,14.09-5.38,28.12-7.88,42.22-3.1,17.56-3.36,35.05,1,52.55,3.91,15.71,3.53,31.74,1.89,47.72-2.15,20.89-4.33,41.76-3.69,62.8,.26,8.49,1.03,16.97,1.16,25.46,.08,5.46-.36,10.96-1,16.39-.57,4.83-3.35,8.56-7.09,11.66-6.93,5.74-14.97,8.65-23.81,9.23-7.88,.52-15.63-.58-23.05-3.43-16.89-6.48-25.09-19.55-27.31-36.83-1.22-9.52,.35-18.96,2.1-28.31,4.77-25.54,5.44-51.32,4.73-77.18-.7-25.53,.13-50.97,3.65-76.29,1.04-7.48-.19-14.52-3.56-21.32-1.91-3.85-3.18-8.02-4.73-12.05-1.7-4.44-2.97-5.16-7.57-3.77-7.34,2.21-12.93,6.52-16.43,13.55-3.85,7.73-6.09,15.92-6.53,24.43-1.07,20.72-5.05,40.96-9.43,61.14-3.04,14.01-3.62,28.07-1.55,42.21,2.21,15.12,1.75,30.22,.34,45.36-.97,10.45-2.13,20.9-2.47,31.38-.44,13.17-6.91,22.06-18.36,27.41-12.12,5.67-24.96,6.61-38.06,4.03-8.82-1.74-14.36-7.09-15.79-15.86-1.53-9.34-2.7-18.78-3.25-28.23-.58-9.8-.16-19.65-.31-29.47-.14-8.99-.54-17.98-.64-26.98-.07-6.16,.18-12.32,.3-18.48,.17-9.16,.42-18.32,.51-27.48,.07-6.83-1.51-13.36-5.59-18.84-8.19-11.01-12.79-23.6-17.21-36.37-1.67-4.83-3.61-9.74-6.36-14-5.39-8.35-11.38-9.29-19.29-3.26-9.09,6.92-13.55,16.7-15.31,27.7-.73,4.57-.71,9.31-.59,13.96,.25,9.59-1.85,18.61-6.78,26.75-6,9.91-7.78,20.63-8.16,31.99-.36,10.63-1.07,21.34-2.83,31.81-2.45,14.6-3.17,29.06-1.18,43.74,1.36,10.08-.32,19.88-4.16,29.34-3.64,8.96-10.11,14.29-19.64,15.71-8.1,1.21-15.95,3.21-23.57,6.27-4.82,1.94-9.88,3.04-15.12,2.66-2.47-.18-5.24-.16-7.31-1.28-9.62-5.22-19.24-10.33-23.85-21.46-8.2-19.77-10.92-39.91-6.48-61.02,2.5-11.89,4.24-23.93,6.37-35.9,2.06-11.58,1.71-23.2,.95-34.87-1.42-21.97-1.69-43.95,1.11-65.86,1.79-14,.68-27.81-1.31-41.76-2.69-18.77-4.51-37.69-5.87-56.61-.99-13.76,1.45-27.25,7.47-39.84,1.18-2.46,5.56-10.21,12.67-15.73,14.51-11.26,33.68-7.43,37.24-6.66l-13.22-.1Zm337.17,80.77l-.94-.09c0-3.67,.32-7.37-.08-10.99-.51-4.58-.6-9.62-2.66-13.52-4.25-8.03-9.51-15.55-14.69-23.05-3.37-4.88-9.14-6.55-14.23-8.88-12.57-5.75-25.42-7.43-38.44-1.27-5.21,2.46-10.59,3.54-16.41,3.3-2.5-.1-5.37,.72-7.54,2.02-9.8,5.85-18.78,12.9-24.76,22.74-6.81,11.2-12.85,22.87-19.18,34.36-2.89,5.24-5.87,10.44-8.44,15.83-2.69,5.65-5.05,7.39-10.74,5.68-2.54-.76-4.86-2.79-6.82-4.71-1.62-1.58-2.76-3.75-3.79-5.82-4.46-9.05-6.86-18.59-7.04-28.73-.08-4.79-.37-9.66-1.34-14.33-1.11-5.4-2.35-10.77-1.74-16.25,.78-7.01-2.13-12.12-7.04-16.71-4.77-4.46-10.4-6.33-16.49-4.8-7.36,1.84-14.7,4.16-21.63,7.22-14.28,6.3-25.66,16.5-35.38,28.55-7.39,9.16-12.78,19.43-15.33,30.98-2.12,9.6-4.99,18.88-9.56,27.61-1.97,3.77-5.22,4.6-8.46,1.84-1.76-1.5-3.48-3.2-4.72-5.13-7.33-11.43-10.26-23.98-9.32-37.51,.72-10.27,1.27-20.55,1.88-30.82,.11-1.83-.05-3.71,.34-5.47,1.13-4.98-.91-8.79-4.36-11.95-2.44-2.23-5.09-4.33-7.94-6-2.68-1.57-5.68-3.31-8.65-3.52-5.73-.41-11.44-1.67-17.33-.43-7.15,1.51-13.26,4.37-17.3,10.62-9.29,14.4-10.67,30.49-9.37,46.97,.84,10.56,2.35,21.07,3.65,31.59,1.05,8.55,1.93,17.13,3.44,25.6,1.92,10.77,1.29,21.49,.34,32.24-.88,9.9-2.39,19.78-2.63,29.7-.42,17.49,.01,34.99-.12,52.49-.04,5.13-.36,10.32-1.25,15.37-2.57,14.5-5.72,28.89-8.19,43.41-1.43,8.44-2.63,16.9-1.84,25.63,.97,10.71,3.82,20.87,7.56,30.78,1.36,3.61,4.04,6.82,6.53,9.88,2.6,3.2,6.42,3.92,10.41,3.69,3.97-.24,7.96-.37,11.92-.78,2.6-.27,5.18-.89,7.73-1.47,6.6-1.5,13.13-3.46,19.8-4.52,11.74-1.87,13.92-4.58,17.27-13.78,3.36-9.21,2.59-18.83,1.58-28.17-.99-9.22-.79-18.29,.68-27.29,2.54-15.57,5.11-31.09,4.68-46.94-.07-2.64,.33-5.29,.56-7.94,.72-8.46,4.15-15.97,8.1-23.33,3.67-6.84,5.46-14.12,5.6-21.96,.12-6.6,.34-13.39,1.92-19.74,3.03-12.12,8.53-23.21,19.18-30.56,8.91-6.16,17.54-7.42,25.01-1.96,3.54,2.59,6.65,6.09,9.15,9.73,5.32,7.74,7.41,16.96,10.57,25.67,2.56,7.05,5.67,13.79,10.14,19.87,5.76,7.84,9.09,16.58,8.88,26.42-.23,10.97-.87,21.94-.88,32.91,0,13.8,.49,27.6,.68,41.41,.03,2.47-.64,4.95-.59,7.42,.18,8.64,.39,17.29,.88,25.92,.44,7.78,1.35,15.54,3.98,22.93,.67,1.9,2.04,4.14,3.71,4.95,2.75,1.33,5.97,1.98,9.06,2.28,3.8,.37,7.66,.02,11.49,.09,5.08,.1,9.99-.87,14.45-3.15,6.27-3.21,11.34-7.71,12-15.36,.8-9.26,1.36-18.54,2.09-27.8,.55-6.94,1.42-13.86,1.78-20.81,.27-5.14,.18-10.33-.18-15.46-.7-9.92-2.05-19.8-2.51-29.73-.64-13.88,2.58-27.32,5.5-40.77,3.42-15.7,6.24-31.52,7.27-47.57,.6-9.39,2.5-18.37,6.23-26.97,4.6-10.61,11.99-18.49,23.34-21.49,12.05-3.19,17.09,.28,20.77,10.15,.23,.62,.5,1.23,.74,1.85,1.63,4.16,3.28,8.32,4.87,12.5,.82,2.16,1.68,4.33,2.26,6.57,2.36,9.09,1.06,18.24-.37,27.22-1.93,12.15-3.13,24.36-3.47,36.61-.79,28.76,1.46,57.6-2.12,86.29-1.35,10.85-2.84,21.68-4.41,32.5-.91,6.32-1.06,12.59,.6,18.77,1.88,7.01,4.73,13.66,10.82,18.04,11.24,8.07,24.08,10.28,36.97,6.18,11.49-3.66,14.48-7.22,13.89-18.73-.56-10.94-1.55-21.88-1.67-32.83-.12-10.96,.36-21.95,1.03-32.9,.49-7.92,2.03-15.78,2.52-23.7,.66-10.61,.96-21.26,1.02-31.9,.02-4.6-.72-9.25-1.55-13.79-2.07-11.42-4.53-22.82-4.14-34.49,.28-8.28,.88-16.59,2.03-24.79,2.04-14.41,4.76-28.73,6.9-43.13,1.51-10.15,2.54-20.37,3.78-30.56Z"/>
          <path class="cls-31" d="M2516.44,81.93c-1.24,10.19-2.27,20.41-3.78,30.56-2.14,14.4-4.87,28.72-6.9,43.13-1.16,8.2-1.75,16.51-2.03,24.79-.4,11.67,2.07,23.07,4.14,34.49,.82,4.55,1.57,9.2,1.55,13.79-.05,10.63-.35,21.28-1.02,31.9-.49,7.92-2.04,15.78-2.52,23.7-.67,10.95-1.15,21.94-1.03,32.9,.12,10.95,1.11,21.88,1.67,32.83,.59,11.51-2.4,15.07-13.89,18.73-12.88,4.1-25.72,1.9-36.97-6.18-6.1-4.38-8.94-11.03-10.82-18.04-1.66-6.17-1.51-12.45-.6-18.77,1.56-10.82,3.05-21.65,4.41-32.5,3.58-28.69,1.33-57.53,2.12-86.29,.34-12.26,1.54-24.46,3.47-36.61,1.42-8.98,2.72-18.13,.37-27.22-.58-2.23-1.43-4.4-2.26-6.57-1.59-4.18-3.24-8.33-4.87-12.5-.24-.62-.51-1.23-.74-1.85-3.69-9.87-8.72-13.33-20.77-10.15-11.36,3-18.74,10.88-23.34,21.49-3.74,8.6-5.63,17.58-6.23,26.97-1.03,16.05-3.85,31.87-7.27,47.57-2.93,13.45-6.15,26.9-5.5,40.77,.46,9.93,1.81,19.81,2.51,29.73,.36,5.13,.44,10.32,.18,15.46-.36,6.95-1.23,13.87-1.78,20.81-.74,9.26-1.3,18.54-2.09,27.8-.66,7.65-5.73,12.15-12,15.36-4.46,2.28-9.37,3.25-14.45,3.15-3.83-.07-7.69,.27-11.49-.09-3.09-.3-6.31-.94-9.06-2.28-1.67-.81-3.04-3.06-3.71-4.95-2.63-7.39-3.54-15.15-3.98-22.93-.49-8.63-.7-17.28-.88-25.92-.05-2.47,.62-4.95,.59-7.42-.18-13.8-.68-27.61-.68-41.41,0-10.97,.64-21.94,.88-32.91,.21-9.84-3.12-18.58-8.88-26.42-4.47-6.09-7.57-12.82-10.14-19.87-3.17-8.71-5.25-17.92-10.57-25.67-2.5-3.64-5.61-7.14-9.15-9.73-7.48-5.46-16.1-4.2-25.01,1.96-10.65,7.36-16.15,18.44-19.18,30.56-1.59,6.35-1.81,13.14-1.92,19.74-.14,7.84-1.93,15.12-5.6,21.96-3.95,7.36-7.38,14.87-8.1,23.33-.22,2.64-.63,5.3-.56,7.94,.42,15.85-2.15,31.38-4.68,46.94-1.47,9-1.67,18.06-.68,27.29,1,9.34,1.78,18.95-1.58,28.17-3.36,9.2-5.54,11.91-17.27,13.78-6.67,1.06-13.2,3.02-19.8,4.52-2.56,.58-5.13,1.2-7.73,1.47-3.96,.41-7.94,.55-11.92,.78-3.99,.24-7.8-.49-10.41-3.69-2.49-3.06-5.17-6.27-6.53-9.88-3.74-9.92-6.59-20.07-7.56-30.78-.79-8.74,.41-17.2,1.84-25.63,2.47-14.51,5.62-28.91,8.19-43.41,.89-5.04,1.21-10.24,1.25-15.37,.13-17.5-.3-35,.12-52.49,.24-9.92,1.75-19.8,2.63-29.7,.96-10.75,1.58-21.47-.34-32.24-1.51-8.47-2.38-17.05-3.44-25.6-1.3-10.52-2.81-21.03-3.65-31.59-1.3-16.48,.08-32.57,9.37-46.97,4.04-6.25,10.16-9.11,17.3-10.62,5.89-1.24,11.6,.02,17.33,.43,2.96,.21,5.96,1.95,8.65,3.52,2.85,1.67,5.5,3.76,7.94,6,3.45,3.16,5.49,6.96,4.36,11.95-.4,1.76-.23,3.64-.34,5.47-.62,10.27-1.16,20.55-1.88,30.82-.95,13.53,1.99,26.08,9.32,37.51,1.24,1.93,2.96,3.63,4.72,5.13,3.24,2.76,6.49,1.93,8.46-1.84,4.57-8.73,7.44-18.01,9.56-27.61,2.55-11.54,7.94-21.82,15.33-30.98,9.72-12.05,21.1-22.25,35.38-28.55,6.93-3.06,14.27-5.38,21.63-7.22,6.09-1.52,11.72,.34,16.49,4.8,4.91,4.59,7.82,9.7,7.04,16.71-.61,5.49,.63,10.85,1.74,16.25,.97,4.67,1.25,9.54,1.34,14.33,.18,10.14,2.58,19.69,7.04,28.73,1.02,2.07,2.17,4.24,3.79,5.82,1.97,1.92,4.29,3.95,6.82,4.71,5.69,1.71,8.05-.03,10.74-5.68,2.57-5.39,5.56-10.59,8.44-15.83,6.33-11.49,12.36-23.16,19.18-34.36,5.99-9.84,14.96-16.89,24.76-22.74,2.17-1.3,5.04-2.12,7.54-2.02,5.82,.24,11.2-.84,16.41-3.3,13.02-6.15,25.86-4.47,38.44,1.27,5.09,2.33,10.86,4,14.23,8.88,5.18,7.5,10.44,15.02,14.69,23.05,2.06,3.9,2.15,8.94,2.66,13.52m-142.74,221.44c.25-1.44,.62-2.87,.71-4.33,.19-2.81-1.47-5.43-3.49-5.77-2.62-.44-4.38,.67-5.62,3.69-.37,.89-.73,1.9-.68,2.83,.18,3.26,.65,6.5,.81,9.76,.13,2.63,1.58,4.19,3.93,5.57,1.02-1.67,2.02-3.31,3.02-4.95,.45,6.64,.61,13.32,2.78,20.74,.68-1.14,1.11-1.54,1.16-1.98,.82-7.2,1.78-14.38,2.3-21.6,.27-3.77-.39-4.04-4.92-3.95Zm-51.11-204.11c-4.97,.08-7.21,1.81-6.97,5.38,.37,5.57,8.57,12.36,15.19,12.08-1.39-4.27-2.74-8.4-4.09-12.53l3.89,.85c-.63-4.38-.83-8.21-2.22-11.86-.71-1.86-2.59-2.48-4.07-1.74-1.21,.6-2.31,2.23-2.61,3.6-.28,1.29,.55,2.81,.88,4.24Zm171.02,186.91c1.73-2.09,1.18-4.09-1.33-4.82-4.14-1.2-7.56,.72-8.63,5.16-1.13,4.69-.29,9.46,.23,14.12,.38,3.4,2.15,3.92,5.63,2.61,.49,3.28,.99,6.57,1.63,10.83,1.11-1.54,1.78-2.11,1.98-2.81,1.87-6.65,3.85-13.28,5.41-20.01,.91-3.93-.17-4.78-4.91-5.08Zm-9.97-180.88c-.26-.19-.59-.32-.78-.57-2.65-3.53-4.49-4.28-7.3-2.95-2.72,1.29-3.83,3.98-2.35,7.62,1.66,4.09,3.81,8.01,6,11.86,.61,1.08,2.12,1.64,3.31,2.5,2.66-5.06,1.84-9.91,2.15-14.61,.91,1.68,1.81,3.36,2.71,5.04,2.51,.34,3.32-1.61,3.76-3.25,1.43-5.2,1.29-10.45-.91-15.44-1.34-3.03-4.29-4.18-6.91-3.04-1.77,.77-2.35,3.08-1.52,6.2,.59,2.22,1.22,4.42,1.83,6.63Zm-110.09,108.97c.53,1.92,1.06,3.85,1.92,6.95,4.62-8.65,7.74-16.61,8.18-25.48,0-.16-.02-.33-.03-.5-.21-1.96-1.34-2.83-3.26-3.1-2.09-.3-3.43,.69-4.65,2.13-.41-.86-.59-2.02-1.26-2.52-3.3-2.45-8.19-.48-9.84,4-1.65,4.48-1.5,9.07-.14,13.61,1.67,5.56,3.41,6.46,9.08,4.91Zm-61.94-155.09c1.66,3.56,3.35,7.11,4.97,10.69,1.59,3.51,3.11,7.04,4.76,10.8,2.52-1.79,3.12-3.75,3.26-5.97,.45-7.2-.03-14.28-2.81-21.02-.67-1.64-1.64-3.25-2.81-4.57-2.04-2.29-4.63-2.83-7.65-1.92-3.18,.96-3.91,3.27-3.92,6.14-3.34-2.45-6.1-2.81-8.61-1.12-2.41,1.62-3.52,5.44-2.36,8.84,2.23,6.5,5.37,12.47,10.5,17.25,1.87,1.75,3.76,2.64,6.29,1.54,2.07-3.41,1.65-6.99,.8-10.59-.79-3.36-1.61-6.71-2.42-10.06Zm158.93-11.87c-6.11,.06-10.84,4.39-9.73,9.65,1.32,6.31,3.75,12.43,7.94,17.4,3.59,4.25,8.55,3.36,9.91-2.31,.76-3.15,.66-6.51,.95-9.77,3.2,6,6.26,12.06,8.32,18.79,1.25-1.46,2.38-2.84,2.54-4.33,1.03-9.47-.54-18.54-5.51-26.73-3.39-5.59-9.03-6.43-14.43-2.7Zm-282.37,27.03c2.9-9.88,.65-18.34-5.15-25.93-2.45-3.21-5.82-3.71-8.58-1.49-2.61,2.1-2.27,4.68,.34,8.21,3.91,5.28,7.49,10.79,11.22,16.2,.7,1.02,1.44,2,2.16,3.01Zm16.99,201.16c.99-.71,1.56-.91,1.74-1.29,3.58-7.53,4.24-15.57,3.5-23.7-.29-3.23-3.99-4.13-6.55-2.03-1.65,1.35-2.34,3.02-2.36,5.21-.07,7.32,1.63,14.3,3.67,21.81Zm-6.25-191.36c-1.19-2.65-4.37-3.79-6.94-3.07-3.59,1.01-4.43,2.13-4.5,6.01-.09,4.88,2.8,9.4,7.25,11.34,3.35,1.46,5.48,.32,5.89-3.23,.11-.98,.02-1.99,.02-2.98m-5.7-33.05c.69-2.13,1.64-3.54,1.46-4.78-.73-5.03-1.42-10.19-4.79-14.3-1.21-1.47-2.91-2.75-4.65-3.5-2.19-.94-4.16,.02-5.49,2.06-1.39,2.11-.55,3.7,1.1,5.19,1.33,1.2,2.71,2.39,3.8,3.79,2.72,3.49,5.28,7.09,8.58,11.55Zm13.91,270.46l-1.08,.03c-.87,2.88-1.83,5.74-2.59,8.66-1.41,5.41-3.25,10.8-2.59,16.5,.14,1.21,1.16,2.81,2.21,3.32,1.71,.82,3.16-.28,3.91-2.03,.32-.75,.8-1.52,.84-2.3,.38-6.58,.79-13.17,.92-19.76,.03-1.46-1.05-2.94-1.62-4.4Zm283.43,13.82c-1.59,1.48-2.51,1.99-2.91,2.77-2.57,5.1-3.16,10.71-3.59,16.27-.23,3.03,2.31,5.56,4.63,5.54,1.93-.01,3.91-2.6,4.12-5.42,.06-.82,.14-1.67,.03-2.48-.68-5.19-1.41-10.37-2.28-16.68Zm-274.09-94.66c-.88,1.5-1.53,2.25-1.78,3.12-1.62,5.67-3.23,11.35-4.67,17.07-.3,1.21-.34,2.95,.32,3.82,.86,1.15,2.47,2.13,3.89,2.36,1.66,.27,2.63-1.17,2.71-2.87,.3-6.59,.6-13.18,.77-19.77,.03-.99-.64-2.01-1.23-3.73Zm263.6,106.64c3.43-8.54,2.63-12.73-2.6-14.83-4.56,3.94-3.67,9.72,2.6,14.83Zm-282.98-2.36c.53-2.22,1.49-4.5,1.45-6.77-.02-1.32-1.37-3.12-2.6-3.75-.89-.46-3.11,.25-3.79,1.15-.82,1.1-1.11,3.04-.8,4.44,.56,2.56,2.44,4.21,5.74,4.93Zm-2.42-275.44c1.89-3.81,1.74-7.13,.14-10.29-.47-.92-2.02-1.85-3.04-1.81-1.86,.06-2.03,1.79-2.02,3.36,.02,3.43,2.03,5.76,4.92,8.75Z"/>
          <path class="cls-47" d="M2478.59,51.2c-.29,3.26-.19,6.62-.95,9.77-1.36,5.66-6.32,6.56-9.91,2.31-4.2-4.97-6.62-11.09-7.94-17.4-1.1-5.26,3.62-9.59,9.73-9.65-.27,2.18-.28,4.23,2.04,5.48,3.82,2.06,5.8,5.51,7.03,9.5Z"/>
          <path class="cls-11" d="M2310.59,48.09c.81,3.35,1.63,6.7,2.42,10.06,.85,3.6,1.27,7.18-.8,10.59-2.53,1.1-4.42,.21-6.29-1.54-5.13-4.78-8.27-10.74-10.5-17.25-1.17-3.4-.05-7.22,2.36-8.84,2.51-1.69,5.27-1.33,8.61,1.12,1.4,1.95,2.8,3.9,4.2,5.85Z"/>
          <path class="cls-37" d="M2478.59,51.2c-1.23-3.99-3.21-7.44-7.03-9.5-2.32-1.25-2.3-3.3-2.04-5.48,5.4-3.73,11.03-2.89,14.43,2.7,4.97,8.19,6.54,17.26,5.51,26.73-.16,1.49-1.3,2.88-2.54,4.33-2.06-6.73-5.13-12.79-8.32-18.79Z"/>
          <path class="cls-37" d="M2310.59,48.09c-1.4-1.95-2.8-3.9-4.2-5.85,.01-2.87,.74-5.18,3.92-6.14,3.02-.91,5.61-.37,7.65,1.92,1.17,1.32,2.13,2.93,2.81,4.57,2.78,6.74,3.26,13.82,2.81,21.02-.14,2.23-.75,4.19-3.26,5.97-1.65-3.75-3.17-7.29-4.76-10.8-1.62-3.58-3.31-7.13-4.97-10.69Z"/>
          <path class="cls-47" d="M2187.15,63.25c-.72-1-1.46-1.99-2.16-3.01-3.73-5.41-7.31-10.92-11.22-16.2-2.61-3.53-2.95-6.11-.34-8.21,2.75-2.22,6.12-1.72,8.58,1.49,5.8,7.59,8.04,16.05,5.15,25.93Z"/>
          <path class="cls-11" d="M2372.53,203.18c-5.67,1.55-7.41,.65-9.08-4.91-1.36-4.53-1.52-9.12,.14-13.61,1.65-4.48,6.54-6.44,9.84-4,.67,.5,.85,1.66,1.26,2.52-.72,6.66-1.44,13.33-2.16,19.99Z"/>
          <path class="cls-47" d="M2204.14,264.41c-2.04-7.5-3.74-14.49-3.67-21.81,.02-2.19,.71-3.85,2.36-5.21,2.57-2.1,6.26-1.19,6.55,2.03,.74,8.12,.08,16.16-3.5,23.7-.18,.38-.75,.57-1.74,1.29Z"/>
          <path class="cls-47" d="M2199.61,81.11c0,.99,.1,2-.02,2.98-.41,3.55-2.54,4.69-5.89,3.23-4.46-1.94-7.34-6.46-7.25-11.34,.07-3.88,.91-5,4.5-6.01,2.57-.72,5.75,.42,6.94,3.07"/>
          <path class="cls-11" d="M2483.64,98.06c-.3,4.7,.51,9.55-2.15,14.61-1.19-.86-2.69-1.43-3.31-2.5-2.19-3.85-4.34-7.76-6-11.86-1.48-3.64-.38-6.33,2.35-7.62,2.81-1.33,4.65-.58,7.3,2.95,.18,.24,.51,.38,.78,.57,.34,1.29,.69,2.57,1.03,3.86Z"/>
          <path class="cls-25" d="M2372.53,203.18c.72-6.66,1.44-13.33,2.16-19.99,1.21-1.44,2.56-2.43,4.65-2.13,1.92,.28,3.06,1.14,3.26,3.1,.02,.17,.04,.33,.03,.5-.44,8.87-3.56,16.83-8.18,25.48-.86-3.11-1.39-5.03-1.92-6.95Z"/>
          <path class="cls-36" d="M2488.48,292.16c-3.48,1.32-5.25,.8-5.63-2.61-.52-4.66-1.37-9.44-.23-14.12,1.07-4.44,4.49-6.36,8.63-5.16,2.51,.73,3.06,2.73,1.33,4.82-2.67,1.55-2.7,4.28-3.01,6.85-.41,3.4-.73,6.81-1.1,10.22Z"/>
          <path class="cls-3" d="M2193.91,48.06c-3.29-4.46-5.86-8.06-8.58-11.55-1.09-1.4-2.47-2.59-3.8-3.79-1.65-1.49-2.48-3.08-1.1-5.19,1.34-2.03,3.3-3,5.49-2.06,1.74,.75,3.45,2.03,4.65,3.5,3.37,4.11,4.06,9.27,4.79,14.3,.18,1.24-.77,2.65-1.46,4.78Z"/>
          <path class="cls-51" d="M2207.83,318.52c.57,1.47,1.64,2.95,1.62,4.4-.12,6.59-.54,13.18-.92,19.76-.05,.78-.52,1.55-.84,2.3-.75,1.75-2.2,2.85-3.91,2.03-1.05-.51-2.08-2.1-2.21-3.32-.65-5.7,1.18-11.09,2.59-16.5,.76-2.91,1.72-5.77,2.59-8.66l1.08-.03Z"/>
          <path class="cls-51" d="M2483.64,98.06c-.34-1.29-.69-2.57-1.03-3.86-.61-2.21-1.24-4.42-1.83-6.63-.83-3.12-.26-5.42,1.52-6.2,2.62-1.14,5.58,0,6.91,3.04,2.21,4.99,2.34,10.24,.91,15.44-.45,1.63-1.26,3.59-3.76,3.25-.9-1.67-1.81-3.35-2.71-5.04Z"/>
          <path class="cls-11" d="M2325.69,93.09c1.35,4.13,2.7,8.26,4.09,12.53-6.63,.29-14.82-6.5-15.19-12.08-.24-3.57,2.01-5.3,6.97-5.38,1.37,1.64,2.75,3.28,4.12,4.92Z"/>
          <path class="cls-11" d="M2371.36,299.08c-1,1.64-2,3.27-3.02,4.95-2.35-1.38-3.8-2.94-3.93-5.57-.16-3.26-.63-6.5-.81-9.76-.05-.93,.31-1.94,.68-2.83,1.24-3.02,3-4.13,5.62-3.69,2.02,.34,3.68,2.96,3.49,5.77-.1,1.45-.47,2.88-.71,4.33-.44,2.27-.88,4.53-1.32,6.8Z"/>
          <path class="cls-25" d="M2488.48,292.16c.36-3.41,.69-6.82,1.1-10.22,.31-2.57,.34-5.3,3.01-6.85,4.73,.3,5.81,1.15,4.91,5.08-1.56,6.73-3.54,13.36-5.41,20.01-.2,.7-.87,1.27-1.98,2.81-.64-4.26-1.13-7.54-1.63-10.83Z"/>
          <path class="cls-3" d="M2491.26,332.34c.87,6.31,1.6,11.49,2.28,16.68,.11,.81,.03,1.66-.03,2.48-.21,2.82-2.2,5.41-4.12,5.42-2.32,.01-4.86-2.52-4.63-5.54,.43-5.56,1.02-11.17,3.59-16.27,.39-.78,1.32-1.29,2.91-2.77Z"/>
          <path class="cls-2" d="M2217.17,237.68c.59,1.73,1.26,2.74,1.23,3.73-.17,6.59-.48,13.18-.77,19.77-.08,1.7-1.05,3.14-2.71,2.87-1.42-.23-3.02-1.21-3.89-2.36-.66-.88-.62-2.61-.32-3.82,1.44-5.72,3.04-11.4,4.67-17.07,.25-.87,.9-1.61,1.78-3.12Z"/>
          <path class="cls-51" d="M2371.36,299.08c.44-2.27,.88-4.53,1.32-6.8,4.53-.08,5.19,.18,4.92,3.95-.52,7.22-1.48,14.41-2.3,21.6-.05,.44-.48,.84-1.16,1.98-2.17-7.42-2.33-14.1-2.78-20.74Z"/>
          <path class="cls-29" d="M2480.77,344.32c-6.27-5.11-7.16-10.89-2.6-14.83,5.23,2.1,6.03,6.29,2.6,14.83Z"/>
          <path class="cls-12" d="M2325.69,93.09c-1.37-1.64-2.75-3.28-4.12-4.92-.34-1.42-1.17-2.95-.88-4.24,.3-1.36,1.4-3,2.61-3.6,1.48-.73,3.36-.12,4.07,1.74,1.39,3.64,1.6,7.48,2.22,11.86l-3.89-.85Z"/>
          <path class="cls-11" d="M2197.79,341.96c-3.29-.72-5.17-2.38-5.74-4.93-.31-1.4-.02-3.34,.8-4.44,.68-.9,2.9-1.61,3.79-1.15,1.24,.63,2.58,2.43,2.6,3.75,.03,2.27-.93,4.55-1.45,6.77Z"/>
          <path class="cls-30" d="M2195.36,66.52c-2.89-2.99-4.9-5.32-4.92-8.75-.01-1.57,.16-3.3,2.02-3.36,1.02-.03,2.57,.89,3.04,1.81,1.6,3.17,1.75,6.48-.14,10.29Z"/>
        </g>
        <g>
          <path class="cls-32" d="M2689.26,192.13c-1.09,.69-1.48,1.02-1.93,1.21-8.25,3.59-10.87,10.87-11.83,18.88-.93,7.72-3.92,13.99-10.36,18.52-1.76,1.24-3.4,2.69-4.97,4.17-3.99,3.77-4.42,6.81-1.69,11.48,.92,1.58,2.24,2.97,2.93,4.63,1.19,2.87,2.43,5.83,2.88,8.86,.38,2.56,1.35,4.4,3.35,5.78,1.36,.94,2.78,1.85,4.3,2.52,13.06,5.74,26.03,11.73,39.29,16.99,5.48,2.17,11.53,3.3,17.42,3.94,10.07,1.09,20.11,2.51,30.34,2.24,12.52-.32,24.79-1.44,37.02-4.45,9.15-2.25,18.68-3.02,28.05-4.37,4.61-.66,9.23-1.19,13.86-1.67,11.54-1.2,22.53,.99,32.97,5.87,5.67,2.65,8.53,7.71,10.35,13.44,3.41,10.73,1.87,21.36-.75,31.96-1.32,5.34-4.02,9.83-8.25,13.35-10.45,8.71-21.6,15.87-35.42,18.3-11.11,1.95-22.05,4.82-33.1,7.14-3.41,.72-6.9,1.1-10.38,1.41-9.95,.89-19.89,2.11-29.86,2.36-12.13,.3-24.3,.01-36.42-.55-7.79-.36-15.59-1.34-23.28-2.65-16.21-2.77-31.47-8.26-45.44-17.08-7.05-4.45-14.3-8.54-22.54-10.34-4.7-1.02-9.47-1.81-14.24-2.4-4.59-.56-8.58-1.91-11.85-5.47-1.75-1.9-4.22-3.16-6.46-4.58-4.62-2.93-8.1-6.93-10.69-11.64-6.35-11.54-9.71-23.89-10.35-37.09-.6-12.3-1.5-24.59-2.7-36.85-1.64-16.85-1.39-33.55,2.24-50.14,3.09-14.12,3.68-28.27,.78-42.56-2.76-13.59,.13-26.38,6.2-38.66,7.32-14.81,17-27.68,29.9-38.12,15.02-12.15,30.29-23.93,46.52-34.43,7.85-5.08,16.1-9.17,25.42-11.02,7.3-1.45,13.63-5.41,19.36-9.92,14.01-11.02,30.02-14.25,47.03-11.44,8.9,1.47,17.49,5.1,26.05,8.24,12.94,4.74,25.66,10.13,39.49,11.88,9.4,1.19,18.77,2.72,28.21,3.44,12.92,.99,25.21,4.42,37.18,8.96,9.25,3.5,16.62,9.78,21.93,18.17,6.41,10.13,10.79,20.98,10.59,33.25-.13,7.64-1.92,14.91-5.85,21.39-3.7,6.09-6.07,12.53-7.22,19.5-2.3,13.91-10.66,23.67-22.59,29.94-9.03,4.75-17.66,9.88-25.85,15.91-6.97,5.13-14.39,9.67-21.19,15-12.86,10.08-27.69,15.63-43.13,20.04-10.89,3.11-22.01,3.78-33.16,2.75-9.09-.84-18.14-2.32-27.11-4.04-7.71-1.48-14.8-4.78-21.56-8.87-7.67-4.64-15.62-8.8-23.51-13.2Zm71.27,107.61c-3.14,0-6.3,.21-9.41-.04-6.77-.56-13.5-1.63-20.28-2-9.58-.52-18.71-2.8-27.39-6.61-10.18-4.47-20.14-9.41-30.19-14.18-3-1.42-6.05-2.78-8.91-4.45-4.01-2.34-7.31-5.62-7.76-10.4-.35-3.71-1.91-6.61-3.81-9.55-1.17-1.81-2.31-3.67-3.19-5.63-2.34-5.22-1.44-10.1,2.18-14.39,2.02-2.39,4.24-4.66,6.63-6.69,4.42-3.75,6.87-8.14,7.16-14.15,.3-6.09,1.53-12.17,4.5-17.69,4.27-7.94,12.23-11.02,20.49-8.01,.76,.28,1.59,.38,2.39,.57,6.47,1.56,12.75,3.53,18.39,7.26,7.35,4.86,14.94,9.29,23.73,11.05,5.35,1.07,10.71,2.4,16.13,2.74,9.77,.62,19.74,1.8,29.35,.56,14.8-1.9,29.29-6.2,42.17-14.03,10.63-6.46,20.63-13.97,30.73-21.27,7.8-5.65,15.49-11.25,24.41-15.27,11.01-4.96,18.08-13.67,20.54-25.87,.98-4.84,2.56-9.58,4.16-14.26,.91-2.65,2.52-5.06,3.66-7.65,2.99-6.78,5.18-13.92,3.79-21.26-1.17-6.12-3.17-12.24-5.83-17.88-4.7-9.96-12.36-16.89-22.94-20.89-16.16-6.1-33.05-8.05-49.96-10.35-9.48-1.29-19.05-2.83-28.17-5.61-13.93-4.24-27.52-9.6-41.21-14.59-9.38-3.42-18.9-3.01-28.46-1.23-6.98,1.3-13.02,4.7-18.82,8.68-7.66,5.27-15.39,10.5-24.71,12.47-7.12,1.51-13.39,4.86-19.43,8.67-14.5,9.14-27.93,19.75-41.53,30.15-14.99,11.46-26.69,25.31-34.21,42.68-3.83,8.83-6.02,17.93-5.26,27.57,.51,6.44,1.05,12.9,2.2,19.24,1.19,6.57-.02,12.9-.9,19.27-1.3,9.34-3.72,18.6-4.13,27.96-.51,11.59,.31,23.26,.98,34.87,.6,10.25,2.02,20.46,2.64,30.71,.54,8.84,2.08,17.39,5.05,25.73,3.13,8.78,7.33,16.69,15.77,21.62,1.84,1.07,3.41,2.62,5.06,4,2.36,1.97,4.87,3,8.12,3.05,4.78,.08,9.59,.67,14.31,1.48,8.67,1.5,16.17,5.85,23.49,10.45,8.63,5.42,17.78,9.55,27.65,12.18,8.66,2.31,17.34,4.3,26.32,4.94,11.74,.83,23.48,2.39,35.22,2.51,11.26,.11,22.54-1.05,33.79-1.97,6.92-.57,13.82-1.54,20.67-2.69,7.98-1.34,15.91-3.02,23.83-4.66,4.85-1,9.76-1.87,14.47-3.37,8.54-2.72,15.5-8.2,22.35-13.76,3.07-2.5,5.02-5.93,5.81-9.67,1.97-9.32,2.11-18.71-.16-28.05-1.05-4.32-3.45-7.44-7.7-9.08-7.01-2.7-14.16-4.9-21.75-4.41-6.44,.41-12.88,1.07-19.26,2-8.67,1.27-17.43,2.36-25.89,4.52-12.15,3.11-24.32,5.2-36.88,4.65Z"/>
          <path class="cls-33" d="M2760.53,299.74c12.56,.55,24.73-1.53,36.88-4.65,8.46-2.17,17.22-3.25,25.89-4.52,6.38-.94,12.82-1.59,19.26-2,7.6-.49,14.75,1.71,21.75,4.41,4.24,1.64,6.65,4.76,7.7,9.08,2.27,9.34,2.13,18.73,.16,28.05-.79,3.75-2.74,7.18-5.81,9.67-6.85,5.56-13.81,11.05-22.35,13.76-4.71,1.5-9.62,2.37-14.47,3.37-7.93,1.63-15.85,3.32-23.83,4.66-6.85,1.15-13.75,2.12-20.67,2.69-11.25,.92-22.53,2.09-33.79,1.97-11.75-.12-23.48-1.68-35.22-2.51-8.97-.63-17.66-2.63-26.32-4.94-9.87-2.63-19.02-6.76-27.65-12.18-7.32-4.6-14.82-8.95-23.49-10.45-4.72-.81-9.53-1.41-14.31-1.48-3.25-.05-5.76-1.08-8.12-3.05-1.65-1.38-3.22-2.93-5.06-4-8.43-4.92-12.64-12.84-15.77-21.62-2.97-8.34-4.51-16.89-5.05-25.73-.63-10.25-2.05-20.46-2.64-30.71-.68-11.61-1.49-23.28-.98-34.87,.41-9.36,2.83-18.62,4.13-27.96,.89-6.37,2.1-12.7,.9-19.27-1.15-6.34-1.69-12.81-2.2-19.24-.76-9.64,1.44-18.74,5.26-27.57,7.53-17.37,19.22-31.22,34.21-42.68,13.6-10.4,27.03-21.01,41.53-30.15,6.04-3.81,12.31-7.16,19.43-8.67,9.31-1.97,17.05-7.2,24.71-12.47,5.8-3.99,11.84-7.38,18.82-8.68,9.56-1.78,19.08-2.19,28.46,1.23,13.69,4.99,27.28,10.35,41.21,14.59,9.12,2.78,18.69,4.32,28.17,5.61,16.91,2.3,33.8,4.25,49.96,10.35,10.58,3.99,18.24,10.92,22.94,20.89,2.66,5.64,4.66,11.76,5.83,17.88,1.4,7.34-.8,14.49-3.79,21.26-1.14,2.59-2.75,4.99-3.66,7.65-1.61,4.68-3.19,9.42-4.16,14.26-2.46,12.2-9.54,20.91-20.54,25.87-8.92,4.02-16.6,9.62-24.41,15.27-10.09,7.31-20.1,14.81-30.73,21.27-12.88,7.83-27.37,12.13-42.17,14.03-9.61,1.23-19.58,.06-29.35-.56-5.41-.35-10.78-1.67-16.13-2.74-8.79-1.76-16.38-6.2-23.73-11.05-5.64-3.73-11.92-5.7-18.39-7.26-.8-.19-1.63-.29-2.39-.57-8.27-3.01-16.22,.07-20.49,8.01-2.97,5.52-4.21,11.59-4.5,17.69-.29,6.01-2.74,10.4-7.16,14.15-2.39,2.02-4.61,4.3-6.63,6.69-3.62,4.29-4.52,9.17-2.18,14.39,.88,1.96,2.01,3.82,3.19,5.63,1.91,2.94,3.47,5.84,3.81,9.55,.45,4.78,3.75,8.05,7.76,10.4,2.86,1.67,5.91,3.03,8.91,4.45,10.04,4.77,20.01,9.71,30.19,14.18,8.69,3.81,17.82,6.09,27.39,6.61,6.78,.37,13.51,1.44,20.28,2,3.12,.26,6.28,.04,9.41,.04Zm-39.2-251.98c1.83,3.53,4.49,4.84,9,3.59,7.9-2.19,15.75-4.61,23.53-7.22,2.7-.9,5.12-2.64,8.76-4.59-2.53-1.42-3.89-2.61-5.46-3-7.64-1.9-15.26-1.64-22.79,.75-.79-.13-1.59-.27-2.38-.4-4.46-.73-8.92-1.09-13.25,.61-3.16,1.25-4.49,4.35-3.25,7.29,1.1,2.6,3.45,2.82,5.82,2.96Zm-60.89,23.6c-.58,.31-1.13,.79-1.75,.91-6.09,1.16-10.93,4.5-15.27,8.7-1.06,1.03-2.16,2.12-2.89,3.38-1.31,2.26-.96,4.99,.53,6.4,1.53,1.44,4.76,1.3,6.86-.36,1.16-.92,2.23-1.94,3.34-2.92,3.24,5.21,7.05,6.7,11.93,3.54,5.09-3.3,9.67-7.4,14.29-11.36,1.17-1.01,1.82-2.75,2.43-4.27,1.32-3.3,.51-5.44-2.69-6.89-1.31-.59-2.83-.84-4.28-.94-4.63-.33-8.53,1.86-12.49,3.82Zm84.72,8.57c-4.05,.75-8.17,1.22-12.13,2.29-13.32,3.61-23.32,11.96-30.61,23.31-7,10.91-11.79,22.66-8.99,36.17,.22,1.06-.08,2.23-.08,3.34-.02,5.76,.71,11.56,5.07,15.59,3.09,2.86,7.02,5.37,11.02,6.57,7.74,2.32,15.77,3.72,23.72,5.27,8.75,1.71,17.57,.74,26.34,0,7.65-.65,15.33-1.9,21.67-6.49,7.25-5.25,14.25-10.9,20.95-16.85,5.56-4.94,11.65-8.76,18.47-11.57,3.37-1.39,6.69-2.93,9.91-4.64,2.58-1.37,4.68-3.55,4.83-6.53,.18-3.62,0-7.32-.59-10.89-1.59-9.73-8.47-14.99-16.72-18.91-4.25-2.02-8.72-3.14-13.47-2.88-5.47,.3-10.93,.86-16.4,.82-2.72-.02-5.59-.78-8.12-1.85-4.57-1.95-9-4.27-13.37-6.67-6.69-3.67-13.76-5.67-21.5-6.07Zm101.21,225.85c-.08-3.07-2.15-4-4.12-4.73-1.98-.73-4.12-1.37-6.21-1.46-10.12-.44-20.11,.4-29.72,3.86-1.34,.48-2.57,1.39-3.73,2.25-2.09,1.55-3,3.78-1.93,6.13,1.06,2.33,2.97,4.11,5.89,3.69,4.22-.6,8.46-1.12,12.62-2.03,9.12-1.99,18.41-3.43,27.2-7.71Zm44.73-221.55c-.42-2.6-.52-4.44-1.03-6.15-1.18-3.97-5.77-7.14-8.97-6.39-4.05,.94-7.6,5.69-6.53,9.73,1.21,4.58,2.86,9.12,4.99,13.34,2.12,4.22,7.41,4.01,9.25-.4,1.42-3.4,1.69-7.28,2.3-10.13Zm-279.36,48.76c-3.88,.23-5.21,1.02-7.31,4.37-3.93,6.27-5.82,13.31-7,20.48-.4,2.46,.07,5.37,1.06,7.67,1.38,3.21,5.29,2.93,6.9-.24,.51-1.01,.82-2.15,1.05-3.27,1.03-5.01,2.04-10.02,2.96-15.04,.84-4.62,1.56-9.26,2.34-13.97Zm123.07,178.6c-.82-1.56-1.18-3.19-2.2-4.04-4.42-3.68-9.54-5.93-15.37-6.01-3.95-.05-6.44,2.18-6.95,5.71-.59,4.08,1.41,7.24,5.41,8.22,6.79,1.67,12.89-.12,19.1-3.89Zm-116.19,6.86c.3-.2,.59-.4,.89-.59-.28-1.57-.37-3.2-.86-4.7-1.18-3.59-2.45-7.16-3.88-10.66-1.43-3.51-3.03-6.96-4.7-10.37-1.06-2.17-2.96-3.18-5.36-2.51-2.35,.66-3.62,2.42-3.37,4.84,.2,1.92,.41,4.11,1.42,5.63,3.01,4.51,6.27,8.88,9.73,13.06,1.7,2.05,4.07,3.55,6.13,5.3Zm264.37-193.87c-4.24,4.69-7.95,8.46-11.22,12.58-1.63,2.05-1.36,4.66,.31,6.92,1.28,1.73,2.9,2.83,5.08,2.39,2.7-.54,3.56-2.84,4.1-5.12,1.07-4.49,1.99-9.02,2.85-13.55,.12-.64-.46-1.41-1.12-3.21Zm-36.05,199.95c3.63,.16,7.33-2.12,7.36-4.53,.04-3.05-3.88-6.37-7.68-6.51-3.32-.12-6.2,2.19-6.26,5-.07,3.29,2.75,5.87,6.58,6.04Zm-196.44-.6c-.36-.69-.53-1.15-.81-1.53-2.51-3.46-5-6.94-7.59-10.34-1.24-1.63-2.77-3-5.03-1.76-1.91,1.04-2.54,3.2-1.76,5.57,.1,.31,.11,.68,.29,.94,3.15,4.62,7.76,7.01,13.02,8.28,.49,.12,1.21-.72,1.9-1.16Zm-34.94-170.27s-.33-.23-.6-.18c-.46,.09-1.08,.22-1.31,.56-2.96,4.32-4.83,9.02-4.11,14.36,.39,2.88,2.41,5.02,4.15,4.87,2.06-.17,2.88-1.79,2.77-5.49-.03-.99-.11-1.98-.17-2.97-.23-3.54-.46-7.08-.72-11.16Z"/>
          <path class="cls-32" d="M2745.16,79.93c7.74,.4,14.81,2.4,21.5,6.07,4.37,2.39,8.8,4.71,13.37,6.67,2.52,1.08,5.4,1.83,8.12,1.85,5.46,.04,10.93-.52,16.4-.82,4.75-.26,9.22,.86,13.47,2.88,8.25,3.92,15.13,9.18,16.72,18.91,.58,3.57,.77,7.28,.59,10.89-.15,2.99-2.25,5.17-4.83,6.53-3.22,1.71-6.54,3.25-9.91,4.64-6.82,2.82-12.91,6.63-18.47,11.57-6.7,5.95-13.7,11.6-20.95,16.85-6.34,4.59-14.02,5.84-21.67,6.49-8.77,.74-17.58,1.72-26.34,0-7.95-1.55-15.98-2.95-23.72-5.27-4-1.2-7.93-3.71-11.02-6.57-4.36-4.03-5.09-9.83-5.07-15.59,0-1.12,.3-2.28,.08-3.34-2.8-13.5,1.98-25.26,8.99-36.17,7.29-11.36,17.29-19.7,30.61-23.31,3.96-1.07,8.08-1.55,12.13-2.29Zm.45,83.99c3.33-.15,6.66-.22,9.98-.47,9.8-.72,19.02-3.07,26.74-9.63,3.55-3.02,7.22-5.89,10.78-8.91,7.52-6.39,15.44-12.1,24.79-15.58,2.49-.93,4.89-2.07,7.33-3.14,1.85-.81,3.03-2.2,2.77-4.27-.84-6.61-2.63-12.57-9.05-16.27-5.2-3-10.42-5.07-16.52-4.12-1.97,.31-3.97,.4-5.95,.65-7.78,.98-15.24,.03-22.29-3.58-3.84-1.97-7.7-3.9-11.57-5.82-12.27-6.09-24.43-5.59-36.27,1.01-13.42,7.48-21.3,19.24-24.92,33.93-.82,3.32-1.11,6.95-.76,10.35,.46,4.42,1.72,8.77,2.84,13.1,.24,.94,1.21,1.9,2.1,2.44,12.3,7.41,25.73,10.53,40.01,10.31Z"/>
          <path class="cls-22" d="M2846.37,305.79c-8.8,4.28-18.09,5.71-27.2,7.71-4.16,.91-8.4,1.44-12.62,2.03-2.92,.41-4.83-1.36-5.89-3.69-1.07-2.35-.16-4.58,1.93-6.13,1.16-.86,2.39-1.77,3.73-2.25,9.61-3.46,19.6-4.31,29.72-3.86,2.09,.09,4.22,.73,6.21,1.46,1.97,.73,4.04,1.66,4.12,4.73Z"/>
          <path class="cls-22" d="M2660.44,71.36c3.96-1.96,7.86-4.15,12.49-3.82,1.45,.1,2.97,.35,4.28,.94,3.2,1.45,4.02,3.59,2.69,6.89-.61,1.52-1.26,3.26-2.43,4.27-4.62,3.96-9.21,8.06-14.29,11.36-4.87,3.16-8.69,1.67-11.93-3.54,2.84-2.97,5.73-5.89,8.5-8.92,1.71-1.87,3.69-3.65,3.73-6.83l-3.04-.36Z"/>
          <path class="cls-22" d="M2891.1,84.23c-.61,2.86-.88,6.74-2.3,10.13-1.84,4.41-7.13,4.62-9.25,.4-2.12-4.22-3.78-8.77-4.99-13.34-1.07-4.04,2.48-8.79,6.53-9.73,3.2-.75,7.79,2.42,8.97,6.39,.51,1.71,.61,3.55,1.03,6.15Z"/>
          <path class="cls-22" d="M2734.39,37.3c7.53-2.38,15.15-2.65,22.79-.75,1.56,.39,2.93,1.58,5.46,3-3.64,1.94-6.06,3.68-8.76,4.59-7.78,2.61-15.63,5.02-23.53,7.22-4.51,1.25-7.18-.06-9-3.59,4.51-1.42,9.08-2.7,13.51-4.35,1.69-.63,4.32-2.07,4.34-3.2,.06-2.61-2.97-2.21-4.8-2.92Z"/>
          <path class="cls-14" d="M2611.74,132.99c-.78,4.71-1.5,9.35-2.34,13.97-.92,5.03-1.93,10.04-2.96,15.04-.23,1.12-.54,2.26-1.05,3.27-1.61,3.17-5.52,3.45-6.9,.24-.99-2.31-1.46-5.21-1.06-7.67,1.18-7.18,3.07-14.21,7-20.48,2.1-3.35,3.43-4.14,7.31-4.37Z"/>
          <path class="cls-22" d="M2734.8,311.6c-6.22,3.77-12.32,5.55-19.1,3.89-4-.98-6-4.14-5.41-8.22,.51-3.53,3-5.77,6.95-5.71,5.83,.08,10.95,2.33,15.37,6.01,1.02,.85,1.38,2.48,2.2,4.04Z"/>
          <path class="cls-41" d="M2618.61,318.46c-2.07-1.75-4.43-3.25-6.13-5.3-3.46-4.18-6.72-8.55-9.73-13.06-1.02-1.53-1.22-3.71-1.42-5.63-.25-2.42,1.02-4.19,3.37-4.84,2.4-.67,4.29,.34,5.36,2.51,1.67,3.41,3.27,6.86,4.7,10.37,1.43,3.5,2.7,7.07,3.88,10.66,.49,1.5,.59,3.13,.86,4.7-.3,.2-.59,.4-.89,.59Z"/>
          <path class="cls-52" d="M2660.44,71.36c.95,.11,1.91,.23,3.04,.36-.04,3.18-2.03,4.97-3.73,6.83-2.77,3.03-5.66,5.95-8.5,8.92-1.11,.98-2.18,2-3.34,2.92-2.1,1.66-5.33,1.8-6.86,.36-1.49-1.41-1.84-4.14-.53-6.4,.73-1.26,1.82-2.35,2.89-3.38,4.34-4.2,9.18-7.54,15.27-8.7,.62-.12,1.17-.6,1.75-.91Z"/>
          <path class="cls-35" d="M2734.39,37.3c1.84,.71,4.86,.31,4.8,2.92-.03,1.12-2.65,2.57-4.34,3.2-4.43,1.65-9,2.92-13.51,4.35-2.37-.14-4.72-.36-5.82-2.96-1.24-2.94,.09-6.04,3.25-7.29,4.32-1.71,8.79-1.34,13.25-.61,.79,.13,1.59,.26,2.38,.4Z"/>
          <path class="cls-52" d="M2882.98,124.59c.65,1.8,2.01,3.46,1.45,3.58-.86,4.54-2.11,8.7-3.18,13.19-.54,2.28-1.41,4.58-4.1,5.12-2.18,.44-3.8-.66-5.08-2.39-1.67-2.26-1.94-4.87-.31-6.92,3.28-4.12,6.99-7.89,11.22-12.58Z"/>
          <path class="cls-49" d="M2846.93,324.53c-3.83-.17-6.64-2.75-6.58-6.04,.06-2.81,2.94-5.12,6.26-5,3.8,.13,7.72,3.45,7.68,6.51-.03,2.41-3.73,4.69-7.36,4.53Z"/>
          <path class="cls-52" d="M2650.49,323.94c-.68,.44-1.4,1.27-1.9,1.16-5.26-1.27-9.87-3.66-13.02-8.28-.18-.26-.19-.63-.29-.94-.78-2.37-.15-4.53,1.76-5.57,2.27-1.24,3.79,.13,5.03,1.76,2.59,3.4,5.08,6.88,7.59,10.34,.28,.38,.45,.84,.81,1.53Z"/>
          <path class="cls-34" d="M2615.55,153.66c.26,4.08,.49,7.62,.72,11.16,.06,.99,.14,1.98,.17,2.97,.11,3.7-.71,5.32-2.77,5.49-1.74,.15-3.76-1.99-4.15-4.87-.71-5.34,1.15-10.04,4.11-14.36,.23-.34,.85-.47,1.31-.56,.27-.05,.6,.18,.6,.18Z"/>
        </g>
        <g>
          <path class="cls-32" d="M318,344.51c.16,.81-.1,2.44-.41,2.84-3.75,18.86-15.86,30.08-33.4,36.14-3.22,1.11-6.83,1.54-10.26,1.53-7.31-.01-14.63-.39-21.93-.9-2.24-.16-4.59-.87-6.58-1.91-15.45-8.14-23.19-21.54-24.76-38.43-2-21.55-2.12-43.15,1.24-64.61,2.59-16.55,2.39-33.08,.44-49.66-1.81-15.33-3.71-30.66-5.26-46.01-.83-8.26-1-16.58-1.46-24.88-.35-6.21-2.4-11.62-7.08-15.95-2.64-2.43-5.61-3.51-9.13-2.93-2.12,.35-4.21,.95-6.32,1.39-7.97,1.66-13.71,5.84-17.4,13.39-2.45,5.01-6.25,9.35-9.35,14.05-1.46,2.2-2.75,4.52-4.04,6.83-3.07,5.49-5.84,11.17-9.2,16.47-5.25,8.3-12.55,14.19-22.28,16.46-11.97,2.79-19.21,10.34-21.83,22-2.36,10.5-4.29,21.14-5.68,31.82-1.92,14.82-3.46,29.7-4.59,44.59-.93,12.25-1.07,24.56-1.5,36.84-.39,11.16-4.01,21.47-8.34,31.56-1.96,4.56-5.84,7.18-10.44,8.64-11.65,3.69-23.52,4.29-35.44,1.69-5-1.09-9.98-2.57-14.73-4.46-3.71-1.48-7.84-3.02-8.6-7.98-.08-.53-.84-.99-1.34-1.42-6.91-5.88-9.39-13.78-10.54-22.41-1.76-13.29-1.01-26.51,.62-39.74,1.26-10.22,2.25-20.46,3.44-30.69,1.95-16.68-.16-33.18-2.29-49.64-2.07-15.96-5.51-31.76-6.98-47.76-1.98-21.65-3.57-43.38-1.79-65.19,1.69-20.7,4.36-41.26,8.33-61.63,1.1-5.67,2.96-11.21,4.83-16.69,2.08-6.07,5.76-11.16,10.56-15.47,6.6-5.93,14.03-7.15,22.23-4.11,1.86,.69,3.84,1.42,5.32,2.66,6.74,5.64,13.73,11.07,19.87,17.32,6.94,7.07,7.75,16.6,8.31,25.99,.53,9-.58,17.89-1.48,26.83-.64,6.41-.47,12.91-.37,19.37,.03,2.2,.95,4.38,1.74,7.73,2.25-3.98,3.91-6.83,5.5-9.72,4.58-8.33,9.46-16.38,17.2-22.33,4.84-3.72,10-6.55,16.05-7.54,4.06-.66,7.61-2.28,10.7-4.96,8.79-7.61,17.95-14.85,26.31-22.91,14.97-14.42,32.34-24.33,52.45-29.29,12.62-3.11,25.47-5.07,38.51-2.78,3.73,.66,7.35,1.99,11,3.07,5.72,1.69,11.37,3.59,17.14,5.09,6.68,1.74,12.31,5.06,16.52,10.48,10.34,13.28,17.98,27.88,20.8,44.64,.63,3.74,.55,7.62,.5,11.43-.2,17.28-.31,34.56-.84,51.82-.64,20.92-1.59,41.83-2.57,62.73-.86,18.3-.27,36.56,1.47,54.76,1.46,15.18,3.62,30.29,5.32,45.45,.67,5.94,.89,11.92,1.42,17.88,.09,1,.19,2.7,.14,3.8,.92,5.69,.26,9.02,.26,14.67Zm-16.65-231.7l.7-.04c-.44-6.93-.88-13.87-1.34-20.8-1.17-17.8-8.53-33.09-19.28-46.95-3.04-3.92-6.98-6.39-12-7.36-3.87-.74-7.62-2.14-11.4-3.31-1.58-.49-3.11-1.12-4.65-1.74-6.36-2.59-12.91-3.79-19.79-3.01-7.39,.84-14.95,.9-22.14,2.57-18.44,4.28-34.38,13.35-48.15,26.44-7.8,7.42-16.1,14.32-24.35,21.25-5.21,4.38-10.83,8.05-17.86,9.21-7.17,1.18-12.88,5.14-17.14,10.93-3.63,4.92-7.01,10.02-10.29,15.18-2.59,4.07-4.95,8.27-9.36,10.72-5.02,2.79-9.64,1.84-12.13-3.31-1.98-4.09-3.8-8.67-4.03-13.11-.42-8.07,.34-16.2,.71-24.3,.26-5.78,.83-11.55,.98-17.33,.07-2.61-.7-5.23-.84-7.86-.3-5.64-2.05-10.83-5.58-15.1-4.98-6.03-10.68-11.47-17.49-15.41-5.49-3.17-11.11-2.84-14.86,1.88-2.24,2.82-4.46,5.79-5.96,9.03-3.57,7.7-4.68,16.12-6.02,24.4-1.29,7.98-2.26,16.01-3.23,24.03-1.01,8.35-2.4,16.7-2.66,25.09-.55,17.56-.56,35.14,1.71,52.64,.98,7.53,1.36,15.14,2.35,22.67,2.1,16.02,4.91,31.96,6.5,48.03,1.27,12.87-.04,25.79-2.11,38.59-1.65,10.25-3.52,20.51-4.36,30.84-.94,11.55-1.11,23.18-1.02,34.77,.04,5.2,1.31,10.45,2.43,15.58,1.42,6.49,6.77,10,11.53,13.82,.91,.73,2.49,.72,3.78,.89,6.88,.87,13.8,1.5,20.65,2.56,6.52,1,12.8,.44,19.15-1.22,3.25-.85,5.59-2.58,6.54-5.47,2.11-6.4,4.28-12.86,5.45-19.46,1.06-5.98,.82-12.19,1.15-18.3,.68-12.4,1.33-24.79,2.07-37.19,.21-3.46,.64-6.91,1.08-10.35,1.23-9.65,2.49-19.29,3.78-28.93,1.25-9.3,2.19-18.64,4.92-27.71,4.05-13.42,11.84-23.13,25.59-27.39,6.81-2.11,13.06-5.25,17.05-11.33,3.44-5.24,6.18-10.94,9.28-16.41,2.03-3.58,4.02-7.2,6.3-10.61,3.48-5.22,7.47-10.11,10.75-15.45,3.91-6.37,9.07-10.95,16.21-13.12,3.93-1.19,7.96-2.06,11.94-3.08,10.16-2.6,17.63,1.63,23.94,9.19,5.17,6.19,6.89,13.4,6.96,21.21,.04,4.32-.27,8.67,.17,12.96,1.08,10.66,2.64,21.28,3.72,31.94,1.16,11.51,2.14,23.03,2.94,34.57,.99,14.27-.01,28.5-2.07,42.62-1.58,10.82-2.85,21.63-2.66,32.57,.14,8.11,.6,16.22,.8,24.34,.2,8.44,2.63,16.28,6.36,23.73,.94,1.87,2.42,3.62,4.04,4.95,2.81,2.31,5.97,4.18,8.88,6.36,2.11,1.58,4.38,2.22,6.98,2.04,4.13-.29,8.42-1.33,12.35-.57,5.96,1.17,11.2-.38,16.36-2.53,10.42-4.36,18.43-11.41,21.27-22.7,1.73-6.88,1.99-14.07,1.48-21.21-.24-3.3-.55-6.59-.74-9.89-.39-6.61-.66-13.23-1.13-19.83-.24-3.45-.03-7.21-1.35-10.26-2.89-6.7-2.58-13.59-2.61-20.53-.03-5.82,.18-11.64-.11-17.45-.35-6.92-1.35-13.81-1.62-20.73-.18-4.6,.56-9.24,.67-13.86,.41-16.58,.75-33.17,1.06-49.75,.13-6.65,.04-13.3,.2-19.94,.1-4.29,.76-8.58,.67-12.86-.15-6.62-.72-13.22-1.12-19.83Z"/>
          <path class="cls-42" d="M302.47,132.64c.09,4.28-.56,8.57-.67,12.86-.16,6.64-.07,13.29-.2,19.94-.31,16.58-.66,33.17-1.06,49.75-.11,4.62-.85,9.26-.67,13.86,.27,6.92,1.27,13.81,1.62,20.73,.29,5.8,.08,11.63,.11,17.45,.03,6.94-.28,13.83,2.61,20.53,1.32,3.05,1.11,6.8,1.35,10.26,.46,6.6,.73,13.22,1.13,19.83,.2,3.3,.51,6.59,.74,9.89,.51,7.14,.25,14.33-1.48,21.21-2.84,11.29-10.85,18.33-21.27,22.7-5.15,2.16-10.39,3.7-16.36,2.53-3.93-.77-8.22,.28-12.35,.57-2.6,.18-4.87-.46-6.98-2.04-2.91-2.18-6.07-4.05-8.88-6.36-1.62-1.33-3.1-3.08-4.04-4.95-3.74-7.45-6.16-15.29-6.36-23.73-.19-8.11-.66-16.22-.8-24.34-.19-10.94,1.08-21.75,2.66-32.57,2.06-14.12,3.07-28.34,2.07-42.62-.8-11.54-1.78-23.07-2.94-34.57-1.08-10.66-2.64-21.28-3.72-31.94-.43-4.28-.13-8.63-.17-12.96-.07-7.81-1.79-15.02-6.96-21.21-6.31-7.55-13.78-11.79-23.94-9.19-3.98,1.02-8.01,1.89-11.94,3.08-7.15,2.17-12.31,6.75-16.21,13.12-3.27,5.34-7.26,10.23-10.75,15.45-2.28,3.42-4.26,7.04-6.3,10.61-3.11,5.46-5.84,11.16-9.28,16.41-3.99,6.08-10.24,9.22-17.05,11.33-13.75,4.26-21.54,13.96-25.59,27.39-2.74,9.07-3.68,18.41-4.92,27.71-1.29,9.64-2.55,19.28-3.78,28.93-.44,3.44-.87,6.89-1.08,10.35-.74,12.39-1.39,24.79-2.07,37.19-.34,6.11-.1,12.32-1.15,18.3-1.17,6.61-3.34,13.07-5.45,19.46-.95,2.89-3.29,4.63-6.54,5.47-6.35,1.65-12.63,2.22-19.15,1.22-6.85-1.05-13.77-1.69-20.65-2.56-1.29-.16-2.87-.15-3.78-.89-4.75-3.83-10.1-7.34-11.53-13.82-1.13-5.13-2.39-10.38-2.43-15.58-.09-11.59,.08-23.22,1.02-34.77,.84-10.33,2.71-20.59,4.36-30.84,2.06-12.81,3.38-25.73,2.11-38.59-1.59-16.07-4.4-32.01-6.5-48.03-.99-7.53-1.37-15.14-2.35-22.67-2.27-17.5-2.26-35.08-1.71-52.64,.26-8.38,1.65-16.74,2.66-25.09,.97-8.02,1.94-16.06,3.23-24.03,1.34-8.29,2.45-16.7,6.02-24.4,1.5-3.24,3.72-6.21,5.96-9.03,3.75-4.72,9.37-5.05,14.86-1.88,6.81,3.93,12.5,9.38,17.49,15.41,3.54,4.28,5.29,9.47,5.58,15.1,.14,2.63,.91,5.25,.84,7.86-.15,5.78-.71,11.55-.98,17.33-.37,8.1-1.13,16.23-.71,24.3,.23,4.45,2.05,9.02,4.03,13.11,2.49,5.16,7.11,6.1,12.13,3.31,4.41-2.45,6.77-6.65,9.36-10.72,3.28-5.16,6.66-10.26,10.29-15.18,4.27-5.79,9.98-9.75,17.14-10.93,7.03-1.16,12.64-4.83,17.86-9.21,8.25-6.93,16.55-13.83,24.35-21.25,13.77-13.09,29.71-22.16,48.15-26.44,7.19-1.67,14.75-1.73,22.14-2.57,6.88-.78,13.43,.43,19.79,3.01,1.53,.62,3.07,1.25,4.65,1.74,3.78,1.17,7.53,2.56,11.4,3.31,5.02,.97,8.96,3.43,12,7.36,10.75,13.87,18.1,29.15,19.28,46.95,.46,6.93,.89,13.87,1.34,20.8m-16.49,100.14c1.31-2.7,2.71-4.48,3.04-6.45,.92-5.48,1.83-11.03,1.95-16.57,.14-6.41-.34-12.85-.97-19.24-.33-3.36-.87-6.86-3.59-9.48-3.81-3.69-10.03-2.42-11.4,2.67-.7,2.6-.75,5.51-.45,8.21,.63,5.52,1.7,10.99,2.57,16.49,1.13,7.15,2.98,14.1,6.01,20.7,.46,1,1.36,1.8,2.83,3.68Zm-3.93,126.3c0-1.49,.12-2.99-.03-4.47-.21-2.12-.38-4.29-1.01-6.3-.63-2.01-1.52-4.05-2.77-5.73-2.67-3.58-9.93-4.81-12.14,2-.55,1.69-.95,3.51-.98,5.28-.09,5.46-.2,10.94,.15,16.39,.24,3.73,1.1,7.44,1.94,11.09,.6,2.64,2.61,3.51,5.26,3.47,2.96-.05,4.43-1.95,5.7-4.12,3.18-5.44,3.47-11.54,3.88-17.61ZM199.46,57.69c.36-.08,1.42-.1,2.25-.56,5.47-3.03,11.55-3.52,17.54-4.62,4.33-.8,8.61-2.26,12.64-4.03,1.86-.82,4.99-1.56,4.73-4.41-.25-2.83-3.04-3.63-5.42-4.37-9.07-2.84-18.24-2.54-27.34-.42-5.11,1.19-8.78,4.47-10.56,9.55-1.57,4.49,1.2,8.9,6.16,8.87ZM39.37,97.38c1.59-2.47,2.94-3.98,3.59-5.74,1.08-2.89,1.93-5.92,2.49-8.96,1.02-5.46,1.97-10.96,2.53-16.48,.35-3.47-1.92-6.13-4.67-6.52-2.87-.4-5.33,1.29-6.33,4.97-.72,2.66-.53,5.56-1.2,8.24-1.58,6.28-.73,12.42,.73,18.52,.43,1.8,1.61,3.41,2.86,5.97Zm131.4-20.55c-.89-.56-1.39-1.13-1.69-1.04-8.25,2.42-16.05,5.83-22.91,11.08-2.65,2.03-3.08,4.78-1.55,6.92,1.52,2.13,4.96,2.75,7.55,.92,7.01-4.96,13.7-10.29,18.6-17.89ZM39.18,363.82c-.77-8.28-3.46-15.48-6.65-22.48-.4-.87-2.74-1.56-3.86-1.23-1.35,.39-2.81,1.76-3.39,3.07-.53,1.2-.36,3.08,.2,4.33,1.9,4.2,3.91,8.37,6.29,12.31,1.35,2.24,3.57,3.88,7.4,4Zm6.63-20.97c-4.71-.02-7.05,3.21-5.06,7.24,1.8,3.65,4.24,7,6.53,10.39,.51,.75,1.52,1.38,2.42,1.6,1.34,.33,3.19,.8,4.07,.16,.88-.64,1.42-2.73,1.08-3.88-1.29-4.37-3.01-8.61-4.56-12.91-.82-2.29-2.6-2.78-4.47-2.6ZM26.71,97.26l.92-.07c.46-1.34,1.13-2.65,1.35-4.03,1.1-7.15,2.08-14.32,3.09-21.49,.35-2.44,.85-4.88,.93-7.34,.03-.88-.95-2.53-1.5-2.55-1.32-.03-3.13,.31-3.87,1.22-.97,1.17-1.42,3.02-1.52,4.61-.46,7.09-.89,14.18-.94,21.28-.02,2.79,1,5.58,1.55,8.37Zm262.61,251.64c2.32-.83,3.98-2.27,4.42-4.73,.72-4.02,1.43-8.05,1.84-12.1,.28-2.78,.05-5.61,.08-8.41,.02-2.22-.82-4.09-3.04-4.49-2.38-.43-3.54,1.33-4,3.45-.34,1.59-.75,3.22-.72,4.83,.04,2.45,.51,4.88,.67,7.33,.3,4.62,.5,9.26,.75,14.12Zm-9.98-286.65c.45-2.75-1.21-4.58-3.63-4.55-2.36,.03-5.08,2.78-4.75,5.43,.56,4.36,2.71,8.08,5.94,11.08,.96,.88,2.41,.07,2.42-1.27,.04-3.56,.01-7.12,.01-10.68ZM26.17,159.38c0-.5,0-.99,0-1.49,.01-2.05,.01-4.17-2.72-4.45-2.63-.27-3.17,1.68-3.76,3.69-1.44,4.87,.47,9.37,1.44,13.97,.1,.49,.96,1.27,1.18,1.19,.65-.25,1.5-.78,1.65-1.36"/>
          <path class="cls-54" d="M285.56,212.91c-1.47-1.87-2.37-2.68-2.83-3.68-3.02-6.6-4.88-13.54-6.01-20.7-.87-5.5-1.94-10.97-2.57-16.49-.31-2.7-.25-5.61,.45-8.21,1.37-5.08,7.59-6.36,11.4-2.67,2.71,2.62,3.26,6.12,3.59,9.48,.63,6.39,1.11,12.83,.97,19.24-.12,5.54-1.03,11.09-1.95,16.57-.33,1.96-1.73,3.75-3.04,6.45Z"/>
          <path class="cls-54" d="M281.63,339.22c-.4,6.06-.69,12.17-3.88,17.61-1.27,2.17-2.75,4.07-5.7,4.12-2.65,.04-4.66-.83-5.26-3.47-.84-3.66-1.7-7.37-1.94-11.09-.35-5.44-.24-10.93-.15-16.39,.03-1.77,.44-3.58,.98-5.28,2.2-6.81,9.47-5.57,12.14-2,1.25,1.68,2.15,3.72,2.77,5.73,.63,2.01,.8,4.18,1.01,6.3,.15,1.48,.03,2.98,.03,4.47Z"/>
          <path class="cls-54" d="M199.46,57.69c-4.96,.03-7.74-4.38-6.16-8.87,1.78-5.08,5.45-8.36,10.56-9.55,9.1-2.12,18.28-2.41,27.34,.42,2.38,.75,5.17,1.54,5.42,4.37,.25,2.85-2.87,3.59-4.73,4.41-4.03,1.77-8.31,3.23-12.64,4.03-5.99,1.1-12.07,1.59-17.54,4.62-.82,.46-1.89,.47-2.25,.56Z"/>
          <path class="cls-54" d="M39.37,97.38c-1.25-2.55-2.43-4.17-2.86-5.97-1.46-6.1-2.31-12.24-.73-18.52,.67-2.68,.48-5.58,1.2-8.24,.99-3.68,3.46-5.37,6.33-4.97,2.76,.38,5.02,3.05,4.67,6.52-.55,5.52-1.51,11.02-2.53,16.48-.57,3.04-1.41,6.06-2.49,8.96-.66,1.76-2.01,3.27-3.59,5.74Z"/>
          <path class="cls-54" d="M170.77,76.83c-4.89,7.6-11.59,12.93-18.6,17.89-2.59,1.84-6.03,1.22-7.55-.92-1.53-2.14-1.09-4.89,1.55-6.92,6.85-5.26,14.66-8.66,22.91-11.08,.31-.09,.81,.48,1.69,1.04Z"/>
          <path class="cls-19" d="M39.18,363.82c-3.83-.12-6.05-1.76-7.4-4-2.38-3.94-4.39-8.11-6.29-12.31-.57-1.26-.74-3.13-.2-4.33,.58-1.31,2.04-2.68,3.39-3.07,1.12-.33,3.46,.36,3.86,1.23,3.19,7,5.88,14.2,6.65,22.48Z"/>
          <path class="cls-48" d="M45.81,342.85c1.87-.18,3.65,.31,4.47,2.6,1.54,4.3,3.26,8.54,4.56,12.91,.34,1.15-.2,3.24-1.08,3.88-.88,.63-2.73,.16-4.07-.16-.89-.22-1.91-.85-2.42-1.6-2.29-3.39-4.73-6.74-6.53-10.39-1.99-4.03,.35-7.26,5.06-7.24Z"/>
          <path class="cls-38" d="M26.71,97.26c-.55-2.79-1.57-5.58-1.55-8.37,.05-7.1,.48-14.19,.94-21.28,.1-1.59,.56-3.43,1.52-4.61,.75-.9,2.55-1.25,3.87-1.22,.55,.01,1.53,1.67,1.5,2.55-.08,2.45-.58,4.89-.93,7.34-1.02,7.16-2,14.33-3.09,21.49-.21,1.38-.89,2.69-1.35,4.03l-.92,.07Z"/>
          <path class="cls-41" d="M289.33,348.9c-.25-4.87-.45-9.5-.75-14.12-.16-2.45-.62-4.89-.67-7.33-.03-1.61,.37-3.24,.72-4.83,.46-2.12,1.62-3.88,4-3.45,2.21,.4,3.06,2.27,3.04,4.49-.03,2.81,.21,5.64-.08,8.41-.42,4.06-1.12,8.09-1.84,12.1-.44,2.46-2.1,3.9-4.42,4.73Z"/>
          <path class="cls-20" d="M279.34,62.25c0,3.56,.03,7.12-.01,10.68-.02,1.34-1.47,2.15-2.42,1.27-3.24-2.99-5.38-6.71-5.94-11.08-.34-2.64,2.38-5.4,4.75-5.43,2.43-.03,4.08,1.8,3.63,4.55Z"/>
          <path class="cls-40" d="M23.95,170.92c-.14,.58-1,1.11-1.65,1.36-.22,.09-1.08-.7-1.18-1.19-.96-4.6-2.88-9.09-1.44-13.97,.59-2.01,1.13-3.96,3.76-3.69,2.74,.28,2.73,2.4,2.72,4.45,0,.5,0,.99,0,1.49"/>
        </g>
      </g>
    </g>
  </g>
</svg>