<?xml version="1.0" encoding="UTF-8"?>
<svg xmlns="http://www.w3.org/2000/svg" viewBox="0 0 1739.95 384.4">
  <defs>
    <style>
      .cls-1 {
        fill: #f4a757;
      }

      .cls-2 {
        fill: #aabbda;
      }

      .cls-3 {
        fill: #5c6a4f;
      }

      .cls-4 {
        fill: #ee8ff6;
      }

      .cls-5 {
        fill: #ed8df6;
      }

      .cls-6 {
        fill: #909baf;
      }

      .cls-7 {
        fill: #67785a;
      }

      .cls-8 {
        fill: #e8871f;
      }

      .cls-9 {
        fill: #f4a857;
      }

      .cls-10 {
        fill: #abbbdb;
      }

      .cls-11 {
        fill: #b698f7;
      }

      .cls-12 {
        fill: #414a37;
      }

      .cls-13 {
        fill: #b495f6;
      }

      .cls-14 {
        fill: #da1ce9;
      }

      .cls-15 {
        fill: #6832d5;
      }
    </style>
  </defs>
  <g id="_лой_1" data-name="Слой 1"/>
  <g id="_лой_2" data-name="Слой 2">
    <g id="_лой_1-2" data-name="Слой 1">
      <g>
        <g>
          <path class="cls-14" d="M292.56,244.55c0-11.23,1.23-22.34,1.52-33.54-1.13-.79-2-2.02-2.22-3.68-1-7.69-4.96-15.24-7.88-22.41-.69-1.69-.41-3.1,.41-4.13-16.06-24.13-40.07-36.11-67.23-43.21-17.12-4.48-33.26-2.55-48.4,7-3.63,2.29-7.7,3.98-11.69,5.61-13.22,5.42-26.27,11.63-40.97,11.37-1.97,2.68-6.33,3.55-8.19-.24-3.98-8.1-7.21-15.5-8.07-24.6-.79-8.29-2.12-18.04,.04-26.2,.36-1.34,1.08-2.27,1.99-2.84,1.32-7.61,4.33-14.51,9.32-20.88,3.23-4.13,6.06-8.06,11.11-10.02,2.7-1.05,5.5-1.46,8.31-2.1,2.87-.65,4.98-1.91,7.48-3.41,3.13-1.88,6.09,.07,7.08,2.71,8.35,2.32,17.03,2.51,25.37,5.02,8.45,2.55,17.04,2.71,25.73,1.55,12.93-1.72,29.01-2.22,41.13,3.44,5.82,2.72,9.48,7.84,12.07,13.56,2.39,5.27,3.61,11.1,6.08,16.27,2.46,5.16,11.47,9.42,17.09,8.47,6.71-1.14,11.56-6.31,14.76-11.91,3.4-5.96,6.03-12.2,5.56-19.17-.51-7.56-2.91-14.82-2.84-22.46,0-.71,.14-1.34,.37-1.89-2-6.33-4.34-12.54-6.15-18.92-1.99-7.03-6.36-11.5-11.74-16.17-4.72-4.1-8.64-9.15-13.25-13.43-.55-.52-.93-1.09-1.17-1.69-1.92-.5-3.04-2.06-3.36-3.79-.91-.49-1.83-.97-2.78-1.44-13.17-6.4-27.18-9.79-41.75-10.95-4.7,0-9.4,0-14.1,0-8.64,2.42-17.18,5.28-25.94,7.16-12.33,2.64-24.75,5.84-37.24,6.37-10.44,.45-21.05-2.39-31.53-4.13-27.09-4.5-57.3,16.93-62,42.93-2.11,11.7-5.38,22.33-9.28,33.78-3.47,10.21-6.32,20.71-8.37,31.29-3.88,19.96-2.63,39.47,2.98,59.34,3.4,12.03,10.2,20.72,20.34,28.03,24.18,17.43,47.8,20.33,76.19,13.31,17.53-4.33,36.52-9.18,54.66-9.11,6.72,.03,13.95,3.88,18.22,9.64,3.51,4.73,6.67,4.3,12.44,4.38,4.47,.06,8.93,.76,13.39,1.08,4.25-4.21,10.68-1.25,14.92,1.56,5.19,3.44,10.46,8.19,9.8,15.05-.18,1.86-1.16,3.17-2.44,3.95,.61,5.48-.35,11-3.1,16.9-4.71,10.12-9.57,20.18-11.79,31.56-2.5,12.82-11.46,21-24.37,25.29-11.63,3.87-21.7,2.49-31.65-4.33-7.91-5.42-16.93-7.37-26.56-7.15-6.13,.14-12.37,.15-18.38-.88-8.92-1.52-17.34-5.99-21.43-14.52-1.58-3.3-3.03-5.19-4.73-8.44-4.99-9.55-11.1-18.4-21.73-21.17-16.63-4.33-33.24-6.33-49.87,.84-14.28,6.17-24.08,15.74-27.11,31.42-.2,1.05,.55,1.95,.08,2.94,0,5.67,1.4,11.15,1.4,16.82,.72,1.79,.69,3.77,1.23,5.61,5.32,18.1,14.06,27.04,32.41,33.2,8.99,3.02,18.37,6.79,27.2,10.25,14.07,5.52,26.19,7.71,41.38,5.52,7.2-1.04,17-.47,24.18,1.05,18.5,3.93,36.55,2.98,55.18,1.84,10.11-.62,17.56-.77,27.59-2.1,8.15-1.09,16.57-1.56,24.18-4.47,11.3-4.32,21.48-14.27,35.47-16.55,11.35-6,19.39-9.16,20.23-22.86,1.13-18.37,2.91-37.25,3.58-55.84-2.76-2.76-3.16-6.78-3.19-10.53-.05-4.97,.05-9.95,.05-14.92ZM230.57,27.32c.91-1.45,3.04-2.14,3.98-2.73,9.04,1.43,15.32,5.6,19.56,12.35,1.02,1.62,.75,5.14-.4,6.72-.95,1.31-4.77,2.14-6.09,1.28-5.92-3.83-11.51-8.21-16.92-12.74-.88-.73-.89-3.67-.14-4.87Zm-130.12,10.42c.33-1.59,2.48-3.97,3.85-3.97,3.61,0,7.23,1.11,11.42,1.88-2.56,5.4-8.5,8.2-12.32,6.33-1.43-.7-3.19-3.03-2.95-4.24Zm-34.21,131.24c-.75,.45-1.51,.89-2.26,1.34-1.99-1.1-4.56-1.74-5.88-3.37-5.2-6.43-6.15-14.1-4.82-21.99,.66-3.9,3.35-6.04,7.59-5.41,4.14,.62,5.3,3.64,5.35,7.21,.1,7.41,.03,14.82,.03,22.23Zm12.29,135.86c-4.88-1.41-9.77-2.95-14.38-5.03-4.36-1.97-8.32-4.83-12.57-7.07-3.67-1.93-7.28-3.74-6.27-8.85,.77-3.91,4.74-6.4,10.65-7.54,4.4,2.41,9.13,4.37,13.12,7.33,5.84,4.33,11.49,9.08,13.33,16.76,.83,3.47-.05,5.51-3.87,4.41Zm166.11-101.47c-3.28-2.23-6.36-4.79-9.41-7.34-2.94-2.46-3.99-6.03-1.42-8.72,1.65-1.73,5.96-3.09,7.77-2.13,9.21,4.87,16.23,11.98,18.6,22.66,.14,.63,.07,1.33,0,1.99-.06,.48-.28,.93-.87,2.8-5.28-3.31-10.07-6.13-14.66-9.25Zm14.14,114.63c-.73,1.82-2.77,3.35-4.55,4.47-3.67,2.31-6.95,.79-6.92-3.5,.07-9.14,.35-18.3,1.22-27.39,.53-5.57,5.1-8.62,10.21-8,4.37,.53,7.48,4.81,8.68,10.7-2.84,7.92-5.51,15.91-8.63,23.71Z"/>
          <path class="cls-8" d="M997.41,159.22c-1.87-3.05-3.41-6.3-4.98-9.53-2.44,.74-5.59-.04-6.84-3.04-5.21-12.46-7-25.74-5.34-39.14,1.24-10,2.9-20.03,2.36-30-4.82-12.79-11.11-24.74-23.93-31.41-10.02-5.22-20.41-9.77-30.8-14.25-4.35-1.87-7.72-4.28-9.88-8.57-4.3-8.54-11.74-12.92-20.8-14.83-6.35-1.34-12.7-2.87-19.13-3.54-9.57-.99-19.22-1.8-28.82-1.73-7.95,.06-15.87,1.62-23.82,2.33-18.58,1.65-36.14,5.92-50.59,18.75-1.69,1.5-3.86,2.85-6.03,3.38-9.61,2.34-16.84,7.95-23.63,14.94-7.82,8.05-13.46,17.02-15.02,28.11-2.42,17.17-8.24,32.89-18.74,46.74-3.42,4.51-7.17,8.76-10.7,13.19-7.92,9.94-15.69,19.85-16.34,33.47-.31,6.58-1.71,13.11-2.73,19.64-.97,6.23-2.4,12.22-3.42,18.88,1.68,.66,3.07,2.12,3.27,4.38,.73,8.27,.83,16.69,1.29,25.05,.17,.24,.34,.51,.48,.81,6.03,12.62,9.64,25.58,8.74,39.66-.06,.89-.35,1.7-.8,2.4,.52,2.39,1,4.78,1.39,7.19,1.1,6.84,3.09,13.04,6.02,18.72,1.87-.39,3.95,.13,5.32,2.1,5.27,7.55,12.26,13.77,17.7,21.25,5.69,7.83,13.77,12.4,22.1,17.08,7.53,4.23,15.35,8.15,23.43,11.23,6.5,2.48,13.43,3.92,18.17,9.44,5.52,6.42,9.18,13.42,18.04,15.67,7.45,1.89,15.45,.76,23.06,1.23,6.97,.43,14.64,1.57,21.48-.3,6.71-1.83,12.56-6.12,19.26-8.11,5.87-1.75,11.95-1.95,18.02-2.12,.46-1.89,2-3.52,4.66-3.72,9.06-.68,17.58-5.22,26.8-3.82,4.42,.67,8.67,2.42,13.14,2.77,4.51,.36,9.16-.27,13.55-1.28,4.09-.94,7.99-2.37,11.97-3.66,3.7-1.2,7.77-1.99,11.04-4.21,5.93-4.03,7.95-11.8,13.51-16.37,.02-.02,.05-.03,.07-.05-.18-2.34,.09-4.73,.61-7.12-.29-1.62,.08-3.4,1.27-4.69,1.34-4.23,3.05-8.41,3.98-12.29,.15-.63,.33-1.25,.51-1.87,.15-2.18,.26-4.36,.5-6.52,.28-2.57,1.95-4.11,3.85-4.62,.52-1.21,1.02-2.43,1.5-3.67,2.13-5.58,3.49-11.36,4.34-17.27,1.74-12.08,6.72-23.15,9.94-34.84,3.46-12.55,4.14-25.8,4.19-38.76,0-1.81,.8-3.11,1.94-3.91-2.17-14.98-6.73-29.44-15.17-43.16Zm-198.09,75.72c-.91,4.01-3.56,4.92-6.12,1.78-5.38-6.59-8.31-14.4-8.8-22.83-.21-3.66,2.02-6.77,6.16-7.24,4.16-.47,6.68,2.12,7.58,5.74,1.19,4.79,1.72,9.74,2.48,14.27-.46,3.07-.71,5.71-1.29,8.28Zm1.17-69.41c-2.56,3.03-6.74,4.33-10.95,2.19-4.09-2.07-5.22-5.74-5.41-11.7,1.06-2.14,2.13-6.26,4.68-9.02,5.85-6.33,12.31-12.33,20.97-14.52,2.83-.72,6.81-.27,9.03,1.34,1.23,.89,.94,5.98-.43,7.99-5.55,8.19-11.5,16.16-17.89,23.71Zm88.23,56.01c-.4,1.28-.99,2.35-1.72,3.26-.6,2.94-2.12,5.62-4.24,8.07-9.17,10.63-20.01,18.22-34.71,17.68-3.77-.14-7.92-1.46-11.11-3.48-4.91-3.1-10.91-4.73-14.3-10.08-1.18-.73-2.33-1.64-3.45-2.77-4.61-4.67-7.32-10.59-6.92-17.14,.54-8.88,2.73-17.64,1.11-26.54-.33-1.84,.25-3.37,1.28-4.46-1.71-.62-3.06-2.12-3.03-4.49,.08-7.39,4.32-16.17,8.99-21.81,4.76-5.75,11.75-7.94,18.75-9.62,13.27-3.17,30.52-4.85,40.44,6.6,3.78,4.37-1.57,10.56-5.76,8.17,0,.07,.01,.13,.01,.19,.15,5.24,.76,10.32,1.81,15.29,1.36,.1,2.64,.87,3.4,2.59,3.12,6.96,4.05,14.3,6.12,21.56,1.52,5.34,5.1,11.26,3.32,16.98Zm43.2-134.64c-9.21-7.21-18.17-14.28-27.2-21.28-3.69-2.86-4.74-6.69-2.9-10.6,1.83-3.88,6.1-4.2,9.65-3.23,3.4,.92,6.78,2.7,9.61,4.84,6.72,5.09,11.96,11.45,14.53,19.7,1.26,4.06,.64,7.49-3.69,10.57Zm41.97,145.6c-2.18,4.21-5.92,7.66-9.22,11.22-.58,.62-2.59,.56-3.54,.05-2.83-1.51-4.06-8.51-2.62-13.41,1.14-3.89,5.01-6.85,8.83-6.76,4.41,.11,8.57,5.01,6.56,8.9Zm1.41-40.34c-5.41,1.51-8.58-3.63-10.31-7.7-4.34-10.19-8.17-20.64-11.49-31.2-1.79-5.69,1.64-12.18,5.83-13.53,5.26-1.69,10.66,.62,12.91,7.28,3.64,10.76,6.19,21.89,9.2,32.87-1.66,4.86-.7,10.77-6.14,12.28Z"/>
          <path class="cls-6" d="M1380.27,104.68c-.12-7.17-1.47-14.14-2.56-21.21-.85-5.55-.92-11.07-1.52-16.62-.6-5.51-4.93-9.5-8.19-13.67-3.23-4.12-6.06-8.31-7.51-13.39-.3-1.04-.27-1.98-.01-2.8-9.96-8.56-19.76-17.37-30.47-24.86-6.72-4.69-15.29-8.42-23.35-9.19-1.54-.15-3.07-.28-4.61-.41-.78,1.21-2.11,2.05-4,2.03-8.04-.12-15.97-1.86-23.9-3.19-10.29,.06-20.54,.71-30.72,2.16-.79,.32-1.56,.42-2.28,.34-10.78,1.66-21.49,4.23-32.11,7.95-16.52,5.79-33.65,7.31-51.03,2.14-5.08-1.51-10.89-1.32-16.27-.81-5.37,.51-10.12,.36-14.68-2.91-6.98-4.99-14.83-5.5-22.27-1.8-12.59,6.27-23.03,15.06-29.61,27.95-4.88,9.55-6.84,19.61-7.77,29.84,2.29,.23,4.41,1.83,4.39,4.8-.06,10.18-1.01,20.3-1.73,30.45-.7,9.84-.56,19.67-1,29.52-.42,9.48-1.32,18.94-2.82,28.31-.43,2.71-.98,5.42-1.54,8.13-.41,5.24-1.17,10.45-2.57,15.62-.08,1.11-.12,2.23-.14,3.35,1.18,1.08,1.81,2.72,1.21,4.74-3.68,12.44-2.01,25.16-1.92,37.91,.02,2.51-1.49,4.03-3.33,4.59,0,.14-.02,.27-.02,.41-.85,13.94-2.32,27.87-2.55,41.82-.11,6.83,.6,14.22,3.16,20.43,.44,.25,.88,.59,1.28,1.04,6.29,6.9,3.63,20.64,3.54,29.08-.15,13.89,6.94,24.95,12.37,37.34,1.32,3.01,2.32,5.43,5.45,6.74,3.06,1.28,6.5,1.96,9.73,2.63,7.96,1.65,16.58-1.93,24.48-3.29,10.44-1.8,30.75-4.2,30.84-18.17,.02-2.4,1.41-3.9,3.16-4.51-2.18-8.94-1.63-17.59-.8-26.78,.88-9.78-.71-19.5,.98-29.25,.29-1.65,1.15-2.68,2.25-3.2-.06-2.01-.14-4.03-.27-6.04-1.13-.51-2.11-1.42-2.68-2.82-2.27-5.54-2.78-11.68-2.85-17.62-.06-5-.29-10.49,1.62-15.19,3.91-9.65,14.27-15.83,24.55-13.98,2.15,.39,3.75,2.83,3.72,5.07,.08,.03,.16,.06,.23,.08,1.54,.4,3.11,.66,4.66,1.01,3.5,.78,6.06,1.95,8.75,4.38,4.08,3.68,7.1,8.35,10.29,12.78,3.21,4.46,7.19,8.48,9.7,13.42,2.18,4.29,2.66,9.09,5.03,13.3,2.38,4.22,5.02,8.31,7.62,12.39,5.52,8.66,11.21,17.24,15.97,26.35,4.18,8.01,6.41,16.49,9.95,24.7,3.59,8.32,13.05,13.09,20.89,16.7,17.93,8.24,40.79,13.29,60.26,8.42,7.55-1.89,16.01-6.35,20.55-12.89,4.88-7.03-.02-17.51-2.63-24.6-.92-2.51,.19-4.42,1.97-5.37-4.74-9.73-9.52-19.5-15.65-28.29-13.02-18.68-27.45-36.39-41.25-54.53-7.1-3.72-7.91-14.48-6.25-21.59,2.3-9.89,13.49-16.68,21.18-22.26,4.2-3.04,9.33-6.13,11.89-10.81,3.01-5.51,2.55-12.28,5.39-17.95,4.43-8.82,13.15-18.74,23.4-20.19,1.11-.16,2.1,.02,2.96,.41,.13-.53,.35-1.07,.71-1.62,3.56-5.43,8.94-7.25,13.75-11.17,4.7-3.84,7.99-10.32,11.02-15.5,3.01-5.15,4.54-10.75,5.3-16.53-.78-.79-1.29-1.9-1.31-3.33Zm-269.31,139.46c1.95-.44,4.72,.02,6.28,1.21,3.74,2.85,5.18,12.78,2.5,16.55-.65,.92-4.01,1.35-4.35,.83-2.88-4.35-5.35-8.97-8.22-13.97,1.5-1.94,2.41-4.31,3.79-4.62Zm9.06,67.8c-4.51-2.96-7.45-13.91-5.05-17.19,.79-1.08,3.02-2.17,4.03-1.79,1.35,.52,3.11,2.52,3.04,3.78-.3,4.95-1.25,9.86-2.01,15.2Zm36.37-250.05c-1.15,.86-4.35,.26-5.81-.82-5.85-4.33-11.76-8.73-16.83-13.9-1.86-1.89-2.44-6.23-1.77-9.01,.46-1.89,4.11-3,6.71-4.7,3.31,1.87,6.45,2.91,8.56,4.99,4.97,4.91,9.53,10.33,10.53,17.6,.27,1.94-.14,4.9-1.39,5.84Zm93.31,88.09c-4.8,3.55-10.38,5.27-16.18,6.45-9.74,1.98-22.34,4.55-32.03,1.18-10.8-3.75-13.21-15.5-15.72-25.32-2.38-9.31-6.19-22.44,2.39-29.59,.88-.74,1.83-1.11,2.78-1.21,1.4-1.64,2.51-3.65,4.19-5.01,2.56-2.07,5.58-3.09,8.72-3.88,7.6-1.9,15.85-3.46,23.67-4.1,2.5-.21,5.1-.2,7.72-.21,.32-1.01,1.02-1.94,2.2-2.62,2.1-1.23,4.42-1.58,6.64-2.47,2.53-1.01,4.85-2.38,7.56-2.9,2.34-.44,4.72,.44,5.78,2.54,.82-.23,1.71-.4,2.76-.47,2.83-.19,5.85,.02,8.52,.99,2.8,1.02,4.96,4.49,2.99,7.34-3.32,4.82-2.98,8.21-2.16,13.74,.81,5.45,1.01,10.86-.4,16.25-1.16,4.45-3.2,8.37-6.58,11.38,.74,1.35,.82,2.99-.32,4.53-3.66,4.94-7.57,9.68-12.54,13.36Zm23.51,131.24c-3.04-2.73-6.3-4.85-8.45-7.78-3.89-5.3-7.5-10.89-10.38-16.78-.85-1.74,.38-6.06,1.97-7.03,1.81-1.1,6.52-.74,7.5,.69,5.89,8.6,10.34,17.97,11.06,28.65,.02,.36-.55,.76-1.7,2.25Zm-9.18-203.74c-5.47,.08-9.26-3.67-8.75-7.95,.48-4.06,5.48-6.68,10.59-5.56,8.57,1.89,12.71,5.49,13.8,12.21-5.22,.46-10.42,1.22-15.63,1.31Zm25.62,213.21c5.6,6.65,7.99,14.64,8.44,23.24,.03,.51-.56,1.05-1.88,3.35-.68-1.72-.92-2.71-1.42-3.54-3.74-6.23-7.72-12.31-11.14-18.7-.82-1.53,.21-4.05,.4-6.11,1.91,.55,4.54,.49,5.6,1.76Zm23.87-152.24c-1.12-.13-3.12-2.29-2.92-2.77,1.88-4.52,3.86-9.08,6.49-13.18,.79-1.22,4.08-1.91,5.6-1.3,1.77,.71,2.86,3.12,3.55,3.94,.07,6.48-7.65,13.89-12.73,13.3Zm14.63-73.76c-.98,.66-4.11-.65-5.41-1.94-5.73-5.68-11.43-11.43-16.55-17.65-2.73-3.3-3.57-7.64,.31-11.18,3.29-3.01,8.06-3.26,11.67,.44,6.56,6.7,11.25,14.62,12.52,25.33-.58,1.29-1.01,3.98-2.54,5.01Zm15.97,6.31c-.51,5.54-1.62,11.06-2.91,16.48-.44,1.87-2.18,3.43-3.32,5.14l-1.67-.4c-1.3-6.94-2.85-13.85-3.82-20.84-.63-4.55,2.06-7.78,5.71-7.76,4.9,.03,6.38,3.49,6.02,7.39Z"/>
          <path class="cls-15" d="M1738.08,78.77c-3.61-12.87-11.44-24.05-19.55-30.1-11.76-8.77-25.7-11.61-39.6-14.04-13.91-2.44-28.33-2.47-41.96-5.83-16.56-4.08-32.48-10.69-48.76-15.94-18.74-6.05-36.49-5.16-53.14,4.93,.1,1.62-.58,3.26-2.4,4.32-3.75,2.18-7.21,4.7-11.32,6.2-2.64,.96-5.46,1.36-8.21,1.93-.55,.18-1.09,.36-1.64,.51-11.47,3.13-21.83,8.05-31.34,14.89-12.04,8.64-23.94,17.48-35.77,26.4-14.4,10.86-26.11,24.01-34.38,40.23-3.38,6.62-5.86,13.31-7.18,20.2,1.55,5.68,2.44,11.49,2.52,17.42,0,.48-.05,.92-.15,1.33,6.68,14.99-.63,31.85-.73,47.72-.02,2.88-2.03,4.47-4.24,4.77-.49,3.11-.84,6.22-.87,9.33-.15,13.29,.3,26.61,.98,39.89,1.04,4.48,2.58,8.83,3.37,13.38,1.59,9.1,1.86,18.34,.82,27.51,1.55,4.68,3.11,9.22,4.11,14.11,1.01,4.96,3.75,8.76,7.6,12.01,6.72,5.67,14.83,8.75,19.96,16.26,.45,.66,.71,1.32,.82,1.96,7.8,1.32,16.26,1.17,23.76,3.66,6.41,2.13,13.18,4.71,19.04,8.09,5.93,3.42,10,8.4,16.74,10.34,7.15,2.05,14.46,5.34,21.87,6.24,1.99,.24,3.36,1.41,4.1,2.86,5.26,.04,10.38,1.59,15.73,2.22,7.48,.89,15.09,1.19,22.62,1.03,15.1-.33,29.9-4.03,45.02-4.18,1.18-.01,2.13,.31,2.88,.85,6.06-2.77,12.33-4.12,18.92-5.14,7.58-1.17,14.9-2.91,22.58-3.4,3.73-.24,7.64-.34,11.31-1.08,3.76-.77,6.35-3.16,9.65-4.89,2.82-1.48,6.05-2.17,8.73-3.9,2.97-1.92,5.33-4.89,7.02-7.95,1.28-2.32,3.5-2.83,5.44-2.23,1.21-2.46,2.33-4.39,2.95-7.19,.66-3,1.55-5.94,2.14-8.95,1.2-6.14,1.29-14.04,.13-20.2-.49-2.62,.89-4.61,2.75-5.59-3.5-8.15-10.56-13.54-22.07-16.14-1.78-.4-3.61-1.09-5.38-.99-13.4,.74-26.86,1.08-40.17,2.64-13.34,1.57-26.45,5.04-39.79,6.57-37.49,4.28-71.82-5.93-104.14-24.21-1.85-1.05-3.49-3.09-4.41-5.05-2.21-4.72-3.6-9.84-5.96-14.47-.21-.4-.39-.79-.56-1.17-4.12-1.45-4.47-6.61-3.38-10.37,1.54-5.29,4.85-6.59,9.38-8.94,5.5-2.84,5.57-10.2,7.33-15.5,1.09-3.28,2.31-6.7,3.64-9.89,1.2-2.88,3.49-4.87,4.98-7.56,1.14-2.04,2.99-2.67,4.75-2.39,1.06-1.27,2.74-1.94,4.84-1.22,4.06,1.4,7.63,3.22,10.98,5.92,3.37,2.73,6.65,4.39,10.68,6.07,3.42,1.43,6.81,2.94,10.24,4.36,4.06,1.68,8.43,1.72,12.52,3.22,1.61,.59,2.59,1.72,3.06,3.02,4.25,.13,8.5,.25,12.75,.62,5.85,.5,11.57,1.11,17.46,.92,5.7-.18,11.33-.5,17.02,.11,.58-.78,1.48-1.39,2.76-1.65,5.58-1.1,10.7-4.14,16.14-5.83,4.91-1.53,8.67-4.82,13.12-7.24,5.09-2.77,10.83-3.93,16.05-6.39,4.32-2.03,7.67-5.35,12.09-7.18-1.89-13.39,15.11-11.17,23.22-14.68,5.95-2.57,10.28-7.77,15.22-11.76,4.95-4,9.05-8.35,13.36-13.03,1.25-1.35,2.71-1.74,4.07-1.5,.92-4.3,.87-8.8,1.8-13.11,1.15-5.3,4.66-9.64,5.84-14.84,1.32-5.85,3.48-11.31,5.34-17.01,1.25-3.85,4.11-10.33,1.62-14.1-2.2-3.33,.26-6.5,3.3-7.19Zm-64.24,241.02c-.68,2.27-3.55,3.88-4.77,5.1-5.13-.58-8.48-1.42-8.74-5.66-.21-3.42,1.5-5.67,5.34-5.7,4.12-.03,9.06,3.29,8.16,6.27Zm-48.42-15.99c11.29-3.75,22.87-5.75,34.73-3.13,2.32,.51,4.36,2.25,6.53,3.42-.14,.68-.27,1.36-.41,2.04-4.33,1.48-8.58,3.33-13.02,4.37-8.38,1.97-16.84,3.59-25.32,5.11-3.41,.61-6.52-.6-7.47-4.24-1.05-4.01,1.71-6.49,4.95-7.57Zm-95.59,4.06c.53-4.62,3.91-6.18,8.8-7.47,4.73,2.51,9.62,4.79,14.14,7.64,2.19,1.38,2.32,4.27-.55,4.97-5.33,1.31-10.85,2.47-16.29,2.46-3.99,0-6.59-3.29-6.1-7.61Zm-31.62-229.74c-5.23,4.99-10.86,9.69-16.91,13.62-1.77,1.15-6.52,.3-7.98-1.34-1.84-2.07-2.89-6.19-2.22-8.91,1.86-7.49,12.44-13.92,21.75-14.7,2.34,1.33,5.66,2.15,6.72,4.15,.92,1.75,.15,5.75-1.36,7.19Zm43.45-35.21c1.25-1.64,3.18-3.53,5.03-3.82,9.14-1.41,18.33-2.57,27.55-3.22,2.33-.16,4.82,1.86,7.24,2.89-.05,.54-.1,1.08-.15,1.61-2.6,1.32-5.09,3-7.83,3.91-7.57,2.51-15.23,4.76-22.9,6.97-1.56,.45-3.32,.48-4.95,.31-4.84-.5-6.9-4.82-3.99-8.64Zm105.87,81.04c-.61,1.4-1.89,2.41-3.98,3.15-12.73,4.51-24.08,11.42-33.68,20.88-12.61,12.41-27.89,16.89-45.14,16.2-11.79-.16-23.17-2.15-33.71-7.31-1.09,1.04-2.62,1.65-4.47,1.34-5.34-.91-7.2-6.95-7.97-11.54-.97-5.72-1.74-11.85-2.12-17.62-.49-7.46,3.48-10.82,7.28-16.53,3.6-5.42,5.67-12.41,11.06-16.39,4.91-3.62,11.71-7.36,17.58-9.09,6.84-2.02,15.13-.25,21.87,1.52,7.36,1.94,13.68,6.11,21.24,7.42,8,1.39,16.16,1.76,24.26,2.14,6.78,.32,13.93,.98,19.84,4.64,2.64,1.64,5.08,3.78,6.75,6.42,.66,1.04,1.2,2.15,1.6,3.33,.68,1.98,1.11,2.3-.65,1.71,4.99,1.67,4.12,8.48,.26,9.72Zm61.18-29.7c-1.26,4.72-6.78,5.06-9.09,.77-2.25-4.19-4.05-8.78-5.11-13.41-1.14-4.96,2.93-9.73,9.39-9.93,1.46,1.58,5.32,3.84,5.76,6.64,.82,5.16,.41,10.85-.95,15.93Z"/>
          <path class="cls-7" d="M528.22,.57c5.01-.02,10.02-.04,15.03-.06,2.8,.38,5.59,.92,8.41,1.12,10.53,.77,19.59,4.49,27.15,12.12,2.49,2.51,5.91,4.63,9.29,5.62,23.4,6.87,38.19,23.84,53.51,41.59,12.7,14.71,12.94,29.48,7.27,46.86-7.92,24.27-36.48,32.61-57.11,17.52-13.43-9.82-28.43-14.21-44.18-18.4-10.73-2.85-21.75-8.26-32.06-12.44-11.63-4.72-24.54-.47-31.53,9.99-8.81,13.18-18.36,25.98-22.25,42.13-1.14,4.76-4.34,8.43-7.97,11.74-10.86,9.88-12.72,23.25-15.15,36.7-4.49,24.9,6.32,47.31,18.14,67.92,6.78,11.82,18.7,13.28,30.65,12.01,10.88-1.16,21.59-3.84,32.39-5.83,1.8-.33,3.61-.63,5.43-.74,10.4-.59,19.33-4.25,26.73-11.81,15.1-15.41,33.04-26.37,53.79-32.25,18.28-5.17,31.5,.55,40.8,17.03,5.7,10.11,12.24,19.85,14.23,31.71,1.41,8.38-.81,15.96-3.6,24.07-8.23,23.87-21.63,39.58-45.89,48.39-8.24,2.99-17.95,7.03-25.57,11.43-14.16,8.19-27.49,9.88-43.09,13.27-11.21,2.44-22.15,5.04-33.9,4.2-15.03-1.06-27.36-6.24-41.39-10.91-14.52-4.83-29.33-9.89-43.88-14.58-18.6-6-29.29-15.31-35.47-33.77-1.89-5.64-3.87-12.24-7.36-17.21-7.16-10.21-18.19-18.77-24.93-29.23-2.52-3.91-2.8-9-4.01-13.76-.4-1.57-.24-3.6-.95-5.03-11.71-23.34-14.12-46.19-1.89-69.96,11.58-22.51,16.02-47.19,20.21-71.82,6.7-39.36,25.63-70.62,59.84-92,13-8.13,27.68-9.72,42.35-9.24,15.02,.49,29.49-2.18,44.07-4.69,4.26-.73,8.57-1.17,12.86-1.74Zm-85.46,21.13c-20.76,7.61-35.03,23.48-46.83,41.59-10.84,16.64-15.34,35.47-18.79,54.73-4.13,23.08-9.57,45.77-19.98,67.07-4.84,9.91-9.03,20.14-7.11,31.95,4.13,25.37,12.54,48.74,29.55,68.47,7.71,8.94,15.21,17.78,18.59,29.66,3.55,12.51,12.76,20.45,24.81,24.77,24.52,8.8,49,17.8,73.81,25.73,10.49,3.35,21.66,4.24,32.88,1.17,9.73-2.66,19.83-3.95,29.63-6.38,6.72-1.66,13.42-3.77,19.78-6.5,11.27-4.85,21.93-11.31,33.47-15.31,19.98-6.93,30.18-21.93,36.7-40.52,3.05-8.69,3.43-17.81,.06-26.41-3.26-8.29-7.45-16.23-11.62-24.12-6.64-12.6-15.4-15.26-28.47-12.3-16.59,3.75-31.24,11.81-43.88,23.51-7.89,7.31-15.76,15.1-26.84,17.4-7.11,1.48-14.42,2-21.63,3-12.78,1.77-25.51,4.64-38.33,5.07-11.22,.38-21.73-3.77-28.17-14.08-4.22-6.75-8.32-13.65-11.64-20.87-6.07-13.22-10.61-26.95-9.49-41.84,.5-6.6,1.12-13.21,2.09-19.76,1.82-12.35,5.51-23.85,14.94-32.9,3.05-2.93,6.28-6.62,7.33-10.53,4.63-17.22,15.94-30.54,25.32-44.95,9.66-14.85,25.04-18.3,41.04-11.02,10.09,4.59,20.57,8.58,31.23,11.58,15.31,4.32,30.19,9.04,42.55,19.67,8.51,7.32,18.67,7.56,28.78,4.78,4.3-1.18,8.96-3.62,11.86-6.9,9.97-11.32,11.23-25.21,7.33-38.91-1.78-6.25-7.33-11.65-11.85-16.85-10.99-12.64-23.41-23.51-39.56-29.28-8.54-3.05-16.4-7.14-22.77-13.89-1.98-2.09-4.75-4.04-7.48-4.72-13.06-3.24-26.43-3.16-39.64-1.68-15.59,1.75-31.07,4.53-46.6,6.87"/>
          <path class="cls-4" d="M55.96,276.34c4.4,2.41,9.13,4.37,13.12,7.33,5.84,4.33,11.49,9.08,13.33,16.76,.83,3.47-.05,5.51-3.87,4.41-4.88-1.41-9.77-2.95-14.38-5.03-4.36-1.97-8.32-4.83-12.57-7.07-3.67-1.93-7.28-3.74-6.27-8.85,.77-3.91,4.74-6.4,10.65-7.54Z"/>
          <path class="cls-4" d="M267.42,294.29c-2.84,7.92-5.51,15.91-8.63,23.71-.73,1.82-2.77,3.35-4.55,4.47-3.67,2.31-6.95,.79-6.92-3.5,.07-9.14,.35-18.3,1.22-27.39,.53-5.57,5.1-8.62,10.21-8,4.37,.53,7.48,4.81,8.68,10.7Z"/>
          <path class="cls-5" d="M259.3,212.62c-5.28-3.31-10.07-6.13-14.66-9.25-3.28-2.23-6.36-4.79-9.41-7.34-2.94-2.46-3.99-6.03-1.42-8.72,1.65-1.73,5.96-3.09,7.77-2.13,9.21,4.87,16.23,11.98,18.6,22.66,.14,.63,.07,1.33,0,1.99-.06,.48-.28,.93-.87,2.8Z"/>
          <path class="cls-4" d="M63.98,170.32c-2.39,0-4.56-1.74-5.88-3.37-5.2-6.43-6.15-14.1-4.82-21.99,.66-3.9,3.35-6.04,7.59-5.41,4.14,.62,5.3,3.64,5.35,7.21,.1,7.41,.03,14.82,.03,22.23l-2.26,1.34Z"/>
          <path class="cls-5" d="M234.55,24.59c9.04,1.43,15.32,5.6,19.56,12.35,1.02,1.62,.75,5.14-.4,6.72-.95,1.31-4.77,2.14-6.09,1.28-5.92-3.83-11.51-8.21-16.92-12.74-.88-.73-.89-3.67-.14-4.87,.91-1.45,2.84-2.23,3.98-2.73Z"/>
          <path class="cls-5" d="M115.71,35.65c-2.56,5.4-8.5,8.2-12.32,6.33-1.43-.7-3.19-3.03-2.95-4.24,.33-1.59,2.48-3.97,3.85-3.97,3.61,0,7.23,1.11,11.42,1.88Z"/>
          <path class="cls-9" d="M981.43,179.88c-1.66,4.86-.7,10.77-6.14,12.28-5.41,1.51-8.58-3.63-10.31-7.7-4.34-10.19-8.17-20.64-11.49-31.2-1.79-5.69,1.64-12.18,5.83-13.53,5.26-1.69,10.66,.62,12.91,7.28,3.64,10.76,6.19,21.89,9.2,32.87Z"/>
          <path class="cls-9" d="M784.13,156.03c1.06-2.14,2.13-6.26,4.68-9.02,5.85-6.33,12.31-12.33,20.97-14.52,2.83-.72,6.81-.27,9.03,1.34,1.23,.89,.94,5.98-.43,7.99-5.55,8.19-11.5,16.16-17.89,23.71-2.56,3.03-6.74,4.33-10.95,2.19-4.09-2.07-5.22-5.74-5.41-11.7Z"/>
          <path class="cls-9" d="M931.92,86.9c-9.21-7.21-18.17-14.28-27.2-21.28-3.69-2.86-4.74-6.69-2.9-10.6,1.83-3.88,6.1-4.2,9.65-3.23,3.4,.92,6.78,2.7,9.61,4.84,6.72,5.09,11.96,11.45,14.53,19.7,1.26,4.06,.64,7.49-3.69,10.57Z"/>
          <path class="cls-1" d="M800.61,226.67c-.46,3.07-.71,5.71-1.29,8.28-.91,4.01-3.56,4.92-6.12,1.78-5.38-6.59-8.31-14.4-8.8-22.83-.21-3.66,2.02-6.77,6.16-7.24,4.16-.47,6.68,2.12,7.58,5.74,1.19,4.79,1.72,9.74,2.48,14.27Z"/>
          <path class="cls-1" d="M967.33,223.61c4.41,.11,8.57,5.01,6.56,8.9-2.18,4.21-5.92,7.66-9.22,11.22-.58,.62-2.59,.56-3.54,.05-2.83-1.51-4.06-8.51-2.62-13.41,1.14-3.89,5.01-6.85,8.83-6.76Z"/>
          <path class="cls-10" d="M1330.68,59.68c-.58,1.29-1.01,3.98-2.54,5.01-.98,.66-4.11-.65-5.41-1.94-5.73-5.68-11.43-11.43-16.55-17.65-2.73-3.3-3.57-7.64,.31-11.18,3.29-3.01,8.06-3.26,11.67,.44,6.56,6.7,11.25,14.62,12.52,25.33Z"/>
          <path class="cls-10" d="M1138.68,33.46c3.31,1.87,6.45,2.91,8.56,4.99,4.97,4.91,9.53,10.33,10.53,17.6,.27,1.94-.14,4.9-1.39,5.84-1.15,.86-4.35,.26-5.81-.82-5.85-4.33-11.76-8.73-16.83-13.9-1.86-1.89-2.44-6.23-1.77-9.01,.46-1.89,4.11-3,6.71-4.7Z"/>
          <path class="cls-10" d="M1273.2,281.23c-3.04-2.73-6.3-4.85-8.45-7.78-3.89-5.3-7.5-10.89-10.38-16.78-.85-1.74,.38-6.06,1.97-7.03,1.81-1.1,6.52-.74,7.5,.69,5.89,8.6,10.34,17.97,11.06,28.65,.02,.36-.55,.76-1.7,2.25Z"/>
          <path class="cls-2" d="M1279.65,76.18c-5.22,.46-10.42,1.22-15.63,1.31-5.47,.08-9.26-3.67-8.75-7.95,.48-4.06,5.48-6.68,10.59-5.56,8.57,1.89,12.71,5.49,13.8,12.21Z"/>
          <path class="cls-2" d="M1336.2,92.22c-1.3-6.94-2.85-13.85-3.82-20.84-.63-4.55,2.06-7.78,5.71-7.76,4.9,.03,6.38,3.49,6.02,7.39-.51,5.54-1.62,11.06-2.91,16.48-.44,1.87-2.18,3.43-3.32,5.14l-1.67-.4Z"/>
          <path class="cls-10" d="M1326.24,125.15c.07,6.48-7.65,13.89-12.73,13.3-1.12-.13-3.12-2.29-2.92-2.77,1.88-4.52,3.86-9.08,6.49-13.18,.79-1.22,4.08-1.91,5.6-1.3,1.77,.71,2.86,3.12,3.55,3.94Z"/>
          <path class="cls-2" d="M1107.17,248.76c0-3.14,2.41-4.31,3.79-4.62,1.95-.44,4.72,.02,6.28,1.21,3.74,2.85,5.18,12.78,2.5,16.55-.65,.92-4.01,1.35-4.35,.83-2.88-4.35-5.35-8.97-8.22-13.97Z"/>
          <path class="cls-2" d="M1296.2,317.29c-1.68-1.09-.62-2.05-1.52-3.48-3.74-6.23-7.62-12.37-11.04-18.76-.82-1.53-1.28-4.39,.4-6.11,2.4-.42,4.54,.49,5.6,1.76,5.6,6.65,9.27,15.08,8.44,23.24,.03,.51-.56,1.05-1.88,3.35Z"/>
          <path class="cls-2" d="M1120.01,311.94c-4.51-2.96-7.45-13.91-5.05-17.19,.79-1.08,3.02-2.17,4.03-1.79,1.35,.52,3.11,2.52,3.04,3.78-.3,4.95-1.25,9.86-2.01,15.2Z"/>
          <path class="cls-11" d="M1666.28,306.13c-4.33,1.48-8.58,3.33-13.02,4.37-8.38,1.97-16.84,3.59-25.32,5.11-3.41,.61-6.52-.6-7.47-4.24-1.05-4.01,1.71-6.49,4.95-7.57,11.29-3.75,22.87-5.75,34.73-3.13,2.32,.51,4.36,2.25,6.53,3.42-.14,.68-.27,1.36-.41,2.04Z"/>
          <path class="cls-11" d="M1492.86,66.77c2.34,1.33,5.66,2.15,6.72,4.15,.92,1.75,.15,5.75-1.36,7.19-5.23,4.99-10.86,9.69-16.91,13.62-1.77,1.15-6.52,.3-7.98-1.34-1.84-2.07-2.89-6.19-2.22-8.91,1.86-7.49,12.44-13.92,21.75-14.7Z"/>
          <path class="cls-11" d="M1581.33,40.36c-2.6,1.32-5.09,3-7.83,3.91-7.57,2.51-15.23,4.76-22.9,6.97-1.56,.45-3.32,.48-4.95,.31-4.84-.5-6.9-4.82-3.99-8.64,1.25-1.64,3.18-3.53,5.03-3.82,9.14-1.41,18.33-2.57,27.55-3.22,2.33-.16,4.82,1.86,7.24,2.89-.05,.54-.1,1.08-.15,1.61Z"/>
          <path class="cls-11" d="M1703.89,71.68c1.46,1.58,5.32,3.84,5.76,6.64,.82,5.16,.41,10.85-.95,15.93-1.26,4.72-6.78,5.06-9.09,.77-2.25-4.19-4.05-8.78-5.11-13.41-1.14-4.96,2.93-9.73,9.39-9.93Z"/>
          <path class="cls-11" d="M1538.63,300.39c4.73,2.51,9.62,4.79,14.14,7.64,2.19,1.38,2.32,4.27-.55,4.97-5.33,1.31-10.85,2.47-16.29,2.46-3.99,0-6.59-3.29-6.1-7.61,.53-4.62,3.91-6.18,8.8-7.47Z"/>
          <path class="cls-13" d="M1669.07,324.89c-5.13-.58-8.48-1.42-8.74-5.66-.21-3.42,1.5-5.67,5.34-5.7,4.12-.03,9.06,3.29,8.16,6.27-.68,2.27-3.55,3.88-4.77,5.1Z"/>
          <path class="cls-12" d="M472.8,13.21c15.53-2.34,35.91-3.32,51.5-5.07,13.21-1.48,22.8,.27,35.85,3.51,2.74,.68,9.55,4.03,11.53,6.13,6.37,6.74,13.27,9.2,21.81,12.25,16.15,5.77,27.64,17.38,38.63,30.02,4.52,5.2,10.57,12.18,12.35,18.43,3.91,13.7,1.56,30.09-8.41,41.41-2.89,3.28-9.36,3.24-13.66,4.43-10.12,2.78-20.28,2.54-28.78-4.78-12.36-10.63-27.24-15.36-42.55-19.67-10.66-3.01-21.15-6.99-31.23-11.58-16-7.29-31.38-3.83-41.04,11.02-9.38,14.41-18,27.21-22.62,44.44-1.05,3.91-6.97,8.11-10.03,11.04-9.43,9.05-11.47,21.11-13.29,33.46-.97,6.55-2.04,12.52-2.54,19.13-1.13,14.89,4.58,28.3,10.64,41.52,3.31,7.22,7.34,13.09,11.56,19.84,6.45,10.31,14.93,12.99,26.15,12.61,12.82-.43,23.88-3.74,36.66-5.52,7.21-1,14.44-2.33,21.55-3.81,11.08-2.3,17.47-8.89,25.36-16.2,12.63-11.7,29.66-19.07,46.25-22.82,13.08-2.96,26.47,1.72,33.11,14.32,4.16,7.89,6.85,15.76,10.11,24.04,3.38,8.6,1.87,18.24-1.18,26.93-6.52,18.59-18.12,33.38-38.09,40.3-11.53,4-22.19,10.46-33.47,15.31-6.36,2.73-13.05,4.84-19.78,6.5-9.8,2.43-19.9,3.72-29.63,6.38-11.22,3.07-22.38,2.19-32.88-1.17-24.81-7.93-49.28-16.93-73.81-25.73-12.05-4.32-21.25-12.26-24.81-24.77-3.37-11.88-10.88-20.72-18.59-29.66-17.01-19.73-26.64-42.59-30.76-67.96-1.92-11.81,2.75-22.94,7.59-32.85,10.4-21.31,15.62-43.34,19.75-66.42,3.45-19.26,7.75-39.2,18.59-55.84,11.8-18.12,23.74-35.42,44.49-43.03m177.93,59.24c.35-6.72-1.81-12.62-7.22-16.55-2.18-1.59-6.27-2.61-8.43-1.6-2.14,1-4.31,5-4.08,7.45,.77,8.1,6.23,13.53,12.67,17.92,3.36,2.29,6.4,.83,7.03-3.26,.2-1.29,.03-2.65,.03-3.97Zm-38.67-26.21c-.48-2.67,0-4.91-1.32-6.61-5.62-7.13-12.06-13.41-22.02-13.1-1.89,.06-4.32,1.8-5.37,3.47-.72,1.15-.14,4.26,.97,5.24,7.52,6.66,15.74,11.97,27.74,10.99Zm-169.93,173.27c1.63-10.98,.54-20.13-3.43-28.67-.91-1.96-4.73-3.87-6.96-3.62-3.75,.43-5.56,4.35-4.48,7.64,2.22,6.71,5.16,13.22,8.33,19.55,.96,1.91,3.66,2.94,6.54,5.1Zm15.11-92.96c.6,4.26,.82,7.93,1.69,11.44,.92,3.7,3.52,4.33,6.15,1.5,4.89-5.27,8.36-11.5,7.45-18.81-.32-2.6-3.21-6.12-5.63-6.83-2.03-.6-5.99,1.65-7.44,3.77-1.71,2.5-1.63,6.22-2.22,8.94Zm190.23,140.86c4.1,.09,4.78-2.77,4.1-5.7-1.68-7.13-5.65-12.85-12.78-15.26-2.18-.74-5.88-.11-7.45,1.4-1.42,1.36-1.58,4.94-1.03,7.24,1.08,4.56,12.38,12.23,17.16,12.32Zm9.51,34.44c.59,.35,1.18,.71,1.77,1.06,.64-1.12,1.79-2.23,1.84-3.37,.23-6.33,.43-12.69,0-19-.07-1.09-3.19-1.98-4.9-2.96-1.25,2.25-3.84,4.72-3.51,6.71,.99,5.96,3.12,11.72,4.8,17.57ZM466.6,42.84c-.7-7.7-11.54-14.06-18.14-10.32-1.51,.86-3.27,3.54-2.92,4.86,.44,1.67,2.77,3.69,4.55,3.99,5.32,.89,10.76,1.01,16.52,1.46Z"/>
          <path class="cls-3" d="M617.07,78.6c0,1.33,.17,2.68-.03,3.97-.64,4.09-3.68,5.55-7.03,3.26-6.43-4.39-13.89-8.66-14.66-16.76-.23-2.46,3.64-9.3,5.78-10.3,2.16-1.01,6.54,1.69,8.72,3.28,5.41,3.93,7.58,9.83,7.22,16.55Z"/>
          <path class="cls-3" d="M578.39,52.38c-12,.98-20.22-4.33-27.74-10.99-1.11-.98-1.69-4.08-.97-5.24,1.05-1.67,3.48-3.41,5.37-3.47,9.97-.32,16.89,6,22.51,13.13,1.12,1.42,.35,3.91,.83,6.57Z"/>
          <path class="cls-3" d="M408.57,225.72c-2.97-2.21-5.76-3.25-6.74-5.2-3.27-6.45-6.31-13.09-8.59-19.93-1.12-3.35,.75-7.35,4.62-7.78,2.3-.26,6.24,1.69,7.18,3.69,4.1,8.7,5.21,18.03,3.54,29.22Z"/>
          <path class="cls-3" d="M422.96,133.58c.59-2.76,.53-7.85,2.23-10.38,1.45-2.15,6.15-4.15,8.18-3.54,2.42,.72,5.31,4.3,5.63,6.93,.9,7.42-2.56,13.74-7.45,19.09-2.63,2.87-6.08,2.61-7-1.15-.87-3.56-.98-6.62-1.58-10.95Z"/>
          <path class="cls-3" d="M613.94,273.63c-4.78-.09-16.49-7.57-17.57-12.13-.55-2.3-.34-6.34,1.08-7.71,1.56-1.5,5.66-2.23,7.84-1.5,7.14,2.41,11.08,8.5,12.75,15.63,.69,2.92,0,5.78-4.1,5.7Z"/>
          <path class="cls-3" d="M623.22,308c-1.77-5.84-4.01-11.61-5.04-17.57-.35-1.99,1.4-5.29,3.69-6.71,2.81,0,5.07,1.87,5.15,2.96,.45,6.31,.23,12.67,0,19-.04,1.14-.57,2.52-1.93,3.37-.7,0-1.47-.47-1.87-1.06Z"/>
          <path class="cls-3" d="M466.73,42.91c-5.92-.46-11.51-.59-16.98-1.51-1.83-.31-4.22-2.39-4.67-4.11-.36-1.36,1.45-4.12,3.01-5.01,6.79-3.86,17.92,2.69,18.64,10.63Z"/>
        </g>
        <g>
          <path d="M0,301.29c.59-3.06,1.16-6.12,1.76-9.18,2.56-13.05,10.42-22.01,22.02-27.92,11.74-5.98,24.1-8.46,37.26-6.15,4.91,.86,9.92,1.22,14.76,2.34,12,2.79,20.26,10.27,25.63,21.16,1.54,3.13,3.17,6.21,4.77,9.31,5.62,10.84,15.35,14.6,26.76,15.23,4.65,.26,9.33,.09,13.99,.03,7.68-.1,14.83,1.77,21.51,5.5,3.2,1.78,6.34,3.66,9.56,5.4,5.65,3.05,11.61,3.91,17.87,2.22,2.89-.78,5.85-1.35,8.66-2.35,12.82-4.56,20.61-13.61,23.34-26.86,1.28-6.19,2.74-12.13,6.02-17.76,3.23-5.54,5.67-11.68,7.55-17.83,1.47-4.8,.16-9.91-1.27-14.72-3.09-10.4-8.04-14.02-18.93-14.07-4.83-.02-9.66,.02-14.49-.04-5.96-.07-11.34-1.87-14.92-6.77-4.15-5.69-9.79-6.86-16.24-6.81-17.08,.13-33.85,2.23-50.26,7.09-17.86,5.29-35.83,5.08-53.74,.38-13.45-3.53-25.26-10.26-35.44-19.65-5.06-4.66-8.82-10.43-11.15-16.94-5.75-16.06-7.14-32.62-5.75-49.57,1.56-19.05,7.11-37.11,12.99-55.11,2.23-6.82,4.12-13.59,3.64-20.92-.41-6.28,1.36-12.31,4.64-17.57,9.35-14.99,22.47-25.21,39.83-29.44,10.76-2.63,21.49-1.19,32.17,1,4.88,1,9.82,2.12,14.77,2.32,5.28,.21,10.61-.48,15.9-.98,12.83-1.21,25.24-4.39,37.31-8.75C191.81-.15,203.18-.63,214.99,.62c11.24,1.19,21.8,4.25,32.25,8.25,10.96,4.2,20.37,10.46,28.18,19.18,11.83,13.2,18.76,28.47,19.75,46.27,.19,3.48,.5,6.95,.8,10.43,1.13,13.06-3.92,24.05-11.71,34.01-3.91,5-14.74,8.04-22.02,3.76-5.13-3.02-9.35-6.91-12.31-12.1-2.47-4.33-4.86-8.7-7.28-13.05-1.47-2.65-3.22-5.01-6.05-6.42-1.03-.51-2.01-1.22-2.84-2.02-7.35-6.98-16.46-8.29-25.98-7.73-5.97,.35-11.94,1.15-17.84,2.17-6.14,1.06-11.93,.19-17.64-1.93-2.96-1.1-5.82-2.52-8.83-3.46-16.91-5.26-32.6-2.84-46.62,8.09-2.95,2.3-5.57,5.39-7.44,8.64-9.25,16.11-11.46,33.35-7.45,51.43,1.15,5.16,3.91,9.44,7.4,13.24,.75,.81,2.26,1.29,3.43,1.3,11.12,.08,21.82-1.8,32-6.54,11.91-5.54,24.02-10.63,35.89-16.24,8.89-4.2,18.12-3.92,27.41-2.8,19.63,2.36,37.36,10.25,53.28,21.31,20.51,14.24,33.2,33.84,34.42,59.49,.31,6.44-.63,12.93-.62,19.4,.01,7.63,.41,15.25,.67,22.87,.06,1.66,.33,3.32,.32,4.97-.07,17.12-.13,34.23-.31,51.35-.04,3.31-.49,6.63-1,9.91-.76,4.84-2.74,9.24-5.79,13.08-4.82,6.07-10.64,11.01-17.66,14.39-10.18,4.9-20.43,9.66-30.64,14.49-8.55,4.04-17.44,6.49-27.01,5.97-9.37-.51-18.57,1.11-27.84,2-20.11,1.92-40.21,2.31-60-3.09-6.19-1.69-12.58-1.21-18.86-.46-8.29,.99-16.59,2.28-24.84,.32-6.3-1.5-12.53-3.37-18.65-5.48-9.27-3.21-18.35-6.97-27.64-10.13-17.15-5.84-27.66-17.81-32.96-34.72C1.79,316.99,.98,313.1,0,309.27c0-2.66,0-5.32,0-7.98ZM26.26,147.88c.91,7.4,1.55,14.84,2.79,22.19,1.76,10.44,6.21,19.59,14.49,26.56,15.23,12.81,33.01,18.84,52.74,19.74,9.47,.43,18.49-1.73,27.47-4.34,10.39-3.02,20.84-5.85,31.66-6.79,7.46-.65,14.93-1.16,22.41-1.51,8.02-.38,15.19,1.52,20.41,8.24,1.82,2.34,4.32,3.58,7.34,3.73,3.16,.16,6.3,.48,9.46,.58,3.83,.12,7.7-.22,11.49,.19,7.21,.8,13.83,3.44,17.63,9.91,7.34,12.47,9.96,25.36,3.27,39.33-3.83,8.01-7.35,16.36-8.21,25.42-1.01,10.57-5.94,18.79-14.49,25.06-7.82,5.74-16.59,9.04-25.99,10.96-10.08,2.05-19.53,.78-28.15-5.11-.69-.47-1.45-.82-2.14-1.28-7.93-5.22-16.61-7.25-26.11-6.78-5.46,.27-11.04,.15-16.43-.69-10.41-1.62-19.36-6.04-25.01-15.5-2.22-3.71-4.6-7.33-6.57-11.17-4.94-9.66-12.56-15.63-23.24-17.89-14.14-3-27.97-3.54-41.55,2.74-11.4,5.27-18.08,13.39-20.93,25.94-3.57,15.77,5.8,40.56,25.97,48.55,14.07,5.58,28.37,10.58,42.61,15.71,8,2.88,16.23,2.93,24.64,1.87,7.23-.91,14.54-2.05,21.88-.6,1.46,.29,2.98,.38,4.41,.78,8.23,2.31,16.61,3.47,25.16,3.25,10.65-.28,21.32-.26,31.93-1.05,10.61-.79,21.13-2.86,31.82-1.02,.8,.14,1.66-.06,2.48-.15,9.4-1.12,18.01-4.54,26.31-8.91,4.41-2.32,8.91-4.48,13.33-6.78,5.45-2.83,11.05-5.43,16.24-8.69,6.65-4.18,10.74-10.37,11.81-18.24,.71-5.25,1.37-10.54,1.55-15.83,.31-8.97,.38-17.95,.28-26.92-.07-6.47-.61-12.93-.89-19.39-.34-7.96-.78-15.91-.9-23.88-.07-4.97,.62-9.95,.54-14.92-.4-26.51-12.41-46.27-35.27-59.58-2.88-1.67-5.86-3.16-8.74-4.82-11.53-6.68-23.98-10.64-37.09-12.72-8.26-1.31-16.26-.96-23.86,2.99-2.95,1.53-6.01,2.86-8.99,4.34-13.74,6.78-27.81,12.77-42.47,17.31-5.55,1.72-11.23,1.37-16.84,.69-2.04-.25-4.3-1.17-5.87-2.48-7.08-5.88-12.3-13.02-13.79-22.37-2.16-13.5-1.34-26.79,2.88-39.83,2.52-7.79,5.65-15.26,11.26-21.44,12.96-14.28,29.72-17.57,47.85-15.78,5.83,.58,11.44,3.32,17.2,4.89,3.49,.95,7.1,2.26,10.63,2.16,6.46-.19,12.93-1.12,19.34-2.07,5.33-.79,10.53-.42,15.87-.03,11.73,.85,19.75,7.06,25.85,16.33,3.1,4.71,5.78,9.7,8.42,14.68,2.46,4.64,5.52,8.69,9.84,11.72,4.95,3.47,10.38,3.06,14.28-1.48,5.9-6.86,9.54-14.66,9.6-23.97,.06-10.55-1.5-20.92-4.13-31.02-2.6-9.97-8.81-18.18-15.49-25.89-5.17-5.98-11.38-10.59-18.56-14.07-12.28-5.96-25.22-9.15-38.72-10.86-8.68-1.09-16.9-.09-25.07,2.62-3.95,1.3-7.94,2.47-11.89,3.75-14.85,4.81-30.08,7.65-45.69,6.84-8.26-.43-16.49-2.08-24.64-3.69-8.34-1.65-16.68-1.51-24.78,.31-13.4,3-23.98,10.85-31.56,22.08-5.29,7.84-7.92,16.76-5.67,26.51,.36,1.54,.14,3.34-.23,4.91-1.89,7.9-3.84,15.79-5.94,23.64-4.65,17.37-8.5,34.85-9.25,53.03Z"/>
          <path d="M510.72,376.57c-15.83-.13-30.35-5.84-45.01-10.68-14.84-4.9-29.41-10.63-44.19-15.75-10.98-3.8-20.47-9.47-27.35-19.1-3.63-5.08-6.29-10.59-8.04-16.5-1.89-6.38-5.38-11.59-9.7-16.6-6.28-7.31-12.08-15.04-17.81-22.79-2.25-3.05-3.96-6.54-5.57-9.99-1.04-2.22-2.19-4.8-1.99-7.11,.44-5.15-1.74-9.3-3.75-13.66-4-8.68-6.29-17.87-7.26-27.33-.99-9.61,1-18.85,4.36-27.82,.93-2.49,1.9-4.98,3.1-7.34,11.05-21.76,16.61-45.18,20.35-69.02,3.18-20.29,8.91-39.5,20.1-56.86,9.94-15.4,21.98-28.76,37.73-38.56,10.72-6.68,22.29-10.28,34.91-10.56,8.82-.19,17.68,.17,26.43-.67,9.58-.93,19.06-2.96,28.58-4.51,12.58-2.06,25.17-2.45,37.77-.15,.98,.18,1.97,.32,2.97,.4,6.88,.57,13.01,2.98,17.95,7.82,5.61,5.48,12.18,9,19.64,11.4,8.94,2.88,16.93,7.58,24.14,13.73,9.54,8.13,18.03,17.16,26.02,26.81,9.54,11.52,11.7,24.29,8.59,38.34-.96,4.35-2.17,8.79-4.17,12.73-6.28,12.31-16.68,19.15-30.34,20.88-11.34,1.44-21.97-.42-30.93-8.12-9.09-7.81-19.93-11.88-31.3-14.82-14.03-3.63-27.9-7.68-41.12-13.77-10.55-4.85-20.19-2.4-27.61,6.7-1.67,2.05-3.03,4.36-4.51,6.57-3.33,4.97-6.52,10.04-9.99,14.91-3.13,4.39-5.61,9.06-6.9,14.27-2.26,9.11-6.6,16.99-13.47,23.44-5.83,5.49-8.81,12.48-10.14,20.14-1.39,8.01-2.49,16.07-3.36,24.15-.63,5.82,.21,11.58,1.74,17.26,2.9,10.8,7.28,20.99,12.08,31.06,7.1,14.9,16.45,19.74,35.06,18.37,6.76-.5,13.43-2.25,20.14-3.43,7.53-1.32,15.03-2.88,22.61-3.88,7.06-.93,13.04-3.77,18.29-8.4,5.37-4.73,10.53-9.72,16.13-14.16,4.27-3.39,8.85-6.55,13.7-9.02,7.84-3.99,15.88-7.67,24.09-10.82,6.4-2.46,13.2-3.14,20.15-1.95,8.53,1.46,15.46,5.52,20.03,12.73,4.88,7.71,9.61,15.61,13.42,23.88,6.54,14.21,7.25,28.79,.62,43.4-5.56,12.24-11.99,23.87-23.21,31.87-5.25,3.74-10.96,6.92-16.73,9.83-8.15,4.12-16.86,7.22-24.77,11.74-14.11,8.07-29.36,12.35-45.11,15.47-5.39,1.07-10.74,2.33-16.08,3.58-6.69,1.57-13.45,2.26-20.3,1.89ZM472.85,17.13c-3.66,0-7.33-.02-10.99,0-11.13,.06-21.33,3.18-30.66,9.19-24.91,16.02-40.9,38.71-49.09,66.82-3.15,10.81-4.81,22.05-7.03,33.12-4.05,20.26-9.47,40.05-18.68,58.69-2.05,4.15-3.63,8.57-5.04,12.99-1.67,5.23-2.76,10.62-2.01,16.19,1.1,8.25,2.72,16.37,5.54,24.24,2.29,6.4,4.43,12.86,6.7,19.27,.54,1.53,1.16,3.09,2.04,4.45,7.01,10.92,14.31,21.64,23.2,31.18,4.26,4.57,7.06,9.95,9.13,15.85,1.64,4.67,3.66,9.3,6.2,13.53,5.51,9.15,14.34,13.97,24.12,17.53,12.81,4.67,25.49,9.7,38.25,14.52,3.11,1.18,6.27,2.22,9.45,3.2,5.56,1.71,11.19,3.23,16.73,5.02,8.48,2.73,17.2,3.92,26.05,4.05,3.63,.05,7.33-.34,10.88-1.06,11.58-2.34,23.08-5.02,34.66-7.39,5.76-1.18,11.2-3.11,16.42-5.76,12.6-6.4,25.19-12.85,38.56-17.58,5.24-1.85,9.65-5.08,13.92-8.62,6.65-5.5,10.13-13.06,14.11-20.34,8.42-15.41,7.77-30.93,.15-46.31-2.79-5.64-6.29-10.95-9.64-16.3-5.24-8.36-13.03-11.84-22.62-10.33-16.33,2.57-30.54,10.04-43.39,20.17-5.22,4.12-10.04,8.74-15.2,12.95-6.31,5.14-13.41,8.43-21.67,9.37-7.92,.9-15.79,2.35-23.66,3.63-7.23,1.18-14.4,2.87-21.66,3.6-18.64,1.86-33.12-4.09-41.79-20.55-5.68-10.78-11.15-21.59-14.12-33.4-1.53-6.07-2.55-12.41-2.63-18.65-.1-6.93,1.03-13.88,1.81-20.81,1.57-14.04,5.88-26.86,16.41-37.01,4.27-4.12,6.79-9.38,8.61-14.99,1.08-3.31,1.91-6.86,3.75-9.73,7.09-11.03,13.81-22.42,22.05-32.56,9.65-11.88,23.05-15.17,37.66-7.48,10.69,5.63,22.14,9.07,33.73,12.13,14.41,3.8,28.26,8.54,39.85,18.62,7.59,6.61,16.92,8.16,26.79,5.95,11.04-2.48,18.56-8.93,21.35-19.95,1.42-5.59,2.22-11.43,2.48-17.19,.29-6.44-1.6-12.47-6-17.51-2.84-3.26-5.4-6.77-8.38-9.9-11.32-11.87-23.35-22.87-39.26-28.37-8.67-3-16.35-7.36-22.74-13.96-2.6-2.69-5.81-4.46-9.54-5.11-13.04-2.25-26.1-2.88-39.26-.83-15.1,2.36-29.98,6.73-45.53,5.44Z"/>
          <path d="M1382.74,95.22c-.58,7.27-.93,13.06-1.53,18.83-1.07,10.33-5.51,19.17-13.05,26.22-8.14,7.61-16.63,14.83-24.98,22.22-4.61,4.08-9.38,7.98-13.8,12.25-5.03,4.86-8.42,10.75-8.98,17.88-.4,5.07-3.02,8.65-6.94,11.55-5.22,3.85-10.5,7.64-15.6,11.65-2.73,2.15-5.39,4.49-7.67,7.11-5.13,5.88-5.39,10.74-1,17.18,2.81,4.12,5.92,8.03,8.95,11.99,12,15.73,24.14,31.37,36,47.21,7.2,9.62,12.95,20.1,17.32,31.33,2.79,7.17,3.51,14.42,1.78,21.98-1.85,8.09-6.53,13.29-14.16,16.73-18.03,8.14-36.27,6.9-54.74,2.27-15.76-3.95-28.27-13.04-39.06-24.74-4.22-4.58-6.74-10.25-9.06-15.97-1.74-4.31-3.28-8.71-5.19-12.94-1.64-3.62-3.34-7.29-5.62-10.51-4.17-5.87-7.68-12.05-10.31-18.73-2.54-6.44-6.17-12.12-11.19-16.91-3.31-3.16-5.59-7-7.21-11.24-.89-2.33-1.71-4.68-2.74-6.95-.89-1.96-1.69-4.1-3.09-5.65-6.06-6.73-13.71-11.13-22.45-13.13-5.26-1.2-9.81,1.43-13.12,5.59-4.51,5.67-6.84,12.18-6.23,19.47,.53,6.28,1.18,12.57,2.19,18.78,1.61,9.82,.53,19.53-.36,29.3-.63,6.93-.7,13.91-.84,20.88-.12,5.98,.14,11.97,.04,17.94-.15,9.45-4.45,16.01-13.54,19.44-6.84,2.59-13.55,5.54-20.23,8.53-6.87,3.08-13.62,2.74-20.24-.45-2.04-.98-3.96-1.39-6.2-1.27-7.73,.42-13.95-2.59-18.62-8.72-6.01-7.89-8.73-17.06-10.42-26.64-1.55-8.81-.47-17.58,.58-26.3,.48-3.94,.24-7.59-1.39-11.17-4.82-10.59-5.59-21.67-4.68-33.14,1.13-14.23,1.74-28.51,2.32-42.77,.31-7.62-.24-15.27,.2-22.88,.28-4.92,1.25-9.9,2.62-14.65,3.01-10.46,4.38-21,4.5-31.92,.34-29.24,1.07-58.48,2.02-87.71,.34-10.34,2.83-20.38,7.19-29.86,6.28-13.65,17.21-22.7,30.19-29.34,7.04-3.6,14.68-3.47,21.39,1.24,5.19,3.63,10.52,4.41,16.56,3.18,5.13-1.05,10.38-.7,15.33,.92,17.11,5.59,33.96,3.25,50.57-1.8,11.97-3.63,23.98-6.89,36.32-8.87,4.43-.71,8.94-1.24,13.41-1.24,14.99,0,29.98,.04,44.96,.5,10.07,.31,19.38,3.81,27.37,9.77,12.26,9.14,24.53,18.25,35.25,29.34,8,8.28,12.76,17.78,14.36,28.92,1.27,8.85,1.98,17.79,2.79,25.31Zm-313.87,226.37h.25c0,3.66-.44,7.38,.09,10.95,1.36,9.24,3.55,18.26,9.45,25.9,3.28,4.23,7.56,6.36,12.88,6.53,2,.06,4.05-.05,5.98,.36,5.76,1.24,11.28,.36,16.64-1.71,6.51-2.53,12.91-5.35,19.42-7.89,3.81-1.49,6.02-4.07,6.36-8.13,.35-4.13,.67-8.27,.86-12.41,.46-10.12,.4-20.28,1.39-30.34,.76-7.81,1.27-15.57,.58-23.36-.54-6.11-1.59-12.18-2.34-18.28-1.26-10.34,1.11-19.83,7.21-28.29,6.51-9.02,17.5-12.6,27.83-8.62,5.39,2.08,10.43,5.12,15.51,7.94,5.93,3.29,9.76,8.44,12.11,14.71,.88,2.33,1.61,4.71,2.4,7.08,1.22,3.69,3.08,6.97,6,9.62,5.55,5.03,9.22,11.25,11.88,18.2,1.65,4.33,3.29,8.8,5.77,12.67,6.15,9.58,10.96,19.76,14.75,30.43,3.64,10.25,10.12,18.22,18.92,24.44,2.45,1.73,4.87,3.5,7.41,5.08,11.67,7.25,24.83,9.71,38.16,10.22,8.88,.34,17.81-1.2,26.28-4.9,8.34-3.64,12.51-9.91,10.86-18.83-.63-3.4-1.48-6.91-3.02-9.97-3.59-7.1-7.02-14.42-11.66-20.84-13.14-18.19-26.87-35.97-40.34-53.93-3.39-4.52-6.9-8.99-9.92-13.75-5.55-8.76-5.37-17.65,.71-26.11,2.31-3.21,5-6.28,8.01-8.84,5.2-4.41,10.65-8.54,16.25-12.43,3.53-2.46,5.64-5.43,6.2-9.67,.95-7.19,4.35-13.28,9.35-18.35,3.96-4.01,8.38-7.58,12.68-11.25,11.53-9.82,23.17-19.5,32.66-31.44,2.66-3.35,4.69-6.87,5.07-11.16,.47-5.29,1.25-10.6,1.17-15.88-.18-11.99-1.87-23.82-5.04-35.42-1.44-5.25-4.22-9.57-7.89-13.64-10.37-11.5-23.13-20-35.55-28.94-5.62-4.04-12.06-6.47-18.93-7.33-15.57-1.94-31.23-2.15-46.89-2-3.66,.04-7.42-.06-10.94,.74-10.86,2.46-21.73,5-32.41,8.15-9.46,2.79-18.94,5.17-28.79,5.93-10.04,.77-19.99,.52-29.61-2.96-5.15-1.86-10.37-2.19-15.74-1.14-6.52,1.28-12.59,.18-18.05-3.73-.81-.58-1.68-1.09-2.5-1.65-3.97-2.7-8.22-2.96-12.28-.59-10.96,6.42-20.46,14.24-25.12,26.67-3.42,9.13-5.36,18.56-5.73,28.21-.9,23.41-1.32,46.85-2.15,70.26-.38,10.61-.91,21.25-2.12,31.79-.67,5.88-3.17,11.52-4.26,17.38-1.09,5.84-2.36,11.87-2,17.73,1.29,21-.36,41.86-2.16,62.71-.71,8.27-.17,16.27,2.84,24.01,1.65,4.26,2.48,8.61,2.27,13.14-.2,4.31-.51,8.62-.77,12.93Z"/>
          <path d="M1529.33,370.9c-17.46-2.25-34.1-7.52-49.25-16.81-.85-.52-1.71-1.03-2.54-1.59-11.02-7.47-23.34-11.06-36.48-12.31-4.36-.42-8.34-1.6-11.45-5.2-1.68-1.95-4.19-3.21-6.4-4.66-4.99-3.27-8.7-7.64-11.49-12.87-6.14-11.49-9.1-23.76-9.78-36.73-.65-12.43-1.53-24.86-2.71-37.26-1.54-16.15-1.14-32.15,2.27-48.06,2.2-10.26,3.49-20.64,2.45-31.16-.54-5.44-1.33-10.86-2.1-16.28-1.44-10.18,.44-19.87,4.54-29.14,6.64-15.04,15.45-28.6,28.12-39.39,16.49-14.04,33.76-27.04,52.01-38.73,7.33-4.69,15.14-8.19,23.77-9.99,7.98-1.67,14.62-6.31,21.05-11.05,6.96-5.13,14.55-8.69,23.12-9.97,10.64-1.58,21.23-1.78,31.55,1.97,10.94,3.98,21.91,7.87,32.8,11.98,10.84,4.09,22.14,5.94,33.55,7.35,10.56,1.31,21.19,2.24,31.67,4.03,6.85,1.17,13.59,3.3,20.2,5.52,10.75,3.62,19.41,10.25,25.44,19.89,6.17,9.85,10.4,20.44,10.27,32.31-.08,7.78-1.96,15.21-6,21.84-3.53,5.79-5.81,11.88-6.95,18.51-2.69,15.6-12.49,25.51-26.11,32.44-5.02,2.55-10.03,5.24-14.67,8.41-12.1,8.25-24,16.79-35.96,25.24-11.09,7.83-23.91,11.51-36.69,15.24-9.53,2.78-19.31,3.44-29.19,2.89-9.82-.54-19.56-1.7-29.16-3.92-8.69-2.01-16.66-5.52-24.28-10.13-6.53-3.95-13.46-7.24-20.15-10.93-1.71-.94-2.9-.46-4.55,.29-7.47,3.41-9.66,10.07-11.11,17.24-.4,1.95-.65,3.93-1.01,5.89-.88,4.77-3.27,8.64-6.99,11.74-2.3,1.92-4.65,3.78-6.89,5.77-4.74,4.22-5.19,7.31-1.92,12.65,.87,1.42,2.02,2.69,2.71,4.18,1.1,2.39,2.67,4.9,2.72,7.38,.08,4.57,2.4,7.14,6.1,8.8,13.05,5.83,26.12,11.63,39.26,17.25,3.34,1.43,6.92,2.62,10.49,3.09,10.87,1.43,21.78,2.73,32.71,3.52,6.45,.46,12.98-.11,19.47-.28,8.21-.21,16.06-2.48,24.05-4.06,9.45-1.87,19.04-3.03,28.59-4.39,4.77-.68,9.57-1.21,14.38-1.63,11.05-.97,21.56,1.22,31.53,5.87,5.64,2.63,8.6,7.61,10.38,13.38,3.57,11.61,1.93,23.05-1.67,34.24-1.12,3.48-3.41,6.99-6.1,9.48-10.25,9.51-21.84,16.73-35.92,19.44-11.42,2.19-22.75,4.91-34.14,7.25-3.57,.73-7.24,1.09-10.88,1.41-10.78,.93-21.56,1.81-32.35,2.57-3.31,.23-6.66,.04-9.98,.04m10.21-74.3c-7.95-.65-15.89-1.37-23.85-1.95-14.44-1.04-28.21-4.45-41.21-10.93-8.33-4.15-16.78-8.07-25.17-12.11-1.95-.94-3.89-1.9-5.77-2.96-4.31-2.44-6.76-6.11-7.84-10.98-.63-2.84-2.01-5.53-3.23-8.2-.75-1.65-1.9-3.12-2.77-4.72-3.24-5.96-2.52-11.53,1.97-16.54,2.22-2.47,4.59-4.83,7.09-7.01,3.85-3.36,5.83-7.38,6.14-12.56,.36-5.96,1.38-11.9,4.02-17.38,4.01-8.33,12.53-11.8,21.15-8.72,.62,.22,1.27,.39,1.91,.52,7.76,1.55,14.92,4.49,21.48,8.96,6.51,4.44,13.57,7.78,21.3,9.46,5.03,1.09,10.13,1.93,15.22,2.73,22.96,3.58,44.72-.73,65.64-10.16,3.47-1.56,6.84-3.48,9.96-5.66,11.61-8.08,22.99-16.48,34.67-24.46,4.91-3.35,10.22-6.2,15.57-8.82,11.07-5.42,19.14-13.36,21.57-25.72,1.46-7.43,3.87-14.4,7.32-21.08,5.64-10.95,6.47-22.17,1.83-33.68-.68-1.69-1.26-3.43-2.01-5.1-5.12-11.28-13.26-19.02-25.17-23.36-15.67-5.71-31.95-7.76-48.3-9.77-12.9-1.58-25.63-3.88-37.83-8.65-10.37-4.06-20.94-7.62-31.4-11.46-9.73-3.58-19.62-3.12-29.55-1.25-7.02,1.32-13.01,4.84-18.82,8.83-7.55,5.18-15.22,10.2-24.4,12.15-7.29,1.55-13.72,5.02-19.9,8.98-16.71,10.69-32.43,22.73-47.72,35.33-14.24,11.73-23.87,26.63-30.04,43.85-2.8,7.81-3.19,15.81-2.18,24.05,1.03,8.38,2,16.86,1.85,25.28-.13,7.24-1.63,14.5-2.99,21.67-2.43,12.82-3.18,25.71-2.2,38.68,1.18,15.56,2.56,31.11,3.88,46.66,.98,11.57,4.18,22.53,9.82,32.66,1.56,2.8,4.14,5.14,6.58,7.31,3.08,2.75,6.55,5.08,9.77,7.68,2.15,1.73,4.39,2.61,7.26,2.71,4.97,.17,9.98,.64,14.87,1.52,8.85,1.59,16.49,6.11,23.99,10.76,8.41,5.2,17.32,9.11,26.86,11.79,12.57,3.53,25.47,4.61,38.37,6.13,23.59,2.78,46.91,.63,70.21-2.26,11.52-1.43,22.84-4.44,34.34-6.19,11.94-1.82,22.01-7.2,31.32-14.49,5.08-3.98,8.24-8.92,9.06-15.44,.96-7.63,1.06-15.14-.48-22.76-1.18-5.87-4.24-9.37-9.78-11.42-8.77-3.26-17.77-4.66-26.98-3.45-11.7,1.53-23.43,3.15-34.96,5.61-13.37,2.85-26.6,6.19-40.48,5.96Z"/>
          <path d="M677.89,209.63c.29-11.06,2.1-21.32,4.67-31.51,1.04-4.13,1.49-8.48,1.62-12.74,.22-7.29,1.38-14.26,5.55-20.37,3.83-5.62,7.88-11.09,11.95-16.55,4.37-5.86,9.08-11.47,13.25-17.46,7.63-10.95,12.25-23.14,14.04-36.38,1.83-13.48,7.54-24.71,17.58-34.27,6.34-6.04,12.93-10.68,21.33-13.05,2.62-.74,5.2-2.32,7.31-4.1,12.4-10.48,26.88-15.63,42.83-17.3,10.92-1.15,21.8-2.76,32.74-3.52,5.92-.41,11.99,.15,17.91,.92,9.39,1.23,18.74,2.85,28.05,4.61,9.28,1.76,16.79,6.32,21.16,15.03,2.06,4.11,5.36,6.41,9.54,8.21,10.52,4.56,20.97,9.33,31.22,14.47,3.63,1.82,7.08,4.52,9.79,7.55,9.19,10.26,14.94,22.23,17.01,35.95,.82,5.4,.08,10.57-.84,15.82-.6,3.43-1.06,6.88-1.49,10.34-1.08,8.69,.74,16.85,4.67,24.59,3.61,7.11,6.92,14.4,11.01,21.22,8.65,14.46,12.52,30.25,14.4,46.74,1.65,14.47,1.17,28.9-1.21,43.19-1.11,6.66-3.22,13.21-5.5,19.6-6.69,18.74-15.16,36.87-19.11,56.54-1.29,6.42-4.03,12.26-7.07,18.02-5.76,10.88-14.6,17.75-26.35,21.39-13.07,4.05-26.12,4.64-39.39,1.29-3.22-.81-6.55-1.16-9.8-1.84-6.1-1.27-11.85-.07-17.61,1.96-12.07,4.25-24.08,8.76-36.38,12.23-7.94,2.24-16.31,3.34-24.57,4.01-11.15,.9-21.84-1.84-31.97-6.46-5.53-2.52-10.09-6.35-13.7-11.32-1.23-1.69-2.86-3.31-4.68-4.3-6.12-3.33-12.17-7.03-18.69-9.36-12.61-4.5-23.06-11.59-31.41-22.05-3.09-3.87-6.99-7.1-10.5-10.64-3.39-3.43-6.81-6.83-10.09-10.36-7.03-7.55-10.71-16.59-12.31-26.73-1.37-8.67-3.12-17.3-5.15-25.84-1.34-5.63-3.53-11.07-5.24-16.62-3.16-10.25-3.88-20.86-4.58-30.92Zm325.13,10.01c-.29-4.27-.48-10.43-1.18-16.52-1.43-12.44-4.06-24.51-10.6-35.52-4.24-7.13-8.02-14.57-11.57-22.07-5.29-11.15-8.13-22.76-6.03-35.29,.84-5.04,1.35-10.3,.88-15.36-1.13-12.21-5.93-23.13-13.84-32.52-2.09-2.49-4.73-4.85-7.61-6.28-10.12-5.04-20.33-9.96-30.76-14.31-6.44-2.69-11.59-6.34-14.88-12.54-3.02-5.69-8.02-8.9-14.18-10.05-11.45-2.13-22.94-4.06-34.44-5.85-2.93-.45-6-.29-8.98-.02-9.44,.84-18.86,2.01-28.31,2.79-14.45,1.18-27.77,5.22-39.21,14.44-4.21,3.39-8.85,5.87-14.21,6.94-2.7,.54-4.89,1.86-6.61,4.12-3.82,5.03-7.81,9.94-11.7,14.92-3.55,4.53-5.75,9.65-6.9,15.3-1.56,7.64-2.79,15.41-5.19,22.79-5.36,16.5-14.29,31.05-26.14,43.75-7.35,7.88-13.63,16.3-15.83,27.19-.65,3.24-1.86,6.37-2.89,9.53-7.07,21.69-7.02,43.4-.36,65.19,2.62,8.57,5.21,17.16,7.36,25.85,1.71,6.92,2.53,14.06,4.19,20.99,.71,2.98,2.22,5.91,3.94,8.48,4,5.96,8.96,11.09,14.47,15.75,4.17,3.53,8.53,7.12,11.71,11.47,7.02,9.61,15.97,16.32,26.99,20.55,8.16,3.13,15.25,8.06,22.17,13.31,2.75,2.09,5.77,4.01,8.95,5.34,9.93,4.12,20.32,6.21,31.11,6.47,19.11,.45,37.34-3.84,55.28-9.82,3.63-1.21,7.21-2.63,10.91-3.52,8.81-2.11,17.57-1.1,26.15,1.35,12.43,3.55,24.65,2.99,36.8-1.21,5.82-2.01,11.09-5.03,14.52-10.09,4.47-6.58,8.48-13.46,10.04-21.53,1.95-10.13,5.3-19.83,9.28-29.39,4.21-10.11,7.87-20.46,11.3-30.86,4.47-13.58,4.67-27.77,5.36-43.76Z"/>
          <path d="M29.38,331.19c-.74-.21-1.62-.22-2.19-.65-8.63-6.45-14.09-14.87-15.52-25.63-.21-1.58-.17-3.51,.58-4.81,.7-1.23,2.41-2.39,3.8-2.55,1.13-.13,2.53,1.16,3.6,2.07,.56,.48,.79,1.45,.99,2.24,2.38,9.79,4.42,19.67,9.68,28.54l-.93,.78Z"/>
          <path d="M49.58,179.42c-2.7,.82-4.67-.47-6.41-2-5.55-4.85-8.11-11.25-8.94-18.36-.36-3.1,1.58-5.63,4.03-6.07,2.48-.44,4.7,1.33,5.52,4.62,.6,2.41,.82,4.92,1.48,7.31,1.31,4.75,2.81,9.45,4.32,14.49Z"/>
          <path d="M254.43,180.57c.53,.28,1.82,.7,2.78,1.51,5.42,4.55,8.69,10.32,9.34,17.42,.06,.63-.58,1.33-.89,2-.65-.37-1.43-.62-1.93-1.14-3.81-3.89-7.6-7.8-11.33-11.77-.98-1.05-2.09-2.23-2.48-3.54-.76-2.59,1.05-4.57,4.5-4.48Z"/>
          <path d="M62.58,39.29c-1.15,5.2-2.29,10.16-3.32,15.15-.35,1.68-1.25,3.07-2.85,2.86-1.45-.19-3.37-1.06-4.03-2.22-2.72-4.8,2.48-15.01,7.97-16.02,.74-.14,1.57,.16,2.22,.24Z"/>
          <path d="M78.71,42.45c-2.39,3.39-4.44,6.67-6.89,9.62-1.35,1.62-4.16,.34-4.36-1.88-.08-.91,.25-1.97,.71-2.78,1.52-2.7,6.23-4.97,10.54-4.95Z"/>
          <path d="M623.15,78.02c-.05,.64-.11,2.3-.33,3.94-.05,.37-.6,.96-.93,.96-.56,0-1.49-.25-1.62-.62-2.5-7.4-7.97-12.96-12-19.4-.44-.7-1.06-1.53-.99-2.24,.17-1.54,.35-3.33,1.22-4.5,1.21-1.63,3.24-1.56,4.99-.59,.99,.55,2.01,1.28,2.67,2.18,4.2,5.73,7.28,11.89,6.98,20.27Z"/>
          <path d="M412.07,209.76c-.72-2.95-1.71-5.59-1.94-8.3-.36-4.12-.27-8.28-.18-12.42,.02-1.08,.42-2.52,1.18-3.12,1.05-.82,2.67-1.46,3.94-1.31,1.02,.12,2.64,1.46,2.72,2.36,.68,7.65,.38,15.2-3.89,22.01-.14,.22-.57,.26-1.81,.78Z"/>
          <path d="M590.91,43.49c-.71,.2-1.07,.44-1.32,.36-5.8-1.94-11.59-3.9-17.37-5.89-.62-.21-1.47-.43-1.72-.9-.65-1.24-1.6-2.74-1.37-3.92,.24-1.17,1.67-2.22,2.8-3.03,.57-.4,1.62-.22,2.44-.17,6.63,.37,14.22,6.53,16.53,13.55Z"/>
          <path d="M624.34,265.05c-4.17-3.77-7.6-6.87-11.01-9.98-.37-.33-.69-.73-.97-1.13-1.67-2.4-1.7-4.67-.08-6.35,1.66-1.73,4.69-1.9,6.77,.03,4.75,4.42,7.2,9.71,5.3,17.43Z"/>
          <path d="M474.51,32.88c-1.68,0-2.54,.21-3.24-.04-3.33-1.17-6.69-1.7-10.21-1.1-.64,.11-1.33,.1-1.98,.01-2.65-.34-4.07-1.76-4.15-4.06-.09-2.53,1.38-4.31,4.1-4.71,5.07-.75,9.02,1.44,12.29,5.04,1.08,1.19,1.79,2.69,3.19,4.85Z"/>
          <path d="M598.21,257.05c-2.89,.73-5.37,1.63-7.93,1.94-2.64,.32-4.71-1.57-4.94-3.88-.25-2.56,1.64-4.61,4.51-4.89,3.87-.37,5.97,1.17,8.36,6.83Z"/>
          <path d="M436.93,136.44c-1.49-5-.61-8.62,1.26-11.93,1.41-2.5,4.49-3.03,6.45-1.58,1.91,1.41,1.99,4.27-.16,6.55-2.13,2.26-4.56,4.24-7.55,6.97Z"/>
          <path d="M638.19,276.73c-.17,1.42-.07,2.17-.36,2.7-.6,1.08-1.43,2.04-2.16,3.05-.81-.71-1.76-1.31-2.38-2.16-1.07-1.46-2.07-3-2.83-4.63-1.03-2.21-.37-4.32,1.36-5.14,1.96-.93,4.27-.11,5.3,2.18,.65,1.46,.85,3.12,1.07,4Z"/>
          <path d="M1261.05,76.31c4.46,.47,8.95,.81,13.38,1.45,6.32,.9,8.31,5.07,5.3,10.77-1.63,3.08-3.31,6.14-4.91,9.23-1.6,3.09-1.97,6.28-.75,9.63,2.61,7.12,1.9,14.08-1.37,20.79-3.42,7.01-6.89,14.02-10.61,20.87-4.45,8.2-11.34,13.36-20.61,15.13-9.63,1.84-19.17,4.01-29.15,3.75-13.34-.35-30.06-11.23-31.58-28.64-.37-4.23-.68-8.5-2.96-12.43-.98-1.68-.93-4.24-.66-6.3,1.19-8.86,4.24-17.05,9.81-24.16,4.96-6.33,11.65-9.13,19.55-9.48,4.32-.19,8.73,0,12.92-.84,5.67-1.15,11.26-2.9,16.73-4.84,8.07-2.86,16.2-5.08,24.9-4.93Zm8.3,9.79c-2.56-.41-4.5-.83-6.46-1.03-8.5-.84-16.55,1.06-24.36,4.19-6.68,2.68-13.56,4.59-20.75,5.2-3.81,.32-7.65,.45-11.48,.51-6.38,.1-11.06,3.14-14.65,8.16-3.31,4.62-5.66,9.7-7.34,15.09,3.14,3.55,4.69,7.73,5.78,12.11,1.01,4.02,1.96,8.06,2.87,12.11,.81,3.56,2.82,6.29,5.52,8.67,5.74,5.07,12.55,6.84,19.94,5.95,6.27-.76,12.42-2.39,18.68-3.25,7.73-1.07,13.29-5.11,16.99-11.72,3.24-5.79,6.11-11.79,9.23-17.65,2.72-5.1,3.39-10.29,1.47-15.84-1.84-5.31-1.03-10.49,1.24-15.5,.95-2.1,1.97-4.18,3.3-7.01Z"/>
          <path d="M1340.78,55.34c-1.3-.82-1.92-1.04-2.31-1.47-4.44-4.83-9.81-8.39-15.51-11.54-3.74-2.07-4.85-4.02-3.73-6.46,.99-2.16,4.31-3.13,7.55-1.72,6.89,3,11.68,8.13,13.92,15.33,.49,1.57,.07,3.41,.07,5.86Z"/>
          <path d="M1126.26,275.34c-1.18-1.75-1.83-2.45-2.18-3.29-2.58-6.15-4.22-12.52-4.59-19.2-.02-.33-.09-.66-.1-.99-.05-3.59,1.69-6.07,4.35-6.23,2.49-.15,4.56,1.67,4.98,5.2,.95,7.92,.57,15.77-2.46,24.51Z"/>
          <path d="M1173.67,49.72c-3.37,2.11-5.89,2.19-8.62,1.73-4.64-.79-9.08-2.02-12.96-4.75-3.14-2.21-4.04-5.17-2.47-7.61,1.49-2.3,4.34-2.86,7.56-1.14,5.83,3.12,10.6,7.66,16.5,11.77Z"/>
          <path d="M1286.52,281.5c-.85-.51-1.35-.65-1.61-.98-4.37-5.59-8.67-11.23-13.06-16.8-2.25-2.86-2.68-5.1-1.08-6.55,1.66-1.51,3.99-.85,6.21,2.08,4.41,5.81,8.36,11.89,9.65,19.26,.15,.83-.05,1.73-.11,2.99Z"/>
          <path d="M1320.94,143c1.23-5.14,3.08-10.05,7.45-13.58,1-.8,2.84-1.03,4.17-.81,1.09,.18,2.61,1.27,2.84,2.22,.28,1.19-.13,3.2-1.01,3.9-3.94,3.14-8.16,5.94-12.27,8.86-.39-.2-.79-.39-1.18-.59Z"/>
          <path d="M1348.54,74.85c-.74-1.4-1.62-2.75-2.19-4.22-1.08-2.78-2.03-5.6-2.93-8.44-1.09-3.41-.35-5.63,1.95-6.26,2.56-.7,4.65,.94,5.29,4.52,.35,1.94,.33,3.97,.23,5.94-.07,1.47-.56,2.92-.79,4.39-.2,1.26-.28,2.54-.42,3.81l-1.14,.25Z"/>
          <path d="M1126.42,312.42c-3.4-4-3.9-8.4-2.88-13.06,.41-1.9,1.7-3.25,3.91-3.03,2.17,.22,3.35,1.73,3.29,3.67-.13,4.41-.44,8.86-4.32,12.41Z"/>
          <path d="M1306.49,315.84c-1.51-1.31-2.47-1.8-2.89-2.58-1.88-3.45-3.75-6.93-5.33-10.52-.61-1.39-1.09-3.41,.93-4.3,1.86-.82,3.16,.3,3.9,1.98,2.02,4.57,4.66,9.01,3.39,15.41Z"/>
          <path d="M1293.67,184.97c1.09-5.62,3.65-9.26,7.46-11.98,1.82-1.3,4.36-.64,5.29,.91,1,1.66,.28,3.28-2.13,4.73-3.22,1.93-6.45,3.85-10.62,6.34Z"/>
          <path d="M1566.32,172.28c-12.69,.1-24.9-2.38-36.93-5.84-2.2-.63-4.23-1.91-6.3-2.97-7.8-4.02-10.1-10.94-10.07-19.09,0-1.8,.25-3.68-.16-5.39-1.33-5.55-.41-10.9,1.1-16.21,4-14.03,11.47-25.79,23.68-34.06,15.8-10.71,32.34-12.19,49.45-3,3.22,1.73,6.59,3.2,9.75,5.04,4.79,2.78,9.93,3.7,15.36,3.34,3.82-.25,7.64-.51,11.45-.88,8.35-.82,15.26,2.68,21.72,7.3,8.55,6.11,10.35,15.02,9.72,24.73-.22,3.47-2.82,5.62-5.57,7.23-2.57,1.51-5.34,2.72-8.13,3.77-7.43,2.79-14.03,6.78-19.81,12.24-3.87,3.65-8.01,7.01-12.04,10.5-8.86,7.66-19.1,11.95-30.84,12.58-4.16,.22-8.32,.46-12.39,.69Zm.89-8.84c4.22-.48,11.02-1.07,17.76-2.08,8.41-1.27,15.1-6.1,21.21-11.53,11.29-10.02,23.25-18.84,37.69-23.84,.31-.11,.62-.24,.93-.37,2.58-1.04,3.17-2.99,2.97-5.62-.99-13.15-13.39-19.44-22.2-19.44-3.49,0-7,.3-10.45,.79-6.98,.99-13.61-.11-19.95-3-3.93-1.79-7.82-3.7-11.62-5.76-17.17-9.29-34.32-4-46.23,6.43-9.13,8-14.29,18.23-16.86,29.83-.67,3.01-.57,6.32-.15,9.4,.56,4.09,1.7,8.1,2.78,12.1,.26,.96,1.13,1.99,2.01,2.53,12.11,7.42,25.47,10.26,42.12,10.57Z"/>
          <path d="M1431.13,131.94c-.41,3.41-.64,6.66-1.21,9.85-1.11,6.2-2.37,12.36-3.64,18.53-.3,1.45-.71,2.93-1.38,4.23-1.55,3.01-4.98,3.19-6.68,.21-.86-1.5-1.42-3.49-1.26-5.18,.78-8.68,3.02-16.95,8.09-24.21,1.31-1.88,2.95-3.54,6.09-3.42Z"/>
          <path d="M1438.71,317.35c-2-1.55-3.58-2.68-5.04-3.94-4.83-4.18-8.74-9.14-11.39-14.92-.91-1.98-1.14-4.46-1.01-6.67,.11-1.89,1.74-3.14,3.76-3.44,1.83-.27,3.48,.38,4.18,2.05,3.33,7.91,6.54,15.87,9.71,23.85,.26,.66-.08,1.56-.2,3.08Z"/>
          <path d="M1483.71,71.46c-1.34,2.11-2.2,4.06-3.58,5.53-3.85,4.12-7.9,8.05-11.89,12.02-.58,.58-1.28,1.35-1.99,1.42-1.72,.16-3.75,.48-5.15-.24-1.95-1.01-2.02-3.25-1.28-5.3,.28-.77,.58-1.6,1.11-2.19,5.4-6.17,11.92-10.46,20.18-11.73,.59-.09,1.24,.22,2.61,.49Z"/>
          <path d="M1540.97,47.06c-3.55-.09-5.3-1.3-5.91-3.44-.74-2.55,.14-5.41,2.72-6.22,3.09-.98,6.47-1.54,9.71-1.46,3.25,.09,6.48,1.14,9.69,1.9,.68,.16,1.77,1.03,1.7,1.39-.16,.82-.77,1.75-1.47,2.22-1.08,.73-2.35,1.23-3.61,1.63-4.57,1.46-9.16,2.84-12.83,3.97Z"/>
          <path d="M1703.08,124.88c.23,.79,.72,1.56,.59,2.22-.87,4.54-1.77,9.08-2.84,13.57-.96,4.03-3.27,5.73-6.14,4.83-3.32-1.04-5.03-5.25-3.49-8.6,.89-1.94,9.34-10.58,11.88-12.01Z"/>
          <path d="M1454.14,312.71c.99-1.31,1.68-3.03,2.89-3.56,1.01-.44,2.91,.19,3.92,.98,1.24,.97,1.95,2.61,2.91,3.95,1.35,1.87,2.76,3.68,4.07,5.58,.75,1.09,2.92,1.91,1.47,3.53-.53,.59-2.58,.43-3.55-.11-3.13-1.73-6.22-3.62-9.04-5.8-1.17-.91-1.63-2.72-2.67-4.57Z"/>
          <path d="M1435.13,152.78c.34,4.89,.67,9.4,.96,13.92,.23,3.6-.64,5.33-2.69,5.54-1.93,.19-3.62-1.61-4.08-4.76-.79-5.35,1-10.03,4.1-14.3,.17-.23,.55-.37,.86-.43,.3-.06,.64,.02,.86,.03Z"/>
          <path d="M867.28,142.74c9.5,1.29,16.94,9.21,17.84,18.77,.3,3.14,.59,6.3,.59,9.45-.01,6.63,1.59,12.77,4.78,18.6,4.18,7.64,6.76,15.79,8.05,24.46,1.45,9.79-.24,18.53-6.95,25.99-11.71,13.03-25.73,21.72-43.85,21.32-11.99-.26-21.38-5.5-26.75-16.75-.48-1.01-1.42-1.79-2.09-2.73-2.4-3.38-4.97-6.66-7.12-10.19-3.78-6.21-4.74-12.94-3.5-20.14,.52-3.04,.35-6.27,.05-9.37-.68-7.26-2.23-14.49-2.35-21.75-.34-19.68,13.05-35.03,32.46-37.96,1.48-.22,2.96-.56,4.45-.62,2.83-.1,5.66-.03,8.49-.03m-7.45,10.03c-15.91,.26-28.77,13.1-28.7,29.01,.03,5.78,1.04,11.54,1.34,17.33,.25,4.78,.73,9.68-.04,14.34-.83,4.99-.65,9.55,1.55,14.02,1.9,3.86,3.86,7.7,5.96,11.46,.6,1.08,1.65,2.06,2.72,2.69,3.7,2.2,7.41,4.42,11.29,6.26,2.49,1.18,5.25,2.26,7.95,2.45,15.53,1.07,26.92-6.6,36.63-17.7,4.05-4.63,4.87-9.95,4.08-15.82-1.1-8.12-3.13-15.91-6.99-23.21-3.22-6.1-4.96-12.62-5.05-19.57-.04-2.81-.42-5.62-.69-8.43-.66-6.91-3.84-10.65-10.68-11.81-4.57-.78-9.23-.98-13.85-1.44"/>
          <path d="M826.14,34.24c-.84,.55-1.71,1.06-2.51,1.65-7.78,5.69-15.75,11.07-25,14.15-2.01,.67-4.19,1-6.31,1.1-2.38,.11-4.12-1.16-4.9-3.48-.78-2.34,.07-4.31,1.87-5.74,1.13-.91,2.52-1.68,3.91-2.05,10.08-2.65,20.19-5.2,30.31-7.69,.6-.15,1.4,.51,2.11,.79l.51,1.27Z"/>
          <path d="M767.85,75.63c0,1.79,.3,3.15-.05,4.33-2.44,8.26-5,16.49-7.56,24.72-.34,1.1-.78,2.21-1.42,3.16-1.3,1.94-3.14,2.94-5.56,2.42-2.33-.5-4.04-2.38-4.14-4.97-.06-1.44,.19-3.01,.72-4.35,3.53-8.89,8.55-16.87,15.28-23.72,.61-.62,1.56-.92,2.73-1.58Z"/>
          <path d="M992.79,237.61c-1.26,4.51-2.11,9.18-3.88,13.48-2.78,6.71-6.19,13.15-9.34,19.7-.21,.44-.51,.85-.8,1.26-2.34,3.29-5.15,4.46-7.48,3.11-2.18-1.26-2.42-4.38-.13-8,6.11-9.66,12.37-19.22,18.61-28.79,.39-.6,1.14-.98,1.72-1.46,.43,.23,.87,.46,1.3,.69Z"/>
          <path d="M803.67,53.68c-.35,1.25-.45,2.04-.78,2.72-2.9,5.93-5.82,11.84-8.78,17.74-.51,1.01-1.07,2.33-1.97,2.75-1.38,.65-3.12,1.03-4.61,.81-1.8-.27-2.71-1.93-2.62-3.72,.07-1.61,.22-3.36,.9-4.78,3.27-6.77,8.53-11.67,15.13-15.18,.62-.33,1.49-.2,2.73-.34Z"/>
          <path d="M766.25,332.9c-1.63,0-2.82,.26-3.86-.04-6.63-1.9-11.87-5.77-15.68-11.51-.63-.96-1.14-2.05-1.45-3.15-.69-2.4,.24-4.68,2.17-5.51,2.21-.94,3.92,0,5.2,1.74,1.28,1.73,2.28,3.67,3.57,5.39,3.14,4.2,6.39,8.32,10.05,13.07Z"/>
          <path d="M948.19,333.46c-1.39,1.26-2.59,2.96-4.22,3.7-5.42,2.46-10.97,4.63-16.53,6.77-1.19,.46-2.62,.41-3.94,.42-1.8,.02-3.31-.58-3.68-2.61-.34-1.84,.33-3.36,1.96-4.19,1.31-.67,2.77-1.17,4.21-1.42,5.88-1.03,11.78-1.92,17.67-2.91,1.24-.21,2.45-.58,3.68-.88l.85,1.11Z"/>
          <path d="M710.53,224.38c-1.25-1.61-2.13-2.33-2.46-3.24-2.34-6.43-2.88-13.15-3.03-19.91-.02-1.08,.35-2.48,1.07-3.18,.96-.94,2.5-1.94,3.7-1.83,1.19,.11,2.45,1.4,3.3,2.46,.54,.67,.63,1.91,.51,2.84-.93,7.28-1.95,14.54-3.09,22.86Z"/>
          <path d="M725.98,274.93c-1.35-.43-2.2-.47-2.75-.91-5.06-4-8.47-9.19-10.76-15.16-.18-.46-.32-.94-.39-1.43-.41-2.75,.75-4.82,3.05-5.49,2.06-.6,3.95,.39,5.16,2.77,.37,.73,.62,1.53,.84,2.32,1.55,5.67,3.08,11.34,4.85,17.89Z"/>
        </g>
      </g>
    </g>
  </g>
</svg>